<?xml version="1.0" encoding="UTF-8"?>
<!DOCTYPE svg PUBLIC "-//W3C//DTD SVG 1.1//EN" "http://www.w3.org/Graphics/SVG/1.1/DTD/svg11.dtd">
<!-- Creator: CorelDRAW X7 -->
<svg xmlns="http://www.w3.org/2000/svg" xml:space="preserve" width="8in" height="0.7in" version="1.1" style="shape-rendering:geometricPrecision; text-rendering:geometricPrecision; image-rendering:optimizeQuality; fill-rule:evenodd; clip-rule:evenodd"
viewBox="0 0 8000 700"
 xmlns:xlink="http://www.w3.org/1999/xlink">
 <defs>
  <style type="text/css">
   <![CDATA[
    .str0 {stroke:#373435;stroke-width:3}
    .fil1 {fill:none}
    .fil2 {fill:#FEFEFE}
    .fil11 {fill:#D2D3D5}
    .fil8 {fill:#373435}
    .fil10 {fill:#FFF212}
    .fil7 {fill:#FCD3C2}
    .fil5 {fill:#F6AFCE}
    .fil12 {fill:#ED3237}
    .fil3 {fill:#6FCFF6}
    .fil9 {fill:#0098DA}
    .fil0 {fill:white}
    .fil6 {fill:url(#id0)}
    .fil13 {fill:url(#id1)}
    .fil4 {fill:url(#id2)}
   ]]>
  </style>
  <linearGradient id="id0" gradientUnits="userSpaceOnUse" x1="5005.28" y1="300.492" x2="4676.03" y2="634.256">
   <stop offset="0" style="stop-opacity:1; stop-color:#FEFEFE"/>
   <stop offset="1" style="stop-opacity:1; stop-color:#F6AFCE"/>
  </linearGradient>
  <linearGradient id="id1" gradientUnits="userSpaceOnUse" x1="4568.28" y1="490.651" x2="5008.16" y2="490.651">
   <stop offset="0" style="stop-opacity:1; stop-color:#F6AFCE"/>
   <stop offset="1" style="stop-opacity:1; stop-color:#C8A2CB"/>
  </linearGradient>
  <linearGradient id="id2" gradientUnits="userSpaceOnUse" x1="3730.64" y1="126.547" x2="3779.11" y2="635.929">
   <stop offset="0" style="stop-opacity:1; stop-color:#91D8F7"/>
   <stop offset="1" style="stop-opacity:1; stop-color:#FEFEFE"/>
  </linearGradient>
 </defs>
 <g id="Layer_x0020_1">
  <metadata id="CorelCorpID_0Corel-Layer"/>
  <rect class="fil0" y="-1" width="8000" height="700"/>
  <path class="fil1" d="M851 372c424,-70 493,76 805,46 724,-116 1020,20 1552,-15 490,-64 832,69 1315,5 450,-83 724,88 1595,-5 902,-157 695,16 1396,-60"/>
  <path class="fil2" d="M860 387c108,-99 576,-78 902,-6 406,90 1526,-22 2337,-4 151,3 259,-10 411,-4 425,18 928,73 1382,70 222,-2 397,-56 537,-72 39,-5 251,-46 458,-42 193,5 338,-13 459,-11 73,2 175,27 165,20 -40,-27 -134,-34 -198,-39 -392,-31 -745,11 -1043,78 -422,94 -1551,19 -2089,19 -233,0 -616,-52 -1156,-46 -283,3 -604,69 -882,66 -101,-2 -314,-48 -377,-60 -580,-103 -933,-35 -906,31z"/>
  <path class="fil3" d="M7981 364c-237,-3 -745,-34 -1373,16 -386,54 -670,189 -1056,135 -356,-65 -791,-199 -1101,-125 -357,54 -622,128 -978,74 -316,-51 -700,-142 -969,-84 -444,40 -888,40 -1332,0 -409,-81 -795,-81 -1158,0 128,-222 1484,-40 1881,-40 591,0 510,-76 1101,-76 223,0 728,86 1012,96 194,7 170,-35 333,-27 420,23 615,-26 907,-16 478,15 721,105 1386,0 136,-22 1016,-115 1347,47z"/>
  <path class="fil4" d="M38 378c61,-105 534,-163 883,-58 197,44 368,46 663,29 241,-37 725,-63 965,-19 213,20 182,43 395,9 268,-27 535,-13 803,41 218,16 306,6 524,-31 251,-42 633,-29 885,10 294,41 567,41 819,0 174,-40 349,-40 524,0 164,21 298,76 462,43 223,-31 423,-75 516,-51 -147,20 -289,76 -436,123 -235,37 -360,-15 -568,-42 -169,-27 -374,-6 -543,48 -229,68 -721,23 -964,-25 -243,-48 -305,-84 -580,-25 -276,59 -334,44 -623,0 -289,-44 -546,-7 -819,-10 -328,24 -546,20 -655,-10 -251,-41 -503,0 -754,0 -210,30 -461,27 -803,-51 -119,-32 -286,-47 -434,-28 -115,14 -224,63 -260,47z"/>
  <path class="fil1" d="M158 380c497,-71 578,76 944,46 849,-117 1196,20 1819,-16 575,-64 976,70 1542,5 528,-82 849,88 1871,-5 1057,-157 814,17 1637,-59"/>
  <path class="fil5 str0" d="M4567 446c6,-26 16,-43 31,-49 199,79 353,134 494,146 -115,-3 -330,-41 -525,-97z"/>
  <path class="fil6 str0" d="M4587 403c6,-5 23,-13 33,-9 162,93 291,108 421,95 40,19 52,41 53,55 -132,-19 -373,-78 -507,-141z"/>
  <path class="fil7 str0" d="M4572 445c-138,90 -252,95 -314,130 -38,22 -132,-57 -242,-101 -15,-6 -29,-17 -47,-20 -42,-9 -92,-1 -135,14 -65,69 -24,79 11,147 16,4 31,9 48,13 158,43 364,76 379,59 70,-26 220,-118 321,-167 15,-9 37,-9 50,-19 16,-12 -2,-42 -71,-56z"/>
  <path class="fil7 str0" d="M3504 402c-56,16 -75,-113 -157,-67 -74,26 -30,160 26,174 38,10 52,-32 71,-14l60 -93z"/>
  <path class="fil5 str0" d="M3306 412l-13 11 36 66 14 -2c10,-27 -6,-52 -37,-75z"/>
  <path class="fil8 str0" d="M3306 414c55,27 81,34 129,31 9,0 50,-4 66,-15 23,-41 224,14 234,6 -19,6 -120,-64 -131,-59 0,-5 13,-11 3,-16 -6,6 -16,2 -30,6 -5,-4 3,-14 -15,-15 0,5 -19,7 -30,9l-37 -7c0,-4 17,-11 2,-15 -16,4 -30,8 -35,6 -113,-79 -154,12 -156,69z"/>
  <path class="fil9 str0" d="M3317 443l7 15c40,-24 78,-64 119,-115l-21 -13c-31,43 -59,80 -105,113z"/>
  <rect class="fil10 str0" transform="matrix(0.307289 -0.166896 0.16464 0.311525 3320.44 432.828)" width="9.94094" height="77.5512"/>
  <path class="fil11 str0" d="M3339 378c6,-19 18,-32 37,-37 -16,8 -29,20 -37,37z"/>
  <path class="fil5 str0" d="M3360 262l-19 6c19,98 30,210 4,249l15 16 11 -11c21,-34 9,-161 -11,-260z"/>
  <path class="fil7 str0" d="M4007 469c-20,-12 -44,-21 -62,-18 -116,17 -158,100 -102,149 18,15 46,31 85,36 -41,5 -88,-12 -142,-27 -15,-5 -44,-14 -58,-17 -43,-9 -68,-5 -109,6 -63,59 -152,-91 -184,-107l145 13 58 -77c65,8 121,26 178,13 64,-14 141,-22 191,29z"/>
  <path class="fil12" d="M4010 473c-38,-25 -77,-18 -103,-11 -113,29 -114,156 21,173 -21,7 -114,-14 -113,-21 15,-87 -42,-134 20,-175 5,-4 116,-32 175,34z"/>
  <path class="fil13 str0" d="M4568 444c7,2 14,3 21,5 40,10 69,26 53,55 173,24 194,6 366,33 -142,-28 -302,-57 -440,-93z"/>
  <path class="fil12" d="M3613 600c5,-6 10,-13 9,-21 -1,-20 -15,-45 3,-67 -14,1 -26,-7 -23,7 12,49 -120,-4 -151,-20 32,22 66,31 78,82 34,37 73,33 84,19z"/>
  <path class="fil7 str0" d="M3913 552c80,13 106,34 106,42 1,15 -39,-20 -52,-12 36,15 61,30 58,38 1,15 -21,-11 -60,-22 13,10 58,28 57,43 -12,5 -19,-7 -63,-25 28,23 60,34 47,37 -7,2 -59,-21 -73,-33 -3,3 37,22 18,29 -32,-23 -35,-23 -47,-31 -9,-8 -11,-18 -24,-24 25,2 46,-19 33,-42z"/>
  <path class="fil7 str0" d="M3490 405c-65,30 -65,38 -48,82 35,52 213,10 227,24 49,18 152,48 205,81 22,-6 45,-6 35,-41 -93,-27 -123,-95 -232,-124 -44,5 -135,-35 -187,-22z"/>
  <circle class="fil8 str0" transform="matrix(-1.22682 -0.218807 -0.21584 1.24369 3907.07 571.649)" r="10"/>
  <ellipse class="fil2 str0" transform="matrix(-1.22682 -0.218807 -0.21584 1.24369 3907.07 571.649)" rx="8" ry="6"/>
  <path class="fil2" d="M1253 394c108,-98 577,-78 904,-6 407,90 1529,-21 2343,-4 150,3 259,-10 412,-3 425,18 930,72 1385,69 222,-1 397,-55 538,-72 39,-5 251,-46 458,-41 194,4 340,-13 461,-11 73,1 176,27 165,19 -40,-26 -134,-33 -198,-38 -393,-32 -746,11 -1046,77 -423,95 -1554,20 -2093,20 -234,0 -618,-52 -1159,-46 -284,3 -606,69 -884,65 -101,-1 -315,-48 -378,-59 -582,-104 -935,-35 -908,30z"/>
 </g>
</svg>
