<?xml version="1.0" encoding="UTF-8"?>
<!DOCTYPE svg PUBLIC "-//W3C//DTD SVG 1.1//EN" "http://www.w3.org/Graphics/SVG/1.1/DTD/svg11.dtd">
<!-- Creator: CorelDRAW X7 -->
<svg xmlns="http://www.w3.org/2000/svg" xml:space="preserve" width="2.5in" height="0.625in" version="1.1" style="shape-rendering:geometricPrecision; text-rendering:geometricPrecision; image-rendering:optimizeQuality; fill-rule:evenodd; clip-rule:evenodd"
viewBox="0 0 2500 625"
 xmlns:xlink="http://www.w3.org/1999/xlink">
 <defs>
  <style type="text/css">
   <![CDATA[
    .str0 {stroke:#373435;stroke-width:3}
    .fil1 {fill:none}
    .fil2 {fill:#FEFEFE}
    .fil10 {fill:#D2D3D5}
    .fil7 {fill:#373435}
    .fil9 {fill:#FFF212}
    .fil6 {fill:#FCD3C2}
    .fil4 {fill:#F6AFCE}
    .fil11 {fill:#ED3237}
    .fil3 {fill:#6FCFF6}
    .fil8 {fill:#0098DA}
    .fil0 {fill:white}
    .fil5 {fill:url(#id0)}
    .fil12 {fill:url(#id1)}
    .fil13 {fill:url(#id2)}
   ]]>
  </style>
  <linearGradient id="id0" gradientUnits="userSpaceOnUse" x1="1878.3" y1="369.074" x2="1672.53" y2="577.678">
   <stop offset="0" style="stop-opacity:1; stop-color:#FEFEFE"/>
   <stop offset="1" style="stop-opacity:1; stop-color:#F6AFCE"/>
  </linearGradient>
  <linearGradient id="id1" gradientUnits="userSpaceOnUse" x1="1605.18" y1="487.924" x2="1880.11" y2="487.924">
   <stop offset="0" style="stop-opacity:1; stop-color:#F6AFCE"/>
   <stop offset="1" style="stop-opacity:1; stop-color:#C8A2CB"/>
  </linearGradient>
  <linearGradient id="id2" gradientUnits="userSpaceOnUse" x1="1226.31" y1="281.673" x2="1242.25" y2="562.134">
   <stop offset="0" style="stop-opacity:1; stop-color:#91D8F7"/>
   <stop offset="1" style="stop-opacity:1; stop-color:#FEFEFE"/>
  </linearGradient>
 </defs>
 <g id="Layer_x0020_1">
  <metadata id="CorelCorpID_0Corel-Layer"/>
  <rect class="fil0" width="2500" height="625"/>
  <path class="fil1" d="M266 436c132,-47 154,50 252,30 226,-77 318,14 485,-10 153,-43 260,46 410,3 141,-55 227,59 499,-3 282,-104 217,11 436,-39"/>
  <path class="fil2" d="M269 445c33,-65 180,-52 282,-4 127,60 477,-14 730,-2 47,2 81,-7 129,-3 132,12 290,48 432,47 69,-1 123,-37 167,-48 12,-4 79,-31 143,-28 61,3 106,-8 144,-7 22,1 55,18 51,13 -12,-18 -41,-22 -61,-26 -123,-21 -233,7 -327,52 -132,62 -484,13 -652,13 -73,0 -193,-35 -362,-31 -88,2 -188,46 -275,44 -32,-1 -98,-32 -118,-40 -181,-69 -292,-23 -283,20z"/>
  <path class="fil3" d="M2477 424c-129,-7 -114,-53 -206,-39 -63,10 -127,42 -206,56 -121,36 -160,93 -280,57 -112,-43 -285,-72 -386,-35 -112,36 -202,69 -314,34 -98,-34 -218,-94 -302,-56 -139,27 -177,54 -353,-5 -128,-54 -312,-49 -425,5 152,-143 462,-59 586,-14 174,63 161,-63 345,-63 70,0 231,88 317,64 94,-28 309,-44 429,-21 220,42 191,45 388,-27 80,-29 164,-29 241,-12 67,15 98,34 166,56z"/>
  <path class="fil1" d="M50 441c155,-47 180,50 295,30 265,-77 373,14 568,-10 180,-43 305,46 482,3 165,-54 265,59 584,-3 331,-104 255,11 512,-39"/>
  <path class="fil4 str0" d="M1604 460c4,-16 11,-27 20,-31 124,50 220,84 309,92 -72,-2 -207,-26 -329,-61z"/>
  <path class="fil5 str0" d="M1617 433c3,-3 14,-8 21,-6 101,59 181,68 263,60 25,12 32,25 33,35 -83,-13 -234,-49 -317,-89z"/>
  <path class="fil6 str0" d="M1607 460c-86,56 -157,59 -196,81 -23,13 -82,-36 -151,-63 -9,-4 -18,-11 -29,-13 -26,-5 -58,-1 -85,9 -41,43 -15,49 7,92 10,2 20,5 30,8 99,27 228,47 237,37 44,-16 138,-74 201,-105 9,-5 23,-5 31,-11 10,-8 -1,-27 -45,-35z"/>
  <path class="fil6 str0" d="M940 432c-35,10 -47,-70 -98,-42 -47,17 -19,100 16,110 24,6 33,-21 44,-9l38 -59z"/>
  <path class="fil4 str0" d="M817 439l-9 7 23 41 8 -1c7,-17 -4,-33 -22,-47z"/>
  <path class="fil7 str0" d="M816 440c35,17 51,21 81,20 6,-1 31,-3 41,-10 15,-26 140,9 147,4 -12,4 -76,-40 -83,-37 1,-3 9,-7 2,-10 -3,3 -10,1 -19,4 -2,-3 3,-9 -9,-10 0,3 -12,4 -19,6l-23 -5c0,-2 11,-6 2,-9 -11,3 -19,5 -22,4 -71,-49 -97,7 -98,43z"/>
  <path class="fil8 str0" d="M823 458l5 9c24,-15 49,-40 74,-71l-13 -9c-20,28 -37,50 -66,71z"/>
  <rect class="fil9 str0" transform="matrix(0.192056 -0.10431 0.1029 0.194704 825.276 451.785)" width="9.94094" height="77.5512"/>
  <path class="fil10 str0" d="M837 417c4,-12 11,-19 23,-23 -10,5 -18,13 -23,23z"/>
  <path class="fil4 str0" d="M850 345l-12 4c12,61 19,131 3,156l9 10 7 -8c13,-21 6,-100 -7,-162z"/>
  <path class="fil6 str0" d="M1254 474c-12,-7 -27,-13 -38,-11 -73,11 -99,63 -64,93 11,10 29,20 53,23 -26,3 -55,-8 -89,-17 -9,-3 -27,-9 -36,-11 -27,-5 -43,-3 -68,4 -40,37 -95,-57 -115,-67l90 8 37 -48c40,5 75,16 111,8 40,-9 88,-14 119,18z"/>
  <path class="fil11" d="M1256 477c-24,-16 -48,-11 -64,-7 -71,18 -71,97 13,108 -13,5 -71,-9 -71,-13 10,-55 -26,-84 13,-110 3,-2 73,-19 109,22z"/>
  <path class="fil12 str0" d="M1605 459c5,1 9,2 13,3 25,6 43,16 33,34 109,15 122,4 229,21 -89,-18 -189,-36 -275,-58z"/>
  <path class="fil11" d="M1008 556c4,-4 6,-8 6,-13 -1,-13 -9,-28 2,-42 -9,1 -17,-4 -15,4 7,31 -74,-2 -94,-12 20,14 41,19 48,52 22,23 47,20 53,11z"/>
  <path class="fil6 str0" d="M1196 526c49,9 66,22 66,26 0,10 -24,-12 -33,-7 23,9 38,19 37,24 0,9 -14,-7 -38,-14 8,6 36,17 36,27 -8,3 -12,-5 -40,-16 18,15 38,22 30,24 -5,1 -37,-13 -46,-21 -2,2 23,14 12,18 -20,-14 -23,-14 -30,-20 -6,-4 -7,-10 -15,-15 16,2 29,-11 21,-26z"/>
  <path class="fil6 str0" d="M931 435c-40,18 -41,23 -29,51 21,32 132,6 141,14 31,12 95,31 128,51 14,-3 28,-3 22,-26 -58,-16 -77,-59 -145,-77 -27,3 -84,-21 -117,-13z"/>
  <path class="fil13" d="M12 407c19,-40 129,-78 247,-20 44,29 124,30 236,10 75,-15 227,-25 302,-8 66,8 57,17 123,4 84,-11 167,-5 251,15 68,7 96,3 164,-11 307,-22 243,209 537,20 61,-36 110,-16 164,0 51,8 88,12 139,0 121,-60 194,-41 283,10 -56,-25 -128,-45 -174,-27 -32,6 -101,46 -132,48 -40,4 -93,-14 -129,-20 -27,-5 -81,-16 -126,-5 -43,10 -77,40 -103,51 -66,42 -165,15 -246,-21 -82,-37 -91,-48 -177,-25 -86,22 -104,16 -195,0 -90,-17 -171,-3 -256,-4 -102,9 -171,7 -205,-4 -78,-16 -134,-35 -235,0 -75,27 -154,27 -251,-20 -37,-12 -91,-30 -138,-23 -36,6 -58,8 -79,30z"/>
  <circle class="fil7 str0" transform="matrix(-0.766765 -0.136754 -0.1349 0.777306 1191.92 538.548)" r="10"/>
  <ellipse class="fil2 str0" transform="matrix(-0.766765 -0.136754 -0.1349 0.777306 1191.92 538.548)" rx="8" ry="6"/>
  <path class="fil2" d="M23 433c33,-66 524,-51 635,3 126,61 494,-34 748,-22 47,2 81,-20 129,-16 133,12 252,81 394,80 69,-1 163,-57 207,-68 12,-3 79,-31 143,-28 49,3 190,76 186,71 -48,-69 -287,-83 -379,-39 -101,48 -323,25 -491,18 -52,-2 -87,11 -126,11 -73,0 -230,-51 -399,-47 -89,2 -184,52 -271,50 -32,-1 -96,-14 -116,-22 -182,-68 -669,-35 -660,9z"/>
 </g>
</svg>
