<?xml version="1.0" encoding="UTF-8"?>
<!DOCTYPE svg PUBLIC "-//W3C//DTD SVG 1.1//EN" "http://www.w3.org/Graphics/SVG/1.1/DTD/svg11.dtd">
<!-- Creator: CorelDRAW X7 -->
<svg xmlns="http://www.w3.org/2000/svg" xml:space="preserve" width="1.5in" height="1in" version="1.1" style="shape-rendering:geometricPrecision; text-rendering:geometricPrecision; image-rendering:optimizeQuality; fill-rule:evenodd; clip-rule:evenodd"
viewBox="0 0 1500 1000"
 xmlns:xlink="http://www.w3.org/1999/xlink">
 <defs>
  <style type="text/css">
   <![CDATA[
    .fil0 {fill:black}
    .fil1 {fill:#999999}
   ]]>
  </style>
 </defs>
 <g id="Layer_x0020_1">
  <metadata id="CorelCorpID_0Corel-Layer"/>
  <path class="fil0" d="M710 104l-6 798c49,-26 100,-90 143,-169 25,54 101,153 201,229l346 0c-109,-81 -359,-356 -411,-472 59,-111 334,-387 409,-446l-340 -1c-73,44 -150,126 -204,199 -48,-64 -94,-113 -138,-138z"/>
  <path class="fil1" d="M713 104c-2,131 -4,262 -6,394 -84,-213 -205,-255 -313,-181 -110,92 -120,243 -35,356 39,40 107,57 157,46 92,-19 136,-69 190,-220 4,125 -4,275 1,400 -169,92 -335,105 -507,-43 -181,-193 -173,-537 0,-706 155,-137 323,-156 513,-46z"/>
 </g>
</svg>
