<?xml version="1.0" encoding="UTF-8"?>
<!DOCTYPE svg PUBLIC "-//W3C//DTD SVG 1.1//EN" "http://www.w3.org/Graphics/SVG/1.1/DTD/svg11.dtd">
<!-- Creator: CorelDRAW X7 -->
<svg xmlns="http://www.w3.org/2000/svg" xml:space="preserve" width="3.1in" height="0.246in" version="1.1" style="shape-rendering:geometricPrecision; text-rendering:geometricPrecision; image-rendering:optimizeQuality; fill-rule:evenodd; clip-rule:evenodd"
viewBox="0 0 3100 246"
 xmlns:xlink="http://www.w3.org/1999/xlink">
 <defs>
  <style type="text/css">
   <![CDATA[
    .fil2 {fill:#003399}
    .fil1 {fill:#003399;fill-rule:nonzero}
    .fil0 {fill:#00CCFF;fill-rule:nonzero}
    .fil3 {fill:url(#id0)}
   ]]>
  </style>
  <linearGradient id="id0" gradientUnits="userSpaceOnUse" x1="764.898" y1="117.335" x2="1075.66" y2="117.335">
   <stop offset="0" style="stop-opacity:1; stop-color:#00CCFF"/>
   <stop offset="1" style="stop-opacity:1; stop-color:#08168F"/>
  </linearGradient>
 </defs>
 <g id="Layer_x0020_1">
  <metadata id="CorelCorpID_0Corel-Layer"/>
  <path class="fil0" d="M599 224l-73 0 0 -208 67 0 0 35c11,-14 23,-24 36,-31 12,-7 26,-10 40,-10 22,0 39,6 50,19 12,13 18,31 18,55l0 140 -72 0 0 -119c0,-11 -3,-19 -7,-25 -5,-6 -11,-8 -20,-8 -13,0 -22,4 -29,12 -7,9 -10,21 -10,37l0 103z"/>
  <path class="fil1" d="M1096 231l0 -218 52 0 0 80 84 0 0 -80 51 0 0 218 -51 0 0 -91 -84 0 0 91 -52 0zm285 -69l57 0 -28 -69 -29 69zm-82 69l112 -225 3 0 109 225 -55 0 -13 -32 -89 0 -14 32 -53 0zm222 0l46 -225 4 0 82 142 78 -142 4 0 45 225 -49 0 -19 -99 -58 107 -4 0 -63 -109 -19 101 -47 0zm281 -61c14,8 25,14 34,17 10,3 19,5 28,5 9,0 16,-2 22,-6 5,-4 8,-9 8,-15 0,-9 -10,-19 -29,-31 -4,-1 -6,-3 -8,-4l-14 -8c-15,-8 -25,-17 -32,-28 -7,-10 -11,-21 -11,-34 0,-18 7,-32 20,-44 13,-11 31,-17 51,-17 8,0 17,1 26,3 9,2 19,5 30,9l0 51c-11,-7 -21,-12 -30,-16 -10,-3 -18,-5 -24,-5 -8,0 -13,2 -18,5 -4,3 -6,7 -6,13 0,3 1,7 4,10 2,4 6,7 11,9l26 15c21,11 36,22 43,32 7,10 11,22 11,36 0,21 -7,39 -22,52 -14,13 -33,19 -58,19 -8,0 -16,-1 -26,-2 -10,-2 -20,-5 -32,-8l-4 -58zm227 -8l58 0 -28 -69 -30 69zm-81 69l111 -225 3 0 109 225 -54 0 -14 -32 -89 0 -14 32 -52 0zm222 0l45 -225 4 0 82 142 78 -142 4 0 46 225 -50 0 -18 -99 -59 107 -4 0 -62 -109 -20 101 -46 0zm350 -178l-9 0 0 60 11 0c13,0 23,-3 30,-8 7,-5 11,-13 11,-23 0,-10 -4,-18 -11,-22 -6,-5 -17,-7 -32,-7zm-60 178l0 -218 57 0c18,0 31,1 41,3 10,3 19,7 27,12 8,6 14,13 19,22 4,8 6,17 6,27 0,14 -3,26 -10,36 -7,10 -17,19 -30,24l66 94 -59 0 -59 -85 -7 0 0 85 -51 0zm245 -69l57 0 -28 -69 -29 69zm-82 69l111 -225 3 0 109 225 -54 0 -14 -32 -89 0 -14 32 -52 0zm240 0l0 -225 5 0 136 127 0 -120 48 0 0 227 -5 0 -136 -128 0 119 -48 0z"/>
  <path class="fil0" d="M368 226l-73 0 0 -209 67 0 0 35c12,-13 23,-23 36,-30 12,-7 26,-10 41,-10 22,0 38,6 50,19 11,12 17,31 17,55l0 140 -72 0 0 -120c0,-11 -2,-19 -7,-24 -4,-6 -11,-9 -20,-9 -12,0 -22,5 -29,13 -7,9 -10,21 -10,37l0 103z"/>
  <path class="fil0" d="M199 68c-5,-3 -9,-5 -13,-6 -4,-1 -7,-1 -11,-1 -14,0 -26,6 -35,17 -9,12 -14,26 -14,43 0,17 4,31 12,41 9,11 19,17 30,17 5,0 10,-2 15,-4 5,-3 10,-7 16,-12l0 -95zm72 -53l0 130c0,16 1,30 1,41 1,11 2,21 3,29l-67 18 -7 -20c-9,7 -18,12 -26,15 -9,4 -18,5 -28,5 -27,0 -49,-10 -68,-32 -18,-21 -27,-48 -27,-80 0,-34 10,-61 31,-83 20,-22 46,-33 78,-33 7,0 14,1 22,3 8,2 17,5 26,9l62 -2z"/>
  <g id="_2183693654528">
   <path class="fil2" d="M940 55c12,-18 31,-38 49,-49l83 1c-19,14 -85,81 -100,108l0 0c-11,-17 -22,-37 -32,-60zm0 121c-9,18 -20,30 -32,38 -41,22 -81,25 -123,-11 -44,-46 -42,-130 0,-171 4,-3 8,-6 12,-9 -33,23 -38,58 -29,88 25,87 112,65 126,37 -1,1 -2,2 -2,3 1,-1 2,-3 3,-5l9 -19c1,-3 2,-6 4,-10 9,19 20,40 32,59z"/>
   <path class="fil3" d="M989 231c-35,-23 -60,-74 -80,-112 -14,-33 -27,-45 -40,-51 -33,-14 -61,28 -58,59 6,57 54,55 83,22 -43,52 -113,20 -126,-37 -7,-30 -5,-65 27,-88 56,-40 117,-16 146,32 42,80 71,129 135,175 -28,0 -59,0 -87,0z"/>
  </g>
 </g>
</svg>
