<?xml version="1.0" encoding="UTF-8"?>
<!DOCTYPE svg PUBLIC "-//W3C//DTD SVG 1.1//EN" "http://www.w3.org/Graphics/SVG/1.1/DTD/svg11.dtd">
<!-- Creator: CorelDRAW X7 -->
<svg xmlns="http://www.w3.org/2000/svg" xml:space="preserve" width="3.1in" height="0.246in" version="1.1" style="shape-rendering:geometricPrecision; text-rendering:geometricPrecision; image-rendering:optimizeQuality; fill-rule:evenodd; clip-rule:evenodd"
viewBox="0 0 3100 246"
 xmlns:xlink="http://www.w3.org/1999/xlink">
 <defs>
  <style type="text/css">
   <![CDATA[
    .fil2 {fill:black}
    .fil3 {fill:#CCCCCC}
    .fil1 {fill:black;fill-rule:nonzero}
    .fil0 {fill:#E6E6E6;fill-rule:nonzero}
   ]]>
  </style>
 </defs>
 <g id="Layer_x0020_1">
  <metadata id="CorelCorpID_0Corel-Layer"/>
  <path class="fil0" d="M591 231l-73 0 0 -209 67 0 0 35c11,-13 23,-24 36,-30 12,-7 26,-10 40,-10 23,0 39,6 51,19 11,12 17,31 17,55l0 140 -72 0 0 -120c0,-11 -2,-19 -7,-24 -4,-6 -11,-9 -20,-9 -12,0 -22,4 -29,13 -7,8 -10,21 -10,37l0 103z"/>
  <path class="fil1" d="M1088 238l0 -219 52 0 0 81 84 0 0 -81 51 0 0 219 -51 0 0 -92 -84 0 0 92 -52 0zm285 -70l58 0 -29 -68 -29 68zm-82 70l112 -225 3 0 109 225 -54 0 -14 -32 -89 0 -14 32 -53 0zm223 0l45 -226 4 0 82 143 78 -143 4 0 45 226 -49 0 -19 -100 -58 108 -4 0 -63 -109 -19 101 -46 0zm280 -62c14,8 25,14 35,17 9,4 18,5 27,5 9,0 16,-2 22,-6 5,-4 8,-9 8,-15 0,-9 -10,-19 -29,-30 -3,-2 -6,-3 -7,-4l-15 -9c-15,-8 -25,-17 -32,-27 -7,-10 -11,-22 -11,-35 0,-17 7,-32 20,-43 14,-11 31,-17 52,-17 7,0 16,1 25,3 9,2 19,4 30,8l0 51c-11,-6 -21,-11 -30,-15 -9,-4 -17,-5 -24,-5 -7,0 -13,1 -17,4 -5,4 -7,8 -7,13 0,4 1,8 4,11 3,3 6,6 11,9l26 14c21,12 36,23 43,33 8,10 11,22 11,36 0,21 -7,38 -21,51 -15,13 -34,20 -58,20 -8,0 -17,-1 -27,-3 -9,-1 -20,-4 -31,-8l-5 -58zm228 -8l57 0 -28 -68 -29 68zm-82 70l111 -225 4 0 109 225 -55 0 -14 -32 -88 0 -15 32 -52 0zm222 0l45 -226 4 0 83 143 77 -143 4 0 46 226 -50 0 -18 -100 -59 108 -3 0 -63 -109 -19 101 -47 0zm350 -179l-9 0 0 61 11 0c13,0 23,-3 30,-8 7,-6 11,-13 11,-23 0,-11 -4,-18 -10,-23 -7,-4 -18,-7 -33,-7zm-59 179l0 -219 56 0c18,0 32,2 42,4 10,2 18,6 26,12 8,6 14,13 19,21 4,9 7,18 7,28 0,13 -4,25 -11,36 -7,10 -17,18 -30,24l66 94 -59 0 -58 -86 -8 0 0 86 -50 0zm244 -70l57 0 -28 -68 -29 68zm-82 70l111 -225 4 0 109 225 -55 0 -14 -32 -88 0 -15 32 -52 0zm240 0l0 -226 5 0 136 128 0 -121 48 0 0 227 -4 0 -137 -127 0 119 -48 0z"/>
  <path class="fil0" d="M360 232l-72 0 0 -208 67 0 0 35c11,-14 23,-24 35,-31 13,-6 26,-10 41,-10 22,0 39,7 50,19 11,13 17,31 17,56l0 139 -72 0 0 -119c0,-11 -2,-19 -7,-25 -4,-5 -11,-8 -20,-8 -12,0 -22,4 -29,13 -6,8 -10,20 -10,37l0 102z"/>
  <path class="fil0" d="M191 74c-4,-2 -8,-4 -12,-5 -4,-1 -8,-2 -12,-2 -14,0 -25,6 -35,18 -9,11 -14,26 -14,43 0,16 4,30 12,41 9,11 19,16 31,16 4,0 9,-1 14,-3 5,-3 11,-7 16,-12l0 -96zm73 -53l0 131c0,16 0,30 0,41 1,11 2,20 3,28l-67 19 -6 -20c-10,7 -18,12 -27,15 -9,3 -18,5 -28,5 -27,0 -49,-11 -67,-32 -19,-22 -28,-49 -28,-80 0,-34 10,-62 31,-84 20,-22 46,-33 78,-33 7,0 15,1 22,3 8,2 17,5 27,10l62 -3z"/>
  <path class="fil2" d="M931 53c13,-18 32,-38 50,-48l82 0c-18,14 -85,81 -99,108l0 1c-11,-18 -22,-38 -33,-61zm1 122c-10,17 -21,29 -32,37 -41,23 -82,26 -123,-10 -44,-47 -42,-130 0,-171 4,-4 8,-7 12,-10 -33,23 -38,58 -30,88 26,87 112,65 127,37 -1,1 -2,2 -3,3 1,-1 3,-3 4,-5l8 -18c2,-4 3,-7 4,-11 10,19 21,40 33,60z"/>
  <path class="fil3" d="M981 229c-35,-23 -61,-74 -81,-112 -13,-33 -26,-45 -39,-50 -34,-15 -61,27 -58,58 5,57 54,55 82,22 -42,52 -113,20 -125,-36 -7,-31 -6,-66 27,-89 56,-40 117,-16 145,32 43,80 72,130 135,175 -28,0 -58,0 -86,0z"/>
 </g>
</svg>
