<?xml version="1.0" encoding="UTF-8"?>
<!DOCTYPE svg PUBLIC "-//W3C//DTD SVG 1.1//EN" "http://www.w3.org/Graphics/SVG/1.1/DTD/svg11.dtd">
<!-- Creator: CorelDRAW X7 -->
<svg xmlns="http://www.w3.org/2000/svg" xml:space="preserve" width="8in" height="1.495in" version="1.1" style="shape-rendering:geometricPrecision; text-rendering:geometricPrecision; image-rendering:optimizeQuality; fill-rule:evenodd; clip-rule:evenodd"
viewBox="0 0 8000 1495"
 xmlns:xlink="http://www.w3.org/1999/xlink">
 <defs>
  <style type="text/css">
   <![CDATA[
    .str0 {stroke:#373435;stroke-width:3}
    .fil4 {fill:none}
    .fil14 {fill:#FEFEFE}
    .fil11 {fill:#D2D3D5}
    .fil8 {fill:#373435}
    .fil10 {fill:#FFF212}
    .fil7 {fill:#FCD3C2}
    .fil5 {fill:#F6AFCE}
    .fil12 {fill:#ED3237}
    .fil2 {fill:#6FCFF6}
    .fil9 {fill:#0098DA}
    .fil0 {fill:url(#id0)}
    .fil1 {fill:url(#id1)}
    .fil13 {fill:url(#id2)}
    .fil3 {fill:url(#id3)}
    .fil6 {fill:url(#id4)}
   ]]>
  </style>
  <linearGradient id="id0" gradientUnits="userSpaceOnUse" x1="4002.37" y1="-0.240157" x2="3996.34" y2="914.13">
   <stop offset="0" style="stop-opacity:1; stop-color:#E1F3FC"/>
   <stop offset="0.878431" style="stop-opacity:1; stop-color:white"/>
   <stop offset="1" style="stop-opacity:1; stop-color:white"/>
  </linearGradient>
  <linearGradient id="id1" gradientUnits="userSpaceOnUse" x1="3998.37" y1="684.437" x2="3998.37" y2="6910.66">
   <stop offset="0" style="stop-opacity:1; stop-color:#ABF8FF"/>
   <stop offset="0.262745" style="stop-opacity:0; stop-color:#ABF9FF"/>
   <stop offset="0.529412" style="stop-opacity:0.984314; stop-color:#ABF8FF"/>
   <stop offset="0.811765" style="stop-opacity:0; stop-color:#ABFAFF"/>
   <stop offset="1" style="stop-opacity:0; stop-color:#ABFAFF"/>
  </linearGradient>
  <linearGradient id="id2" gradientUnits="userSpaceOnUse" x1="4900.56" y1="927.417" x2="5484.47" y2="927.417">
   <stop offset="0" style="stop-opacity:1; stop-color:#F6AFCE"/>
   <stop offset="1" style="stop-opacity:1; stop-color:#C8A2CB"/>
  </linearGradient>
  <linearGradient id="id3" gradientUnits="userSpaceOnUse" x1="3753.84" y1="581.748" x2="3801.87" y2="1051.87">
   <stop offset="0" style="stop-opacity:1; stop-color:#91D8F7"/>
   <stop offset="1" style="stop-opacity:1; stop-color:#FEFEFE"/>
  </linearGradient>
  <linearGradient id="id4" gradientUnits="userSpaceOnUse" x1="5480.63" y1="678.185" x2="5043.59" y2="1115.63">
   <stop offset="0" style="stop-opacity:1; stop-color:#FEFEFE"/>
   <stop offset="1" style="stop-opacity:1; stop-color:#F6AFCE"/>
  </linearGradient>
 </defs>
 <g id="Layer_x0020_1">
  <metadata id="CorelCorpID_0Corel-Layer"/>
  <rect class="fil0" x="-1" width="8000" height="914"/>
  <path class="fil1" d="M0 848c116,-12 223,-189 530,-161l1454 108c1244,-15 2493,-73 3734,-69 477,1 1007,-18 1510,-24 264,10 527,53 771,141l0 652 -8000 0 1 -647z"/>
  <g>
   <path class="fil2" d="M1487 840c51,6 107,8 175,1 19,-3 38,-6 57,-9l-232 8zm5538 -59c78,7 170,10 307,2l-307 -2zm307 2l11 -1 -11 1z"/>
  </g>
  <path class="fil2" d="M7999 788c-40,-1 -88,-2 -144,-3 36,-3 73,-6 114,-10 -41,4 -78,7 -114,10 -92,-3 -204,-6 -333,-8 -20,0 -41,-1 -63,-1 3,0 5,-1 8,-1 -24,-6 -54,-5 -90,1 -38,0 -77,0 -117,0 -49,-4 -99,-8 -158,-9 58,-4 120,-7 181,-6 69,2 132,1 190,-1 19,3 31,5 27,2 -2,-1 -4,-2 -6,-3 95,-4 177,-10 249,-8 72,1 175,26 164,19 -40,-27 -133,-33 -197,-38 -141,-12 -277,-13 -408,-8 -153,-12 -301,-13 -441,-6 319,-27 887,-51 1138,70zm-1168 -13c-72,6 -155,14 -252,26 -28,-8 -57,-14 -86,-17 87,-14 237,-34 384,-30 31,1 60,1 88,0 -46,7 -90,14 -134,21zm429 1c-49,-4 -99,-8 -158,-9 -58,5 -112,11 -157,17 63,-2 125,-4 184,-6 45,-1 89,-1 131,-2zm-429 -1c-72,6 -155,14 -252,26 7,2 14,4 21,6 7,-1 15,-3 22,-4 34,-2 67,-5 100,-7 36,-7 72,-14 109,-21zm-567 98c-229,52 -441,99 -700,64 -6,-1 -13,-3 -19,-4 -4,-2 -9,-5 -14,-7 105,19 223,25 392,-24 41,-13 83,-23 126,-32 72,2 144,3 215,3zm-108 -20c69,-9 138,-12 204,-9 -64,4 -132,7 -204,9zm-646 74c-87,-17 -177,-37 -268,-56l0 0c103,7 189,36 285,54 -6,1 -12,1 -17,2zm-1324 -69c-24,4 -47,8 -71,11 -3,-1 -6,-3 -10,-4 26,-3 52,-5 81,-7zm-448 -8c8,1 16,2 25,3 38,6 73,10 104,13 -34,2 -67,-1 -102,-6 -8,-4 -18,-7 -27,-10zm-441 6c-26,-5 -52,-9 -78,-14 26,-1 52,-2 78,-3 0,3 0,6 0,9l-3 2 3 6zm-1188 -27c-46,1 -91,2 -136,3 -17,-5 -34,-9 -51,-14 40,-2 81,-3 121,-3 22,5 44,9 66,14zm-173 4c-95,1 -190,0 -285,-2 69,-3 139,-7 208,-10 24,4 50,8 77,12zm-1366 -89c-40,0 -79,1 -118,2 -12,-3 -23,-6 -32,-8 75,-16 154,-27 238,-29 -322,-7 -589,11 -646,94 94,-20 191,-36 288,-46 2,0 5,-1 7,-2 28,-10 58,-17 89,-20 -2,-2 -4,-3 -5,-5 3,1 8,2 16,4 54,-4 109,1 163,10zm-158 4c-19,1 -38,3 -56,4 15,-4 31,-7 47,-11 3,3 6,5 9,7zm334 -36c139,4 285,12 426,21 -83,3 -151,11 -202,20 -14,-3 -27,-6 -41,-9 -62,-18 -123,-28 -183,-32zm567 71c-98,0 -182,-5 -266,-17 101,-22 240,-22 394,-8 -50,7 -93,15 -128,25zm983 -50c208,-23 297,-44 705,-44 71,0 171,9 284,21 2,14 4,28 5,41 -114,-3 -229,1 -344,12 -213,34 -182,11 -394,-9 -69,-12 -159,-19 -256,-21zm1016 -20c17,2 35,4 52,6 -11,8 -20,19 -28,32 0,0 -1,1 -1,2 -6,0 -12,-1 -18,-1 -1,-13 -3,-26 -5,-39zm208 24l33 4c-11,2 -19,4 -23,3 -4,-3 -7,-5 -10,-7zm65 8c28,3 56,6 84,9 -4,6 -28,8 -42,11l-51 -10c0,-3 6,-7 9,-10zm98 11c123,13 240,25 333,28 195,7 170,-35 334,-26 10,0 20,1 30,1 -39,4 -76,9 -111,14 -35,6 -67,12 -97,16 -28,4 -54,8 -79,11 -109,-2 -224,-5 -344,-7 -10,-5 -18,-7 -21,-6 0,-6 19,-16 4,-22 -8,8 -22,3 -42,9 -4,-5 1,-13 -7,-18zm273 55c-54,1 -111,-1 -183,-6 -6,-3 -11,-5 -15,-8 72,5 138,10 198,14zm903 -57c135,-8 256,-17 400,-13 220,7 391,30 575,42 107,7 218,11 347,6 -68,13 -136,31 -205,47 -93,6 -195,9 -304,11 -161,-10 -331,-38 -505,-62l-16 -2c-85,-13 -186,-23 -292,-29z"/>
  <path class="fil3" d="M95 825c86,-23 191,-58 308,-84 -2,-2 -5,-4 -7,-6 -31,3 -61,10 -89,20 -41,15 -71,31 -96,44 -11,2 -22,3 -34,5 12,-2 23,-3 34,-5l-8 5c-38,19 -66,31 -108,21zm325 -87c153,-32 327,-47 509,6 14,3 27,6 41,9 -24,4 -45,9 -61,14 -48,13 -97,20 -145,21 -8,-1 -16,-3 -24,-5 -92,-25 -217,-58 -333,-49 4,1 8,2 13,4zm627 28c84,12 168,17 266,17 -61,16 -96,36 -103,54 -22,3 -44,5 -66,8 -81,-6 -167,-16 -261,-33 37,-8 75,-19 115,-32 15,-6 31,-10 49,-14zm542 10c54,7 108,16 162,26 -153,1 -323,10 -521,33 66,-40 202,-59 359,-59zm232 -28c246,-20 554,-25 731,6 212,20 181,43 394,9 115,-11 230,-15 344,-12 1,8 2,17 3,25 -84,-2 -173,-3 -267,-2 -123,1 -263,34 -402,64 -105,-2 -204,-8 -304,-14 -69,-16 -129,-32 -156,-36 -123,-22 -238,-34 -343,-40zm161 57c-39,-1 -79,-2 -120,-3 -32,-8 -60,-15 -80,-19 67,5 135,12 200,22zm1313 -13c0,8 1,15 1,23 -4,0 -9,1 -13,1 -111,-1 -226,4 -350,18 -109,6 -209,7 -304,5 143,-17 295,-36 461,-42 68,-3 136,-4 205,-5zm22 -40c6,0 12,1 18,1 -6,7 -11,15 -14,23l-1 0c-1,-8 -2,-16 -3,-24zm456 53c72,5 129,7 183,6l20 1c-59,2 -120,4 -180,6 17,9 35,19 51,28 35,2 71,4 106,6 43,-6 87,-8 127,4 56,1 112,0 170,-2 -57,3 -102,7 -145,11 -8,-4 -16,-7 -25,-9 56,1 112,0 170,-2 6,0 13,0 19,0 65,-3 132,-8 202,-15 29,-5 58,-9 86,-12 -88,0 -195,-3 -322,-7 -19,0 -38,0 -56,0 -45,0 -97,-2 -154,-5 -76,-2 -156,-3 -242,-4 -4,-2 -7,-4 -10,-6zm320 -5c25,-3 51,-7 79,-11 30,-4 62,-10 97,-16 251,-41 632,-28 882,10l16 2c174,24 344,52 505,62 -24,0 -48,0 -72,0 -212,-13 -421,-29 -616,-39 -5,-3 -10,-5 -15,-8 -9,-3 -23,1 -33,6 -9,-1 -19,-1 -28,-1 -85,-4 -157,-2 -230,1 -58,-4 -115,-7 -170,-9 -152,-6 -260,6 -410,3l-5 0zm1318 47c-37,0 -75,-1 -113,-1 -13,-1 -27,-2 -40,-3l-24 -1c43,3 87,5 130,8 45,3 91,5 140,7 129,6 258,9 382,8 11,0 22,0 32,0 44,2 88,3 131,5 -43,9 -85,19 -126,32 -169,49 -287,43 -392,24l-2 -1 -2 0c-96,-18 -182,-47 -285,-54 -51,-4 -93,-3 -128,-1 -22,-9 -45,-19 -68,-30 84,2 169,4 252,6 -13,-1 -27,-2 -40,-3 51,1 102,3 153,4zm649 7c5,0 9,-1 14,-1 82,-5 169,-11 262,-19 90,-14 170,-24 243,-33 -28,-8 -57,-14 -86,-17 -35,5 -61,9 -72,10 -97,12 -212,41 -347,59 82,-5 169,-11 262,-19 90,-14 170,-24 243,-33 17,4 34,9 50,14 -74,14 -165,23 -269,29 -66,-3 -135,0 -204,9 -31,0 -63,1 -96,1zm610 -26c94,30 185,59 286,39 147,-20 280,-63 381,-84 19,2 37,3 57,5 -121,25 -240,70 -363,109 -224,35 -348,-11 -540,-39 64,-8 124,-19 179,-30zm-694 8c83,-19 164,-41 245,-54 63,-11 125,-16 188,-11 -50,9 -99,19 -147,29 -75,17 -173,28 -286,36zm-472 21c-49,-2 -95,-4 -140,-7 47,2 94,5 140,7zm-605 15c-134,-12 -260,-14 -516,-19 -43,-1 -80,0 -114,1 65,-3 132,-8 202,-15 29,-5 58,-9 86,-12 7,0 15,0 22,0l4 0c103,3 214,7 327,10 -5,9 -9,20 -11,32l2 1 -2 2zm2438 -89c10,-2 20,-4 30,-6 40,-6 74,-8 100,-2 -5,1 -10,1 -14,2 -20,3 -40,7 -59,11 -20,-2 -38,-3 -57,-5zm-3451 81c-11,-5 -24,-11 -39,-18 35,2 71,4 106,6 -17,2 -35,5 -51,9 -5,1 -11,2 -16,3zm-19 2c-31,-3 -66,-7 -104,-13 -9,-1 -17,-2 -25,-3 -8,-3 -16,-5 -25,-8 -13,1 -29,0 -47,-3 66,2 153,19 204,27l-3 0zm-848 -23c-24,0 -49,0 -73,0 -167,12 -305,17 -415,15 31,-6 62,-13 93,-20 -105,-2 -204,-8 -304,-14 45,11 94,22 139,31 55,-4 112,-10 170,-16 95,2 195,1 304,-5 124,-14 239,-19 350,-18 -89,6 -177,17 -264,27zm-1037 -38c-39,-1 -79,-2 -120,-3 19,5 39,10 60,16 40,-2 81,-3 121,-3 -20,-3 -40,-7 -61,-10zm-123 16c-106,5 -212,12 -318,12 -99,14 -208,21 -331,16 6,-5 13,-10 20,-14 198,-23 368,-32 521,-33l16 2c27,5 58,11 92,17zm-649 28c-21,-1 -44,-2 -66,-4 22,-3 44,-5 66,-8 -1,4 -1,8 0,12z"/>
  <path class="fil4" d="M177 804c122,-17 219,-22 301,-19m307 43c96,18 194,32 334,21 31,-5 61,-9 91,-12m20 -2c198,-23 368,-32 521,-34m111 1c41,1 81,2 120,3m338 19c100,6 199,12 304,14m5 1c95,2 195,1 304,-5 124,-14 239,-19 350,-18m564 30c35,2 71,4 106,6m127 4c124,2 252,-2 391,-17 29,-5 58,-9 86,-12m701 16c13,1 27,2 40,3m66 4c45,3 91,5 140,7m570 -4c82,-5 169,-11 262,-19 211,-31 369,-49 495,-59m271 -8c257,6 356,55 867,8"/>
  <path class="fil5 str0" d="M4899 869c2,-12 6,-23 11,-32 25,0 51,1 77,2 106,42 243,81 370,111 76,21 147,36 215,44 5,1 9,1 13,2 -30,-1 -65,-4 -103,-8 -175,-35 -370,-69 -543,-112 13,4 24,8 32,13l7 2c-13,-7 -31,-13 -50,-18 -9,-2 -18,-4 -27,-6l7 2 -3 -1 -3 2 -3 -1zm580 118c-28,-3 -58,-7 -89,-11 26,3 56,6 89,11z"/>
  <path class="fil6 str0" d="M4936 806c10,-5 24,-9 33,-6 5,3 10,5 15,8 -16,-1 -32,-1 -48,-2zm110 34c180,87 331,100 483,85 53,25 67,53 69,73 -157,-23 -429,-87 -611,-159 19,0 39,1 59,1z"/>
  <path class="fil7 str0" d="M4905 868c-182,118 -333,124 -416,170 -51,28 -175,-75 -321,-132 -4,-2 -7,-3 -11,-5 1,1 2,2 3,3 -51,-32 -103,-23 -137,-14 -49,12 -82,38 -98,69 28,18 58,34 96,45 2,5 3,9 3,13 1,0 1,0 2,0 4,1 8,4 10,7 0,-5 -2,-11 -5,-17 105,18 141,46 141,56 1,19 -52,-27 -70,-16 48,20 81,40 77,50 2,20 -28,-14 -79,-29 17,13 77,37 76,56 -16,7 -25,-9 -84,-32 37,30 79,45 62,49 -9,2 -78,-28 -97,-44 -3,3 32,21 31,32 193,45 402,75 419,56 93,-34 292,-155 426,-219 21,-12 49,-11 66,-25 1,0 1,-1 2,-1 4,-10 5,-18 2,-25 -8,-13 -28,-28 -64,-39 -10,-2 -21,-5 -31,-7l-3 -1zm-893 178c-9,6 -24,8 -37,12 -16,-10 -36,-20 -58,-29 13,41 57,78 134,87 -1,1 -3,1 -5,1l4 1c-2,0 -3,0 -5,0 7,2 13,4 20,5 -28,-18 -33,-20 -46,-29 -13,-10 -15,-23 -32,-31 16,1 30,-4 39,-13 -2,0 -4,0 -6,0 -3,-1 -5,-2 -8,-4z"/>
  <path class="fil7 str0" d="M3336 751c-6,7 -11,16 -15,25l3 0c3,-8 7,-17 12,-25zm-11 95c8,6 14,12 20,19 3,-3 6,-5 9,-8 -9,-4 -18,-8 -29,-13l0 2zm34 39c9,17 11,35 4,54l-2 0c13,15 28,26 45,31 16,4 30,1 41,-4 -8,-10 -16,-19 -23,-26 -9,-5 -17,-11 -22,-19 -9,-23 -15,-38 -13,-51 -3,-1 -5,-1 -8,-2 -7,6 -15,11 -22,17z"/>
  <path class="fil5 str0" d="M3297 848l-3 2 3 6c0,-2 0,-5 0,-8zm28 58l20 35 18 -2c7,-19 5,-37 -4,-54 -3,1 -5,3 -8,5l3 5 -4 3 -3 -5c-3,2 -6,4 -10,6l-10 -21c3,-2 6,-4 9,-6l-4 -8 4 -2 4 7c2,-2 3,-3 5,-4 -6,-7 -12,-13 -20,-19 1,22 1,42 0,60z"/>
  <path class="fil8 str0" d="M3325 844c11,5 20,9 29,13 9,-7 17,-14 25,-22l-54 2 0 7zm78 -33c6,-7 12,-13 17,-20 -33,0 -66,0 -98,1 0,7 1,14 1,21 27,-1 53,-2 80,-2zm27 -31c15,-18 29,-38 44,-58l29 18c-12,14 -23,28 -35,41 105,5 202,11 290,16 7,4 16,9 25,14 -106,-2 -220,-2 -341,-1 6,-6 12,-13 18,-19 97,0 195,1 289,2 -10,-5 -18,-7 -21,-6 0,-6 19,-16 4,-22 -8,8 -22,3 -42,9 -6,-7 5,-20 -20,-21 -1,7 -28,9 -43,12l-51 -10c-1,-5 24,-14 2,-20 -22,5 -41,11 -48,9 -120,-83 -182,-32 -206,32 13,1 25,1 38,2 9,-21 25,-34 48,-41 -19,9 -35,23 -46,41 22,0 44,1 66,2zm366 38c31,17 66,36 90,46 -5,1 -11,1 -16,2 -51,-8 -138,-25 -204,-27 -19,-3 -42,-9 -64,-14 64,-2 129,-5 194,-7zm-371 15c-6,3 -10,6 -15,9 3,-3 6,-6 9,-9l6 0zm-36 37c-3,-1 -5,-1 -8,-2 5,-4 9,-8 14,-12 -4,5 -5,9 -6,14z"/>
  <path class="fil9 str0" d="M3327 878l10 21c4,-2 7,-4 10,-6l-11 -21c-3,2 -6,4 -9,6zm24 12c15,-10 29,-21 44,-34 3,-5 8,-9 16,-14 2,-3 5,-6 8,-9l-40 2c-12,12 -25,23 -39,34l11 21zm91 -80c6,-6 12,-13 18,-19 -13,0 -26,0 -40,0 -5,7 -11,13 -17,20 4,0 8,0 12,-1l27 0zm26 -29c12,-13 23,-27 35,-41l-29 -18c-15,20 -29,40 -44,58 13,0 26,1 38,1z"/>
  <polygon class="fil10 str0" points="3336,862 3332,864 3350,898 3354,895 "/>
  <path class="fil11" d="M3362 778c9,-21 25,-34 48,-41 -19,9 -35,23 -46,41l-2 0z"/>
  <path class="fil5 str0" d="M3297 627l-25 8c9,47 17,95 21,141 9,0 18,0 27,0 -5,-49 -13,-101 -23,-149zm-2 165c0,8 1,15 1,23 9,0 18,-1 27,-2 0,-7 -1,-14 -1,-21 -9,0 -18,0 -27,0zm2 47c2,54 -4,99 -20,123l20 22 14 -16c14,-21 17,-71 14,-131l-28 2z"/>
  <path class="fil7 str0" d="M4155 899l0 0c-79,-80 -221,-44 -228,-40 -34,23 -41,46 -39,74 -36,-26 -72,-53 -123,-73 47,7 91,11 137,1 84,-19 187,-29 253,38zm-252 124c2,20 2,41 -2,66 -2,9 110,35 145,28l4 1c-54,6 -117,-15 -188,-36 -20,-6 -58,-18 -77,-22 -56,-12 -91,-6 -145,8 -20,19 -42,21 -65,13 27,7 49,1 58,-10 7,-8 13,-17 12,-28 -3,-26 -20,-58 4,-88 -19,2 -35,-9 -31,9 13,55 -109,11 -172,-16 84,22 241,-11 256,3 47,17 131,43 201,72zm-473 -80c39,24 76,41 90,102 -37,-33 -71,-79 -96,-105 2,1 4,2 6,3z"/>
  <path class="fil12" d="M4160 904c-51,-32 -103,-23 -137,-14 -49,12 -82,38 -98,69 -13,-8 -25,-17 -37,-26 -2,-28 5,-51 39,-74 7,-4 155,-41 233,45zm-243 125c13,41 57,78 134,87 -28,10 -152,-18 -150,-27 4,-25 4,-46 2,-66 5,2 10,4 14,6z"/>
  <path class="fil13 str0" d="M4901 867c9,2 18,4 27,6 54,14 92,34 71,71 230,33 257,9 485,44 -189,-37 -400,-74 -583,-121z"/>
  <path class="fil12" d="M3633 1071c7,-8 13,-17 12,-28 -3,-26 -20,-58 4,-88 -19,2 -35,-9 -31,9 13,55 -109,11 -172,-16 -5,-2 -11,-3 -16,-5 39,24 76,41 91,103 45,49 97,44 112,25z"/>
  <path class="fil14" d="M391 730c46,46 254,172 607,50 101,-36 262,-38 443,-22 32,-4 67,-7 104,-10 -322,-34 -545,-8 -636,19 -223,64 -487,-33 -518,-37zm1198 46c59,8 119,18 178,28 120,23 328,59 541,58 35,0 71,-2 108,-4 33,1 68,2 104,2 173,-34 352,-84 506,-86 404,-4 720,24 950,38 182,-5 359,-8 521,-4 66,1 124,-1 181,-2 -58,-4 -115,-7 -170,-9 -152,-6 -260,6 -410,3 -306,-6 -669,-15 -1008,-3 -232,8 -438,43 -631,58 15,3 30,6 44,9 -138,26 -271,40 -384,9 -92,-25 -265,-76 -337,-90 -66,-5 -131,-8 -193,-7zm3645 66c220,14 441,25 652,23 11,0 22,0 32,0 -105,-5 -212,-11 -318,-18 272,-1 512,-13 662,-47 298,-65 649,-107 1040,-76 -117,5 -230,16 -337,30 -28,1 -57,1 -88,0 -205,-5 -417,36 -456,40 -101,12 -220,43 -361,60 -205,3 -430,-1 -649,-7 -278,-3 -573,-13 -828,-20 171,0 402,8 651,15zm2239 -82c19,3 31,5 27,2 -2,-1 -4,-2 -6,-3 -7,0 -14,0 -21,1zm-3238 60c-19,0 -38,0 -56,0 -45,0 -97,-2 -154,-5 75,1 145,3 210,5z"/>
  <path class="fil7 str0" d="M3425 833c-45,25 -42,40 -23,88 45,68 282,13 300,30 65,24 202,64 273,107 13,-4 28,-6 37,-12 -4,-3 -6,-9 -5,-15 1,-9 9,-14 17,-14 0,-4 -1,-8 -3,-13 -123,-35 -163,-124 -308,-162 -27,3 -68,-7 -111,-17 -59,3 -118,6 -177,8z"/>
  <path class="fil7 str0" d="M4031 1007c105,18 141,46 141,56 1,19 -52,-27 -70,-16 48,20 81,40 77,50 2,20 -28,-14 -79,-29 17,13 77,37 76,56 -16,7 -25,-9 -84,-32 37,30 79,45 62,49 -9,2 -78,-28 -97,-44 -3,4 49,29 25,38 -43,-30 -48,-30 -63,-41 -13,-10 -15,-23 -32,-31 16,1 30,-4 39,-13 6,-2 12,-7 13,-14 1,-4 0,-9 -3,-12 0,-5 -2,-11 -5,-17z"/>
  <path class="fil8 str0" d="M4026 1017c-9,-1 -18,5 -19,14 -2,9 4,17 13,19 9,1 17,-5 19,-14 1,-8 -4,-17 -13,-19zm-1 6c-8,-1 -14,3 -15,8 -1,6 4,12 11,13 7,1 14,-2 15,-8 1,-6 -4,-11 -11,-13z"/>
  <path class="fil14 str0" d="M4025 1023c-8,-1 -14,3 -15,8 -1,6 4,12 11,13 7,1 14,-2 15,-8 1,-6 -4,-11 -11,-13z"/>
  <path class="fil14" d="M1210 849c108,-97 573,-92 899,-20 405,88 1577,-38 2388,-21 150,3 259,-10 411,-3 425,17 928,71 1382,68 221,-1 396,-54 536,-71 39,-5 251,-45 457,-41 193,5 339,-12 460,-10 72,1 175,26 164,19 -40,-27 -133,-33 -197,-38 -392,-31 -745,10 -1043,76 -422,93 -1550,19 -2088,19 -234,0 -624,-22 -1164,-17 -283,3 -541,68 -818,65 -101,-1 -369,-76 -433,-87 -579,-102 -981,-4 -954,61z"/>
 </g>
</svg>
