<?xml version="1.0" encoding="UTF-8"?>
<!DOCTYPE svg PUBLIC "-//W3C//DTD SVG 1.1//EN" "http://www.w3.org/Graphics/SVG/1.1/DTD/svg11.dtd">
<!-- Creator: CorelDRAW X7 -->
<svg xmlns="http://www.w3.org/2000/svg" xml:space="preserve" width="8in" height="1in" version="1.1" style="shape-rendering:geometricPrecision; text-rendering:geometricPrecision; image-rendering:optimizeQuality; fill-rule:evenodd; clip-rule:evenodd"
viewBox="0 0 8000 1000"
 xmlns:xlink="http://www.w3.org/1999/xlink">
 <defs>
  <style type="text/css">
   <![CDATA[
    .str0 {stroke:#373435;stroke-width:3}
    .fil4 {fill:none}
    .fil14 {fill:#FEFEFE}
    .fil11 {fill:#D2D3D5}
    .fil8 {fill:#373435}
    .fil10 {fill:#FFF212}
    .fil7 {fill:#FCD3C2}
    .fil5 {fill:#F6AFCE}
    .fil12 {fill:#ED3237}
    .fil2 {fill:#6FCFF6}
    .fil9 {fill:#0098DA}
    .fil0 {fill:url(#id0)}
    .fil1 {fill:url(#id1)}
    .fil13 {fill:url(#id2)}
    .fil3 {fill:url(#id3)}
    .fil6 {fill:url(#id4)}
   ]]>
  </style>
  <linearGradient id="id0" gradientUnits="userSpaceOnUse" x1="4003.21" y1="0.515748" x2="3997.17" y2="580.878">
   <stop offset="0" style="stop-opacity:1; stop-color:#E1F3FC"/>
   <stop offset="0.878431" style="stop-opacity:1; stop-color:white"/>
   <stop offset="1" style="stop-opacity:1; stop-color:white"/>
  </linearGradient>
  <linearGradient id="id1" gradientUnits="userSpaceOnUse" x1="3999.21" y1="474.165" x2="3999.21" y2="4517.95">
   <stop offset="0" style="stop-opacity:1; stop-color:#ABF8FF"/>
   <stop offset="0.227451" style="stop-opacity:1; stop-color:#73C2FE"/>
   <stop offset="0.239216" style="stop-opacity:1; stop-color:#AAF7FF"/>
   <stop offset="1" style="stop-opacity:1; stop-color:#3A8BFC"/>
  </linearGradient>
  <linearGradient id="id2" gradientUnits="userSpaceOnUse" x1="4901.4" y1="717.15" x2="5485.3" y2="717.15">
   <stop offset="0" style="stop-opacity:1; stop-color:#F6AFCE"/>
   <stop offset="1" style="stop-opacity:1; stop-color:#C8A2CB"/>
  </linearGradient>
  <linearGradient id="id3" gradientUnits="userSpaceOnUse" x1="3754.67" y1="371.48" x2="3802.71" y2="841.598">
   <stop offset="0" style="stop-opacity:1; stop-color:#91D8F7"/>
   <stop offset="1" style="stop-opacity:1; stop-color:#FEFEFE"/>
  </linearGradient>
  <linearGradient id="id4" gradientUnits="userSpaceOnUse" x1="5481.47" y1="467.917" x2="5044.43" y2="905.362">
   <stop offset="0" style="stop-opacity:1; stop-color:#FEFEFE"/>
   <stop offset="1" style="stop-opacity:1; stop-color:#F6AFCE"/>
  </linearGradient>
 </defs>
 <g id="Layer_x0020_1">
  <metadata id="CorelCorpID_0Corel-Layer"/>
  <g id="_2169749208544">
   <rect class="fil0" y="1" width="8000" height="580"/>
   <path class="fil1" d="M0 581c117,-8 224,-123 531,-105l1454 70c1244,-10 2493,-48 3734,-45 477,1 1007,-12 1510,-16 264,7 527,35 771,92l0 424 -8000 0 0 -420z"/>
   <g>
    <path class="fil2" d="M1488 630c51,6 107,7 174,1 20,-3 39,-6 58,-9l-232 8zm5537 -59c79,6 171,10 308,1l-308 -1zm308 1l11 0 -11 0z"/>
   </g>
   <path class="fil2" d="M8000 577c-40,0 -89,-1 -144,-3 35,-2 73,-5 114,-9 -41,4 -79,7 -114,9 -92,-2 -204,-6 -333,-7 -21,-1 -42,-1 -63,-1 2,0 5,-1 7,-1 -23,-6 -54,-5 -89,0 -38,0 -77,1 -117,1 -49,-4 -99,-8 -158,-9 58,-5 120,-7 181,-6 69,2 132,0 190,-2 19,4 31,5 27,3 -2,-1 -4,-2 -6,-3 95,-4 176,-10 249,-9 72,1 175,26 164,19 -40,-26 -133,-33 -197,-38 -142,-11 -278,-13 -408,-7 -153,-12 -301,-13 -442,-6 320,-28 888,-51 1139,69zm-1168 -12c-72,6 -155,14 -252,26 -28,-8 -57,-14 -87,-18 88,-13 238,-33 385,-29 31,0 60,0 88,0 -46,6 -90,14 -134,21zm429 1c-49,-4 -99,-8 -158,-9 -58,4 -112,11 -157,17 63,-3 124,-5 184,-6 45,-1 89,-2 131,-2zm-429 -1c-72,6 -155,14 -252,26 7,1 14,3 21,5 7,-1 15,-2 22,-3 34,-2 67,-5 100,-7 36,-7 72,-14 109,-21zm-567 98c-229,51 -442,99 -700,63 -6,-1 -13,-2 -19,-3 -5,-3 -9,-5 -14,-7 104,19 223,25 392,-24 40,-13 83,-24 126,-32 72,2 144,3 215,3zm-108 -21c68,-8 138,-11 204,-8 -64,4 -132,7 -204,8zm-647 74c-86,-16 -176,-36 -268,-55l0 0c104,7 189,36 285,54 -5,0 -11,1 -17,1zm-1323 -68c-24,4 -48,8 -71,11 -3,-2 -7,-3 -10,-5 25,-2 52,-4 81,-6zm-448 -9c8,1 16,3 24,4 39,6 74,10 105,13 -34,2 -67,-1 -102,-7 -9,-3 -18,-7 -27,-10zm-441 6c-26,-4 -52,-9 -78,-13 26,-1 52,-2 78,-4 0,4 0,7 0,10l-3 2 3 5zm-1189 -27c-45,2 -90,3 -135,4 -17,-5 -34,-10 -51,-14 40,-2 80,-3 121,-3 22,4 44,9 65,13zm-172 4c-95,2 -190,1 -286,-1 70,-3 140,-7 209,-11 24,4 50,9 77,12zm-1366 -89c-40,0 -79,1 -118,3 -13,-3 -23,-6 -32,-9 75,-15 154,-27 237,-28 -321,-7 -588,10 -646,94 95,-21 191,-36 289,-46 2,-1 4,-2 7,-2 28,-11 58,-17 89,-20 -2,-2 -4,-3 -5,-5 3,1 8,2 16,4 54,-4 109,0 163,9zm-158 5c-19,1 -38,3 -57,4 16,-4 32,-7 48,-11 3,2 6,5 9,7zm334 -37c139,5 285,13 426,22 -84,3 -151,11 -202,20 -14,-3 -28,-6 -42,-9 -61,-18 -122,-28 -182,-33zm567 72c-98,0 -183,-5 -266,-17 100,-22 240,-22 394,-8 -50,7 -93,15 -128,25zm982 -51c209,-23 298,-43 706,-43 71,0 171,9 284,21 2,14 4,27 5,41 -115,-3 -230,1 -344,12 -213,33 -182,11 -394,-9 -69,-12 -159,-19 -257,-22zm1017 -19c17,2 34,4 52,6 -11,8 -20,19 -28,32 0,0 -1,1 -2,2 -5,-1 -11,-1 -17,-1 -2,-13 -3,-26 -5,-39zm208 24l33 4c-11,2 -19,4 -23,2 -4,-2 -7,-4 -10,-6zm65 7c28,4 56,7 84,10 -4,6 -28,8 -42,11l-51 -10c0,-3 6,-7 9,-11zm98 12c123,13 240,24 333,28 194,7 169,-35 333,-27 11,1 21,1 31,2 -39,4 -76,8 -111,14 -36,6 -68,11 -97,16 -29,4 -55,8 -80,11 -108,-2 -224,-5 -343,-7 -11,-5 -18,-8 -22,-6 1,-6 20,-16 5,-23 -8,9 -22,4 -42,10 -4,-5 0,-14 -7,-18zm273 54c-54,2 -111,0 -183,-5 -6,-3 -11,-6 -15,-8 71,5 138,9 198,13zm903 -56c135,-8 256,-17 400,-13 220,7 391,30 575,42 107,7 218,10 347,6 -68,13 -136,31 -205,46 -93,6 -196,10 -305,11 -161,-9 -330,-37 -504,-61l-16 -2c-86,-13 -187,-23 -292,-29z"/>
   <path class="fil3" d="M96 615c86,-23 191,-58 308,-84 -3,-2 -5,-4 -7,-6 -31,3 -61,9 -89,20 -41,14 -71,31 -96,44 -11,1 -22,3 -34,4 12,-1 23,-3 34,-4l-9 4c-37,20 -65,31 -107,22zm325 -88c153,-32 327,-46 508,7 14,3 28,6 42,9 -25,4 -45,9 -62,14 -47,13 -96,20 -145,21 -7,-2 -15,-3 -23,-5 -92,-25 -217,-58 -333,-49 4,1 8,2 13,3zm627 29c83,12 168,17 266,17 -61,16 -97,36 -103,54 -22,2 -44,5 -66,8 -81,-6 -167,-16 -261,-33 36,-8 74,-19 114,-33 16,-5 32,-10 50,-13zm542 9c53,8 108,16 162,26 -153,1 -323,10 -521,33 66,-39 202,-58 359,-59zm232 -28c246,-19 554,-25 731,7 212,20 181,42 394,9 114,-11 229,-15 344,-12 1,8 2,16 3,24 -84,-1 -173,-2 -267,-1 -123,1 -263,34 -402,64 -105,-2 -204,-8 -304,-14 -69,-17 -130,-32 -156,-36 -123,-22 -238,-35 -343,-41zm161 58c-39,-2 -79,-3 -120,-3 -32,-9 -60,-16 -80,-20 67,5 135,13 200,23zm1312 -13c1,7 2,15 2,23 -4,0 -9,0 -13,1 -111,-1 -227,4 -350,17 -109,6 -209,7 -305,5 144,-16 296,-35 462,-41 67,-3 136,-4 204,-5zm23 -40c6,0 12,0 17,1 -5,7 -10,15 -13,23l-1 0c-1,-8 -2,-16 -3,-24zm456 53c72,5 129,7 183,5l20 2c-59,1 -120,3 -180,5 17,10 34,20 51,28 35,3 70,5 106,6 43,-6 87,-7 127,4 55,1 112,1 169,-1 -56,3 -101,7 -144,10 -8,-3 -16,-6 -25,-9 55,1 112,1 169,-1 7,0 13,0 20,-1 65,-2 132,-7 201,-15 30,-4 58,-8 87,-11 -88,-1 -195,-4 -322,-7 -19,0 -38,0 -56,0 -45,0 -97,-2 -154,-6 -76,-1 -156,-3 -242,-4 -4,-2 -7,-3 -10,-5zm319 -5c25,-3 51,-7 80,-11 29,-5 61,-10 97,-16 251,-41 632,-28 882,10l16 2c174,24 343,52 504,61 -23,1 -47,1 -71,1 -212,-14 -421,-29 -617,-39 -4,-3 -9,-5 -14,-8 -9,-3 -23,1 -33,6 -9,-1 -19,-1 -28,-2 -86,-3 -157,-1 -230,1 -58,-3 -115,-6 -170,-8 -152,-7 -260,6 -410,3l-6 0zm1319 47c-37,-1 -75,-1 -113,-2 -13,-1 -27,-2 -40,-3l-24 0c43,2 87,5 130,8 45,2 91,5 140,7 129,5 258,9 382,8 11,0 21,0 32,0 44,2 87,3 131,5 -43,8 -86,19 -126,32 -169,49 -288,43 -392,24l-2 -1 -3 0c-96,-18 -181,-47 -285,-54 -51,-4 -92,-3 -127,-1 -22,-9 -45,-19 -68,-30 84,2 168,4 252,5 -13,-1 -27,-2 -40,-3 51,2 102,3 153,5zm649 7c5,-1 9,-1 14,-2 82,-4 169,-10 262,-19 90,-13 170,-24 243,-32 -28,-8 -57,-14 -87,-18 -35,6 -60,10 -71,11 -98,12 -212,41 -347,58 82,-4 169,-10 262,-19 90,-13 170,-24 243,-32 17,4 34,9 50,14 -74,14 -165,23 -269,29 -66,-3 -136,0 -204,8 -32,1 -64,2 -96,2zm610 -26c94,30 185,59 286,38 146,-19 280,-62 381,-83 18,1 37,3 57,4 -122,26 -240,70 -363,109 -224,35 -348,-11 -540,-38 64,-9 124,-20 179,-30zm-694 7c83,-19 164,-40 245,-54 62,-10 125,-15 188,-10 -50,9 -99,19 -147,29 -75,17 -173,28 -286,35zm-472 22c-49,-2 -95,-5 -140,-7 47,2 93,5 140,7zm-605 14c-134,-11 -260,-14 -516,-18 -43,-1 -80,-1 -114,0 65,-2 132,-7 201,-15 30,-4 58,-8 87,-11 7,0 14,0 22,0l3 0c104,3 215,6 328,9 -5,10 -9,20 -12,33l3 1 -2 1zm2438 -88c10,-2 20,-4 29,-6 41,-7 74,-9 100,-2 -4,0 -9,1 -14,2 -19,3 -39,6 -58,10 -20,-1 -39,-3 -57,-4zm-3451 80c-11,-4 -25,-10 -39,-18 35,3 70,5 106,6 -18,3 -35,6 -51,10 -6,1 -11,2 -16,2zm-19 3c-31,-3 -66,-7 -105,-13 -8,-1 -16,-3 -24,-4 -8,-2 -17,-5 -25,-7 -13,1 -29,0 -47,-3 66,1 153,18 204,26l-3 1zm-848 -23c-25,0 -49,0 -73,0 -167,12 -305,17 -415,15 31,-6 62,-13 93,-20 -105,-2 -204,-8 -304,-14 45,11 94,22 139,31 55,-4 112,-10 169,-17 96,2 196,1 305,-5 123,-13 239,-18 350,-17 -90,6 -177,16 -264,27zm-1037 -38c-39,-2 -79,-3 -120,-3 19,5 39,10 60,16 40,-2 80,-3 121,-3 -20,-4 -41,-7 -61,-10zm-123 15c-106,6 -212,13 -318,13 -100,14 -208,21 -331,16 6,-5 13,-10 20,-15 198,-23 368,-32 521,-33l16 3c27,5 58,11 92,16zm-649 29c-22,-1 -44,-2 -66,-4 22,-3 44,-6 66,-8 -1,4 -1,8 0,12z"/>
   <path class="fil4" d="M178 593c122,-17 219,-21 301,-18m307 43c96,18 194,32 334,20 31,-4 61,-8 91,-11m20 -3c198,-23 368,-32 520,-33m112 1c41,0 81,1 120,3m338 19c100,6 199,12 304,14m4 0c96,2 196,1 305,-5 123,-13 239,-18 350,-17m564 29c35,3 70,5 106,6m127 4c124,3 252,-1 390,-17 30,-4 58,-8 87,-11m701 15c13,1 27,2 40,3m66 5c45,2 91,5 140,7m570 -5c82,-4 169,-10 262,-19 211,-31 369,-48 495,-58m271 -8c257,6 356,54 867,8"/>
   <path class="fil5 str0" d="M4899 659c3,-13 7,-23 12,-33 25,1 51,2 77,3 106,42 243,81 370,111 75,21 147,36 215,44 5,0 9,1 13,2 -30,-1 -65,-4 -103,-9 -176,-34 -370,-69 -543,-111 13,4 23,8 32,13l7 1c-14,-7 -31,-12 -50,-17 -9,-2 -18,-5 -28,-7l8 2 -3 0 -4 2 -3 -1zm581 118c-28,-3 -58,-7 -89,-12 26,3 55,7 89,12z"/>
   <path class="fil6 str0" d="M4937 596c10,-5 24,-9 33,-6 5,3 10,5 14,8 -15,-1 -31,-2 -47,-2zm110 34c180,86 331,100 483,85 53,25 67,53 69,73 -157,-23 -429,-87 -611,-159 19,0 39,1 59,1z"/>
   <path class="fil7 str0" d="M4906 658c-182,117 -334,124 -416,170 -51,28 -175,-75 -322,-133 -3,-1 -7,-3 -10,-4 1,1 2,2 3,3 -52,-33 -103,-23 -137,-15 -49,13 -82,39 -98,69 27,18 58,34 96,45 2,5 3,10 3,14 0,0 1,0 2,0 4,1 7,3 10,7 0,-6 -2,-11 -5,-17 105,18 141,46 141,55 1,20 -52,-26 -70,-15 48,19 81,39 77,50 2,19 -28,-15 -79,-29 16,13 77,36 76,56 -16,7 -25,-10 -84,-32 37,30 79,44 62,48 -9,3 -78,-27 -97,-43 -3,3 32,21 31,32 193,44 402,75 419,56 93,-34 292,-155 426,-219 20,-12 49,-12 66,-25 1,0 1,-1 2,-2 4,-9 5,-17 2,-24 -8,-13 -28,-28 -64,-39 -10,-2 -21,-5 -31,-8l-3 0zm-893 178c-9,6 -24,8 -37,11 -17,-9 -36,-19 -58,-28 13,41 57,77 134,87 -1,0 -3,1 -5,1l4 1c-2,0 -3,0 -5,0 7,2 13,3 20,5 -28,-19 -33,-20 -46,-29 -13,-10 -15,-23 -32,-32 16,2 30,-3 39,-13 -2,1 -4,1 -6,0 -3,0 -6,-1 -8,-3z"/>
   <path class="fil7 str0" d="M3337 540c-6,8 -11,17 -15,26l3 0c3,-9 7,-17 12,-26zm-11 96c7,6 14,12 20,19 3,-3 6,-6 9,-8 -9,-4 -19,-8 -29,-13l0 2zm34 38c9,18 11,36 4,55l-2 0c13,15 28,26 44,30 17,5 31,2 42,-3 -8,-10 -16,-19 -23,-27 -10,-5 -17,-11 -22,-18 -10,-23 -15,-39 -13,-51 -3,-1 -5,-2 -8,-3 -8,6 -15,12 -22,17z"/>
   <path class="fil5 str0" d="M3298 638l-3 2 3 6c0,-3 0,-5 0,-8zm28 58l19 35 19 -2c7,-19 5,-37 -4,-55 -3,2 -5,4 -8,6l3 5 -4 2 -3 -5c-3,3 -7,5 -10,7l-10 -21c3,-2 6,-4 9,-7l-4 -7 4 -2 4 6c1,-1 3,-2 5,-3 -6,-7 -13,-13 -20,-19 1,22 1,42 0,60z"/>
   <path class="fil8 str0" d="M3326 634c10,5 20,9 29,13 9,-7 17,-15 25,-22l-54 2 0 7zm78 -34c6,-6 12,-13 17,-19 -33,0 -66,0 -99,0 1,8 2,15 2,22 27,-1 53,-2 80,-3zm26 -30c15,-19 30,-38 44,-58l30 18c-12,14 -23,28 -35,41 105,5 202,10 290,16 7,4 16,8 25,13 -106,-1 -220,-1 -341,0 6,-6 12,-13 18,-19 97,0 194,1 289,2 -11,-5 -18,-8 -22,-6 1,-6 20,-16 5,-23 -8,9 -22,4 -42,10 -6,-7 5,-20 -20,-22 -1,7 -28,9 -43,13l-51 -10c-1,-6 24,-14 2,-21 -22,6 -42,11 -48,9 -120,-83 -182,-31 -206,33 13,1 25,1 38,1 9,-20 25,-33 48,-40 -19,9 -35,23 -46,40 22,1 44,2 65,3zm367 37c31,18 66,37 90,46 -6,1 -11,2 -16,2 -51,-8 -138,-25 -204,-26 -20,-4 -42,-9 -65,-14 65,-3 130,-5 195,-8zm-371 16c-6,3 -11,6 -15,9 3,-3 6,-6 9,-9l6 0zm-36 37c-3,-1 -5,-2 -8,-3 4,-3 9,-7 14,-11 -4,4 -6,9 -6,14z"/>
   <path class="fil9 str0" d="M3328 668l10 21c3,-2 7,-4 10,-7l-11 -21c-3,3 -6,5 -9,7zm24 12c15,-10 29,-22 44,-34 3,-5 8,-10 15,-14 3,-3 6,-6 9,-9l-40 2c-12,11 -25,23 -39,33l11 22zm91 -80c6,-6 12,-13 18,-19 -13,0 -27,0 -40,0 -5,6 -11,13 -17,19 4,0 8,0 12,0l27 0zm26 -29c12,-13 23,-27 35,-41l-30 -18c-14,20 -29,39 -44,58 13,0 26,1 39,1z"/>
   <polygon class="fil10 str0" points="3337,652 3333,654 3351,687 3355,685 "/>
   <path class="fil11" d="M3363 567c9,-20 25,-33 48,-40 -19,9 -35,23 -46,40l-2 0z"/>
   <path class="fil5 str0" d="M3298 417l-25 8c9,46 16,95 21,140 9,1 18,1 27,1 -5,-49 -14,-101 -23,-149zm-3 165c1,7 2,15 2,23 9,-1 18,-1 27,-2 0,-7 -1,-14 -2,-22 -9,0 -18,1 -27,1zm3 46c1,55 -4,100 -20,124l19 21 15 -15c13,-21 17,-71 14,-131l-28 1z"/>
   <path class="fil7 str0" d="M4156 689l0 -1c-79,-79 -221,-43 -228,-39 -34,22 -41,46 -39,74 -36,-26 -73,-53 -123,-74 47,7 91,11 137,2 84,-19 187,-29 253,38zm-252 123c2,20 2,42 -2,66 -2,10 109,35 145,29l4 1c-54,6 -117,-16 -188,-36 -20,-6 -58,-19 -77,-22 -56,-12 -91,-7 -145,8 -20,19 -43,21 -65,13 26,7 49,1 58,-10 7,-9 13,-17 12,-28 -3,-27 -20,-59 4,-88 -20,1 -36,-9 -31,9 13,55 -110,11 -172,-16 84,22 241,-11 256,3 47,17 131,43 201,71zm-473 -80c38,25 76,42 90,103 -37,-33 -71,-80 -96,-106 2,1 4,2 6,3z"/>
   <path class="fil12" d="M4161 694c-52,-33 -103,-23 -137,-15 -49,13 -82,39 -98,69 -13,-8 -25,-16 -37,-25 -2,-28 5,-52 39,-74 7,-4 155,-41 233,45zm-243 125c13,41 57,77 134,87 -28,10 -152,-18 -150,-28 4,-24 4,-46 2,-66 5,3 10,5 14,7z"/>
   <path class="fil13 str0" d="M4901 656c10,2 19,5 28,7 53,13 92,33 71,71 229,32 257,9 485,44 -189,-37 -401,-75 -584,-122z"/>
   <path class="fil12" d="M3634 861c7,-9 13,-17 12,-28 -3,-27 -20,-59 4,-88 -20,1 -36,-9 -31,9 13,55 -110,11 -172,-16 -5,-2 -11,-4 -16,-6 39,25 76,42 90,104 45,48 98,43 113,25z"/>
   <path class="fil14" d="M392 520c45,46 254,172 606,49 101,-35 263,-38 444,-21 32,-4 67,-8 104,-10 -322,-35 -545,-8 -637,19 -222,64 -486,-33 -517,-37zm1198 45c59,8 118,18 178,29 120,22 328,58 541,58 35,-1 71,-2 107,-4 34,1 69,2 105,2 173,-34 352,-85 506,-86 404,-4 719,23 950,38 182,-6 359,-8 521,-5 66,2 124,0 181,-2 -58,-3 -115,-6 -170,-8 -152,-7 -260,6 -410,3 -306,-7 -669,-16 -1008,-3 -232,8 -438,43 -631,58 15,3 30,6 44,8 -138,26 -271,40 -384,9 -92,-25 -265,-75 -337,-90 -66,-5 -131,-7 -193,-7zm3645 67c219,14 441,25 652,23 11,0 21,0 32,0 -106,-5 -212,-11 -318,-18 271,-2 512,-14 662,-47 298,-65 649,-107 1040,-76 -117,5 -230,15 -337,30 -28,0 -57,0 -88,0 -206,-5 -417,35 -456,40 -101,12 -220,43 -361,60 -205,2 -430,-2 -649,-7 -278,-3 -573,-13 -829,-20 172,0 403,8 652,15zm2239 -83c19,4 31,5 27,3 -2,-1 -4,-2 -6,-3 -7,0 -14,0 -21,0zm-3238 61c-19,0 -38,0 -56,0 -45,0 -97,-2 -154,-6 75,2 145,4 210,6z"/>
   <path class="fil7 str0" d="M3426 623c-46,25 -43,40 -23,88 45,68 282,13 300,30 65,24 202,64 273,106 13,-3 28,-5 37,-11 -4,-4 -6,-10 -5,-16 1,-8 9,-14 17,-13 0,-4 -1,-9 -3,-14 -124,-35 -163,-123 -308,-161 -27,3 -68,-7 -112,-17 -59,3 -118,5 -176,8z"/>
   <path class="fil7 str0" d="M4032 797c105,18 141,46 141,55 1,20 -52,-26 -70,-15 48,19 81,39 77,50 2,19 -28,-15 -79,-29 16,13 77,36 76,56 -16,7 -25,-10 -84,-32 37,30 79,44 62,48 -9,3 -78,-27 -97,-43 -4,4 49,29 24,38 -42,-30 -47,-30 -62,-41 -13,-10 -15,-23 -32,-32 16,2 30,-3 39,-13 6,-1 12,-6 13,-13 1,-4 -1,-9 -3,-12 0,-6 -2,-11 -5,-17z"/>
   <path class="fil8 str0" d="M4027 807c-9,-1 -18,5 -19,13 -2,9 4,18 13,19 9,2 17,-4 19,-13 1,-9 -5,-17 -13,-19zm-2 6c-7,-1 -13,2 -14,8 -1,6 4,11 11,13 7,1 14,-3 15,-8 1,-6 -4,-12 -12,-13z"/>
   <path class="fil14 str0" d="M4025 813c-7,-1 -13,2 -14,8 -1,6 4,11 11,13 7,1 14,-3 15,-8 1,-6 -4,-12 -12,-13z"/>
   <path class="fil14" d="M1211 639c108,-97 573,-92 898,-21 406,89 1578,-38 2389,-21 150,4 259,-9 411,-3 425,18 928,71 1381,69 222,-2 397,-55 537,-71 39,-5 251,-46 457,-41 193,4 339,-13 460,-11 72,1 175,26 164,19 -40,-26 -133,-33 -197,-38 -392,-31 -745,11 -1043,77 -422,93 -1551,19 -2088,19 -234,0 -624,-23 -1164,-17 -283,3 -541,68 -818,64 -102,-1 -369,-75 -433,-86 -579,-102 -981,-4 -954,61z"/>
  </g>
 </g>
</svg>
