<?xml version="1.0" encoding="UTF-8"?>
<!DOCTYPE svg PUBLIC "-//W3C//DTD SVG 1.1//EN" "http://www.w3.org/Graphics/SVG/1.1/DTD/svg11.dtd">
<!-- Creator: CorelDRAW X7 -->
<svg xmlns="http://www.w3.org/2000/svg" xml:space="preserve" width="8in" height="5in" version="1.1" style="shape-rendering:geometricPrecision; text-rendering:geometricPrecision; image-rendering:optimizeQuality; fill-rule:evenodd; clip-rule:evenodd"
viewBox="0 0 8000 5000"
 xmlns:xlink="http://www.w3.org/1999/xlink">
 <defs>
  <style type="text/css">
   <![CDATA[
    .fil2 {fill:none}
    .fil5 {fill:#FEFEFE}
    .fil1 {fill:#373435}
    .fil6 {fill:#ED3237}
    .fil4 {fill:#91D8F7}
    .fil3 {fill:#00AFEF}
    .fil7 {fill:#ED3237;fill-rule:nonzero}
    .fil0 {fill:url(#id0)}
   ]]>
  </style>
  <linearGradient id="id0" gradientUnits="userSpaceOnUse" x1="462.705" y1="1766.79" x2="7580.77" y2="1766.79">
   <stop offset="0" style="stop-opacity:0.568627; stop-color:#003399"/>
   <stop offset="0.478431" style="stop-opacity:0.568627; stop-color:#002192"/>
   <stop offset="1" style="stop-opacity:0.568627; stop-color:#000E8A"/>
  </linearGradient>
 </defs>
 <g id="Layer_x0020_1">
  <metadata id="CorelCorpID_0Corel-Layer"/>
  <rect class="fil0" x="463" y="15" width="7118" height="3503"/>
  <g id="_1763698795712">
   <path class="fil1" d="M1461 2674l1006 0c-16,-4 -131,-10 -408,-22 -453,-14 706,-56 797,-56 29,-2 60,-2 92,-2l1847 0c129,0 280,9 396,9 272,7 254,21 435,56 41,9 114,13 200,16l618 0c18,0 20,1 0,2l-474 32c-253,17 153,44 13,44l-1 0 -757 0c-351,9 -707,24 -1053,24l-505 0c208,9 437,17 619,17l670 0c362,0 -37,42 -127,99 -62,36 -173,52 -279,58 532,3 1564,11 834,11 -91,0 -1867,57 -1153,86 276,12 725,14 1014,14l815 0c254,0 -778,50 -815,50l-1368 0c131,18 857,64 916,64 271,7 525,35 796,35 978,0 -54,7 -416,7 -91,0 -924,74 -308,99 130,5 887,9 1032,9l-1847 0c-145,0 -902,-4 -1031,-9 -617,-25 217,-99 307,-99 363,0 1395,-7 417,-7 -272,0 -525,-28 -797,-35 -72,0 -1177,-71 -887,-71l1504 0c290,-14 844,-43 651,-43l-815 0c-290,0 -739,-2 -1014,-14 -715,-29 1062,-86 1152,-86 536,0 123,-5 -345,-8l-611 0c-87,0 -149,-5 -142,-5l284 0c100,-6 201,-22 259,-56 91,-57 489,-99 127,-99l-670 0c-253,0 -598,-14 -851,-29 -171,-8 -213,-10 -185,-10l1847 0c9,0 26,0 48,0 159,-4 317,-7 473,-7l383 0c-50,-9 -215,-27 -31,-39l453 -30 -351 0c-69,0 -140,-1 -206,-3l-1635 0c-116,0 -330,-2 -498,-2l-425 0 0 0z"/>
  </g>
  <path class="fil2" d="M1461 2674l1340 0c380,0 1014,14 181,-22 -453,-14 706,-56 797,-56 145,-7 344,7 489,7 271,7 253,21 434,56 182,36 945,10 819,18l-474 32c-291,19 289,53 -91,42 -653,-18 -1358,43 -2010,22 -55,0 -1033,-36 -435,-8 254,15 598,29 851,29l670 0c363,0 -36,42 -126,99 -145,85 -562,56 -544,56 200,0 2004,13 1098,13 -90,0 -1867,57 -1152,86 275,12 724,14 1014,14l815 0c254,0 -779,50 -815,50l-1340 -7c-290,0 815,71 887,71 272,7 526,35 797,35 978,0 -54,7 -416,7 -91,0 -924,74 -308,99 130,5 887,9 1031,9"/>
  <g id="_1763698795744">
   <path class="fil3" d="M3452 2607l-338 0 -1540 0c-36,0 -67,-1 -89,-3 -27,-3 -56,-4 -88,-4l370 0c202,-13 391,-43 200,-68 -272,-35 -55,-62 182,-62l1878 0c113,0 231,6 302,20l401 0c101,0 78,30 117,51l577 0c198,0 219,35 -119,84 -78,11 -596,44 -586,63 10,30 1395,15 1425,45 34,32 -46,42 -158,42l-834 0c-285,24 -602,61 -852,73 -319,19 135,121 -218,121l-863 0c49,5 182,9 437,9 790,0 1522,45 2322,45 117,0 1044,45 439,71 -118,5 -248,7 -384,7l-1878 0c-90,0 -183,-1 -277,-3 -349,24 -663,55 -534,78l4 0 212 0c338,-7 734,-16 1059,-16l1879 0c328,0 585,9 641,38 89,44 -453,56 -975,56l-1878 0c-286,0 -565,-3 -732,-7 -288,3 -652,14 -640,55 10,48 1346,27 1522,41 146,12 838,7 591,76 -27,8 -409,55 -49,59 17,0 30,1 40,2l499 0c-178,12 -280,16 -342,16l-1878 0c-126,0 -92,-17 -197,-18 -360,-4 22,-51 49,-59 246,-69 -445,-64 -591,-76 -176,-14 -1512,7 -1522,-41 -16,-51 550,-56 829,-56l213 0c290,-2 633,-14 938,-14l1878 0c83,0 163,1 238,3 108,-9 162,-21 129,-37 -13,-7 -36,-12 -67,-17 -135,3 -252,5 -340,5l-735 0c-151,5 -300,12 -436,12l-1878 0c-127,0 -244,-6 -340,-22 -228,-40 934,-109 1219,-109l1878 0 21 1c51,1 104,2 159,3 -14,-23 -555,-48 -642,-48 -800,0 -1532,-45 -2322,-45 -685,0 -491,-30 -163,-30l731 0c15,-31 -152,-87 76,-100 370,-19 887,-89 1229,-97l621 0c3,-5 1,-11 -6,-18 -30,-30 -1415,-15 -1425,-45 -10,-19 507,-52 585,-63 48,-7 89,-14 123,-20 -35,1 -68,2 -97,2z"/>
  </g>
  <path class="fil2" d="M1673 2636c195,15 549,-52 751,-32 166,16 777,-33 482,-72 -414,-54 307,-89 503,-37 175,45 205,3 352,-4 244,-11 -49,104 507,59 371,-29 537,12 98,75 -78,11 -596,44 -586,63 10,30 1395,15 1425,45 87,82 -566,18 -615,18 -342,8 -859,78 -1229,97 -381,22 341,164 -527,108 -439,-26 -986,22 -117,22 790,0 1522,45 2322,45 117,0 1044,45 439,71 -527,22 -1298,-15 -1834,-26 -244,-4 -1474,67 -1240,108 342,59 937,-23 1376,7 303,19 2254,-71 2420,15 156,78 -1639,56 -1844,44 -390,-26 -976,4 -1415,4 -117,0 -985,-7 -966,56 10,48 1346,27 1522,41 146,12 837,7 591,76 -27,8 -409,55 -49,59 157,2 3,39 539,2"/>
  <g id="_1763698792960">
   <path class="fil4" d="M1837 1020l712 0c156,0 -376,-121 -85,-171 15,-2 28,-4 40,-4l118 0c-16,-26 -45,-54 -94,-81 -123,-64 -92,-103 -10,-103l223 0c41,0 93,9 146,30 -9,-45 -18,-81 -18,-83 -8,-107 120,-99 -171,-128 -170,-14 71,-121 71,-142 2,-39 27,-52 60,-52l223 0c71,0 182,59 210,59 12,0 30,11 51,29 21,-49 56,-115 74,-142 2,-3 7,-5 14,-5l224 0c75,0 408,154 369,232 -121,213 156,92 -220,255 -42,17 -61,47 -68,78l152 0c150,0 317,4 454,31 -1,-23 -3,-46 21,-46l223 0c8,0 19,3 34,8 31,12 61,26 90,41 0,-14 2,-24 12,-24l115 0c7,-70 -24,-200 29,-200l223 0c23,0 59,23 120,84 54,54 19,111 -8,163l189 0c21,0 38,29 47,114 7,77 28,119 52,141 25,5 51,10 75,15 11,0 -1,9 -21,9l-223 0c-16,0 -36,-5 -55,-24 -298,-57 -636,-112 -803,-214l-161 0c-7,0 -15,-1 -25,-2 -53,10 -94,26 -82,54 14,33 145,41 210,42l24 0 2 1 -16 0c-117,5 -329,67 -488,67l-223 0c-75,0 -137,-14 -173,-54 0,0 -1,-1 -1,-1 -134,30 -289,82 -363,82l-223 0c-27,0 -43,-7 -44,-24 -6,-63 -9,-108 -9,-139 -6,22 -21,35 -34,35l-150 0c78,38 176,69 97,69l-112 0 0 0 -824 0 0 0zm1891 -228c-8,0 -15,0 -23,0 -11,47 5,93 5,93l-224 0c-53,-3 -101,-34 -144,-74 -6,48 -22,86 -58,88 -7,1 -13,1 -19,1l-181 0c-1,29 1,75 7,144 114,-30 247,-69 333,-69l223 0c35,0 63,7 77,23 19,22 46,36 78,44 133,-18 274,-54 361,-57 -59,-1 -207,-8 -222,-43 -23,-52 143,-66 227,-66l150 0c1,-1 3,-3 4,-4l-44 0c-15,0 -37,-4 -68,-16 -127,-48 -310,-61 -482,-64zm943 107c122,68 323,115 533,157 -8,-20 -15,-45 -19,-77l-199 0c-3,0 -6,-1 -9,-2 -80,-32 -56,-80 -27,-133l-46 0c1,26 2,55 -23,55l-210 0zm-1801 -41c-10,-9 -22,-23 -37,-44 -41,-57 -102,-96 -163,-121 1,18 25,42 81,71 75,42 104,85 110,119 2,-13 4,-21 9,-25zm284 -244l223 0c11,0 27,11 49,37 24,26 50,60 79,95 11,-13 25,-24 45,-32 376,-163 100,-42 220,-255 23,-46 -85,-119 -192,-171 -30,58 -65,132 -60,142 48,119 52,161 33,161l-223 0c-47,0 -234,-246 -289,-246 -9,0 -25,-5 -46,-13 0,2 0,4 0,6 0,21 -242,128 -71,142 291,29 163,21 170,128 0,3 21,82 32,152 4,-72 1,-146 30,-146z"/>
  </g>
  <path class="fil2" d="M1837 1020l824 0c156,0 -376,-121 -85,-171 78,-14 113,7 120,78 7,79 149,-49 -56,-163 -256,-135 156,-156 305,50 142,199 35,-199 35,-206 -7,-107 121,-99 -170,-128 -170,-14 71,-121 71,-142 7,-121 227,7 270,7 78,0 419,490 255,85 -7,-14 64,-156 93,-198 21,-36 426,142 383,227 -121,213 156,92 -220,255 -107,43 -64,171 -64,171 -121,-7 -213,-156 -284,-234 -135,-157 -21,241 -142,248 -185,14 -220,-185 -192,156 7,100 547,-156 632,-57 114,128 511,-14 675,-14 71,0 -213,7 -235,-42 -28,-64 235,-71 270,-64 142,49 93,-71 213,7 178,113 568,170 888,234 28,0 -107,64 -128,-156 -28,-277 -142,43 -206,14 -156,-64 85,-184 -21,-291 -291,-291 -36,277 -227,135 -93,-71 -15,78 -71,78 -107,-7 -192,-78 -292,-114 -127,-49 36,142 -156,71 -206,-78 -554,-63 -774,-63"/>
  <g id="_1763698794816">
   <path class="fil3" d="M2237 1055c96,0 255,-24 359,-24l203 0c-5,-10 -11,-23 -16,-37 -37,-45 -74,-87 -55,-87l223 0c4,0 9,1 17,5l116 0c39,0 112,114 175,160 58,-12 107,-24 114,-24l223 0 109 7c-107,-38 -547,-144 -552,-199 -6,-38 -11,-66 -16,-88 -21,-27 -26,-51 -21,-51l223 0c4,0 12,14 21,51 18,24 47,50 94,67 79,32 125,28 167,31 42,-44 85,-101 127,-101l223 0c20,0 39,11 58,42 107,170 -42,78 -64,156 -11,36 35,75 98,99 23,-14 40,-35 48,-64 2,-7 5,-10 8,-10l113 0c2,-3 4,-7 7,-11 13,-20 35,-24 59,-24l66 0c14,-3 24,-12 24,-33 0,-48 1,-67 3,-67l223 0c6,0 19,158 40,174 12,7 23,14 34,19 38,-12 75,-23 116,-23l224 0c31,0 65,7 102,25 57,27 154,34 253,36l20 0 41 0 0 0 71 0 0 0 41 0 71 0c300,0 220,35 196,46 21,1 23,2 -5,3l-223 0c-2,0 0,-1 5,-3 -70,-2 -348,-3 -381,-25l223 0c16,11 90,16 169,20 25,-14 48,-37 -155,-41 -4,0 -9,0 -14,0l-221 0 -2 0c-118,0 -243,-4 -313,-36l0 0c-37,12 -74,23 -115,23l-224 0c-41,0 -85,-11 -136,-44 -2,-2 -4,-5 -6,-8 -8,5 -16,7 -23,7l-79 0c-26,43 -78,60 -135,60l-224 0c-33,0 -69,-6 -101,-16l-149 0c-6,0 -13,0 -22,-1l-150 -10c-61,14 -157,34 -216,34l-223 0c-11,0 -21,-1 -29,-2 -1,0 -2,-1 -3,-1 0,0 0,1 0,1 0,27 -10,37 -26,37l-223 0c-45,0 -135,-87 -145,-87 -1,0 -2,-1 -3,-1 -77,7 -157,15 -214,15l-223 0zm1602 -183c-25,26 -50,46 -76,46l-223 0c-11,0 -22,-3 -32,-12 -52,-37 -87,-39 -128,-41 30,38 218,93 370,137 -9,-13 -12,-26 -8,-39 18,-65 125,-12 97,-91z"/>
  </g>
  <path class="fil2" d="M2348 1055c128,0 370,-42 441,-14 14,0 170,156 170,50 0,-43 -192,-220 -99,-178 14,7 85,263 85,78 0,-220 149,86 241,100 71,14 284,-43 298,-43l320 21c206,15 -533,-142 -540,-213 -35,-262 -92,-85 78,-21 142,57 178,0 277,71 100,78 199,-255 299,-99 106,170 -43,78 -64,156 -29,92 319,206 369,35 14,-49 50,100 128,-21 35,-57 149,14 149,-57 0,-191 14,86 42,107 199,128 291,-71 476,21 92,43 284,36 426,36l71 0c355,0 178,49 192,49 120,-7 -334,0 -377,-28"/>
  <g id="_1763698791328">
   <polygon class="fil3" points="2142,1100 6376,1121 5547,1139 1314,1118 "/>
  </g>
  <line class="fil2" x1="1728" y1="1109" x2="5961" y2= "1130" />
  <path class="fil1" d="M4806 2459c228,10 385,8 622,-50 168,-42 430,-128 544,-184 157,-77 339,-187 426,-256 10,-7 8,-14 19,-21 6,-5 19,-8 32,-15 41,-23 83,-68 132,-100 6,-4 15,-16 21,-20 6,-3 19,2 25,-1 125,-79 177,-43 183,-80 72,-14 230,5 217,-36 -68,-5 -199,9 -323,7 -13,-45 -48,-6 -118,-24 6,-18 3,-39 -3,-58 -327,-8 -915,25 -1586,73 -67,5 -188,-119 -257,-114 -414,26 -853,82 -1244,121 -166,16 -340,53 -496,31 -161,-24 -306,-112 -443,-198 -76,2 -126,7 -128,16 116,100 237,198 359,286 17,21 0,35 -32,41 -238,28 -444,59 -584,107 -74,25 -128,67 -164,90 -31,19 -49,35 -46,50 -17,8 -18,18 -47,56 -17,17 -37,77 -39,122 986,56 1944,101 2930,157z"/>
  <path class="fil1" d="M4288 2350c914,-74 1637,-208 2131,-412 -911,248 -1884,294 -2841,381 149,48 425,38 710,31z"/>
  <path class="fil5" d="M7023 1697c-1688,141 -3375,282 -5063,422 74,-106 320,-191 820,-245 28,-17 19,-31 5,-44 -118,-84 -239,-181 -357,-280 28,-16 80,-15 131,-17 158,116 304,178 440,198 146,21 280,0 396,-18 107,-17 184,-25 208,-13 -132,15 -259,40 -380,86 -27,1 -5,21 36,42 1112,-84 2223,-175 3322,-208 7,16 12,28 5,48 4,11 -64,21 -111,23 144,2 219,-37 231,13 113,5 204,-12 317,-7z"/>
  <path class="fil5" d="M3556 2318c1221,-84 2276,-199 2866,-389 35,-12 50,-17 74,-45 75,-84 13,-97 -70,-98 -1477,159 -2995,276 -4510,397 -28,34 -35,76 -39,115 313,41 700,61 1060,55 210,-3 420,-5 619,-35z"/>
  <path class="fil3" d="M4779 2311c781,-77 1281,-202 1630,-373 -613,263 -1344,308 -1979,393 116,-7 233,-14 349,-20z"/>
  <path class="fil3" d="M2054 2050c-21,6 -36,19 -50,33 1563,-116 3238,-247 4813,-378 -7,2 -56,0 -86,0 -15,0 -19,4 -23,0 -4,-4 -11,-13 -12,-15 3,7 1,13 -11,14 -1530,125 -3088,240 -4631,346z"/>
  <path class="fil3" d="M2548 1992c-22,-13 84,-14 184,-22 73,-5 162,-11 197,-12 14,-1 6,5 6,9l-387 25z"/>
  <path class="fil3" d="M2958 1961c-23,-13 83,-14 184,-22 72,-6 161,-11 196,-12 14,-1 6,5 6,8l-386 26z"/>
  <path class="fil3" d="M3364 1928c-23,-13 83,-14 184,-22 72,-5 161,-10 196,-12 14,-1 6,5 6,9l-386 25z"/>
  <path class="fil3" d="M3773 1896c-23,-13 83,-15 184,-23 72,-5 161,-10 197,-12 13,-1 5,5 6,9l-387 26z"/>
  <path class="fil3" d="M4187 1863c-24,-13 92,-15 203,-23 79,-6 177,-11 216,-13 15,-1 6,5 6,9l-425 27z"/>
  <path class="fil1" d="M4632 1831c5,-5 16,-9 22,-14 43,-42 93,-81 120,-101 24,-17 76,-38 96,-43 110,-28 238,-37 377,-49 152,-13 317,-27 500,-42 271,-22 554,-32 874,-50 0,27 -81,92 -116,152 -5,8 -22,5 -31,7 5,-5 13,-4 18,-10 62,-75 134,-155 111,-139 -117,2 -209,11 -311,18 -48,50 -100,97 -148,147 -2,2 4,7 2,9 -9,1 -23,0 -32,1 71,-53 115,-104 164,-156 -104,7 -212,14 -316,21 -52,47 -113,98 -158,152 -3,3 4,7 2,9 -10,1 -29,0 -39,1 6,-6 20,-9 26,-15 48,-48 99,-100 145,-147 -111,7 -226,14 -334,24 -47,50 -110,103 -157,153 -3,4 5,7 1,11 -12,2 -26,-1 -38,2 5,-5 17,-9 22,-14 50,-48 96,-101 145,-150 -90,6 -210,18 -339,32 -46,49 -99,98 -145,148 -2,2 4,7 2,10 -9,-1 -25,2 -34,0 49,-50 108,-106 156,-156 -171,13 -278,22 -361,51 -82,30 -141,80 -187,128 -3,3 4,6 1,9 -8,0 -30,1 -38,1z"/>
  <path class="fil5" d="M2618 1553c182,83 294,140 467,140 130,0 289,-27 501,-52 241,-29 509,-55 780,-101 -118,11 -235,23 -353,34 83,-35 190,-74 191,-90 11,22 -21,45 -21,71 6,-28 38,-36 32,-81 -76,30 -176,63 -255,108 -128,15 -253,30 -381,45 75,-45 157,-102 232,-146 -5,34 -22,90 -6,119 -10,-36 18,-100 22,-129 -63,15 -184,106 -277,155 -126,18 -276,40 -406,50 62,-49 148,-121 211,-170 10,6 -32,106 -34,154 10,-51 53,-153 48,-179 -19,12 -161,137 -247,197 -123,11 -224,-16 -319,-57 55,-30 111,-65 166,-94 19,-4 -54,96 -34,142 -8,-58 58,-143 48,-155 -59,4 -126,71 -198,101 -61,-29 -125,-56 -167,-62z"/>
  <path class="fil5" d="M2611 1554c113,-12 198,-17 307,-27 452,-43 901,-56 1293,-44 64,2 98,43 160,52 121,-4 242,-29 364,-25 5,-19 -41,-20 -98,-25 -73,-6 -165,-17 -227,-24 -8,-3 -16,-6 -24,-9 -156,-5 -329,11 -486,0 -21,-1 -44,-4 -66,-2 -124,14 -247,15 -362,11 -71,-3 -112,2 -147,10 -74,3 -152,7 -226,10 -107,0 -184,16 -260,29 -72,4 -151,6 -223,3 -75,15 -114,17 -189,32 42,-1 112,-21 154,-1 10,5 20,10 30,10z"/>
  <path class="fil1" d="M2009 2069c3,-3 -74,-28 -137,10 3,39 -8,85 3,95 4,3 6,64 -3,105 21,-79 72,-165 137,-210z"/>
  <path class="fil5" d="M1832 2296c15,-70 47,-129 86,-176 81,-98 192,-149 258,-156 3,-9 11,-11 0,-17 -103,28 -180,76 -232,127 -106,106 -115,220 -112,222z"/>
  <path class="fil5" d="M2535 1337c6,-2 12,-4 18,-6 -51,-383 -116,-717 -183,-1046 67,351 130,701 165,1052z"/>
  <path class="fil1" d="M2529 1523c8,-1 16,-2 25,-2 -7,-65 -14,-129 -21,-194 6,1 12,1 17,2 0,-4 0,-7 0,-10 -7,-2 -13,4 -19,2 -1,-7 1,-21 0,-28 7,0 11,-1 18,-1 -9,-25 -14,-40 -11,-54 -6,-4 -10,-2 -10,18 4,2 8,5 12,7 0,7 1,14 2,21 -7,1 -14,0 -21,0 4,79 10,158 8,239z"/>
  <polygon class="fil1" points="2461,749 2455,751 2448,713 2454,714 "/>
  <path class="fil5" d="M2531 1484c-20,-55 -27,-106 -7,-151 -65,17 -131,39 -216,50 -8,16 8,37 12,59 0,15 -3,25 -9,30 19,8 25,-3 66,33 22,-10 44,-27 66,-16 30,4 59,1 88,-5z"/>
  <path class="fil6" d="M2513 1338c1,8 -8,19 -7,27 -10,-1 -33,6 -45,6 -37,3 -70,4 -89,19 -1,4 -2,8 -2,11 -19,-8 -34,-5 -49,0 -3,5 -5,9 -8,13 -5,-7 -8,-17 -3,-29 66,-9 137,-27 203,-47z"/>
  <path class="fil6" d="M2513 1465c3,6 5,12 8,18 -24,5 -50,8 -77,4 -22,-11 -47,7 -71,19 -12,-25 -38,-30 -61,-34 10,2 20,-5 30,-2 41,11 107,-8 171,-5z"/>
  <path class="fil3" d="M2509 1440c-3,-18 -6,-33 -4,-49 -32,-6 -44,8 -96,8 -29,-1 -54,16 -99,11 7,12 10,25 11,39 7,6 22,8 42,2 46,-9 96,-10 146,-11z"/>
  <polygon class="fil1" points="2600,1506 2600,1454 2567,1453 2564,1472 2562,1513 "/>
  <path class="fil6" d="M2564 1513l35 -5 -2 -28c-11,8 -22,8 -33,2l0 31z"/>
  <path class="fil6" d="M2578 1461c4,0 6,3 6,7 0,4 -2,7 -6,7 -4,0 -7,-3 -7,-7 0,-4 3,-7 7,-7z"/>
  <path class="fil1" d="M2583 2223c11,-2 8,13 3,30 14,-4 23,-19 25,-47 31,-13 38,-26 47,-39 18,-5 24,-8 21,-11 -6,-2 -14,1 -19,0 8,-8 20,-15 15,-20 -1,-4 -4,8 -27,10 -9,0 -37,-17 -91,23 -4,6 -42,5 -55,26 19,-5 25,2 18,11 -5,7 -28,48 -25,58 -2,11 -1,23 -3,34 -20,3 -24,24 -29,45 11,-14 27,-19 39,-27 7,3 11,7 25,15 -7,-18 -11,-28 -21,-29 18,-38 45,-60 77,-79z"/>
  <path class="fil7" d="M2103 2188l-1 -8 33 -2c5,0 9,0 12,1 2,1 5,2 6,4 2,2 3,5 3,7 0,2 0,4 -1,6 0,2 -1,3 -3,5 -1,1 -3,2 -5,3 2,1 4,1 6,2 2,1 4,2 5,4 1,2 2,5 2,7 1,3 0,6 -2,9 -1,2 -4,5 -7,6 -3,2 -8,3 -15,3l-30 3 0 -8 2 -1c2,0 3,0 3,0 1,0 1,-1 1,-1 0,-1 0,-2 0,-4l-2 -31c0,-2 0,-3 -1,-4 0,0 0,0 -1,-1 0,0 -1,0 -3,0l-2 0zm22 14l6 0c3,-1 6,-1 7,-2 2,-1 3,-1 4,-3 0,-1 1,-2 1,-4 0,-1 -1,-2 -2,-3 -1,-1 -2,-2 -3,-2 -2,-1 -4,-1 -8,0l-6 0 1 14zm1 8l0 13c1,1 1,3 1,3 0,0 0,0 1,1 0,0 1,0 2,0l4 -1c3,0 5,0 6,-1 2,0 3,-1 4,-3 1,-1 2,-3 2,-5 -1,-2 -1,-3 -2,-4 -1,-2 -2,-2 -4,-3 -1,0 -4,0 -7,0l-7 0zm37 -34l28 -2 0 8 -2 0c-2,0 -2,0 -3,0 0,1 -1,1 -1,2 0,0 0,1 0,2l2 33c0,1 0,2 0,2 1,1 1,1 1,1 1,0 1,0 3,0 3,0 6,-1 8,-2 2,-1 4,-3 6,-5 2,-2 3,-5 4,-9l8 2 -6 22 -44 3 -1 -8 3 0c1,0 2,0 3,-1 0,0 1,-1 1,-1 0,-1 0,-1 0,-3l-2 -32c0,-1 -1,-2 -1,-3 0,-1 -1,-1 -1,-1 -1,0 -2,-1 -3,0l-3 0 0 -8zm52 -4l27 -2 1 8 -3 0c-1,0 -2,0 -2,1 -1,0 -1,1 -1,1 -1,1 -1,2 -1,4l2 20c0,4 1,7 2,9 1,2 2,3 4,4 1,1 3,1 6,1 2,0 4,-1 5,-2 2,-1 3,-3 4,-4 0,-2 1,-5 0,-9l-1 -23c0,-1 -1,-1 -1,-2 0,0 -1,-1 -1,-1 -1,0 -2,0 -3,0l-2 0 -1 -8 24 -1 0 8 -2 0c-1,0 -3,0 -3,0 -1,1 -1,1 -1,2 -1,0 -1,1 0,3l1 23c1,4 0,7 -1,10 -1,4 -4,7 -7,10 -4,2 -8,4 -13,4 -3,0 -7,0 -9,-1 -3,-1 -6,-2 -8,-4 -2,-2 -4,-4 -5,-6 -1,-2 -2,-6 -2,-10l-2 -22c0,-2 0,-3 0,-4 0,0 -1,-1 -1,-1 -1,0 -2,0 -3,0l-3 0 0 -8zm63 -5l48 -3 8 17 -7 4c-2,-3 -3,-6 -5,-7 -2,-2 -4,-3 -6,-3 -2,-1 -5,-1 -7,-1l-9 1 1 14 3 0c2,0 3,-1 4,-1 1,0 1,-1 2,-1 0,-1 0,-3 0,-5l0 -2 7 0 2 24 -7 0 -1 -2c0,-2 0,-3 0,-4 -1,0 -2,-1 -2,-1 -1,0 -2,0 -5,0l-2 0 1 13c0,2 0,2 0,3 0,0 0,0 1,0 0,1 1,1 2,0l5 0c4,0 7,-1 9,-2 3,-1 5,-3 6,-6 2,-2 3,-5 4,-8l8 2 -6 22 -49 3 -1 -7 1 -1c2,0 4,0 4,0 1,-1 1,-1 2,-2 0,0 0,-1 -1,-3l-2 -31c0,-2 0,-3 0,-4 -1,0 -1,-1 -2,-1 0,0 -1,0 -3,0l-2 0 -1 -8zm61 -4l47 -4 8 18 -7 3c-2,-2 -3,-4 -4,-6 -1,-1 -3,-2 -4,-3 -2,0 -4,-1 -5,-1 -2,0 -4,0 -7,0l-7 1 1 15 4 -1c1,0 2,0 3,0 1,-1 1,-1 2,-2 0,-1 0,-2 0,-3l0 -3 7 -1 2 26 -7 0 -1 -4c0,-1 0,-1 0,-2 0,-1 -1,-1 -1,-1 -1,-1 -1,-1 -2,-1 0,0 -1,0 -3,0l-3 0 1 12c0,1 0,2 1,3 0,0 0,1 1,1 0,0 1,0 3,0l2 0 1 8 -28 2 -1 -8 2 0c2,0 4,-1 4,-1 1,-1 1,-2 1,-4l-2 -32c-1,-2 -1,-3 -1,-3 0,-1 -1,-1 -1,-1 -1,-1 -2,-1 -4,0l-2 0 0 -8zm56 -4l28 -2 1 7 -3 1c-1,0 -2,0 -3,0 0,1 0,1 -1,2 0,0 0,1 0,3l3 31c0,2 0,3 0,4 0,0 1,0 1,1 1,0 2,0 3,0l3 0 1 8 -28 2 -1 -8 2 0c2,0 3,-1 3,-1 1,0 1,-1 1,-1 1,-1 1,-2 1,-3l-3 -32c0,-2 0,-3 0,-3 -1,-1 -1,-1 -2,-2 0,0 -1,0 -2,0l-3 0 -1 -7zm34 -3l24 -2 19 32 -2 -20c0,-2 0,-3 0,-3 -1,-1 -1,-1 -2,-2 0,0 -1,0 -2,0l-3 1 -1 -8 24 -2 1 8 -3 0c-1,0 -2,0 -3,1 0,0 -1,0 -1,1 0,0 0,2 0,3l3 44 -11 1 -25 -40 2 29c1,2 1,3 1,3 0,1 1,1 1,2 1,0 2,0 3,0l3 0 0 7 -23 2 -1 -8 2 0c2,0 3,0 3,0 1,-1 1,-1 1,-2 1,0 1,-1 1,-2l-3 -33c0,-1 0,-2 0,-3 -1,0 -1,-1 -2,-1 0,0 -1,0 -2,0l-3 0 -1 -8z"/>
  <path class="fil5" d="M5131 2460c-174,-11 -353,-83 -527,-80 -109,23 -471,-22 -590,16 -84,26 -362,-53 -473,-16 -79,17 -530,-79 -563,-39 -48,34 -362,-17 -537,6 -9,20 -206,-33 -287,-32 -75,7 -211,-42 -272,-9 -434,-78 -319,-3 -425,10 -539,-2 -466,44 -648,69 1429,-119 3155,152 4322,75z"/>
  <path class="fil7" d="M5730 1919c0,3 0,5 -2,6 -1,1 -4,2 -9,3l-34 2 0 -5 6 -1 -2 -25c-1,0 -2,0 -3,1 -2,0 -4,-1 -6,-2 -2,-1 -3,-3 -3,-5 0,-1 0,-3 2,-5 2,-1 4,-2 6,-2 3,0 6,0 8,2 2,2 4,5 4,8l2 28 20 -2c2,0 3,-1 3,-2l-3 -36 8 -1 3 36zm-44 -24c0,0 1,0 2,-1 0,0 1,-1 0,-1 0,-1 0,-2 -1,-2 0,0 -1,-1 -2,-1 -1,0 -1,1 -2,1 0,1 -1,1 -1,2 1,1 1,1 2,2 0,0 1,0 2,0zm102 27l-8 1 0 -8c-2,-4 -5,-7 -9,-10 -3,-2 -7,-3 -10,-3 -3,0 -6,1 -7,3 -2,1 -2,3 -2,6l0 1c1,0 2,0 3,0 3,-1 5,0 7,1 1,1 2,3 2,5 1,2 0,3 -2,5 -1,1 -3,2 -6,2 -3,0 -6,0 -8,-2 -2,-2 -3,-4 -4,-8l0 -3c0,-4 1,-8 4,-11 3,-2 7,-4 12,-4 4,-1 8,0 11,2 3,1 6,3 8,6l-1 -10c-1,-3 -2,-6 -4,-7 -2,-2 -6,-2 -12,-2 -4,0 -7,1 -10,3 -2,1 -4,3 -4,6l-8 -1c1,-4 3,-7 7,-10 4,-2 9,-3 16,-4 7,-1 13,0 17,2 3,3 5,6 6,12l2 28zm-32 -1c1,0 2,-1 2,-1 1,-1 1,-1 1,-2 0,0 -1,-1 -1,-1 -1,-1 -2,-1 -2,-1 -1,0 -2,0 -2,1 -1,0 -1,1 -1,2 0,0 0,1 1,1 1,1 1,1 2,1zm32 18l-19 1 -1 -4c-1,0 -3,-1 -4,-1 -1,-1 -2,-2 -2,-3 0,-2 1,-3 2,-4 1,-1 2,-1 4,-1 1,-1 3,0 4,1 1,0 2,1 2,3l0 5 8 -1 -1 -9 6 -1 1 14zm-20 -6c1,0 1,0 2,-1 0,0 0,-1 0,-1 0,-1 0,-1 -1,-1 0,-1 -1,-1 -1,-1 -1,0 -1,1 -2,1 0,0 0,1 0,1 0,1 0,1 1,1 0,1 1,1 1,1zm90 -16l-10 1 -15 -29c0,-1 -1,-3 -2,-6 -1,3 -2,5 -2,7l-10 30 -9 1 -3 -31c-1,0 -2,0 -3,0 -2,1 -4,0 -6,-1 -2,-1 -3,-3 -3,-5 0,-1 1,-3 2,-5 2,-1 4,-2 6,-2 4,0 6,0 9,2 2,2 3,5 3,8l2 23c2,-5 3,-9 3,-10l8 -25 4 0c10,19 16,30 17,33l-5 -56 8 0 6 65zm-54 -31c1,0 1,0 2,-1 1,0 1,-1 1,-2 0,0 -1,-1 -1,-1 -1,-1 -2,-1 -2,-1 -1,0 -2,1 -3,1 0,1 0,1 0,2 0,1 0,1 1,2 0,0 1,0 2,0zm36 -20c-2,-3 -7,-4 -13,-4 -3,0 -5,1 -7,2 -1,1 -2,2 -3,3l23 -1zm10 3l-39 3 0 -1c0,-3 1,-6 3,-9 3,-2 7,-4 13,-4 4,0 9,0 13,2 4,2 7,5 10,9zm38 46l-8 0 -3 -30c-1,0 -2,0 -3,0 -2,0 -4,0 -6,-1 -2,-2 -3,-3 -3,-5 0,-2 0,-3 2,-5 2,-1 4,-2 6,-2 3,-1 6,0 8,2 3,2 4,4 4,8l3 27c6,-5 13,-8 19,-11l-3 -28 8 -1 3 28c3,0 6,1 8,3 3,1 4,3 4,5 0,2 0,4 -2,5 -1,2 -3,2 -6,3 -7,0 -11,-3 -12,-10 -6,2 -12,6 -19,12zm-15 -39c0,0 -1,0 -2,1 0,0 -1,1 0,2 0,0 0,1 1,1 0,1 1,1 2,1 1,0 1,-1 2,-1 0,-1 1,-1 1,-2 -1,0 -1,-1 -2,-1 0,-1 -1,-1 -2,-1zm42 25l0 4c0,1 1,2 1,3 1,0 2,0 3,0 1,0 1,0 2,-1 0,0 1,-1 0,-2 0,-1 0,-2 -1,-2 -2,-1 -3,-2 -5,-2z"/>
  <g id="_1763698772384">
   <path class="fil5" d="M5108 516c-2,0 -4,-1 -6,-1l11 0c-2,0 -4,0 -5,1zm69 -9c11,1 22,2 29,2l-26 0c3,1 5,2 7,3l0 0c0,0 0,0 0,0 1,1 2,1 1,1l0 0 0 0 0 0 0 0c-2,0 -8,0 -14,0 -13,0 -28,1 -31,3 -1,1 1,2 5,3 5,1 10,2 15,2 1,0 2,0 2,0l8 0c-1,0 -2,0 -4,-1 17,-1 34,-7 48,-8 6,0 12,0 17,1 11,2 42,15 13,15 -58,0 11,58 31,62 9,2 36,13 54,13l0 0c-2,2 -5,4 -7,5 -1,1 -4,2 -7,2l-21 0c0,-1 -1,-2 -2,-3 -5,-9 -66,-49 -98,-49l-35 0c-5,0 -10,1 -13,3 -3,2 -2,8 -1,15 -3,-4 -6,-9 -9,-13 -11,-20 -4,-29 -31,-42 0,0 -8,-3 -13,-6l-3 0c-1,0 -1,-2 -1,-5 0,-2 0,-3 1,-5 2,-5 7,-6 14,-6l35 0c11,0 25,4 36,8zm-50 -1l13 0c-3,-1 -7,-2 -11,-3 -1,1 -2,2 -2,3zm15 1c-2,1 -4,1 -6,1 0,0 -1,0 -1,1 -3,0 -5,2 -6,4l0 0c0,0 -1,0 -1,1 1,-1 2,-1 3,-1 10,0 20,0 22,0 1,0 1,0 0,0 -1,-1 -5,-3 -11,-6z"/>
  </g>
  <path class="fil2" d="M5155 521c-13,0 -78,-16 -78,-16 -15,7 14,16 14,16 26,13 20,22 31,42 9,15 20,32 47,36 4,0 -9,-33 -3,-38 25,-16 105,35 112,46 7,10 15,21 15,33 0,24 0,6 0,-6 0,-7 -4,-24 9,-24 7,0 36,1 40,-2 9,-4 23,-19 23,-16 0,25 -56,1 -69,-2 -20,-4 -89,-62 -32,-62 29,0 -2,-13 -13,-15 -13,-1 -31,-1 -44,-1 -23,0 -49,13 -76,7 -22,-6 33,-6 40,-6 4,0 -62,-30 -62,-3 0,11 2,0 8,-1 18,-5 54,0 72,0"/>
  <g id="_1763698774240">
   <path class="fil5" d="M4471 752c-1,-4 -4,-9 -7,-15 0,1 0,1 0,2l0 20c1,11 4,20 13,22l0 -27c0,-10 3,-17 8,-21 -4,-1 -9,-1 -14,-2l0 21zm-311 -49l0 31c9,1 19,1 30,5 12,4 26,37 40,50l0 -40c0,-24 15,-48 47,-48 3,0 8,0 12,-1 0,0 0,-1 0,-2l0 -25c-2,-2 -5,-4 -10,-4 -14,0 -34,3 -48,3 -16,2 -16,11 -16,25l0 1c0,7 -34,-17 -50,-5 -2,2 -3,5 -5,10zm-4 31l0 -46c0,-15 4,-37 9,-42 16,-12 50,12 50,5 0,-14 0,-24 16,-26 9,0 21,-1 32,-2 0,0 0,-1 0,-2l0 -46c0,-9 3,-18 8,-28 -7,2 -13,4 -19,6 -35,14 -19,62 -64,74 -16,4 -58,56 -67,73 -1,3 -4,5 -9,8 3,1 6,3 7,5 12,16 24,20 37,21zm135 -85l0 8c2,1 6,1 13,-1 5,-2 10,-3 14,-4 -9,0 -19,-1 -27,-3zm85 88c-41,5 -79,10 -99,10 -21,0 -35,11 -42,25 6,11 16,19 30,19 10,0 13,1 13,2l0 46c0,3 -26,8 -42,1 -16,-7 -32,-50 -46,-55 -28,-9 -48,5 -71,-26 -11,-14 -73,-4 -75,-16l0 -47c0,-5 70,-28 77,-43 9,-16 51,-68 67,-73 45,-12 29,-59 64,-74 35,-14 76,-5 76,-3l0 47c0,0 -1,1 -3,1 -17,0 -42,20 -54,43 23,19 90,7 113,10 24,2 60,48 78,81 24,0 45,3 57,11 20,14 28,21 28,25l0 46c0,6 -16,4 -35,4 -11,0 -20,3 -26,8 3,2 7,2 7,3l0 46c0,0 -3,0 -11,0 -16,0 -18,-13 -18,-29l0 -20c-1,-21 -7,-41 -43,-41 -6,0 -34,2 -45,-1zm-36 -86c16,6 17,25 33,38 1,1 2,1 3,1 18,-2 37,-4 54,-5 -15,-18 -32,-34 -46,-35 -9,-1 -26,1 -44,1z"/>
  </g>
  <path class="fil2" d="M4471 729c-9,-29 -57,-100 -87,-102 -25,-2 -105,12 -119,-17 -13,-30 32,-83 60,-83 16,0 -32,-14 -73,3 -35,14 -19,61 -64,73 -16,5 -58,57 -67,74 -7,14 -77,38 -77,42 2,12 64,3 75,17 23,31 43,17 71,26 14,5 30,47 46,55 22,9 64,-3 29,-3 -48,0 -50,-90 12,-90 48,0 201,-33 242,-5 48,34 25,29 -7,29 -27,0 -41,14 -32,47 2,12 25,10 2,10 -43,0 16,-90 -61,-90 -7,0 -41,2 -48,-3 -23,-19 -14,-52 -69,-33 -34,12 5,-33 -25,-33 -14,0 -34,2 -48,2 -16,3 -16,12 -16,26 0,7 -34,-16 -50,-4 -7,7 -14,54 -5,56"/>
  <g id="_1763698772992">
   <path class="fil5" d="M3809 378c2,3 6,5 12,7l0 -6c0,-1 1,2 3,7 14,5 32,9 41,14 44,28 55,40 109,50 62,9 55,56 92,71 5,1 73,27 73,40l0 46c0,5 -8,8 -29,8 -63,0 -144,7 -207,16 -20,3 -60,43 -75,62 -17,21 -22,21 -22,12l0 -46c0,-7 3,-19 6,-31 -22,-29 -99,-20 -124,-4 -21,12 -82,116 -82,133 0,19 0,19 0,11l0 -46c0,-12 1,-40 4,-47 4,-11 27,-49 41,-81 -19,0 -53,6 -53,3l0 -47c0,-1 6,-4 23,-10 30,-10 61,0 91,-19 22,-15 46,-43 72,-43 28,0 45,0 55,-3 -2,-6 -5,-12 -8,-19 -4,-11 -7,-19 -9,-24 -6,-2 -11,-5 -13,-7l0 -47zm39 76c0,7 2,43 17,38 8,-2 16,-21 25,-29 -7,-5 -16,-10 -25,-17 -5,-2 -12,-5 -20,-7 1,6 3,12 3,15zm63 22c1,1 1,3 2,4 8,28 13,16 18,5 -7,-2 -13,-5 -20,-9zm158 93l0 0 1 0 -1 0zm-18 1c-15,-16 -34,-34 -46,-36 -13,-2 -37,19 -59,-9 -15,-19 -19,49 -33,2 -17,-52 -34,7 -48,12 -15,5 -17,-31 -17,-38 0,0 0,-1 0,-1l0 9c0,17 -18,16 -64,16 -26,0 -50,28 -72,42 -1,1 -2,1 -2,2 40,-12 109,-10 109,32l0 47c0,2 -1,6 -3,11 3,-2 7,-7 12,-13 15,-19 55,-59 75,-61 45,-7 98,-13 148,-15zm-386 10l0 22c0,0 0,1 0,1 9,-12 17,-22 23,-25 0,-1 0,-1 0,-1 -8,2 -16,3 -23,3z"/>
  </g>
  <path class="fil2" d="M3809 402c6,7 43,14 56,21 44,29 55,40 109,50 62,9 55,57 92,71 7,2 127,47 44,47 -63,0 -144,8 -207,17 -20,2 -60,43 -75,62 -43,54 -9,-31 -9,-45 0,-53 -102,-43 -131,-24 -21,12 -82,116 -82,133 0,47 -1,-24 4,-36 7,-19 68,-118 52,-126 -17,-7 -105,15 -41,-9 30,-10 61,0 91,-19 22,-14 46,-43 71,-43 74,0 76,3 48,-68 -31,-81 15,21 17,45 0,7 2,42 17,38 14,-5 31,-64 48,-12 14,47 18,-22 33,-3 22,29 46,7 59,10 18,2 52,42 64,54"/>
  <g id="_1763698771392">
   <path class="fil5" d="M3730 401l0 18c0,3 -1,7 -1,10l0 -19c0,-3 -1,-5 -2,-8 -30,14 -72,-23 -105,-23 -71,0 -92,50 -160,50 0,0 -1,0 -1,0l0 -47c0,0 18,-5 24,-14 -28,-42 -141,-27 -141,55 0,44 -32,65 -53,75 -3,5 -8,8 -15,8 -1,0 -2,0 -2,0l0 -47c0,0 8,-2 17,-7 2,-3 3,-7 4,-11 -13,-61 -123,-9 -123,-12l0 -46c3,-15 21,-27 36,-30 0,0 80,-18 82,-30 9,-44 15,-53 54,-80 18,-11 59,-50 89,-50 24,0 48,2 59,-17 -15,-31 -53,-73 -53,-75l0 -47c0,0 0,0 0,0 17,-3 50,12 62,21 20,14 61,92 72,100 38,-15 44,-3 50,10 11,5 21,12 28,20 24,5 95,76 95,121l0 46c0,7 -1,13 -5,19 -4,4 -7,7 -11,10zm-59 -139c6,36 46,58 56,93 5,-2 9,-5 13,-10 -14,-31 -46,-66 -69,-83zm-20 -10c-1,0 -1,0 -2,0 -18,0 -22,-11 -26,-20 -14,-7 -31,-10 -48,-10 -1,0 -1,0 -2,-1 0,1 -1,1 -1,1 -12,3 -89,44 -98,35l0 -21c-12,4 -26,4 -41,4 -30,0 -71,38 -89,50 -39,27 -45,36 -54,80 0,2 -2,3 -5,5 7,7 11,17 11,31l0 1c0,4 1,9 1,14l0 28c20,-11 47,-33 47,-72 0,-95 147,-101 147,-34l0 36c47,-11 71,-47 131,-47 24,0 52,19 76,25 -14,-18 -28,-35 -28,-58 0,-19 -7,-35 -19,-47zm-154 -44c15,-6 35,-15 51,-22 -16,-26 -36,-57 -47,-65 -4,-3 -11,-7 -20,-11 10,15 17,29 17,39l0 46c0,5 0,9 -1,13z"/>
  </g>
  <path class="fil2" d="M3729 406c9,-56 -59,-80 -59,-130 0,-48 -45,-77 -95,-77 -9,0 -53,-86 -74,-101 -12,-9 -45,-24 -62,-21 -3,0 59,65 59,95 0,47 -33,44 -65,44 -30,0 -71,39 -89,51 -39,26 -45,35 -54,80 -2,12 -82,29 -82,29 -15,3 -33,15 -36,30 0,3 124,-56 124,24 0,23 3,53 -20,53 -12,0 68,-15 68,-83 0,-104 178,-101 142,-12 -3,12 -30,18 -24,18 68,0 89,-50 160,-50 39,0 89,50 119,11 29,-41 -68,-139 -92,-139 -42,0 -9,-56 -77,-29 -12,3 -89,44 -98,35"/>
  <g id="_1763698768256">
   <path class="fil5" d="M2988 300c7,11 8,25 8,40l0 46c0,1 0,1 0,2 0,2 1,4 1,6 1,3 1,5 1,7l0 29c2,-2 4,-4 6,-5 -1,-9 -1,-17 -1,-25l0 -47c0,-98 18,-12 18,36l0 46c0,5 -1,9 -2,14 21,56 65,97 141,97 21,0 37,-15 45,-32 -3,-4 -7,-6 -12,-8 -1,0 -1,0 -1,0l0 -46c0,0 0,0 1,0l0 0c5,0 42,0 44,6 36,74 24,136 142,136 22,0 121,107 121,144l0 46c0,3 -1,6 -2,8 -15,23 -125,-33 -157,-33 -62,0 -98,15 -154,36 -36,14 -66,23 -66,19l0 -47c0,-3 14,-11 48,-28 1,0 2,-1 2,-1 -19,-13 -48,-23 -52,-26 -41,-31 -86,-103 -98,-160 -3,-3 -6,-5 -9,-6 -24,-19 -33,-36 -33,-47l0 -22c-28,10 -65,7 -83,-11 -10,-10 -16,-45 -16,-50l0 -46c0,-2 2,2 5,19 7,45 95,52 110,16l0 -41c0,0 0,-1 0,-2 -1,-8 -3,-16 -7,-24l0 -46zm26 209c-5,-14 -13,-19 -21,-19 5,5 11,11 19,17 1,1 1,1 2,2zm7 4c3,2 6,3 9,5 -5,-8 -9,-16 -12,-25 1,6 1,13 3,20zm155 76c6,-1 15,-3 26,-8 4,0 51,19 79,33 -19,-25 -25,-62 -44,-102 -1,-3 -14,-4 -25,-5l0 27c0,21 -14,47 -36,55zm248 92l0 30c-15,-3 -24,-24 -59,-24 -24,0 -51,3 -63,-15 -3,-6 -94,-44 -100,-44 -60,23 -42,-6 -77,-15 -19,-4 -54,-23 -83,-40 20,41 49,80 77,100 6,5 72,26 72,51l0 30c54,-20 89,-34 150,-34 28,0 113,42 146,39 -15,-25 -41,-56 -63,-78zm-414 -262c4,-5 7,-11 9,-17 -4,-36 -13,-69 -15,-29 1,16 3,31 6,46z"/>
  </g>
  <path class="fil2" d="M2988 323c15,27 3,65 9,95 9,56 -104,53 -112,3 -9,-54 -3,15 11,29 33,33 125,18 125,-38 0,-48 -18,-133 -18,-36 0,98 42,193 157,193 48,0 71,-77 33,-86 -6,0 41,0 44,6 36,74 24,136 142,136 24,0 137,125 119,151 -15,24 -125,-32 -157,-32 -62,0 -98,14 -154,35 -59,24 -104,33 -18,-9 68,-32 -41,-68 -50,-74 -48,-35 -101,-127 -101,-186 0,-77 -83,-39 -6,20 27,18 86,54 113,60 35,9 17,38 77,14 6,0 97,39 100,45 12,18 39,15 63,15 35,0 44,20 59,23"/>
  <g id="_1763698769312">
   <path class="fil5" d="M3062 822c-13,-14 -27,-25 -42,-30 -6,-2 -12,-3 -17,-4 19,13 20,32 59,34zm-236 64l0 1c0,0 0,0 0,0l0 -25c-24,7 -53,14 -62,21 -26,16 -71,33 -71,71 0,14 -9,20 -22,25 3,4 4,11 4,19l0 46c0,2 0,4 0,5 10,0 28,-69 28,-71 21,-43 92,-50 132,-50 29,0 109,-14 109,26l0 42c21,-8 39,-24 50,-42 16,-26 94,-38 141,-41 -21,-13 -39,-45 -67,-45 -67,0 -36,-45 -116,-45 -33,0 -120,56 -126,63zm100 -103c-7,-4 -14,-9 -22,-17 -9,-9 -28,-16 -47,-20 4,7 5,16 5,31l0 0 0 38c19,-12 44,-25 64,-32zm258 94c11,5 17,12 17,18l0 47c0,9 -12,16 -43,16 -38,0 -145,12 -164,43 -16,26 -50,50 -83,47 -18,-1 -25,-3 -25,-6l0 -47c0,-4 20,-10 37,-19 -26,-7 -69,-1 -88,-1 -40,0 -111,7 -132,50 0,2 -19,73 -29,71 -2,-1 -3,-4 -3,-8l0 -47c0,-4 1,-8 1,-13 -2,-5 -6,-8 -12,-8 -24,0 -57,28 -66,47 -2,4 -3,6 -3,6l0 -47c0,-2 25,-61 31,-69 21,-29 71,-17 71,-50 0,-38 45,-55 71,-71 16,-11 88,-25 97,-32 -3,-18 -12,-23 -44,-49 -4,-4 -6,-6 -6,-8l0 -47c0,-12 73,-1 93,20 40,40 67,9 116,26 45,14 79,85 105,92 28,10 38,7 59,33l0 6z"/>
  </g>
  <path class="fil2" d="M3184 895c-21,-26 -31,-24 -59,-33 -26,-8 -60,-79 -105,-93 -49,-16 -76,14 -116,-26 -24,-24 -116,-35 -87,-12 49,41 45,31 45,95 0,7 -81,21 -98,33 -26,17 -71,33 -71,71 0,33 -50,22 -71,50 -7,10 -40,90 -28,64 9,-19 42,-47 66,-47 31,0 2,73 14,76 10,2 29,-69 29,-72 21,-42 92,-49 132,-49 29,0 109,-15 109,26 0,28 -104,40 -33,47 33,2 67,-21 83,-47 19,-31 126,-43 164,-43 71,0 45,-40 -5,-40 -31,0 -50,-50 -85,-50 -67,0 -36,-45 -116,-45 -36,0 -133,64 -126,64"/>
  <g id="_1763698767936">
   <path class="fil5" d="M3751 928c-5,-3 -11,-6 -16,-7 -48,-12 -98,27 -107,-41 -5,-30 -51,-65 -65,-54l0 41c0,3 0,5 0,8 22,3 43,11 65,26 12,9 24,27 45,24 30,-6 55,-4 78,3zm-268 -39c-65,7 -138,57 -157,115 -3,8 -10,13 -19,16 6,6 10,15 10,26 0,83 9,-41 56,-59 51,-21 83,-39 143,-27 29,6 103,33 103,63l0 38c49,-19 76,-65 125,-65 9,0 35,3 61,6 -36,-25 -75,-42 -132,-31 -21,3 -33,-14 -45,-23 -47,-33 -89,-30 -145,-30l0 -29zm384 115l0 46c0,8 -104,-7 -123,-7 -62,0 -89,74 -169,74 -10,0 -14,-1 -14,-3l0 -47c0,-4 23,-13 40,-24 -24,-18 -65,-32 -85,-36 -60,-12 -92,6 -143,27 -47,17 -56,142 -56,59 0,-61 -113,-41 -113,-48l0 -47c0,-2 9,-6 30,-14 24,-9 83,0 92,-27 21,-62 104,-115 172,-115 33,0 54,4 62,-7l0 -45 0 0c0,-33 63,9 68,43 9,68 59,30 107,41 41,9 71,80 118,80l0 39c4,3 8,6 12,9 1,1 2,1 2,2z"/>
  </g>
  <path class="fil2" d="M3853 978c-47,0 -77,-71 -118,-80 -48,-12 -98,26 -107,-42 -6,-35 -74,-80 -68,-38 12,59 -9,47 -62,47 -68,0 -151,53 -172,116 -9,26 -68,17 -92,26 -101,39 83,-14 83,63 0,83 9,-42 56,-60 51,-20 83,-38 143,-26 29,6 103,32 103,62 0,24 -92,47 -44,47 80,0 107,-74 169,-74 20,0 136,18 121,6 -59,-44 -103,-95 -192,-77 -21,3 -33,-15 -45,-24 -47,-32 -89,-29 -145,-29"/>
  <g id="_1763698766304">
   <path class="fil5" d="M4870 770c-1,12 -3,24 -4,35 3,11 11,19 26,23 22,-5 46,-9 54,-14 2,-2 4,-3 4,-3l0 47c0,0 -1,0 -1,1 -1,0 -2,1 -3,2 -6,5 -20,16 -34,16 -8,0 -14,-1 -20,-2 -25,5 -48,11 -48,19 0,24 -188,66 -209,66 -23,0 -48,10 -65,23 12,4 29,7 55,7 16,0 22,1 22,3l0 47c0,5 -40,14 -59,14 -62,0 -31,-59 -120,-59 -21,0 -57,0 -78,0 -21,0 -58,6 -68,6 -21,0 -21,18 -32,18 -7,0 -10,-1 -10,-3l0 -47c0,-9 63,-35 63,-44 0,-12 36,-18 36,-24 0,-65 120,-41 152,-77 10,-12 68,-89 89,-89 18,0 23,5 23,12l0 47c0,2 0,3 -1,5 2,5 5,9 9,13 31,36 89,42 151,42 53,0 42,-137 79,-137l0 47c-4,0 -8,2 -11,5l0 1zm-232 56l0 -41c-4,-2 -9,-3 -18,-3 -21,0 -79,77 -89,89 -32,35 -152,12 -152,77 0,0 0,0 0,1 4,0 7,-1 11,-1 21,0 57,0 78,0 63,0 66,30 84,47l0 -32c0,-22 45,-50 83,-50 9,0 48,-8 90,-18 -30,-5 -56,-16 -74,-36 -10,-12 -13,-23 -13,-33zm204 27c1,-2 2,-4 2,-5 0,-5 8,-9 19,-13 0,-1 0,-1 0,-2l0 -47c0,-2 0,-5 0,-8 -8,18 -13,48 -21,75z"/>
  </g>
  <path class="fil2" d="M4870 747c-5,53 -26,106 42,106 21,0 42,-23 37,-17 -11,11 -105,17 -105,35 0,24 -188,65 -209,65 -62,0 -146,77 -10,77 57,0 -11,18 -37,18 -62,0 -31,-59 -120,-59 -21,0 -57,0 -78,0 -21,0 -58,6 -68,6 -21,0 -21,18 -32,18 -41,0 53,-36 53,-48 0,-12 36,-18 36,-24 0,-65 120,-41 152,-77 10,-11 68,-89 89,-89 52,0 -6,36 31,78 31,35 89,41 151,41 53,0 42,-136 79,-136"/>
  <g id="_1763698765952">
   <path class="fil5" d="M3757 733c12,32 56,18 85,18 53,0 88,70 170,53 16,-4 60,-7 76,-4 8,3 11,6 11,11l0 42c0,5 -3,11 -5,18 8,44 28,88 73,88 15,0 44,-4 56,7 2,2 9,12 15,22 6,1 9,4 11,6 1,3 1,5 1,6l0 42c0,3 -5,-4 -12,-13 -22,-7 -75,-5 -75,21 0,4 0,9 0,15 2,2 7,3 11,3 1,0 1,0 2,0 7,0 10,0 10,1l0 41c0,0 -6,1 -12,0 -45,-1 -33,-29 -48,-60 -16,-32 -89,-109 -123,-116 -28,-6 -70,-1 -85,27 3,5 7,9 7,11l0 42c0,0 0,1 -1,1 -48,0 -35,-141 -82,-141 -29,0 -41,-36 -51,-53 -9,-15 -12,-22 -12,-25l0 -2c-10,-3 -18,-8 -22,-19l0 -42zm50 62l0 8c-1,0 -2,0 -3,0 8,15 20,29 38,29 42,0 36,114 69,137l0 -24c0,-50 57,-60 92,-53 34,7 107,85 123,116 13,28 6,53 34,59l0 -6c0,-10 3,-39 3,-53 0,-3 1,-5 2,-7 -49,-1 -68,-57 -74,-106 0,-2 0,-4 0,-5l0 -42 0 0c0,-2 0,-3 0,-5 -1,-1 -2,-1 -3,-1 -16,-4 -60,0 -76,3 -82,18 -117,-53 -170,-53 -10,0 -23,2 -35,3z"/>
  </g>
  <path class="fil2" d="M3757 754c12,32 56,18 85,18 53,0 88,70 170,53 16,-4 60,-8 76,-4 25,7 0,25 3,53 6,49 25,106 76,106 15,0 44,-4 56,7 4,3 35,53 26,28 -7,-14 -86,-18 -86,14 0,14 -3,42 -3,53 0,11 44,7 16,7 -47,0 -35,-28 -50,-60 -16,-32 -89,-109 -123,-116 -35,-7 -92,3 -92,53 0,14 19,28 13,28 -48,0 -35,-141 -82,-141 -29,0 -41,-36 -51,-53 -28,-46 -3,-18 16,-18"/>
  <g id="_1763698764960">
   <path class="fil4" d="M3339 2693c15,-11 50,-29 74,-35 5,-1 9,-2 13,-3 1,-8 3,-18 13,-19 6,-1 17,-2 29,-3l0 0c-15,0 88,-31 116,-34 7,-1 14,-2 21,-2l11 0c37,-4 63,-11 2,-32l-56 0c-1,0 -2,0 -2,0 -9,-5 46,-14 52,-14l61 0c41,0 74,17 107,27 68,20 129,11 208,34 35,10 35,22 73,25 80,10 59,17 19,20 0,1 0,1 0,1l-13 0c-22,2 -46,3 -61,3 -79,0 -75,10 -140,26 -6,1 -43,9 -61,9l-61 0c-4,0 -8,-1 -9,-2 0,0 42,-15 48,-20 19,-12 -6,-21 -36,-26 -1,0 -1,0 -2,0l-60 0c-13,0 -43,-6 -69,-10 -22,4 -42,8 -51,9 -3,0 -6,0 -9,0l-32 0c3,2 4,5 4,11 0,10 2,11 8,17 3,1 5,1 8,2 21,10 24,15 20,15l-61 0c-4,0 -16,-5 -24,-13 -1,-2 -3,-3 -3,-4 -1,0 -1,0 -2,0 -11,1 -21,2 -25,2l-22 0c-11,5 -21,11 -28,16l-60 0zm680 -36c-1,-2 -3,-3 -4,-4 -20,3 -43,7 -68,7l-60 0c-13,0 -26,-1 -40,-4 -4,-1 -8,-1 -13,-2 15,5 22,12 10,20 -2,1 -8,4 -14,6 41,-11 48,-19 115,-19 19,0 50,-1 74,-4zm-101 1c32,-4 58,-10 77,-10l59 0c-4,-3 -20,-7 -54,-11 -37,-3 -37,-15 -72,-25 -79,-23 -140,-14 -208,-34 -23,-7 -47,-18 -73,-23 -11,2 -23,5 -26,7l35 0c7,0 14,1 21,3 66,22 34,28 -5,32 30,4 -26,16 -34,16 -43,3 -38,5 -55,11l1 0c0,0 0,0 -1,0 -1,1 -3,2 -6,3 -7,4 -8,6 -7,7 3,0 5,0 7,0 26,-5 51,-10 56,-10l0 0 61 0c0,0 1,0 1,0 17,16 168,25 212,32 4,1 8,1 11,2zm-167 -13c-39,-4 -77,-8 -100,-14 -4,1 -9,2 -14,3l3 0c17,0 54,7 80,11l31 0zm-189 -8l-3 0c0,0 -1,0 -1,0l4 0zm-62 -1l0 0c-7,1 -10,5 -12,10l2 0c-2,-2 3,-6 10,-10zm-30 33c-7,2 -12,3 -16,4l20 0c-2,-1 -3,-2 -4,-4z"/>
  </g>
  <path class="fil2" d="M3369 2693c15,-11 50,-29 74,-35 33,-8 55,-23 55,0 0,11 2,11 11,21 15,16 48,19 4,-2 -28,-13 -160,12 -61,-10 7,-1 0,-29 18,-31 15,-2 63,-6 74,-10 29,-8 15,-10 64,-13 8,0 65,-13 32,-16 -32,-4 -85,26 -131,34 -53,10 74,-29 105,-32 46,-3 114,-7 33,-34 -24,-7 -53,2 -57,0 -9,-5 46,-14 53,-14 41,0 74,17 107,27 68,20 129,11 208,34 35,10 35,22 72,25 130,16 -4,24 -54,24 -79,0 -75,10 -141,26 -6,1 -63,13 -70,7 0,0 42,-15 48,-20 33,-20 -70,-34 -94,-26 -11,3 -83,-14 -109,-14 -13,0 -101,10 -59,-9 22,-9 -66,28 -16,22 22,-3 127,-25 130,-23 17,16 168,25 212,32 85,15 156,-27 173,2"/>
  <g id="_1763698764416">
   <path class="fil4" d="M4579 2802c-11,-1 -21,-2 -31,-3 -5,0 -9,0 -14,0 -9,0 -17,1 -20,4 1,4 -2,9 -7,13 -21,31 -78,43 -145,43l-75 0c-13,0 -26,0 -40,-1 -27,1 -53,1 -76,1l-75 0c-17,0 -32,0 -45,-1 -30,5 -67,11 -92,11l-75 0c-4,0 -8,0 -11,-1 -42,13 -82,24 -111,33l30 0c22,-28 234,-31 279,-31 9,0 36,0 64,0l75 0c43,0 91,1 91,6 0,15 -111,22 -128,24 -4,0 8,1 29,1 48,-1 100,-3 122,-10 68,-21 141,-34 204,-50 63,-17 91,-32 51,-39zm-360 53c-17,-2 -33,-4 -50,-7 -1,0 -3,0 -5,0 -42,1 -91,4 -127,7l50 0c3,0 6,0 8,1 8,1 22,2 41,3 26,-1 54,-2 83,-4zm46 -3c76,-7 145,-19 167,-36 3,-4 5,-8 6,-12 0,0 1,-1 2,-1 -1,-5 -4,-10 -10,-15l54 0c-36,-7 -70,-16 -110,-19 -34,3 -66,7 -100,7l-75 0c-57,0 117,-4 19,-11 -67,-6 -140,-18 -210,-23 26,5 98,17 92,52 0,7 -90,34 -184,62l28 0c3,0 6,0 10,0 49,-4 131,-9 181,-9l75 0c15,0 27,0 34,1 7,2 14,3 21,4zm245 -59c1,2 2,3 3,5l27 0c-11,-1 -20,-3 -30,-5zm-127 54c-29,4 -59,6 -89,8 10,1 19,2 29,3 22,-2 42,-5 60,-11zm-407 12l-49 0c-1,1 2,3 7,6 14,-2 29,-5 42,-6zm263 42l-75 0c-42,0 -72,-1 -65,-1 16,-2 127,-9 127,-24 0,-4 -26,-5 -58,-6 -10,0 -18,0 -22,0 -54,0 -339,5 -271,49 14,9 18,12 15,12l-74 0c-4,0 -26,-9 -47,-18 -11,7 -19,15 -33,20 -11,4 -19,5 -25,5l-75 0c-19,0 -13,-15 12,-24 51,-20 377,-107 377,-120 8,-53 -160,-54 -78,-54l74 0c87,0 185,17 272,25 15,1 24,2 28,3 5,0 11,0 17,0l74 0c80,0 136,22 211,31 13,1 23,2 31,3 10,0 20,1 30,1l-25 0c32,7 4,22 -56,38 -63,16 -136,29 -204,50 -28,8 -104,10 -160,10z"/>
  </g>
  <path class="fil2" d="M4647 2803c-109,0 -171,-35 -272,-35 -49,0 -92,8 -138,8 -57,0 116,-4 19,-11 -87,-8 -185,-25 -272,-25 -82,0 87,1 79,54 0,13 -326,100 -378,120 -32,12 -32,34 14,19 24,-8 30,-27 68,-32 19,-1 127,54 70,18 -68,-44 218,-49 272,-49 22,0 155,-3 155,6 0,15 -112,22 -128,24 -16,1 177,6 225,-9 68,-21 142,-34 204,-50 84,-22 106,-43 -11,-43 -19,0 -76,-3 -78,6 -22,59 -150,65 -269,44 -38,-6 -204,6 -247,11 -11,0 -101,-11 -60,7 27,12 130,-15 157,-10 63,11 489,-3 410,-68"/>
  <g id="_1763698762880">
   <path class="fil4" d="M3365 2831c7,0 15,1 25,2 -1,-2 -1,-4 -1,-6 -9,2 -18,3 -28,4l4 0zm171 185c9,-2 14,-6 15,-11 10,-33 -114,-102 -152,-102l75 0c14,0 40,9 67,23 -15,-14 -43,-29 -76,-44l-12 0c0,0 -2,-2 -4,-7 -13,-5 -26,-10 -38,-15l-43 0c-9,0 -20,-3 -35,-9 -9,-3 -75,-7 -141,-8 -39,1 -67,3 -65,8 10,29 138,34 190,47 29,7 67,71 86,87 10,8 76,24 133,31zm61 2c-5,0 -10,1 -16,1l-75 0c-50,0 -127,-15 -161,-27 -26,5 -65,9 -80,11 -33,2 104,8 109,8 62,0 76,20 119,20 76,0 143,37 213,49 14,-10 -94,-47 -102,-54 -1,-1 -4,-4 -7,-8zm-321 -95c-12,-13 -23,-23 -34,-25 -52,-13 -180,-18 -190,-47 -2,-6 45,-9 100,-9l75 0c50,0 106,2 143,5 -20,-6 -39,-11 -55,-14 -11,1 -24,1 -36,1l-75 0c-135,0 -310,-20 -390,-37 3,5 4,9 4,13 0,34 -204,16 -100,39 26,5 58,7 91,8 20,0 40,-1 58,-1l75 0c58,0 226,31 334,67zm105 -122c-3,-8 -6,-13 -6,-14 1,-3 4,-4 8,-5 -2,-5 -5,-10 -11,-16 -3,-1 -7,-2 -11,-2 -21,-2 -17,-8 -8,-8l75 0c5,0 12,2 18,8 0,0 0,1 1,2 12,3 19,9 23,18 16,4 37,16 37,21 0,8 1,15 2,23 10,15 17,38 19,49 54,22 98,49 98,67 0,7 48,79 52,82 10,8 138,51 95,56 -8,2 -17,2 -25,2l-75 0c-85,0 -164,-53 -255,-53 -43,0 -57,-20 -119,-20 -4,0 -142,-6 -109,-8 24,-3 105,-10 105,-21 18,-48 -300,-118 -411,-125 -14,0 -28,0 -43,0l-74 0c-45,0 -89,-1 -124,-8 -104,-23 100,-5 100,-39 0,-26 -57,-77 -95,-90 -1,0 -1,0 0,0l75 0c9,0 82,9 90,13 10,5 34,41 34,49 5,15 219,47 393,51 72,-2 128,-11 141,-32z"/>
  </g>
  <path class="fil2" d="M3327 2831c62,0 262,74 262,113 0,7 47,79 52,82 10,8 138,51 95,56 -95,13 -181,-51 -280,-51 -43,0 -57,-20 -119,-20 -5,0 -143,-6 -110,-8 24,-3 105,-10 105,-21 19,-51 -337,-126 -428,-126 -66,0 -161,6 -223,-7 -105,-23 100,-5 100,-39 0,-26 -57,-77 -95,-90 -10,-2 80,8 90,13 9,5 33,41 33,49 10,28 718,110 599,-18 -14,-15 -43,-3 -9,0 42,3 38,38 38,59 0,51 -10,0 9,-10 33,-18 62,126 33,43 -4,-15 -9,-33 -9,-51 0,-8 -52,-33 -57,-18 0,3 52,103 -43,64 -19,-7 -285,-15 -280,0 9,29 137,34 190,47 28,7 66,71 85,87 19,15 214,54 224,20 9,-33 -114,-102 -152,-102"/>
  <g id="_1763698760128">
   <path class="fil4" d="M4749 2995c-9,-2 -18,-4 -26,-6 -44,2 -83,7 -122,11l42 0c9,0 48,1 84,2 17,-1 26,-4 28,-7l-6 0zm32 8l-75 0c-16,0 -44,-1 -72,-1 -50,8 -75,24 -143,24 -47,0 -47,72 -119,72l-74 0c-15,0 -91,-3 -76,-3 23,0 80,-7 85,-23 5,-18 5,-44 -33,-44 -21,0 -53,-1 -87,-1 -36,1 -66,3 -81,9 -24,10 -76,39 -33,54 47,18 33,59 33,59l-75 0c0,-10 -9,-31 -23,-33 -4,-1 -7,-2 -10,-3 -17,5 -32,12 -44,21 -23,16 -39,23 -47,23l-75 0c-14,0 -6,-19 24,-41 11,-8 22,-10 33,-10l44 0c8,-4 13,-15 13,-39 0,-31 62,-62 114,-72 52,-10 114,-67 28,-74 -4,0 -114,-13 -38,-13l75 0c29,0 86,0 114,2 34,3 67,26 105,26 76,0 157,5 233,5 99,0 145,28 214,46 61,1 46,16 -10,16zm-454 90c-12,1 -23,2 -31,2 -6,0 4,1 19,1 4,-1 8,-2 12,-3zm-312 6c-5,7 -12,9 -20,9l-48 0c-3,1 -5,1 -7,2 6,-1 13,-1 19,-1l66 0c-3,-4 -6,-7 -10,-10z"/>
  </g>
  <path class="fil2" d="M4787 2995c-91,-18 -134,-54 -248,-54 -76,0 -156,-5 -233,-5 -38,0 -71,-23 -104,-26 -29,-2 -86,-2 -114,-2 -76,0 33,13 38,13 85,7 24,64 -29,74 -52,10 -114,41 -114,72 0,75 -47,18 -90,49 -48,36 -38,61 24,18 28,-21 71,-34 128,-18 14,2 24,23 24,33 0,0 14,-41 -33,-59 -43,-15 9,-44 33,-54 38,-15 185,-8 242,-8 38,0 38,26 34,44 -5,16 -62,23 -86,23 -14,0 62,3 76,3 71,0 71,-72 119,-72 71,0 95,-18 152,-26 14,0 105,3 138,3 57,0 71,-16 5,-16 -157,0 -257,31 -414,31 -67,0 -181,18 -162,-36 5,-20 76,-25 110,-25 47,0 42,30 0,30"/>
  <g id="_1763698760608">
   <path class="fil4" d="M2817 3049c21,18 20,40 57,45 20,-21 50,-44 59,-44l74 0c5,0 3,6 -9,23 -11,14 -28,20 -49,22 -5,5 -9,11 -12,16 19,7 42,15 56,18 17,4 44,6 76,7 28,-1 57,-2 87,-3 46,-5 86,-14 86,-30 0,-18 -10,-36 -24,-48l75 0c0,0 62,10 71,25 14,20 29,34 46,44 4,0 8,0 12,0l75 0c29,0 106,7 161,20 3,0 6,0 9,0l34 0c10,0 15,3 15,16 0,8 1,13 2,18l74 0c6,0 12,0 19,2 38,13 -233,31 -257,34 -14,0 -104,5 -114,13 -14,13 -71,38 -100,48 -4,2 -33,3 -58,3l-75 0c-31,0 -56,-2 -22,-8 81,-12 100,-66 9,-84 -157,-34 -237,15 -361,-75 -13,-9 -15,-12 -11,-12l49 0c1,-1 1,-2 2,-3l-31 0 -23 0c-57,0 -53,-26 -76,-47l74 0zm772 113c5,0 10,3 13,8l-29 0c-8,8 -10,20 6,25 29,-3 59,-8 62,-17 4,-14 -22,-26 -58,-34 -3,-1 -6,-1 -9,-1 -24,1 -46,2 -67,2l-75 0c-33,0 -62,-3 -89,-16 -36,1 -74,3 -112,4 -44,5 -93,6 -114,6l-75 0c-16,0 -55,0 -92,-2 101,54 181,19 319,49 90,18 71,72 -9,84 -21,4 -20,6 -9,7 7,-1 13,-1 15,-2 28,-10 85,-35 99,-48 10,-8 100,-13 114,-13 20,-2 200,-14 249,-26l-31 0c-28,8 -78,10 -95,10l-75 0c-57,0 -32,-36 -12,-36l74 0zm-143 -37c-11,0 -22,0 -33,1 19,11 40,16 63,18 20,-1 41,-2 64,-2l37 0c-43,-9 -97,-15 -131,-17zm-343 11l-75 0c-16,0 -31,0 -44,-1 27,2 62,3 90,4 16,-1 35,-2 54,-3 -8,0 -17,0 -25,0zm158 -7c27,-1 53,-2 77,-3 -8,-5 -16,-10 -23,-17 -7,9 -27,15 -54,20z"/>
  </g>
  <path class="fil2" d="M2780 3049c24,21 19,47 76,47 48,0 86,2 105,-23 52,-70 -91,41 -62,56 14,8 147,10 181,10 42,0 199,-5 199,-36 0,-18 -9,-36 -24,-48 0,0 62,10 72,25 71,100 166,52 304,64 33,3 47,-7 47,16 0,59 48,5 96,20 38,13 -233,31 -257,34 -14,0 -105,5 -114,13 -15,13 -72,38 -100,48 -10,3 -143,6 -81,-5 81,-12 100,-66 10,-84 -157,-34 -238,15 -362,-75 -47,-33 48,10 86,18 81,18 375,-5 504,-5 47,0 228,18 218,54 -4,15 -90,20 -114,20 -71,0 -14,-56 0,-28"/>
  <g id="_1763698758240">
   <path class="fil4" d="M4649 2993c53,0 114,-3 162,-3l29 0c28,-11 64,-25 76,-25l38 0c-9,-12 -19,-22 -38,-26 -27,-6 -36,-9 -35,-9l75 0c6,0 182,36 201,42 9,2 42,6 83,10 29,-1 56,-3 80,-5 9,-1 18,-1 26,-1l33 0c-10,-14 -39,-58 -13,-58l74 0c5,0 12,2 21,5 38,16 100,49 119,75 33,43 76,36 138,61 47,21 76,72 123,83 17,2 78,23 39,23l-75 0c-4,0 -9,0 -15,0 -102,-11 -192,-25 -289,-33 -12,2 -22,4 -31,7 -33,14 -140,25 -204,25l-75 0c-48,0 -71,-6 -18,-23 4,-3 11,-8 23,-15 76,-41 19,-64 -86,-74 -83,-7 -146,-36 -234,-41 -3,0 -6,0 -8,0l-75 0c-15,0 0,-2 27,-13 6,-2 12,-5 19,-7 -38,0 -79,2 -115,2l-75 0zm500 -10c-38,0 -76,-1 -107,-1 16,21 39,41 110,41 66,0 162,36 162,75 0,18 -19,31 -48,38 -7,2 -13,4 -18,5 -1,2 -2,4 -2,5 50,-8 107,-20 107,-20l75 0c45,0 87,2 128,5 6,0 13,0 19,0 24,-1 43,-5 54,-13 47,-33 14,-61 -58,-77 -54,-11 -95,-38 -146,-54 -11,1 -24,2 -38,2l-75 0c-39,0 -89,-3 -133,-6l-30 0zm-107 -1l72 0c19,0 41,0 63,1 -46,-4 -85,-8 -95,-11 -6,-2 -29,-7 -58,-13 6,7 11,15 18,23zm211 1c29,2 62,4 92,5 21,-1 34,-4 36,-8 0,0 0,-1 -1,-2 -38,3 -82,4 -127,5zm202 -5c14,2 27,4 39,8 -14,-13 -36,-27 -58,-39 6,13 16,26 19,31zm257 133c-2,3 -5,5 -9,7 -15,12 -46,14 -82,14l-51 0c83,7 161,18 246,27 -8,-6 -38,-16 -50,-17 -20,-5 -37,-17 -54,-31zm-232 20c-20,-2 -39,-3 -59,-4 -25,6 -116,24 -156,24l-43 0c-10,6 -4,10 13,12 61,-4 134,-13 161,-24 16,-7 43,-8 72,-8l12 0zm-283 -78c-34,-18 -81,-30 -120,-30 -65,0 -90,-17 -106,-36 -6,2 -13,3 -19,3l-37 0 0 0 0 0c-7,3 -14,5 -20,8 -19,8 -33,11 -33,13l67 0c99,0 166,33 256,41 4,0 8,0 12,1z"/>
  </g>
  <path class="fil2" d="M4687 2993c52,0 114,-3 161,-3l67 0c19,0 43,-10 43,-23 0,-10 -67,18 -100,31 -43,18 -57,13 33,13 100,0 166,33 257,41 104,10 161,33 85,74 -104,57 157,0 157,0 162,0 285,23 438,39 66,5 -5,-21 -24,-23 -48,-11 -76,-62 -124,-83 -62,-25 -104,-18 -138,-61 -19,-26 -80,-59 -119,-75 -66,-25 -4,57 -4,57 -10,20 -271,0 -300,-8 -23,-8 -294,-62 -166,-33 62,12 28,84 162,84 66,0 161,36 161,75 0,18 -19,31 -47,38 -167,44 142,29 204,3 52,-21 195,8 233,-21 47,-33 14,-61 -57,-77 -86,-18 -138,-74 -252,-64 -81,8 -200,5 -280,5"/>
  <g id="_1763698758912">
   <path class="fil4" d="M4325 3139c6,0 12,0 18,0 -29,-26 -82,-36 -107,-57l75 0c25,21 79,31 108,58 59,1 118,3 177,4 37,-2 90,-7 106,-20 5,-7 9,-30 6,-44 -9,-6 -16,-10 -16,-10 3,-2 5,-2 6,-2l75 0c6,0 9,5 10,12 17,10 41,27 41,33 38,108 261,80 333,159 23,29 104,39 -24,39l-75 0c-64,0 -149,-8 -221,-10 -1,0 -2,0 -4,0 -13,0 -83,7 -127,11 -3,1 -7,1 -10,2 -19,1 -26,2 -27,2l-75 0c0,0 15,-1 37,-4 127,-18 -65,-109 -153,-109 -52,0 -104,-26 -123,-51 -3,-4 -7,-8 -11,-12 -31,-1 -62,-1 -94,-1l75 0zm228 64c77,0 233,69 187,99 9,-1 15,-1 19,-1 11,-1 24,-1 37,-1l75 0c68,0 156,8 228,10 67,-2 3,-13 -17,-38 -67,-74 -268,-54 -324,-140 -29,9 -79,12 -105,12l-75 0c-52,0 -105,-1 -157,-2 3,3 6,6 8,10 19,25 72,51 124,51z"/>
  </g>
  <path class="fil2" d="M4287 3139c110,0 219,5 328,5 34,0 105,-5 124,-20 10,-11 14,-67 -9,-54 0,0 57,33 57,43 38,108 261,80 332,159 24,29 105,39 -23,39 -91,0 -219,-15 -300,-10 -24,0 -238,23 -138,13 148,-16 -52,-111 -142,-111 -53,0 -105,-26 -124,-51 -24,-36 -90,-46 -119,-70"/>
  <g id="_1763698759072">
   <path class="fil4" d="M4122 3218c-3,0 -6,-1 -8,-1l14 0c-3,0 -5,0 -6,1zm79 -8c14,0 26,1 35,1l-31 0c4,1 6,2 8,3l0 0c0,0 1,0 1,0 1,1 2,1 1,1l0 0 0 0 0 0 0 0c-3,0 -9,0 -17,0 -15,1 -33,1 -35,3 -1,1 0,2 5,3 6,1 12,1 17,1 1,0 2,0 3,0l9 0c-1,0 -2,0 -4,0 20,-1 39,-6 56,-8 7,0 13,1 19,1 13,2 49,14 16,14 -68,0 13,54 36,58 10,2 42,12 63,12l0 0c-3,2 -6,4 -8,5 -2,0 -5,1 -9,1l-24 0c0,-1 -1,-2 -2,-3 -7,-8 -77,-45 -115,-45l-41 0c-6,0 -11,1 -15,3 -3,2 -2,7 -1,14 -4,-4 -7,-8 -10,-12 -13,-19 -5,-27 -36,-40 0,0 -10,-2 -16,-5l-4 0c0,0 -1,-1 -1,-5 0,-1 1,-3 1,-4 3,-4 9,-6 17,-6l41 0c13,0 30,4 41,8zm-58 -1l16 0c-4,-1 -9,-2 -14,-3 -1,1 -2,2 -2,3zm18 1c-3,0 -5,0 -7,1 0,0 -1,0 -1,0 -4,1 -6,3 -8,4l0 0c0,0 0,0 0,1 1,0 2,0 3,0 11,-1 23,-1 26,-1 1,0 1,0 0,0 -1,-1 -6,-3 -13,-5z"/>
  </g>
  <path class="fil2" d="M4177 3222c-16,0 -92,-14 -92,-14 -18,6 16,14 16,14 31,13 24,21 37,40 10,14 23,29 54,33 5,0 -10,-31 -2,-35 28,-15 122,33 130,42 7,10 18,20 18,31 0,23 0,6 0,-5 0,-7 -5,-23 10,-23 8,0 42,2 47,-1 11,-4 26,-18 26,-16 0,24 -65,2 -81,-1 -23,-4 -104,-58 -36,-58 34,0 -3,-12 -16,-14 -15,-1 -36,-1 -52,-1 -26,0 -57,12 -88,7 -26,-6 39,-6 47,-6 5,0 -73,-28 -73,-3 0,10 3,0 10,-1 21,-4 63,0 84,0"/>
  <g id="_1763698756480">
   <path class="fil4" d="M4512 2657c13,17 19,32 43,38 -2,-13 -1,-18 2,-18l69 0c6,0 18,21 12,21l-13 0c0,1 0,3 1,4 7,30 145,51 184,55 4,0 9,1 16,2 0,-2 1,-4 1,-6 0,-2 -1,-4 -2,-6 -4,-7 -11,-15 -16,-19 -3,-3 -7,-6 -12,-9 -1,0 -1,-1 -1,-1l69 0c7,0 97,34 110,37 19,5 100,33 93,33l-44 0c8,2 15,5 23,7 90,14 199,28 257,52 69,28 -24,13 -17,21 6,8 22,12 42,13 37,-2 73,-5 90,-5l68 0c17,0 14,3 -25,16 -30,9 -63,13 -98,13l-69 0c-72,0 -150,-15 -213,-18 -37,1 -70,4 -104,10 -24,4 -52,7 -78,7l-69 0c-27,0 -53,-3 -76,-11 -4,-1 98,-3 107,-26 3,-11 -191,-59 -221,-71 -13,-6 -53,-45 -84,-72 -5,-1 -9,-2 -12,-3 -9,-1 -37,-22 -27,-23l-1 0c-51,0 -57,-18 -74,-41l69 0zm517 187c-11,0 -19,1 -9,10l-69 0c-19,-16 25,-6 28,-14 3,-5 7,-7 12,-7l62 0c-7,-12 -12,-22 -12,-22 -10,-1 -36,-8 -63,-16 -52,-9 -98,-17 -125,-28l-47 0c-10,0 -22,-2 -34,-5 -36,-3 -83,-11 -125,-19 26,24 52,49 63,53 30,12 224,60 221,71 -9,23 -111,25 -107,26 13,5 28,8 43,9 14,-1 29,-3 42,-5 48,-8 95,-11 149,-11l69 0c57,0 130,14 201,18 23,-2 45,-6 65,-12 18,-6 29,-10 33,-12 -22,1 -45,2 -67,2l-69 0c-33,0 -62,-3 -72,-14 -7,-8 86,7 17,-21 -30,-13 -74,-22 -122,-31 3,7 9,20 17,30l31 0c10,0 26,8 8,16 -1,0 -3,1 -4,1 9,3 13,5 9,5l-1 0 -69 0c-4,0 -8,-2 -11,-4l-3 0c-8,0 -14,-4 -20,-9 -16,-5 -33,-9 -41,-11zm-99 -74l22 0c-19,-6 -38,-13 -46,-15 -1,0 -3,0 -5,-1 0,0 0,0 0,1 5,5 15,10 29,15z"/>
  </g>
  <path class="fil2" d="M4477 2657c18,23 23,41 74,41l53 0c8,0 -25,-49 -13,4 7,30 146,51 184,55 21,1 86,24 86,-4 0,-19 -42,-45 -19,-27 7,6 18,20 23,27 33,41 300,51 405,94 68,28 -25,13 -18,21 35,39 305,-18 175,24 -99,32 -240,-6 -334,-6 -55,0 -102,3 -149,11 -49,9 -109,12 -155,-4 -3,-1 99,-3 107,-26 4,-11 -191,-59 -221,-71 -21,-9 -106,-100 -122,-98 -11,1 17,22 26,23 53,12 396,91 252,-2 -12,-8 95,33 109,36 19,5 100,33 93,33 -44,0 -61,-6 -98,-17 -28,-9 116,37 140,40 2,0 25,65 60,51 21,-10 -6,-19 -13,-15 -7,3 4,22 18,21 14,-1 -82,-26 -82,-26 -7,1 -35,-19 -44,-2 -4,8 -48,-2 -28,14"/>
  <g id="_1763698757536">
   <path class="fil4" d="M4347 2666c2,4 2,10 -1,18 0,1 0,1 0,1 -4,-4 -6,-10 1,-19zm-16 25l34 0c8,0 15,-2 16,-7 1,-3 2,-6 2,-9 3,2 4,5 5,8 1,6 21,19 28,26 -28,-4 -63,-9 -70,-9l-35 0c-3,0 -6,1 -9,2 5,-15 -28,-23 -51,-23l-34 0c-4,0 -7,0 -10,1 -4,0 -7,1 -11,2 -6,-1 -20,-6 -24,-10 0,0 1,0 2,0l34 0c25,0 64,-21 70,-35 0,-1 0,-3 1,-5 7,4 13,7 17,10 15,9 32,10 42,16l-19 0c-24,23 -5,33 12,33zm-52 -73l-35 0c-1,0 1,12 -1,19 -5,10 -28,25 -49,31 -13,-5 -24,-15 -25,-15l-35 0 0 0c-1,4 0,16 3,19 3,4 19,9 25,11 8,2 9,18 8,28 0,3 -1,6 -1,9 0,0 0,0 0,0l35 0c0,0 1,-4 1,-9 3,-14 13,-26 31,-30 19,3 37,11 30,23 -4,6 -21,11 -11,11l35 0c2,0 6,0 12,-1 12,-1 23,-8 32,-12 29,5 72,12 82,12l34 0c1,0 2,0 2,-1 5,-2 -28,-22 -29,-30 -4,-14 -28,-20 -46,-22 -9,-8 -29,-9 -46,-19 -10,-7 -39,-22 -52,-24z"/>
  </g>
  <path class="fil2" d="M4356 2661c18,1 46,7 50,22 1,8 34,28 29,30 -5,2 -94,-13 -107,-13 -12,0 -26,13 -44,14 -30,4 -5,-3 -1,-10 11,-19 -37,-27 -58,-24 -27,3 -38,21 -38,40 0,3 5,-33 -8,-37 -6,-2 -21,-7 -25,-11 -3,-3 -4,-15 -3,-19 0,0 21,17 36,19 24,2 67,-20 73,-35 3,-7 0,-19 1,-19 13,2 42,17 52,24 27,16 61,9 51,42 -4,14 -63,8 -28,-26"/>
 </g>
</svg>
