<?xml version="1.0" encoding="UTF-8"?>
<!DOCTYPE svg PUBLIC "-//W3C//DTD SVG 1.1//EN" "http://www.w3.org/Graphics/SVG/1.1/DTD/svg11.dtd">
<!-- Creator: CorelDRAW X7 -->
<svg xmlns="http://www.w3.org/2000/svg" xml:space="preserve" width="576px" height="360px" version="1.1" style="shape-rendering:geometricPrecision; text-rendering:geometricPrecision; image-rendering:optimizeQuality; fill-rule:evenodd; clip-rule:evenodd"
viewBox="0 0 578 360"
 xmlns:xlink="http://www.w3.org/1999/xlink">
 <defs>
  <style type="text/css">
   <![CDATA[
    .str1 {stroke:#000066;stroke-width:8.01526}
    .str4 {stroke:#000066;stroke-width:10.0192}
    .str2 {stroke:white;stroke-width:10.0192}
    .str0 {stroke:black;stroke-width:0.500989}
    .str3 {stroke:yellow;stroke-width:0.216414}
    .fil0 {fill:none}
    .fil4 {fill:#000066}
    .fil6 {fill:#CCCCFF}
    .fil2 {fill:#DE4B2A}
    .fil3 {fill:red}
    .fil1 {fill:yellow}
    .fil5 {fill:white}
   ]]>
  </style>
 </defs>
 <g id="Layer_x0020_1">
  <metadata id="CorelCorpID_0Corel-Layer"/>
  <rect class="fil0" width="578" height="360"/>
  <ellipse class="fil1 str0" cx="293" cy="146" rx="123" ry="125"/>
  <path class="fil2" d="M249 223l141 2c9,-12 16,-23 21,-39 0,0 -2,0 -3,-2 -1,-1 -7,2 -7,2 -5,3 -4,0 -8,1 -3,0 -7,-6 -7,-7 0,0 -2,0 -4,-1 -1,-1 -1,-1 -1,-1 -1,-1 -3,-1 -3,0l-1 1c0,1 -1,0 -1,0 0,-1 0,1 0,1 -1,0 -2,-3 -2,-3 -1,0 -4,1 -3,2 0,0 -1,0 -1,0 -2,1 -1,3 -2,3 0,1 -1,1 -2,0 -1,0 0,-2 -1,-2 0,-1 -1,0 -1,-1 1,-2 -1,-3 -2,-4 -1,-1 -1,-1 -1,-3 -1,0 -2,0 -2,-1 -3,-5 -5,-1 -7,2 0,0 -1,2 -1,4 0,0 -1,0 -1,0 -1,0 0,-1 -1,-2 -1,0 0,-2 0,-2 0,-5 -1,-3 -2,-4 -1,0 0,-2 -1,-2 -3,0 -5,4 -5,4 -1,1 -1,3 -1,3 -1,-3 -2,-3 -4,-3 0,1 0,1 -1,1 0,1 -1,0 -1,0 -2,1 -1,4 -3,4 -6,3 -3,4 -5,5 -4,3 -1,1 -5,3 -1,1 -1,-1 -2,0 -3,0 -7,2 -9,2 -1,0 -2,-1 -2,-1 -1,-2 -3,-2 -4,-3 -1,0 -2,-1 -2,-1 -4,0 -9,-1 -11,-4 -1,-1 -3,-1 -3,-1 0,2 0,2 -1,1 -1,-1 -2,-2 -3,-1 -1,1 -1,4 -1,3 -1,-5 -3,0 -4,0 -2,1 0,-4 -6,-4 0,4 -1,4 -2,3 -1,-2 -3,-4 -4,-2 -3,4 -1,2 -3,-1 0,-1 -1,0 -2,-1 -1,-1 -2,-4 -4,-4 -1,1 -2,-2 -3,-1l-1 0 -2 -1 -1 1 -2 -1 0 55z"/>
  <path class="fil3" d="M292 21c70,0 126,56 126,125 0,69 -56,125 -126,125 -69,0 -125,-56 -125,-125 0,-69 56,-125 125,-125zm0 23c57,0 103,45 103,102 0,57 -46,103 -103,103 -56,0 -102,-46 -102,-103 0,-57 46,-102 102,-102z"/>
  <path class="fil4 str1" d="M376 215c-29,-22 -101,-5 -123,-45 -16,-35 37,-69 56,-21 11,-28 -10,-65 -51,-68 -28,-2 -79,22 -74,84 3,35 39,84 93,90 44,4 74,-12 99,-40z"/>
  <circle class="fil0 str2" cx="292" cy="146" r="109"/>
  <path class="fil5" d="M206 154c0,-3 -1,-20 4,-20 1,2 2,30 10,17 2,-2 8,-19 7,-2 -2,20 -1,17 12,35 6,7 -8,-3 -10,-6 -4,-4 -6,10 18,23 7,5 10,-3 3,-11 -4,-5 -9,-15 9,2 28,26 90,24 89,25 -9,6 -78,-6 -57,3 13,5 14,6 -23,-3 -14,-3 -22,5 -5,13 3,1 36,10 20,9 -33,-2 -67,-31 -49,-33 6,-1 -13,-17 -13,-16 0,5 5,9 -5,0 -7,-6 -13,-18 -1,-12 3,2 -3,-10 -4,-10 -2,0 -6,9 -11,-10 -4,-14 3,-3 6,-4z"/>
  <path class="fil5 str1" d="M258 81c2,2 13,-7 24,-3 19,8 -1,8 21,15 8,3 4,13 6,16 6,6 16,42 9,33 -7,-9 5,14 -6,12 -5,-1 -8,-12 -14,-9 -6,3 -4,-24 -15,-14 -4,3 -12,1 -12,-9 0,-1 -5,-9 -12,-1 -12,12 -8,-32 -17,-21 -17,24 -33,6 -40,6 -5,0 31,-42 56,-25z"/>
  <path class="fil3 str3" d="M336 74l0 0c1,0 2,0 2,1l0 14c0,0 0,-1 1,-1l0 -18c0,-1 0,-1 1,-1l0 0c1,0 2,0 2,1l0 18c0,0 0,0 0,0 0,0 0,0 1,0l0 -18c0,-1 0,-1 1,-1l0 0c1,0 1,0 1,1l0 18c1,0 1,1 1,1l0 -14c0,-1 1,-1 2,-1l0 0c1,0 1,0 1,1l0 16c0,0 1,0 1,0l15 0c1,0 1,1 1,1l0 0c0,1 0,2 -1,2l-14 0c1,0 1,0 1,1l18 0c1,0 1,0 1,1l0 0c0,1 0,2 -1,2l-18 0c0,0 0,0 0,0 0,0 0,1 0,1l18 0c1,0 1,0 1,1l0 0c0,1 0,2 -1,2l-18 0c0,0 0,0 -1,1l14 0c1,0 1,0 1,1l0 0c0,1 0,1 -1,1l-15 0c-1,0 -1,0 -1,1l0 15c0,1 0,1 -1,1l0 0c-1,0 -2,0 -2,-1l0 -14c0,1 0,1 -1,1l0 18c0,1 0,2 -1,2l0 0c-1,0 -1,-1 -1,-2l0 -18c-1,0 -1,0 -1,0 0,0 0,0 0,0l0 18c0,1 -1,2 -2,2l0 0c-1,0 -1,-1 -1,-2l0 -18c-1,0 -1,0 -1,-1l0 14c0,1 -1,1 -2,1l0 0c0,0 -1,0 -1,-1l0 -15c0,-1 0,-1 0,-1l-16 0c-1,0 -1,0 -1,-1l0 0c0,-1 0,-1 1,-1l14 0c0,-1 0,-1 -1,-1l-18 0c-1,0 -1,-1 -1,-2l0 0c0,-1 0,-1 1,-1l18 0c0,0 0,-1 0,-1 0,0 0,0 0,0l-18 0c-1,0 -1,-1 -1,-2l0 0c0,-1 0,-1 1,-1l18 0c0,-1 1,-1 1,-1l-14 0c-1,0 -1,-1 -1,-2l0 0c0,0 0,-1 1,-1l15 0c1,0 1,0 1,0l0 -16c0,-1 1,-1 1,-1zm6 18c4,0 6,3 6,6 0,4 -2,6 -6,6 -3,0 -6,-2 -6,-6 0,-3 3,-6 6,-6z"/>
  <circle class="fil0 str4" cx="292" cy="146" r="104"/>
  <path class="fil6" d="M291 119c10,-4 6,19 13,15 4,-2 7,7 8,15 0,0 -9,-14 -13,-9 -1,3 -3,-18 -14,-16 -3,1 -6,5 -6,3 -4,0 3,-13 -14,-17 -6,-1 -8,10 -9,2 -3,-22 1,-2 1,-3 2,-3 2,-4 5,-6 15,-13 9,24 29,16z"/>
  <path class="fil5" d="M238 120c-12,6 3,-10 3,-10 -7,-1 -15,2 -19,6 -6,6 -9,14 -7,13 7,-2 14,-8 19,-1 2,3 1,4 1,7 1,3 4,-1 4,0 0,12 9,17 6,4 0,-3 1,-8 7,-12 -16,9 -10,-5 -14,-7z"/>
  <path class="fil6" d="M211 104c9,6 19,1 19,0 2,-2 4,-2 6,-5 4,-6 7,-16 0,-4 -3,5 -6,-4 -12,4 -5,6 -13,4 -13,5z"/>
  <path class="fil6" d="M242 218c-1,-2 -5,-7 -3,-9 1,-1 3,5 7,-3 1,-2 5,2 8,1 4,-2 7,1 4,-5 -1,-1 -1,-3 -1,-4 3,0 8,8 11,8 8,1 7,4 19,3 2,0 2,4 -5,3 -5,-1 -9,6 -13,0 -2,-2 -7,-1 -7,0 -1,3 -3,1 -7,1 -2,0 -8,0 -8,2 0,1 1,7 1,7 -2,0 -6,-2 -6,-4z"/>
 </g>
</svg>
