<?xml version="1.0" encoding="UTF-8"?>
<!DOCTYPE svg PUBLIC "-//W3C//DTD SVG 1.1//EN" "http://www.w3.org/Graphics/SVG/1.1/DTD/svg11.dtd">
<!-- Creator: CorelDRAW X7 -->
<svg xmlns="http://www.w3.org/2000/svg" xml:space="preserve" width="8in" height="5in" version="1.1" style="shape-rendering:geometricPrecision; text-rendering:geometricPrecision; image-rendering:optimizeQuality; fill-rule:evenodd; clip-rule:evenodd"
viewBox="0 0 8000 5000"
 xmlns:xlink="http://www.w3.org/1999/xlink">
 <defs>
  <style type="text/css">
   <![CDATA[
    .fil3 {fill:none}
    .fil6 {fill:#FEFEFE}
    .fil5 {fill:#373435}
    .fil8 {fill:#ED3237}
    .fil7 {fill:#91D8F7}
    .fil2 {fill:#00AFEF}
    .fil4 {fill:#0098DA}
    .fil0 {fill:#003399}
    .fil9 {fill:#ED3237;fill-rule:nonzero}
    .fil1 {fill:white;fill-rule:nonzero}
   ]]>
  </style>
 </defs>
 <g id="Layer_x0020_1">
  <metadata id="CorelCorpID_0Corel-Layer"/>
  <rect class="fil0" x="-3" y="13" width="8014" height="5000"/>
  <path class="fil1" d="M2544 4110l0 -10c2,-1 4,-1 7,-1 6,-1 10,-2 14,-4 1,-2 2,-3 2,-5 1,-5 1,-12 1,-21l0 -53c0,-6 -1,-20 -1,-43 0,-7 -1,-10 -1,-12 -1,0 -1,-1 -2,-1 -1,-1 -4,-2 -7,-2 -2,0 -6,0 -13,-1l0 -9 28 -1 41 -1 5 0c1,0 2,0 3,0 1,0 3,0 7,0l8 0c6,0 13,1 20,3 3,0 6,2 11,4 4,2 8,5 11,8 3,3 5,7 7,11 1,4 2,8 2,13 0,5 -1,10 -3,14 -3,4 -6,8 -11,11 -2,2 -7,4 -16,8 13,3 22,8 29,16 7,7 10,16 10,25 0,6 -1,11 -3,17 -2,5 -4,9 -8,13 -5,5 -10,9 -15,11 -5,3 -13,5 -22,7 -5,1 -12,1 -21,1l-22 0c-9,0 -19,0 -32,1 -3,0 -13,0 -29,1zm58 -95c4,0 7,1 12,1 13,0 22,-3 28,-7 7,-5 10,-13 10,-24 0,-8 -3,-15 -9,-20 -6,-6 -15,-8 -28,-8 -3,0 -8,0 -14,1 0,2 0,5 1,8 0,7 0,17 0,30l0 11c0,1 0,4 0,8zm2 80c5,2 10,3 15,3 9,0 17,-1 23,-4 6,-3 11,-7 13,-12 3,-5 4,-12 4,-20 0,-8 -1,-14 -4,-19 -4,-7 -9,-11 -15,-13 -6,-3 -15,-4 -27,-4 -5,0 -9,0 -11,1l0 16 0 18 0 29c1,1 1,3 2,5zm110 4c3,-1 6,-2 11,-3 5,0 8,-1 9,-1 3,0 5,0 6,-1 1,-2 1,-4 1,-5l0 -16 0 -17 0 -10 0 -12 0 -13 1 -28 0 -13 0 -2c-1,-8 -1,-13 -2,-14 0,-1 -3,-2 -7,-3 0,-1 -2,-1 -5,-2 -2,-1 -4,-2 -6,-2 -2,-1 -4,-2 -6,-3 0,-2 0,-4 0,-5 0,0 0,-1 0,-3 1,0 2,0 3,0 2,0 9,0 21,1l18 -1 14 1c5,0 13,-1 22,-1 2,-1 4,-1 4,-1 2,0 3,1 3,1 1,1 1,3 1,5 0,2 0,4 -1,5 -1,0 -3,1 -6,1l-15 4c-1,0 -1,0 -2,1 -1,0 -1,1 -1,1l0 4 -1 8 0 2 0 1c0,1 0,3 0,7 0,1 0,2 0,3 0,2 0,4 0,7 0,5 1,10 1,13 0,5 -1,10 -1,15 0,2 0,5 0,8l-1 60c0,2 1,4 2,5l12 0 7 0 8 0c13,0 24,-1 32,-4 5,-3 9,-5 11,-7 3,-3 5,-6 7,-8 2,-3 4,-8 6,-15l4 0c2,0 4,0 7,0l0 4c0,6 -1,17 -3,32 0,6 -1,9 -1,11 -2,0 -3,0 -4,0l-5 0 -6 0c-1,0 -6,0 -15,-1 -2,0 -10,0 -24,-1 -14,0 -28,0 -42,0l-25 0c-10,1 -20,1 -28,2l-2 0c-1,0 -1,0 -2,0 -1,-1 -1,-2 -1,-3 0,-3 1,-6 1,-7zm162 -142l0 -10c2,0 3,0 5,0 4,0 8,0 13,1 11,0 17,0 19,0 7,0 13,0 20,0 6,0 12,0 17,-1 5,0 8,0 10,0l0 2 0 7 0 1c-5,1 -9,1 -14,1 -5,0 -8,1 -10,3 -1,1 -1,6 -1,15 0,2 0,5 0,6l0 5 0 12 1 10 -1 21 2 32c0,9 2,16 6,22 2,5 6,8 11,11 7,3 14,5 21,5 8,0 15,-1 22,-3 4,-1 8,-3 12,-6 3,-2 6,-5 7,-7 3,-5 5,-9 7,-13 1,-5 2,-14 2,-26 0,-20 -1,-43 -3,-68l-1 -6c0,-5 -1,-9 -3,-10 -2,-3 -5,-4 -9,-4l-11 0 -2 0 0 -10 10 0 24 1c8,0 16,0 23,-1l2 0c1,3 1,5 1,6 0,1 0,2 -1,3 -3,1 -6,2 -9,2 -6,1 -9,1 -10,2 -1,1 -1,2 -1,4 0,2 0,4 0,7 0,2 0,6 0,11 0,3 0,5 0,7 0,2 0,3 1,5 0,6 0,12 0,18l1 26c0,17 0,28 -1,34 -1,6 -3,10 -5,14 -3,5 -8,9 -13,13 -6,5 -13,8 -22,10 -8,3 -18,4 -29,4 -13,0 -24,-2 -34,-5 -9,-4 -16,-8 -21,-14 -4,-5 -8,-13 -9,-22 -2,-6 -2,-15 -2,-26l0 -60c0,-14 -1,-22 -2,-24 -2,-3 -8,-4 -17,-4 -2,0 -4,-1 -6,-1zm196 -10c5,0 9,0 12,1 7,1 14,1 23,1 3,0 11,0 23,-1 19,0 36,-1 51,-1l22 0c6,0 13,1 23,2 2,2 2,4 2,7l0 26 1 5c0,0 0,1 -1,2l-5 0c0,0 -2,0 -4,0 -1,-2 -2,-4 -3,-7l-5 -9c-2,-4 -5,-8 -8,-12 -2,0 -5,-1 -8,-1 -1,0 -3,0 -8,-1 -7,0 -16,0 -25,0 -10,0 -19,0 -27,0 0,2 0,10 0,25l0 21 0 16c2,0 4,0 5,0 15,0 26,0 32,-1 7,-1 10,-1 12,-2 1,-1 3,-3 4,-6 1,-2 2,-8 4,-18l2 0 7 0c1,7 1,13 1,17 0,8 0,14 0,17 -1,2 -1,4 -1,5 0,3 0,6 1,11 0,5 0,9 0,11l0 3 -9 0c0,-1 -1,-4 -2,-8 -1,-8 -3,-13 -4,-15 -1,-1 -3,-2 -5,-3 -2,-1 -8,-1 -19,-1 -12,0 -22,0 -28,1 0,2 0,4 0,4 0,10 0,19 0,25l0 27c0,3 1,6 3,7 4,1 14,2 32,2 11,0 21,-1 29,-2 6,-2 11,-4 15,-9 6,-5 11,-13 14,-23 3,0 5,-1 7,-1 1,0 2,0 4,0 0,3 -1,4 -1,6l-1 4 -4 23 -2 14c-6,1 -10,1 -13,1 -5,0 -17,-1 -38,-1 -14,-1 -31,-1 -51,-1 -10,0 -23,0 -37,1l-6 0 -15 0 0 -8c2,-1 5,-1 10,-2 8,-1 14,-2 18,-4 1,-2 1,-5 1,-9 0,-1 0,-4 0,-7l0 -4 0 -47 0 -14 -1 -20 0 -14 -1 -16c0,0 0,-1 0,-2 -1,-1 -2,-2 -4,-2 -1,0 -2,-1 -4,-1 -4,-1 -9,-2 -13,-2 -2,0 -4,0 -6,0l1 -10zm184 163l0 -9c2,-1 5,-1 9,-2 5,-1 9,-2 13,-3l3 -2c0,-3 1,-6 1,-10l0 -1 -1 -29 0 -12 0 -18 0 -21 -1 -42c-2,-1 -6,-2 -12,-3 -2,-1 -5,-1 -8,-2l-3 -1 0 -9 17 1c10,1 25,1 44,1 10,0 20,0 31,-1l2 0 6 0 3 0 5 0 22 0c1,0 3,0 4,-1 2,0 3,0 5,0 0,2 1,5 1,8l2 23c0,3 0,4 -1,6 -3,0 -5,0 -7,0 -1,0 -3,0 -4,-1 0,0 -1,-2 -3,-5 -3,-9 -6,-14 -9,-15 -2,-2 -9,-3 -20,-3l-17 1c-8,0 -14,0 -18,1 -1,0 -2,1 -4,1 -1,2 -1,5 -1,8l0 15 0 17c0,8 0,14 0,16 1,0 2,1 2,1l9 0 15 0c4,0 9,-1 16,-1 4,-1 7,-2 8,-2 2,-2 4,-3 5,-5 1,-2 1,-7 2,-15 0,0 1,0 3,-1 1,0 2,0 2,0 1,0 3,0 6,1l-1 20c0,4 0,8 0,11l0 3c0,0 0,7 0,18 0,1 0,2 0,4 -2,0 -3,0 -4,0 0,0 -2,0 -5,0 0,-2 -1,-4 -2,-7 -2,-7 -4,-11 -6,-12 -4,-2 -17,-3 -38,-3 -3,0 -7,0 -11,1 -1,4 -1,8 -1,12l1 38c0,7 1,11 2,13 1,1 4,2 9,3l3 0c4,0 7,1 10,1l3 1c0,2 1,4 1,5 0,1 -1,3 -1,5l-2 0 -4 0 -18 -1c-2,0 -11,0 -28,0 -4,0 -9,0 -13,1 -7,0 -10,1 -11,1 -5,0 -9,0 -11,0zm161 -1l0 -9c1,-1 4,-1 8,-2 5,-2 9,-3 12,-4 1,-3 2,-6 2,-11l0 -15 0 -28 0 -7c1,-17 1,-25 1,-26l0 -16 0 -7 0 -14 -1 -6c0,-1 0,-2 0,-4 -4,-1 -9,-2 -17,-3 -2,0 -3,0 -4,0l-1 -11 36 1c4,0 7,0 8,0 5,0 13,0 24,-1 6,0 10,0 11,0 1,1 1,3 1,4 0,1 0,3 -1,5 -3,1 -7,3 -11,4 -4,1 -8,2 -11,3 0,2 0,5 0,9 0,4 0,7 0,9 0,14 0,25 0,33l0 33 -1 16 1 25 -1 5c0,1 1,2 1,3 5,1 10,2 14,2 1,0 3,1 7,1 1,3 1,5 1,7 0,1 0,2 0,4 -1,0 -2,0 -3,0 -2,0 -4,0 -4,0 -1,0 -2,0 -4,0 -1,0 -6,-1 -16,-2l-22 0c-5,0 -11,0 -20,1 -5,1 -9,1 -10,1zm92 -152l0 -9 10 0 4 0c5,-1 9,-1 10,-1 1,0 4,0 9,1 1,0 2,0 3,0 1,0 3,0 8,-1 4,0 7,0 7,0 1,0 3,0 4,0 13,12 24,22 32,31 8,8 38,38 89,88l0 -3 -1 -15c0,-8 -1,-15 -1,-20 0,-5 -1,-11 -1,-18 0,-6 0,-13 -1,-18 -1,-11 -1,-18 -1,-19 0,-6 -1,-9 -2,-10 -2,-2 -6,-3 -12,-4 -4,-1 -8,-2 -10,-3l0 -8 3 0 25 -1 28 0c1,0 3,-1 5,-1l0 9c-2,1 -4,1 -6,2 -5,1 -8,2 -9,2 -5,3 -7,4 -7,5 -1,1 -1,2 -1,5 0,0 0,2 0,5 0,1 0,5 0,10 0,12 1,22 1,29 0,2 0,5 0,8l2 44c0,3 0,5 0,6l0 16 0 6 0 7c0,3 0,5 0,6l0 7 -14 0 -15 -15 -30 -30 -22 -22 -15 -16c-10,-10 -20,-19 -28,-26l-21 -19 2 47c0,3 0,6 0,9l0 9 0 16c1,7 1,14 2,22 0,3 0,4 0,5 1,1 1,2 2,4 3,1 10,2 21,2 1,1 2,1 3,1l1 10 -5 1c-3,0 -11,-1 -25,-2 -14,0 -22,0 -27,0 -4,1 -7,1 -7,1 -1,0 -2,0 -4,-1 0,-2 0,-3 0,-5 0,-1 0,-2 0,-4 2,-1 4,-1 5,-1 1,0 3,0 5,0 7,0 11,0 13,-1 1,-1 2,-4 2,-9 1,-13 1,-21 1,-24l0 -7 0 -40 0 -26c0,-10 -1,-16 -2,-20 -1,-2 -2,-4 -3,-5 -3,-3 -6,-5 -10,-7 -2,-1 -8,-2 -17,-3zm386 -7c0,3 1,7 2,13 1,9 1,16 1,20 0,2 0,3 0,5l-2 1 -9 -1 -1 0c-4,-11 -7,-19 -11,-23 -6,-6 -14,-10 -22,-10 -9,0 -15,2 -20,7 -5,4 -7,9 -7,16 0,5 2,10 7,15 5,5 15,10 30,14 5,2 11,4 18,7 7,4 13,8 17,11 5,6 8,11 10,15 2,5 3,11 3,18 0,8 -2,16 -4,24 -2,4 -5,7 -8,11 -3,2 -6,5 -12,9 -5,3 -10,6 -16,7 -6,2 -13,2 -22,2 -6,0 -13,0 -21,-2l-15 -5c-4,-1 -7,-2 -8,-3 0,0 -1,-1 -1,-2l0 -1c0,-1 0,-7 0,-18 -1,-5 -1,-9 -1,-11l0 -5 12 0c4,9 6,15 8,17 2,4 5,7 8,10 3,3 7,5 11,6 5,2 9,3 15,3 4,0 9,-1 14,-3 6,-2 10,-5 14,-10 3,-4 4,-9 4,-14 0,-6 -2,-12 -8,-17 -4,-3 -13,-8 -28,-13 -16,-5 -26,-10 -32,-15 -6,-4 -11,-10 -14,-17 -4,-7 -6,-14 -6,-20 0,-14 5,-25 15,-34 9,-9 23,-14 42,-14 4,0 10,1 18,2 4,1 11,3 19,5zm31 5l0 -9 30 1 13 0 5 0c5,0 13,0 24,-1 6,0 10,0 11,0 11,0 19,0 24,2 8,1 15,4 20,8 5,3 9,9 12,15 4,7 5,13 5,19 0,15 -4,27 -13,36 -10,9 -21,13 -35,13 -5,0 -10,0 -14,-1 -4,-2 -8,-3 -12,-6 -1,-2 -1,-5 -1,-10 2,0 4,1 6,1 1,0 3,0 4,0 7,0 13,-2 18,-6 6,-5 10,-13 10,-25 0,-8 -2,-15 -5,-20 -3,-5 -6,-9 -10,-11 -5,-2 -11,-3 -18,-3 -6,0 -10,1 -13,2 -1,1 -1,3 -2,4l1 59 0 5 0 5c0,1 0,3 0,5l0 10 1 17 -1 19c0,3 1,7 1,11l25 3c0,2 1,4 1,5 0,1 -1,3 -1,6 -2,0 -4,0 -5,0 -2,0 -7,0 -14,-1 -8,-1 -16,-1 -25,-1 -10,0 -20,1 -30,2 -1,0 -4,1 -7,1 0,-3 -1,-4 -1,-6 0,0 0,-2 1,-3l7 -3c6,-1 10,-3 14,-5 1,-3 1,-5 1,-7 0,-1 0,-2 0,-3 0,-3 0,-6 0,-11l-1 -35 -1 -40c-1,-19 -1,-29 -1,-30 -1,-3 -2,-5 -3,-6 -2,-1 -4,-2 -7,-3 -7,-1 -12,-2 -14,-3zm156 -8c5,0 9,0 13,1 6,1 14,1 23,1 3,0 11,0 23,-1 19,0 35,-1 50,-1l23 0c5,0 13,1 23,2 1,2 2,4 2,7l0 26 0 5c0,0 0,1 0,2l-5 0c-1,0 -2,0 -4,0 -1,-2 -2,-4 -3,-7l-5 -9c-2,-4 -5,-8 -8,-12 -2,0 -5,-1 -8,-1 -1,0 -4,0 -8,-1 -8,0 -16,0 -25,0 -10,0 -19,0 -27,0 -1,2 -1,10 -1,25l1 21 0 16c2,0 3,0 5,0 15,0 25,0 32,-1 6,-1 10,-1 12,-2 1,-1 2,-3 4,-6 0,-2 2,-8 4,-18l2 0 7 0c0,7 0,13 0,17 0,8 0,14 0,17 0,2 0,4 0,5 0,3 0,6 0,11 1,5 1,9 1,11l0 3 -9 0c0,-1 -1,-4 -2,-8 -2,-8 -3,-13 -4,-15 -2,-1 -3,-2 -6,-3 -1,-1 -7,-1 -18,-1 -13,0 -22,0 -28,1 -1,2 -1,4 -1,4 0,10 1,19 1,25l0 27c0,3 1,6 3,7 3,1 14,2 31,2 12,0 22,-1 30,-2 6,-2 11,-4 15,-9 6,-5 10,-13 14,-23 3,0 5,-1 6,-1 1,0 3,0 4,0 0,3 0,4 0,6l-1 4 -4 23 -3 14c-5,1 -9,1 -13,1 -4,0 -17,-1 -37,-1 -14,-1 -32,-1 -52,-1 -10,0 -22,0 -37,1l-5 0 -15 0 0 -8c1,-1 5,-1 9,-2 9,-1 15,-2 18,-4 1,-2 2,-5 2,-9 0,-1 0,-4 0,-7l0 -4 -1 -47 1 -14 -1 -20 0 -14 -1 -16c0,0 0,-1 0,-2 -1,-1 -2,-2 -4,-2 -1,0 -2,-1 -4,-1 -5,-1 -9,-2 -14,-2 -1,0 -3,0 -5,0l0 -10z"/>
  <path class="fil1" d="M4264 3947c5,0 9,0 13,1 6,1 14,1 23,1 3,0 10,0 23,-1 18,0 35,-1 50,-1l23 0c5,0 13,1 23,2 1,2 2,4 2,7l0 26 0 5c0,0 0,1 0,2l-5 0c-1,0 -2,0 -4,0 -1,-2 -2,-4 -3,-7l-5 -9c-2,-4 -5,-8 -8,-12 -3,0 -5,-1 -9,-1 0,0 -3,0 -7,-1 -8,0 -16,0 -25,0 -10,0 -20,0 -28,0 0,2 0,10 0,25l0 21 0 16c2,0 4,0 6,0 15,0 25,0 32,-1 6,-1 10,-1 11,-2 2,-1 3,-3 4,-6 1,-2 3,-8 5,-18l2 0 7 0c0,7 0,13 0,17 0,8 0,14 0,17 0,2 0,4 0,5 0,3 0,6 0,11 1,5 1,9 1,11l0 3 -9 0c-1,-1 -1,-4 -2,-8 -2,-8 -3,-13 -5,-15 -1,-1 -2,-2 -5,-3 -1,-1 -8,-1 -18,-1 -13,0 -22,0 -29,1 0,2 0,4 0,4 0,10 0,19 1,25l-1 27c0,3 2,6 4,7 3,1 14,2 31,2 12,0 22,-1 30,-2 5,-2 10,-4 15,-9 5,-5 10,-13 14,-23 2,0 5,-1 6,-1 1,0 2,0 4,0 0,3 0,4 0,6l-1 4 -5 23 -2 14c-5,1 -10,1 -13,1 -5,0 -17,-1 -37,-1 -15,-1 -32,-1 -52,-1 -10,0 -22,0 -37,1l-5 0 -15 0 0 -8c1,-1 4,-1 9,-2 9,-1 15,-2 18,-4 1,-2 2,-5 2,-9 0,-1 0,-4 -1,-7l1 -4 -1 -47 0 -14 0 -20 0 -14 -1 -16c0,0 0,-1 -1,-2 0,-1 -2,-2 -3,-2 -1,0 -2,-1 -4,-1 -5,-1 -9,-2 -14,-2 -1,0 -3,0 -5,0l0 -10zm183 152c2,-1 4,-1 8,-2 8,-1 13,-3 15,-5 2,-2 3,-4 3,-8 0,-1 1,-14 1,-39l0 -13 0 -17 0 -43 0 -5c0,-2 -1,-4 -2,-5 -1,0 -2,-1 -5,-1 -2,0 -4,1 -7,1 -4,0 -7,1 -10,1 -1,0 -2,0 -3,1l0 -12c5,-1 12,-3 21,-4 16,-3 34,-4 57,-4 18,0 32,1 40,3 13,3 24,8 32,15 11,8 19,18 25,30 5,11 8,23 8,37 0,17 -4,31 -11,43 -7,12 -18,22 -32,29 -9,5 -23,8 -39,8l-26 -1 -7 -1 -11 1 -3 -1 -10 1 -14 -1c-1,0 -5,1 -13,1 -2,1 -6,1 -10,1 -3,0 -5,0 -6,0 -1,-2 -1,-5 -1,-10zm61 -140c0,3 0,5 0,6l0 21 0 18c0,7 0,12 0,16l0 12 0 20 0 12c0,12 2,20 7,24 6,6 14,8 25,8 8,0 14,0 18,-2 9,-3 15,-7 20,-13 5,-5 8,-12 11,-22 2,-10 4,-20 4,-30 0,-17 -3,-30 -8,-41 -6,-11 -13,-19 -23,-24 -9,-6 -20,-8 -32,-8 -8,0 -16,1 -22,3zm143 151l0 -10c2,-1 4,-1 7,-1 6,-1 10,-2 13,-4 2,-2 2,-3 3,-5 0,-5 1,-12 1,-21l0 -53c0,-6 -1,-20 -1,-43 -1,-7 -1,-10 -2,-12 0,0 0,-1 -1,-1 -1,-1 -4,-2 -7,-2 -2,0 -6,0 -13,-1l0 -9 28 -1 41 -1 5 0c1,0 2,0 3,0 1,0 3,0 7,0l8 0c6,0 13,1 20,3 3,0 6,2 10,4 5,2 8,5 12,8 3,3 5,7 7,11 1,4 2,8 2,13 0,5 -1,10 -4,14 -2,4 -5,8 -10,11 -2,2 -8,4 -16,8 13,3 22,8 29,16 6,7 10,16 10,25 0,6 -1,11 -3,17 -2,5 -4,9 -8,13 -5,5 -10,9 -15,11 -5,3 -13,5 -22,7 -5,1 -12,1 -22,1l-21 0c-9,0 -20,0 -32,1 -4,0 -13,0 -29,1zm58 -95c3,0 7,1 12,1 12,0 22,-3 28,-7 7,-5 10,-13 10,-24 0,-8 -3,-15 -9,-20 -6,-6 -15,-8 -28,-8 -3,0 -8,0 -14,1 0,2 0,5 0,8 1,7 1,17 1,30l0 11c0,1 0,4 0,8zm2 80c5,2 10,3 15,3 9,0 17,-1 23,-4 6,-3 10,-7 13,-12 3,-5 4,-12 4,-20 0,-8 -1,-14 -4,-19 -4,-7 -9,-11 -15,-13 -6,-3 -15,-4 -27,-4 -5,0 -9,0 -11,1l0 16 0 18 0 29c0,1 1,3 2,5zm116 -69c0,-11 2,-21 6,-31 3,-8 7,-15 12,-21 5,-6 12,-12 20,-17 8,-5 16,-8 24,-10 8,-2 18,-4 28,-4 17,0 32,4 45,10 13,7 23,16 30,27 10,14 14,29 14,45 0,24 -8,44 -24,61 -16,17 -38,25 -67,25 -7,0 -14,0 -20,-1 -4,-1 -9,-2 -12,-3 -6,-2 -10,-3 -11,-3 -9,-6 -16,-11 -22,-16 -5,-6 -10,-12 -14,-19 -2,-4 -4,-11 -7,-21 -2,-6 -2,-14 -2,-22zm85 -70c-7,0 -14,2 -19,5 -6,3 -10,7 -13,11 -5,7 -8,15 -10,23 -2,8 -3,18 -3,30 0,7 0,12 1,15 0,1 0,3 0,5 1,7 2,11 3,14 4,11 6,17 8,20 2,4 6,8 11,12 2,3 6,4 11,6 5,2 9,3 14,3 9,0 17,-2 25,-6 8,-5 14,-12 19,-22 4,-10 7,-23 7,-39 0,-7 -1,-16 -2,-28l0 -2c0,-1 -1,-2 -1,-5 -4,-14 -9,-24 -18,-31 -9,-8 -20,-11 -33,-11zm94 153l0 -9c2,0 4,-1 8,-2 7,-1 11,-2 12,-3 1,-1 3,-3 5,-7l25 -66 30 -78c3,0 6,0 8,0l6 0 1 2 22 52c4,11 9,21 13,32 4,10 7,18 10,25 2,4 4,10 7,17 1,5 4,10 7,16 1,4 3,6 4,7 1,1 4,2 7,2 3,1 7,1 11,3 0,3 0,5 0,6 0,1 0,2 0,3 -6,0 -13,0 -20,-1 -8,-1 -14,-1 -20,-1 -7,0 -11,0 -14,0l-22 2 -6 0c0,-3 0,-6 1,-9l13 -3c5,-1 7,-2 8,-2 1,-1 1,-2 1,-3 0,-1 0,-2 -1,-3l-5 -13 -10 -24 -47 0c-2,4 -6,13 -11,29 -2,5 -3,7 -3,9 0,2 1,4 2,5 2,1 6,2 11,3 1,0 4,1 9,1 0,3 0,6 0,7 0,1 0,2 0,3 -5,0 -18,-1 -37,-2l-5 0c-7,1 -13,2 -18,2l-2 0zm59 -71c19,1 31,1 34,1l3 0c-2,-8 -5,-16 -10,-26 -4,-10 -7,-18 -9,-23l-18 48zm126 -98l8 0c0,1 1,1 1,2 2,4 4,6 5,8 1,0 7,0 17,0 7,0 13,0 18,0l2 0 15 -1 28 1 39 0 8 -1c1,-1 2,-3 3,-6 0,-1 1,-2 2,-4l5 0c1,0 2,0 4,0 0,6 0,15 0,27l0 11 0 6c0,2 0,4 -1,6 -3,1 -6,1 -9,2 -2,-4 -4,-8 -7,-14 -2,-7 -4,-10 -5,-11 -1,-1 -2,-2 -3,-2 -2,0 -11,0 -27,0 -2,0 -5,0 -8,0 -1,3 -1,6 -1,8l0 17 0 37 0 39 0 17c0,5 1,10 2,13 1,0 4,1 7,1 1,0 4,1 10,2 2,1 4,2 6,2 1,3 1,5 1,6 0,1 0,2 -1,3 -1,0 -3,0 -4,0 -9,0 -16,0 -22,-1 -6,0 -17,-1 -33,-1 -2,0 -10,1 -22,2 -5,0 -8,0 -9,0 0,-1 0,-2 0,-2l0 -3 0 -1c1,-3 5,-5 10,-6 9,-2 15,-4 18,-5 1,-2 1,-4 2,-7 0,-10 0,-26 0,-48l0 -47c0,-13 0,-21 -1,-24 0,0 0,-1 -1,-1 0,-1 -1,-1 -2,-1 -2,0 -11,0 -25,0 -8,0 -13,0 -16,2 -3,2 -9,8 -16,17 -2,2 -4,4 -4,4 -4,-2 -7,-4 -8,-5 3,-5 6,-16 11,-33 1,-4 2,-8 3,-9zm269 10c1,3 1,7 2,13 1,9 1,16 1,20 0,2 0,3 0,5l-1 1 -9 -1 -2 0c-4,-11 -7,-19 -11,-23 -6,-6 -14,-10 -22,-10 -8,0 -15,2 -20,7 -5,4 -7,9 -7,16 0,5 2,10 7,15 5,5 15,10 30,14 5,2 11,4 18,7 8,4 13,8 17,11 5,6 8,11 10,15 2,5 3,11 3,18 0,8 -1,16 -4,24 -2,4 -4,7 -8,11 -2,2 -6,5 -12,9 -5,3 -10,6 -16,7 -6,2 -13,2 -22,2 -6,0 -13,0 -21,-2l-15 -5c-4,-1 -6,-2 -8,-3 0,0 0,-1 -1,-2l0 -1c0,-1 0,-7 0,-18 0,-5 -1,-9 -1,-11l0 -5 12 0c4,9 7,15 8,17 2,4 5,7 8,10 3,3 7,5 12,6 4,2 9,3 14,3 4,0 9,-1 15,-3 5,-2 9,-5 13,-10 3,-4 5,-9 5,-14 0,-6 -3,-12 -9,-17 -3,-3 -13,-8 -28,-13 -16,-5 -26,-10 -32,-15 -6,-4 -11,-10 -14,-17 -4,-7 -5,-14 -5,-20 0,-14 4,-25 14,-34 9,-9 23,-14 42,-14 4,0 10,1 18,2 5,1 11,3 19,5z"/>
  <path class="fil1" d="M2583 4220l3 0 2 0c1,0 5,0 11,1 6,0 12,1 17,1 4,0 10,-1 17,-1 8,-1 12,-1 14,-1 1,0 3,0 5,0 1,2 1,3 1,4 0,1 -1,2 -1,3 -2,1 -3,1 -5,1 -5,1 -8,2 -10,2 0,1 -1,1 -1,2 1,3 2,5 3,7l15 28c5,9 9,16 12,22 3,3 4,6 5,7 9,-14 16,-27 21,-39l-7 -12c-2,-5 -5,-10 -8,-14 -2,-1 -4,-1 -6,-2 -4,0 -8,-1 -11,-2l0 -7c8,0 13,0 16,0 4,1 11,1 20,1 5,0 10,0 17,0 6,-1 10,-1 11,-1l8 0 -1 7c-1,1 -3,1 -7,1 -4,0 -8,1 -11,2 5,10 9,17 10,19l2 3 17 29 5 10 6 -11c5,-9 8,-14 9,-16 3,-6 4,-10 5,-11 5,-8 7,-14 7,-18 0,-1 -1,-2 -3,-3 -1,-1 -4,-2 -11,-3 -5,-1 -9,-2 -10,-2l1 -7c1,0 2,0 3,0 1,0 6,1 14,1 8,1 13,1 15,1 4,0 10,0 18,-1 3,0 6,-1 8,-1l0 4c0,1 0,2 0,4 -10,2 -16,4 -19,6 0,0 -1,1 -2,2l-23 43c-4,7 -11,20 -20,39 -1,3 -2,5 -3,6l-12 0 -26 -47 -2 -5c-1,-2 -2,-3 -3,-5l-2 2 -18 31c-3,5 -5,9 -8,13 -2,4 -4,7 -6,11l-5 0 -9 0 -23 -41 -26 -46c-2,-3 -3,-4 -5,-5 -2,-2 -5,-3 -8,-3 -3,-1 -5,-1 -6,-2 0,-1 0,-2 0,-3 0,-1 0,-3 0,-4zm222 0l2 0 2 0c1,0 5,0 11,1 6,0 12,1 17,1 5,0 10,-1 18,-1 7,-1 11,-1 13,-1 1,0 3,0 6,0 0,2 0,3 0,4 0,1 0,2 -1,3 -1,1 -3,1 -5,1 -5,1 -8,2 -9,2 -1,1 -1,1 -2,2 1,3 2,5 3,7l15 28c5,9 9,16 13,22 2,3 3,6 4,7 9,-14 17,-27 22,-39l-7 -12c-3,-5 -6,-10 -9,-14 -2,-1 -4,-1 -6,-2 -4,0 -7,-1 -11,-2l0 -7c8,0 13,0 16,0 4,1 11,1 20,1 5,0 10,0 17,0 6,-1 10,-1 12,-1l7 0 0 7c-1,1 -4,1 -8,1 -4,0 -7,1 -10,2 5,10 8,17 10,19l1 3 17 29 5 10 6 -11c5,-9 8,-14 9,-16 3,-6 5,-10 5,-11 5,-8 7,-14 7,-18 0,-1 -1,-2 -3,-3 0,-1 -4,-2 -11,-3 -5,-1 -8,-2 -10,-2l1 -7c1,0 3,0 4,0 0,0 5,1 13,1 9,1 14,1 15,1 4,0 10,0 18,-1 3,0 6,-1 8,-1l0 4c0,1 0,2 0,4 -10,2 -16,4 -19,6 0,0 -1,1 -2,2l-23 43c-4,7 -10,20 -20,39 -1,3 -2,5 -3,6l-11 0 -26 -47 -3 -5c-1,-2 -2,-3 -3,-5l-1 2 -19 31c-2,5 -5,9 -7,13 -3,4 -5,7 -7,11l-5 0 -8 0 -24 -41 -26 -46c-2,-3 -3,-4 -4,-5 -3,-2 -6,-3 -9,-3 -3,-1 -5,-1 -6,-2 0,-1 0,-2 0,-3 0,-1 0,-3 1,-4zm221 0l3 0 2 0c1,0 4,0 10,1 7,0 12,1 18,1 4,0 9,-1 17,-1 7,-1 12,-1 13,-1 2,0 3,0 6,0 0,2 0,3 0,4 0,1 0,2 0,3 -2,1 -4,1 -6,1 -4,1 -7,2 -9,2 -1,1 -1,1 -1,2 0,3 1,5 2,7l15 28c5,9 9,16 13,22 2,3 3,6 4,7 10,-14 17,-27 22,-39l-7 -12c-3,-5 -6,-10 -9,-14 -2,-1 -4,-1 -6,-2 -4,0 -7,-1 -10,-2l0 -7c7,0 12,0 15,0 5,1 12,1 21,1 4,0 10,0 16,0 7,-1 11,-1 12,-1l7 0 0 7c-1,1 -4,1 -8,1 -4,0 -7,1 -10,2 5,10 8,17 10,19l2 3 16 29 6 10 6 -11c4,-9 7,-14 8,-16 3,-6 5,-10 5,-11 5,-8 8,-14 8,-18 0,-1 -1,-2 -4,-3 0,-1 -4,-2 -11,-3 -5,-1 -8,-2 -10,-2l1 -7c2,0 3,0 4,0 1,0 5,1 14,1 8,1 13,1 14,1 4,0 10,0 18,-1 4,0 6,-1 9,-1l0 4c0,1 0,2 -1,4 -10,2 -16,4 -18,6 -1,0 -2,1 -2,2l-23 43c-4,7 -11,20 -21,39 -1,3 -2,5 -3,6l-11 0 -26 -47 -3 -5c-1,-2 -2,-3 -3,-5l-1 2 -18 31c-3,5 -6,9 -8,13 -3,4 -5,7 -7,11l-5 0 -8 0 -24 -41 -26 -46c-1,-3 -3,-4 -4,-5 -3,-2 -5,-3 -9,-3 -3,-1 -5,-1 -5,-2 0,-1 -1,-2 -1,-3 0,-1 1,-3 1,-4zm239 69c6,0 12,2 16,5 5,3 7,7 7,11 0,6 -2,10 -4,13 -5,5 -11,7 -18,7 -6,0 -12,-2 -16,-5 -4,-4 -6,-8 -6,-13 0,-4 1,-7 3,-9 1,-3 4,-5 9,-7 2,-2 5,-2 9,-2zm55 -2c3,0 5,-1 6,-1 1,0 2,0 4,0l1 2c5,8 9,12 11,14 3,4 7,6 10,8 3,2 6,3 11,4 4,1 7,2 11,2 6,0 12,-2 16,-5 5,-3 7,-7 7,-11 0,-3 -1,-5 -2,-7 -2,-2 -6,-4 -11,-5 -2,-1 -9,-3 -19,-5 -10,-2 -16,-3 -18,-4 -5,-2 -9,-4 -13,-6 -4,-3 -7,-6 -9,-9 -2,-5 -4,-9 -4,-13 0,-6 2,-11 4,-15 2,-4 5,-8 9,-11 3,-2 8,-4 14,-6 6,-2 12,-3 19,-3 9,0 18,0 25,1 8,1 14,3 19,5 0,2 1,7 2,14 2,6 2,11 2,12 0,0 0,1 0,2 -3,0 -5,1 -7,1 -1,0 -2,0 -4,-1 -1,-1 -2,-2 -4,-5 -5,-7 -10,-13 -15,-16 -5,-3 -11,-4 -18,-4 -7,0 -13,2 -17,5 -4,2 -6,6 -6,10 0,3 2,5 6,8 3,3 10,5 18,7 14,2 24,5 30,7 9,4 15,8 19,12 4,5 6,11 6,17 0,10 -5,18 -14,24 -9,7 -22,10 -39,10 -2,0 -8,0 -17,-1 -4,-1 -9,-2 -15,-3 -2,0 -5,-1 -11,-3 -1,-1 -2,-2 -3,-2 0,-1 -1,-4 -2,-11 -1,-10 -2,-16 -2,-18zm257 12l4 1c0,1 1,2 1,3l0 0c-2,8 -5,13 -9,16 -4,2 -9,4 -15,4 -6,0 -11,-2 -16,-4 -4,-3 -8,-8 -11,-15 -5,7 -11,11 -19,15 -8,3 -17,5 -29,5 -10,0 -18,-2 -23,-6 -5,-4 -8,-8 -8,-14 0,-3 1,-6 2,-9 2,-3 4,-5 8,-8 3,-3 8,-6 16,-9 1,-1 5,-2 11,-5l38 -12c0,-3 1,-7 1,-10 0,-11 -2,-19 -5,-23 -2,-2 -6,-4 -11,-4 -5,0 -10,1 -14,3 -4,1 -7,3 -9,6 -2,2 -3,5 -4,10 -1,4 -1,6 -2,7 -2,1 -4,3 -8,4 -4,1 -7,2 -9,3 -5,2 -9,3 -13,3 -1,-1 -2,-2 -2,-4 0,-5 1,-9 4,-12 4,-5 9,-10 16,-15 8,-4 15,-7 21,-9 9,-2 19,-4 32,-4 8,0 15,2 21,4 6,3 10,6 12,11 3,5 4,14 4,26l-1 21 1 15 0 4c0,3 0,6 1,7 1,1 3,2 5,2 1,0 2,0 3,-1l4 -6 3 0zm-50 -30c-6,2 -12,5 -20,8 -7,4 -12,8 -15,12 -2,2 -3,6 -3,10 0,3 2,6 4,9 3,2 6,3 9,3 6,0 11,-1 15,-4 5,-3 8,-6 9,-8 1,-3 2,-9 2,-18 0,-4 -1,-8 -1,-12zm66 45c1,0 2,-1 3,-1 6,0 11,-1 14,-2 1,-1 2,-1 2,-2 0,-1 0,-8 1,-23l0 -7 0 -13 0 -13 0 -3c0,-4 -2,-7 -4,-9 -2,-2 -8,-4 -17,-6l0 -5c2,-1 4,-1 7,-2 9,-1 17,-4 23,-7 5,-2 9,-5 14,-10l8 0 0 2 1 10 0 5 0 2c10,-6 18,-10 24,-12 7,-2 14,-3 22,-3 8,0 16,1 24,4 7,3 13,8 18,14 8,-5 14,-9 18,-12 4,-1 8,-3 14,-4 6,-1 12,-2 17,-2 14,0 25,4 33,11 9,7 13,16 13,29l0 19c0,5 0,12 -1,22l0 9c0,2 1,4 2,5 4,2 7,3 10,3 2,0 4,1 6,2 0,1 1,2 1,3l0 3c-3,0 -5,1 -6,1 -1,0 -4,-1 -8,-1 -4,0 -9,-1 -15,-1 -16,0 -28,1 -37,2 -1,-2 -1,-4 -1,-5l0 -2c1,-1 6,-2 13,-4 1,-2 2,-2 2,-3 1,-2 1,-7 1,-14l-1 -35c0,-6 0,-11 -1,-15 -1,-4 -3,-7 -5,-9 -2,-2 -4,-4 -8,-5 -3,-2 -7,-3 -10,-3 -6,0 -12,2 -18,4 -6,3 -11,7 -15,12l-1 4 1 16 -1 13 0 13 0 11c0,5 1,9 2,10 2,1 7,2 15,3l5 1c1,2 1,4 1,5 0,1 0,2 0,3l-5 0 -6 0 -3 0c-7,-1 -15,-1 -23,-1l-16 -1c-4,0 -11,1 -20,2l-3 -1 0 -7c3,-1 8,-2 16,-2 1,0 1,0 2,-1 1,-1 2,-2 2,-2 1,-2 1,-5 1,-10l0 -26 0 -7c0,-13 -1,-21 -2,-24 -1,-4 -4,-7 -9,-10 -4,-2 -9,-3 -16,-3 -8,0 -15,1 -21,4 -6,4 -10,6 -11,9 0,1 0,2 0,2l0 1 0 2c0,0 0,2 -1,3l1 36 0 19c0,1 0,2 0,3l1 2c3,1 5,1 7,2 4,0 7,1 9,2 0,1 0,2 0,3 0,1 0,3 -1,5 -1,0 -3,0 -3,0 -1,0 -7,-1 -16,-1l-16 -1c-8,0 -18,1 -29,2l-4 0c-1,-2 -1,-3 -1,-5 0,-1 0,-2 1,-3zm263 -93c1,-1 2,-1 3,-1l45 0 4 0 0 9 0 12 0 6 0 19 0 13c0,8 0,15 1,20 2,4 4,6 8,8 3,2 7,3 12,3 5,0 8,0 11,-1 3,-1 6,-2 10,-4 4,-2 6,-4 7,-5 3,-2 5,-5 6,-7l1 -31c1,-4 1,-6 1,-8 0,-3 0,-5 -1,-9 0,-3 0,-5 0,-5l0 -5 0 -3c-2,-1 -6,-2 -10,-2l-10 -1c-1,0 -2,0 -2,0 0,-2 -1,-3 -1,-4 0,-1 0,-3 1,-5 3,0 6,0 8,0l24 0c6,0 14,0 23,0l0 9 0 12 0 15 0 22 0 10 0 6c0,4 -1,7 -1,7 0,3 1,4 2,5 1,1 2,2 2,2l14 -1 2 0c1,3 1,5 1,5 0,1 0,2 -1,3 -5,0 -9,1 -11,1 -11,2 -23,5 -36,9l-6 0 0 -21c-2,1 -3,2 -6,4 -9,7 -16,11 -23,13 -6,3 -13,4 -20,4 -8,0 -15,-2 -21,-4 -7,-3 -11,-7 -14,-11 -2,-3 -3,-8 -4,-14 0,-2 0,-10 0,-25l0 -4c0,-8 0,-14 0,-18 0,-6 0,-11 0,-13 0,-1 -1,-2 -2,-4 -1,0 -3,-1 -5,-1 -6,-1 -10,-2 -12,-3 0,0 -1,0 -1,-1 0,-1 1,-1 1,-2 0,-1 0,-2 0,-4zm192 -48c0,-5 2,-9 5,-11 4,-3 8,-5 14,-5 6,0 11,2 15,5 4,3 6,6 6,10 0,3 -1,6 -3,9 -1,2 -4,5 -7,6 -4,2 -7,3 -11,3 -4,0 -9,-2 -13,-5 -4,-4 -6,-8 -6,-12zm-22 149l0 -8 17 -2c3,-1 5,-1 6,-2 1,-2 1,-4 1,-8l0 -1c0,-1 0,-3 0,-6 0,-2 1,-5 1,-7 0,-1 -1,-4 -1,-9l0 -6 0 -6 0 -21c0,-2 0,-5 -1,-8 -1,-1 -3,-2 -6,-3 -3,-1 -8,-1 -15,-2l0 -7c10,0 20,-2 27,-5 6,-2 12,-6 18,-11l10 0c1,10 1,24 1,40l-1 52c0,3 0,6 0,9 4,1 9,2 16,3 3,0 5,1 6,1l0 7c-2,0 -5,0 -6,0 -1,0 -4,0 -7,0 -10,-1 -24,-1 -41,-1 -5,0 -10,0 -15,1 -5,0 -8,0 -10,0zm84 -5c3,-2 6,-2 9,-3 7,0 11,-1 12,-2 2,-3 3,-7 3,-14l0 -35 0 -8 0 -26 0 -29 0 -5c0,-7 -1,-12 -2,-15 -4,-2 -8,-2 -12,-2 -2,0 -4,-1 -7,-1 0,-2 0,-4 0,-5 0,0 0,-1 0,-2 8,-1 17,-2 25,-5 9,-3 16,-5 20,-8l4 0c1,0 3,0 4,0 1,29 1,49 1,59 0,3 0,6 0,8l0 1 0 2 0 56 0 18 0 3c0,3 1,6 2,7 2,2 4,2 8,2 2,1 7,1 13,2 0,1 1,3 1,4 0,1 0,2 -1,3l-12 0c-6,0 -15,-1 -25,-1l-6 0c-5,0 -14,1 -25,1l-11 0 -1 -5zm213 -86c6,5 11,11 14,18 3,6 5,13 5,19 0,11 -2,20 -6,27 -6,10 -15,18 -26,23 -10,5 -23,7 -37,7 -16,0 -29,-3 -40,-9 -11,-6 -19,-12 -24,-20 -5,-7 -7,-16 -7,-27 0,-6 1,-12 3,-17 3,-6 6,-11 10,-15 4,-4 8,-8 13,-10 6,-5 13,-7 20,-9 7,-2 15,-3 25,-3 21,0 38,5 50,16zm-84 43c1,11 2,16 2,18 2,6 4,10 7,14 1,3 5,5 9,7 5,2 10,3 16,3 8,0 14,-2 19,-5 5,-4 9,-10 11,-19 1,-5 2,-14 2,-26 0,-16 -3,-26 -9,-33 -6,-6 -14,-9 -24,-9 -8,0 -14,2 -20,5 -5,4 -8,9 -10,16 -2,5 -3,14 -3,29zm155 -48c5,-3 9,-5 14,-6 5,-1 11,-2 20,-3l8 0c11,0 22,3 32,9l0 -3 0 -8 1 -13c0,-15 -2,-23 -4,-27 -2,-3 -4,-4 -8,-4 -4,0 -7,-1 -9,-2l0 -6c2,0 4,0 7,0 3,0 9,-1 18,-3l5 -1 15 -3c3,0 5,-1 6,-1 0,0 1,1 2,1 1,1 1,3 1,4l0 1 0 3c0,2 0,8 0,18l0 7 1 4 -1 6 1 13 0 8c-1,3 -1,8 -1,16 0,1 0,2 0,3l0 4c0,2 0,3 0,3 0,2 0,3 1,6l0 7 0 2c-1,3 -1,6 -1,10 0,5 0,8 1,12 0,1 0,3 0,4l0 9c0,3 0,7 0,11 2,1 6,2 14,2 2,0 4,0 5,1 1,1 1,2 1,2 0,1 0,2 -1,4 -4,1 -8,1 -13,2 -14,1 -24,3 -30,6 -3,1 -5,2 -6,2 -1,0 -2,0 -3,0 0,-2 0,-3 0,-3 0,-6 0,-10 -1,-11 -1,0 -3,1 -5,2 -7,4 -13,6 -19,7 -6,2 -12,2 -19,2 -13,0 -23,-2 -31,-6 -11,-6 -19,-13 -23,-21 -5,-8 -7,-17 -7,-27 0,-17 10,-31 29,-43zm47 83c2,0 4,0 5,0 3,0 7,0 11,-2 4,-1 8,-2 12,-5 0,-2 0,-4 0,-5 0,-26 0,-42 -1,-48 -1,-7 -5,-13 -10,-16 -6,-4 -12,-6 -20,-6 -5,0 -9,0 -13,2 -4,1 -7,3 -10,5 -4,4 -6,8 -8,13 -3,6 -4,13 -4,18 0,14 3,24 10,31 7,8 16,12 28,13z"/>
  <path class="fil1" d="M4570 4339c-14,-3 -23,-6 -28,-10 -4,-4 -6,-8 -6,-13 0,-4 1,-6 3,-8 3,-2 14,-8 34,-17 -10,-5 -17,-10 -21,-15 -5,-6 -7,-12 -7,-17 0,-6 1,-11 4,-17 5,-9 13,-15 23,-19 10,-5 23,-7 38,-7 7,0 12,1 17,1 2,1 5,2 10,3l6 2c5,3 10,5 14,8 8,-1 15,-3 21,-4 4,-1 7,-2 10,-2 2,0 3,1 4,3 2,1 2,4 2,10 0,4 0,7 -2,9 -2,2 -3,3 -5,3 0,0 -2,-1 -5,-2 -7,-3 -12,-4 -17,-4 3,6 4,11 4,16 0,6 -2,12 -7,18 -4,5 -10,10 -17,13 -11,5 -21,7 -32,7 -6,0 -11,0 -13,0 -4,-1 -9,-2 -15,-3 -9,4 -15,8 -18,10 -2,2 -3,3 -3,5 0,2 1,3 3,5 1,1 4,2 9,2 0,0 1,1 3,1 5,0 12,0 21,0 1,0 5,0 11,0 2,0 3,0 5,0 24,0 41,3 51,9 9,7 14,14 14,24 0,5 -1,9 -5,14 -3,5 -8,9 -14,12 -5,3 -14,5 -25,8 -11,2 -22,3 -35,3 -13,0 -26,-1 -36,-3 -11,-2 -19,-6 -26,-11 -4,-3 -7,-7 -7,-12 0,-4 2,-7 6,-10 4,-4 14,-8 31,-12zm38 -50c7,0 13,-3 17,-8 5,-4 8,-12 8,-22 0,-13 -2,-22 -7,-27 -4,-5 -10,-7 -18,-7 -1,0 -4,0 -8,1 -5,1 -9,3 -13,8 -4,5 -6,12 -6,20 0,2 0,7 1,13 0,3 1,6 2,8 2,3 4,6 6,7 2,2 4,4 8,5 3,1 7,2 10,2zm9 90c15,-2 26,-5 35,-10 5,-4 8,-7 8,-11 0,-1 -1,-3 -2,-5 -1,-2 -3,-3 -6,-5 -3,-2 -6,-3 -10,-4 -5,-1 -12,-1 -20,-1l-19 0c-17,0 -28,1 -33,5 -6,3 -9,8 -9,13 0,3 2,6 5,9 3,3 8,5 16,7 7,1 15,2 24,2 2,0 6,0 11,0zm91 -123c3,-7 5,-12 7,-14 6,-7 12,-13 18,-16 7,-4 13,-7 18,-8 6,-2 12,-3 16,-3 10,0 17,1 23,2 6,2 11,3 15,5 6,4 10,7 14,10 3,4 6,8 8,12 2,5 4,10 4,17l-17 -1c-5,0 -15,0 -31,-1 -6,0 -10,0 -12,0 -1,0 -6,0 -17,0l-13 0c0,1 0,2 0,3 0,4 1,9 2,14 1,5 3,9 6,13 3,3 6,7 10,9 4,3 8,5 12,6l9 2c8,0 13,0 15,0 5,-1 10,-2 13,-3 4,-2 9,-4 14,-7 3,2 6,4 9,6 -9,8 -18,14 -28,18 -9,3 -20,5 -32,5 -8,0 -15,-1 -20,-2 -7,-1 -13,-4 -18,-7 -6,-3 -10,-7 -14,-11 -4,-5 -7,-10 -9,-14 -3,-7 -4,-12 -4,-16 0,-7 1,-13 2,-19zm89 -6c0,-4 -2,-9 -4,-13 -2,-4 -5,-8 -10,-10 -4,-2 -9,-4 -13,-4 -7,0 -13,3 -19,8 -5,5 -8,11 -9,20l35 0c2,0 5,0 9,0 3,-1 5,-1 7,-1 0,0 2,0 4,0zm85 39c6,0 12,2 16,5 4,3 7,7 7,11 0,6 -2,10 -4,13 -5,5 -11,7 -18,7 -7,0 -12,-2 -16,-5 -4,-4 -6,-8 -6,-13 0,-4 1,-7 3,-9 1,-3 4,-5 9,-7 2,-2 5,-2 9,-2zm171 0c2,1 3,2 4,2 2,1 4,2 5,3 -2,8 -9,16 -20,22 -10,6 -23,9 -40,9 -10,0 -20,-2 -30,-5 -10,-4 -18,-9 -24,-14 -4,-5 -8,-10 -10,-17 -2,-6 -3,-12 -3,-16 0,-5 1,-12 4,-18 3,-7 8,-14 14,-20 7,-6 15,-11 26,-15 10,-3 21,-5 34,-5 18,0 30,2 37,7 7,4 10,9 10,13 0,5 -1,8 -4,11 -3,2 -6,4 -11,4 -5,0 -8,-1 -12,-4 -3,-2 -6,-6 -9,-11 -1,-4 -4,-7 -7,-8 -2,-2 -6,-3 -10,-3 -9,0 -18,3 -25,10 -8,7 -12,16 -12,28 0,14 5,25 14,33 9,8 20,12 31,12 6,0 11,0 15,-1 3,-1 6,-3 11,-5 1,-1 3,-3 6,-6 3,-3 5,-5 6,-6zm148 -58c7,5 11,11 15,18 3,6 4,13 4,19 0,11 -2,20 -6,27 -6,10 -15,18 -25,23 -11,5 -23,7 -37,7 -16,0 -30,-3 -41,-9 -11,-6 -19,-12 -23,-20 -5,-7 -8,-16 -8,-27 0,-6 2,-12 4,-17 2,-6 5,-11 9,-15 4,-4 8,-8 13,-10 7,-5 14,-7 20,-9 7,-2 16,-3 25,-3 22,0 38,5 50,16zm-83 43c1,11 1,16 2,18 1,6 3,10 6,14 2,3 5,5 10,7 4,2 9,3 16,3 7,0 13,-2 18,-5 5,-4 9,-10 11,-19 2,-5 2,-14 2,-26 0,-16 -3,-26 -9,-33 -6,-6 -14,-9 -24,-9 -8,0 -14,2 -19,5 -5,4 -9,9 -11,16 -1,5 -2,14 -2,29zm121 40c1,0 2,-1 3,-1 6,0 11,-1 15,-2 0,-1 1,-1 1,-2 0,-1 0,-8 1,-23l0 -7 0 -13 0 -13 0 -3c0,-4 -1,-7 -4,-9 -2,-2 -7,-4 -17,-6l0 -5c2,-1 5,-1 7,-2 10,-1 17,-4 23,-7 5,-2 10,-5 14,-10l9 0 0 2 0 10 0 5 0 2c10,-6 18,-10 24,-12 7,-2 14,-3 23,-3 8,0 15,1 23,4 7,3 14,8 19,14 7,-5 13,-9 18,-12 3,-1 8,-3 13,-4 6,-1 12,-2 17,-2 14,0 25,4 34,11 8,7 12,16 12,29l0 19c0,5 0,12 -1,22l0 9c0,2 1,4 2,5 4,2 8,3 10,3 3,0 4,1 6,2 0,1 1,2 1,3l0 3c-3,0 -5,1 -6,1 -1,0 -3,-1 -8,-1 -4,0 -9,-1 -15,-1 -16,0 -28,1 -37,2 -1,-2 -1,-4 -1,-5l0 -2c2,-1 6,-2 13,-4 2,-2 2,-2 3,-3 0,-2 0,-7 0,-14l0 -35c0,-6 -1,-11 -2,-15 -1,-4 -3,-7 -5,-9 -1,-2 -4,-4 -8,-5 -3,-2 -6,-3 -10,-3 -6,0 -12,2 -17,4 -6,3 -12,7 -16,12l0 4 0 16 0 13 0 13 0 11c0,5 0,9 2,10 2,1 7,2 15,3l4 1c1,2 1,4 1,5 0,1 0,2 0,3l-5 0 -6 0 -3 0c-7,-1 -15,-1 -22,-1l-17 -1c-4,0 -10,1 -20,2l-3 -1 0 -7c3,-1 8,-2 16,-2 1,0 2,0 2,-1 1,-1 2,-2 2,-2 1,-2 1,-5 1,-10l0 -26 0 -7c0,-13 0,-21 -1,-24 -2,-4 -5,-7 -9,-10 -5,-2 -10,-3 -17,-3 -8,0 -15,1 -21,4 -6,4 -10,6 -11,9 0,1 0,2 0,2l0 1 0 2c0,0 0,2 0,3l0 36 0 19c0,1 0,2 1,3l0 2c3,1 6,1 8,2 3,0 6,1 8,2 0,1 1,2 1,3 0,1 -1,3 -2,5 -1,0 -2,0 -3,0 -1,0 -6,-1 -15,-1l-17 -1c-8,0 -18,1 -29,2l-4 0c0,-2 -1,-3 -1,-5 0,-1 0,-2 1,-3z"/>
  <g id="_1267821085584">
   <path class="fil2" d="M2332 2996l-1057 0c-23,0 -44,-1 -64,-2l145 0c166,-8 373,-37 531,-37l376 0c206,-13 398,-44 204,-69 -277,-36 -56,-64 185,-64l1056 0c115,0 235,7 308,21l409 0c102,0 79,30 119,52l587 0c202,0 224,36 -121,85 -80,12 -607,46 -597,65 10,30 1421,15 1451,45 35,33 -46,43 -161,43l-849 0c-290,25 -613,62 -868,75 -325,19 138,123 -222,123l-879 0c51,5 186,9 445,9 805,0 1550,46 2365,46 119,0 1064,45 447,72 -119,5 -252,7 -391,7l-1056 0c-283,0 -595,-8 -890,-17 -431,23 -955,65 -793,93 3,1 7,1 10,2 35,-1 70,-1 104,-1l4 0 4 0 955 0c345,-7 748,-16 1079,-16l1057 0c334,0 596,9 653,38 90,45 -461,57 -993,57l-1056 0c-404,0 -796,-7 -886,-11l-12 -1c-130,2 -256,4 -372,4l-253 0c-300,2 -745,11 -731,57 10,49 1371,27 1550,42 149,12 853,7 602,77 -28,8 -416,56 -50,60 17,1 30,1 41,2l508 0c-181,13 -285,17 -349,17l-1056 0c-128,0 -94,-17 -200,-19 -367,-4 22,-52 49,-60 252,-70 -452,-65 -601,-77 -179,-15 -1540,7 -1550,-42 -16,-52 560,-57 844,-57l216 0c296,-2 645,-14 956,-14l1056 0c148,0 288,2 409,11 44,2 161,5 316,7 328,-6 568,-22 506,-53 -30,-15 -117,-25 -240,-31 -408,8 -809,19 -1031,19l-750 0c-153,5 -304,12 -443,12l-1057 0c-129,0 -247,-6 -345,-23 -233,-40 951,-110 1241,-110l1056 0 21 0c253,6 556,17 862,25 511,-27 -381,-70 -497,-70 -815,0 -1560,-46 -2365,-46 -697,0 -499,-30 -165,-30l744 0c15,-32 -155,-89 77,-102 377,-19 904,-91 1252,-99l633 0c3,-5 1,-11 -7,-19 -30,-30 -1441,-15 -1451,-45 -10,-19 517,-53 596,-65 187,-27 267,-49 268,-65l-579 0 -3 0c-14,0 -27,0 -39,-1 -37,26 -310,48 -478,48l-344 0c-153,12 -320,32 -446,32zm1128 -125l-35 0c11,3 25,6 42,9 -3,-3 -5,-6 -7,-9z"/>
  </g>
  <path class="fil3" d="M1739 2994c198,15 559,-54 765,-33 169,17 791,-34 491,-73 -422,-55 312,-90 513,-38 177,46 208,4 357,-4 249,-11 -49,106 517,61 378,-31 547,11 99,75 -79,12 -606,46 -596,65 10,30 1421,15 1451,45 89,84 -576,19 -626,19 -348,8 -875,80 -1252,99 -388,23 348,167 -537,110 -447,-27 -1003,22 -119,22 805,0 1550,46 2365,46 119,0 1063,45 447,72 -536,23 -1321,-15 -1868,-27 -248,-3 -1501,69 -1262,110 348,61 954,-22 1401,8 308,19 2296,-72 2465,15 159,80 -1670,57 -1879,46 -397,-27 -993,3 -1440,3 -120,0 -1004,-7 -984,57 10,49 1371,27 1550,42 149,12 853,7 602,77 -28,8 -416,56 -50,60 159,2 3,40 549,2"/>
  <g id="_1267821084176">
   <path class="fil2" d="M1906 1348l725 0c159,0 -383,-123 -86,-174 15,-3 29,-4 41,-4l120 0c-16,-26 -46,-55 -96,-83 -125,-66 -94,-105 -11,-105l228 0c41,0 95,10 149,31 -10,-46 -19,-83 -19,-85 -8,-108 123,-101 -174,-130 -173,-14 72,-123 72,-145 3,-39 27,-52 61,-52l228 0c72,0 184,60 214,60 12,0 30,11 51,29 22,-50 57,-118 76,-145 2,-3 7,-5 14,-5l228 0c77,0 415,157 376,236 -123,217 159,94 -224,261 -43,17 -62,47 -70,78l156 0c152,0 322,5 462,32 -1,-23 -4,-47 21,-47l228 0c8,0 19,3 34,9 32,11 62,26 92,41 0,-14 2,-24 12,-24l117 0c7,-71 -24,-204 29,-204l228 0c23,0 60,24 122,86 55,55 20,113 -9,166l194 0c21,0 38,29 47,116 7,78 29,121 53,144 26,5 52,10 77,15 11,0 -1,9 -21,9l-228 0c-16,0 -37,-6 -56,-24 -303,-59 -648,-115 -818,-218l-164 0c-7,0 -16,-1 -25,-3 -55,10 -96,27 -84,55 15,34 148,42 214,43l25 0 1 1 -16 0c-119,5 -335,68 -497,68l-227 0c-76,0 -140,-14 -176,-54 0,-1 -1,-1 -1,-2 -136,31 -294,84 -370,84l-227 0c-27,0 -44,-7 -45,-24 -6,-65 -9,-110 -9,-142 -6,22 -21,36 -34,36l-154 0c80,38 180,70 99,70l-114 0 0 0 -839 0 0 0zm1926 -232c-8,0 -16,0 -23,0 -11,47 4,94 4,94l-227 0c-54,-3 -103,-34 -147,-75 -7,48 -22,87 -59,90 -7,0 -14,0 -20,0l-184 0c-1,30 2,77 7,147 117,-30 252,-70 339,-70l228 0c36,0 63,7 78,24 19,22 46,36 79,44 135,-18 280,-55 368,-58 -60,-1 -211,-8 -226,-44 -24,-52 146,-67 231,-67l153 0c1,-1 3,-2 4,-3l-45 0c-15,0 -37,-5 -69,-17 -130,-49 -315,-62 -491,-65zm960 109c125,69 329,117 543,159 -8,-20 -15,-46 -19,-78l-203 0c-3,0 -6,-1 -9,-2 -81,-33 -56,-81 -28,-135l-46 0c1,26 2,56 -23,56l-215 0zm-1834 -42c-10,-9 -22,-24 -37,-45 -42,-58 -104,-98 -167,-123 2,18 26,42 83,72 77,42 106,87 112,122 2,-14 5,-22 9,-26zm289 -248l228 0c11,0 27,11 49,37 25,26 51,61 81,96 11,-12 26,-23 46,-31 383,-167 101,-44 224,-261 24,-47 -86,-121 -196,-174 -31,59 -66,135 -61,145 49,121 54,164 34,164l-228 0c-47,0 -237,-250 -294,-250 -9,0 -25,-6 -46,-14 -1,2 -1,4 -1,6 0,22 -246,131 -72,145 296,29 166,22 173,130 0,3 21,84 33,155 4,-73 1,-148 30,-148z"/>
  </g>
  <path class="fil3" d="M1906 1348l839 0c159,0 -383,-123 -87,-174 80,-14 116,7 123,80 8,79 152,-51 -58,-167 -260,-137 160,-159 311,51 145,202 37,-203 37,-210 -8,-108 122,-101 -174,-130 -174,-14 72,-123 72,-145 8,-123 232,8 275,8 80,0 427,499 260,86 -7,-14 66,-159 94,-202 22,-36 434,145 391,231 -123,217 159,94 -224,261 -109,43 -65,173 -65,173 -123,-7 -217,-159 -290,-238 -137,-160 -21,245 -144,253 -188,14 -224,-188 -195,159 7,101 556,-159 643,-58 116,130 521,-15 687,-15 72,0 -217,8 -239,-43 -28,-65 239,-72 275,-65 145,51 94,-72 217,7 181,116 579,174 904,239 29,0 -108,65 -130,-159 -29,-282 -145,43 -210,14 -159,-65 87,-188 -21,-296 -297,-297 -37,282 -232,137 -94,-72 -14,80 -72,80 -109,-8 -195,-80 -297,-116 -130,-51 37,145 -159,72 -209,-79 -564,-65 -788,-65"/>
  <g id="_1267821084848">
   <path class="fil4" d="M2313 1384c98,0 260,-25 366,-25l207 0c-5,-11 -11,-24 -17,-37 -38,-46 -74,-90 -56,-90l228 0c3,0 9,2 17,6l118 0c40,0 115,116 179,163 58,-12 108,-24 115,-24l228 0 111 7c-110,-40 -557,-147 -563,-203 -5,-38 -11,-68 -16,-90 -22,-28 -26,-52 -22,-52l228 0c3,0 12,15 21,52 18,24 48,51 96,69 80,32 127,28 170,31 43,-45 86,-103 129,-103l228 0c20,0 39,12 59,43 108,173 -43,79 -65,159 -11,36 35,76 99,101 23,-14 41,-36 49,-65 2,-8 5,-11 8,-11l115 0c2,-3 5,-7 7,-11 13,-20 36,-24 60,-24l68 0c14,-4 24,-13 24,-34 0,-49 1,-68 3,-68l228 0c5,0 19,161 40,177 12,8 24,14 35,20 38,-12 76,-24 118,-24l228 0c32,0 66,7 104,26 61,28 165,35 270,36 9,0 18,0 27,0 -6,0 -12,0 -19,0l37 0 0 0 5 0 72 0 0 0 114 0c305,0 224,36 200,47 21,1 23,2 -5,3l-227 0c-3,0 0,-1 4,-3 -71,-2 -354,-3 -388,-26l228 0c16,11 91,17 172,20 26,-14 52,-40 -193,-41 -9,0 -18,0 -26,0 15,0 31,0 47,0l-113 0 -1 0 0 0 -114 0c-120,0 -247,-4 -318,-36l0 -1c-38,12 -76,24 -118,24l-227 0c-42,0 -87,-11 -139,-45 -2,-2 -4,-5 -6,-9 -9,6 -16,8 -23,8l-81 0c-27,44 -80,62 -138,62l-227 0c-35,0 -71,-7 -104,-17l-152 0c-5,0 -12,0 -21,-1l-154 -10c-61,14 -159,34 -219,34l-228 0c-11,0 -21,0 -29,-2 -1,0 -2,-1 -3,-1 0,0 0,1 0,1 0,28 -11,38 -26,38l-228 0c-46,0 -137,-89 -148,-89 -1,0 -2,0 -3,-1 -78,7 -159,16 -217,16l-228 0zm1632 -187c-25,26 -51,47 -77,47l-228 0c-11,0 -22,-4 -32,-12 -53,-38 -88,-40 -130,-42 30,38 221,95 377,139 -9,-13 -13,-26 -9,-39 18,-67 127,-12 99,-93z"/>
  </g>
  <path class="fil3" d="M2427 1384c130,0 376,-44 448,-15 15,0 174,159 174,51 0,-43 -195,-224 -101,-181 14,7 86,268 86,80 0,-224 152,86 246,101 73,14 290,-43 304,-43l325 21c210,15 -542,-144 -549,-217 -36,-267 -94,-86 79,-21 145,57 181,0 282,72 102,79 203,-260 304,-101 109,173 -43,79 -65,159 -29,94 325,209 376,36 15,-51 51,101 130,-22 36,-58 152,15 152,-58 0,-195 15,87 43,109 203,130 297,-72 485,22 94,43 289,36 434,36l72 0c362,0 181,50 195,50 123,-7 -339,0 -383,-29"/>
  <g id="_1267821082384">
   <polygon class="fil4" points="2217,1430 6529,1451 5685,1469 1373,1448 "/>
  </g>
  <line class="fil3" x1="1795" y1="1439" x2="6107" y2= "1460" />
  <path class="fil5" d="M4930 2813c232,11 392,9 634,-51 170,-42 437,-129 554,-187 159,-78 345,-190 434,-260 10,-8 8,-15 18,-22 7,-5 21,-8 34,-15 42,-24 84,-69 134,-102 6,-4 15,-17 21,-20 6,-3 19,1 26,-2 127,-80 180,-44 186,-81 73,-14 235,5 222,-36 -70,-5 -203,9 -330,7 -14,-46 -49,-6 -120,-25 6,-18 3,-40 -3,-59 -333,-8 -932,25 -1616,75 -68,5 -191,-122 -261,-117 -422,27 -869,84 -1268,123 -169,17 -346,55 -504,32 -165,-24 -312,-114 -452,-202 -77,3 -128,7 -130,16 118,103 241,202 366,292 17,21 0,35 -33,41 -243,29 -452,61 -595,110 -75,26 -130,68 -167,91 -31,20 -50,36 -47,51 -17,8 -18,19 -48,57 -17,17 -38,79 -39,124 1004,57 1980,104 2984,160z"/>
  <path class="fil5" d="M4402 2703c931,-76 1668,-212 2171,-420 -928,252 -1919,300 -2894,388 152,49 433,38 723,32z"/>
  <path class="fil6" d="M7188 2037c-1719,144 -3438,287 -5157,431 83,-103 307,-192 836,-245 28,-18 29,-37 15,-50 -120,-86 -247,-185 -367,-286 30,-10 74,-15 126,-17 162,118 310,185 448,205 150,22 285,1 404,-18 109,-17 187,-28 212,-17 -135,16 -264,42 -388,88 -26,1 -4,22 38,42 1132,-85 2258,-177 3377,-211 7,16 12,28 11,48 5,12 -65,22 -113,24 180,9 217,-33 233,13 115,5 210,-12 325,-7z"/>
  <path class="fil6" d="M3657 2670c1243,-85 2318,-203 2919,-397 35,-11 51,-17 75,-45 77,-86 14,-99 -71,-100 -1505,162 -3051,281 -4594,405 -28,34 -35,76 -40,117 319,41 713,62 1080,56 214,-4 428,-6 631,-36z"/>
  <path class="fil2" d="M4902 2663c796,-79 1305,-206 1661,-380 -624,268 -1369,313 -2016,400 118,-7 237,-14 355,-20z"/>
  <path class="fil2" d="M2127 2397c-21,6 -37,19 -51,33 1592,-118 3298,-251 4902,-384 -6,1 -57,0 -87,0 -16,0 -20,3 -24,-1 -4,-4 -11,-13 -12,-15 3,7 1,14 -11,15 -1559,127 -3145,244 -4717,352z"/>
  <path class="fil2" d="M2631 2338c-24,-13 84,-15 187,-22 73,-6 164,-11 200,-13 14,-1 6,5 6,9l-393 26z"/>
  <path class="fil2" d="M3047 2306c-23,-13 85,-14 188,-22 73,-6 164,-11 200,-13 14,0 6,5 6,9l-394 26z"/>
  <path class="fil2" d="M3461 2273c-23,-13 85,-15 187,-23 74,-5 165,-10 201,-12 14,-1 6,5 6,9l-394 26z"/>
  <path class="fil2" d="M3878 2240c-23,-14 85,-15 187,-23 74,-6 164,-11 201,-13 14,0 5,6 6,9l-394 27z"/>
  <path class="fil2" d="M4300 2206c-25,-13 93,-15 206,-23 81,-6 180,-12 220,-13 16,-1 7,5 7,9l-433 27z"/>
  <path class="fil5" d="M4753 2174c5,-5 16,-10 22,-15 44,-42 95,-82 123,-102 24,-18 77,-39 97,-44 112,-28 243,-38 384,-50 155,-13 323,-28 509,-43 276,-22 565,-33 891,-51 0,27 -83,94 -119,155 -5,8 -22,5 -31,7 5,-4 13,-4 18,-10 64,-76 137,-158 114,-142 -120,3 -214,12 -317,19 -49,50 -102,99 -151,149 -2,2 4,8 2,10 -9,1 -24,0 -33,1 73,-55 117,-106 167,-159 -106,7 -216,15 -322,21 -53,49 -115,100 -161,155 -2,3 5,7 3,10 -11,1 -30,-1 -40,0 6,-6 20,-9 26,-15 49,-49 101,-101 148,-150 -113,7 -230,14 -340,25 -48,51 -112,105 -160,156 -4,4 5,7 1,11 -12,2 -26,-1 -39,1 5,-5 17,-8 23,-14 50,-49 98,-102 147,-152 -92,5 -214,18 -345,32 -47,50 -101,101 -148,151 -2,2 5,8 2,10 -9,-1 -25,2 -34,1 49,-52 110,-108 159,-160 -174,14 -283,22 -368,53 -84,29 -144,81 -191,129 -3,3 4,7 1,10 -8,0 -30,1 -38,1z"/>
  <path class="fil7" d="M2702 1891c185,84 299,143 475,142 133,0 294,-27 510,-53 246,-30 519,-56 795,-103 -120,12 -240,24 -360,35 84,-36 193,-75 195,-92 11,23 -22,47 -21,72 6,-28 39,-36 32,-81 -77,30 -179,64 -260,110 -130,15 -258,30 -388,45 77,-45 160,-104 237,-149 -5,35 -22,92 -7,122 -10,-37 19,-102 23,-132 -64,15 -187,108 -282,158 -129,18 -282,41 -414,51 63,-50 151,-124 215,-174 11,7 -33,109 -34,158 9,-52 54,-156 49,-183 -20,13 -165,139 -252,201 -125,12 -228,-17 -325,-58 56,-30 113,-66 169,-96 19,-4 -55,98 -35,144 -8,-58 60,-145 49,-157 -60,4 -128,72 -202,102 -62,-28 -127,-56 -169,-62z"/>
  <path class="fil2" d="M2694 1891c116,-12 202,-16 313,-27 461,-44 918,-56 1317,-45 65,2 99,45 163,53 123,-3 247,-30 370,-25 5,-19 -41,-21 -99,-25 -75,-6 -168,-18 -231,-25 -8,-3 -17,-6 -25,-10 -159,-4 -335,12 -495,1 -22,-1 -44,-5 -67,-2 -126,14 -252,15 -368,11 -73,-3 -115,2 -151,10 -75,4 -154,7 -229,10 -110,0 -188,17 -266,30 -73,4 -153,6 -226,3 -77,15 -117,17 -194,32 44,-1 115,-21 158,0 10,5 20,10 30,9z"/>
  <path class="fil5" d="M2081 2416c3,-3 -76,-28 -139,10 3,40 -9,87 3,97 4,3 6,65 -3,107 21,-80 73,-168 139,-214z"/>
  <path class="fil5" d="M1901 2647c15,-71 48,-131 88,-179 82,-99 195,-152 263,-159 2,-9 10,-10 -1,-17 -105,28 -183,77 -236,129 -108,108 -117,225 -114,226z"/>
  <path class="fil5" d="M2613 1666c6,-2 9,2 15,0 -52,-390 -111,-732 -179,-1067 68,357 128,710 164,1067z"/>
  <path class="fil6" d="M2618 1667c5,-2 11,0 17,-2 -50,-390 -118,-731 -184,-1066 66,357 132,711 167,1068z"/>
  <path class="fil5" d="M2611 1860c8,-1 17,-1 25,-2 -7,-66 -14,-132 -21,-197 6,0 12,1 18,1 -1,-3 -1,-6 -1,-10 -7,-1 -13,4 -19,3 -1,-8 1,-22 0,-30 7,0 11,0 18,0 -9,-25 -14,-41 -11,-55 -6,-4 -10,-2 -10,18 4,2 8,5 12,7 1,8 1,15 2,22 -7,1 -14,-1 -21,0 3,80 9,161 8,243z"/>
  <polygon class="fil5" points="2541,1072 2535,1074 2528,1035 2534,1037 "/>
  <path class="fil6" d="M2613 1821c-21,-56 -28,-109 -8,-154 -66,17 -133,39 -219,51 -9,16 8,38 12,59 0,16 -3,26 -9,32 19,7 25,-4 67,33 23,-11 45,-27 68,-17 29,5 59,2 89,-4z"/>
  <path class="fil8" d="M2594 1672c1,8 -8,19 -7,27 -10,-1 -33,6 -45,7 -38,2 -71,4 -92,19 0,4 -1,7 -1,11 -19,-9 -35,-5 -50,0 -3,5 -5,9 -8,14 -6,-8 -8,-18 -4,-31 68,-9 140,-27 207,-47z"/>
  <path class="fil8" d="M2595 1801c2,6 5,12 7,19 -24,5 -50,7 -78,3 -23,-10 -48,7 -72,20 -12,-26 -39,-31 -62,-34 10,1 20,-5 30,-3 42,12 109,-8 175,-5z"/>
  <path class="fil2" d="M2591 1775c-4,-18 -7,-33 -5,-49 -32,-7 -45,8 -97,8 -30,-1 -55,16 -101,11 6,13 10,25 11,40 7,6 22,8 43,2 47,-9 98,-10 149,-12z"/>
  <polygon class="fil5" points="2683,1843 2683,1790 2650,1789 2646,1809 2645,1850 "/>
  <path class="fil8" d="M2646 1850l36 -5 -1 -28c-12,7 -23,8 -35,1l0 32z"/>
  <path class="fil8" d="M2661 1797c3,0 6,3 6,7 0,4 -3,7 -6,7 -4,0 -7,-3 -7,-7 0,-4 3,-7 7,-7z"/>
  <path class="fil5" d="M2666 2573c11,-2 8,13 3,31 14,-4 23,-20 25,-48 32,-14 39,-27 49,-40 18,-5 23,-8 21,-11 -6,-2 -15,1 -20,0 9,-8 21,-16 16,-20 -1,-5 -5,8 -28,9 -9,1 -37,-17 -93,24 -4,6 -43,5 -55,26 18,-5 24,2 18,11 -5,8 -29,50 -26,60 -2,12 -1,23 -3,34 -20,3 -24,25 -30,46 12,-14 28,-19 41,-27 6,3 11,7 24,15 -7,-18 -10,-29 -21,-30 19,-38 46,-60 79,-80z"/>
  <path class="fil9" d="M2065 2548l-1 -10 42 -3c7,-1 12,0 16,1 4,1 7,3 9,6 2,3 3,6 4,9 0,3 0,5 -1,7 -1,3 -3,5 -4,6 -2,2 -5,4 -8,5 4,1 6,2 8,3 3,1 5,3 7,5 2,3 3,6 3,9 0,4 0,8 -3,12 -2,3 -5,6 -9,8 -4,2 -11,3 -19,4l-40 3 0 -10 3 -1c2,0 3,0 4,0 0,-1 1,-1 1,-2 0,-1 0,-2 0,-4l-3 -42c0,-2 0,-4 -1,-4 0,-1 -1,-1 -1,-2 -1,0 -2,0 -4,0l-3 0zm29 18l8 0c4,-1 7,-1 9,-2 2,-1 4,-2 5,-4 1,-1 1,-3 1,-5 0,-2 -1,-3 -2,-5 -1,-1 -3,-2 -5,-2 -1,-1 -5,-1 -10,-1l-8 1 2 18zm0 11l2 17c0,2 0,3 0,4 0,0 1,0 1,1 1,0 2,0 4,0l5 -1c3,0 6,-1 8,-1 2,-1 4,-2 5,-4 1,-2 2,-5 2,-7 -1,-2 -1,-4 -2,-6 -2,-1 -3,-2 -5,-3 -2,-1 -6,-1 -10,0l-10 0zm49 -45l37 -3 1 11 -4 0c-1,0 -3,0 -3,1 -1,0 -1,1 -2,1 0,1 0,2 0,4l3 43c0,1 0,2 1,3 0,0 0,1 1,1 0,0 1,0 3,0 4,-1 8,-1 11,-3 3,-1 5,-4 7,-7 3,-2 4,-6 6,-11l10 2 -8 29 -57 4 -1 -10 4 -1c1,0 2,0 3,0 1,-1 1,-1 1,-2 1,-1 1,-2 1,-4l-3 -42c-1,-2 -1,-3 -1,-4 -1,-1 -1,-1 -2,-1 -1,-1 -2,-1 -3,-1l-4 1 -1 -11zm68 -5l37 -3 0 11 -3 0c-2,0 -3,0 -4,1 0,0 -1,1 -1,2 0,0 0,2 0,4l2 27c0,6 1,9 2,12 1,2 3,4 5,5 2,1 5,2 8,2 3,-1 5,-2 8,-3 2,-2 3,-4 4,-6 1,-2 1,-6 1,-11l-2 -30c-1,-1 -1,-2 -1,-3 -1,0 -1,-1 -2,-1 0,0 -2,0 -4,0l-3 0 0 -10 31 -3 0 11 -2 0c-3,0 -4,0 -5,1 0,0 -1,1 -1,2 -1,0 -1,2 0,4l2 30c0,5 0,10 -2,14 -1,5 -5,9 -9,12 -5,3 -10,5 -17,5 -4,1 -9,0 -12,-1 -4,-1 -7,-3 -10,-5 -3,-3 -5,-5 -7,-8 -1,-3 -2,-7 -2,-13l-2 -29c-1,-2 -1,-4 -1,-5 -1,-1 -1,-1 -2,-2 -1,0 -2,0 -4,0l-3 0 -1 -10zm84 -6l62 -5 10 23 -9 4c-2,-3 -4,-6 -6,-8 -3,-3 -5,-4 -8,-5 -3,0 -6,0 -10,0l-11 1 1 19 4 -1c3,0 5,0 6,-1 1,0 1,-1 2,-2 0,-1 0,-3 0,-5l0 -3 9 -1 3 32 -10 1 0 -4c0,-2 -1,-3 -1,-4 -1,-1 -1,-2 -2,-2 -1,0 -3,-1 -6,0l-4 0 1 17c1,2 1,3 1,3 0,1 1,1 1,1 1,0 2,0 3,0l7 0c4,0 8,-1 11,-3 4,-2 6,-4 9,-7 2,-3 4,-7 5,-11l10 2 -8 29 -65 5 -1 -11 2 0c3,0 5,0 5,-1 1,0 2,-1 2,-2 0,0 0,-2 0,-4l-3 -41c0,-2 -1,-4 -1,-4 0,-1 -1,-1 -1,-2 -1,0 -2,0 -4,0l-4 0 0 -10zm79 -6l62 -5 10 24 -9 4c-2,-4 -4,-6 -5,-8 -2,-1 -4,-3 -6,-4 -2,-1 -4,-1 -6,-2 -2,0 -5,0 -9,1l-9 0 2 20 4 0c2,0 3,-1 4,-1 1,-1 2,-2 3,-3 0,-1 0,-2 0,-4l0 -4 9 -1 3 34 -10 1 0 -5c0,-2 -1,-3 -1,-3 0,-1 -1,-2 -1,-2 -1,-1 -2,-1 -2,-1 -1,0 -3,0 -4,0l-5 0 2 16c0,2 0,3 0,4 1,0 1,1 2,1 1,0 2,0 4,0l3 0 1 10 -37 3 0 -10 2 -1c3,0 5,0 5,-1 1,-1 1,-2 1,-4l-3 -43c0,-2 0,-4 -1,-4 0,-1 -1,-1 -1,-2 -1,0 -3,0 -5,0l-2 0 -1 -10zm74 -6l37 -2 0 10 -3 0c-2,1 -3,1 -4,1 0,1 -1,1 -1,2 0,1 0,2 0,4l3 42c0,2 0,3 1,4 0,1 0,1 1,1 1,1 2,1 3,1l4 -1 1 11 -36 2 -1 -10 3 0c2,0 3,-1 4,-1 1,0 1,-1 1,-2 1,0 1,-2 0,-4l-3 -41c0,-2 0,-4 0,-5 -1,0 -1,-1 -2,-1 -1,0 -2,-1 -4,0l-3 0 -1 -11zm45 -3l30 -2 25 42 -2 -27c0,-2 0,-3 -1,-4 0,-1 0,-1 -1,-2 -1,0 -2,0 -4,0l-3 0 -1 -10 31 -2 1 10 -4 0c-2,0 -3,1 -3,1 -1,1 -2,1 -2,2 0,1 0,2 0,4l4 58 -15 1 -32 -53 3 39c0,2 0,3 1,4 0,1 0,1 1,1 1,1 2,1 4,1l3 -1 1 11 -31 2 -1 -10 4 -1c1,0 3,0 3,0 1,-1 1,-1 2,-2 0,-1 0,-2 0,-3l-3 -43c0,-2 -1,-3 -1,-4 0,-1 -1,-1 -2,-1 0,-1 -1,-1 -3,-1l-4 1 0 -11z"/>
  <path class="fil7" d="M5261 2814c-177,-11 -360,-84 -536,-81 -112,23 -480,-23 -601,16 -86,26 -369,-54 -482,-16 -81,17 -541,-80 -574,-39 -49,34 -369,-18 -547,5 -9,21 -210,-33 -292,-32 -76,7 -215,-43 -277,-10 -442,-78 -325,-3 -433,11 -549,-2 -474,44 -661,70 1456,-121 3214,155 4403,76z"/>
  <path class="fil9" d="M5749 2305c0,5 -1,9 -3,11 -2,2 -7,3 -15,3l-56 5 -1 -9 11 -1 -4 -42c-1,1 -3,1 -5,1 -3,1 -7,0 -10,-2 -3,-2 -4,-5 -5,-8 0,-3 1,-5 4,-8 2,-2 6,-3 9,-4 6,0 11,1 14,4 4,3 6,7 6,13l4 45 33 -3c3,0 4,-1 4,-4l-5 -58 13 -1 6 58zm-73 -39c1,0 2,0 3,-1 1,-1 1,-2 1,-3 0,-1 0,-2 -1,-3 -1,0 -3,-1 -4,-1 -1,1 -2,1 -3,2 -1,1 -2,2 -1,3 0,1 0,2 1,2 1,1 2,1 4,1zm168 45l-13 1 -1 -14c-4,-6 -8,-11 -14,-15 -5,-4 -11,-6 -17,-5 -5,0 -9,2 -11,4 -3,2 -4,6 -3,10l0 2c2,0 3,-1 5,-1 4,0 7,1 10,3 3,2 5,4 5,7 0,3 -1,6 -3,8 -3,3 -6,4 -10,4 -6,1 -11,0 -14,-3 -4,-3 -6,-7 -6,-13l-1 -6c0,-6 2,-12 7,-16 4,-5 11,-7 21,-8 6,-1 11,0 17,3 5,2 9,6 12,10l-1 -16c-1,-5 -3,-9 -6,-12 -4,-2 -10,-3 -19,-3 -7,1 -13,2 -17,5 -4,2 -6,5 -7,10l-13 -1c1,-7 5,-12 11,-16 7,-4 15,-7 27,-8 12,-1 21,1 27,4 6,4 9,10 10,19l4 47zm-53 -3c2,0 3,0 4,-1 1,-1 1,-2 1,-3 0,-1 -1,-2 -2,-3 -1,0 -2,-1 -3,-1 -2,1 -3,1 -4,2 -1,1 -1,2 -1,3 0,1 1,2 2,2 1,1 2,1 3,1zm52 30l-31 2 -1 -7c-2,0 -4,-1 -6,-2 -2,-1 -4,-3 -4,-5 0,-2 1,-4 3,-5 1,-2 4,-3 6,-3 3,0 5,0 7,1 2,2 3,3 3,5l1 9 12 -1 -1 -16 9 0 2 22zm-32 -10c1,0 2,0 3,-1 0,-1 0,-1 0,-2 0,-1 0,-1 -1,-2 -1,0 -2,-1 -2,-1 -1,0 -2,1 -3,1 -1,1 -1,2 -1,2 0,1 1,2 1,2 1,1 2,1 3,1zm147 -26l-15 1 -25 -46c-1,-2 -3,-6 -4,-11 -1,5 -2,9 -3,11l-16 50 -15 1 -5 -50c-1,0 -3,0 -5,1 -3,0 -7,-1 -10,-3 -3,-2 -5,-4 -5,-7 0,-3 1,-6 4,-9 2,-2 6,-3 9,-4 6,0 11,1 14,4 4,3 6,7 6,13l4 38c2,-9 4,-15 4,-16l13 -41 7 -1c16,32 25,49 27,54l-8 -91 13 -1 10 107zm-88 -51c1,0 2,0 3,-1 1,-1 1,-2 1,-3 0,-1 0,-2 -1,-2 -1,-1 -3,-1 -4,-1 -1,0 -2,0 -3,1 -1,1 -2,2 -2,3 1,1 1,2 2,2 1,1 2,1 4,1zm60 -33c-5,-5 -13,-7 -22,-6 -5,0 -9,1 -11,3 -3,2 -5,3 -5,6l38 -3zm15 6l-63 4 0 -1c-1,-5 1,-10 5,-14 4,-5 11,-7 20,-8 8,0 15,1 22,4 7,3 12,8 16,15zm63 74l-14 1 -4 -50c-2,0 -3,1 -5,1 -4,0 -7,-1 -10,-3 -3,-2 -5,-4 -5,-7 -1,-3 1,-6 3,-8 3,-3 6,-4 10,-4 6,-1 10,0 14,3 3,3 5,7 6,13l4 45c11,-8 21,-14 31,-18l-4 -47 13 -1 4 46c6,1 11,2 15,4 4,3 6,6 6,9 0,4 -1,7 -3,9 -2,2 -6,4 -10,4 -12,1 -19,-5 -20,-16 -10,4 -20,10 -31,19zm-24 -63c-2,0 -3,0 -4,1 -1,1 -1,2 -1,3 0,1 1,2 2,3 1,0 2,1 3,1 2,0 3,-1 4,-2 1,-1 1,-2 1,-3 0,-1 -1,-2 -2,-2 -1,-1 -2,-1 -3,-1zm68 41l1 7c0,1 0,3 1,4 1,0 3,1 4,1 2,0 3,-1 3,-2 1,-1 2,-2 2,-3 -1,-2 -2,-3 -4,-4 -1,-2 -4,-2 -7,-3z"/>
  <g id="_1267560870592">
   <path class="fil7" d="M5238 835c-2,-1 -5,-1 -7,-2l-7 0c5,4 14,6 14,6 27,14 20,23 32,43 2,5 5,9 8,14 -1,-7 -1,-13 1,-15 4,-3 8,-4 13,-4l36 0c33,0 95,41 100,50 1,1 2,2 2,3l21 0c4,0 6,-1 8,-1 2,-2 4,-3 7,-5l-1 0c-17,0 -45,-12 -54,-14 -21,-5 -91,-63 -32,-63 30,0 -2,-14 -13,-16 -6,0 -11,0 -17,-1 -15,2 -32,8 -49,9 2,0 3,0 4,0l-8 0c-1,0 -2,0 -2,0l-36 0c-5,0 -10,0 -15,-1 -5,-2 -6,-3 -5,-3zm69 -10c12,1 23,2 31,2l-27 0c3,1 5,2 7,3 1,0 1,0 2,0l36 0c13,0 32,0 45,1 12,2 43,16 14,16 -59,0 11,58 32,63 4,1 14,5 25,8 4,-4 8,-7 9,-7l0 0 36 0c0,0 0,0 0,1 0,8 -6,11 -15,12 -3,2 -5,3 -8,5 -2,1 -11,1 -19,1l-25 0c-9,3 -6,18 -6,25l0 6 0 0 0 0 0 0 0 0 0 1 0 0 0 0 0 0 0 1 0 0 0 0 0 0 0 0 0 0 0 1 0 0 0 0 0 0 0 0 0 0 0 1 0 0 0 0 0 0 0 0 0 0 0 1 0 0 0 0 0 0 0 0 0 1 0 0 0 0 0 0 0 0 0 0 0 0 0 1 0 0 0 0 0 0 0 0 0 0 0 0 0 0 0 1 0 0 0 0 0 0 0 0 0 0 0 0 0 1 0 0 0 0 0 0 0 0 0 0 0 0 0 0 0 0 0 1 0 0 0 0 0 0 0 0 0 0 0 0 0 0 0 0 0 0 0 0 0 1 0 0 0 0 0 0 0 0 0 0 0 0 0 0 0 0 0 0 0 0 0 0 0 0 0 0 0 0 0 0 0 1 0 0 0 0 0 0 0 0 0 0 0 0 0 0 0 0 0 0 0 0 0 0 0 0 0 0 0 0 0 0 0 0 0 0 0 0 0 0 0 0 0 0 0 0 0 0 -35 0 0 0 0 0 0 0 0 0 0 0 0 0 0 0 0 0 0 0 0 0 0 0 0 0 0 0 0 0 0 0 0 0 0 0 0 0 0 0 0 0 0 0 0 0 0 0 0 -1 0 0 0 0 0 0 0 0 0 0 0 0 0 0 0 0 0 0 0 0 0 0 0 0 0 0 0 0 0 0 0 -1 0 0 0 0 0 0 0 0 0 0 0 0 0 0 0 0 0 0 0 0 0 -1 0 0 0 0 0 0 0 0 0 0 0 0 0 0 0 0 0 -1 0 0 0 0 0 0 0 0 0 0 0 0 0 -1 0 0 0 0 0 0 0 0 0 0 0 0 0 0 0 -1 0 0 0 0 0 0 0 0 0 0 0 0 0 -1 0 0 0 0 0 0 0 0 0 -1 0 0 0 0 0 0 0 0 0 0 0 -1 0 0 0 0 0 0 0 0 0 0 0 -1 0 0 0 0 0 0 0 0 0 0 0 -1 0 0 0 0 0 0 0 -1 0 0 0 0 0 0c0,-12 -9,-23 -16,-34 -5,-7 -46,-35 -79,-45 -5,6 8,37 3,37l-35 0c-28,-4 -39,-21 -48,-37 -11,-20 -5,-29 -32,-43 0,0 -29,-9 -13,-15l32 0c2,-5 8,-7 15,-7l36 0c11,0 25,4 35,8zm-51 0l14 0c-3,-2 -7,-3 -11,-4 -1,1 -2,2 -3,4zm16 1c-2,0 -5,0 -7,1 -3,1 -5,3 -6,4 0,1 1,1 2,1 10,-1 20,-1 23,-1 1,0 -4,-2 -12,-5zm32 6c-12,0 -28,1 -30,3 3,0 6,1 9,1 7,-1 14,-3 21,-4z"/>
  </g>
  <path class="fil3" d="M5286 839c-14,0 -80,-15 -80,-15 -15,6 14,15 14,15 27,14 20,23 32,43 9,16 20,33 47,37 5,0 -9,-34 -2,-38 25,-17 107,35 114,46 6,11 15,22 15,34 0,25 0,6 0,-6 0,-8 -4,-25 10,-25 6,0 36,2 40,-1 9,-5 23,-20 23,-17 0,26 -57,1 -70,-2 -21,-5 -91,-63 -32,-63 29,0 -2,-14 -14,-16 -13,-1 -31,-1 -45,-1 -23,0 -50,14 -77,8 -23,-7 34,-7 41,-7 4,0 -64,-30 -64,-3 0,11 2,0 9,-1 18,-5 55,0 73,0"/>
  <g id="_1267560859200">
   <g>
    <path class="fil7" d="M4589 1075c-2,-4 -4,-10 -7,-16 0,1 0,2 0,3l0 20c1,11 3,20 13,22l0 -28c0,-9 3,-16 8,-21 -4,0 -9,-1 -14,-1l0 21zm-317 -50l0 32c10,0 20,1 30,4 13,5 27,39 41,52l0 -42c0,-23 15,-48 48,-48 4,0 8,0 13,-1 -1,-1 -1,-1 -1,-2l0 -26c-1,-2 -5,-3 -10,-3 -14,0 -35,2 -49,2 -16,2 -16,12 -16,27 0,7 -35,-17 -51,-5 -2,1 -3,5 -5,10zm-4 32l0 -47c0,-16 4,-38 9,-43 16,-12 51,12 51,5 0,-14 0,-24 16,-27 10,0 22,-1 33,-1 0,-1 0,-2 0,-2l0 -48c0,-9 3,-18 8,-27 -7,1 -13,3 -20,5 -35,15 -18,63 -65,75 -16,5 -58,58 -67,75 -2,3 -5,5 -9,8 3,2 5,3 6,5 13,17 25,20 38,22zm138 -87l0 8c2,1 6,1 13,-1 5,-2 10,-3 14,-4 -10,0 -19,-1 -27,-3zm86 90c-41,4 -81,10 -101,10 -22,0 -35,11 -42,25 5,11 16,19 30,19 10,0 14,1 14,2l0 48c0,3 -27,7 -44,0 -16,-7 -33,-50 -47,-55 -27,-10 -48,5 -72,-27 -11,-14 -74,-5 -76,-17l0 -47c0,-5 72,-29 79,-44 9,-16 51,-70 67,-74 47,-12 30,-61 65,-75 37,-15 78,-6 78,-3l0 47c0,1 -1,1 -3,1 -18,0 -42,21 -55,44 23,19 92,8 115,10 25,2 61,49 79,82 26,0 47,4 59,12 20,14 28,21 28,25l0 48c0,5 -16,3 -35,3 -12,0 -21,3 -27,8 3,2 7,3 7,3l0 47c0,1 -3,0 -11,0 -16,0 -18,-13 -18,-29l0 -21c-1,-21 -7,-41 -44,-41 -7,0 -34,1 -46,-1zm-36 -88c16,6 17,26 33,39 1,0 2,1 3,1 19,-2 38,-4 56,-5 -16,-19 -34,-35 -48,-36 -9,-1 -26,1 -44,1z"/>
   </g>
   <path class="fil3" d="M4589 1051c-9,-29 -58,-101 -89,-103 -25,-3 -107,12 -121,-17 -14,-32 33,-85 61,-85 16,0 -33,-14 -75,3 -35,14 -18,62 -65,74 -16,5 -58,58 -67,75 -7,15 -79,39 -79,44 2,12 65,2 76,17 24,31 45,16 72,26 14,5 31,48 47,56 23,9 65,-3 30,-3 -49,0 -51,-92 12,-92 49,0 205,-33 247,-4 49,33 25,29 -7,29 -28,0 -42,14 -33,48 2,12 26,10 2,10 -44,0 17,-92 -62,-92 -7,0 -42,2 -49,-3 -24,-19 -14,-53 -70,-33 -35,12 5,-34 -26,-34 -14,0 -35,2 -49,2 -16,3 -16,12 -16,27 0,7 -35,-17 -51,-5 -7,7 -14,55 -5,58"/>
   <g>
    <path class="fil7" d="M3915 694c1,3 6,5 11,7l0 -6c0,-1 2,2 4,7 14,5 33,9 41,14 45,29 57,41 111,51 64,10 56,58 94,72 6,2 75,28 75,41l0 48c0,4 -8,7 -30,7 -64,0 -146,7 -210,17 -21,2 -62,43 -77,63 -17,21 -22,21 -22,12l0 -47c0,-7 3,-19 6,-31 -23,-30 -102,-21 -127,-4 -21,12 -83,118 -83,135 0,19 0,19 0,11l0 -47c0,-12 1,-41 4,-48 4,-11 27,-50 42,-82 -20,0 -54,6 -54,3l0 -48c0,-1 6,-4 23,-10 30,-10 62,0 92,-20 23,-14 47,-43 74,-43 28,0 46,0 56,-3 -2,-6 -5,-13 -8,-20 -4,-11 -7,-19 -9,-24 -6,-2 -11,-5 -13,-7l0 -48zm39 78c0,7 2,43 17,38 8,-2 17,-21 26,-29 -8,-5 -16,-11 -26,-17 -4,-3 -12,-5 -20,-8 2,6 3,12 3,16zm65 22c0,1 1,3 1,4 9,28 14,16 19,5 -7,-2 -14,-6 -20,-9zm161 94l0 0 1 0 -1 0zm-19 1c-15,-16 -34,-34 -47,-36 -13,-2 -38,19 -60,-10 -15,-19 -19,51 -34,3 -17,-53 -34,7 -49,12 -15,5 -17,-32 -17,-39 0,0 0,-1 0,-1l0 9c0,17 -18,16 -65,16 -27,0 -51,29 -74,44 0,0 -1,1 -2,1 42,-12 111,-10 111,33l0 48c0,2 -1,6 -2,12 3,-3 7,-8 12,-14 15,-19 56,-60 77,-63 45,-6 99,-12 150,-15zm-394 11l0 22c0,1 0,1 0,2 10,-14 18,-24 24,-27 0,0 0,0 1,0 -8,2 -16,3 -25,3z"/>
   </g>
   <path class="fil3" d="M3915 718c6,7 43,15 56,22 45,29 57,41 111,51 64,9 56,58 94,72 8,2 130,48 45,48 -64,0 -146,8 -210,17 -21,3 -62,44 -77,63 -44,55 -10,-31 -10,-46 0,-53 -103,-43 -133,-24 -21,12 -83,118 -83,135 0,48 -2,-24 4,-36 7,-19 69,-121 53,-128 -17,-7 -108,14 -42,-10 30,-9 62,0 92,-19 23,-14 47,-43 74,-43 75,0 77,2 48,-70 -32,-83 15,21 17,45 0,8 2,44 17,39 15,-5 32,-65 49,-12 15,48 19,-22 34,-2 22,29 47,7 60,9 19,3 53,44 66,56"/>
   <g>
    <path class="fil7" d="M3834 717l0 19c0,3 0,7 -1,10l0 -20c0,-2 -1,-5 -2,-8 -30,15 -73,-23 -107,-23 -72,0 -93,51 -163,51 0,0 0,0 0,0l0 -48c0,0 17,-5 23,-14 -28,-43 -143,-28 -143,56 0,44 -33,66 -54,77 -3,5 -8,8 -16,8 -1,0 -1,0 -1,-1l0 -47c0,-1 7,-3 17,-8 2,-3 3,-7 4,-11 -13,-62 -125,-9 -125,-12l0 -47c3,-15 21,-27 36,-31 0,0 81,-18 84,-30 9,-45 15,-54 55,-81 18,-12 60,-51 90,-51 25,0 50,1 61,-18 -15,-32 -55,-74 -55,-77l0 -47c0,0 0,0 0,0 18,-3 52,12 64,21 20,14 62,94 74,102 38,-15 44,-3 50,11 11,5 21,11 29,20 24,5 97,77 97,122l0 48c0,7 -2,13 -6,19 -3,4 -7,8 -11,10zm-60 -141c6,36 47,59 57,95 5,-2 9,-5 13,-10 -14,-32 -47,-68 -70,-85zm-20 -11c-1,0 -2,0 -2,0 -18,0 -23,-10 -27,-20 -15,-7 -31,-10 -49,-10 0,0 -1,0 -1,-1 -1,1 -1,1 -2,1 -12,3 -90,45 -100,36l0 -21c-11,4 -27,3 -42,3 -30,0 -72,39 -90,51 -40,28 -46,37 -55,82 0,1 -2,3 -5,5 7,7 11,17 11,32 0,5 1,10 1,15l0 28c20,-11 48,-33 48,-73 0,-96 149,-103 149,-35l0 37c49,-11 73,-48 134,-48 24,0 53,19 78,25 -15,-17 -29,-35 -29,-59 0,-19 -7,-35 -19,-48zm-157 -45c15,-5 36,-15 51,-22 -16,-26 -35,-57 -47,-66 -5,-3 -12,-7 -20,-11 9,15 17,29 17,39l0 48c0,4 -1,9 -1,12z"/>
   </g>
   <path class="fil3" d="M3833 722c9,-57 -60,-81 -60,-132 0,-49 -46,-79 -97,-79 -9,0 -54,-87 -75,-102 -12,-9 -46,-25 -64,-22 -3,0 61,67 61,97 0,48 -34,45 -67,45 -30,0 -72,40 -90,52 -40,27 -46,36 -55,81 -3,12 -84,30 -84,30 -15,3 -33,15 -36,30 0,3 126,-57 126,25 0,24 3,54 -21,54 -12,0 70,-15 70,-85 0,-105 181,-102 145,-12 -3,12 -31,18 -25,18 70,0 91,-51 163,-51 40,0 91,51 121,12 30,-42 -69,-142 -93,-142 -43,0 -10,-57 -79,-30 -12,3 -90,45 -100,36"/>
   <g>
    <path class="fil7" d="M3079 614c6,12 8,26 8,41l0 47c0,1 0,1 0,2 0,2 0,5 1,7 0,2 0,4 0,6l0 30c2,-2 5,-4 7,-5 -1,-9 -1,-17 -1,-26l0 -48c0,-99 18,-12 18,37l0 47c0,5 -1,10 -2,14 21,57 66,99 144,99 21,0 37,-15 46,-33 -3,-3 -8,-6 -13,-7 0,0 -1,0 -1,0l0 -48c0,0 0,0 1,0l0 0c5,0 42,1 45,6 36,76 24,139 145,139 22,0 123,109 123,146l0 48c0,3 -1,5 -2,7 -15,24 -127,-33 -160,-33 -64,0 -100,15 -157,36 -36,15 -67,24 -67,20l0 -48c0,-3 14,-11 49,-28 1,-1 1,-1 2,-1 -20,-14 -49,-24 -54,-27 -41,-31 -87,-105 -99,-163 -3,-2 -7,-4 -9,-6 -25,-19 -34,-36 -34,-48l0 -22c-29,10 -66,7 -84,-12 -10,-10 -16,-45 -16,-50l0 -47c0,-2 1,2 4,20 8,45 97,53 113,15l0 -41c0,-1 0,-1 0,-2 -1,-9 -3,-17 -7,-24l0 -48zm26 213c-5,-14 -14,-19 -21,-19 5,5 11,11 19,17 1,1 1,1 2,2zm7 4c3,2 6,4 9,6 -5,-8 -9,-17 -12,-26 0,7 1,13 3,20zm157 78c7,-1 16,-4 27,-8 4,0 52,19 81,33 -20,-26 -25,-63 -45,-103 -1,-3 -14,-5 -26,-6l0 28c0,21 -14,47 -37,56zm253 94l0 30c-15,-3 -24,-24 -60,-24 -24,0 -51,3 -64,-15 -3,-6 -96,-46 -102,-46 -60,24 -42,-6 -79,-15 -19,-4 -54,-23 -83,-41 20,42 50,82 77,102 7,5 74,27 74,52l0 31c55,-20 91,-34 153,-34 28,0 115,42 148,39 -15,-26 -41,-57 -64,-79zm-421 -268c4,-5 7,-10 9,-16 -4,-37 -13,-71 -16,-30 1,16 3,31 7,46z"/>
   </g>
   <path class="fil3" d="M3079 638c15,27 3,66 9,96 9,58 -106,55 -115,4 -9,-55 -3,15 12,30 33,33 127,18 127,-40 0,-48 -18,-135 -18,-36 0,100 42,196 160,196 48,0 72,-78 33,-87 -6,0 42,0 45,6 36,75 24,139 145,139 24,0 139,126 121,154 -15,24 -127,-34 -160,-34 -64,0 -100,15 -157,37 -61,24 -106,33 -18,-9 69,-34 -43,-70 -52,-76 -48,-36 -102,-130 -102,-190 0,-78 -85,-39 -6,21 27,18 87,54 114,60 37,10 19,40 79,16 6,0 99,39 102,45 13,18 40,15 64,15 36,0 45,21 60,24"/>
   <g>
    <path class="fil7" d="M3154 1146c-13,-14 -27,-25 -43,-30 -6,-2 -12,-3 -18,-4 19,13 21,32 61,34zm-241 66l0 1c0,0 0,0 0,-1l0 -25c-24,7 -53,14 -62,21 -27,17 -73,34 -73,72 0,15 -10,21 -23,26 3,4 5,11 5,19l0 48c0,1 -1,3 -1,5 10,-1 29,-70 29,-73 22,-43 94,-51 135,-51 29,0 111,-14 111,27l0 43c21,-9 40,-25 51,-43 16,-26 96,-39 143,-42 -22,-14 -40,-46 -68,-46 -68,0 -37,-46 -119,-46 -33,0 -121,57 -128,65zm102 -106c-7,-3 -14,-9 -22,-16 -9,-10 -29,-17 -48,-22 4,8 5,17 5,32l0 1 0 38c20,-12 45,-25 65,-33zm263 97c11,4 18,11 18,18l0 47c0,9 -13,17 -45,17 -38,0 -147,12 -166,44 -17,26 -51,50 -85,48 -18,-2 -25,-4 -25,-7l0 -47c0,-5 20,-11 37,-20 -27,-8 -70,-1 -89,-1 -41,0 -113,7 -135,51 0,2 -20,74 -29,72 -3,0 -3,-4 -3,-8l0 -48c0,-4 0,-8 1,-13 -2,-5 -6,-8 -13,-8 -24,0 -58,29 -67,48 -2,4 -3,6 -3,5l0 -47c0,-2 26,-62 32,-71 21,-29 72,-16 72,-50 0,-39 46,-56 73,-73 15,-11 89,-25 98,-32 -3,-19 -12,-24 -45,-51 -4,-3 -6,-5 -6,-7l0 -48c0,-13 74,-1 95,20 41,41 68,10 118,27 46,14 80,87 106,94 29,9 39,7 61,34l0 6z"/>
   </g>
   <path class="fil3" d="M3278 1220c-22,-26 -32,-24 -61,-34 -26,-7 -60,-79 -106,-94 -50,-17 -77,15 -118,-26 -24,-24 -118,-36 -89,-12 50,41 46,31 46,96 0,8 -83,22 -99,34 -27,17 -73,34 -73,72 0,34 -51,22 -72,51 -8,10 -41,92 -29,65 9,-19 43,-48 67,-48 32,0 3,75 15,77 9,3 29,-70 29,-72 22,-44 94,-51 135,-51 29,0 111,-14 111,27 0,29 -106,41 -34,48 34,2 68,-22 85,-48 19,-32 128,-44 166,-44 73,0 46,-41 -5,-41 -31,0 -50,-50 -86,-50 -68,0 -37,-46 -119,-46 -36,0 -135,65 -128,65"/>
   <g>
    <path class="fil7" d="M3855 1254c-5,-3 -10,-6 -16,-7 -48,-12 -100,27 -109,-42 -5,-30 -52,-66 -66,-54l0 41c0,3 0,5 0,8 22,3 44,11 66,27 12,9 25,27 46,24 31,-6 56,-4 79,3zm-272 -39c-67,7 -141,58 -160,117 -3,8 -11,13 -20,16 6,6 11,15 11,27 0,84 9,-43 57,-61 51,-21 84,-39 145,-27 30,6 105,33 105,63l0 40c50,-20 77,-67 127,-67 9,0 36,4 62,6 -37,-25 -76,-42 -134,-31 -21,3 -34,-15 -46,-24 -48,-33 -90,-30 -147,-30l0 -29zm390 116l0 48c0,8 -105,-8 -125,-8 -63,0 -90,75 -172,75 -10,0 -14,-1 -14,-3l0 -47c0,-5 24,-14 41,-25 -24,-18 -66,-32 -87,-36 -61,-13 -94,6 -145,27 -48,18 -57,145 -57,60 0,-62 -116,-41 -116,-49l0 -47c0,-2 9,-6 31,-15 24,-9 85,0 94,-27 21,-63 105,-118 175,-118 34,0 55,5 63,-6l0 -47c0,-33 64,10 69,44 9,70 61,30 109,43 42,9 72,81 121,81l0 39c4,3 8,6 12,9 1,1 1,2 1,2z"/>
   </g>
   <path class="fil3" d="M3960 1305c-49,0 -79,-73 -121,-82 -48,-12 -100,27 -109,-42 -6,-36 -75,-81 -69,-39 12,60 -9,48 -63,48 -70,0 -154,54 -175,118 -9,27 -70,18 -94,27 -103,39 85,-15 85,63 0,85 9,-42 57,-60 51,-21 84,-39 145,-27 30,6 105,33 105,63 0,24 -93,48 -45,48 82,0 109,-75 172,-75 21,0 139,18 124,6 -61,-45 -106,-96 -196,-78 -21,3 -34,-15 -46,-25 -48,-33 -90,-30 -147,-30"/>
   <g>
    <path class="fil7" d="M4996 1093c-2,12 -4,24 -5,36 3,11 11,20 26,23 23,-5 47,-9 56,-14 2,-2 3,-3 3,-3l0 48c0,0 0,0 -1,1 0,0 -1,1 -2,2 -6,5 -21,16 -35,16 -8,0 -15,-1 -21,-2 -25,5 -48,11 -48,20 0,24 -192,66 -213,66 -23,0 -49,11 -66,24 11,4 29,7 55,7 17,0 23,2 23,4l0 47c0,6 -41,15 -60,15 -64,0 -32,-61 -122,-61 -22,0 -59,0 -80,0 -21,0 -59,7 -69,7 -22,0 -22,18 -32,18 -8,0 -11,-2 -11,-4l0 -47c0,-9 64,-35 64,-45 0,-12 37,-18 37,-24 0,-67 123,-43 155,-79 10,-12 69,-90 90,-90 19,0 24,4 24,12l0 48c0,1 0,3 -1,5 2,4 5,9 9,13 32,36 91,42 154,42 54,0 43,-138 80,-138l0 47c-4,0 -7,2 -10,5l0 1zm-237 57l0 -42c-4,-2 -10,-3 -19,-3 -21,0 -80,79 -90,91 -32,36 -155,12 -155,78 0,1 0,1 0,1 4,0 8,0 11,0 21,0 58,0 80,0 63,0 66,30 85,48l0 -33c0,-22 46,-51 85,-51 9,0 49,-8 92,-18 -31,-6 -58,-17 -76,-37 -10,-12 -13,-23 -13,-34zm208 27c1,-1 2,-3 2,-5 0,-5 8,-9 19,-13 0,0 0,-1 0,-2l0 -47c0,-3 0,-5 1,-8 -9,18 -14,49 -22,75z"/>
   </g>
   <path class="fil3" d="M4996 1069c-6,55 -27,109 42,109 21,0 43,-24 37,-18 -10,12 -106,18 -106,36 0,24 -192,67 -213,67 -64,0 -149,78 -11,78 59,0 -10,18 -37,18 -64,0 -32,-60 -122,-60 -22,0 -59,0 -80,0 -21,0 -59,6 -69,6 -22,0 -22,18 -32,18 -43,0 53,-36 53,-48 0,-12 37,-18 37,-25 0,-66 123,-42 155,-78 10,-12 69,-91 90,-91 53,0 -5,37 32,79 32,36 91,42 154,42 54,0 43,-139 80,-139"/>
   <g>
    <path class="fil7" d="M3861 1056c13,32 58,18 87,18 55,0 90,72 173,54 16,-4 61,-8 77,-4 9,2 12,6 12,11l0 42c0,6 -3,12 -5,20 8,44 29,89 74,89 16,0 45,-4 58,7 1,1 8,12 15,22 5,2 9,4 10,7 2,3 2,5 2,6l0 42c0,3 -6,-4 -12,-13 -23,-8 -76,-5 -76,21 0,4 -1,10 -1,16 3,1 7,2 11,3 1,0 2,0 2,0 7,0 10,0 10,0l0 43c0,0 -6,0 -12,-1 -45,-1 -33,-29 -49,-61 -16,-32 -90,-111 -125,-118 -28,-6 -71,0 -87,28 4,5 8,9 8,11l0 43c0,0 -1,0 -2,0 -48,0 -35,-143 -83,-143 -29,0 -42,-36 -51,-54 -10,-15 -13,-22 -13,-25l0 -3c-10,-2 -18,-8 -23,-19l0 -42zm52 63l0 8c-2,0 -3,0 -4,0 9,15 21,29 39,29 43,0 37,116 71,140l0 -25c0,-50 57,-61 93,-54 35,8 109,87 125,119 14,28 6,53 35,60l0 -6c0,-11 4,-40 4,-54 0,-3 0,-6 1,-8 -50,-1 -69,-58 -75,-108 -1,-1 -1,-3 -1,-5l0 -42 0 0c0,-2 0,-4 1,-6 -1,0 -2,0 -4,-1 -16,-3 -61,0 -77,4 -83,18 -118,-54 -173,-54 -11,0 -23,2 -35,3z"/>
   </g>
   <path class="fil3" d="M3861 1077c13,32 58,18 87,18 55,0 90,72 173,54 16,-4 61,-7 77,-4 26,7 0,25 4,54 6,50 25,108 77,108 16,0 45,-4 58,7 3,4 35,54 25,29 -6,-15 -86,-18 -86,14 0,14 -4,43 -4,54 0,11 45,7 16,7 -48,0 -35,-29 -51,-61 -16,-32 -90,-111 -125,-118 -36,-8 -93,3 -93,53 0,15 19,29 12,29 -48,0 -35,-144 -83,-144 -29,0 -42,-35 -51,-53 -29,-47 -4,-18 16,-18"/>
  </g>
  <g id="_1267560859840">
   <path class="fil7" d="M3435 3052c16,-11 52,-29 76,-35 5,-2 9,-3 13,-4 2,-8 4,-18 14,-19 6,-1 17,-2 30,-4l-1 0c-16,0 90,-31 118,-34 8,-1 15,-2 21,-2l12 0c37,-4 64,-11 2,-32l-57 0c-1,0 -2,0 -2,-1 -9,-4 47,-14 53,-14l62 0c42,0 76,18 109,28 69,20 132,11 212,35 36,9 36,21 74,25 82,10 60,17 19,21 0,0 1,0 1,1l-14 0c-22,1 -46,2 -62,2 -80,0 -76,11 -143,27 -5,1 -44,8 -62,8l-61 0c-5,0 -8,0 -10,-1 0,0 43,-16 49,-21 20,-11 -7,-21 -37,-26 0,0 -1,0 -2,0l-61 0c-13,0 -44,-6 -70,-10 -23,4 -43,8 -52,9 -3,0 -6,0 -9,0l-33 0c3,2 5,6 5,12 0,9 1,10 7,17 3,0 6,1 8,2 22,10 25,15 21,15l-62 0c-4,0 -17,-5 -25,-14 -1,-1 -2,-2 -3,-3 0,0 -1,0 -1,-1 -12,1 -22,2 -27,2l-21 0c-12,6 -22,12 -29,17l-62 0zm694 -36c-2,-2 -3,-4 -5,-5 -20,3 -43,7 -68,7l-62 0c-13,0 -27,-1 -41,-4 -4,0 -8,-1 -13,-2 15,5 23,12 10,20 -2,2 -8,4 -14,7 42,-12 49,-20 118,-20 19,0 50,-1 75,-3zm-103 0c32,-3 59,-10 78,-10l60 0c-4,-3 -20,-7 -55,-11 -38,-4 -38,-16 -73,-25 -81,-24 -143,-15 -212,-35 -24,-7 -48,-18 -74,-24 -12,2 -23,5 -27,8l36 0c7,0 14,0 21,2 67,23 35,29 -5,33 30,4 -26,17 -35,17 -43,2 -38,4 -56,10l2 0c0,0 -1,0 -1,1 -2,0 -4,1 -7,3 -6,3 -8,5 -7,7 3,0 5,0 7,-1 27,-5 52,-10 58,-10l61 0c1,0 1,1 1,1 18,15 172,25 217,32 3,1 7,2 11,2zm-171 -13c-39,-4 -78,-9 -101,-14 -5,0 -9,1 -14,2l2 0c18,0 55,8 82,12l31 0zm-192 -9l-3 0c0,1 -1,1 -1,1l4 -1zm-63 0l0 0c-7,1 -10,5 -12,10l1 0c-1,-2 4,-6 11,-10zm-30 34c-7,2 -13,3 -17,4l20 0c-1,-2 -2,-3 -3,-4z"/>
  </g>
  <path class="fil3" d="M3466 3052c16,-11 51,-29 76,-35 33,-9 56,-24 56,0 0,10 2,10 11,20 16,17 49,19 4,-1 -29,-13 -162,12 -62,-11 7,-1 0,-29 18,-31 15,-3 64,-6 76,-10 29,-8 15,-11 64,-13 9,0 67,-13 34,-17 -34,-4 -87,26 -134,35 -54,10 76,-30 107,-33 47,-3 116,-7 34,-35 -25,-7 -54,3 -58,0 -9,-4 46,-14 53,-14 42,0 76,18 109,28 70,20 132,11 212,35 36,9 36,21 74,25 132,16 -4,24 -56,24 -80,0 -76,11 -143,27 -6,1 -64,13 -71,7 0,0 42,-16 49,-21 34,-20 -71,-35 -96,-26 -11,3 -85,-15 -111,-15 -14,0 -103,11 -61,-8 23,-10 -67,28 -15,22 22,-3 129,-26 131,-23 18,15 172,25 217,32 87,16 158,-28 176,3"/>
  <g id="_1267560859744">
   <path class="fil7" d="M4699 3163c-11,-1 -22,-2 -32,-3 -4,0 -9,-1 -14,-1 -9,1 -17,2 -20,4 0,5 -2,10 -8,14 -21,31 -79,44 -147,44l-76 0c-14,0 -27,-1 -41,-1 -28,1 -55,1 -78,1l-76 0c-17,0 -33,0 -46,-1 -30,5 -68,11 -94,11l-76 0c-4,0 -8,0 -12,-1 -42,13 -83,25 -112,34l30 0c23,-28 238,-32 285,-32 9,0 36,0 65,0l76 0c44,0 93,1 93,6 0,15 -114,23 -130,24 -5,1 7,1 28,2 50,-1 103,-4 125,-11 69,-21 144,-34 208,-50 64,-17 93,-33 52,-40zm-367 54c-17,-2 -34,-4 -51,-7 -1,0 -3,0 -5,-1 -43,2 -93,5 -129,8l51 0c3,0 5,0 8,0 8,2 23,3 42,4 26,-1 55,-2 84,-4zm47 -4c77,-6 148,-18 170,-36 3,-4 5,-8 6,-12 1,0 1,-1 2,-2 -1,-4 -4,-9 -10,-14l56 0c-37,-8 -72,-16 -113,-20 -34,3 -67,8 -102,8l-76 0c-58,0 119,-5 19,-12 -68,-6 -142,-18 -214,-23 27,4 100,17 94,53 0,7 -92,35 -187,62l28 0c3,0 6,1 10,1 50,-4 134,-10 184,-10l77 0c15,0 27,1 35,2 7,1 14,2 21,3zm250 -59c1,2 2,3 3,5l27 0c-11,-2 -21,-3 -30,-5zm-130 55c-29,3 -60,6 -91,8 10,1 20,2 30,3 23,-2 43,-6 61,-11zm-415 11l-50 0c0,2 2,4 8,7 14,-2 29,-5 42,-7zm268 44l-76 0c-42,0 -73,-1 -66,-2 16,-1 130,-9 130,-24 0,-4 -27,-5 -59,-6 -11,0 -19,0 -23,0 -55,0 -346,5 -277,50 15,9 19,13 16,13l-76 0c-4,0 -26,-10 -48,-19 -11,7 -19,16 -33,21 -11,3 -19,5 -25,5l-76 0c-20,0 -14,-16 11,-25 53,-21 385,-109 385,-122 8,-54 -163,-56 -80,-56l76 0c88,0 188,18 276,26 16,1 25,2 29,3 6,0 11,0 17,0l76 0c82,0 139,23 214,32 14,0 24,1 32,3 10,0 20,1 31,1l-26 0c33,7 5,22 -57,39 -64,16 -138,29 -208,50 -28,9 -106,11 -163,11z"/>
  </g>
  <path class="fil3" d="M4768 3164c-111,0 -175,-36 -277,-36 -50,0 -94,9 -141,9 -58,0 119,-5 19,-12 -88,-8 -188,-26 -276,-26 -83,0 88,2 80,56 0,13 -332,101 -385,122 -33,12 -33,35 14,20 25,-9 31,-29 69,-33 20,-2 130,55 72,18 -69,-45 222,-50 277,-50 22,0 158,-3 158,6 0,15 -114,23 -130,24 -17,2 179,6 229,-9 69,-21 144,-34 208,-50 86,-23 108,-44 -11,-44 -20,0 -78,-3 -81,6 -22,60 -152,66 -273,45 -39,-6 -208,6 -252,10 -11,0 -103,-10 -61,8 28,12 133,-15 160,-11 64,12 498,-2 418,-68"/>
  <g id="_1267560856992">
   <path class="fil7" d="M3462 3192c7,0 16,1 25,3 0,-2 0,-4 0,-6 -9,1 -19,2 -29,3l4 0zm175 189c8,-3 14,-6 15,-11 10,-34 -116,-105 -155,-105l76 0c15,0 41,10 68,24 -14,-14 -43,-30 -76,-45l-13 0c-1,0 -2,-2 -4,-7 -13,-5 -26,-10 -39,-15l-44 0c-8,0 -20,-3 -36,-9 -9,-4 -76,-7 -143,-9 -39,1 -68,4 -66,9 10,29 140,34 194,47 29,8 67,73 87,89 11,9 77,25 136,32zm62 2c-5,0 -11,0 -17,0l-76 0c-51,0 -129,-15 -164,-26 -27,5 -66,9 -82,10 -34,3 107,8 112,8 63,0 77,21 121,21 77,0 146,38 217,50 14,-10 -96,-48 -105,-55 -1,-1 -3,-4 -6,-8zm-328 -97c-11,-13 -23,-23 -34,-26 -53,-13 -184,-18 -193,-47 -2,-7 45,-9 102,-9l76 0c50,0 108,2 146,4 -21,-6 -40,-10 -56,-13 -12,0 -25,0 -37,0l-77 0c-137,0 -316,-20 -397,-38 3,5 4,10 4,14 0,34 -208,16 -101,39 26,6 58,8 92,9 21,0 41,-1 59,-1l76 0c59,0 231,32 340,68zm108 -125c-3,-7 -6,-13 -6,-13 1,-3 4,-5 7,-5 -1,-5 -5,-11 -10,-17 -4,-1 -7,-2 -12,-2 -21,-2 -17,-7 -8,-7l77 0c5,0 12,1 17,7 1,1 1,1 2,2 12,3 19,10 23,18 17,5 38,17 38,22 0,8 1,15 2,23 10,16 18,40 19,50 55,23 100,50 100,68 0,8 49,81 54,84 9,8 140,52 96,57 -8,2 -17,2 -26,2l-76 0c-87,0 -167,-54 -259,-54 -44,0 -59,-21 -121,-21 -5,0 -146,-5 -112,-8 24,-2 107,-10 107,-21 18,-49 -306,-120 -419,-127 -14,0 -28,0 -43,0l-76 0c-45,0 -91,-1 -126,-9 -106,-23 102,-5 102,-39 0,-26 -58,-78 -97,-91 -1,-1 -1,-1 0,-1l77 0c9,0 83,9 91,14 10,5 34,42 34,49 6,16 224,48 401,53 74,-2 130,-12 144,-34z"/>
  </g>
  <path class="fil3" d="M3424 3192c63,0 266,76 266,115 0,8 49,81 53,84 10,8 141,52 97,57 -97,14 -184,-52 -285,-52 -44,0 -58,-21 -121,-21 -5,0 -146,-5 -112,-8 24,-2 107,-10 107,-21 19,-52 -344,-128 -436,-128 -68,0 -165,6 -227,-8 -107,-23 101,-5 101,-39 0,-26 -58,-78 -97,-91 -9,-3 83,7 92,13 10,5 34,42 34,49 10,29 731,113 610,-18 -14,-16 -43,-3 -9,0 43,3 38,39 38,60 0,53 -9,0 10,-10 34,-19 63,128 34,44 -5,-15 -10,-34 -10,-52 0,-8 -53,-34 -58,-18 0,2 53,104 -44,65 -19,-8 -290,-16 -285,0 10,29 140,34 194,47 29,8 67,73 87,89 19,16 218,55 227,21 10,-34 -116,-105 -155,-105"/>
  <g id="_1267560857856">
   <path class="fil7" d="M4872 3360c-9,-2 -18,-4 -27,-7 -44,3 -84,7 -124,12l43 0c9,0 49,1 86,2 16,-2 26,-5 28,-7l-6 0zm-437 -40c49,0 44,32 0,32l-76 0c35,0 45,-20 23,-28 -29,3 -55,10 -58,22 -9,26 11,35 41,39 17,-1 33,-2 47,-2 160,0 262,-31 421,-31l6 0c-71,-20 -117,-47 -219,-47 -77,0 -159,-6 -237,-6 -39,0 -72,-23 -106,-26 -15,-1 -36,-2 -58,-2 -39,2 52,13 56,13 46,4 50,21 37,39 17,-2 35,-3 47,-3l76 0zm-116 66c-39,0 -72,-5 -73,-26 -33,6 -69,20 -92,38 23,-5 62,-6 103,-6l76 0c50,0 102,2 131,2 20,0 29,6 33,15 10,-10 21,-18 36,-18 51,0 78,-9 110,-17 -48,5 -98,9 -155,9 -27,0 -62,3 -92,3l-77 0zm586 -19l-76 0c-17,0 -46,0 -74,-1 -52,9 -77,25 -146,25 -48,0 -48,73 -121,73l-76 0c-14,0 -92,-2 -77,-2 24,0 82,-8 87,-24 5,-18 5,-44 -34,-44 -21,0 -54,-1 -89,-2 -36,1 -67,3 -82,9 -24,11 -77,40 -34,55 49,19 34,61 34,61l-76 0c0,-11 -10,-32 -24,-35 -3,0 -7,-1 -10,-2 -18,5 -32,12 -45,21 -23,16 -39,23 -48,23l-76 0c-14,0 -6,-19 24,-42 11,-8 23,-10 34,-10l44 0c9,-4 14,-15 14,-39 0,-32 63,-63 116,-73 53,-11 116,-68 29,-76 -5,0 -116,-13 -39,-13l77 0c29,0 87,0 116,2 34,3 68,26 106,26 78,0 160,6 238,6 101,0 147,27 218,47 61,1 46,15 -10,15zm-463 92c-12,2 -23,3 -31,3 -6,0 4,0 19,1 4,-1 8,-2 12,-4zm-318 6c-4,8 -11,9 -20,9l-49 0c-2,1 -5,2 -7,3 6,-1 13,-1 19,-1l68 0c-3,-4 -7,-8 -11,-11z"/>
  </g>
  <path class="fil3" d="M4910 3360c-92,-19 -135,-55 -252,-55 -77,0 -159,-6 -237,-6 -38,0 -72,-23 -106,-26 -29,-2 -87,-2 -116,-2 -78,0 33,13 38,13 87,8 24,65 -29,76 -53,10 -116,41 -116,73 0,76 -48,18 -92,49 -48,37 -39,63 24,19 29,-21 73,-34 131,-19 14,3 24,24 24,35 0,0 15,-42 -34,-61 -43,-15 10,-44 34,-55 39,-15 189,-7 247,-7 39,0 39,26 34,44 -5,16 -63,24 -87,24 -15,0 63,2 77,2 73,0 73,-73 121,-73 73,0 97,-18 155,-26 15,0 107,2 141,2 58,0 72,-15 4,-15 -159,0 -261,31 -421,31 -67,0 -184,18 -164,-37 5,-20 77,-26 111,-26 48,0 44,32 0,32"/>
  <g id="_1267560855904">
   <path class="fil7" d="M2905 3415c21,18 20,40 58,46 19,-22 50,-46 59,-46l76 0c5,0 3,7 -9,23 -11,15 -29,21 -50,23 -6,6 -10,11 -13,17 20,7 43,15 58,18 17,4 44,6 77,7 28,-1 58,-2 89,-3 46,-5 87,-14 87,-30 0,-18 -10,-37 -24,-50l76 0c0,0 63,11 72,26 15,21 30,35 47,45 4,0 9,0 13,0l76 0c29,0 108,6 163,20 4,0 7,0 10,1l34 0c11,0 16,2 16,15 0,8 0,14 2,18l75 0c6,0 13,1 19,3 39,13 -237,32 -261,34 -14,0 -106,6 -116,13 -15,13 -73,40 -102,50 -4,1 -34,2 -59,2l-77 0c-31,0 -57,-1 -22,-7 82,-13 101,-68 9,-86 -159,-34 -242,15 -368,-76 -13,-9 -15,-13 -11,-13l50 0c1,-1 2,-2 2,-3l-32 0 -23 0c-58,0 -53,-26 -78,-47l77 0zm786 115c5,0 10,2 12,8l-29 0c-8,8 -10,20 6,26 30,-4 61,-9 63,-18 4,-15 -22,-26 -59,-35 -3,0 -6,-1 -9,-1 -24,1 -47,3 -69,3l-76 0c-33,0 -63,-4 -90,-17 -37,1 -76,3 -114,4 -45,5 -95,6 -116,6l-77 0c-16,0 -55,0 -94,-2 104,55 185,20 326,50 92,18 72,73 -10,86 -21,3 -20,5 -9,6 8,0 13,0 15,-1 29,-10 87,-37 102,-50 9,-7 101,-13 116,-13 19,-2 203,-14 253,-26l-32 0c-28,8 -79,11 -97,11l-76 0c-58,0 -32,-37 -12,-37l76 0zm-146 -38c-11,0 -22,0 -34,1 20,11 41,16 64,18 20,-1 42,-2 65,-2l38 0c-43,-9 -98,-15 -133,-17zm-349 11l-77 0c-16,0 -31,0 -45,-1 28,2 63,3 92,4 16,-1 35,-2 55,-3 -8,0 -17,0 -25,0zm161 -7c27,-1 53,-2 78,-3 -8,-5 -16,-11 -24,-17 -6,9 -28,15 -54,20z"/>
  </g>
  <path class="fil3" d="M2867 3415c24,21 19,47 77,47 48,0 87,3 107,-24 53,-70 -92,42 -63,58 14,8 150,10 184,10 43,0 203,-5 203,-36 0,-18 -10,-37 -24,-50 0,0 63,11 72,26 73,102 170,53 310,66 34,2 49,-8 49,15 0,61 48,6 96,21 39,13 -237,32 -261,34 -15,0 -107,6 -116,13 -15,13 -73,40 -102,50 -10,3 -145,5 -82,-5 82,-13 101,-68 9,-86 -159,-34 -242,15 -367,-76 -49,-34 48,10 87,18 82,18 382,-5 513,-5 48,0 232,18 223,55 -5,15 -92,21 -117,21 -72,0 -14,-58 0,-29"/>
  <g id="_1267560852576">
   <path class="fil7" d="M4770 3357c54,0 117,-3 165,-3l30 0c29,-11 65,-25 77,-25l39 0c-9,-13 -19,-23 -39,-27 -27,-6 -37,-8 -35,-8l76 0c6,0 185,36 204,42 10,3 43,6 85,10 29,-1 57,-2 81,-5 10,-1 19,-1 28,-1l32 0c-9,-14 -39,-59 -13,-59l76 0c5,0 12,2 21,5 39,16 102,50 121,76 34,45 78,37 140,63 49,21 78,73 126,84 18,2 80,24 40,24l-77 0c-4,0 -9,0 -15,-1 -104,-10 -195,-24 -294,-33 -12,2 -23,4 -31,7 -35,14 -144,25 -208,25l-77 0c-49,0 -72,-6 -18,-23 4,-3 11,-8 23,-15 78,-42 20,-65 -87,-76 -85,-7 -149,-37 -238,-41 -4,0 -7,0 -9,0l-76 0c-16,0 0,-2 28,-14 5,-2 11,-4 18,-7 -38,1 -79,2 -116,2l-77 0zm510 -10c-39,0 -78,-1 -110,-1 16,22 41,42 112,42 68,0 165,37 165,76 0,18 -19,32 -48,39 -7,2 -13,4 -19,5 -1,2 -2,4 -2,5 51,-8 109,-20 109,-20l76 0c46,0 89,2 131,5 6,0 13,0 20,0 23,-1 43,-5 54,-13 48,-34 14,-63 -58,-78 -56,-12 -97,-39 -150,-55 -11,1 -24,1 -38,1l-76 0c-40,0 -91,-3 -136,-6l-30 0zm-110 -1l74 0c19,0 41,1 64,1 -47,-4 -87,-8 -97,-11 -6,-2 -30,-7 -59,-13 7,7 12,15 18,23zm215 1c30,2 63,4 94,5 21,-1 35,-4 37,-8 0,0 0,-1 -1,-2 -39,3 -84,5 -130,5zm206 -5c14,2 27,5 40,8 -15,-13 -37,-27 -59,-39 6,13 15,26 19,31zm262 136c-2,2 -5,5 -9,7 -15,12 -48,14 -84,14l-52 0c85,7 164,18 251,28 -9,-7 -39,-17 -51,-18 -21,-5 -38,-17 -55,-31zm-237 20c-19,-2 -39,-3 -59,-4 -26,6 -119,25 -160,25l-43 0c-10,6 -4,9 13,11 62,-3 136,-13 164,-24 17,-7 44,-8 73,-8l12 0zm-288 -80c-34,-17 -83,-30 -122,-30 -66,0 -92,-17 -108,-37 -6,2 -13,3 -19,3l-38 0 0 0 0 0c-7,3 -14,6 -20,8 -20,8 -34,12 -34,13l68 0c101,0 169,34 261,42 4,0 8,1 12,1z"/>
  </g>
  <path class="fil3" d="M4809 3357c53,0 116,-3 164,-3l68 0c19,0 43,-10 43,-23 0,-11 -67,18 -101,31 -44,18 -58,13 34,13 101,0 169,34 261,42 107,11 165,34 87,76 -106,58 160,0 160,0 165,0 291,24 445,39 68,5 -4,-21 -24,-23 -48,-11 -77,-63 -126,-84 -63,-26 -106,-18 -140,-63 -19,-26 -82,-60 -121,-76 -68,-26 -5,58 -5,58 -10,21 -276,0 -305,-8 -24,-8 -300,-63 -169,-34 63,13 29,86 164,86 68,0 165,37 165,76 0,18 -20,32 -49,39 -169,45 146,29 209,3 53,-21 198,8 237,-21 48,-34 14,-63 -58,-78 -87,-19 -141,-76 -257,-66 -82,8 -203,5 -285,5"/>
  <g id="_1267560851488">
   <path class="fil7" d="M4440 3506c6,0 13,0 19,0 -30,-26 -84,-37 -110,-58l76 0c26,21 82,32 111,59 60,1 120,3 180,4 37,-2 91,-7 108,-21 6,-6 10,-30 7,-44 -10,-6 -17,-11 -17,-11 2,-1 5,-2 6,-2l77 0c5,0 8,5 10,13 17,10 41,27 41,34 39,110 267,81 339,162 24,29 107,39 -24,39l-76 0c-66,0 -152,-8 -225,-10 -1,0 -3,0 -4,0 -13,0 -85,7 -130,12 -3,0 -7,1 -10,1 -19,2 -27,3 -27,3l-76 0c-1,0 15,-2 37,-4 129,-20 -66,-112 -156,-112 -53,0 -106,-26 -126,-52 -3,-4 -6,-8 -10,-12 -32,-1 -64,-1 -96,-1l76 0zm232 65c79,0 237,70 191,101 9,-1 16,-1 19,-1 12,-1 24,-1 38,-1l75 0 1 0c70,0 159,8 233,11 67,-3 3,-14 -18,-39 -68,-76 -272,-55 -330,-143 -29,9 -80,12 -107,12l-76 0c-53,0 -107,-1 -160,-2 3,3 6,6 8,10 20,26 73,52 126,52z"/>
  </g>
  <path class="fil3" d="M4402 3506c111,0 223,5 334,5 34,0 106,-5 126,-21 9,-10 14,-68 -10,-55 0,0 58,34 58,45 39,110 266,81 339,162 24,29 107,39 -24,39 -92,0 -223,-15 -305,-10 -24,0 -242,23 -141,13 151,-16 -53,-113 -145,-113 -53,0 -106,-26 -126,-52 -24,-37 -92,-47 -121,-71"/>
  <g id="_1267560849856">
   <path class="fil7" d="M4233 3587c-3,-1 -5,-1 -8,-2l-8 0c6,3 16,6 16,6 32,13 24,21 37,40 3,4 6,8 10,12 -1,-6 -2,-12 1,-13 4,-3 10,-4 16,-4l41 0c39,0 111,38 118,47 0,0 1,1 2,2l24 0c4,0 7,0 9,-1 2,-1 5,-3 8,-5l0 0c-21,0 -53,-10 -64,-12 -24,-5 -106,-59 -37,-59 34,0 -3,-13 -16,-14 -6,-1 -13,-1 -19,-1 -18,1 -37,6 -57,8 1,0 3,0 4,0l-9 0c-1,0 -2,0 -3,0l-42 0c-6,0 -11,-1 -17,-2 -6,-1 -7,-2 -6,-2zm81 -9c14,1 26,1 36,1l-32 0c4,2 6,3 8,3 1,0 2,0 3,0l42 0c16,0 37,0 53,2 13,1 50,14 16,14 -69,0 13,54 37,59 5,1 17,4 30,7 5,-3 9,-6 10,-6l0 0 42 0c0,0 0,0 0,0 0,8 -8,11 -18,11 -3,2 -6,4 -9,5 -2,1 -12,2 -22,2l-29 0c-11,2 -7,16 -7,22l0 6 0 0 0 0 0 0 0 0 0 1 0 0 0 0 0 0 0 0 0 1 0 0 0 0 0 0 0 0 0 1 0 0 0 0 0 0 0 0 0 0 0 1 0 0 0 0 0 0 0 0 0 0 0 0 0 1 0 0 0 0 0 0 0 0 0 0 0 1 0 0 0 0 0 0 0 0 0 0 0 0 0 0 0 1 0 0 0 0 0 0 0 0 0 0 0 0 0 0 0 1 0 0 0 0 0 0 0 0 0 0 0 0 0 0 0 0 0 1 0 0 0 0 0 0 0 0 0 0 0 0 0 0 0 0 0 0 0 0 0 1 0 0 0 0 0 0 0 0 0 0 0 0 0 0 0 0 0 0 0 0 0 0 0 0 0 0 0 1 0 0 0 0 0 0 0 0 0 0 0 0 0 0 0 0 0 0 0 0 0 0 0 0 0 0 0 0 0 0 0 0 0 0 0 0 0 0 0 0 0 0 0 0 0 0 0 0 0 0 0 0 0 0 0 0 0 0 -42 0 0 0 0 0 0 0 0 0 0 0 0 0 0 0 0 0 0 0 0 0 0 0 0 0 0 0 0 0 0 0 0 0 0 0 0 0 0 0 0 0 0 0 0 0 0 0 0 0 0 0 0 0 0 0 0 0 0 0 0 -1 0 0 0 0 0 0 0 0 0 0 0 0 0 0 0 0 0 0 0 0 0 0 0 0 0 0 0 -1 0 0 0 0 0 0 0 0 0 0 0 0 0 0 0 0 0 0 0 0 0 -1 0 0 0 0 0 0 0 0 0 0 0 0 0 0 0 0 0 -1 0 0 0 0 0 0 0 0 0 0 0 0 0 0 0 -1 0 0 0 0 0 0 0 0 0 0 0 0 0 0 0 -1 0 0 0 0 0 0 0 0 0 0 0 -1 0 0 0 0 0 0 0 0 0 0 0 0 0 -1 0 0 0 0 0 0 0 0 0 0 0 -1 0 0 0 0 0 0 0 0 0 -1 0 0 0 0 0 0 0 0 0 -1 0 0 0 0 0 0c0,-11 -10,-21 -18,-31 -6,-7 -53,-33 -92,-43 -6,6 9,35 4,35l-42 0c-32,-4 -45,-20 -56,-34 -13,-19 -5,-27 -37,-40 0,0 -34,-9 -16,-14l38 0c3,-5 9,-7 17,-7l42 0c13,0 30,4 42,8zm-59 0l16 0c-5,-2 -9,-3 -14,-4 -1,1 -2,2 -2,4zm18 0c-3,1 -6,1 -8,1 -4,1 -6,3 -8,5 1,0 2,0 2,0 12,0 24,0 28,0 1,0 -5,-3 -14,-6zm38 6c-15,0 -33,1 -36,3 3,0 7,1 10,1 9,-1 17,-3 26,-4z"/>
  </g>
  <path class="fil3" d="M4289 3591c-16,0 -93,-14 -93,-14 -18,5 16,14 16,14 32,13 24,21 37,40 11,14 24,30 56,34 5,0 -11,-31 -3,-35 29,-16 125,32 133,43 8,10 18,20 18,31 0,23 0,6 0,-6 0,-7 -5,-23 11,-23 8,0 42,2 48,-1 10,-4 26,-19 26,-16 0,25 -66,2 -82,-1 -24,-5 -106,-59 -37,-59 34,0 -3,-13 -16,-14 -16,-2 -37,-2 -53,-2 -27,0 -58,13 -90,7 -27,-5 39,-5 47,-5 6,0 -74,-29 -74,-3 0,10 3,0 11,-2 21,-4 63,0 85,0"/>
  <g id="_1267560840064">
   <path class="fil7" d="M4630 3015c14,18 20,32 45,39 -3,-14 -1,-18 1,-18l71 0c6,0 18,21 12,21l-14 0c1,1 1,3 1,4 8,30 149,52 188,56 4,0 10,1 16,2 1,-2 1,-4 1,-6 0,-2 0,-4 -1,-6 -5,-7 -11,-15 -17,-20 -3,-3 -7,-5 -12,-8 -1,-1 -1,-1 -1,-1l70 0c7,0 99,34 112,37 19,5 102,34 94,34l-43 0c7,2 15,4 22,6 92,15 203,29 262,54 70,28 -25,13 -17,21 7,8 22,12 43,14 38,-2 74,-6 91,-6l70 0c17,0 14,4 -26,17 -30,9 -64,12 -99,12l-71 0c-73,0 -153,-14 -217,-18 -37,2 -71,4 -106,10 -25,5 -52,8 -80,8l-70 0c-27,0 -54,-3 -77,-11 -4,-1 100,-4 109,-27 3,-11 -195,-60 -225,-72 -14,-6 -54,-46 -86,-73 -5,-2 -9,-2 -12,-3 -9,-1 -38,-23 -27,-24l-2 0c-52,0 -57,-19 -75,-42l70 0zm527 190c-11,1 -20,2 -9,10l-70 0c-20,-16 25,-5 29,-13 2,-5 7,-7 12,-7l62 0c-7,-12 -11,-23 -12,-23 -9,-1 -36,-8 -64,-17 -53,-8 -100,-17 -128,-28l-47 0c-10,0 -23,-2 -34,-5 -37,-3 -85,-11 -128,-19 27,24 54,49 64,54 31,12 229,61 225,72 -9,23 -112,26 -109,27 14,4 29,7 44,9 15,-1 29,-3 43,-6 48,-8 97,-10 152,-10l70 0c58,0 132,13 204,17 24,-1 46,-5 67,-11 19,-6 29,-11 33,-13 -21,1 -45,3 -68,3l-70 0c-34,0 -63,-3 -74,-15 -7,-8 88,7 18,-21 -31,-13 -76,-23 -125,-32 4,7 10,20 18,31l32 0 0 0c9,0 26,8 8,15 -1,1 -3,2 -4,2 9,3 13,5 9,5l-1 0 -70 0c-5,0 -9,-2 -12,-4l-3 0c-7,0 -14,-4 -20,-9 -17,-5 -34,-9 -42,-12zm-101 -75l23 0c-19,-6 -39,-13 -47,-15 -2,0 -3,0 -5,-1 -1,0 -1,0 -1,1 6,5 16,11 30,15z"/>
  </g>
  <path class="fil3" d="M4595 3015c18,23 24,42 75,42l54 0c9,0 -25,-50 -13,4 8,30 149,52 188,56 21,1 87,25 87,-4 0,-19 -43,-46 -19,-28 7,6 18,21 23,28 34,41 305,52 412,96 70,28 -25,13 -18,21 36,39 311,-18 179,25 -102,32 -245,-6 -341,-6 -55,0 -104,2 -152,10 -50,9 -110,13 -157,-3 -3,-1 100,-4 109,-27 4,-11 -195,-60 -225,-72 -21,-9 -109,-103 -125,-100 -11,1 18,23 27,24 53,11 403,92 257,-2 -13,-8 96,33 111,36 19,5 101,34 94,34 -44,0 -62,-6 -100,-18 -28,-9 118,38 143,41 2,0 25,66 61,51 21,-9 -6,-18 -13,-14 -7,3 4,23 18,21 14,-1 -84,-26 -84,-26 -7,1 -35,-20 -44,-2 -4,8 -49,-3 -29,13"/>
  <g id="_1267560830432">
   <path class="fil7" d="M4462 3024c2,4 3,10 0,19 0,0 0,1 0,1 -5,-4 -6,-11 0,-20zm-16 26l35 0c8,0 15,-2 16,-7 2,-4 2,-7 2,-9 3,2 5,5 5,8 1,6 22,19 29,27 -29,-5 -64,-10 -72,-10l-35 0c-3,0 -6,1 -10,2 5,-15 -28,-23 -51,-23l0 0 -35 0c-4,0 -7,0 -10,0 -4,1 -8,2 -11,3 -7,-2 -21,-6 -25,-11 1,0 1,0 2,0l35 0c25,0 65,-21 71,-35 0,-2 1,-3 1,-5 7,3 14,7 17,10 15,9 33,11 43,16l-19 0c-25,23 -5,34 12,34zm-53 -75l-35 0c-2,0 1,12 -2,20 -4,10 -28,25 -50,32 -12,-6 -24,-15 -25,-15l-35 0 0 0c-2,3 0,15 2,18 4,5 20,9 26,11 8,3 9,19 9,29 -1,3 -1,6 -1,9 0,0 0,0 0,0l35 0c0,0 1,-4 1,-9 3,-14 13,-26 32,-30 19,3 37,11 30,23 -4,6 -21,12 -11,12l35 0c3,0 7,-1 12,-1 13,-2 24,-9 34,-12 28,4 73,11 82,11l36 0c1,0 1,0 2,0 5,-3 -29,-23 -30,-31 -4,-15 -28,-21 -46,-23 -10,-8 -31,-9 -48,-19 -10,-7 -40,-23 -53,-25z"/>
  </g>
  <path class="fil3" d="M4472 3019c18,1 46,7 50,23 1,8 35,28 30,31 -5,2 -95,-14 -108,-14 -13,0 -27,13 -45,15 -31,3 -6,-4 -2,-11 12,-19 -37,-27 -59,-25 -27,4 -39,22 -39,41 0,3 6,-33 -7,-38 -7,-2 -22,-6 -26,-11 -3,-3 -4,-15 -3,-18 0,-1 21,16 36,18 25,3 69,-20 75,-35 3,-8 0,-20 1,-20 13,2 43,18 53,25 27,16 62,9 52,43 -4,14 -65,7 -29,-27"/>
 </g>
</svg>
