<?xml version="1.0" encoding="UTF-8"?>
<!DOCTYPE svg PUBLIC "-//W3C//DTD SVG 1.1//EN" "http://www.w3.org/Graphics/SVG/1.1/DTD/svg11.dtd">
<!-- Creator: CorelDRAW X7 -->
<svg xmlns="http://www.w3.org/2000/svg" xml:space="preserve" width="576px" height="360px" version="1.1" style="shape-rendering:geometricPrecision; text-rendering:geometricPrecision; image-rendering:optimizeQuality; fill-rule:evenodd; clip-rule:evenodd"
viewBox="0 0 578 360"
 xmlns:xlink="http://www.w3.org/1999/xlink">
 <defs>
  <style type="text/css">
   <![CDATA[
    .fil0 {fill:none}
    .fil4 {fill:black}
    .fil6 {fill:#1A1A1A}
    .fil11 {fill:#333333}
    .fil7 {fill:#4D4D4D}
    .fil10 {fill:gray}
    .fil9 {fill:#999999}
    .fil12 {fill:#CCCCCC}
    .fil1 {fill:#FF6600}
    .fil8 {fill:white}
    .fil13 {fill:#6666FF;fill-rule:nonzero}
    .fil2 {fill:white;fill-rule:nonzero}
    .fil3 {fill:url(#id0)}
    .fil5 {fill:url(#id1)}
   ]]>
  </style>
  <radialGradient id="id0" gradientUnits="userSpaceOnUse" gradientTransform="matrix(0.999998 -0 -0 0.855414 0 26)" cx="292.554" cy="179.07" r="317.408" fx="292.554" fy="179.07">
   <stop offset="0" style="stop-opacity:1; stop-color:#E6E6E6"/>
   <stop offset="1" style="stop-opacity:1; stop-color:white"/>
  </radialGradient>
  <radialGradient id="id1" gradientUnits="userSpaceOnUse" gradientTransform="matrix(0.923832 -0 -0 1 22 0)" cx="287.016" cy="105.902" r="273.553" fx="287.016" fy="105.902">
   <stop offset="0" style="stop-opacity:1; stop-color:#030000"/>
   <stop offset="1" style="stop-opacity:1; stop-color:#454343"/>
  </radialGradient>
 </defs>
 <g id="Layer_x0020_1">
  <metadata id="CorelCorpID_0Corel-Layer"/>
  <rect class="fil0" width="578" height="360"/>
  <g id="_2016841598768">
   <path class="fil1" d="M287 7c110,0 198,56 198,126 0,70 -88,126 -198,126 -110,0 -198,-56 -198,-126 0,-70 88,-126 198,-126z"/>
   <g>
    <path class="fil2" d="M125 109c6,0 11,1 14,2 3,2 5,4 7,8 2,3 3,7 3,12 0,3 -1,6 -2,9 -1,3 -2,5 -4,7 -2,1 -4,3 -6,3 -3,1 -7,2 -12,1 -5,0 -9,0 -10,-2l0 -37c1,-4 7,-3 10,-3zm-2 8l0 27 4 0c4,0 6,-1 8,-2 2,-1 3,-2 4,-4 1,-2 2,-4 2,-7 0,-5 -2,-8 -4,-11 -2,-2 -6,-3 -11,-3l-3 0zm36 -10c1,0 2,1 3,2 1,1 2,2 2,3 0,2 -1,3 -2,4 -1,1 -2,1 -3,1 -2,0 -3,0 -4,-1 -1,-1 -1,-2 -1,-4 0,-1 0,-2 1,-3 1,-1 2,-2 4,-2zm0 13c3,0 3,2 4,4l0 24c0,3 -2,4 -4,3 -3,1 -4,-1 -4,-3l0 -24c0,-1 0,-4 4,-4zm42 27c0,5 -1,9 -3,12 -3,3 -8,5 -13,5 -3,0 -6,-1 -8,-2 -5,-1 -4,-8 3,-6 1,0 3,0 4,0 3,0 4,0 6,-1 1,0 2,-1 2,-2 1,-1 1,-3 1,-5 -1,1 -3,2 -4,2 -2,1 -4,1 -5,1 -5,0 -8,-1 -11,-4 -3,-3 -5,-7 -5,-12 0,-5 2,-9 5,-12 3,-2 6,-4 10,-4 18,0 18,14 18,28zm-16 -20c-3,0 -5,1 -6,2 -2,2 -3,4 -3,6 0,3 1,5 3,7 1,1 3,2 6,2 2,0 4,-1 6,-2 2,-2 2,-4 2,-7 0,-2 0,-4 -2,-6 -2,-2 -4,-2 -6,-2z"/>
    <path class="fil2" d="M212 107c1,0 3,1 4,2 1,1 1,2 1,3 0,2 0,3 -1,4 -1,1 -3,1 -4,1 -1,0 -2,0 -3,-1 -1,-1 -2,-3 -2,-4 0,-1 1,-3 2,-3 0,-1 2,-2 3,-2zm0 13c3,0 4,1 4,4l0 24c0,2 -2,3 -4,3 -2,1 -4,-1 -4,-3l0 -24c0,-1 0,-4 4,-4z"/>
   </g>
  </g>
  <g id="_2016841600048">
   <g>
    <path class="fil3" d="M353 185c0,0 2,1 0,1 -2,0 4,1 4,2 -1,1 -3,0 1,3 0,0 3,2 1,1 -3,-1 -5,-2 0,1 1,1 10,3 4,3 -2,0 -5,-1 -1,1 2,2 -5,0 -2,3 0,0 1,1 1,2 0,1 2,3 1,4 0,0 0,0 1,1 0,-1 -1,-1 -1,-1 -1,5 -1,2 -1,4 1,1 -1,1 0,2 1,2 0,4 1,6 0,1 -1,1 0,3 1,2 -5,0 -2,3 1,1 -2,1 0,4 1,2 -2,3 1,5 0,1 2,3 1,4 -1,2 2,3 1,4 -1,1 -4,-6 -4,-7 -4,-5 -1,-8 -9,-11 -5,-2 -2,1 -6,-4 -4,-3 -6,0 -10,-4 -3,-3 -7,-3 -11,-7 -4,-4 -2,-10 -4,-6 -2,2 -3,1 -7,0 -4,-1 -9,-2 -14,-1 -4,1 -9,-1 -14,-2 -1,0 -10,-6 -15,-10 -10,-7 -4,-12 -7,-8 -1,1 -6,4 -8,0 -1,-5 -4,-11 -10,-10 -3,0 -3,3 -4,3l0 0c-2,1 -4,-2 -7,1 -1,1 -1,-1 3,-2 4,-1 0,-1 -1,-1 0,0 -6,-4 -2,-2 1,1 1,-1 -3,-3 -2,-1 -10,-1 -10,0 0,0 1,-1 4,-1 3,0 4,1 7,1 4,1 2,0 5,-1 0,-1 -3,0 -4,-1 -3,-1 -8,-1 -8,-1 5,-2 10,2 13,2 2,0 2,1 4,0 0,0 0,0 -1,0 -3,0 -5,-4 -9,-4 0,-2 1,0 2,-2 0,0 -5,-2 -7,-1 -1,2 -1,0 1,-1 4,-1 4,0 6,0 1,0 1,1 2,1 2,0 4,1 1,-2 -2,-2 -2,0 1,-2 0,-1 -1,0 -3,-1 -2,-1 7,-2 -3,-2 0,0 -6,3 -3,0 1,-1 3,0 4,-1 1,-1 6,-4 7,-4 2,0 0,-1 -2,0 -3,2 -9,-3 -9,-3 2,1 5,3 8,1 2,-2 -5,0 -4,-1 2,-1 1,1 0,-1 0,-1 4,1 0,-1 -1,0 -2,-1 0,-1 1,0 1,-3 0,-3 2,-3 -1,0 -2,-1 1,0 3,-1 4,-3 0,-1 -5,2 -1,-4 1,-1 -2,0 -1,-1 0,-1 0,-1 0,-1 0,-1 0,-1 0,-2 0,0 0,0 0,-1 -1,0 -1,0 -1,0 -2,-2 -9,-5 -1,-4 4,0 -8,-4 -7,-4l117 0c0,0 1,1 2,1 0,0 0,2 -2,2 0,0 1,0 1,1 -1,0 -2,0 -2,0 4,1 2,0 5,2 0,0 2,0 0,1 -3,1 -1,-2 -5,-2 -3,0 -1,0 -1,2 0,2 3,0 -2,1 -1,0 1,-2 3,1 2,2 3,2 3,2 -4,0 -1,-1 -3,-1 -2,-1 -3,0 -2,0l0 -1c-2,3 0,1 1,3 0,0 4,1 4,0 2,-1 3,0 0,1 -3,1 -2,2 -5,0 0,0 -4,0 -1,0 0,0 2,2 1,2 -2,0 0,1 1,1 2,0 -6,2 3,2 1,0 2,-1 1,0 -1,0 -9,3 -2,2 3,-1 -3,2 -2,2 3,0 8,1 4,1 -1,-1 -6,-1 -3,0 1,0 5,4 3,2 -1,-2 -8,-2 -4,0 4,2 -3,0 0,2 1,1 -6,2 1,2 1,0 6,3 7,4 -1,1 -7,-4 -5,-3 9,3 -7,-2 -5,0 1,1 6,3 7,3 3,0 -1,1 -3,-1 -1,-1 -9,-3 -5,-1 2,1 2,2 6,2 0,0 -4,1 -5,1 0,0 -4,0 2,1 3,1 -2,0 -1,2 2,1 12,1 7,4 0,0 -9,1 -2,1 4,0 8,-1 1,2 -2,2 -1,1 2,1 1,0 3,-1 -1,1 0,0 6,2 7,2 4,1 3,1 -1,1 -2,0 -3,-1 -6,0 2,0 7,2 2,2 -1,0 -4,0 -4,2 0,1 3,1 2,3 1,0 3,-1 3,-1 0,0 -1,2 -1,2 3,1 0,1 1,1 1,0 4,1 5,0 0,0 2,-1 0,0 -1,1 -2,2 -3,2 -1,1 0,0 1,0 2,0 3,0 4,0 0,0 -4,1 -5,1 -1,-1 1,1 3,0 0,0 2,0 2,0 1,0 -2,1 -3,1 0,1 -1,1 0,1 0,0 4,1 3,1 -1,0 -5,2 0,0 1,0 1,0 0,1 -1,1 -1,1 -3,1 0,0 6,1 3,1 -1,0 -3,1 -1,1 0,0 0,0 0,0l0 0z"/>
    <path class="fil4" d="M232 127c0,1 0,0 0,-1 0,0 0,-1 0,-1 -1,0 -1,0 -1,-1 -2,-2 -10,-4 -2,-4 5,1 -6,-3 -6,-3 -5,-4 5,0 2,-2 -1,-2 6,-1 1,-3 -1,-1 -3,-3 0,-1 5,2 -4,-5 -3,-5 2,-2 6,2 2,-3 -2,-1 0,-1 1,-1 0,0 2,0 2,0 -2,-3 1,-1 1,-2 0,0 -4,-5 -2,-5 2,1 -1,-3 1,-1 1,0 1,-2 1,-2 -2,-5 1,0 0,-2 -2,-5 1,0 1,-3 -1,-1 1,1 0,0 0,-2 2,0 2,-3 0,0 -1,-4 -2,-4 0,0 -2,0 -2,0 1,0 1,-1 2,-1 0,0 -2,-3 -1,-3 3,2 -2,-2 1,-1 2,1 -2,-2 1,-1 0,0 0,-1 1,-2 1,-1 -5,-4 -2,-3 1,0 -1,-2 1,-2 0,0 -1,0 -1,0 0,0 2,0 1,-1 -1,-1 4,0 0,-2 -1,0 2,1 2,0 0,-2 -3,-1 -1,-2 0,0 1,0 1,0 0,-1 -1,-2 -1,-2 2,-2 1,0 -1,-2 -1,0 -2,0 0,0 0,0 -3,-1 0,-2 1,0 -1,-2 -2,-2 0,1 -1,2 -1,0 1,-3 2,1 -1,0 -1,0 -3,3 -3,1 -1,0 -3,0 -3,-1 1,-1 -3,1 -4,1 -2,-1 -1,0 1,-1 3,-1 2,-5 5,-7 2,-2 -3,-2 -1,-2 1,-1 0,-1 3,-1 2,0 0,-4 -5,-1 -1,1 2,-3 4,-2 0,0 1,1 2,1 0,0 -2,-2 -3,-2 1,-1 3,2 2,0 -1,-2 5,3 3,0 0,0 -2,-1 1,-1 2,0 -2,-1 0,-1 1,0 1,2 3,1 1,-1 1,-1 0,-2 0,0 3,0 4,-1 1,-1 4,1 1,0 -1,-1 -2,0 -3,0 0,0 3,-1 4,-1 1,0 3,1 1,-1 -1,0 -7,2 -3,0 3,-2 3,2 6,1 1,-1 -2,-2 -3,-2 -1,0 -1,1 -4,1 -1,1 -4,2 -2,0 3,-2 8,-3 10,-1 1,0 3,2 1,0 -1,-2 4,1 3,1 -1,-1 -2,-3 1,-1 0,0 1,2 1,2 0,0 -2,-3 -2,-4 0,0 4,2 4,3 0,0 0,0 -1,-3 -1,-1 -1,-1 1,1 4,2 4,6 4,3 0,-2 -2,-4 0,-1 2,3 2,2 3,5 0,0 0,-2 0,-2 1,0 2,5 2,4 0,-1 1,0 1,-2 2,2 0,9 1,5 0,-2 2,-1 1,-3 0,0 1,0 1,3 0,0 0,3 0,3 0,0 2,-2 3,-2 1,-1 0,-4 1,0 0,1 -1,0 0,2 0,0 0,1 1,1 1,1 -1,1 1,1 0,0 2,1 2,0 1,-1 3,1 4,1 3,1 2,-1 4,-2 0,0 1,-1 1,0 1,2 2,1 4,0 3,0 -2,0 0,-4 1,-1 2,-3 1,-1 0,1 1,2 1,1 -1,-2 1,-2 2,0 1,1 0,-1 3,-1 0,0 2,5 1,2 0,-1 0,-9 1,-5 0,0 0,7 2,5 0,-1 0,-6 0,-6 0,3 1,2 1,5 0,1 1,3 1,0 3,-1 -1,3 1,-2 2,-2 1,-5 2,0 1,1 -1,1 -1,2 5,0 1,-2 5,-3 1,0 1,1 2,-1 0,0 -3,6 0,4 1,-1 -1,2 3,0 3,-3 1,-1 1,1 0,0 2,-1 2,-2 0,1 -1,4 0,4 2,-2 1,0 3,-2 1,0 3,0 3,0 -1,1 0,0 1,0 2,0 2,-2 1,1 -1,2 3,-2 5,-2 0,0 -2,3 -1,3 1,-1 -1,3 2,1 0,-1 2,-1 2,-2 0,0 0,3 1,2 0,1 -1,2 1,1 0,0 2,-1 2,0 0,0 0,-1 3,0 2,0 2,0 3,0 1,1 -1,0 2,0 1,0 -2,3 1,2 1,-1 -1,3 0,2 1,-1 3,-1 3,-2 0,3 -2,4 0,4 0,3 -3,2 1,2 0,0 -4,5 -4,5 3,0 2,1 0,3 0,1 6,0 -2,3 -2,0 4,-1 0,2 -2,2 3,0 -1,2 0,1 1,1 1,1 0,1 -2,1 -1,1 3,0 0,3 -1,3 -1,1 5,-1 2,1 -3,1 1,1 1,0 1,0 0,1 -1,2 -5,3 -4,1 -7,3 0,0 1,-1 3,0 3,1 1,-1 1,0 2,0 1,1 4,1 0,0 -2,1 -4,1 -1,1 -4,1 0,1 3,0 3,-1 3,0 -1,0 -4,2 -5,2 3,1 1,2 3,1 1,0 5,3 3,1 -2,-1 -2,0 -3,1 -1,0 0,2 4,3 -1,0 -1,3 2,2 1,-1 2,-1 0,0 -1,0 0,1 -2,1 3,0 0,0 3,1 0,0 -3,0 -3,1 0,0 4,0 3,1 -1,0 -4,-1 0,1 2,2 -1,1 -2,1 0,1 3,1 3,1 -2,1 -5,1 -2,1 3,0 3,-1 0,2 0,0 -2,0 0,0 2,1 -1,1 0,1 2,1 -8,2 3,2 0,0 -4,1 -5,2 -1,1 -4,-1 -2,1 2,1 -3,2 2,1 2,0 -1,1 -2,2 -1,1 3,-1 -1,2 0,0 2,1 3,1 0,0 -2,2 -4,2 1,0 3,0 2,1 -1,0 -3,-1 -4,0 -2,0 4,1 3,2 -1,0 -3,-1 -4,-1 0,1 2,1 2,2 0,0 -4,0 -4,0 1,0 1,1 1,1 1,1 5,2 5,2 1,0 -4,-1 -6,0 -1,0 3,1 2,1 0,0 -4,0 -3,0 5,2 0,0 0,0 -1,1 5,2 5,2 3,1 -9,-1 -6,0 1,1 -3,0 -2,1 1,0 3,1 3,1 1,1 -4,0 -4,0 15,4 0,0 0,1 0,0 4,1 4,1 -1,1 -6,-1 -7,0 -12,8 -49,20 -55,19 -26,-4 -36,-33 -38,-26z"/>
    <path class="fil5" d="M316 147c0,1 -5,-4 -4,-4 1,2 1,5 -1,7 2,-3 2,-5 0,-6 -1,-1 0,-1 0,1 -1,0 -3,0 -1,1 0,1 -3,0 -4,-1 1,0 0,1 0,1 1,1 2,1 2,2 -2,0 -3,-2 -3,1 1,2 1,-1 -3,0 0,0 -1,0 -3,1 2,0 1,0 -1,-1 0,0 -2,1 0,2 0,0 -6,-1 -5,1 2,1 2,3 3,6 -1,-3 -3,-6 -5,-6 -2,-1 -1,3 -4,1 -1,-1 3,3 -2,1 -2,-2 2,1 0,0 -3,0 -2,1 -2,1 1,1 -2,-1 -3,1 -2,0 -3,-1 -3,-1 -1,1 -1,0 -2,0 -3,0 -3,2 -4,1 -2,-1 0,-1 -2,0 -2,1 -2,-2 -4,0 0,0 -4,-2 -5,-2 0,0 -4,-1 -5,-1 0,0 -3,-3 -3,-2 -1,1 -1,-2 -2,-1 -1,1 0,-1 -1,0 -1,0 0,-1 -1,-1 -1,-1 -1,-2 -4,-2 -1,0 0,-2 -1,-2 -1,0 0,-1 -2,-3 0,0 1,-2 -1,-1 0,-3 2,-2 0,-3 -1,0 0,-1 -1,-1 0,0 0,-1 -1,-1 -1,0 0,-1 -1,-1 -2,0 -2,-1 0,-2 -1,0 -3,1 -1,-2 -1,1 0,2 -3,2 -1,-1 -1,0 2,-2 2,-3 -4,2 0,-2 0,-1 -2,-3 -2,-3 -3,0 1,-1 0,-2 -2,-2 -1,-2 -1,-2 -2,-3 -2,-1 0,-2 0,-1 -5,-4 -1,-2 0,0 -2,-3 -1,-3 1,0 2,0 1,-1 0,0 0,-1 -1,-2 1,0 3,2 3,-1 0,-1 -4,-3 0,-2 0,0 -1,-4 0,-3 2,1 1,-1 0,-1 0,0 -2,-4 1,-2 1,0 -1,-3 -2,-4 -2,-2 3,0 1,-2 0,0 -2,-3 -2,-3 1,1 1,-1 1,-2 0,-1 -1,-1 0,-2 1,-1 -1,-2 0,-2 0,0 1,-2 0,-3 -1,0 -1,-1 -1,-1 3,1 -1,-2 2,-1 0,0 3,-1 2,-2 0,0 0,0 0,-1 -1,-1 1,0 2,-1 0,0 3,0 0,-1 0,0 -1,0 1,0 2,0 -1,-1 -1,-1 0,-1 1,-1 -2,-3 -1,-1 2,0 3,1 1,1 1,-1 0,-2 -1,-2 2,1 1,0 0,0 -1,-2 1,-1 1,1 0,-1 -1,-2 -7,-8 8,5 1,-1 -1,-2 -2,-3 -4,-5 2,-1 9,11 5,3 -2,-4 1,-2 3,0 -1,-1 -2,-3 -1,-3 3,1 2,1 2,0 0,-1 -1,-2 -2,-4 0,-2 -4,-6 -2,-4 1,1 4,8 5,6 1,-1 -3,-3 -1,-2 1,1 3,2 3,-1 0,-1 -3,-2 0,-1 1,0 -1,-1 -1,-2 0,0 -6,-6 -3,-4 1,1 4,5 5,5 0,0 1,2 1,0 1,-2 -1,0 1,1 0,0 0,-4 2,-1 1,-1 2,-4 1,-5 2,1 0,3 2,1 3,-5 2,0 2,-1 1,0 1,-2 2,-3 0,0 0,3 1,2 0,0 4,-3 3,-3 0,2 0,3 2,1 3,-4 2,-2 3,0 0,1 2,-1 2,0 0,3 0,1 2,0 1,1 -1,2 1,1 2,-1 1,2 2,1 2,-1 2,1 3,0 2,-3 1,1 3,-1 0,-1 0,1 1,-1 0,0 0,1 1,0 1,-1 3,1 3,-2 1,-1 1,3 2,1 1,-3 1,3 2,1 0,-2 1,2 1,2 0,-6 2,3 2,-1 0,0 2,0 1,3 0,1 0,4 1,2 0,-1 2,-2 2,-4 0,2 1,3 1,6 0,0 2,-3 2,-4 1,0 1,1 1,2 0,2 -2,5 -1,3 2,-3 2,0 0,2 -1,1 3,-1 3,-1 -1,1 -5,7 0,3 1,1 -3,3 -1,3 3,0 2,-1 0,2 -1,1 3,0 2,1 0,0 -3,2 -1,2 0,0 2,0 1,1 -1,1 1,2 1,3 0,1 1,2 2,4 0,0 0,1 1,1 1,1 3,4 4,4 1,0 2,2 3,2 -1,0 -1,-1 1,-1 1,0 4,-2 4,-2 0,-1 1,-1 1,-2 0,0 2,-1 1,-1 0,-2 0,-1 -1,-3 -2,-2 -3,-1 -6,-3 -3,-2 -5,-8 -8,-11 0,0 -4,-4 -2,-4 2,1 0,0 0,-2 -1,-2 -4,-4 -3,-4 2,1 -1,-2 -1,-3 -1,0 -2,-1 1,-1 1,0 1,2 1,0 -2,0 -2,-1 -4,-1 0,0 1,0 2,0 2,0 -4,-1 0,-2 1,0 4,-2 5,0 0,0 -2,2 -1,2 0,0 2,1 1,1 0,0 -2,1 0,1 0,0 4,2 1,2 -1,0 0,1 1,2 3,4 -2,0 2,5 1,1 2,2 2,3 0,-3 2,-3 1,0 0,2 3,5 2,4 -2,-1 1,-5 2,0 0,3 4,5 5,9 2,-2 1,-2 1,-5 0,-2 -1,-2 -2,-4 1,1 4,5 4,6 1,2 4,-2 3,-5 -1,-1 4,-1 3,-2 -3,-1 0,-4 -2,-5 -2,-2 0,-4 -6,-4 -1,0 -2,-2 0,1 2,3 -6,-4 -6,-4 -2,-1 0,1 -3,-2 2,0 2,3 6,2 2,0 1,1 4,0 3,0 6,1 7,3 0,0 -2,-3 -4,-3 -3,-2 -5,0 -9,-3 -2,-1 -5,-2 -1,0 0,0 8,1 4,1 -1,0 -4,-3 -7,-1 -2,1 -6,-5 -7,-2 0,-1 4,-3 5,-4 1,1 -2,5 4,2 0,-1 0,1 0,2 3,0 3,0 4,-3 2,1 -2,3 1,2 3,0 2,0 3,-1 1,1 -3,2 3,2 0,0 2,-2 -1,1 -1,1 7,-1 6,0 0,0 -1,2 0,1 2,-2 10,1 7,1 -1,0 -2,1 0,2 1,0 1,1 2,0 1,0 1,0 0,1 -2,0 3,1 -1,2 -1,1 1,1 -2,3 0,0 1,3 -2,5 -1,1 -1,2 -1,2 -1,-2 3,-2 1,-6 -1,-2 0,1 -1,3 0,0 -5,6 -3,4 1,0 2,-3 2,0 0,2 -6,7 -8,8 0,0 -2,3 -4,4 1,1 1,1 3,1 0,1 -1,0 -1,1 -1,1 -1,0 0,1 1,1 -2,2 1,0 1,-1 1,-3 -1,-4 0,0 3,-2 3,-3 0,0 3,-3 3,-3 2,-2 2,1 1,2 -1,1 -2,2 -2,3 1,0 1,-1 0,1 -2,2 3,-1 1,2 -2,1 -1,2 0,1 1,0 -1,2 -1,3 1,0 4,-1 4,-1 0,0 -4,4 -3,3 3,-1 2,2 3,2 5,0 -2,2 0,2 2,0 0,2 1,3 2,2 -9,5 -3,5 2,0 1,-1 0,1 1,0 5,0 3,1 -5,1 -2,2 1,0 0,0 -1,1 -1,2 -4,4 -5,1 -8,3 1,1 4,0 5,-1 1,0 3,-1 3,-2 0,2 -2,3 -4,5 -3,2 -5,2 -5,2 1,0 6,-1 7,-2 0,0 4,-2 5,-3 1,0 -2,2 -2,3 -2,1 -3,2 -5,3 3,0 2,0 4,-1 2,-1 7,-1 1,1 -1,0 -1,1 -1,1 -2,2 -2,3 -4,3 0,0 3,1 2,2 -4,2 0,-1 1,1 1,1 0,-1 -2,1 0,1 4,0 0,2 -2,1 1,0 2,2 0,0 -3,1 -3,1 -1,1 2,2 1,2 0,0 -4,1 -2,1 0,0 3,1 2,1 -1,0 -2,1 -4,1 0,0 -3,1 -2,1 1,1 8,4 2,3 -2,0 1,3 1,3 0,0 -3,0 -3,0 -2,0 -3,1 -2,1 4,-1 27,5 19,3 -7,-1 -13,-3 -20,-3 0,0 -1,1 -2,1 -2,1 -1,1 -1,1 -1,1 -4,0 -3,1 2,1 -1,-1 0,0 6,4 11,9 15,14 -6,-7 -11,-12 -16,-14 0,0 0,1 0,1 8,6 9,17 4,29 4,-12 2,-23 -4,-28 0,-1 -1,-1 -1,0 0,1 2,2 2,2 1,2 1,11 0,11 0,-1 1,-6 0,-9 0,-2 -2,-3 -2,-3 -1,-1 -1,1 -1,1 -1,0 -1,0 -2,0 0,0 4,6 4,5z"/>
    <path class="fil6" d="M240 138c0,-1 -4,-1 -1,-3 0,-1 -2,-7 -2,-7 -3,-2 0,-3 -3,-3 0,0 -4,-1 -1,-3 4,-2 -4,-3 -1,-5 4,-2 1,1 2,-6 0,-4 -3,-4 0,-5 2,0 -4,-2 -1,-3 1,-4 3,2 -1,-5 -1,-2 2,3 0,-2 -2,-4 2,0 0,-6 -1,-2 2,-3 -1,-3 -1,-4 4,-2 1,-5 0,0 10,0 5,-3 0,0 -5,0 -1,-1 0,0 -1,-2 2,-2 6,0 1,1 1,-3 4,0 -1,2 1,-2 1,0 4,2 3,-2 2,-1 1,2 3,-3 2,-2 5,1 1,0 0,-1 2,-4 4,-2 1,2 1,-2 1,1 1,2 2,-5 2,-5 7,-2 -1,4 3,-2 10,-13 -3,3 -3,5 0,3 -2,6 0,9 0,0 5,4 2,1 -1,-2 0,-2 -2,-3 -2,0 -4,-3 -7,1 0,1 -2,-1 -4,4 0,0 4,1 -3,3 0,2 6,0 -1,3 -1,1 1,2 3,-1 1,-2 2,1 1,-1 -1,-2 4,-2 2,-4 0,-1 1,-8 5,-4 0,0 5,1 4,3 -1,2 -1,-3 -5,1 0,1 -3,0 0,2 5,4 -2,0 -4,1 1,1 3,2 4,3 -1,0 -3,-1 -6,1 -1,0 5,1 -1,1 0,0 -5,2 0,1 6,-1 -2,2 -2,3 -2,4 0,1 1,1 0,-1 5,-2 1,1 -2,2 2,-1 5,-1 7,0 7,10 7,10 -2,-1 0,-4 -6,2 -3,2 -11,-4 -5,-7 3,-1 -2,-2 8,-2 0,0 -3,-2 -5,-1 -7,3 -5,4 -8,6 -3,1 3,1 3,3 2,1 -6,1 -1,2 1,0 -2,3 -1,3 1,0 -1,2 0,4 0,0 -5,12 -3,9 3,-3 6,-6 9,-8 4,-3 -2,-4 2,-4 1,-3 -2,0 1,-2 1,-1 -1,0 3,-2 2,-1 -2,-3 3,-3 0,0 3,-2 2,-3 -6,-3 2,-4 2,-2 -3,-2 1,-3 1,-4 0,-3 1,4 1,-2 0,-2 2,-3 -1,-6 -1,-1 -2,-10 -2,-5 0,1 4,1 4,6 0,1 1,4 0,8 -1,2 -3,0 -4,6 0,3 -9,7 -10,13 0,1 -5,8 -5,11 0,1 -1,0 -1,4 0,1 -2,3 0,9 0,1 1,5 0,5 0,-1 -1,0 -1,0z"/>
    <path class="fil7" d="M305 92c1,0 5,1 3,2 -3,1 -2,5 -10,4 -1,0 -8,-5 -5,0 0,1 -2,2 1,2 4,1 10,11 14,11 6,0 1,3 -3,-2 -2,-3 -14,-9 0,2 10,8 8,8 -2,1 -2,-1 -8,-7 -11,-8 -4,-2 1,-1 -1,-3 0,0 0,-1 0,-2 0,-1 1,-1 1,-1 0,0 -2,-1 -2,-1 1,0 2,0 2,0 0,0 -1,0 -1,-1 0,0 0,0 0,0 1,-1 -1,0 -1,-1 0,0 0,0 0,-1 -2,0 -1,1 -1,1 0,0 -1,-1 -1,-1 0,0 -2,2 -2,2 -3,3 -8,3 -12,3 0,0 6,-6 0,-3 -3,2 1,-3 -2,-3 -3,0 5,-8 6,-8 0,2 -2,7 2,2 2,1 -2,5 2,2 2,-1 -2,4 1,3 2,-1 -1,3 3,1 0,0 1,1 1,-1 0,0 0,0 0,0 0,-1 1,0 1,-1 0,0 -2,0 -2,0 0,-1 1,-1 1,-1 0,0 0,-1 0,-1 0,0 0,0 0,0 0,-1 1,-1 1,-1 0,0 -1,-1 0,-1 0,0 2,0 2,-2 1,-1 3,-1 5,-1 0,0 0,0 1,0 1,0 3,1 5,2 -1,1 2,-1 3,3 0,2 0,1 -1,0 0,0 1,0 -1,-1 -4,-4 -10,-2 -11,1 0,1 -1,1 -1,2 -1,2 0,4 0,2 0,-2 1,-1 1,0 0,1 1,1 1,1 1,1 -1,0 -2,0 2,1 -1,0 7,2 0,0 7,0 7,-3 0,-1 0,-1 1,-1z"/>
    <path class="fil8" d="M244 120c-3,3 -1,3 -2,6 -2,0 -9,0 -11,2 -1,0 -6,3 -2,2 1,-1 0,-2 4,-2 2,-1 2,-1 5,-1 0,0 -7,3 -8,5 -2,4 4,-3 7,-3 1,0 1,-1 3,-2 1,0 1,0 2,0 0,1 -1,2 -2,2 -3,0 -10,7 -12,10 -1,0 -4,1 -5,2 -1,1 -6,3 -2,2 3,0 7,-2 9,-5 2,-5 6,-3 10,-7 1,-1 0,-1 0,2 0,0 -7,4 -7,5 -2,2 -5,5 -6,9 0,0 -1,3 -1,4 0,3 3,-5 4,-6 1,-2 3,-4 4,-6 0,0 5,-4 6,-5 0,-1 1,0 0,1 -4,2 -8,8 -11,11 -2,2 -1,4 -1,6 0,0 2,-4 2,-5 4,-7 5,-4 9,-9 2,-3 1,0 1,0 1,2 1,0 1,3 0,1 1,-1 1,2 0,1 1,2 1,3 0,0 4,4 5,4 1,0 3,2 6,3 1,0 4,4 9,3 5,-1 11,1 14,0 0,0 7,-2 5,-2 5,1 0,1 1,0 2,-3 1,-1 2,-1 0,0 -1,-4 3,-1 2,3 -4,-4 0,-2 0,0 2,2 1,0 -1,-1 -2,-2 -4,-3 -1,0 -2,0 -3,-2 -1,-1 0,-2 -2,-3 -1,-2 -1,-3 1,-1 1,1 6,4 8,5 3,2 4,1 7,3 1,1 0,-1 -3,-2 -4,-1 -6,-5 -10,-7 -1,0 -3,-2 -4,-2 3,0 6,2 8,3 2,0 5,3 8,4 1,0 9,3 4,1 -3,-2 -6,-1 -11,-5 -4,-3 -4,-3 -7,-5 -3,-1 1,-1 3,1 1,0 -2,-2 -2,-2 2,-2 4,1 -2,-2 -4,-1 9,4 4,0 -1,-1 0,-1 -2,-2 0,0 3,1 2,0 -3,-3 0,0 3,0 -1,0 -2,-1 -3,-1 0,-1 8,1 3,-1 0,0 -4,-1 -2,-1 5,0 2,-1 -1,-2 -1,-1 7,-2 2,-2 -4,-1 1,-2 1,-2 0,-1 -1,0 -3,-1 0,0 3,-1 1,-1 -6,-1 8,-3 3,-3 -4,0 -3,-2 -5,-3 1,0 5,2 1,0 -3,-1 0,-1 2,0 0,0 3,1 3,1 -2,-1 -3,-2 -4,-3 -2,-2 7,2 7,2 2,-2 -5,-1 -8,-4 0,-1 9,3 10,2 -4,-1 -5,-3 -9,-5 -4,-2 1,0 -1,-1 -3,-3 -3,-1 -1,-2 5,-1 -4,-1 1,-1 1,0 4,1 0,0 -3,-2 -8,-1 1,-1 1,0 -3,-1 -4,-1 -2,1 -2,1 -4,1 0,0 4,-3 1,-2 -1,0 3,-2 -1,-1 -3,1 -1,1 0,-1 1,-1 0,0 -1,0 0,0 -5,1 -3,1 1,0 2,-3 1,-2 0,0 -2,2 -1,0 2,-1 0,0 -1,0 2,-1 2,-5 0,-2 -1,2 3,-5 0,-2 -1,2 1,-2 1,-3 -4,3 -1,1 -1,-2 0,0 -2,-3 -1,1 1,2 -1,-3 -1,-4 2,-5 0,-1 3,1 0,0 -1,0 -1,-3 0,-5 1,-3 2,-7 0,-1 0,-3 0,-4 0,-1 1,-2 0,-3 0,0 -1,-1 0,-1 0,0 0,-3 -1,-4 0,0 0,-1 0,-2 1,2 1,3 2,5 0,6 1,4 1,0 0,-6 -1,-4 -3,-8 0,0 2,1 2,0 -1,-1 -2,-3 1,-3 1,1 -1,-1 0,-3 1,-1 0,0 -1,2 -1,0 0,-3 -1,0 -1,1 0,2 0,-1 0,0 2,-5 1,-2 -1,1 -2,2 -3,3 -1,-3 4,-7 0,-4 -1,1 -1,4 -1,0 -2,0 -3,2 -3,-1 0,-2 1,-2 -1,0 -1,1 -2,3 -2,0 0,-1 0,4 -2,3 0,-1 -1,2 -2,3 -2,1 -1,0 -1,-1 0,-1 -3,3 -1,5 0,-1 -2,-2 -2,-4 0,2 0,2 1,5 0,1 -3,-5 -3,-1 1,0 3,2 1,1 -1,0 -3,-2 -2,0 1,2 2,2 -1,0 -1,0 2,3 2,4 -1,0 -4,-5 -3,-1 0,0 5,5 1,2 -1,-1 -4,-5 -1,-1 3,3 0,2 3,6 0,1 0,1 2,3 1,1 -2,-1 -3,-2 -3,-3 0,0 0,1 -1,-1 0,-2 -3,-2 1,0 1,3 2,3 1,-1 0,-1 2,1 2,2 0,0 2,2 2,2 3,0 5,3 0,0 1,-1 1,-2 0,0 1,7 -1,5 0,-1 1,2 0,3 0,2 2,1 0,2 -1,1 -1,4 -3,2 0,0 2,4 -1,1 -1,-1 3,4 1,3 -1,-1 -2,-3 -1,0 3,4 -3,-2 -2,-1 2,2 1,4 0,0 -1,0 -2,-2 -2,-2 0,1 4,6 2,4 -2,-2 1,2 1,2 0,0 -7,-4 -4,-1 0,0 4,3 1,1 -3,-1 2,2 0,2 -2,0 -2,0 -4,-1 0,0 3,2 3,3 0,0 -1,-1 -2,1 -1,0 -2,0 0,0 0,0 -1,2 -3,2 0,1 2,1 -1,1 -1,0 1,0 0,2 0,0 0,2 -1,4 0,0 0,3 -1,5 -1,0 -2,4 -1,4z"/>
    <path class="fil0" d="M249 115c2,0 3,-2 1,-2 -2,-1 3,-3 -1,-2 -1,0 -1,2 -2,2 -2,0 0,0 0,2 -1,1 2,-1 2,0z"/>
    <path class="fil9" d="M259 111c-3,0 -1,1 -4,1 -4,0 -4,2 -5,5 0,1 -1,2 -2,2 -2,0 1,3 -1,5 -2,1 1,1 0,2 0,1 0,1 0,3 -1,0 0,2 0,2 1,0 -1,4 0,3 1,-1 0,1 -1,2 0,0 -1,2 0,1 4,-1 -2,4 0,3 4,-3 0,1 1,3 0,-1 2,-4 1,0 0,0 0,3 0,1 0,-1 1,-2 1,0 0,1 -1,2 0,3 1,-1 0,-1 1,-3 2,-2 2,4 2,1 0,-2 4,-4 -1,0 -1,1 1,2 -1,2 -1,1 -2,3 1,1 0,0 2,0 3,1 1,0 0,1 2,0 -1,2 2,1 2,2 0,1 0,0 1,1 1,1 1,0 2,1 2,2 0,-2 3,1 1,1 1,-1 3,0 1,1 0,-1 2,0 1,1 -1,-1 4,0 -2,0 2,0 2,0 -2,-2 3,-1 3,-1 0,0 5,0 4,-1 -1,-1 3,1 2,0 -1,-2 2,0 0,-1 -1,-2 1,0 1,-2 -1,-1 -1,-2 -3,-4 0,0 -4,-4 0,-2 2,1 0,0 -1,-2 0,-2 -3,-2 0,-2 1,0 0,0 -1,-1 -1,-3 -1,1 0,-2 1,-2 0,-2 0,-1 1,-1 -2,-2 2,-2 -3,0 -3,-7 1,-5 0,0 2,0 0,-1 -1,-1 -1,-3 1,-1 1,0 0,-1 1,-1 4,0 -4,0 -1,-2 3,-2 0,-1 0,-2 0,-1 2,0 0,-1 -1,-1 2,-2 2,-2 -4,0 2,-2 -1,-2 -1,0 -1,-1 -1,-1 0,0 -4,-2 -1,-2 1,0 1,1 4,1 2,0 2,2 0,0 -1,0 -1,-1 -2,-2 -1,-1 1,-2 3,-1 0,0 3,0 -1,0 -2,0 0,0 0,-1 -1,-1 1,-2 0,-2 -2,0 -2,-2 -3,-3 -2,-1 2,3 2,3 -1,4 -1,-2 0,2 0,0 -2,1 -1,0 0,-2 -2,-2 -2,-4 0,-1 -1,-1 1,1 0,1 -1,4 -3,3 0,0 -1,1 0,2 1,0 2,2 3,3 0,0 0,2 0,2 -2,0 -1,3 -4,0 -1,-1 2,0 0,-2 -1,-1 1,-1 0,-1 -2,0 0,-1 -1,-1 -1,1 -3,0 -4,0 -1,0 1,0 1,1 -2,0 -2,-1 -2,0 0,0 -3,-2 0,-2 1,0 5,-2 0,-1 -3,2 0,1 -3,1 -2,0 -2,1 -3,0 -2,-2 4,-1 0,-2 -2,0 -1,0 -3,1 -3,2 -3,0 -6,0 0,0 0,0 0,0z"/>
    <path class="fil7" d="M284 120c-1,0 -3,-1 -4,-1 0,-1 -1,-2 -1,-2 1,0 1,-4 -4,-2 -1,1 -4,-3 -7,-1 -1,1 -4,0 -5,-1 0,0 -4,-1 -3,0 1,1 -2,0 -3,1 -1,1 -2,-1 -5,2 -2,2 0,2 -1,4 -1,0 -1,-1 -2,1 0,0 -1,1 1,2 1,1 -1,4 0,4 0,1 0,0 1,2 0,1 0,1 2,3 0,1 4,5 2,4 -1,0 -3,-2 -4,0 -1,1 0,3 0,5 0,3 3,-1 3,2 0,1 1,0 -1,1 -1,1 -3,4 -1,3 1,-1 3,-3 3,0 0,1 2,4 4,4 2,1 0,1 1,0 1,-1 2,1 2,1 2,-5 1,4 3,-1 0,0 1,1 2,2 -1,-4 1,0 1,-1 0,-1 6,3 4,0 -2,-1 2,1 1,1 -1,-2 0,-2 1,-1 0,-3 3,0 3,-1 -1,-3 3,1 1,-1 0,-1 1,-4 2,-2 1,-1 -1,-2 3,0 0,0 -4,-7 -3,-4 0,0 1,4 -1,1 0,-1 -6,-9 -1,-4 1,1 1,3 2,0 0,-1 -3,-2 0,-2 -1,0 0,-2 -1,-3 0,0 2,1 1,-3 0,0 -4,-4 -1,-6 0,0 1,0 2,0 0,1 -4,-5 -1,-4 3,0 1,2 1,-1 -1,-4 0,1 3,-2 0,0 0,0 0,0z"/>
    <path class="fil4" d="M279 116c-1,-1 -3,-2 -4,-2 1,0 2,3 2,3 0,1 2,0 1,3 0,1 1,0 2,1 1,2 -1,0 0,-1 0,0 2,0 0,-1 -1,0 -1,-3 -1,-3z"/>
    <path class="fil4" d="M265 115c-1,0 -2,-1 -5,-1 -1,0 -4,-2 -1,1 0,1 -1,1 -2,0 -1,-1 -3,0 -4,1 0,0 -2,3 -1,2 0,0 4,-4 5,-2 2,3 0,1 -1,2 0,1 0,3 -1,1 -2,0 -1,5 -3,3 -1,-1 0,-4 -2,-1 -1,1 1,2 1,3 0,1 1,2 2,3 0,2 4,2 5,1 1,0 2,1 2,-2 -1,-2 -3,-3 -1,-2 1,0 3,4 0,5 0,0 -2,2 -2,2 -3,0 -4,-6 -4,0 0,0 2,5 4,5 3,0 8,3 8,6 0,1 -8,3 -8,3 0,4 1,4 2,4 0,0 -3,-1 0,-3 1,0 0,0 2,-1 3,-2 4,1 6,3 -2,0 -2,-4 1,-2 0,0 -1,-1 2,1 0,0 -1,-1 1,-1 0,0 2,2 1,1 2,-2 3,2 2,-1 0,0 1,1 2,0 3,0 3,2 1,-1 -2,-1 -5,1 -8,-1 -3,-1 -6,-4 -3,-6 5,-3 4,-1 7,-4 2,-1 6,-5 5,-7 -1,-1 -1,2 -3,2 -4,1 1,0 -1,1 -2,1 -4,-1 -6,-1 -1,0 -1,-3 -1,-2 0,1 3,1 4,1 1,1 7,-1 6,-3 -1,-2 -6,-2 -6,-2 1,1 2,3 0,2 -2,-1 -2,-4 4,-1 0,0 3,1 3,1 1,-2 -1,-2 -1,-3 -3,-3 -3,-3 -7,-2 -1,0 -2,1 -2,0 0,0 -2,-1 0,0 0,-1 -2,-2 0,-3 3,-1 9,4 10,1 1,-2 -6,-3 -8,-4 -1,-1 -3,1 -5,1 0,0 0,0 0,0z"/>
    <path class="fil10" d="M252 96c-1,0 -1,-1 -1,-2 0,0 0,-1 0,-1 0,-1 0,-2 0,-1 -1,0 -1,-1 -1,-1 -1,0 0,0 -1,0 -1,0 -1,0 -1,0 0,0 -1,0 -1,0 0,-1 0,0 0,-1 1,0 0,0 1,0 0,0 -2,-1 -2,-1 -1,-2 0,0 1,0 0,0 -1,0 -1,0 -1,0 0,0 0,0 0,0 -1,0 -1,0 0,1 -1,0 -1,1 -1,0 -2,-1 -1,0 0,0 1,0 -1,1 -1,0 -1,0 0,0 1,0 1,0 0,1 0,0 -1,0 0,0 0,0 0,0 0,0 0,0 1,-1 1,-1 1,0 1,-1 3,-1 0,0 0,0 1,0 0,0 0,0 0,1 0,0 0,0 0,0 -1,0 -1,0 -2,0 0,0 0,0 -1,1 0,0 0,-1 -1,0 -1,1 -1,1 0,2 0,1 0,0 0,1 -1,0 0,1 -1,1 0,0 0,-1 0,-1 0,0 -1,1 -2,1 0,0 -1,-1 0,-1 0,1 1,1 -1,1 0,0 2,2 0,1 0,-1 0,0 1,0 1,0 -1,-1 0,-1 1,0 1,1 1,0 1,0 1,0 1,0 0,0 0,0 1,1 0,0 0,0 0,0 0,0 0,1 0,1 0,-1 1,0 1,1 1,0 1,0 1,0 -1,0 -2,-2 -1,-1 0,0 1,0 1,1 1,0 2,0 2,0 0,-1 1,-1 2,-1 0,0 0,0 1,0 0,-1 1,0 0,-1 0,0 1,0 1,0 0,0 0,-1 0,0 1,0 0,-1 1,-1z"/>
    <path class="fil11" d="M250 92c-1,0 -1,0 -2,0 0,0 -1,-1 -1,0 -1,0 -1,-1 -2,0 -1,1 -1,1 -2,2 0,1 0,2 1,2 0,0 0,1 0,1 1,1 1,1 2,1 1,1 1,0 2,0 0,0 0,0 1,0 0,0 1,-1 2,-2 0,0 -1,0 0,0 0,-1 -1,-1 0,-1 0,0 -1,0 0,-1 0,0 -1,0 -1,0 1,-1 0,-1 0,-2l0 0z"/>
    <path class="fil4" d="M249 93c0,-1 0,0 -1,-1 -1,0 -1,1 -1,0 -1,0 -1,1 -1,1 -1,0 -1,0 -1,0 -1,1 0,0 -1,1 0,0 0,0 0,1 0,0 0,0 1,1 0,0 0,1 0,1 0,0 1,1 1,0 0,0 -1,0 -1,0 0,-1 -1,-2 1,-2 0,0 1,0 0,1 0,0 1,0 0,1 0,0 0,1 1,0 0,-1 1,0 1,0 0,-1 1,0 0,-1 -1,0 -1,0 0,-1 0,0 0,1 0,0 0,0 1,0 1,-1 0,-1 1,0 1,0 1,0 0,0 0,-1 0,0 0,0 -1,0 0,0 0,0 0,0z"/>
    <path class="fil12" d="M246 92c0,0 0,0 0,0 0,0 -1,1 -1,1 -1,0 -1,0 -1,1 0,0 0,0 0,1 0,0 0,0 0,1 0,0 1,1 1,2 1,0 0,0 0,0 -1,0 -1,-1 -1,-2 -1,0 -1,-2 0,-2 0,-1 0,-2 0,-1 1,0 1,-1 2,-1z"/>
    <path class="fil8" d="M246 92c-2,0 -1,0 -2,1 0,0 2,0 2,-1 0,0 0,0 0,0z"/>
    <path class="fil11" d="M302 91c-1,0 0,0 -1,-1 -1,-1 -1,-1 -2,-1 -1,-1 -2,0 -3,-1 0,0 -2,1 -2,1 0,0 -1,0 -2,1 0,1 0,1 0,1 0,1 -1,1 0,1 0,0 1,1 1,1 0,0 0,0 0,1 0,0 1,1 1,0 0,0 0,0 1,0 0,1 -1,1 1,1 0,0 0,0 0,0 1,0 1,1 1,1 0,0 1,0 1,0 0,-1 -1,-1 0,-1 1,0 2,0 2,0 0,0 -1,0 0,0 0,0 -1,-1 -1,-1 1,0 0,-1 1,-1 1,0 0,-1 1,0 1,0 1,0 1,0 -1,-1 0,-1 0,-2l0 0z"/>
    <path class="fil4" d="M297 93c0,0 -1,1 -1,0 0,0 -1,0 0,-1 0,-1 0,0 0,0 0,-1 -1,-1 -1,0 0,0 -1,0 -1,0 0,0 1,0 0,-1 0,0 0,0 -1,0 0,0 0,1 -1,1 0,-1 1,-1 1,-1 0,0 -1,0 0,0 0,0 -1,-1 0,-1 1,-1 0,0 1,0 1,-1 1,0 1,-1 1,0 0,1 1,1 0,0 1,0 1,0 0,0 1,0 2,0 0,0 0,0 1,0 0,0 0,0 0,1 0,0 1,0 0,1 0,0 0,0 0,0 -1,1 0,1 -1,1 0,1 0,1 -1,0 0,0 -1,0 -1,0z"/>
    <path class="fil8" d="M298 92c-1,-1 -2,-1 -1,0 0,0 1,0 1,0 0,0 0,0 0,0z"/>
    <path class="fil8" d="M301 90c0,0 -1,0 0,1 0,0 0,1 1,1 0,0 0,-1 0,-1 0,0 -1,-1 -1,-1z"/>
    <path class="fil8" d="M300 89c0,0 0,2 -1,1 0,0 -2,0 -2,0 0,0 0,0 -1,0 0,0 1,0 1,-1 0,0 0,0 1,0 0,0 0,1 1,0 0,0 1,0 1,0z"/>
    <path class="fil4" d="M283 154c3,0 5,-4 10,-4 3,0 -2,-2 4,0 1,-1 -1,-2 2,-3 3,-1 -2,-3 3,-4 3,0 -3,-2 2,-3 2,-1 -3,-3 2,-4 0,0 -4,-4 -3,-3 1,4 -2,1 -3,7 0,0 -3,4 -3,4 -6,0 -2,4 -6,4 0,0 -1,3 -4,-3 -3,-3 2,1 2,-6 -1,-6 8,0 6,-3 -2,-4 3,1 0,-3 -1,-1 1,1 2,-1 0,-1 5,2 -1,-3 0,-1 2,0 0,-2 1,-1 3,1 -1,-3 0,-1 0,-3 -2,-2 0,0 2,2 1,2 -1,2 1,1 1,4 0,1 3,1 3,2 -4,3 -5,-1 -4,2 0,1 1,-1 0,3 -4,0 -4,-2 -5,2 0,0 -6,-1 -2,0 0,0 -1,-6 -1,-6 2,0 2,2 3,-1 8,-3 -2,-2 2,-4 1,0 -4,-1 0,-2 1,0 -7,-2 -2,1 3,1 -2,1 0,2 3,1 -3,4 -3,5 0,3 2,0 0,4 -2,2 6,4 0,6 -1,1 -2,0 1,2 2,3 -4,2 1,5 2,1 -1,1 3,2l-8 3z"/>
   </g>
   <g>
    <line class="fil0" x1="425" y1="114" x2="425" y2= "116" />
    <line class="fil0" x1="410" y1="148" x2="410" y2= "154" />
    <path class="fil13" d="M407 119c3,0 6,1 8,3 3,1 5,3 7,6 1,2 2,5 2,8 0,3 -1,6 -2,8 -2,3 -4,5 -7,6 -2,2 -5,2 -8,2 -4,0 -8,-1 -11,-4 -4,-4 -5,-8 -5,-12 0,-5 2,-9 5,-12 3,-3 7,-5 11,-5zm0 8c-2,0 -4,1 -6,2 -2,2 -2,4 -2,7 0,3 0,5 2,6 2,2 4,3 6,3 3,0 5,-1 6,-3 2,-1 3,-3 3,-6 0,-3 -1,-5 -3,-7 -1,-1 -3,-2 -6,-2z"/>
    <path class="fil13" d="M460 147c0,5 -1,9 -3,12 -3,3 -7,5 -13,5 -3,0 -5,-1 -8,-1 -4,-2 -3,-9 4,-7 1,0 2,1 4,1 2,0 4,-1 5,-1 1,-1 2,-2 3,-3 0,-1 1,-3 1,-5 -2,1 -3,2 -5,3 -1,0 -3,1 -5,1 -4,0 -8,-2 -11,-5 -3,-3 -4,-7 -4,-11 0,-5 2,-9 5,-12 2,-3 6,-4 10,-4 18,-1 18,14 17,27zm-16 -20c-2,0 -4,1 -6,2 -1,2 -2,4 -2,7 0,2 1,4 2,6 2,2 4,3 6,3 3,0 5,-1 7,-3 1,-2 2,-4 2,-6 0,-3 -1,-5 -2,-7 -2,-1 -4,-2 -7,-2z"/>
    <path class="fil13" d="M362 109c6,0 10,1 13,3 3,1 6,4 8,7 2,4 3,8 3,12 0,3 -1,6 -2,9 -1,3 -2,5 -4,7 -2,2 -4,3 -7,4 -2,0 -6,1 -11,1 -6,0 -9,0 -10,-2l0 -37c0,-5 7,-4 10,-4zm-2 8l0 27 4 0c4,0 6,-1 8,-1 2,-1 3,-3 4,-5 1,-2 2,-4 2,-7 0,-5 -2,-8 -4,-11 -2,-2 -6,-3 -11,-3l-3 0z"/>
   </g>
  </g>
 </g>
</svg>
