<?xml version="1.0" encoding="UTF-8"?>
<!DOCTYPE svg PUBLIC "-//W3C//DTD SVG 1.1//EN" "http://www.w3.org/Graphics/SVG/1.1/DTD/svg11.dtd">
<!-- Creator: CorelDRAW X7 -->
<svg xmlns="http://www.w3.org/2000/svg" xml:space="preserve" width="3in" height="2.5in" version="1.1" style="shape-rendering:geometricPrecision; text-rendering:geometricPrecision; image-rendering:optimizeQuality; fill-rule:evenodd; clip-rule:evenodd"
viewBox="0 0 3000 2500"
 xmlns:xlink="http://www.w3.org/1999/xlink">
 <defs>
  <style type="text/css">
   <![CDATA[
    .str0 {stroke:#0098DA;stroke-width:3}
    .fil0 {fill:#F3F4F5}
   ]]>
  </style>
     <mask id="id0">
  <linearGradient id="id1" gradientUnits="userSpaceOnUse" x1="2538.28" y1="615.446" x2="2696.17" y2="627.616">
   <stop offset="0" style="stop-opacity:1; stop-color:white"/>
   <stop offset="1" style="stop-opacity:0; stop-color:white"/>
  </linearGradient>
      <rect style="fill:url(#id1)" x="2520" y="447" width="181" height="320"/>
     </mask>
 </defs>
 <g id="Layer_x0020_1">
  <metadata id="CorelCorpID_0Corel-Layer"/>
  <g id="_3025459247440">
   <g>
    <path class="fil0 str0" d="M988 2117c-1,-5 24,-1 30,-1 2,-2 -21,-6 -7,-18 -1,-4 1,-6 9,-7 -1,-4 2,-6 8,-6 -1,-5 2,-7 8,-7 -1,-4 2,-6 8,-5 -2,-4 1,-6 8,-6 -2,-5 1,-7 8,-7 -1,-4 -1,-6 7,-7 -1,-3 -1,-7 10,-6 -1,-5 3,-8 11,-9 -6,-1 -7,-3 -11,-1l-26 5 -72 55c-13,10 -14,22 9,20z"/>
    <path class="fil0 str0" d="M774 1963c3,-8 8,-17 15,-25 -3,6 -5,11 -5,17 5,-10 10,-19 19,-27 -1,3 1,5 5,4 0,4 1,5 4,4 0,4 2,5 5,4 0,3 1,4 5,3 -1,3 1,5 4,3 1,4 6,5 9,7l48 -2 75 -14c-5,7 -6,13 -3,16 -2,4 1,6 10,4 1,5 4,6 10,4 1,5 4,7 9,4 0,4 3,5 9,4 -1,4 3,5 10,4 1,4 4,6 10,5 0,4 4,6 10,4 0,4 3,6 8,3 0,4 3,6 10,4 0,5 3,6 9,4 0,4 2,6 9,5 0,4 1,7 11,4 1,4 5,6 13,5 -5,3 -5,5 -10,4l-26 2 -120 -56 -153 6z"/>
    <path class="fil0 str0" d="M576 2128c21,-67 51,-102 95,-129 86,-37 127,-44 211,-49 32,-15 54,-38 99,-42 -18,16 -24,43 -54,49 109,20 120,70 184,52 43,-32 40,-70 95,-94 -16,37 -19,83 -48,110 26,13 43,59 65,87 -64,-14 -76,-57 -113,-79 -49,-3 -63,36 -108,66 -8,12 29,19 39,32 -23,7 -64,3 -90,-12 -9,-8 -71,14 -117,19 -5,2 -21,8 -23,13 -3,8 18,4 38,23 -42,4 -75,-8 -101,-23 -154,11 -165,-9 -172,-23z"/>
    <path class="fil0 str0" d="M576 2128c21,-67 51,-102 95,-129 86,-37 181,-52 235,-40 10,0 58,17 110,40 34,15 90,23 95,10 -25,45 -185,-72 -326,-34 -97,26 -101,51 -40,35 5,-1 6,8 11,11 11,6 25,14 28,31 2,8 -6,17 -6,25 0,6 -8,7 -1,16 8,10 -13,23 -15,33 -2,5 -1,14 -4,12 -1,0 4,-17 2,-23 -1,-10 -2,-14 -10,-29 -9,-17 -4,-10 -25,-43 -6,-9 37,56 29,76 -1,3 -3,14 2,12 4,-2 1,6 2,7 3,4 6,2 -3,6 -3,1 -3,1 -2,4 0,1 -3,2 -5,3 -154,11 -165,-9 -172,-23z"/>
    <path class="fil0 str0" d="M576 2128c20,-1 49,14 71,19 9,-3 6,-15 -3,-25 -22,-1 -42,2 -65,-4l-3 10z"/>
    <ellipse class="fil0 str0" transform="matrix(0.204148 -0.0268514 0.0227272 0.163026 676.555 2063.39)" rx="114" ry="103"/>
    <ellipse class="fil0 str0" transform="matrix(0.167027 -0.0219689 0.0185946 0.133383 676.291 2063.64)" rx="114" ry="103"/>
    <path class="fil0 str0" d="M666 2071c-4,-6 -3,-15 10,-17 10,-4 12,2 14,9 0,8 -19,13 -24,8z"/>
    <ellipse class="fil0 str0" transform="matrix(0.0290653 -0.00382293 0.00323575 0.0232106 671.619 2059.05)" rx="114" ry="103"/>
    <path class="fil0 str0" d="M1076 2018c4,1 7,7 13,7 -6,0 -6,5 -10,9 4,-6 3,-12 -3,-16z"/>
    <path class="fil0 str0" d="M1087 2017c4,1 6,6 12,6 -6,0 -6,4 -10,8 4,-5 3,-10 -2,-14z"/>
    <path class="fil0 str0" d="M1096 2016c4,1 6,6 11,6 -5,0 -5,4 -9,7 4,-4 3,-9 -2,-13z"/>
    <path class="fil0 str0" d="M1104 2015c3,1 6,6 11,5 -5,1 -5,4 -9,7 4,-4 3,-9 -2,-12z"/>
    <path class="fil0 str0" d="M1066 2020c4,1 8,7 13,6 -5,1 -6,6 -10,10 4,-6 3,-12 -3,-16z"/>
    <path class="fil0 str0" d="M1056 2022c4,1 8,7 14,6 -6,1 -7,6 -11,10 4,-6 3,-12 -3,-16z"/>
    <path class="fil0 str0" d="M1045 2024c4,1 7,7 13,6 -6,1 -6,6 -10,10 4,-6 3,-12 -3,-16z"/>
    <path class="fil0 str0" d="M1034 2026c4,1 7,7 13,6 -6,1 -6,6 -10,9 4,-5 3,-11 -3,-15z"/>
    <path class="fil0 str0" d="M1017 2028c6,1 10,8 18,7 -8,1 -8,7 -14,12 6,-7 5,-15 -4,-19z"/>
    <path class="fil0 str0" d="M786 2075c24,-33 110,-55 194,-59 -162,22 -107,76 -177,77 30,-32 -23,-9 -17,-18z"/>
    <path class="fil0 str0" d="M786 2075c22,-34 107,-58 191,-66 -160,28 -103,80 -173,83 29,-32 -24,-8 -18,-17z"/>
   </g>
   <g>
    <path class="fil0 str0" d="M1267 816c0,-7 40,4 50,6 3,-3 -34,-15 -7,-31 -3,-6 2,-9 14,-9 1,-6 6,-9 15,-9 0,-7 5,-10 15,-8 -1,-8 3,-10 13,-8 -1,-6 3,-9 14,-8 -1,-7 4,-10 14,-9 0,-6 1,-9 14,-10 -2,-5 0,-10 17,-7 0,-8 6,-12 19,-12 -9,-3 -10,-6 -17,-4l-42 2 -128 73c-24,14 -28,34 9,34z"/>
    <path class="fil0 str0" d="M959 525c7,-13 16,-26 30,-38 -7,9 -11,18 -11,26 8,-14 19,-27 35,-38 -1,5 0,8 7,8 -1,6 1,8 7,7 -1,5 1,8 7,7 -2,5 0,7 6,6 -1,5 1,7 6,6 1,6 9,9 13,13l77 7 123 -8c-9,11 -12,20 -8,26 -4,6 2,9 16,9 0,7 4,10 14,8 1,8 5,11 14,8 -1,6 3,9 14,9 -2,6 3,9 15,8 0,7 5,10 15,9 0,8 4,11 14,9 0,7 4,10 13,7 -1,7 4,10 14,9 -1,7 4,10 15,8 0,7 1,10 13,11 -1,4 0,10 17,7 0,8 7,12 20,11 -10,4 -10,7 -18,5l-41 -2 -181 -116 -246 -22z"/>
    <path class="fil0 str0" d="M606 747c47,-103 104,-153 180,-187 146,-40 213,-43 350,-34 53,-16 94,-48 167,-46 -33,22 -48,63 -98,67 172,56 178,137 284,122 77,-42 80,-104 173,-130 -34,55 -48,128 -101,165 38,27 55,104 84,154 -98,-36 -108,-107 -163,-150 -77,-16 -109,44 -188,82 -15,18 43,37 55,60 -37,6 -103,-9 -141,-38 -13,-15 -117,7 -192,6 -8,2 -35,8 -39,15 -7,13 28,11 56,45 -69,-2 -120,-28 -158,-58 -249,-14 -263,-49 -269,-73z"/>
    <path class="fil0 str0" d="M606 747c47,-103 104,-153 180,-187 146,-40 301,-44 385,-13 16,2 89,39 167,86 53,32 140,56 151,36 -50,67 -281,-154 -515,-123 -161,22 -174,60 -72,48 8,0 9,14 16,20 16,12 37,27 38,56 0,13 -15,25 -17,39 -1,8 -14,8 -4,25 10,17 -25,33 -32,49 -4,7 -4,23 -9,19 -1,-1 10,-27 9,-37 0,-16 0,-23 -9,-48 -11,-30 -5,-18 -32,-75 -7,-15 47,98 30,128 -2,4 -7,22 1,20 7,-2 0,10 1,12 4,6 10,5 -6,9 -5,1 -6,1 -5,5 1,3 -4,3 -8,4 -249,-14 -263,-49 -269,-73z"/>
    <path class="fil0 str0" d="M606 747c32,3 74,33 109,45 14,-3 12,-22 0,-40 -34,-7 -67,-5 -102,-20l-7 15z"/>
    <ellipse class="fil0 str0" cx="781" cy="665" rx="38" ry="27"/>
    <ellipse class="fil0 str0" cx="780" cy="665" rx="31" ry="22"/>
    <path class="fil0 str0" d="M761 675c-5,-10 -1,-24 21,-25 16,-4 19,5 20,17 -1,12 -34,18 -41,8z"/>
    <ellipse class="fil0 str0" cx="774" cy="657" rx="5" ry="4"/>
    <path class="fil0 str0" d="M1430 677c7,2 11,12 21,13 -10,-1 -12,7 -19,12 8,-8 8,-17 -2,-25z"/>
    <path class="fil0 str0" d="M1448 678c6,2 9,11 18,11 -9,0 -10,6 -17,11 7,-7 7,-16 -1,-22z"/>
    <path class="fil0 str0" d="M1463 678c6,2 9,10 17,11 -8,-1 -10,6 -16,10 7,-6 7,-15 -1,-21z"/>
    <path class="fil0 str0" d="M1476 678c6,2 9,10 16,10 -7,0 -9,5 -15,10 7,-7 7,-14 -1,-20z"/>
    <path class="fil0 str0" d="M1414 678c7,2 11,12 20,13 -9,-1 -11,7 -19,12 9,-8 8,-18 -1,-25z"/>
    <path class="fil0 str0" d="M1397 679c8,2 11,12 21,13 -10,-1 -12,7 -19,12 8,-8 8,-18 -2,-25z"/>
    <path class="fil0 str0" d="M1379 680c7,2 11,12 21,13 -10,-1 -12,7 -20,12 9,-8 9,-18 -1,-25z"/>
    <path class="fil0 str0" d="M1361 680c7,3 11,13 21,13 -10,0 -12,7 -20,13 9,-8 9,-18 -1,-26z"/>
    <path class="fil0 str0" d="M1335 679c9,3 14,16 26,17 -12,-1 -15,9 -24,16 10,-11 10,-23 -2,-33z"/>
    <path class="fil0 str0" d="M954 707c45,-49 187,-65 324,-54 -265,2 -188,99 -301,86 55,-45 -35,-19 -23,-32z"/>
    <path class="fil0 str0" d="M954 707c42,-50 184,-71 321,-66 -264,12 -184,106 -297,97 53,-46 -36,-17 -24,-31z"/>
   </g>
   <g>
    <path class="fil0 str0" d="M1870 929c1,-7 39,8 49,10 4,-2 -32,-17 -5,-31 -1,-6 4,-9 16,-7 1,-7 6,-9 16,-8 0,-8 5,-10 15,-7 0,-8 4,-10 13,-7 0,-6 5,-9 15,-7 0,-7 5,-10 16,-7 0,-7 1,-10 14,-9 -2,-5 1,-11 17,-6 1,-8 8,-11 20,-10 -8,-4 -9,-8 -16,-6l-42 -1 -134 62c-25,12 -30,31 6,34z"/>
    <path class="fil0 str0" d="M1589 615c7,-13 18,-25 32,-36 -7,8 -12,17 -13,25 10,-13 22,-25 38,-35 -1,5 0,8 7,8 -2,6 0,8 6,8 -2,5 1,8 6,7 -2,5 0,7 6,7 -2,5 0,7 5,6 1,6 9,10 13,15l76 13 123 2c-10,11 -14,19 -10,25 -5,6 0,9 15,11 -2,7 3,10 13,9 0,8 4,11 13,9 -2,5 3,9 13,10 -2,6 2,9 14,10 0,6 5,10 15,10 -2,7 3,11 13,9 -1,8 3,11 12,9 -1,6 3,9 14,9 -2,8 3,11 14,10 -2,7 0,10 12,11 -2,5 -1,11 16,9 0,8 6,12 18,13 -9,3 -10,6 -17,3l-41 -5 -170 -131 -243 -41z"/>
    <path class="fil0 str0" d="M1217 807c57,-99 117,-144 196,-172 149,-28 216,-25 352,-5 54,-12 98,-41 170,-33 -35,20 -54,60 -103,59 166,70 165,152 272,145 80,-35 89,-96 183,-115 -38,52 -59,124 -115,156 36,30 46,109 71,160 -95,-43 -99,-115 -149,-162 -76,-22 -112,35 -195,66 -17,16 40,40 50,64 -38,3 -102,-17 -137,-49 -12,-16 -118,-3 -193,-10 -7,1 -35,5 -39,12 -8,12 26,13 51,49 -68,-7 -117,-38 -152,-70 -247,-35 -257,-71 -262,-95z"/>
    <path class="fil0 str0" d="M1217 807c57,-99 117,-144 196,-172 149,-28 304,-19 385,18 16,4 85,47 159,100 49,36 134,68 147,48 -56,63 -266,-176 -502,-164 -163,8 -179,45 -76,42 7,0 7,14 14,20 15,14 34,30 33,60 -1,13 -17,23 -20,37 -2,8 -15,7 -7,25 9,17 -28,31 -36,45 -4,8 -6,23 -10,19 -1,-1 12,-26 12,-36 1,-16 2,-23 -5,-49 -9,-30 -4,-18 -25,-77 -6,-16 38,102 19,130 -3,4 -10,21 -2,20 8,-2 0,10 1,12 3,6 9,5 -7,8 -5,1 -6,1 -5,5 0,3 -5,3 -9,4 -247,-35 -257,-71 -262,-95z"/>
    <path class="fil0 str0" d="M1217 807c32,5 71,39 105,54 14,-2 14,-22 4,-40 -34,-10 -67,-11 -101,-29l-8 15z"/>
    <ellipse class="fil0 str0" transform="matrix(0.331938 0.027366 -0.0231628 0.265076 1398.42 739.174)" rx="114" ry="103"/>
    <ellipse class="fil0 str0" transform="matrix(0.27158 0.0223899 -0.018951 0.216876 1397.91 739.479)" rx="114" ry="103"/>
    <path class="fil0 str0" d="M1378 748c-4,-11 2,-25 23,-23 17,-3 19,6 19,18 -2,12 -36,15 -42,5z"/>
    <ellipse class="fil0 str0" transform="matrix(0.0472591 0.00389619 -0.00329776 0.0377397 1392.19 730.643)" rx="114" ry="103"/>
    <path class="fil0 str0" d="M2045 805c7,3 10,13 19,14 -9,-1 -12,6 -20,11 9,-7 10,-17 1,-25z"/>
    <path class="fil0 str0" d="M2062 807c6,2 9,11 17,12 -8,-1 -11,6 -18,10 8,-7 9,-15 1,-22z"/>
    <path class="fil0 str0" d="M2077 808c6,3 8,11 17,12 -9,-1 -11,6 -18,10 8,-7 9,-15 1,-22z"/>
    <path class="fil0 str0" d="M2090 809c6,3 8,11 16,11 -8,0 -10,5 -16,9 7,-6 7,-13 0,-20z"/>
    <path class="fil0 str0" d="M2028 804c7,3 10,13 20,15 -10,-2 -13,6 -20,11 9,-8 9,-18 0,-26z"/>
    <path class="fil0 str0" d="M2012 804c7,3 10,13 19,14 -9,-1 -12,6 -20,11 9,-7 10,-17 1,-25z"/>
    <path class="fil0 str0" d="M1993 803c7,3 10,13 20,15 -10,-2 -13,6 -20,11 9,-8 9,-18 0,-26z"/>
    <path class="fil0 str0" d="M1975 802c7,3 10,13 20,15 -10,-2 -12,6 -20,11 9,-8 9,-18 0,-26z"/>
    <path class="fil0 str0" d="M1949 799c9,4 13,17 25,18 -12,-1 -16,8 -26,14 12,-9 13,-22 1,-32z"/>
    <path class="fil0 str0" d="M1568 795c48,-45 192,-49 327,-27 -264,-20 -196,83 -307,61 59,-40 -33,-22 -20,-34z"/>
    <path class="fil0 str0" d="M1567 796c47,-47 190,-56 326,-40 -264,-10 -193,91 -304,72 57,-41 -34,-20 -22,-32z"/>
   </g>
   <g>
    <path class="fil0 str0" d="M758 495c1,-8 41,15 51,19 5,-3 -32,-24 1,-35 -1,-7 5,-9 18,-6 2,-7 8,-9 18,-5 2,-9 8,-11 19,-6 1,-8 6,-10 15,-5 1,-7 7,-9 18,-5 1,-8 7,-10 18,-6 1,-7 3,-10 17,-7 0,-6 3,-12 21,-4 1,-8 9,-11 23,-8 -9,-6 -8,-9 -17,-9l-46 -8 -157 47c-30,9 -39,28 1,38z"/>
    <path class="fil0 str0" d="M504 103c10,-12 24,-24 41,-33 -9,8 -16,16 -18,25 13,-13 28,-24 48,-32 -3,5 -2,9 6,10 -3,6 -1,9 5,9 -3,6 -1,9 6,9 -3,6 -2,8 5,9 -3,5 -2,8 4,7 0,7 8,13 11,19l81 26 135 24c-13,9 -18,17 -15,25 -6,6 -1,10 14,14 -2,7 2,12 13,13 -1,8 3,12 13,12 -3,5 1,9 13,12 -4,6 0,11 13,13 -1,8 4,12 14,14 -2,8 2,12 14,13 -3,8 0,11 11,11 -3,7 2,11 13,13 -3,7 2,12 14,13 -3,7 -2,10 11,14 -3,5 -2,11 17,13 -2,8 4,13 17,17 -10,1 -12,4 -19,0l-45 -13 -163 -171 -259 -86z"/>
    <path class="fil0 str0" d="M62 253c80,-100 154,-139 246,-156 167,-6 241,8 386,52 62,-4 114,-28 192,-8 -41,16 -69,57 -123,48 170,104 155,194 273,204 94,-26 114,-91 221,-97 -51,52 -86,127 -153,153 34,39 31,126 50,187 -97,-63 -89,-142 -136,-203 -79,-36 -129,20 -225,41 -21,15 37,51 43,79 -41,-4 -109,-36 -141,-77 -10,-19 -128,-22 -209,-43 -9,1 -40,0 -46,7 -11,12 27,18 48,63 -74,-20 -122,-61 -154,-103 -266,-78 -271,-119 -272,-147z"/>
    <path class="fil0 str0" d="M62 253c80,-100 154,-139 246,-156 167,-6 336,29 418,83 17,7 86,66 157,136 48,47 136,96 153,77 -72,60 -261,-238 -522,-263 -180,-18 -203,20 -91,33 9,1 6,17 12,25 14,18 32,39 26,71 -3,14 -23,23 -28,37 -4,9 -18,6 -12,26 6,21 -36,30 -48,45 -5,7 -10,24 -14,18 -1,-1 18,-26 20,-37 3,-18 6,-25 2,-55 -4,-34 0,-20 -14,-88 -3,-19 25,117 -2,145 -4,4 -14,22 -5,22 9,0 -2,11 -1,13 3,8 9,8 -9,8 -5,0 -6,0 -7,5 0,3 -6,2 -9,2 -266,-78 -271,-119 -272,-147z"/>
    <path class="fil0 str0" d="M62 253c35,11 71,54 107,76 15,1 18,-21 10,-43 -35,-16 -71,-22 -105,-48l-12 15z"/>
    <ellipse class="fil0 str0" transform="matrix(0.359194 0.0846547 -0.0716524 0.286842 273.28 208.692)" rx="114" ry="103"/>
    <ellipse class="fil0 str0" transform="matrix(0.29388 0.0692616 -0.0586235 0.234684 272.67 208.943)" rx="114" ry="103"/>
    <path class="fil0 str0" d="M250 215c-3,-13 5,-27 29,-22 19,0 19,10 17,24 -5,12 -41,10 -46,-2z"/>
    <ellipse class="fil0 str0" transform="matrix(0.0511397 0.0120526 -0.0102014 0.0408386 267.947 198.314)" rx="114" ry="103"/>
    <path class="fil0 str0" d="M971 387c6,4 8,16 18,19 -10,-3 -14,5 -24,9 11,-7 14,-18 6,-28z"/>
    <path class="fil0 str0" d="M989 392c6,4 8,14 17,17 -9,-3 -13,4 -21,7 10,-6 12,-15 4,-24z"/>
    <path class="fil0 str0" d="M1005 396c6,4 8,14 16,16 -8,-2 -12,4 -20,8 9,-6 12,-15 4,-24z"/>
    <path class="fil0 str0" d="M1020 400c5,3 6,12 14,14 -8,-2 -11,4 -18,7 8,-5 10,-13 4,-21z"/>
    <path class="fil0 str0" d="M953 384c7,4 8,16 18,19 -10,-3 -14,4 -24,8 12,-6 14,-17 6,-27z"/>
    <path class="fil0 str0" d="M935 381c7,4 8,16 18,18 -10,-2 -14,5 -24,9 12,-6 14,-17 6,-27z"/>
    <path class="fil0 str0" d="M914 377c7,4 9,16 19,19 -10,-3 -14,5 -24,9 11,-7 14,-18 5,-28z"/>
    <path class="fil0 str0" d="M895 373c7,4 8,16 19,19 -11,-3 -15,4 -24,8 11,-6 13,-17 5,-27z"/>
    <path class="fil0 str0" d="M867 365c9,6 11,21 24,24 -13,-3 -19,6 -31,11 15,-8 18,-22 7,-35z"/>
    <path class="fil0 str0" d="M449 298c61,-41 219,-22 364,24 -286,-65 -230,59 -347,16 71,-34 -33,-29 -17,-40z"/>
    <path class="fil0 str0" d="M448 298c60,-43 218,-30 365,11 -288,-55 -227,67 -347,29 71,-36 -33,-28 -18,-40z"/>
   </g>
   <g>
    <path class="fil0 str0" d="M2320 1651c0,-8 42,10 53,14 4,-3 -35,-21 -3,-35 -2,-7 4,-10 17,-8 2,-7 8,-9 18,-7 1,-9 7,-11 18,-7 0,-9 5,-11 15,-7 -1,-7 5,-10 17,-7 0,-8 5,-11 17,-7 0,-8 2,-11 16,-10 -1,-5 2,-11 20,-5 1,-9 9,-12 23,-10 -10,-5 -10,-9 -18,-8l-46 -3 -152 62c-29,12 -36,32 5,38z"/>
    <path class="fil0 str0" d="M2026 1287c9,-14 21,-27 38,-38 -9,9 -15,18 -16,27 12,-14 26,-27 44,-37 -2,5 -1,9 7,10 -2,6 0,9 6,8 -2,6 1,9 7,9 -2,5 0,8 6,8 -2,5 -1,8 5,7 1,7 9,11 13,17l84 19 136 9c-12,11 -16,20 -13,27 -5,6 0,10 16,12 -1,8 3,12 15,12 -1,8 3,12 13,10 -2,6 3,10 15,12 -4,6 1,10 15,11 -1,8 4,12 15,12 -2,9 3,13 14,12 -2,8 3,11 13,10 -2,7 3,11 15,11 -3,8 2,12 14,12 -1,7 0,11 13,13 -2,5 -1,11 18,11 -1,8 5,13 19,15 -10,3 -11,6 -19,3l-46 -9 -180 -154 -267 -59z"/>
    <path class="fil0 str0" d="M1603 1479c68,-107 138,-153 227,-179 166,-23 241,-17 390,13 61,-10 111,-39 190,-27 -39,20 -62,63 -117,60 180,86 174,177 293,175 91,-34 104,-101 210,-117 -46,56 -73,134 -137,167 38,35 45,122 70,181 -103,-54 -103,-133 -156,-188 -83,-29 -127,32 -220,63 -20,17 42,46 51,74 -42,0 -112,-25 -149,-63 -12,-18 -130,-9 -212,-21 -9,1 -40,4 -45,11 -10,12 29,15 54,57 -75,-12 -127,-48 -164,-86 -272,-52 -282,-92 -285,-120z"/>
    <path class="fil0 str0" d="M1603 1479c68,-107 138,-153 227,-179 166,-23 338,-5 425,41 18,4 92,56 171,119 52,43 145,82 160,61 -66,67 -285,-210 -547,-209 -181,0 -200,40 -87,42 9,0 7,16 15,24 15,16 36,35 33,67 -2,15 -20,26 -24,41 -3,9 -17,7 -9,27 8,19 -33,33 -43,48 -5,8 -8,26 -13,20 0,0 15,-28 16,-39 2,-18 4,-25 -3,-54 -8,-34 -3,-20 -23,-87 -6,-18 36,114 13,145 -3,4 -11,23 -2,22 8,-1 -2,11 -1,13 4,8 11,7 -8,9 -5,1 -6,1 -6,5 1,3 -5,3 -9,4 -272,-52 -282,-92 -285,-120z"/>
    <path class="fil0 str0" d="M1603 1479c35,8 76,47 113,66 16,-1 16,-23 6,-45 -36,-12 -73,-15 -109,-36l-10 15z"/>
    <ellipse class="fil0 str0" transform="matrix(0.366228 0.0484999 -0.0410507 0.292459 1807.67 1414.25)" rx="114" ry="103"/>
    <ellipse class="fil0 str0" transform="matrix(0.299635 0.0396809 -0.0335862 0.23928 1807.09 1414.56)" rx="114" ry="103"/>
    <path class="fil0 str0" d="M1785 1423c-4,-12 3,-27 26,-25 19,-2 21,8 20,22 -3,13 -40,14 -46,3z"/>
    <ellipse class="fil0 str0" transform="matrix(0.0521412 0.0069051 -0.00584452 0.0416383 1801.28 1404.46)" rx="114" ry="103"/>
    <path class="fil0 str0" d="M2520 1522c7,4 10,15 21,17 -11,-2 -14,6 -23,11 10,-7 11,-18 2,-28z"/>
    <path class="fil0 str0" d="M2539 1525c7,4 9,14 19,15 -10,-1 -13,6 -21,10 9,-7 11,-16 2,-25z"/>
    <path class="fil0 str0" d="M2556 1528c6,3 8,13 17,14 -9,-1 -12,5 -19,10 9,-7 10,-16 2,-24z"/>
    <path class="fil0 str0" d="M2570 1530c6,3 8,12 17,13 -9,-1 -11,5 -18,9 8,-6 9,-15 1,-22z"/>
    <path class="fil0 str0" d="M2502 1521c7,3 10,15 21,17 -11,-2 -14,6 -23,11 10,-8 11,-19 2,-28z"/>
    <path class="fil0 str0" d="M2484 1519c7,4 10,16 20,17 -10,-1 -14,7 -23,11 11,-7 12,-18 3,-28z"/>
    <path class="fil0 str0" d="M2463 1518c8,3 10,15 21,17 -11,-2 -14,6 -23,11 10,-8 12,-19 2,-28z"/>
    <path class="fil0 str0" d="M2443 1516c8,3 11,15 21,17 -10,-2 -14,6 -23,11 11,-8 12,-19 2,-28z"/>
    <path class="fil0 str0" d="M2415 1511c9,4 13,19 26,21 -13,-2 -18,8 -29,14 13,-9 15,-23 3,-35z"/>
    <path class="fil0 str0" d="M1992 1486c56,-48 215,-44 364,-13 -291,-36 -222,82 -343,51 67,-41 -36,-26 -21,-38z"/>
    <path class="fil0 str0" d="M1991 1486c55,-49 214,-51 364,-26 -292,-26 -219,90 -342,64 66,-44 -36,-25 -22,-38z"/>
   </g>
   <g>
    <path class="fil0 str0" d="M2540 1844c0,-7 39,6 49,8 4,-3 -32,-16 -4,-32 -2,-6 3,-9 15,-8 2,-7 7,-10 16,-8 1,-9 6,-11 16,-9 0,-8 4,-10 13,-7 0,-7 5,-9 15,-8 0,-8 5,-10 16,-8 0,-7 2,-10 14,-10 -1,-5 1,-11 18,-8 1,-7 8,-11 21,-10 -9,-4 -10,-8 -17,-6l-43 1 -135 71c-26,13 -31,33 6,34z"/>
    <path class="fil0 str0" d="M2254 1534c8,-13 19,-26 33,-38 -7,9 -12,18 -13,27 10,-15 22,-28 39,-38 -2,5 -1,8 7,8 -2,6 0,8 6,7 -2,6 0,8 6,8 -2,5 0,7 6,6 -2,6 0,8 5,6 1,7 9,10 13,15l77 10 124 -4c-10,11 -13,20 -10,26 -4,6 1,10 15,10 -1,8 4,11 14,10 0,7 4,11 13,8 -1,6 3,9 14,9 -3,7 2,10 14,10 0,7 5,10 14,9 -1,9 4,12 14,10 -1,8 3,10 13,8 -2,7 2,10 13,9 -2,8 3,11 14,10 -1,6 0,10 13,11 -2,4 -1,10 16,8 -1,8 6,12 19,12 -10,4 -11,7 -18,5l-42 -4 -172 -126 -247 -32z"/>
    <path class="fil0 str0" d="M1878 1749c57,-104 118,-153 199,-185 150,-36 218,-37 356,-22 55,-15 99,-47 172,-42 -35,22 -54,64 -104,66 168,63 167,147 275,135 82,-40 91,-103 186,-127 -39,56 -59,131 -116,167 36,29 46,109 72,160 -97,-40 -100,-113 -151,-159 -77,-19 -114,41 -198,77 -17,18 41,40 51,64 -39,4 -104,-13 -139,-45 -12,-15 -119,3 -195,-1 -8,2 -36,7 -40,14 -8,13 26,12 52,49 -69,-5 -119,-34 -154,-66 -251,-23 -261,-60 -266,-85z"/>
    <path class="fil0 str0" d="M1878 1749c57,-104 118,-153 199,-185 150,-36 307,-35 390,0 16,3 86,44 161,95 50,34 136,63 148,42 -56,68 -269,-168 -508,-145 -165,16 -181,55 -77,47 7,0 7,14 14,20 15,14 35,30 33,60 0,13 -17,25 -20,39 -2,9 -15,8 -6,26 8,18 -29,33 -37,49 -4,8 -6,24 -11,19 0,0 13,-27 13,-37 1,-17 2,-24 -6,-50 -8,-31 -3,-18 -25,-78 -6,-16 39,102 19,132 -3,5 -9,22 -1,21 8,-2 -1,11 0,12 4,7 10,5 -7,9 -4,1 -5,1 -5,5 1,3 -5,3 -8,4 -251,-23 -261,-60 -266,-85z"/>
    <path class="fil0 str0" d="M1878 1749c32,4 72,37 107,51 14,-3 13,-23 3,-42 -34,-8 -67,-7 -102,-24l-8 15z"/>
    <ellipse class="fil0 str0" transform="matrix(0.336381 0.0123815 -0.0232509 0.273475 2061.73 1671.27)" rx="114" ry="103"/>
    <ellipse class="fil0 str0" transform="matrix(0.275215 0.0101301 -0.0190231 0.223747 2061.22 1671.61)" rx="114" ry="103"/>
    <path class="fil0 str0" d="M2041 1681c-4,-11 2,-25 23,-25 17,-4 19,6 20,19 -3,12 -37,16 -43,6z"/>
    <ellipse class="fil0 str0" transform="matrix(0.0478916 0.00176279 -0.00331031 0.0389355 2055.42 1662.8)" rx="114" ry="103"/>
    <path class="fil0 str0" d="M2717 1708c7,3 10,13 19,14 -9,-1 -12,7 -20,12 9,-8 10,-18 1,-26z"/>
    <path class="fil0 str0" d="M2734 1709c6,2 9,12 18,12 -9,0 -11,6 -18,11 8,-7 8,-16 0,-23z"/>
    <path class="fil0 str0" d="M2749 1710c6,2 9,11 17,12 -8,-1 -10,6 -17,10 8,-7 8,-15 0,-22z"/>
    <path class="fil0 str0" d="M2763 1711c5,2 8,10 15,10 -7,0 -9,6 -16,10 8,-6 8,-14 1,-20z"/>
    <path class="fil0 str0" d="M2700 1708c7,3 10,13 20,14 -10,-1 -13,7 -21,12 9,-8 10,-18 1,-26z"/>
    <path class="fil0 str0" d="M2683 1709c7,2 10,13 20,13 -10,0 -12,7 -20,13 9,-8 10,-18 0,-26z"/>
    <path class="fil0 str0" d="M2665 1709c7,3 10,13 19,14 -9,-1 -12,7 -20,12 9,-8 10,-18 1,-26z"/>
    <path class="fil0 str0" d="M2646 1709c7,2 10,13 20,13 -10,0 -12,7 -20,13 9,-8 10,-18 0,-26z"/>
    <path class="fil0 str0" d="M2620 1707c9,3 13,16 25,17 -12,-1 -16,9 -26,16 12,-10 13,-23 1,-33z"/>
    <path class="fil0 str0" d="M2233 1721c49,-49 195,-60 332,-44 -267,-8 -199,95 -311,77 60,-43 -34,-20 -21,-33z"/>
    <path class="fil0 str0" d="M2233 1721c47,-50 192,-66 330,-56 -268,2 -195,103 -308,89 58,-46 -35,-20 -22,-33z"/>
   </g>
   <g>
    <path class="fil0 str0" d="M1027 485c-28,-30 167,-50 336,-67 81,-7 149,-7 210,-4 7,0 14,5 19,1 42,-35 77,-69 149,-95 -8,8 -14,-8 0,0 -9,9 -10,18 3,26 -10,13 -10,22 7,25 -7,10 -4,17 9,21 -7,4 -15,7 -22,10 -6,2 15,8 15,12 -1,8 -23,11 -18,13 8,3 -29,-3 -9,-1 77,7 239,31 332,31 3,0 6,0 8,0 2,-3 84,-109 92,-109 6,0 31,50 36,74 14,63 -53,44 -32,50 6,2 12,3 18,5 89,26 214,66 308,71 66,-2 75,-97 249,-126 -88,65 -33,44 -110,185 59,81 37,107 103,178 -192,-47 -159,-96 -236,-122 -132,-28 -197,-1 -262,25 -6,2 -13,5 -20,7 -14,6 -62,-8 20,-7 20,0 25,96 13,98 -6,0 -122,-70 -128,-70 -8,-1 -15,-1 -23,-2 -156,-11 -283,-16 -427,-35 -7,-1 -14,-2 -22,-3 -2,0 48,5 63,25 31,39 60,47 42,59 -29,20 -156,-75 -143,-90 2,-2 -8,-1 -11,-1 -56,-9 -116,-20 -181,-34 -138,-23 -461,-92 -395,-151 57,-4 166,89 223,85 -43,-14 -172,-70 -216,-84z"/>
    <path class="fil0 str0" d="M1027 485c-28,-30 167,-50 336,-67 81,-7 149,-7 210,-4 7,0 14,5 19,1 42,-35 77,-69 149,-95 -8,8 -12,16 2,24 -9,9 -10,18 3,25 -10,13 -10,23 7,26 -7,10 -4,17 9,21 -7,3 -15,6 -22,9 -6,3 15,9 15,13 -1,7 -25,-13 -20,-11 8,3 -29,-3 -9,-1 77,7 239,31 332,31 3,0 6,0 8,0 2,-3 84,-109 92,-109 6,0 40,51 36,74 -7,33 -53,44 -32,50 6,2 12,3 18,5 89,26 214,66 308,71 66,-2 75,-97 249,-126 -68,83 -53,128 -110,185 49,43 37,107 103,178 -192,-47 -159,-96 -236,-122 -19,-7 61,-10 81,-24 20,-14 -14,-39 -32,-48 -2,-2 -8,-16 -13,-18 -4,-2 -14,12 -18,10 -6,-5 -7,-15 -15,-17 -6,-1 -21,32 -27,30 -5,-2 -4,-31 -9,-32 -8,-1 -13,30 -19,29 -7,-2 -6,-32 -12,-33 -11,-2 -16,31 -26,29 -5,-1 -5,-33 -9,-34 -8,-1 -12,39 -19,38 -6,-2 -4,-43 -11,-44 -5,-1 -12,40 -17,39 -7,-1 -4,-44 -10,-45 -7,-1 -15,50 -21,49 -6,-1 -4,-53 -10,-54 -7,-1 -14,58 -21,57 -4,-1 -1,-66 -3,-62 -8,18 -9,41 -22,63 -4,6 -3,-60 -8,-69 -3,-5 -19,79 -25,78 -5,-1 4,-87 -1,-87 -5,-1 -22,93 -27,92 -5,0 -1,-98 -5,-99 -12,-2 -24,109 -37,107 -5,0 10,-118 4,-119 -10,-1 -37,131 -46,130 -11,-2 13,-134 3,-135 -14,-2 -38,135 -51,133 -15,-2 14,-143 -1,-144 -15,-2 -38,142 -52,140 -14,-2 1,-143 -13,-145 -11,-1 -28,149 -38,148 -11,-1 -2,-150 -12,-151 -17,-2 -33,143 -49,141 -16,-2 7,-145 -8,-146 -22,-3 -40,152 -60,150 -11,-2 16,-162 5,-163 -23,-3 -48,163 -69,159 -17,-3 28,-163 13,-166 -22,-4 -55,167 -74,162 -9,-3 22,-159 14,-162 -14,-4 -60,164 -71,158 -14,-7 30,-153 19,-162 -11,-8 -83,158 -91,147 -7,-12 48,-143 44,-158 -3,-9 -74,122 -74,112 -1,-11 47,-123 42,-123 -6,0 -20,21 -26,21 -2,0 -5,-1 -5,0 -8,33 -84,108 -20,0 1,-1 1,0 0,0 -2,0 12,-26 1,-22 -25,8 -22,22 -24,22 -5,0 -12,25 -38,21 -3,0 10,-12 11,-21 3,-13 4,-13 -2,-11 -4,2 -9,12 -13,12 -4,0 -8,10 -12,10 -4,0 -7,-15 -12,-15 -2,0 -14,11 -17,11 -4,0 -2,-12 -5,-12 -22,0 -45,8 -67,9 -5,0 -18,-3 -15,1 7,9 -15,-17 24,10 3,2 22,50 24,53 2,3 -9,39 -15,47 -19,23 -65,48 -84,53 -1,0 60,-38 79,-60 3,-4 9,-36 7,-42 -2,-6 -20,-42 -26,-45 -22,-13 -29,-15 -31,-15 -4,0 -8,0 -12,0 -10,1 -19,2 -28,2 -2,0 -4,0 -5,1 -1,0 32,-3 -8,0 -2,0 -4,0 -6,1 -5,0 -32,0 9,21 19,10 -12,36 -22,37 -51,6 -53,-11 -60,-20 -6,-9 6,-30 10,-31 2,0 -16,0 -19,0 -38,4 -72,8 -102,13 -2,0 -3,0 -5,1 0,0 44,34 116,48 37,7 56,25 64,38 6,11 -24,33 -22,22 1,-5 3,5 5,2 7,-8 15,-20 12,-23 -11,-11 -30,-27 -62,-34 -80,-19 -121,-52 -122,-52 -1,0 -2,0 -3,1 -14,2 -28,4 -40,7z"/>
    <path class="fil0 str0" d="M1415 525c35,6 138,-25 159,-8 -17,46 -80,53 -114,45 -31,-7 -2,-23 -45,-37z"/>
    <ellipse class="fil0 str0" transform="matrix(0.279434 0.017836 -0 0.271422 1228.39 486.949)" rx="102" ry="85"/>
    <ellipse class="fil0 str0" transform="matrix(0.238121 0.015199 -0 0.249075 1224.17 488.569)" rx="102" ry="85"/>
    <ellipse class="fil0 str0" transform="matrix(0.222892 0.014227 -0 0.216501 1224.44 488.372)" rx="102" ry="85"/>
    <ellipse class="fil0 str0" transform="matrix(0.178765 0.0114104 -0 0.192935 1224.17 488.569)" rx="102" ry="85"/>
    <path class="fil0 str0" d="M1210 479c14,-7 22,-5 28,2 6,9 -1,15 -13,21 -17,-9 -20,-17 -15,-23z"/>
    <ellipse class="fil0 str0" transform="matrix(0.376074 -0.0437935 -0.170016 0.6133 1220.65 483.728)" rx="12" ry="5"/>
    <path class="fil0 str0" d="M1243 569c-4,-2 -15,-11 -13,-6 0,1 29,7 25,7 -2,0 -10,0 -12,-1 -72,-31 -183,-87 -213,-92 -16,4 10,17 23,17 4,0 8,1 12,2 2,0 5,1 7,1 2,1 152,77 155,76 28,-3 -6,-7 16,-4z"/>
    <path class="fil0 str0" d="M2488 548c66,-2 75,-97 249,-126 -68,83 -53,128 -110,185 49,43 37,107 103,178 -192,-47 -159,-96 -236,-122 -19,-7 20,-14 40,-28 20,-14 21,-35 4,-44 -2,-2 -5,-14 -8,-18 -20,-29 -28,-15 -42,-25z"/>
    <path class="fil0 str0" d="M2498 553c57,-3 66,-91 219,-119 -60,78 -47,119 -97,173 -10,7 -14,12 -79,-15 -2,-1 -3,-13 -6,-17 -18,-27 -25,-13 -37,-22z"/>
    <path class="fil0 str0" d="M2619 623c45,39 37,87 97,151 -174,-42 -144,-87 -213,-110 -21,-10 37,-12 41,-34 0,-1 3,-1 4,-1 28,-8 68,-16 71,-6z"/>
    <path class="fil0 str0" style="mask:url(#id0)" d="M2530 562c40,50 32,72 -9,92 14,34 89,91 178,112 -90,-38 -136,-82 -127,-105 34,12 21,26 94,38 -78,-32 -80,-44 -82,-50 22,-3 67,20 65,15 -32,1 -44,-32 -66,-36 10,-5 33,6 43,1 -9,0 -32,-17 -42,-18 26,-7 44,-26 49,-29 5,-3 -2,10 -39,5 24,-6 21,-33 58,-29 -38,-12 -42,6 -70,4 30,-16 56,-49 90,-56 -47,-4 -64,42 -99,49 43,-26 63,-85 125,-106 -60,11 -132,66 -168,113z"/>
   </g>
   <g>
    <path class="fil0 str0" d="M2044 2255c3,-8 37,21 47,27 5,-1 -28,-29 7,-34 0,-7 7,-8 19,-2 3,-7 10,-8 19,-3 3,-8 10,-9 19,-2 2,-8 8,-9 16,-2 2,-7 8,-8 19,-2 2,-8 8,-9 18,-2 3,-7 6,-10 19,-5 0,-6 5,-11 21,0 3,-8 11,-9 24,-3 -7,-8 -6,-11 -15,-12l-43 -16 -164 18c-31,3 -44,21 -6,38z"/>
    <path class="fil0 str0" d="M1867 1825c12,-11 28,-19 47,-26 -11,6 -19,13 -23,22 15,-11 33,-19 53,-23 -3,4 -3,8 4,11 -4,5 -2,8 4,9 -4,6 -3,9 4,11 -4,4 -3,7 3,9 -4,5 -3,7 3,8 -2,7 5,13 8,20l74 41 128 46c-14,7 -21,14 -20,22 -6,5 -3,10 12,16 -4,7 0,12 11,15 -3,8 0,13 10,14 -4,5 0,10 10,15 -5,5 -1,10 11,15 -3,7 1,12 11,16 -4,8 0,13 11,15 -4,7 -1,11 9,13 -4,6 0,11 11,15 -4,7 -1,12 11,15 -4,6 -4,10 8,16 -3,4 -4,11 14,15 -3,8 1,15 14,20 -11,0 -13,3 -19,-3l-41 -20 -129 -197 -239 -130z"/>
    <path class="fil0 str0" d="M1405 1894c97,-83 177,-109 270,-110 166,24 236,50 370,119 62,8 118,-7 191,27 -44,8 -78,43 -130,25 148,132 116,217 230,248 98,-9 130,-69 236,-56 -60,41 -109,109 -179,123 26,44 7,130 14,193 -84,-79 -60,-156 -95,-223 -72,-50 -131,-3 -229,1 -24,10 26,56 27,84 -40,-10 -100,-54 -124,-100 -7,-21 -123,-44 -198,-79 -9,-1 -40,-7 -47,-1 -12,9 23,23 36,70 -69,-32 -108,-82 -133,-128 -246,-124 -243,-165 -239,-193z"/>
    <path class="fil0 str0" d="M1405 1894c97,-83 177,-109 270,-110 166,24 325,88 397,156 15,9 71,79 128,161 39,55 116,118 136,102 -82,46 -212,-279 -464,-350 -173,-49 -204,-16 -95,17 8,2 2,17 7,26 10,20 24,44 12,74 -6,14 -27,19 -35,32 -5,8 -18,2 -16,24 2,21 -41,22 -55,35 -7,6 -15,22 -18,16 -1,-1 22,-23 26,-33 7,-17 11,-24 13,-54 3,-35 3,-20 3,-89 0,-19 2,120 -29,142 -5,4 -18,19 -9,21 9,1 -5,10 -4,13 1,8 8,9 -11,6 -5,-1 -6,-1 -7,3 0,3 -6,1 -10,1 -246,-124 -243,-165 -239,-193z"/>
    <path class="fil0 str0" d="M1405 1894c31,17 60,67 90,94 15,3 22,-17 19,-41 -32,-21 -66,-34 -95,-65l-14 12z"/>
    <ellipse class="fil0 str0" transform="matrix(0.337515 0.146345 -0.123867 0.269529 1620.57 1888.02)" rx="114" ry="103"/>
    <ellipse class="fil0 str0" transform="matrix(0.276143 0.119734 -0.101344 0.22052 1619.92 1888.16)" rx="114" ry="103"/>
    <path class="fil0 str0" d="M1596 1890c0,-13 11,-25 33,-16 18,2 17,13 13,26 -7,12 -43,2 -46,-10z"/>
    <ellipse class="fil0 str0" transform="matrix(0.0480532 0.0208356 -0.0176354 0.0383738 1617.25 1876.88)" rx="114" ry="103"/>
    <path class="fil0 str0" d="M2273 2186c6,5 5,17 15,22 -10,-5 -15,2 -25,4 12,-5 16,-15 10,-26z"/>
    <path class="fil0 str0" d="M2291 2194c5,5 4,15 13,19 -9,-4 -14,2 -22,4 10,-4 14,-13 9,-23z"/>
    <path class="fil0 str0" d="M2306 2201c5,4 4,15 12,18 -8,-3 -13,2 -21,4 10,-4 14,-12 9,-22z"/>
    <path class="fil0 str0" d="M2319 2207c5,4 4,13 12,17 -8,-4 -12,2 -20,3 10,-3 13,-11 8,-20z"/>
    <path class="fil0 str0" d="M2256 2179c6,6 5,18 15,22 -10,-4 -15,2 -25,5 12,-5 16,-15 10,-27z"/>
    <path class="fil0 str0" d="M2239 2173c6,6 5,18 15,22 -10,-4 -15,2 -25,4 12,-4 16,-14 10,-26z"/>
    <path class="fil0 str0" d="M2220 2166c6,6 5,17 15,22 -10,-5 -15,2 -25,4 12,-4 16,-14 10,-26z"/>
    <path class="fil0 str0" d="M2201 2159c6,5 6,17 15,21 -9,-4 -15,3 -25,5 12,-5 17,-15 10,-26z"/>
    <path class="fil0 str0" d="M2175 2146c8,7 7,22 19,28 -12,-6 -19,3 -32,6 16,-6 21,-19 13,-34z"/>
    <path class="fil0 str0" d="M1777 2007c68,-30 219,16 353,87 -269,-114 -237,18 -344,-45 76,-21 -27,-35 -9,-42z"/>
    <path class="fil0 str0" d="M1776 2007c67,-33 220,9 356,74 -273,-104 -236,27 -346,-32 76,-23 -28,-34 -10,-42z"/>
   </g>
   <g>
    <path class="fil0 str0" d="M2618 1265c2,-3 17,11 21,14 2,0 -12,-14 4,-15 0,-3 3,-4 9,-1 2,-3 5,-3 9,0 2,-4 4,-4 8,-1 2,-3 4,-3 8,0 1,-3 4,-4 8,-1 2,-3 5,-3 9,0 2,-3 3,-4 9,-2 0,-2 2,-4 9,1 2,-4 6,-4 12,-1 -4,-4 -3,-5 -7,-6l-19 -8 -76 3c-14,1 -21,9 -4,17z"/>
    <path class="fil0 str0" d="M2550 1063c6,-5 14,-8 23,-11 -5,3 -9,6 -12,10 8,-5 16,-8 25,-9 -1,2 -1,3 2,5 -2,2 -1,4 1,4 -2,3 -1,4 2,5 -2,2 -2,4 1,4 -2,3 -1,4 1,4 -1,3 2,7 3,10l33 20 57 25c-6,3 -10,6 -9,10 -4,2 -2,5 4,8 -2,3 0,5 5,7 -2,4 -1,6 4,7 -2,2 0,4 4,7 -2,2 -1,4 5,7 -2,3 0,6 5,8 -3,3 -1,6 4,7 -2,3 -1,5 4,6 -2,3 -1,5 4,7 -2,3 0,6 5,8 -2,2 -2,4 3,7 -2,2 -2,5 6,8 -2,3 0,6 6,9 -5,0 -6,1 -9,-2l-18 -10 -53 -94 -106 -67z"/>
    <path class="fil0 str0" d="M2336 1081c47,-35 85,-45 128,-42 75,15 106,29 166,65 28,5 54,0 86,18 -20,2 -37,17 -60,8 64,64 46,103 98,120 45,-1 62,-28 110,-19 -29,18 -53,47 -86,52 10,21 -1,59 0,89 -36,-39 -23,-74 -37,-106 -31,-25 -60,-5 -105,-6 -11,4 11,26 10,40 -18,-6 -44,-28 -54,-50 -2,-10 -54,-24 -88,-42 -4,-1 -18,-4 -21,-2 -6,4 10,11 14,33 -31,-17 -47,-40 -57,-62 -109,-65 -107,-83 -104,-96z"/>
    <path class="fil0 str0" d="M2336 1081c47,-35 85,-45 128,-42 75,15 146,49 177,82 6,5 30,39 54,78 16,26 49,58 59,51 -39,19 -89,-134 -202,-174 -78,-28 -93,-13 -45,5 4,1 1,8 3,12 4,10 10,21 3,34 -3,6 -13,8 -17,14 -2,4 -8,1 -8,10 0,10 -20,10 -26,15 -4,3 -8,10 -9,7 0,-1 11,-10 13,-15 4,-7 6,-10 8,-24 2,-16 2,-9 4,-41 0,-9 -3,55 -18,65 -2,1 -9,8 -5,9 4,1 -2,5 -2,6 0,3 3,4 -5,2 -2,0 -3,-1 -3,2 -1,1 -3,0 -5,0 -109,-65 -107,-83 -104,-96z"/>
    <path class="fil0 str0" d="M2336 1081c14,9 25,32 39,46 6,2 10,-8 9,-18 -13,-11 -29,-18 -41,-33l-7 5z"/>
    <ellipse class="fil0 str0" transform="matrix(0.150343 0.0770762 -0.0652379 0.120059 2435.22 1084.55)" rx="114" ry="103"/>
    <ellipse class="fil0 str0" transform="matrix(0.123005 0.0630611 -0.0533753 0.0982281 2434.91 1084.6)" rx="114" ry="103"/>
    <path class="fil0 str0" d="M2424 1085c0,-6 6,-12 15,-7 9,2 8,7 6,13 -4,5 -20,0 -21,-6z"/>
    <ellipse class="fil0 str0" transform="matrix(0.0214048 0.0109736 -0.00928813 0.0170932 2434.04 1079.34)" rx="114" ry="103"/>
    <path class="fil0 str0" d="M2725 1240c3,3 2,8 7,11 -5,-3 -7,0 -12,1 6,-2 8,-6 5,-12z"/>
    <path class="fil0 str0" d="M2733 1245c3,2 2,7 6,9 -4,-2 -7,0 -11,1 5,-2 7,-5 5,-10z"/>
    <path class="fil0 str0" d="M2740 1248c2,3 2,7 5,9 -3,-2 -6,1 -10,1 5,-1 7,-5 5,-10z"/>
    <path class="fil0 str0" d="M2746 1251c2,3 1,7 5,9 -4,-2 -6,0 -9,1 4,-2 6,-5 4,-10z"/>
    <path class="fil0 str0" d="M2718 1237c2,3 2,8 6,10 -4,-2 -7,1 -12,2 6,-2 8,-6 6,-12z"/>
    <path class="fil0 str0" d="M2710 1234c3,2 2,8 6,10 -4,-2 -7,1 -11,1 5,-1 8,-6 5,-11z"/>
    <path class="fil0 str0" d="M2702 1230c2,2 2,8 6,10 -4,-2 -7,1 -12,2 6,-2 8,-7 6,-12z"/>
    <path class="fil0 str0" d="M2693 1226c3,3 2,8 7,10 -5,-2 -7,1 -12,2 6,-2 8,-7 5,-12z"/>
    <path class="fil0 str0" d="M2682 1219c3,4 2,11 8,14 -6,-3 -9,0 -15,1 7,-2 10,-8 7,-15z"/>
    <path class="fil0 str0" d="M2503 1144c32,-12 100,14 160,50 -120,-60 -110,1 -157,-31 36,-7 -11,-16 -3,-19z"/>
    <path class="fil0 str0" d="M2503 1144c31,-13 101,10 161,44 -122,-56 -109,6 -158,-25 36,-8 -11,-16 -3,-19z"/>
   </g>
   <g>
    <path class="fil0 str0" d="M1318 1801c2,-12 63,19 79,25 7,-4 -50,-35 -1,-53 -2,-10 7,-14 27,-9 3,-11 12,-14 27,-10 2,-13 11,-16 27,-9 1,-13 9,-16 24,-9 0,-11 9,-14 26,-9 1,-12 10,-15 27,-9 1,-11 4,-16 25,-13 -1,-8 4,-17 31,-7 2,-12 14,-16 35,-12 -14,-9 -14,-14 -27,-13l-69 -10 -235 80c-44,15 -57,45 4,58z"/>
    <path class="fil0 str0" d="M911 1225c15,-19 35,-37 61,-52 -14,12 -23,25 -27,39 19,-21 42,-39 70,-51 -3,7 -1,13 10,14 -4,9 -1,14 9,14 -4,9 -1,13 9,13 -4,8 -2,12 8,13 -4,8 -1,12 7,11 0,10 12,18 18,27l124 35 204 27c-19,15 -26,28 -22,39 -8,9 0,16 23,20 -3,12 4,18 21,19 -1,12 4,19 19,17 -3,8 4,15 21,18 -6,10 1,16 21,19 -1,11 6,18 22,20 -3,12 4,19 21,18 -4,12 2,18 18,17 -4,10 3,16 21,18 -4,12 3,18 21,19 -3,10 -2,16 18,21 -4,7 -3,17 26,18 -3,12 6,20 27,24 -16,3 -18,8 -29,3l-68 -18 -257 -247 -396 -115z"/>
    <path class="fil0 str0" d="M256 1477c113,-155 222,-218 360,-249 251,-20 363,-3 584,55 94,-9 171,-49 290,-23 -61,27 -101,89 -183,80 262,146 245,282 424,290 140,-44 167,-144 328,-158 -75,80 -123,196 -222,239 53,56 55,188 87,279 -150,-90 -142,-210 -217,-298 -122,-50 -193,38 -336,75 -32,24 58,74 70,116 -64,-3 -167,-48 -218,-108 -17,-28 -195,-25 -319,-51 -13,1 -60,2 -68,12 -15,19 42,26 76,92 -112,-25 -187,-85 -239,-145 -404,-103 -414,-165 -417,-206z"/>
    <path class="fil0 str0" d="M256 1477c113,-155 222,-218 360,-249 251,-20 508,23 636,100 25,9 132,94 244,195 75,69 210,137 235,107 -105,95 -408,-342 -803,-366 -272,-16 -305,43 -134,57 12,1 9,25 19,36 22,26 51,57 43,105 -3,22 -32,36 -40,58 -4,14 -26,10 -16,40 11,31 -52,47 -69,70 -8,11 -14,37 -21,29 -1,-1 26,-41 28,-58 5,-27 8,-38 1,-82 -9,-52 -3,-30 -27,-132 -7,-28 44,175 6,218 -6,7 -20,34 -6,33 13,0 -3,18 -2,21 5,11 15,10 -13,12 -7,0 -9,0 -9,8 0,4 -9,3 -15,4 -404,-103 -414,-165 -417,-206z"/>
    <path class="fil0 str0" d="M256 1477c52,14 110,78 164,109 24,-1 27,-33 14,-66 -54,-22 -109,-30 -161,-66l-17 23z"/>
    <ellipse class="fil0 str0" transform="matrix(0.546486 0.106327 -0.0899955 0.436407 570.499 1397.77)" rx="114" ry="103"/>
    <ellipse class="fil0 str0" transform="matrix(0.447116 0.0869926 -0.0736312 0.357053 569.595 1398.18)" rx="114" ry="103"/>
    <path class="fil0 str0" d="M535 1408c-5,-18 7,-40 43,-34 28,-2 29,14 28,35 -7,19 -63,17 -71,-1z"/>
    <ellipse class="fil0 str0" transform="matrix(0.0778051 0.0151381 -0.012813 0.0621328 561.814 1382.45)" rx="114" ry="103"/>
    <path class="fil0 str0" d="M1632 1625c11,6 14,24 30,27 -16,-3 -22,8 -36,15 16,-11 19,-27 6,-42z"/>
    <path class="fil0 str0" d="M1661 1632c9,5 12,20 26,24 -14,-4 -19,7 -32,13 15,-10 18,-24 6,-37z"/>
    <path class="fil0 str0" d="M1685 1637c9,5 12,20 25,23 -13,-3 -18,7 -30,12 14,-9 17,-22 5,-35z"/>
    <path class="fil0 str0" d="M1707 1641c9,5 11,19 23,22 -12,-3 -17,6 -28,11 13,-8 16,-21 5,-33z"/>
    <path class="fil0 str0" d="M1605 1621c11,6 14,24 29,28 -15,-4 -21,8 -35,14 16,-10 19,-26 6,-42z"/>
    <path class="fil0 str0" d="M1578 1618c11,6 14,23 29,27 -15,-4 -21,8 -35,15 16,-11 19,-27 6,-42z"/>
    <path class="fil0 str0" d="M1547 1613c11,6 14,24 30,28 -16,-4 -22,8 -36,14 16,-10 19,-27 6,-42z"/>
    <path class="fil0 str0" d="M1517 1608c11,6 14,24 30,28 -16,-4 -22,8 -36,14 17,-10 20,-27 6,-42z"/>
    <path class="fil0 str0" d="M1475 1598c14,8 17,31 37,35 -20,-4 -27,10 -45,19 21,-14 25,-34 8,-54z"/>
    <path class="fil0 str0" d="M841 1522c89,-66 329,-46 549,14 -434,-81 -342,103 -522,46 106,-56 -51,-43 -27,-60z"/>
    <path class="fil0 str0" d="M840 1523c87,-70 327,-59 549,-6 -437,-66 -338,115 -519,64 103,-59 -53,-40 -30,-58z"/>
   </g>
   <g>
    <path class="fil0 str0" d="M1790 1270c2,-9 47,15 59,19 5,-3 -37,-26 -1,-39 -2,-8 5,-10 20,-7 2,-8 9,-10 20,-7 2,-10 8,-12 20,-7 1,-10 7,-12 17,-6 1,-9 7,-11 20,-7 0,-9 7,-11 20,-7 1,-8 3,-12 18,-9 0,-7 3,-13 23,-6 2,-9 11,-12 26,-9 -10,-6 -10,-10 -20,-9l-51 -7 -174 59c-32,11 -42,33 3,42z"/>
    <path class="fil0 str0" d="M1489 845c11,-15 26,-28 45,-40 -10,9 -17,19 -20,29 14,-15 31,-28 52,-38 -2,6 -1,10 7,11 -2,7 0,10 7,10 -3,7 -1,10 7,10 -4,6 -2,9 6,9 -3,7 -1,9 5,9 0,8 9,13 13,20l92 26 151 20c-14,11 -19,21 -16,29 -6,6 -1,11 17,15 -3,8 3,13 15,13 -1,10 3,14 15,13 -3,6 2,11 15,14 -4,6 1,11 16,14 -2,8 4,13 16,14 -3,10 2,14 15,14 -3,9 2,13 14,12 -3,8 2,12 15,13 -3,9 2,14 16,14 -3,8 -2,13 13,16 -3,5 -2,13 19,13 -2,9 5,15 20,18 -12,3 -13,6 -22,2l-50 -13 -190 -183 -293 -84z"/>
    <path class="fil0 str0" d="M1004 1031c84,-115 164,-162 266,-185 187,-14 269,-2 433,41 69,-7 127,-36 214,-17 -45,20 -74,66 -135,59 194,108 182,209 314,215 104,-33 123,-107 242,-117 -55,59 -90,145 -164,177 40,42 41,139 65,206 -111,-66 -105,-155 -161,-220 -90,-37 -143,28 -249,55 -23,18 43,55 52,86 -47,-2 -123,-35 -161,-80 -13,-20 -145,-18 -236,-38 -9,1 -44,2 -50,10 -12,13 30,19 56,68 -83,-19 -138,-63 -177,-108 -299,-76 -307,-122 -309,-152z"/>
    <path class="fil0 str0" d="M1004 1031c84,-115 164,-162 266,-185 187,-14 376,18 471,74 19,7 98,70 181,145 56,51 156,101 174,79 -78,70 -302,-253 -594,-271 -201,-12 -226,32 -100,42 9,1 7,18 15,27 16,19 37,42 31,78 -2,16 -24,26 -29,43 -4,10 -20,7 -12,29 8,23 -39,35 -51,52 -6,8 -11,27 -16,21 0,-1 19,-30 21,-42 3,-20 6,-29 0,-62 -6,-38 -1,-22 -19,-97 -5,-21 32,130 4,162 -4,5 -14,24 -4,24 10,0 -3,13 -2,15 4,9 12,8 -9,9 -6,1 -7,1 -7,6 0,3 -7,2 -11,3 -299,-76 -307,-122 -309,-152z"/>
    <path class="fil0 str0" d="M1004 1031c38,10 82,57 122,80 17,0 19,-24 10,-49 -40,-16 -81,-22 -120,-48l-12 17z"/>
    <ellipse class="fil0 str0" transform="matrix(0.40451 0.078703 -0.0666148 0.323029 1236.94 972.044)" rx="114" ry="103"/>
    <ellipse class="fil0 str0" transform="matrix(0.330956 0.064392 -0.0545019 0.264291 1236.27 972.351)" rx="114" ry="103"/>
    <path class="fil0 str0" d="M1211 980c-4,-14 5,-30 31,-26 21,-1 22,11 21,26 -5,14 -46,13 -52,0z"/>
    <ellipse class="fil0 str0" transform="matrix(0.0575914 0.0112052 -0.00948417 0.0459908 1230.51 960.704)" rx="114" ry="103"/>
    <path class="fil0 str0" d="M2023 1140c8,5 10,18 22,21 -12,-3 -16,5 -27,10 12,-8 15,-19 5,-31z"/>
    <path class="fil0 str0" d="M2044 1145c7,4 9,16 19,18 -10,-2 -14,5 -23,9 11,-6 13,-17 4,-27z"/>
    <path class="fil0 str0" d="M2062 1149c7,4 9,15 19,17 -10,-2 -14,5 -23,9 11,-6 12,-17 4,-26z"/>
    <path class="fil0 str0" d="M2078 1152c7,4 8,14 17,16 -9,-2 -12,5 -20,8 9,-6 11,-15 3,-24z"/>
    <path class="fil0 str0" d="M2003 1138c8,4 10,17 22,20 -12,-3 -17,6 -27,11 12,-8 14,-20 5,-31z"/>
    <path class="fil0 str0" d="M1983 1135c7,4 10,17 21,20 -11,-3 -16,6 -26,11 12,-8 14,-20 5,-31z"/>
    <path class="fil0 str0" d="M1960 1132c8,4 10,17 22,20 -12,-3 -16,6 -27,11 12,-8 15,-20 5,-31z"/>
    <path class="fil0 str0" d="M1938 1128c8,4 10,17 22,20 -12,-3 -16,6 -27,11 12,-8 15,-20 5,-31z"/>
    <path class="fil0 str0" d="M1906 1121c10,5 13,22 28,25 -15,-3 -20,8 -33,14 15,-10 18,-25 5,-39z"/>
    <path class="fil0 str0" d="M1437 1064c66,-49 243,-34 407,11 -322,-61 -254,76 -387,33 78,-41 -38,-31 -20,-44z"/>
    <path class="fil0 str0" d="M1436 1064c65,-51 242,-43 407,-4 -324,-48 -250,85 -385,48 77,-44 -39,-30 -22,-44z"/>
   </g>
  </g>
 </g>
</svg>
