<?xml version="1.0" encoding="UTF-8"?>
<!DOCTYPE svg PUBLIC "-//W3C//DTD SVG 1.1//EN" "http://www.w3.org/Graphics/SVG/1.1/DTD/svg11.dtd">
<!-- Creator: CorelDRAW X7 -->
<svg xmlns="http://www.w3.org/2000/svg" xml:space="preserve" width="6in" height="5in" version="1.1" style="shape-rendering:geometricPrecision; text-rendering:geometricPrecision; image-rendering:optimizeQuality; fill-rule:evenodd; clip-rule:evenodd"
viewBox="0 0 6000 5000"
 xmlns:xlink="http://www.w3.org/1999/xlink">
 <defs>
  <style type="text/css">
   <![CDATA[
    .str0 {stroke:#0098DA;stroke-width:3}
    .fil0 {fill:#F3F4F5}
   ]]>
  </style>
     <mask id="id0">
  <linearGradient id="id1" gradientUnits="userSpaceOnUse" x1="5099.56" y1="1190.84" x2="5420.79" y2="1215.68">
   <stop offset="0" style="stop-opacity:1; stop-color:white"/>
   <stop offset="1" style="stop-opacity:0; stop-color:white"/>
  </linearGradient>
      <rect style="fill:url(#id1)" x="5064" y="849" width="365" height="650"/>
     </mask>
 </defs>
 <g id="Layer_x0020_1">
  <metadata id="CorelCorpID_0Corel-Layer"/>
  <g id="_3025229248160">
   <g>
    <path class="fil0 str0" d="M1945 4256c-2,-9 50,-1 62,-1 4,-5 -44,-13 -14,-37 -4,-8 2,-12 17,-14 0,-8 5,-13 17,-13 -1,-10 4,-14 17,-13 -2,-10 2,-13 15,-12 -3,-8 3,-12 16,-13 -3,-9 3,-13 17,-13 -2,-8 -1,-12 14,-15 -3,-5 -1,-13 20,-12 -1,-10 6,-15 22,-17 -12,-3 -13,-7 -22,-3l-51 9 -147 113c-28,22 -29,46 17,41z"/>
    <path class="fil0 str0" d="M1510 3943c6,-18 16,-35 30,-53 -6,12 -10,24 -9,35 9,-20 20,-38 37,-54 0,6 2,10 11,9 0,7 3,9 9,7 0,7 3,10 10,8 -1,6 2,9 9,6 0,7 2,9 8,7 3,7 13,10 20,15l97 -5 152 -29c-10,15 -12,26 -6,33 -4,8 3,11 21,9 1,9 8,12 20,8 2,9 8,12 18,8 0,6 6,9 19,8 -2,8 5,10 20,8 2,9 9,11 20,9 1,10 8,12 20,8 0,10 6,12 17,7 0,9 6,11 19,8 0,10 7,13 20,9 1,8 3,12 18,10 -1,7 2,14 23,7 1,10 10,13 26,11 -11,6 -11,10 -21,9l-52 4 -245 -115 -311 13z"/>
    <path class="fil0 str0" d="M1108 4279c42,-138 103,-209 193,-264 174,-74 258,-89 430,-100 64,-29 109,-76 200,-86 -37,34 -49,88 -110,101 223,41 245,142 374,105 89,-65 83,-142 193,-191 -32,75 -37,169 -97,224 52,27 87,121 132,178 -129,-28 -153,-116 -229,-161 -99,-6 -128,73 -220,134 -16,25 60,39 79,66 -46,13 -130,6 -182,-25 -19,-16 -145,29 -239,40 -9,3 -42,16 -46,25 -6,17 36,9 78,47 -87,9 -155,-16 -207,-46 -313,23 -336,-18 -349,-47z"/>
    <path class="fil0 str0" d="M1108 4279c42,-138 103,-209 193,-264 174,-74 367,-105 477,-80 21,0 118,35 224,80 70,31 184,48 193,20 -50,93 -376,-146 -662,-69 -198,54 -207,104 -82,73 9,-3 13,15 23,21 22,13 51,28 57,65 3,16 -14,33 -13,51 0,11 -17,13 -2,32 16,19 -25,46 -31,66 -3,10 -1,30 -8,26 -1,-1 8,-36 6,-48 -4,-20 -5,-29 -21,-59 -19,-35 -9,-21 -52,-88 -12,-18 75,115 59,155 -2,6 -5,28 4,25 10,-4 2,13 4,15 7,7 14,4 -6,12 -5,2 -7,2 -5,7 2,3 -5,5 -9,7 -313,23 -336,-18 -349,-47z"/>
    <path class="fil0 str0" d="M1108 4279c41,-2 98,29 145,38 16,-6 10,-30 -7,-50 -44,-3 -85,5 -132,-8l-6 20z"/>
    <ellipse class="fil0 str0" transform="matrix(0.415336 -0.0548216 0.0462381 0.332846 1311.92 4147.05)" rx="114" ry="103"/>
    <ellipse class="fil0 str0" transform="matrix(0.339813 -0.0448531 0.0378304 0.272323 1311.38 4147.56)" rx="114" ry="103"/>
    <path class="fil0 str0" d="M1290 4163c-9,-12 -6,-31 21,-35 20,-8 25,3 29,18 0,16 -40,28 -50,17z"/>
    <ellipse class="fil0 str0" transform="matrix(0.0591328 -0.00780514 0.00658308 0.0473884 1301.87 4138.2)" rx="114" ry="103"/>
    <path class="fil0 str0" d="M2124 4055c9,2 16,14 28,13 -12,1 -13,11 -22,19 9,-12 7,-24 -6,-32z"/>
    <path class="fil0 str0" d="M2146 4053c8,2 14,12 25,11 -11,1 -12,10 -20,17 8,-10 7,-21 -5,-28z"/>
    <path class="fil0 str0" d="M2165 4051c8,1 13,12 23,11 -10,1 -11,9 -18,16 8,-10 6,-21 -5,-27z"/>
    <path class="fil0 str0" d="M2182 4049c7,1 12,11 21,10 -9,1 -10,8 -17,14 7,-9 6,-18 -4,-24z"/>
    <path class="fil0 str0" d="M2104 4059c9,2 16,14 28,13 -12,1 -14,11 -22,19 9,-12 7,-24 -6,-32z"/>
    <path class="fil0 str0" d="M2083 4063c10,2 16,14 28,12 -12,2 -13,11 -21,19 9,-11 7,-23 -7,-31z"/>
    <path class="fil0 str0" d="M2061 4067c9,2 15,14 27,13 -12,1 -13,11 -21,19 9,-12 7,-24 -6,-32z"/>
    <path class="fil0 str0" d="M2038 4071c9,2 16,13 28,12 -12,1 -13,11 -22,19 9,-11 8,-24 -6,-31z"/>
    <path class="fil0 str0" d="M2005 4074c12,2 21,17 36,16 -15,1 -17,14 -28,24 12,-15 9,-30 -8,-40z"/>
    <path class="fil0 str0" d="M1536 4171c46,-69 221,-112 394,-121 -330,46 -218,155 -360,157 61,-65 -47,-18 -34,-36z"/>
    <path class="fil0 str0" d="M1535 4172c44,-71 217,-120 389,-136 -327,58 -211,163 -353,170 58,-66 -48,-16 -36,-34z"/>
   </g>
   <g>
    <path class="fil0 str0" d="M2514 1600c-1,-15 80,9 100,12 8,-7 -68,-30 -14,-63 -5,-12 5,-18 30,-17 1,-14 11,-20 30,-19 0,-16 9,-22 30,-17 -2,-15 7,-21 26,-15 -2,-14 7,-19 29,-17 -2,-15 8,-21 30,-18 -2,-14 1,-20 26,-21 -3,-10 1,-21 35,-15 0,-16 13,-24 39,-24 -18,-7 -19,-13 -35,-9l-84 5 -261 150c-49,28 -56,67 19,68z"/>
    <path class="fil0 str0" d="M1887 1007c13,-28 33,-53 60,-78 -14,18 -22,36 -22,53 17,-29 40,-56 71,-77 -2,9 1,16 15,15 -2,12 2,16 14,14 -3,12 2,16 14,14 -3,11 1,15 12,13 -2,11 2,15 12,12 3,12 19,18 28,28l156 13 250 -15c-19,22 -24,39 -16,51 -8,13 3,20 32,19 -1,15 9,21 29,18 2,15 10,21 28,16 -2,11 7,17 29,17 -5,12 5,18 30,18 1,14 11,20 30,18 0,16 10,22 30,17 -2,16 7,21 26,16 -2,13 7,19 29,17 -2,15 8,20 30,17 -1,14 1,20 27,21 -4,10 0,22 34,16 0,15 13,23 39,23 -18,7 -19,14 -34,9l-85 -4 -367 -237 -501 -44z"/>
    <path class="fil0 str0" d="M1167 1460c98,-212 212,-313 368,-382 296,-82 433,-88 711,-70 109,-33 192,-99 340,-94 -66,45 -98,129 -198,137 348,113 361,280 576,248 157,-85 164,-210 352,-265 -69,113 -98,263 -205,338 77,55 112,213 172,313 -201,-72 -221,-217 -332,-305 -157,-32 -221,89 -383,168 -31,35 88,75 112,122 -76,12 -210,-18 -286,-78 -27,-30 -239,15 -392,12 -15,4 -71,17 -79,31 -13,26 57,22 114,92 -140,-4 -244,-58 -321,-118 -507,-29 -535,-100 -549,-149z"/>
    <path class="fil0 str0" d="M1167 1460c98,-212 212,-313 368,-382 296,-82 612,-90 783,-28 33,4 181,81 340,177 107,64 284,115 306,72 -101,139 -570,-314 -1047,-250 -328,44 -353,123 -146,99 15,-2 17,27 32,39 33,26 75,56 77,115 1,27 -30,51 -33,80 -2,17 -29,17 -9,51 20,34 -52,68 -66,99 -7,16 -7,48 -17,40 -2,-1 19,-55 19,-75 -2,-34 -1,-48 -20,-100 -23,-60 -10,-35 -64,-151 -15,-32 95,199 61,260 -6,9 -16,45 0,41 16,-4 1,21 4,25 8,12 20,9 -13,17 -9,3 -11,3 -9,12 1,5 -10,6 -17,8 -507,-29 -535,-100 -549,-149z"/>
    <path class="fil0 str0" d="M1167 1460c66,5 151,67 224,92 28,-6 23,-46 0,-82 -70,-14 -137,-10 -209,-41l-15 31z"/>
    <ellipse class="fil0 str0" cx="1524" cy="1292" rx="77" ry="56"/>
    <ellipse class="fil0 str0" cx="1523" cy="1293" rx="63" ry="46"/>
    <path class="fil0 str0" d="M1484 1313c-10,-21 -2,-50 42,-51 34,-9 39,10 42,35 -3,24 -70,35 -84,16z"/>
    <ellipse class="fil0 str0" cx="1509" cy="1276" rx="11" ry="8"/>
    <path class="fil0 str0" d="M2845 1317c15,5 23,25 42,26 -19,-1 -24,14 -39,25 17,-16 17,-36 -3,-51z"/>
    <path class="fil0 str0" d="M2881 1318c13,4 20,22 37,23 -17,-1 -21,13 -34,22 15,-14 14,-32 -3,-45z"/>
    <path class="fil0 str0" d="M2911 1318c13,4 19,22 36,22 -17,0 -20,13 -33,22 14,-14 14,-31 -3,-44z"/>
    <path class="fil0 str0" d="M2939 1319c11,3 17,19 32,20 -15,-1 -18,11 -30,20 13,-13 13,-29 -2,-40z"/>
    <path class="fil0 str0" d="M2812 1319c14,4 22,25 42,25 -20,0 -24,15 -39,26 17,-16 17,-36 -3,-51z"/>
    <path class="fil0 str0" d="M2779 1321c14,4 22,25 42,25 -20,0 -24,15 -39,26 17,-16 16,-36 -3,-51z"/>
    <path class="fil0 str0" d="M2741 1323c14,4 22,25 42,25 -20,0 -24,15 -39,26 17,-16 17,-36 -3,-51z"/>
    <path class="fil0 str0" d="M2704 1323c15,5 23,26 42,26 -19,0 -24,15 -39,26 17,-16 17,-36 -3,-52z"/>
    <path class="fil0 str0" d="M2651 1322c18,6 28,32 53,32 -25,0 -30,19 -49,33 22,-21 21,-46 -4,-65z"/>
    <path class="fil0 str0" d="M1877 1378c90,-100 380,-132 658,-111 -538,4 -383,202 -611,176 112,-91 -72,-39 -47,-65z"/>
    <path class="fil0 str0" d="M1876 1378c86,-103 375,-145 653,-134 -537,23 -374,216 -604,198 109,-95 -73,-37 -49,-64z"/>
   </g>
   <g>
    <path class="fil0 str0" d="M3741 1832c0,-15 78,15 98,20 8,-6 -65,-35 -9,-63 -3,-13 7,-18 32,-16 2,-13 13,-18 32,-15 1,-16 11,-21 31,-15 -1,-16 9,-20 27,-13 -1,-14 9,-19 30,-15 0,-15 10,-20 32,-15 0,-14 3,-20 28,-18 -2,-11 3,-22 36,-13 2,-16 15,-22 41,-20 -18,-9 -18,-15 -34,-12l-84 -3 -273 129c-51,24 -62,62 13,69z"/>
    <path class="fil0 str0" d="M3168 1189c15,-26 37,-50 66,-72 -15,16 -25,33 -27,51 20,-28 45,-52 77,-72 -2,10 0,17 14,17 -3,11 1,16 13,15 -3,11 1,17 13,15 -4,11 0,15 11,14 -3,11 0,15 11,13 1,13 17,20 25,30l155 26 250 6c-20,20 -27,37 -21,50 -8,12 2,19 31,21 -2,15 7,22 28,20 0,15 8,22 25,18 -3,11 6,17 28,20 -6,12 4,18 28,20 0,14 10,21 29,20 -2,16 7,23 28,20 -3,16 5,21 25,18 -4,13 5,19 27,19 -3,15 6,21 28,20 -2,14 0,20 25,23 -4,10 -1,21 34,19 -2,15 10,24 36,26 -19,6 -20,12 -35,6l-84 -11 -346 -266 -494 -86z"/>
    <path class="fil0 str0" d="M2411 1581c116,-202 238,-294 400,-350 301,-57 439,-52 714,-11 112,-23 200,-82 347,-66 -70,40 -109,121 -210,121 338,141 336,309 553,295 164,-72 182,-197 374,-236 -79,107 -120,254 -234,320 72,61 93,221 144,326 -193,-89 -201,-235 -303,-331 -155,-45 -229,71 -397,135 -34,33 81,83 101,131 -76,6 -208,-35 -278,-101 -25,-32 -239,-5 -392,-20 -16,3 -72,11 -81,24 -16,25 54,27 105,102 -139,-16 -238,-78 -309,-145 -503,-70 -524,-144 -534,-194z"/>
    <path class="fil0 str0" d="M2411 1581c116,-202 238,-294 400,-350 301,-57 617,-39 783,37 32,7 173,96 323,204 100,73 273,138 298,98 -113,129 -540,-360 -1021,-336 -331,17 -363,93 -154,86 15,0 14,29 28,42 31,28 70,61 67,121 -1,27 -34,49 -40,76 -4,17 -31,15 -14,51 17,35 -57,63 -74,93 -8,15 -11,47 -21,38 -1,-1 25,-53 26,-73 1,-34 3,-48 -11,-100 -18,-62 -7,-36 -51,-157 -12,-33 78,207 38,264 -6,9 -19,44 -3,41 16,-2 -1,22 1,25 8,13 20,11 -14,17 -9,1 -11,2 -10,10 1,5 -10,6 -17,7 -503,-70 -524,-144 -534,-194z"/>
    <path class="fil0 str0" d="M2411 1581c65,11 145,80 214,110 29,-3 28,-43 8,-81 -68,-20 -136,-22 -204,-58l-18 29z"/>
    <ellipse class="fil0 str0" transform="matrix(0.675322 0.0558722 -0.0471242 0.541196 2780.53 1443.45)" rx="114" ry="103"/>
    <ellipse class="fil0 str0" transform="matrix(0.552525 0.0457127 -0.0385554 0.442788 2779.49 1444.07)" rx="114" ry="103"/>
    <path class="fil0 str0" d="M2740 1461c-9,-22 2,-50 46,-47 34,-7 38,13 39,38 -6,24 -73,29 -85,9z"/>
    <ellipse class="fil0 str0" transform="matrix(0.0961479 0.00795472 -0.00670924 0.0770519 2767.87 1426.03)" rx="114" ry="103"/>
    <path class="fil0 str0" d="M4095 1577c14,6 20,27 40,29 -20,-2 -25,13 -41,23 18,-15 20,-35 1,-52z"/>
    <path class="fil0 str0" d="M4131 1581c12,5 18,24 35,26 -17,-2 -22,11 -36,20 16,-14 17,-31 1,-46z"/>
    <path class="fil0 str0" d="M4161 1584c12,5 17,23 34,25 -17,-2 -22,11 -35,19 16,-13 17,-30 1,-44z"/>
    <path class="fil0 str0" d="M4188 1587c11,4 16,21 31,22 -15,-1 -19,10 -32,18 15,-12 16,-27 1,-40z"/>
    <path class="fil0 str0" d="M4062 1576c14,6 20,27 40,29 -20,-2 -26,13 -42,23 19,-15 20,-35 2,-52z"/>
    <path class="fil0 str0" d="M4029 1575c13,6 20,27 39,30 -19,-3 -25,12 -41,22 18,-15 20,-35 2,-52z"/>
    <path class="fil0 str0" d="M3991 1574c14,6 20,27 40,29 -20,-2 -26,13 -42,23 19,-15 20,-35 2,-52z"/>
    <path class="fil0 str0" d="M3954 1572c14,6 20,27 40,29 -20,-2 -25,13 -41,23 18,-15 20,-35 1,-52z"/>
    <path class="fil0 str0" d="M3902 1566c17,7 25,34 50,37 -25,-3 -32,16 -52,29 23,-20 25,-45 2,-66z"/>
    <path class="fil0 str0" d="M3125 1558c99,-92 390,-100 666,-56 -537,-41 -399,170 -625,125 120,-81 -68,-45 -41,-69z"/>
    <path class="fil0 str0" d="M3124 1559c95,-96 386,-114 663,-81 -538,-21 -392,185 -619,148 116,-86 -70,-42 -44,-67z"/>
   </g>
   <g>
    <path class="fil0 str0" d="M1477 945c3,-16 83,30 104,38 10,-5 -65,-49 2,-71 -2,-14 10,-18 37,-11 5,-15 17,-19 38,-12 3,-18 15,-21 36,-11 2,-17 13,-21 32,-10 2,-15 13,-19 36,-11 2,-17 14,-20 37,-12 2,-14 7,-21 35,-15 -1,-12 6,-23 41,-8 4,-17 20,-22 49,-15 -19,-13 -18,-20 -35,-19l-93 -17 -321 96c-61,18 -79,58 2,78z"/>
    <path class="fil0 str0" d="M960 145c21,-26 49,-48 85,-68 -19,16 -33,33 -38,52 27,-28 58,-50 97,-66 -4,10 -3,18 13,21 -6,12 -2,18 11,18 -6,12 -2,18 11,19 -6,11 -2,16 11,17 -6,11 -3,16 9,16 -1,14 15,24 23,37l164 55 274 47c-26,19 -37,36 -31,51 -12,12 -2,21 29,29 -5,16 4,24 27,26 -2,17 5,26 25,24 -5,12 4,20 27,26 -8,12 1,21 28,27 -3,15 6,24 28,27 -5,18 4,26 27,27 -6,16 2,24 24,23 -6,14 3,22 26,26 -6,15 3,24 28,26 -5,15 -4,22 23,29 -6,10 -5,24 34,26 -5,17 7,28 36,35 -23,3 -25,10 -41,1l-90 -26 -332 -349 -528 -176z"/>
    <path class="fil0 str0" d="M62 451c162,-203 312,-284 500,-319 340,-12 490,16 785,107 126,-8 233,-58 391,-16 -83,33 -140,115 -250,98 345,211 314,394 555,415 191,-52 233,-186 450,-197 -104,105 -176,259 -312,312 69,79 64,258 102,382 -197,-129 -180,-291 -276,-414 -161,-75 -263,40 -458,84 -43,30 75,103 88,160 -85,-7 -222,-73 -287,-158 -22,-38 -262,-44 -427,-86 -17,0 -81,0 -92,13 -22,24 54,38 97,129 -150,-41 -247,-125 -314,-210 -539,-160 -550,-244 -552,-300z"/>
    <path class="fil0 str0" d="M62 451c162,-203 312,-284 500,-319 340,-12 683,59 851,170 34,13 174,134 319,277 98,97 276,197 311,157 -147,123 -531,-484 -1062,-537 -365,-36 -414,42 -184,69 17,2 11,34 24,50 28,36 65,79 52,144 -6,29 -46,48 -57,77 -7,18 -36,11 -24,53 13,42 -73,61 -97,91 -12,15 -21,49 -30,38 -1,-2 37,-54 41,-76 7,-37 12,-52 5,-112 -8,-71 -1,-41 -28,-180 -7,-38 49,239 -4,296 -8,9 -29,44 -10,44 18,0 -5,24 -4,28 7,15 20,15 -18,16 -10,0 -13,0 -13,9 0,6 -12,5 -20,5 -539,-160 -550,-244 -552,-300z"/>
    <path class="fil0 str0" d="M62 451c70,22 145,111 216,156 32,0 38,-44 22,-89 -71,-32 -144,-46 -213,-97l-25 30z"/>
    <ellipse class="fil0 str0" transform="matrix(0.730775 0.172837 -0.145776 0.585635 491.459 360.38)" rx="114" ry="103"/>
    <ellipse class="fil0 str0" transform="matrix(0.597895 0.141409 -0.119268 0.479146 490.217 360.892)" rx="114" ry="103"/>
    <path class="fil0 str0" d="M444 373c-6,-26 11,-55 58,-45 39,-1 40,21 36,49 -10,26 -85,20 -94,-4z"/>
    <ellipse class="fil0 str0" transform="matrix(0.104043 0.0246074 -0.0207546 0.0833789 480.608 339.192)" rx="114" ry="103"/>
    <path class="fil0 str0" d="M1910 724c14,9 17,33 38,39 -21,-6 -29,9 -49,18 23,-14 28,-36 11,-57z"/>
    <path class="fil0 str0" d="M1948 734c13,8 15,29 34,34 -19,-5 -26,9 -43,16 20,-12 24,-31 9,-50z"/>
    <path class="fil0 str0" d="M1981 743c12,7 15,28 32,33 -17,-5 -25,8 -41,15 19,-12 23,-30 9,-48z"/>
    <path class="fil0 str0" d="M2010 750c11,7 14,26 30,30 -16,-4 -23,8 -38,14 18,-11 22,-27 8,-44z"/>
    <path class="fil0 str0" d="M1873 718c15,9 18,33 39,38 -21,-5 -30,10 -49,18 23,-13 28,-35 10,-56z"/>
    <path class="fil0 str0" d="M1837 711c14,9 17,33 38,39 -21,-6 -29,10 -49,18 23,-14 28,-35 11,-57z"/>
    <path class="fil0 str0" d="M1796 704c14,9 17,33 38,38 -21,-5 -29,10 -49,18 23,-13 28,-35 11,-56z"/>
    <path class="fil0 str0" d="M1756 696c14,8 18,32 39,38 -21,-6 -30,10 -49,18 22,-14 27,-35 10,-56z"/>
    <path class="fil0 str0" d="M1699 680c18,11 22,42 49,49 -27,-7 -38,12 -62,22 29,-17 35,-44 13,-71z"/>
    <path class="fil0 str0" d="M849 543c124,-85 446,-45 740,48 -581,-133 -467,121 -706,34 145,-69 -67,-60 -34,-82z"/>
    <path class="fil0 str0" d="M848 543c121,-89 443,-61 741,22 -586,-112 -462,138 -705,59 143,-74 -69,-57 -36,-81z"/>
   </g>
   <g>
    <path class="fil0 str0" d="M4655 3305c1,-16 86,21 108,28 9,-6 -71,-43 -6,-71 -3,-14 8,-19 35,-15 3,-15 16,-20 37,-16 1,-18 13,-23 35,-15 0,-17 11,-21 31,-13 -1,-15 11,-20 34,-14 0,-17 12,-22 36,-15 1,-15 5,-22 33,-19 -3,-12 3,-24 40,-12 2,-17 18,-24 47,-20 -20,-11 -20,-18 -37,-15l-94 -8 -309 127c-59,24 -73,66 10,78z"/>
    <path class="fil0 str0" d="M4057 2561c18,-28 44,-53 77,-76 -17,17 -29,35 -32,55 24,-30 53,-56 90,-75 -4,10 -2,18 14,19 -4,13 0,18 13,17 -4,13 0,19 13,18 -5,11 -1,17 12,16 -4,12 -1,16 11,14 1,15 18,24 27,35l170 38 276 20c-23,22 -32,40 -25,54 -11,13 0,22 32,26 -3,16 7,24 30,23 -1,17 7,25 27,22 -4,11 6,19 30,23 -7,13 3,21 30,24 -1,15 9,23 31,24 -3,18 7,26 30,24 -5,16 4,23 26,20 -5,15 5,22 29,23 -4,16 6,24 30,24 -3,15 -1,22 26,27 -5,10 -2,23 36,22 -2,17 11,27 40,31 -22,5 -24,12 -40,5l-92 -17 -368 -314 -543 -122z"/>
    <path class="fil0 str0" d="M3196 2954c140,-218 281,-312 463,-366 338,-46 489,-33 793,28 124,-21 225,-81 387,-55 -80,41 -127,128 -239,122 366,176 354,361 596,357 185,-71 212,-207 427,-240 -93,114 -148,275 -277,342 76,71 90,250 141,369 -210,-109 -210,-272 -318,-384 -168,-58 -257,66 -447,129 -40,34 85,95 105,150 -86,2 -229,-50 -303,-128 -25,-36 -265,-18 -433,-43 -17,2 -81,8 -91,22 -19,26 58,32 110,118 -153,-25 -258,-99 -334,-177 -553,-105 -572,-188 -580,-244z"/>
    <path class="fil0 str0" d="M3196 2954c140,-218 281,-312 463,-366 338,-46 686,-10 865,84 35,9 187,115 346,244 108,86 295,168 326,124 -133,137 -579,-428 -1113,-428 -367,1 -407,83 -176,87 17,1 15,33 29,48 33,33 74,72 67,138 -2,30 -40,52 -48,82 -5,19 -35,15 -18,55 17,41 -67,68 -87,100 -10,16 -16,51 -26,41 -1,-1 30,-58 33,-80 3,-37 6,-52 -7,-112 -16,-69 -6,-40 -47,-176 -12,-37 74,233 27,295 -7,10 -24,47 -6,45 18,-2 -2,24 0,28 8,15 21,13 -17,18 -10,1 -12,1 -11,11 0,5 -12,5 -20,6 -553,-105 -572,-188 -580,-244z"/>
    <path class="fil0 str0" d="M3196 2954c71,16 155,97 231,134 32,-2 33,-47 13,-90 -75,-25 -149,-31 -223,-76l-21 32z"/>
    <ellipse class="fil0 str0" transform="matrix(0.745085 0.0990207 -0.0835169 0.597103 3613.16 2821.74)" rx="114" ry="103"/>
    <ellipse class="fil0 str0" transform="matrix(0.609603 0.0810152 -0.0683306 0.488529 3611.98 2822.37)" rx="114" ry="103"/>
    <path class="fil0 str0" d="M3567 2839c-9,-25 5,-55 54,-50 38,-5 41,16 40,45 -7,26 -82,28 -94,5z"/>
    <ellipse class="fil0 str0" transform="matrix(0.10608 0.0140979 -0.0118906 0.0850116 3600.14 2801.74)" rx="114" ry="103"/>
    <path class="fil0 str0" d="M5062 3042c15,7 21,31 43,35 -22,-4 -29,12 -47,22 21,-15 24,-37 4,-57z"/>
    <path class="fil0 str0" d="M5102 3049c13,6 18,27 37,30 -19,-3 -25,11 -42,20 19,-14 22,-33 5,-50z"/>
    <path class="fil0 str0" d="M5135 3054c13,6 17,26 36,29 -19,-3 -25,11 -40,19 18,-13 20,-32 4,-48z"/>
    <path class="fil0 str0" d="M5165 3058c12,6 16,24 33,27 -17,-3 -22,10 -37,17 17,-12 19,-29 4,-44z"/>
    <path class="fil0 str0" d="M5025 3039c15,8 21,31 43,35 -22,-4 -29,13 -47,23 21,-16 24,-38 4,-58z"/>
    <path class="fil0 str0" d="M4989 3037c15,7 20,31 42,34 -22,-3 -29,13 -47,23 21,-16 24,-38 5,-57z"/>
    <path class="fil0 str0" d="M4947 3033c15,8 20,31 42,35 -22,-4 -29,12 -47,22 21,-15 24,-37 5,-57z"/>
    <path class="fil0 str0" d="M4907 3029c15,7 20,31 42,34 -22,-3 -29,13 -47,23 21,-16 24,-38 5,-57z"/>
    <path class="fil0 str0" d="M4848 3019c19,9 26,39 54,44 -28,-5 -36,16 -60,29 27,-20 31,-48 6,-73z"/>
    <path class="fil0 str0" d="M3988 2967c115,-96 439,-89 741,-25 -592,-74 -452,167 -699,104 137,-83 -73,-53 -42,-79z"/>
    <path class="fil0 str0" d="M3987 2968c111,-100 435,-105 739,-52 -594,-53 -445,183 -694,129 134,-88 -75,-50 -45,-77z"/>
   </g>
   <g>
    <path class="fil0 str0" d="M5103 3700c1,-15 80,12 100,16 8,-6 -66,-33 -9,-65 -3,-13 7,-18 32,-17 2,-14 13,-20 33,-17 0,-17 11,-23 31,-17 -1,-16 9,-21 28,-15 -2,-14 9,-19 30,-17 -1,-15 10,-21 32,-17 0,-14 3,-20 29,-20 -3,-10 2,-22 36,-15 1,-16 15,-23 42,-22 -18,-8 -19,-15 -35,-11l-86 2 -276 144c-52,28 -63,68 13,71z"/>
    <path class="fil0 str0" d="M4522 3067c15,-28 38,-54 67,-78 -15,18 -25,36 -27,54 20,-30 45,-56 78,-77 -2,10 0,17 14,16 -3,12 2,17 13,15 -3,12 1,17 13,15 -4,11 0,16 12,14 -4,11 0,15 11,12 1,13 17,20 25,30l157 20 254 -6c-21,22 -28,39 -21,52 -9,13 1,20 31,21 -3,15 7,21 28,19 0,15 8,22 26,17 -3,11 6,18 28,19 -6,12 4,19 28,19 0,14 10,21 30,20 -2,16 7,23 28,19 -3,16 5,21 25,17 -3,13 6,20 28,18 -4,16 6,22 28,20 -2,13 0,20 26,22 -5,10 -2,22 34,17 -2,16 10,25 37,25 -20,7 -21,14 -36,9l-85 -8 -351 -257 -501 -64z"/>
    <path class="fil0 str0" d="M3756 3506c117,-214 241,-314 405,-379 305,-73 444,-74 724,-45 112,-30 202,-95 350,-85 -70,45 -109,130 -212,134 343,130 341,302 561,277 166,-82 184,-211 378,-260 -79,114 -121,267 -236,340 73,59 94,223 146,328 -196,-82 -204,-232 -308,-326 -156,-39 -231,84 -401,158 -35,36 82,81 102,130 -78,9 -211,-26 -282,-91 -25,-31 -243,7 -397,-2 -16,4 -73,15 -82,29 -16,26 55,25 106,99 -141,-10 -241,-69 -313,-134 -510,-48 -531,-122 -541,-173z"/>
    <path class="fil0 str0" d="M3756 3506c117,-214 241,-314 405,-379 305,-73 625,-70 793,0 32,6 175,90 327,195 102,70 277,128 303,86 -115,138 -548,-344 -1035,-296 -335,33 -368,112 -157,95 16,-1 15,29 29,42 31,28 71,60 68,121 -1,28 -35,52 -40,81 -4,17 -31,16 -14,52 17,36 -58,68 -75,100 -8,16 -12,48 -21,40 -1,-2 25,-56 26,-77 1,-34 3,-49 -12,-103 -17,-62 -7,-36 -51,-158 -12,-33 79,209 39,270 -6,9 -20,45 -3,42 16,-3 -1,22 1,26 8,13 20,10 -14,17 -10,2 -12,3 -11,12 1,5 -10,6 -17,7 -510,-48 -531,-122 -541,-173z"/>
    <path class="fil0 str0" d="M3756 3506c66,8 146,75 217,103 29,-5 28,-47 7,-85 -69,-16 -137,-15 -207,-49l-17 31z"/>
    <ellipse class="fil0 str0" transform="matrix(0.684361 0.0252789 -0.0473035 0.558344 4130.03 3346.49)" rx="114" ry="103"/>
    <ellipse class="fil0 str0" transform="matrix(0.55992 0.0206823 -0.0387021 0.456818 4128.99 3347.18)" rx="114" ry="103"/>
    <path class="fil0 str0" d="M4089 3366c-9,-22 2,-51 46,-50 35,-8 39,11 40,37 -6,25 -74,34 -86,13z"/>
    <ellipse class="fil0 str0" transform="matrix(0.0974347 0.00359904 -0.00673476 0.0794933 4117.19 3329.19)" rx="114" ry="103"/>
    <path class="fil0 str0" d="M5463 3421c14,6 20,27 40,28 -20,-1 -26,15 -42,25 19,-16 20,-37 2,-53z"/>
    <path class="fil0 str0" d="M5499 3424c12,5 17,23 35,24 -18,-1 -23,13 -37,23 17,-15 18,-33 2,-47z"/>
    <path class="fil0 str0" d="M5529 3425c12,5 17,23 34,24 -17,-1 -21,12 -35,22 16,-14 17,-32 1,-46z"/>
    <path class="fil0 str0" d="M5557 3427c11,4 16,21 31,22 -15,-1 -20,11 -32,19 14,-13 15,-29 1,-41z"/>
    <path class="fil0 str0" d="M5429 3422c14,5 20,27 40,28 -20,-1 -26,14 -42,25 19,-16 20,-37 2,-53z"/>
    <path class="fil0 str0" d="M5395 3423c14,5 20,26 40,28 -20,-2 -25,14 -42,25 19,-16 20,-37 2,-53z"/>
    <path class="fil0 str0" d="M5357 3423c14,6 20,27 40,28 -20,-1 -26,15 -42,25 19,-16 20,-37 2,-53z"/>
    <path class="fil0 str0" d="M5320 3423c14,5 20,27 40,28 -20,-1 -26,14 -42,25 19,-16 20,-37 2,-53z"/>
    <path class="fil0 str0" d="M5266 3419c18,7 26,34 51,36 -25,-2 -32,18 -53,31 24,-20 26,-46 2,-67z"/>
    <path class="fil0 str0" d="M4479 3448c100,-100 396,-122 675,-90 -544,-16 -405,194 -633,158 121,-89 -69,-42 -42,-68z"/>
    <path class="fil0 str0" d="M4478 3449c96,-103 391,-136 672,-114 -545,4 -397,208 -627,180 118,-93 -71,-40 -45,-66z"/>
   </g>
   <g>
    <path class="fil0 str0" d="M2026 924c-58,-62 338,-101 682,-137 165,-14 303,-14 428,-8 13,1 29,10 39,2 85,-71 157,-140 302,-193 -15,16 -29,-16 0,0 -17,18 -20,36 6,52 -19,27 -21,46 15,52 -15,20 -9,34 18,44 -15,6 -30,12 -44,18 -14,6 30,18 29,26 -1,15 -45,23 -35,26 16,5 -59,-5 -19,-2 156,15 487,63 675,64 6,0 12,0 18,0 3,-6 169,-224 186,-223 13,0 62,102 73,150 28,130 -108,91 -64,103 11,4 23,7 35,11 182,53 436,133 628,145 133,-5 152,-199 507,-257 -180,131 -68,89 -225,376 120,165 75,218 210,364 -391,-95 -324,-196 -480,-248 -268,-58 -402,-3 -533,49 -13,6 -27,11 -40,16 -29,11 -127,-16 40,-16 40,0 50,198 27,202 -13,-1 -249,-143 -261,-144 -16,-2 -32,-3 -47,-4 -318,-23 -576,-34 -869,-72 -15,-2 -29,-4 -44,-6 -5,0 96,11 128,52 62,80 122,95 85,121 -58,40 -317,-154 -292,-184 5,-6 -15,-2 -22,-4 -114,-17 -235,-40 -368,-69 -280,-45 -937,-186 -803,-307 116,-8 337,181 453,173 -88,-29 -350,-142 -438,-172z"/>
    <path class="fil0 str0" d="M2026 924c-58,-62 338,-101 682,-137 165,-14 303,-14 428,-8 13,1 29,10 39,2 85,-71 157,-140 302,-193 -15,16 -24,32 4,48 -17,19 -20,37 6,53 -19,26 -21,46 15,52 -14,19 -8,34 18,43 -15,6 -30,12 -44,19 -14,5 30,17 29,25 -1,16 -49,-25 -39,-22 16,5 -59,-5 -19,-2 156,15 487,63 675,64 6,0 12,0 18,0 3,-6 169,-224 186,-223 13,0 82,103 73,150 -14,69 -108,91 -64,103 11,4 23,7 35,11 182,53 436,133 628,145 133,-5 152,-199 507,-257 -140,169 -110,260 -225,376 100,88 75,218 210,364 -391,-95 -324,-196 -480,-248 -39,-15 124,-21 164,-49 41,-29 -28,-81 -64,-100 -4,-2 -17,-33 -27,-37 -8,-3 -29,27 -37,21 -13,-9 -13,-30 -30,-33 -13,-3 -42,64 -55,60 -11,-3 -8,-62 -19,-65 -15,-2 -25,62 -39,58 -14,-3 -11,-64 -25,-66 -22,-4 -30,63 -53,59 -9,-2 -9,-68 -18,-69 -14,-3 -23,79 -37,76 -14,-3 -10,-87 -23,-89 -11,-2 -24,83 -35,81 -13,-3 -8,-90 -21,-93 -13,-2 -30,103 -42,101 -12,-2 -9,-109 -21,-111 -13,-2 -28,118 -41,116 -9,-2 -3,-134 -7,-126 -17,37 -18,84 -45,127 -8,14 -6,-122 -16,-139 -7,-11 -38,160 -50,158 -10,-1 7,-176 -3,-178 -10,-1 -45,191 -55,189 -9,-1 -1,-201 -9,-202 -26,-4 -50,223 -75,219 -12,-2 18,-242 7,-244 -20,-3 -75,268 -94,265 -22,-3 27,-273 6,-276 -29,-4 -76,278 -104,273 -31,-4 29,-292 -2,-295 -30,-4 -76,290 -105,286 -29,-4 3,-292 -26,-296 -22,-2 -57,305 -78,302 -22,-3 -3,-306 -24,-309 -35,-3 -68,293 -101,289 -31,-4 15,-296 -16,-299 -44,-5 -80,312 -121,307 -23,-3 32,-330 10,-333 -48,-5 -99,332 -141,325 -34,-6 57,-333 26,-339 -44,-8 -110,342 -149,330 -19,-6 45,-323 27,-329 -27,-9 -121,333 -144,322 -28,-14 61,-313 39,-331 -22,-17 -169,322 -184,299 -16,-24 96,-290 88,-321 -5,-18 -149,249 -151,228 -1,-23 96,-250 86,-250 -11,-1 -41,43 -52,43 -4,0 -10,-4 -11,-1 -16,68 -171,221 -41,0 2,-2 4,0 0,0 -4,0 25,-53 4,-46 -53,18 -46,46 -50,46 -10,0 -26,51 -77,43 -6,-1 19,-24 23,-42 5,-28 8,-28 -6,-23 -7,3 -17,23 -26,23 -7,0 -17,22 -24,22 -9,0 -15,-30 -24,-31 -5,0 -29,21 -34,21 -8,1 -5,-23 -12,-23 -44,-1 -90,16 -135,18 -10,0 -36,-7 -30,1 14,20 -31,-33 48,22 5,4 44,102 48,109 4,5 -18,79 -31,95 -37,47 -131,97 -169,108 -3,0 122,-78 159,-122 7,-9 19,-74 15,-87 -5,-12 -40,-85 -52,-92 -45,-26 -61,-31 -64,-30 -9,0 -17,1 -25,1 -19,1 -38,2 -56,4 -4,0 -7,0 -11,0 -1,0 66,-4 -16,1 -4,1 -8,1 -13,1 -9,1 -64,2 20,45 39,20 -25,73 -46,75 -104,13 -108,-22 -120,-40 -14,-20 11,-63 18,-64 5,0 -32,-1 -37,-1 -78,8 -148,17 -208,27 -4,0 -7,1 -10,1 -1,0 90,70 235,99 77,15 115,51 130,77 14,24 -49,67 -44,46 3,-11 7,9 11,3 13,-16 30,-41 24,-47 -22,-22 -62,-53 -126,-69 -164,-38 -248,-106 -249,-106 -2,1 -4,1 -6,1 -29,5 -56,10 -80,15z"/>
    <path class="fil0 str0" d="M2814 1006c71,12 282,-52 325,-17 -36,95 -164,108 -234,92 -62,-13 -4,-47 -91,-75z"/>
    <ellipse class="fil0 str0" transform="matrix(0.568503 0.0364152 -0 0.554154 2434.62 928.49)" rx="102" ry="85"/>
    <ellipse class="fil0 str0" transform="matrix(0.484452 0.0310313 -0 0.508529 2426.03 931.796)" rx="102" ry="85"/>
    <ellipse class="fil0 str0" transform="matrix(0.453469 0.0290467 -0 0.442024 2426.57 931.393)" rx="102" ry="85"/>
    <ellipse class="fil0 str0" transform="matrix(0.363693 0.0232962 -0 0.39391 2426.03 931.796)" rx="102" ry="85"/>
    <path class="fil0 str0" d="M2397 912c29,-15 46,-10 57,4 12,18 -1,32 -26,44 -35,-20 -40,-35 -31,-48z"/>
    <ellipse class="fil0 str0" transform="matrix(0.765116 -0.0894118 -0.345895 1.25215 2418.87 921.912)" rx="12" ry="5"/>
    <path class="fil0 str0" d="M2464 1096c-8,-4 -30,-22 -27,-12 1,2 59,14 52,14 -4,0 -21,-1 -25,-2 -145,-63 -372,-178 -434,-189 -31,8 20,35 47,36 8,1 17,2 25,3 5,1 10,2 14,3 5,1 310,156 315,156 58,-7 -11,-15 33,-9z"/>
    <path class="fil0 str0" d="M4998 1054c133,-5 152,-199 507,-257 -140,169 -110,260 -225,376 100,88 75,218 210,364 -391,-95 -324,-196 -480,-248 -39,-15 40,-30 81,-59 41,-28 43,-71 7,-90 -4,-2 -9,-28 -15,-37 -41,-59 -58,-29 -85,-49z"/>
    <path class="fil0 str0" d="M5018 1063c116,-5 133,-186 445,-242 -123,159 -96,243 -197,352 -20,15 -29,25 -160,-30 -4,-2 -8,-26 -14,-34 -36,-55 -51,-27 -74,-46z"/>
    <path class="fil0 str0" d="M5264 1206c91,79 74,177 196,308 -353,-85 -292,-177 -433,-224 -43,-21 76,-24 84,-69 1,-3 6,-2 9,-3 56,-16 138,-32 144,-12z"/>
    <path class="fil0 str0" style="mask:url(#id0)" d="M5083 1082c82,102 64,146 -18,187 27,71 181,187 362,229 -184,-78 -277,-166 -258,-214 67,24 42,53 191,77 -159,-65 -163,-89 -167,-103 45,-4 136,42 131,33 -63,2 -89,-66 -133,-75 19,-10 67,13 87,3 -19,-1 -66,-35 -85,-37 52,-15 88,-54 99,-60 11,-6 -3,21 -79,11 49,-12 44,-67 117,-59 -75,-25 -85,12 -142,7 62,-33 115,-100 183,-113 -95,-8 -130,86 -200,99 87,-53 127,-173 254,-216 -122,23 -269,135 -342,231z"/>
   </g>
   <g>
    <path class="fil0 str0" d="M4093 4538c6,-16 77,44 96,56 10,-3 -55,-60 14,-70 2,-14 14,-16 39,-5 7,-13 20,-15 39,-4 7,-17 20,-19 39,-5 5,-17 16,-18 33,-4 4,-15 16,-16 37,-5 5,-16 18,-17 39,-4 5,-15 10,-20 36,-10 2,-11 11,-21 43,0 7,-16 24,-18 50,-6 -15,-16 -13,-23 -31,-25l-88 -33 -333 37c-63,7 -89,44 -13,78z"/>
    <path class="fil0 str0" d="M3733 3660c26,-22 58,-39 97,-52 -22,12 -39,26 -47,44 31,-22 66,-39 107,-47 -6,9 -6,17 9,22 -8,11 -5,18 7,20 -7,11 -5,18 8,21 -8,9 -6,15 7,18 -8,10 -6,16 6,17 -3,14 11,27 16,41l152 83 260 94c-29,15 -43,30 -40,45 -14,10 -6,21 23,34 -7,14 0,25 22,30 -6,16 0,27 20,29 -7,10 0,20 22,30 -11,10 -3,21 22,31 -6,14 2,25 22,32 -8,16 0,26 22,31 -9,14 -2,23 20,27 -9,12 -2,22 21,30 -9,14 -2,24 22,31 -8,13 -8,21 18,32 -8,9 -10,22 28,32 -8,15 2,29 28,40 -22,0 -26,6 -39,-5l-84 -43 -262 -401 -487 -266z"/>
    <path class="fil0 str0" d="M2794 3802c197,-171 359,-223 550,-225 337,48 479,102 753,243 125,15 240,-15 387,54 -88,17 -159,88 -264,52 300,268 236,443 469,506 198,-18 263,-142 479,-114 -122,84 -221,223 -365,252 53,89 15,265 29,393 -169,-162 -122,-318 -194,-456 -145,-102 -266,-6 -466,2 -48,22 54,114 57,173 -82,-22 -205,-111 -254,-206 -14,-41 -249,-89 -403,-160 -17,-2 -79,-14 -94,-3 -26,20 47,47 73,143 -140,-66 -220,-166 -270,-261 -501,-253 -496,-337 -487,-393z"/>
    <path class="fil0 str0" d="M2794 3802c197,-171 359,-223 550,-225 337,48 661,179 806,317 31,19 146,162 262,329 78,112 235,242 277,209 -167,95 -432,-570 -945,-715 -353,-100 -415,-32 -194,35 16,5 5,35 14,54 22,40 50,89 25,151 -11,27 -54,38 -71,65 -10,17 -37,5 -33,48 5,44 -83,47 -112,72 -14,13 -30,45 -36,32 -1,-2 45,-47 54,-67 14,-35 21,-49 26,-110 5,-70 6,-40 5,-181 0,-39 4,244 -59,290 -9,7 -36,38 -18,42 18,3 -9,22 -8,26 3,17 16,19 -21,13 -11,-2 -13,-2 -15,7 -1,6 -13,2 -20,1 -501,-253 -496,-337 -487,-393z"/>
    <path class="fil0 str0" d="M2794 3802c64,34 121,135 183,192 31,6 45,-36 38,-84 -64,-44 -134,-70 -192,-133l-29 25z"/>
    <ellipse class="fil0 str0" transform="matrix(0.686669 0.298788 -0.252006 0.550289 3232.49 3789.01)" rx="114" ry="103"/>
    <ellipse class="fil0 str0" transform="matrix(0.561809 0.244458 -0.206183 0.450227 3231.17 3789.3)" rx="114" ry="103"/>
    <path class="fil0 str0" d="M3183 3793c-1,-26 21,-52 66,-33 38,5 35,27 26,54 -14,23 -87,4 -92,-21z"/>
    <ellipse class="fil0 str0" transform="matrix(0.0977634 0.0425394 -0.035879 0.0783465 3225.75 3766.26)" rx="114" ry="103"/>
    <path class="fil0 str0" d="M4560 4397c12,11 11,35 31,44 -20,-9 -31,5 -52,9 25,-9 34,-29 21,-53z"/>
    <path class="fil0 str0" d="M4596 4414c11,10 9,31 27,39 -18,-8 -28,4 -46,8 22,-8 30,-26 19,-47z"/>
    <path class="fil0 str0" d="M4626 4428c11,9 10,30 26,38 -16,-8 -26,3 -43,7 21,-8 28,-25 17,-45z"/>
    <path class="fil0 str0" d="M4654 4440c10,9 8,28 24,35 -16,-7 -24,3 -40,7 19,-8 26,-23 16,-42z"/>
    <path class="fil0 str0" d="M4525 4384c13,11 11,35 31,45 -20,-10 -31,4 -52,9 25,-10 34,-30 21,-54z"/>
    <path class="fil0 str0" d="M4491 4371c12,12 11,36 30,45 -19,-9 -31,4 -51,9 25,-9 34,-30 21,-54z"/>
    <path class="fil0 str0" d="M4452 4357c12,11 11,35 30,44 -19,-9 -31,5 -51,9 25,-9 34,-29 21,-53z"/>
    <path class="fil0 str0" d="M4414 4342c13,11 11,35 31,44 -20,-9 -31,4 -52,9 25,-9 34,-30 21,-53z"/>
    <path class="fil0 str0" d="M4361 4316c16,14 14,45 39,57 -25,-12 -39,5 -65,11 31,-12 43,-38 26,-68z"/>
    <path class="fil0 str0" d="M3550 4031c138,-61 447,35 719,178 -547,-233 -482,37 -701,-91 156,-42 -54,-71 -18,-87z"/>
    <path class="fil0 str0" d="M3549 4032c136,-67 448,18 725,152 -556,-214 -480,54 -704,-66 154,-48 -57,-69 -21,-86z"/>
   </g>
   <g>
    <path class="fil0 str0" d="M5262 2518c3,-7 33,22 42,28 5,-1 -24,-29 9,-31 1,-7 7,-7 18,-1 3,-6 9,-7 18,-2 3,-7 9,-7 17,-1 3,-7 8,-7 16,0 2,-7 8,-7 17,-1 3,-8 9,-8 18,-1 3,-7 5,-9 17,-4 1,-5 5,-9 20,1 3,-7 11,-7 23,-1 -7,-8 -6,-11 -14,-12l-39 -18 -154 7c-29,2 -42,18 -8,36z"/>
    <path class="fil0 str0" d="M5124 2104c12,-9 27,-16 46,-21 -11,5 -19,11 -23,19 15,-9 31,-16 51,-19 -4,4 -4,8 3,11 -4,5 -3,8 3,9 -4,5 -3,8 2,10 -4,4 -3,7 3,9 -4,4 -3,7 2,8 -2,6 4,12 6,19l67 42 117 51c-14,6 -21,13 -20,20 -7,4 -3,9 10,16 -4,6 -1,11 9,15 -3,7 -1,12 8,13 -3,5 0,9 9,15 -5,4 -2,9 9,15 -3,6 1,11 10,15 -5,7 -1,12 9,15 -5,6 -2,11 8,13 -4,5 -2,10 9,14 -5,6 -2,11 9,15 -4,6 -4,9 7,15 -4,4 -5,10 12,16 -4,7 0,13 12,19 -10,-1 -12,2 -18,-4l-37 -21 -108 -193 -215 -136z"/>
    <path class="fil0 str0" d="M4688 2142c96,-73 172,-92 260,-87 153,32 216,61 337,133 58,11 111,0 177,36 -41,6 -76,36 -123,16 129,133 94,211 199,246 92,-2 126,-57 224,-38 -59,35 -108,96 -175,105 21,43 -2,122 1,182 -73,-80 -47,-150 -75,-215 -64,-51 -122,-11 -214,-13 -23,8 21,54 21,81 -38,-13 -91,-57 -111,-102 -5,-20 -111,-49 -180,-86 -7,-1 -36,-8 -43,-4 -12,9 21,23 29,68 -62,-34 -96,-83 -116,-128 -222,-130 -217,-169 -211,-194z"/>
    <path class="fil0 str0" d="M4688 2142c96,-73 172,-92 260,-87 153,32 298,101 360,169 13,9 62,79 110,159 32,53 100,117 120,103 -79,39 -180,-274 -411,-356 -159,-56 -190,-26 -90,11 7,3 1,16 5,25 8,19 20,43 6,70 -6,12 -26,16 -34,28 -5,7 -17,1 -17,21 1,20 -40,19 -54,30 -7,5 -15,19 -17,13 -1,0 22,-20 27,-29 7,-15 11,-22 15,-49 4,-33 4,-19 8,-84 1,-18 -6,112 -36,132 -5,3 -18,17 -10,18 8,2 -4,10 -4,12 1,8 7,9 -10,6 -5,-1 -6,-2 -7,2 -1,3 -6,1 -10,0 -222,-130 -217,-169 -211,-194z"/>
    <path class="fil0 str0" d="M4688 2142c29,17 52,65 78,93 14,4 22,-15 20,-37 -28,-22 -59,-36 -84,-67l-14 11z"/>
    <ellipse class="fil0 str0" transform="matrix(0.305869 0.157364 -0.132725 0.24512 4889.88 2148.6)" rx="114" ry="103"/>
    <ellipse class="fil0 str0" transform="matrix(0.250252 0.12875 -0.108591 0.200549 4889.27 2148.69)" rx="114" ry="103"/>
    <path class="fil0 str0" d="M4867 2149c0,-12 11,-23 31,-13 18,3 16,13 11,25 -8,11 -40,0 -42,-12z"/>
    <ellipse class="fil0 str0" transform="matrix(0.0435477 0.0224044 -0.0188965 0.0348986 4887.49 2137.96)" rx="114" ry="103"/>
    <path class="fil0 str0" d="M5480 2467c6,5 4,16 13,21 -9,-5 -14,1 -24,3 12,-4 16,-13 11,-24z"/>
    <path class="fil0 str0" d="M5496 2475c5,5 4,15 11,19 -7,-4 -12,1 -21,3 11,-3 15,-12 10,-22z"/>
    <path class="fil0 str0" d="M5510 2483c4,4 3,14 11,18 -8,-4 -13,1 -21,2 10,-3 14,-11 10,-20z"/>
    <path class="fil0 str0" d="M5522 2489c4,5 3,13 10,17 -7,-4 -11,1 -19,2 9,-3 13,-10 9,-19z"/>
    <path class="fil0 str0" d="M5465 2460c5,5 4,16 12,21 -8,-5 -14,1 -23,3 11,-4 16,-13 11,-24z"/>
    <path class="fil0 str0" d="M5449 2453c6,5 4,16 13,21 -9,-5 -14,1 -24,3 12,-4 16,-13 11,-24z"/>
    <path class="fil0 str0" d="M5432 2445c5,6 4,17 12,21 -8,-4 -14,2 -23,3 11,-3 16,-13 11,-24z"/>
    <path class="fil0 str0" d="M5415 2437c5,5 4,17 13,21 -9,-4 -15,1 -24,3 12,-4 16,-13 11,-24z"/>
    <path class="fil0 str0" d="M5392 2424c6,7 4,21 16,27 -12,-6 -19,1 -31,3 15,-4 21,-16 15,-30z"/>
    <path class="fil0 str0" d="M5028 2269c65,-24 204,29 324,103 -243,-123 -222,3 -318,-62 72,-15 -23,-35 -6,-41z"/>
    <path class="fil0 str0" d="M5028 2269c64,-26 204,22 328,91 -249,-114 -222,11 -321,-51 72,-17 -24,-33 -7,-40z"/>
   </g>
   <g>
    <path class="fil0 str0" d="M2617 3610c4,-24 128,40 160,52 15,-8 -102,-70 -2,-107 -4,-22 15,-28 55,-20 6,-22 25,-29 56,-19 5,-27 23,-34 55,-20 2,-26 18,-31 48,-17 0,-22 18,-28 53,-18 1,-25 20,-32 54,-20 3,-22 10,-32 52,-25 -3,-17 7,-35 62,-15 5,-25 29,-33 72,-25 -28,-18 -28,-29 -54,-27l-141 -19 -478 163c-90,30 -115,93 8,117z"/>
    <path class="fil0 str0" d="M1789 2436c30,-40 71,-76 124,-108 -28,25 -48,52 -54,81 38,-43 84,-79 142,-105 -6,15 -3,27 20,30 -7,18 -1,27 18,27 -8,19 -2,28 18,28 -8,16 -3,25 17,25 -8,17 -3,25 15,23 0,22 24,37 36,55l252 72 415 55c-38,31 -53,57 -44,80 -17,18 -2,32 46,41 -6,24 8,37 43,38 -3,25 9,38 39,35 -7,17 7,30 42,37 -12,19 3,32 43,39 -3,23 12,36 44,40 -6,26 8,39 43,38 -8,25 4,36 38,33 -9,22 5,34 41,37 -8,24 6,37 43,39 -6,22 -4,33 37,43 -9,15 -6,35 52,36 -5,26 13,42 56,51 -33,6 -37,16 -60,4l-137 -35 -523 -505 -806 -234z"/>
    <path class="fil0 str0" d="M455 2949c232,-315 453,-445 733,-508 512,-39 739,-6 1190,113 189,-19 347,-100 588,-47 -124,55 -204,182 -371,163 533,297 498,575 862,592 285,-90 340,-294 666,-323 -151,164 -248,400 -450,489 108,114 112,384 177,569 -305,-184 -290,-428 -441,-608 -248,-103 -394,77 -685,153 -64,49 118,152 142,237 -128,-6 -338,-97 -443,-220 -35,-57 -397,-52 -648,-106 -26,2 -121,6 -139,26 -31,38 85,54 155,188 -228,-52 -380,-174 -486,-297 -822,-210 -843,-336 -850,-421z"/>
    <path class="fil0 str0" d="M455 2949c232,-315 453,-445 733,-508 512,-39 1033,48 1294,205 51,17 269,191 497,398 154,140 428,280 478,218 -213,194 -829,-698 -1633,-746 -553,-33 -621,88 -273,115 25,2 18,50 39,74 45,53 104,116 87,214 -7,44 -66,74 -81,120 -9,27 -53,18 -32,81 21,62 -107,95 -141,142 -17,23 -29,76 -42,59 -2,-2 51,-84 56,-117 9,-56 15,-78 1,-169 -17,-106 -4,-61 -54,-269 -13,-58 90,357 13,446 -12,14 -40,68 -13,67 27,-1 -6,35 -3,42 10,23 30,22 -27,25 -15,1 -19,1 -19,15 1,9 -18,7 -30,9 -822,-210 -843,-336 -850,-421z"/>
    <path class="fil0 str0" d="M455 2949c106,30 225,160 335,223 48,-1 55,-68 28,-135 -109,-45 -221,-60 -328,-134l-35 46z"/>
    <ellipse class="fil0 str0" transform="matrix(1.11182 0.217083 -0.183094 0.890998 1096.15 2788.08)" rx="114" ry="103"/>
    <ellipse class="fil0 str0" transform="matrix(0.90965 0.17761 -0.149801 0.728984 1094.31 2788.93)" rx="114" ry="103"/>
    <path class="fil0 str0" d="M1025 2810c-11,-38 14,-83 86,-71 58,-3 60,29 57,71 -14,40 -127,35 -143,0z"/>
    <ellipse class="fil0 str0" transform="matrix(0.158293 0.0309069 -0.0260678 0.126854 1078.48 2756.8)" rx="114" ry="103"/>
    <path class="fil0 str0" d="M3256 3252c22,13 28,49 60,56 -32,-7 -44,16 -73,30 34,-22 40,-55 13,-86z"/>
    <path class="fil0 str0" d="M3314 3265c20,11 25,43 53,50 -28,-7 -39,14 -64,26 30,-19 35,-48 11,-76z"/>
    <path class="fil0 str0" d="M3364 3276c19,11 24,41 51,47 -27,-6 -37,14 -62,26 29,-19 34,-47 11,-73z"/>
    <path class="fil0 str0" d="M3409 3285c17,10 22,38 47,44 -25,-6 -35,12 -57,23 26,-17 31,-43 10,-67z"/>
    <path class="fil0 str0" d="M3201 3245c22,12 28,48 60,55 -32,-7 -44,17 -73,30 34,-21 40,-54 13,-85z"/>
    <path class="fil0 str0" d="M3145 3237c22,13 28,49 60,56 -32,-7 -44,16 -72,30 33,-22 39,-55 12,-86z"/>
    <path class="fil0 str0" d="M3083 3228c22,13 28,49 60,56 -32,-7 -44,16 -73,30 34,-22 40,-55 13,-86z"/>
    <path class="fil0 str0" d="M3023 3218c22,12 28,48 60,56 -32,-8 -44,16 -73,30 34,-22 40,-55 13,-86z"/>
    <path class="fil0 str0" d="M2936 3198c28,16 36,61 76,71 -40,-10 -56,20 -92,38 43,-28 50,-70 16,-109z"/>
    <path class="fil0 str0" d="M1646 3042c182,-135 669,-95 1118,29 -884,-166 -696,210 -1062,92 215,-112 -104,-86 -56,-121z"/>
    <path class="fil0 str0" d="M1644 3043c177,-142 665,-119 1118,-12 -889,-133 -687,235 -1057,131 210,-120 -108,-82 -61,-119z"/>
   </g>
   <g>
    <path class="fil0 str0" d="M3578 2528c2,-19 94,29 118,38 11,-6 -75,-52 -1,-80 -3,-16 11,-20 40,-14 5,-16 19,-21 42,-15 3,-19 17,-24 40,-14 2,-19 14,-23 36,-12 0,-17 13,-22 39,-14 1,-19 15,-23 41,-14 2,-17 7,-25 37,-19 -1,-13 6,-26 47,-11 3,-19 21,-25 53,-19 -21,-13 -21,-21 -40,-20l-104 -14 -354 121c-67,22 -85,68 6,87z"/>
    <path class="fil0 str0" d="M2965 1659c22,-30 52,-57 92,-80 -21,18 -36,38 -40,59 28,-32 62,-58 105,-78 -5,12 -3,20 15,23 -6,13 -1,20 13,20 -6,14 -1,20 13,20 -6,13 -2,19 13,19 -6,13 -3,18 11,17 0,16 18,27 27,41l186 53 307 41c-28,23 -39,42 -32,59 -13,13 -2,23 34,30 -5,18 6,27 31,28 -2,19 7,29 30,26 -6,13 4,22 31,28 -9,14 2,24 32,29 -3,17 8,26 32,29 -5,19 6,29 32,28 -6,18 3,27 28,25 -7,16 4,25 30,27 -6,18 5,28 32,29 -5,16 -3,25 28,32 -7,11 -5,26 38,27 -4,18 10,31 42,37 -25,5 -28,12 -45,3l-102 -26 -387 -374 -596 -172z"/>
    <path class="fil0 str0" d="M1978 2038c171,-233 335,-329 542,-376 379,-29 547,-4 881,84 140,-14 257,-75 435,-35 -92,40 -151,135 -275,120 395,221 369,426 639,439 211,-67 251,-218 493,-240 -112,122 -184,297 -334,362 81,85 83,285 131,422 -226,-136 -214,-317 -326,-450 -184,-76 -292,56 -507,113 -47,36 87,112 105,175 -95,-4 -250,-72 -328,-163 -25,-42 -294,-38 -479,-78 -20,2 -90,4 -103,19 -23,28 63,40 115,139 -169,-38 -282,-128 -360,-220 -609,-155 -625,-248 -629,-311z"/>
    <path class="fil0 str0" d="M1978 2038c171,-233 335,-329 542,-376 379,-29 765,35 958,152 38,12 199,141 368,295 113,103 316,206 354,161 -158,143 -614,-517 -1209,-553 -410,-24 -460,65 -203,85 19,2 14,38 29,56 34,39 77,85 65,158 -5,33 -49,55 -60,88 -7,21 -39,14 -24,60 16,47 -79,71 -104,106 -12,17 -21,56 -31,43 -2,-1 38,-62 42,-86 6,-41 11,-58 0,-125 -12,-79 -3,-46 -40,-200 -10,-42 66,265 9,331 -8,10 -29,50 -9,49 20,-1 -4,27 -2,31 7,17 22,16 -20,19 -12,1 -14,1 -14,11 0,7 -14,5 -22,6 -609,-155 -625,-248 -629,-311z"/>
    <path class="fil0 str0" d="M1978 2038c78,22 166,118 248,165 35,-1 40,-50 20,-100 -81,-33 -163,-44 -243,-99l-25 34z"/>
    <ellipse class="fil0 str0" transform="matrix(0.822969 0.160685 -0.135527 0.659518 2452 1918.89)" rx="114" ry="103"/>
    <ellipse class="fil0 str0" transform="matrix(0.673324 0.131467 -0.110883 0.539595 2450.64 1919.52)" rx="114" ry="103"/>
    <path class="fil0 str0" d="M2399 1935c-8,-28 10,-61 64,-52 43,-3 45,21 42,52 -10,29 -94,26 -106,0z"/>
    <ellipse class="fil0 str0" transform="matrix(0.117169 0.0228773 -0.0192954 0.0938978 2438.92 1895.74)" rx="114" ry="103"/>
    <path class="fil0 str0" d="M4051 2262c16,10 20,36 44,42 -24,-6 -32,12 -54,22 25,-16 30,-41 10,-64z"/>
    <path class="fil0 str0" d="M4094 2272c14,8 18,32 39,37 -21,-5 -29,10 -47,19 22,-14 26,-36 8,-56z"/>
    <path class="fil0 str0" d="M4131 2280c14,8 17,31 38,35 -21,-4 -28,11 -46,19 21,-14 25,-34 8,-54z"/>
    <path class="fil0 str0" d="M4164 2287c12,7 16,28 34,32 -18,-4 -25,9 -41,17 19,-12 22,-31 7,-49z"/>
    <path class="fil0 str0" d="M4010 2257c16,9 21,36 44,41 -23,-5 -32,12 -54,22 25,-16 30,-40 10,-63z"/>
    <path class="fil0 str0" d="M3969 2251c16,9 21,36 44,41 -23,-5 -32,13 -53,23 24,-16 29,-41 9,-64z"/>
    <path class="fil0 str0" d="M3923 2245c16,9 20,36 44,41 -24,-5 -33,12 -54,22 25,-16 30,-40 10,-63z"/>
    <path class="fil0 str0" d="M3878 2237c16,9 21,36 45,41 -24,-5 -33,13 -54,22 25,-16 29,-40 9,-63z"/>
    <path class="fil0 str0" d="M3814 2222c20,12 26,46 56,53 -30,-7 -41,15 -68,28 32,-21 37,-52 12,-81z"/>
    <path class="fil0 str0" d="M2859 2107c135,-100 495,-70 827,21 -654,-123 -515,155 -786,69 159,-84 -77,-64 -41,-90z"/>
    <path class="fil0 str0" d="M2858 2107c131,-104 492,-87 827,-8 -658,-99 -509,174 -783,97 156,-89 -79,-61 -44,-89z"/>
   </g>
  </g>
 </g>
</svg>
