<?xml version="1.0" encoding="UTF-8"?>
<!DOCTYPE svg PUBLIC "-//W3C//DTD SVG 1.1//EN" "http://www.w3.org/Graphics/SVG/1.1/DTD/svg11.dtd">
<!-- Creator: CorelDRAW X7 -->
<svg xmlns="http://www.w3.org/2000/svg" xml:space="preserve" width="3.1in" height="1.4in" version="1.1" style="shape-rendering:geometricPrecision; text-rendering:geometricPrecision; image-rendering:optimizeQuality; fill-rule:evenodd; clip-rule:evenodd"
viewBox="0 0 3100 1400"
 xmlns:xlink="http://www.w3.org/1999/xlink">
 <defs>
  <style type="text/css">
   <![CDATA[
    .fil1 {fill:#373435}
    .fil3 {fill:#FFCC29}
    .fil4 {fill:#6DADDE}
    .fil0 {fill:#3F8CC2}
    .fil2 {fill:#0076AC}
   ]]>
  </style>
 </defs>
 <g id="Layer_x0020_1">
  <metadata id="CorelCorpID_0Corel-Layer"/>
  <g id="_1853815157312">
   <path class="fil0" d="M616 234c424,-66 615,-52 997,21 157,-28 283,-108 487,-77 -100,54 -158,168 -299,162 464,220 453,460 756,451 -165,179 -735,-543 -1407,-533 -462,6 -511,114 -220,115 22,0 19,42 38,61 41,42 94,92 87,177 -4,38 -51,67 -60,107 -6,24 -44,19 -22,71 22,52 -83,88 -108,131 -12,21 -19,66 -31,53 -2,-2 37,-75 39,-104 4,-48 8,-68 -10,-144 -21,-89 -8,-52 -62,-226 -15,-48 97,299 39,380 -9,12 -29,60 -6,58 22,-3 -3,30 0,36 10,19 27,16 -21,23 -13,1 -16,2 -14,14 1,8 -15,7 -25,9 96,99 231,193 424,223 -67,-110 -165,-117 -141,-151 13,-18 92,-27 114,-30 212,30 513,2 545,48 95,99 276,164 383,160 -25,-71 -184,-147 -134,-192 238,-84 347,-246 560,-174 138,143 141,353 406,490 -66,-153 -86,-383 -184,-474 162,-89 228,-296 344,-446 -270,46 -302,223 -534,318 -38,56 -275,-46 -411,-155 -204,-163 -396,-298 -440,-309 -227,-118 -666,-159 -1090,-93z"/>
   <path class="fil1" d="M2018 1176l0 0c11,-8 -90,-54 -9,-92 -5,-18 10,-25 44,-20 4,-19 19,-26 46,-20 2,-24 16,-30 44,-20 0,-23 13,-28 39,-18 -1,-19 13,-26 42,-19 0,-22 15,-28 45,-20 1,-19 5,-28 41,-25 -3,-15 4,-30 51,-16 2,-22 21,-31 58,-26 -10,-6 -16,-11 -21,-14 -140,12 -247,125 -433,191 -28,25 10,60 53,99z"/>
   <path class="fil2" d="M40 714c90,19 197,122 293,168 40,-3 41,-61 14,-116 -93,-31 -187,-38 -281,-93l-26 41z"/>
   <path class="fil3" d="M569 472c48,6 84,39 80,75 -5,36 -47,61 -96,55 -48,-6 -84,-40 -80,-76 5,-36 48,-60 96,-54zm-22 27c9,1 15,7 14,13 -1,6 -8,11 -17,10 -8,-1 -14,-7 -13,-14 0,-6 8,-10 16,-9z"/>
   <path class="fil4" d="M40 714c8,-14 17,-28 25,-41l-25 41zm529 -242c48,6 84,39 80,75 -5,36 -47,61 -96,55 -48,-6 -84,-40 -80,-76 5,-36 48,-60 96,-54zm-503 201c164,-255 333,-371 550,-439 424,-66 863,-25 1090,93 44,11 236,146 440,309 136,109 373,211 411,155 -165,179 -735,-543 -1407,-533 -462,6 -511,114 -220,115 22,0 19,42 38,61 41,42 94,92 87,177 -4,38 -51,67 -60,107 -6,24 -44,19 -22,71 22,52 -83,88 -108,131 -12,21 -19,66 -31,53 -2,-2 37,-75 39,-104 4,-48 8,-68 -10,-144 -21,-89 -8,-52 -62,-226 -15,-48 97,299 39,380 -9,12 -29,60 -6,58 22,-3 -3,30 0,36 10,19 27,16 -21,23 -13,1 -16,2 -14,14 1,8 -15,7 -25,9 -698,-127 -723,-233 -734,-305 90,19 197,122 293,168 40,-3 41,-61 14,-116 -93,-31 -187,-38 -281,-93z"/>
   <path class="fil1" d="M1116 192c22,-36 54,-70 96,-100 -22,23 -36,47 -40,72 30,-39 66,-73 112,-99 -4,14 -1,24 18,25 -4,16 1,23 17,22 -5,16 0,24 17,22 -6,15 -1,22 15,21 -5,15 0,21 15,19 1,18 22,29 33,44 -100,-15 -190,-24 -283,-26l0 0zm846 93l0 0c-29,28 -40,52 -31,70 -13,17 1,28 41,32 -4,21 9,31 38,30 -1,22 10,32 35,28 -5,15 7,25 37,29 -8,17 4,27 39,30 -2,20 11,30 39,31 -4,23 9,33 38,30 -6,22 6,30 33,26 -5,19 7,29 37,29 -5,21 8,31 38,30 -4,20 -1,29 34,34 -6,14 -3,31 46,29 -3,22 13,35 50,39 -27,7 -30,16 -50,8 -153,-71 -230,-251 -585,-420 69,3 118,-22 161,-55zm368 464l0 0c-27,-12 -53,-26 -79,-42 26,16 52,30 79,42zm-41 -7l0 0c-3,-2 -6,-3 -9,-5 3,2 6,3 9,5zm-19 -11c-4,-2 -8,-5 -12,-7 4,2 8,5 12,7zm-17 -11c-5,-2 -10,-5 -15,-8 5,3 10,6 15,8zm-17 -21c2,1 5,2 7,4 -2,-2 -5,-3 -7,-4zm-1046 -491l0 0 1 0 -1 0z"/>
   <path class="fil1" d="M572 456c60,8 103,49 98,93 -6,44 -58,74 -117,66 -59,-7 -103,-48 -98,-92 6,-44 58,-74 117,-67zm-3 16c48,6 84,39 80,75 -5,36 -47,61 -96,55 -48,-6 -84,-40 -80,-76 5,-36 48,-60 96,-54z"/>
   <path class="fil1" d="M504 559c-11,-32 7,-72 67,-66 48,-7 53,21 52,57 -8,35 -103,38 -119,9zm43 -60c9,1 15,7 14,13 -1,6 -8,11 -17,10 -8,-1 -14,-7 -13,-14 0,-6 8,-10 16,-9z"/>
   <path class="fil1" d="M2389 795c19,10 27,40 54,44 -27,-4 -36,17 -59,30 27,-20 30,-49 5,-74z"/>
   <path class="fil1" d="M2439 803c16,8 23,35 47,39 -24,-4 -32,14 -52,26 24,-18 26,-43 5,-65z"/>
   <path class="fil1" d="M2481 809c16,8 22,34 45,37 -23,-3 -30,14 -50,26 23,-18 26,-42 5,-63z"/>
   <path class="fil1" d="M2519 814c14,7 20,31 41,34 -21,-3 -27,13 -45,23 20,-16 23,-38 4,-57z"/>
   <path class="fil1" d="M2343 792c19,10 26,40 53,44 -27,-4 -35,17 -58,30 26,-20 29,-49 5,-74z"/>
   <path class="fil1" d="M2296 790c19,9 27,39 54,43 -27,-4 -36,17 -59,30 27,-20 30,-49 5,-73z"/>
   <path class="fil1" d="M2244 786c19,9 26,39 53,44 -27,-5 -35,16 -58,30 26,-21 29,-49 5,-74z"/>
   <path class="fil1" d="M2193 781c19,9 26,40 54,44 -28,-4 -36,17 -59,30 27,-21 29,-49 5,-74z"/>
   <path class="fil1" d="M2120 769c24,12 33,51 68,56 -35,-5 -46,21 -75,38 34,-26 38,-62 7,-94z"/>
   <path class="fil4" d="M1035 719c138,-132 545,-144 929,-81 -748,-58 -556,244 -871,179 167,-116 -95,-64 -58,-98z"/>
   <path class="fil1" d="M1717 632c83,10 168,23 251,40 -746,-86 -565,223 -877,146 3,-2 7,-5 10,-7 -3,2 -5,4 -8,6 274,57 164,-164 624,-185zm-568 127c-2,-20 -48,-22 -82,-26 35,3 84,4 82,26z"/>
  </g>
 </g>
</svg>
