<?xml version="1.0" encoding="UTF-8"?>
<!DOCTYPE svg PUBLIC "-//W3C//DTD SVG 1.1//EN" "http://www.w3.org/Graphics/SVG/1.1/DTD/svg11.dtd">
<!-- Creator: CorelDRAW X7 -->
<svg xmlns="http://www.w3.org/2000/svg" xml:space="preserve" width="3.02in" height="1.32in" version="1.1" style="shape-rendering:geometricPrecision; text-rendering:geometricPrecision; image-rendering:optimizeQuality; fill-rule:evenodd; clip-rule:evenodd"
viewBox="0 0 3020 1320"
 xmlns:xlink="http://www.w3.org/1999/xlink">
 <defs>
  <style type="text/css">
   <![CDATA[
    .fil1 {fill:#373435}
    .fil3 {fill:#FFCC29}
    .fil4 {fill:#6DADDE}
    .fil0 {fill:#3F8CC2}
    .fil2 {fill:#0076AC}
   ]]>
  </style>
 </defs>
 <g id="Layer_x0020_1">
  <metadata id="CorelCorpID_0Corel-Layer"/>
  <g id="_3025443636096">
   <path class="fil0" d="M2443 174c-416,-64 -604,-50 -980,22 -154,-28 -278,-106 -479,-76 98,53 156,165 294,159 -456,217 -445,452 -744,444 163,176 723,-535 1384,-525 454,7 502,112 216,114 -21,0 -18,41 -37,60 -40,41 -92,90 -85,174 3,37 50,66 59,105 6,24 42,19 21,70 -21,51 82,87 106,128 13,21 19,65 31,52 2,-2 -36,-73 -39,-102 -3,-47 -7,-66 11,-141 20,-88 7,-51 61,-223 15,-47 -96,295 -39,374 9,12 29,60 6,57 -22,-3 3,30 0,35 -10,19 -26,17 21,23 12,2 15,2 14,14 -1,7 14,7 24,9 -95,97 -227,189 -417,219 66,-108 162,-114 139,-148 -13,-18 -91,-27 -112,-30 -209,29 -505,2 -537,48 -93,97 -271,161 -376,157 25,-70 180,-145 131,-189 -233,-83 -341,-242 -550,-171 -136,141 -138,347 -399,482 64,-151 84,-377 180,-467 -159,-87 -224,-291 -337,-438 265,45 297,219 524,313 38,55 271,-45 405,-153 200,-160 389,-292 433,-304 223,-115 655,-156 1071,-92z"/>
   <path class="fil1" d="M1065 1101l0 0c-11,-8 88,-53 9,-90 4,-18 -11,-25 -44,-20 -4,-19 -18,-26 -45,-20 -2,-23 -16,-29 -43,-20 0,-21 -13,-27 -38,-17 1,-19 -13,-25 -42,-19 0,-21 -15,-27 -44,-19 -1,-19 -6,-28 -40,-25 3,-14 -4,-30 -50,-16 -3,-21 -22,-30 -57,-26 9,-5 15,-10 20,-13 137,12 243,123 425,188 28,25 -9,59 -51,97z"/>
   <path class="fil2" d="M3010 647c-89,18 -194,120 -288,166 -39,-4 -40,-60 -14,-115 92,-31 184,-37 276,-92l26 41z"/>
   <path class="fil3" d="M2490 409c-48,5 -83,39 -79,74 4,36 47,60 94,54 48,-6 83,-40 79,-75 -5,-35 -47,-59 -94,-53zm21 26c-8,2 -14,7 -14,13 1,7 9,11 17,10 8,-1 14,-7 13,-13 0,-6 -8,-11 -16,-10z"/>
   <path class="fil4" d="M3010 647c-8,-14 -17,-27 -25,-40l25 40zm-520 -238c-48,5 -83,39 -79,74 4,36 47,60 94,54 48,-6 83,-40 79,-75 -5,-35 -47,-59 -94,-53zm494 197c-161,-250 -327,-364 -541,-432 -416,-64 -848,-23 -1071,92 -44,12 -233,144 -433,304 -134,108 -367,208 -405,153 163,176 723,-535 1384,-525 454,7 502,112 216,114 -21,0 -18,41 -37,60 -40,41 -92,90 -85,174 3,37 50,66 59,105 6,24 42,19 21,70 -21,51 82,87 106,128 13,21 19,65 31,52 2,-2 -36,-73 -39,-102 -3,-47 -7,-66 11,-141 20,-88 7,-51 61,-223 15,-47 -96,295 -39,374 9,12 29,60 6,57 -22,-3 3,30 0,35 -10,19 -26,17 21,23 12,2 15,2 14,14 -1,7 14,7 24,9 686,-125 711,-229 722,-300 -89,18 -194,120 -288,166 -39,-4 -40,-60 -14,-115 92,-31 184,-37 276,-92z"/>
   <path class="fil1" d="M1952 134c-22,-36 -54,-69 -95,-99 22,23 36,46 39,71 -29,-38 -64,-72 -109,-97 4,13 1,23 -19,24 5,16 0,23 -16,22 5,16 0,23 -17,22 6,14 1,21 -15,20 6,15 1,21 -14,18 -1,19 -22,30 -33,44 99,-15 187,-23 279,-25l0 0zm-832 91l-1 0c30,28 40,51 31,69 13,17 0,27 -40,32 3,20 -9,30 -37,29 0,22 -10,32 -35,27 5,15 -7,25 -36,29 8,16 -5,26 -38,30 1,19 -12,29 -39,30 4,22 -9,32 -37,29 5,22 -6,30 -33,26 6,19 -7,28 -36,29 5,20 -8,30 -38,29 4,19 1,29 -33,34 6,13 3,30 -45,28 3,21 -13,34 -49,38 27,8 29,16 49,8 150,-70 226,-247 575,-413 -68,3 -116,-22 -158,-54zm-362 457l0 0c26,-13 52,-27 78,-41 -26,14 -52,28 -78,41zm40 -7l0 0c3,-2 6,-4 9,-6 -3,2 -6,4 -9,6zm18 -11c4,-3 8,-5 13,-7 -5,2 -9,4 -13,7zm18 -11c5,-3 9,-5 14,-8 -5,3 -9,5 -14,8zm16 -21c-2,1 -4,3 -7,4 3,-1 5,-3 7,-4zm1029 -483l0 0 -1 0 1 0z"/>
   <path class="fil1" d="M2486 394c-58,7 -101,47 -95,91 5,43 56,72 115,65 58,-7 101,-48 95,-91 -5,-43 -56,-73 -115,-65zm4 15c-48,5 -83,39 -79,74 4,36 47,60 94,54 48,-6 83,-40 79,-75 -5,-35 -47,-59 -94,-53z"/>
   <path class="fil1" d="M2553 494c11,-31 -6,-70 -66,-64 -47,-7 -51,20 -51,56 8,34 101,37 117,8zm-42 -59c-8,2 -14,7 -14,13 1,7 9,11 17,10 8,-1 14,-7 13,-13 0,-6 -8,-11 -16,-10z"/>
   <path class="fil1" d="M700 727c-19,9 -26,39 -53,43 27,-4 35,17 57,30 -26,-21 -29,-49 -4,-73z"/>
   <path class="fil1" d="M651 734c-17,8 -23,35 -47,38 24,-3 31,15 51,27 -23,-18 -25,-43 -4,-65z"/>
   <path class="fil1" d="M610 740c-16,8 -22,33 -45,37 23,-4 30,14 49,25 -22,-17 -25,-41 -4,-62z"/>
   <path class="fil1" d="M572 745c-14,7 -20,31 -41,34 21,-3 28,13 45,23 -20,-16 -22,-38 -4,-57z"/>
   <path class="fil1" d="M745 724c-18,9 -26,39 -52,43 26,-4 35,17 57,30 -26,-21 -29,-49 -5,-73z"/>
   <path class="fil1" d="M791 721c-19,9 -26,39 -53,43 27,-4 35,17 58,30 -26,-20 -29,-49 -5,-73z"/>
   <path class="fil1" d="M843 718c-19,9 -26,39 -53,43 27,-4 35,16 57,29 -26,-20 -28,-48 -4,-72z"/>
   <path class="fil1" d="M893 713c-19,9 -26,39 -53,43 27,-4 35,16 57,29 -26,-20 -29,-48 -4,-72z"/>
   <path class="fil1" d="M965 701c-24,12 -33,50 -67,55 34,-5 44,21 73,38 -33,-26 -37,-62 -6,-93z"/>
   <path class="fil4" d="M2031 651c-135,-129 -536,-140 -913,-79 736,-57 547,240 856,176 -164,-114 94,-63 57,-97z"/>
   <path class="fil1" d="M1361 567c-82,9 -165,22 -247,38 733,-84 556,220 862,144 -3,-2 -6,-4 -10,-7 3,2 6,4 8,6 -269,56 -161,-161 -613,-181zm558 125c2,-20 48,-23 81,-26 -35,2 -83,3 -81,26z"/>
  </g>
 </g>
</svg>
