<?xml version="1.0" encoding="UTF-8"?>
<!DOCTYPE svg PUBLIC "-//W3C//DTD SVG 1.1//EN" "http://www.w3.org/Graphics/SVG/1.1/DTD/svg11.dtd">
<!-- Creator: CorelDRAW X7 -->
<svg xmlns="http://www.w3.org/2000/svg" xml:space="preserve" width="8in" height="5in" version="1.1" style="shape-rendering:geometricPrecision; text-rendering:geometricPrecision; image-rendering:optimizeQuality; fill-rule:evenodd; clip-rule:evenodd"
viewBox="0 0 8000 5000"
 xmlns:xlink="http://www.w3.org/1999/xlink">
 <defs>
  <style type="text/css">
   <![CDATA[
    .str0 {stroke:black;stroke-width:3}
    .fil4 {fill:#FEFEFE}
    .fil3 {fill:#FEFEFE}
    .fil7 {fill:#373435}
    .fil0 {fill:white}
    .fil5 {fill:url(#id0)}
    .fil6 {fill:url(#id1)}
    .fil9 {fill:url(#id2)}
    .fil8 {fill:url(#id3)}
    .fil10 {fill:url(#id4)}
    .fil1 {fill:url(#id5)}
    .fil2 {fill:url(#id6)}
   ]]>
  </style>
  <linearGradient id="id0" gradientUnits="userSpaceOnUse" x1="1751.33" y1="2842.49" x2="1756.5" y2="3068.7">
   <stop offset="0" style="stop-opacity:1; stop-color:#F58634"/>
   <stop offset="1" style="stop-opacity:1; stop-color:#FFF212"/>
  </linearGradient>
  <linearGradient id="id1" gradientUnits="userSpaceOnUse" xlink:href="#id0" x1="2009.72" y1="2699.13" x2="1631.56" y2="2723.19">
  </linearGradient>
  <linearGradient id="id2" gradientUnits="userSpaceOnUse" x1="1526.77" y1="2698.49" x2="1882.22" y2="2705.09">
   <stop offset="0" style="stop-opacity:1; stop-color:#F58634"/>
   <stop offset="0.501961" style="stop-opacity:1; stop-color:#F58536"/>
   <stop offset="1" style="stop-opacity:1; stop-color:#EC268F"/>
  </linearGradient>
  <radialGradient id="id3" gradientUnits="userSpaceOnUse" gradientTransform="matrix(0.897597 1.14569 -1.14573 0.89763 3284 -1943)" cx="1936.96" cy="2693.06" r="54.7874" fx="1936.96" fy="2693.06">
   <stop offset="0" style="stop-opacity:1; stop-color:#373435"/>
   <stop offset="0.380392" style="stop-opacity:1; stop-color:#373435"/>
   <stop offset="1" style="stop-opacity:1; stop-color:#718FC8"/>
  </radialGradient>
  <radialGradient id="id4" gradientUnits="userSpaceOnUse" gradientTransform="matrix(-0.604523 1.23897 -1.23894 -0.60451 5902 2380)" xlink:href="#id3" cx="1586.89" cy="2708.56" r="54.8701" fx="1586.89" fy="2708.56">
  </radialGradient>
  <radialGradient id="id5" gradientUnits="userSpaceOnUse" gradientTransform="matrix(-1.77078 -2.25997 2.25997 -1.77078 4538 15337)" cx="3694.8" cy="2521.75" r="1433.68" fx="3694.8" fy="2521.75">
   <stop offset="0" style="stop-opacity:1; stop-color:#3E4095"/>
   <stop offset="0.290196" style="stop-opacity:1; stop-color:#3E4095"/>
   <stop offset="0.388235" style="stop-opacity:1; stop-color:#91D8F7"/>
   <stop offset="0.431373" style="stop-opacity:1; stop-color:#A8CF45"/>
   <stop offset="0.458824" style="stop-opacity:1; stop-color:#EDEB77"/>
   <stop offset="0.521569" style="stop-opacity:1; stop-color:#FEFEFE"/>
   <stop offset="0.560784" style="stop-opacity:1; stop-color:#FFF9BC"/>
   <stop offset="0.580392" style="stop-opacity:1; stop-color:#FFF688"/>
   <stop offset="0.6" style="stop-opacity:1; stop-color:#A8CF45"/>
   <stop offset="0.65098" style="stop-opacity:1; stop-color:#91D8F7"/>
   <stop offset="0.74902" style="stop-opacity:1; stop-color:#3E4095"/>
   <stop offset="1" style="stop-opacity:1; stop-color:#3E4095"/>
  </radialGradient>
  <radialGradient id="id6" gradientUnits="userSpaceOnUse" gradientTransform="matrix(-1.68301 -2.14797 2.14797 -1.68301 -3145 8557)" cx="841.638" cy="2515.45" r="1791.51" fx="841.638" fy="2515.45">
   <stop offset="0" style="stop-opacity:1; stop-color:#FFF688"/>
   <stop offset="0.14902" style="stop-opacity:1; stop-color:#FFCC29"/>
   <stop offset="0.321569" style="stop-opacity:1; stop-color:#ED3237"/>
   <stop offset="0.631373" style="stop-opacity:1; stop-color:#A8518A"/>
   <stop offset="0.831373" style="stop-opacity:1; stop-color:#7A75B5"/>
   <stop offset="0.909804" style="stop-opacity:1; stop-color:#3D3B3D"/>
   <stop offset="1" style="stop-opacity:1; stop-color:#373435"/>
  </radialGradient>
 </defs>
 <g id="Layer_x0020_1">
  <metadata id="CorelCorpID_0Corel-Layer"/>
  <g id="_1267655600800">
   <path class="fil0 str0" d="M6579 2539c123,155 196,350 254,556 206,-223 325,-471 317,-755 79,38 90,151 34,336 138,-189 272,-240 406,-299 -138,96 -268,196 -339,324 112,-141 254,-137 389,-162 -127,44 -246,29 -390,210 153,-54 233,-23 328,-9 -95,6 -155,-26 -329,67 205,12 223,32 278,50 -82,-3 -153,-14 -276,15 -84,73 -130,79 -169,76 -72,42 -150,262 -223,428 -20,27 -45,42 -61,11 -26,-66 -32,-135 -68,-192 -140,632 -207,573 -385,785 63,-15 132,-37 193,-42 85,-1 99,20 41,63 -91,100 -422,292 -362,332 263,-68 488,-213 674,-433 10,56 -56,130 -191,248 316,-53 456,35 528,157 -153,-120 -323,-161 -502,-94 159,33 267,93 350,194 -108,-61 -242,-136 -386,-144 122,56 204,163 249,261 -87,-93 -177,-182 -292,-201 80,68 111,150 127,235 -48,-84 -90,-172 -219,-182 -55,12 -117,13 -188,4 -132,23 -241,87 -357,142 -47,9 -79,16 -46,-47 37,-76 96,-161 154,-254 -400,157 -819,270 -1318,172 69,-111 -224,-156 -155,-267 299,27 791,-153 780,-423 4,-30 -11,-55 -66,-73 -89,33 -187,53 -300,44 -57,15 -36,-27 -22,-49 98,-127 149,-245 153,-368 1,-38 8,-81 10,-123 -36,-137 -129,-230 -224,-322 125,47 216,140 284,265 -21,-166 -86,-306 -195,-420 118,92 219,199 262,359 -5,-184 -76,-329 -158,-470 86,127 189,234 210,438 38,-188 -5,-372 -72,-555 98,149 169,320 104,597 62,-118 135,-93 206,-104 -204,109 -287,291 -344,489 0,49 24,62 70,41 96,-53 192,-106 288,-158 57,-35 70,-5 76,36 10,66 -14,144 -44,225 141,-92 149,-282 300,-560 -103,2 -173,125 -257,115 -37,1 -43,-14 -43,-43 -17,-149 98,-345 39,-479 -60,-100 -160,-155 -292,-173 70,-52 152,-25 298,75 -43,-109 -133,-232 -325,-293 86,20 148,1 332,180 -32,-131 -112,-248 -214,-358 121,56 222,139 255,332 62,-129 55,-280 -25,-417 93,80 109,245 97,440 34,-149 103,-177 178,-187 -177,246 -198,565 -181,648 49,-3 281,-328 424,-313 110,6 220,12 330,19z"/>
   <path class="fil0 str0" d="M6288 1927c-83,228 -162,253 -88,453 37,70 50,125 45,166 -24,1580 -1363,1888 -2185,1355 -1034,-669 -827,-1943 -232,-2505 403,-382 1067,-529 1646,-325 315,110 528,288 836,671 -266,-403 -460,-604 -771,-738 -599,-259 -1339,-129 -1807,269 -786,666 -911,2105 163,2872 1024,731 2873,152 2669,-1649 -4,-30 -4,-90 19,-141 91,-129 -56,-290 -128,-451 -35,-76 -117,-59 -167,23z"/>
   <path class="fil0 str0" d="M3296 3147c-50,23 -71,82 -48,131 23,49 82,70 131,47 49,-23 70,-82 47,-131 -23,-49 -81,-70 -130,-47zm22 49c23,-11 49,-1 60,21 10,22 0,49 -22,59 -22,11 -49,1 -59,-21 -11,-22 -1,-49 21,-59z"/>
   <path class="fil0 str0" d="M4842 4186c-60,28 -86,99 -58,159 28,60 100,86 160,58 59,-28 85,-99 57,-159 -28,-60 -99,-86 -159,-58zm28 59c27,-12 59,-1 72,26 12,28 1,60 -26,73 -27,12 -60,1 -73,-26 -12,-28 -1,-60 27,-73z"/>
   <path class="fil0 str0" d="M4217 4071c-59,28 -85,100 -57,160 28,60 99,85 159,57 60,-28 86,-99 58,-159 -28,-60 -100,-86 -160,-58zm28 60c27,-13 60,-2 73,26 12,27 1,59 -27,72 -27,13 -59,1 -72,-26 -13,-27 -1,-60 26,-72z"/>
   <path class="fil0 str0" d="M3643 3670c-56,26 -81,93 -54,149 26,56 93,80 149,54 56,-26 81,-93 54,-149 -26,-56 -93,-81 -149,-54zm26 55c25,-12 56,-1 68,25 11,25 1,55 -25,67 -25,12 -56,1 -68,-24 -11,-25 -1,-56 25,-68z"/>
   <path class="fil0 str0" d="M3200 2391c-42,20 -60,70 -40,112 20,42 70,60 112,40 42,-19 60,-69 40,-111 -20,-42 -70,-61 -112,-41zm20 42c19,-9 41,-1 50,18 9,19 1,42 -18,51 -19,9 -42,0 -51,-19 -8,-19 0,-41 19,-50z"/>
   <g>
    <path class="fil0 str0" d="M6455 2447c-21,-26 -59,-32 -85,-12 -25,20 -29,58 -8,85 21,27 59,32 84,12 26,-20 30,-58 9,-85zm-27 22c-10,-12 -27,-14 -38,-5 -12,9 -14,26 -5,38 9,12 26,14 38,5 12,-10 14,-27 5,-38z"/>
    <path class="fil0 str0" d="M6421 2252c-9,-12 -26,-14 -37,-6 -11,9 -12,25 -3,37 9,12 25,14 36,5 11,-9 13,-25 4,-36zm-12 9c-4,-5 -11,-6 -16,-2 -5,4 -6,11 -2,16 4,5 11,6 16,2 5,-4 6,-11 2,-16z"/>
    <path class="fil0 str0" d="M6404 2144c-4,-6 -13,-7 -18,-2 -6,4 -6,12 -2,18 5,6 13,7 18,2 6,-4 7,-12 2,-18zm-6 5c-2,-3 -5,-3 -8,-1 -2,2 -3,5 -1,8 2,2 6,3 8,1 3,-2 3,-6 1,-8z"/>
    <path class="fil0 str0" d="M6466 1933c-8,-25 -24,-59 -37,-66 -19,-12 -40,-20 -65,-13 -50,13 -55,38 -74,66 6,22 43,22 51,18 16,-9 -9,-47 -22,-41 -5,2 -14,13 -12,16 0,1 3,4 5,6 3,1 7,1 9,1 7,-1 8,-7 2,-9 -5,-1 -10,-1 -8,-2 1,0 -1,-4 1,-6 1,-2 6,-2 7,-2 7,1 12,11 12,12 -1,19 -45,9 -31,-7 11,-12 15,-16 22,-12 16,8 29,26 38,49 24,61 23,155 29,193 1,-30 1,-133 -4,-196 -4,-50 79,-47 62,-9 -1,2 -5,4 -9,4 -3,0 -7,-2 -8,-3 -3,-3 -7,-7 -7,-10 -4,-13 8,-15 12,-11 5,5 -5,7 -4,10 1,3 6,11 10,10 3,-2 6,-8 5,-12 -2,-4 -13,-23 -33,-7 -8,6 -7,23 0,31 8,9 47,0 49,-10z"/>
    <path class="fil0 str0" d="M6225 2116c-1,1 0,28 -1,29 -36,39 -71,108 22,179 9,-3 14,-12 21,-13 13,-1 27,13 17,22 0,1 -1,2 -2,3 0,1 -17,7 -26,20 -4,6 -7,13 -8,19 -7,30 38,57 46,56 15,-2 27,4 32,17 7,18 2,44 3,43 6,-8 7,-67 -26,-64 -23,3 -57,-28 -53,-52 2,-7 6,-14 10,-19 7,-9 18,-9 18,-9 -1,9 -1,20 3,30 7,22 25,39 34,34 -4,2 -15,-6 -26,-24 -1,-2 -3,-7 -1,-5 10,10 24,-1 26,-6 1,-1 -7,6 -13,7 -8,2 -15,-4 -17,-11 0,-2 0,-4 -1,-6 -1,-12 2,-22 8,-25 18,-11 -3,-42 -1,-55 11,-14 24,-17 32,-7 3,4 3,7 2,9 0,1 -2,4 -3,4 -15,5 -19,8 -19,15 0,13 12,22 19,26 5,2 25,5 33,2 19,-5 19,-22 18,-20 -1,2 -5,10 -12,14 -8,5 -20,7 -32,4 -7,-2 -17,-11 -21,-18 -6,-8 -2,-18 14,-19 4,0 7,-1 9,-4 2,-4 2,-10 -3,-16 -8,-12 -27,-22 -38,-41 -2,-4 -3,-8 -4,-11 2,-19 25,-19 32,-6 3,4 -3,15 -9,11 0,0 -4,-3 -5,-5 0,-3 4,-7 5,-7 1,0 4,0 5,2 4,5 -2,9 -4,5 -1,-1 -2,-3 1,-5 0,-1 -4,2 -2,5 0,2 3,4 6,2 2,-2 2,-5 1,-7 -1,-1 -2,-3 -4,-4 -6,-2 -12,7 -8,12 1,1 1,2 3,3 3,2 4,2 4,2 3,1 8,-2 10,-4 2,-3 2,-8 2,-9 -2,-12 -16,-27 -40,-35 -24,-7 -42,-39 -47,-61 -3,-15 -2,-31 0,-43 14,-75 66,-56 94,-79 45,-36 17,-71 23,-62 2,4 20,22 -24,60 -21,18 -66,16 -85,46 -20,32 -26,80 -3,102 34,36 42,76 43,86 2,35 -21,71 -19,64 1,-2 18,-39 13,-72 -2,-12 -6,-24 -11,-34 -10,-23 -29,-39 -30,-40 -3,-2 0,-2 -2,-4 -10,-9 -7,-30 -9,-31z"/>
    <path class="fil0 str0" d="M6244 2307c52,-91 18,-98 -10,-139 -2,-3 -7,-1 -9,-5 -2,1 -1,5 -3,6 -40,25 -50,104 22,138z"/>
    <ellipse class="fil0 str0" transform="matrix(-0.173964 -1.48087 -1.48087 0.173964 6230.55 2235.17)" rx="37" ry="23"/>
    <path class="fil0 str0" d="M6252 2233c12,-25 -12,-40 -20,-38 7,5 25,24 20,38z"/>
    <path class="fil0 str0" d="M6531 2105c2,1 6,28 7,29 44,30 93,91 16,179 -9,-1 -16,-9 -23,-8 -13,2 -24,18 -12,25 1,0 2,1 3,2 0,1 18,3 29,14 5,5 10,12 12,18 13,27 -25,63 -33,64 -16,1 -26,10 -28,23 -3,19 8,44 7,43 -9,-6 -22,-65 12,-68 22,-2 49,-40 40,-62 -3,-7 -9,-12 -14,-17 -8,-7 -19,-5 -19,-4 3,8 5,19 4,30 -3,22 -17,43 -28,39 5,2 15,-8 21,-28 1,-2 2,-8 1,-6 -8,13 -24,5 -27,0 -1,-1 8,5 14,5 8,-1 13,-8 14,-15 0,-2 0,-4 0,-6 -2,-12 -7,-22 -13,-23 -20,-7 -6,-41 -10,-54 -14,-11 -27,-11 -33,0 -3,5 -2,7 -1,9 1,1 3,3 4,3 16,2 20,4 22,12 3,11 -7,23 -13,28 -4,4 -23,10 -32,10 -20,-2 -23,-18 -22,-17 1,3 7,9 15,12 9,3 21,2 32,-3 6,-4 14,-14 17,-22 3,-9 -2,-18 -18,-16 -4,1 -7,1 -9,-2 -3,-3 -4,-9 -1,-16 5,-14 22,-27 28,-48 2,-5 2,-8 2,-11 -5,-19 -28,-14 -33,0 -1,5 7,14 12,9 0,0 3,-3 3,-6 0,-3 -5,-6 -6,-6 0,0 -4,1 -5,4 -2,5 4,8 6,3 0,-1 1,-3 -2,-5 0,0 4,2 3,5 0,2 -2,4 -5,3 -4,-1 -4,-5 -3,-6 0,-2 2,-4 3,-5 6,-3 13,5 10,10 0,1 0,2 -2,4 -2,2 -3,2 -4,3 -2,1 -8,-1 -10,-3 -2,-2 -3,-7 -3,-7 -1,-13 9,-31 31,-43 22,-12 33,-47 33,-70 0,-15 -4,-30 -9,-42 -29,-70 -56,-52 -89,-68 -51,-26 -16,-76 -20,-65 -1,4 -30,34 21,62 25,13 48,13 73,39 26,27 42,72 25,99 -27,42 -26,83 -25,93 6,34 35,65 32,59 -1,-2 -25,-35 -27,-68 -1,-13 1,-25 3,-36 5,-24 20,-44 21,-45 2,-3 0,-3 1,-5 8,-11 1,-30 2,-32z"/>
    <path class="fil0 str0" d="M6553 2296c-70,-79 -39,-92 -20,-138 2,-3 7,-3 8,-7 2,1 2,5 4,6 45,15 71,91 8,139z"/>
    <ellipse class="fil0 str0" transform="matrix(-0.139395 -1.48452 1.48452 -0.139395 6550.86 2222.96)" rx="37" ry="23"/>
    <path class="fil0 str0" d="M6529 2226c-16,-23 4,-43 12,-42 -6,6 -19,29 -12,42z"/>
    <path class="fil0 str0" d="M5402 4073c-67,32 -96,112 -65,180 32,67 112,96 179,64 68,-31 97,-111 65,-179 -31,-67 -112,-96 -179,-65zm31 67c31,-14 67,-1 81,30 15,30 2,66 -29,81 -30,14 -67,1 -81,-30 -14,-30 -1,-67 29,-81z"/>
    <path class="fil0 str0" d="M5840 3768c-79,37 -113,131 -76,210 37,79 131,113 210,76 79,-37 113,-131 76,-210 -37,-79 -131,-113 -210,-76zm36 78c36,-17 79,-1 95,34 17,36 2,79 -34,95 -36,17 -78,2 -95,-34 -17,-36 -1,-78 34,-95z"/>
    <path class="fil0 str0" d="M6377 2666c-47,23 -67,79 -45,126 22,47 78,67 126,45 47,-22 67,-78 45,-125 -22,-47 -78,-68 -126,-46zm22 47c22,-10 47,-1 57,21 10,21 1,47 -20,57 -22,10 -47,0 -57,-21 -10,-21 -1,-47 20,-57z"/>
    <path class="fil0 str0" d="M6303 2956c-72,34 -102,119 -69,190 34,71 118,102 190,69 71,-34 102,-119 68,-190 -33,-71 -118,-102 -189,-69zm33 71c32,-15 71,-1 86,31 15,32 1,71 -31,86 -33,15 -71,1 -86,-31 -15,-32 -1,-71 31,-86z"/>
    <path class="fil0 str0" d="M6152 3376c-78,37 -112,130 -75,209 37,79 131,113 209,76 79,-37 113,-131 76,-210 -37,-78 -131,-112 -210,-75zm37 78c36,-17 78,-2 95,34 17,36 2,78 -34,95 -36,17 -78,2 -95,-34 -17,-36 -2,-79 34,-95z"/>
    <path class="fil0 str0" d="M5561 1035c-16,7 -23,26 -15,41 7,16 26,23 41,15 16,-7 23,-26 15,-41 -7,-16 -26,-23 -41,-15zm7 15c7,-3 16,0 19,7 3,7 0,16 -7,19 -7,3 -15,0 -19,-7 -3,-7 0,-16 7,-19z"/>
    <path class="fil0 str0" d="M5199 917c-19,9 -28,32 -19,51 9,20 33,28 52,19 19,-9 28,-32 19,-52 -10,-19 -33,-28 -52,-18zm9 19c9,-4 19,-1 23,8 4,9 1,20 -8,24 -9,4 -19,0 -23,-9 -5,-9 -1,-19 8,-23z"/>
    <path class="fil0 str0" d="M4721 892c-20,10 -29,34 -20,54 10,21 34,30 55,20 20,-9 29,-34 19,-54 -9,-21 -34,-29 -54,-20zm9 20c10,-4 21,0 25,9 4,10 0,21 -9,25 -9,4 -20,0 -24,-9 -5,-9 -1,-20 8,-25z"/>
    <path class="fil0 str0" d="M4020 1086c-30,15 -44,51 -29,82 14,30 51,43 81,29 31,-14 44,-51 30,-81 -15,-31 -51,-44 -82,-30zm14 31c14,-7 31,-1 37,13 7,14 1,30 -13,37 -14,6 -30,0 -37,-14 -6,-13 0,-30 13,-36z"/>
    <path class="fil0 str0" d="M3418 1677c-38,18 -55,63 -37,102 18,38 64,54 102,36 39,-17 55,-63 37,-102 -18,-38 -64,-54 -102,-36zm18 38c17,-9 38,-1 46,16 8,18 1,38 -17,46 -17,9 -38,1 -46,-16 -8,-18 0,-38 17,-46z"/>
    <path class="fil0 str0" d="M5834 1207c-8,4 -12,13 -8,21 4,8 13,11 21,7 8,-3 11,-13 7,-20 -3,-8 -13,-12 -20,-8zm3 8c4,-2 8,0 10,3 1,4 0,8 -4,10 -3,1 -7,0 -9,-4 -2,-3 0,-8 3,-9z"/>
   </g>
  </g>
  <g id="_1267743356128">
   <path class="fil1" d="M1573 2387c-123,-155 -195,-350 -254,-556 -206,223 -325,471 -317,755 -78,-38 -90,-151 -34,-336 -138,189 -272,240 -406,299 138,-96 268,-196 339,-324 -112,141 -253,137 -389,162 127,-44 247,-29 390,-210 -153,54 -233,23 -328,9 95,-6 155,26 330,-67 -206,-12 -223,-32 -278,-50 81,3 152,14 275,-15 84,-73 130,-79 170,-76 71,-42 149,-262 222,-428 20,-27 45,-42 61,-11 26,66 32,135 68,192 140,-632 207,-573 385,-785 -63,15 -131,37 -193,42 -85,1 -99,-20 -40,-63 90,-100 421,-292 361,-332 -263,68 -487,213 -674,433 -10,-55 56,-130 191,-248 -316,53 -456,-35 -527,-157 152,120 322,161 501,95 -159,-34 -266,-94 -350,-195 108,61 243,137 386,144 -122,-56 -203,-163 -248,-261 87,93 176,182 291,201 -80,-68 -110,-150 -127,-235 48,84 90,172 219,182 55,-11 118,-13 188,-4 132,-23 241,-87 357,-142 48,-9 79,-16 46,47 -36,76 -96,161 -154,254 400,-157 820,-270 1318,-172 -69,111 77,111 8,223 -222,75 -634,199 -633,467 -4,30 11,55 66,73 90,-33 187,-53 300,-44 57,-15 37,27 23,49 -99,127 -149,246 -154,368 -1,38 -8,81 -9,123 36,137 128,230 223,322 -125,-47 -216,-140 -284,-265 22,166 87,306 196,420 -118,-92 -220,-199 -262,-359 4,184 76,329 157,470 -86,-127 -189,-234 -209,-438 -39,188 5,372 72,555 -99,-149 -170,-320 -105,-597 -62,118 -135,93 -205,104 203,-109 286,-291 343,-489 0,-49 -23,-62 -70,-41 -96,53 -192,106 -287,158 -58,35 -70,5 -76,-36 -11,-66 14,-144 43,-225 -141,92 -149,282 -300,560 103,-2 173,-125 257,-115 37,-1 43,14 43,43 18,149 -98,345 -39,479 61,100 160,155 292,173 -70,52 -151,25 -298,-75 43,109 133,232 325,293 -86,-20 -148,-1 -332,-180 33,131 113,248 214,358 -121,-56 -222,-139 -254,-332 -62,129 -56,280 24,417 -93,-80 -108,-245 -97,-440 -34,149 -103,177 -178,187 178,-246 198,-565 181,-648 -49,3 -281,329 -424,313 -110,-6 -220,-12 -330,-19z"/>
   <path class="fil2" d="M1864 2999c83,-228 162,-252 88,-453 -36,-70 -50,-125 -44,-166 23,-1580 1362,-1888 2185,-1355 1033,669 827,1943 232,2505 -403,382 -1067,529 -1647,325 -314,-110 -528,-288 -836,-671 266,403 460,604 771,738 600,259 1339,129 1808,-269 785,-666 910,-2105 -164,-2872 -1023,-731 -2872,-152 -2669,1649 4,30 4,90 -18,141 -91,129 55,290 128,451 34,76 116,59 166,-23z"/>
   <path class="fil3" d="M4857 1779c49,-23 70,-81 47,-131 -23,-49 -82,-70 -131,-47 -49,23 -70,82 -47,131 23,49 82,70 131,47zm-23 -49c-22,11 -49,1 -59,-21 -11,-22 -1,-49 21,-59 22,-11 49,-1 59,21 11,22 1,49 -21,59z"/>
   <path class="fil3" d="M3311 740c59,-28 85,-99 57,-159 -28,-60 -99,-86 -159,-58 -60,28 -86,99 -58,159 28,60 100,86 160,58zm-28 -59c-27,12 -60,1 -73,-26 -12,-28 -1,-60 27,-73 27,-12 59,-1 72,26 13,28 1,60 -26,73z"/>
   <path class="fil3" d="M3935 855c60,-28 86,-100 57,-160 -28,-59 -99,-85 -159,-57 -60,28 -86,99 -58,159 28,60 100,86 160,58zm-28 -59c-27,12 -60,1 -72,-27 -13,-27 -1,-59 26,-72 27,-13 59,-1 72,26 13,27 1,60 -26,73z"/>
   <path class="fil3" d="M4509 1256c57,-26 81,-93 54,-149 -26,-56 -93,-80 -149,-54 -56,26 -80,93 -54,149 26,57 93,81 149,54zm-26 -55c-25,12 -55,1 -67,-25 -12,-25 -1,-55 24,-67 26,-12 56,-1 68,24 12,26 1,56 -25,68z"/>
   <path class="fil3" d="M4952 2535c42,-20 60,-70 40,-112 -19,-42 -69,-60 -111,-40 -42,19 -60,70 -41,112 20,42 70,60 112,40zm-19 -42c-19,9 -42,1 -51,-18 -9,-19 -1,-42 18,-51 19,-8 42,0 51,19 9,19 1,41 -18,50z"/>
   <g>
    <path class="fil4" d="M1698 2479c20,27 58,32 84,12 26,-20 29,-58 9,-85 -21,-27 -59,-32 -85,-12 -26,20 -29,58 -8,85zm27 -21c9,11 26,13 38,4 11,-9 13,-26 4,-38 -9,-12 -26,-14 -38,-4 -12,9 -14,26 -4,38z"/>
    <path class="fil4" d="M1731 2675c9,11 26,13 37,5 11,-9 13,-25 4,-37 -9,-11 -26,-14 -37,-5 -11,9 -13,25 -4,37zm12 -10c4,5 11,6 17,2 5,-4 6,-11 2,-16 -4,-5 -12,-6 -17,-2 -5,4 -6,11 -2,16z"/>
    <path class="fil4" d="M1748 2782c5,6 13,7 18,3 6,-5 7,-13 2,-19 -4,-6 -12,-7 -18,-2 -6,4 -6,12 -2,18zm6 -5c2,3 6,3 8,1 3,-2 3,-5 1,-8 -2,-2 -5,-3 -8,-1 -3,2 -3,6 -1,8z"/>
    <path class="fil5" d="M1686 2993c8,25 24,59 37,66 19,12 41,20 65,13 50,-13 56,-38 75,-66 -7,-22 -44,-22 -51,-18 -17,9 8,47 22,41 4,-2 13,-13 11,-16 0,-1 -2,-4 -4,-5 -4,-2 -7,-2 -10,-2 -6,1 -8,7 -1,9 4,1 9,1 7,2 -1,0 1,4 0,6 -2,2 -7,2 -8,2 -7,-1 -12,-11 -12,-12 1,-19 45,-9 31,7 -11,12 -15,16 -21,12 -17,-8 -29,-26 -39,-49 -24,-61 -23,-155 -29,-193 0,30 0,133 4,196 4,50 -79,47 -62,9 1,-1 5,-4 9,-4 3,0 7,2 8,3 4,3 7,7 8,10 3,13 -9,15 -13,11 -5,-4 6,-7 4,-10 0,-3 -5,-11 -9,-10 -4,2 -7,8 -5,12 1,4 13,23 33,8 7,-7 7,-24 -1,-32 -7,-9 -47,0 -49,10z"/>
    <path class="fil6" d="M1927 2810c1,-1 0,-28 1,-29 37,-39 72,-108 -22,-179 -9,3 -14,12 -21,13 -13,1 -27,-13 -17,-22 1,-1 2,-2 2,-3 1,-1 18,-7 26,-20 4,-6 7,-13 9,-19 7,-30 -39,-57 -47,-56 -15,2 -27,-4 -32,-17 -6,-18 -1,-44 -2,-43 -7,8 -8,67 26,64 22,-3 57,28 52,52 -2,7 -6,14 -10,19 -7,9 -18,9 -18,9 2,-9 1,-20 -2,-30 -8,-22 -26,-39 -35,-34 4,-2 16,6 26,24 1,2 3,7 1,5 -10,-10 -23,1 -26,6 -1,1 7,-6 13,-7 8,-2 15,4 17,11 0,2 1,4 1,6 1,12 -2,22 -7,25 -19,11 3,42 1,55 -12,14 -25,17 -33,7 -3,-4 -3,-7 -2,-9 1,-1 2,-4 3,-4 15,-5 19,-8 19,-15 1,-13 -11,-22 -19,-26 -5,-2 -24,-5 -33,-2 -19,5 -19,22 -18,20 1,-2 5,-10 12,-14 8,-5 20,-7 32,-4 7,2 17,11 22,18 5,8 1,18 -15,19 -4,1 -7,1 -8,4 -3,4 -2,10 2,16 8,12 27,22 38,41 2,4 3,8 4,11 -2,19 -25,19 -32,6 -2,-4 3,-15 9,-11 1,0 4,3 5,5 1,3 -3,7 -5,7 0,0 -4,0 -5,-2 -3,-5 2,-9 4,-5 1,1 2,3 -1,5 1,1 4,-2 3,-5 -1,-2 -4,-4 -6,-2 -3,2 -3,6 -2,7 1,1 3,3 4,4 6,2 12,-7 8,-12 0,-1 -1,-2 -3,-3 -2,-2 -3,-2 -4,-2 -3,-1 -8,2 -9,4 -2,3 -2,8 -2,9 2,13 15,27 39,35 24,7 42,39 47,61 3,15 2,31 0,43 -14,75 -66,56 -94,79 -45,36 -17,71 -22,62 -2,-4 -21,-22 23,-60 21,-18 67,-16 86,-46 19,-32 25,-79 3,-102 -35,-36 -43,-76 -44,-86 -1,-35 21,-71 19,-64 -1,2 -18,39 -12,72 2,12 6,24 10,34 11,23 29,39 30,40 3,2 1,2 3,4 9,9 7,30 8,31z"/>
    <path class="fil7" d="M1908 2620c-52,90 -18,98 10,138 2,3 8,1 9,5 2,-1 1,-5 3,-6 40,-25 50,-104 -22,-137z"/>
    <path class="fil8" d="M1888 2695c3,30 21,53 40,51 19,-3 31,-29 28,-59 -4,-30 -22,-53 -41,-51 -19,2 -31,29 -27,59z"/>
    <path class="fil4" d="M1900 2693c-12,25 12,40 20,38 -7,-5 -24,-24 -20,-38z"/>
    <path class="fil9" d="M1621 2821c-1,-1 -6,-28 -7,-29 -44,-30 -93,-91 -16,-179 9,1 16,9 23,8 13,-2 24,-18 13,-25 -1,0 -2,-1 -3,-2 -1,-1 -19,-3 -30,-14 -5,-5 -9,-12 -12,-18 -13,-27 26,-63 33,-64 16,-1 26,-10 28,-23 3,-19 -7,-44 -6,-43 8,6 22,65 -12,68 -23,3 -50,40 -40,63 2,6 8,11 13,16 9,7 20,5 19,4 -3,-8 -5,-19 -3,-30 2,-22 16,-43 27,-39 -5,-2 -15,9 -21,28 -1,2 -1,8 0,6 7,-13 23,-5 27,0 1,1 -8,-5 -14,-5 -8,1 -14,8 -15,15 0,2 0,4 1,6 1,12 6,22 12,23 21,7 6,42 11,54 13,11 27,12 33,0 2,-5 1,-7 0,-9 -1,-1 -3,-3 -4,-3 -16,-2 -20,-4 -22,-11 -3,-12 7,-24 13,-29 5,-4 24,-10 32,-10 20,2 23,18 22,17 -1,-3 -6,-9 -14,-12 -9,-3 -22,-2 -33,3 -6,4 -14,14 -17,22 -3,9 2,18 18,16 4,-1 7,-1 10,2 2,3 3,9 1,16 -6,14 -23,27 -29,48 -2,5 -2,8 -2,11 6,19 28,14 33,0 1,-4 -7,-14 -11,-9 -1,0 -4,3 -4,6 0,3 5,6 6,6 1,0 4,-1 5,-3 2,-6 -4,-9 -6,-4 0,1 -1,3 2,5 0,0 -4,-2 -3,-5 0,-2 2,-4 6,-3 3,1 3,5 2,6 0,2 -1,4 -3,5 -5,3 -13,-5 -10,-10 1,-1 1,-2 2,-4 2,-2 3,-2 4,-3 3,-1 8,1 10,3 3,2 4,7 4,7 1,13 -10,31 -32,43 -22,13 -32,47 -32,70 0,15 3,30 8,42 30,70 56,52 89,68 51,26 16,76 20,65 1,-4 30,-34 -21,-62 -24,-13 -48,-13 -73,-39 -26,-27 -41,-72 -24,-99 26,-42 26,-83 24,-93 -5,-34 -35,-65 -32,-59 1,2 26,35 28,68 0,13 -1,25 -4,36 -5,24 -20,44 -21,45 -2,3 1,3 -1,5 -8,11 -1,30 -2,32z"/>
    <path class="fil7" d="M1599 2631c70,78 39,92 20,137 -1,3 -7,3 -8,7 -2,-1 -2,-5 -4,-6 -45,-15 -71,-91 -8,-138z"/>
    <path class="fil10" d="M1636 2700c2,30 -11,56 -29,58 -19,2 -37,-21 -40,-52 -3,-30 10,-56 29,-58 19,-1 37,22 40,52z"/>
    <path class="fil4" d="M1623 2701c17,22 -3,42 -12,41 6,-6 19,-29 12,-41z"/>
    <path class="fil3" d="M2750 853c68,-32 97,-112 65,-180 -31,-67 -112,-96 -179,-64 -67,31 -96,111 -65,179 32,67 112,96 179,65zm-31 -67c-30,14 -67,1 -81,-29 -14,-31 -1,-67 29,-82 31,-14 67,-1 81,30 15,30 2,67 -29,81z"/>
    <path class="fil3" d="M2313 1158c79,-37 113,-131 76,-210 -38,-78 -131,-112 -210,-75 -79,37 -113,130 -76,209 37,79 131,113 210,76zm-37 -78c-36,17 -78,2 -95,-34 -17,-36 -1,-79 34,-95 36,-17 79,-2 95,34 17,36 2,78 -34,95z"/>
    <path class="fil3" d="M1775 2260c47,-23 67,-79 45,-126 -22,-47 -78,-67 -125,-45 -47,22 -68,78 -46,125 22,47 79,68 126,46zm-22 -47c-21,10 -47,1 -57,-21 -10,-21 -1,-47 21,-57 21,-10 46,0 56,21 10,21 1,47 -20,57z"/>
    <path class="fil3" d="M1850 1970c71,-34 102,-119 68,-190 -33,-71 -118,-102 -189,-69 -72,34 -102,119 -69,190 33,71 118,102 190,69zm-34 -71c-32,15 -70,1 -85,-31 -16,-32 -2,-71 31,-86 32,-15 70,-1 85,31 16,32 2,71 -31,86z"/>
    <path class="fil3" d="M2000 1551c79,-37 113,-131 76,-210 -37,-79 -131,-113 -210,-76 -79,37 -113,131 -76,210 37,79 131,113 210,76zm-37 -79c-36,17 -78,2 -95,-34 -17,-36 -1,-78 34,-95 36,-17 79,-1 96,34 16,36 1,79 -35,95z"/>
    <path class="fil3" d="M2592 3891c15,-7 22,-26 15,-41 -8,-16 -26,-23 -42,-15 -16,7 -23,26 -15,41 7,16 26,23 42,15zm-8 -15c-7,3 -15,0 -19,-7 -3,-7 0,-15 7,-19 7,-3 16,0 19,7 3,7 0,16 -7,19z"/>
    <path class="fil3" d="M2953 4009c20,-9 28,-32 19,-51 -9,-20 -32,-28 -52,-19 -19,9 -27,32 -18,52 9,19 32,28 51,18zm-9 -19c-8,4 -19,1 -23,-8 -4,-9 0,-19 8,-24 9,-4 20,0 24,9 4,9 0,19 -9,23z"/>
    <path class="fil3" d="M3431 4034c21,-10 29,-34 20,-54 -10,-21 -34,-30 -54,-20 -21,10 -30,34 -20,54 10,21 34,29 54,20zm-9 -20c-9,4 -20,0 -25,-9 -4,-9 0,-20 9,-25 9,-4 20,0 25,9 4,9 0,20 -9,25z"/>
    <path class="fil3" d="M4132 3840c31,-15 44,-51 29,-82 -14,-30 -50,-43 -81,-29 -30,14 -44,51 -29,81 14,31 50,44 81,30zm-14 -31c-14,7 -30,1 -37,-13 -6,-14 -1,-30 13,-37 14,-6 31,0 37,14 7,13 1,30 -13,36z"/>
    <path class="fil3" d="M4734 3250c39,-18 55,-64 37,-103 -18,-38 -64,-54 -102,-36 -38,18 -55,63 -37,102 18,38 64,54 102,37zm-18 -39c-17,9 -38,1 -46,-16 -8,-18 0,-38 17,-46 17,-9 38,-1 46,16 8,18 1,38 -17,46z"/>
    <path class="fil3" d="M2319 3719c7,-4 11,-13 7,-21 -3,-8 -13,-11 -21,-7 -8,3 -11,13 -7,21 3,7 13,11 21,7zm-4 -8c-4,2 -8,0 -9,-3 -2,-4 -1,-8 3,-10 4,-1 8,0 9,4 2,3 1,8 -3,9z"/>
   </g>
  </g>
 </g>
</svg>
