<?xml version="1.0" encoding="UTF-8"?>
<!DOCTYPE svg PUBLIC "-//W3C//DTD SVG 1.1//EN" "http://www.w3.org/Graphics/SVG/1.1/DTD/svg11.dtd">
<!-- Creator: CorelDRAW X7 -->
<svg xmlns="http://www.w3.org/2000/svg" xml:space="preserve" width="576px" height="360px" version="1.1" style="shape-rendering:geometricPrecision; text-rendering:geometricPrecision; image-rendering:optimizeQuality; fill-rule:evenodd; clip-rule:evenodd"
viewBox="0 0 578 360"
 xmlns:xlink="http://www.w3.org/1999/xlink">
 <defs>
  <style type="text/css">
   <![CDATA[
    .fil0 {fill:none}
    .fil1 {fill:blue}
    .fil2 {fill:#003399}
    .fil3 {fill:#6666FF}
    .fil4 {fill:#6699FF}
    .fil7 {fill:red}
    .fil5 {fill:blue;fill-rule:nonzero}
    .fil6 {fill:red;fill-rule:nonzero}
   ]]>
  </style>
 </defs>
 <g id="Layer_x0020_1">
  <metadata id="CorelCorpID_0Corel-Layer"/>
  <rect class="fil0" width="578" height="360"/>
  <g id="_2016847757424">
   <path class="fil1" d="M290 21c61,0 110,49 110,110 0,61 -49,110 -110,110 -61,0 -110,-49 -110,-110 0,-61 49,-110 110,-110zm0 9c56,0 101,45 101,101 0,56 -45,101 -101,101 -56,0 -101,-45 -101,-101 0,-56 45,-101 101,-101z"/>
   <path class="fil2" d="M282 75l0 2c-2,-1 -4,-4 -3,-3 1,0 2,1 3,1zm0 6l0 1c-1,-1 -1,-1 0,-1zm0 3l0 140c-1,0 -1,-1 -2,-2 -6,-7 -10,-14 -6,-22 2,-4 3,-12 -1,-16 -2,-3 -2,-8 -2,-9 -5,-9 -8,-16 -9,-24 -1,-5 2,-13 0,-16 -2,-2 -3,-4 -4,-6 0,-3 1,-5 1,-8 0,-1 0,-3 1,-5 1,-2 5,-4 6,-7 4,-7 3,-17 -4,-23 -20,-16 -3,-54 6,-51 6,1 -1,12 5,19 2,2 2,6 2,7 2,10 2,22 6,23l1 0z"/>
   <path class="fil3" d="M299 74l0 2c0,0 -1,0 -1,0 -1,1 -2,1 -3,2 -3,3 4,-1 1,2 -7,9 7,-4 2,2 -2,2 -2,2 1,1 0,0 0,0 0,0l0 140c-4,5 1,7 -9,7 -4,0 -5,0 -6,-1l0 -146c2,1 3,2 0,-2l0 -2c1,1 2,2 1,0 -1,0 -1,-1 -1,-1l0 -2c0,0 1,0 1,0 0,-1 0,-2 0,-3 0,0 0,-1 -1,-2 0,-1 0,-1 0,-2l0 0c0,0 0,0 0,0 0,-2 0,-4 0,-5l0 -6c0,-2 0,-3 1,-3 -1,5 1,10 3,14l1 -22 3 21c2,-2 3,-6 3,-12 2,0 2,7 1,12 1,0 1,0 0,1 -1,2 -1,4 -1,5 0,0 0,0 0,1 1,0 2,0 4,-1z"/>
   <path class="fil4" d="M301 73c0,0 0,0 0,1l0 -1zm0 8c2,-4 3,-13 4,-21 0,0 0,-4 2,-7 5,-7 -1,-17 4,-19 10,-3 27,35 6,52 -6,5 -7,15 -4,22 2,3 6,6 7,7 1,2 1,4 1,5 0,4 1,6 0,8 0,2 -1,4 -3,7 -2,3 0,11 0,15 -2,8 -1,15 -6,24 -1,1 -1,7 -3,9 -4,5 -6,10 -4,15 5,9 2,14 -4,22l0 -139z"/>
   <path class="fil5" d="M279 190c0,1 0,1 0,1 0,0 0,0 0,0 0,1 -1,1 -1,1 0,0 0,0 0,0 0,0 -1,1 -1,1 -1,1 -2,1 -3,1 -1,1 -2,1 -4,1 -1,1 -3,1 -4,1 -3,0 -6,-1 -8,-1 -2,-1 -4,-2 -5,-4 -2,-2 -3,-4 -4,-6 -1,-2 -1,-5 -1,-8 0,-3 0,-6 1,-8 1,-3 2,-5 4,-6 2,-2 4,-3 6,-4 2,-1 4,-1 7,-1 1,0 3,0 4,0 1,0 2,0 3,1 1,0 2,0 3,1 1,0 1,0 2,1 0,0 0,0 0,0 0,0 0,1 0,1 0,0 0,0 0,0 0,0 0,1 0,1 0,0 0,0 0,1 0,0 0,0 0,0 0,0 0,0 0,0 0,0 0,1 0,1 -1,0 -1,-1 -2,-1 0,0 -1,-1 -2,-1 -1,-1 -2,-1 -3,-2 -2,0 -3,0 -5,0 -2,0 -4,0 -6,1 -1,0 -3,2 -4,3 -1,1 -2,3 -3,5 0,2 -1,4 -1,7 0,2 1,5 1,7 1,1 2,3 3,4 1,2 3,3 4,3 2,1 4,2 6,2 2,0 3,-1 5,-1 1,0 2,-1 3,-1 1,-1 2,-1 3,-2 0,0 1,0 1,0 0,0 0,0 0,0 0,0 0,0 1,0 0,0 0,0 0,1 0,0 0,0 0,0z"/>
   <path id="1" class="fil5" d="M334 176c0,3 -1,6 -2,8 -1,3 -2,5 -4,7 -1,1 -4,2 -6,3 -3,1 -6,1 -10,1l-8 0c0,0 -1,0 -1,0 -1,0 -1,-1 -1,-1l0 -34c0,-1 0,-1 1,-2 0,0 1,0 1,0l9 0c4,0 7,0 9,1 3,1 5,2 7,4 1,1 2,3 3,6 1,2 2,4 2,7zm-5 0c0,-2 0,-4 -1,-6 0,-2 -1,-3 -3,-5 -1,-1 -3,-2 -5,-3 -2,-1 -4,-1 -7,-1l-7 0 0 31 7 0c3,0 5,0 7,-1 2,0 4,-1 5,-3 2,-1 3,-3 3,-5 1,-2 1,-4 1,-7z"/>
   <path class="fil6" d="M246 125c0,1 0,1 0,1 0,0 0,1 -1,1 0,0 0,0 0,0 0,0 0,0 -1,0l0 0c-1,0 -1,0 -2,0 0,0 0,0 0,-1 -1,0 -1,0 -1,-1 -1,0 -1,0 -1,-1l-14 -24c-1,-1 -1,-2 -2,-3 -1,-2 -1,-3 -2,-4l0 0c0,2 0,3 0,4 0,2 0,3 0,5l0 24c0,1 0,1 0,1 0,0 0,0 0,0 0,0 -1,0 -1,0 0,0 0,0 -1,0 0,0 0,0 -1,0 0,0 0,0 0,0 0,0 0,0 0,0 -1,0 -1,0 -1,-1l0 -35c0,-1 1,-1 1,-2 0,0 1,0 1,0l2 0c0,0 0,0 1,0 0,0 0,0 1,1 0,0 0,0 0,0 1,1 1,1 1,2l11 18c0,1 1,2 1,3 1,1 2,2 2,3 1,1 1,2 2,3 0,1 1,2 1,3l0 0c0,-2 0,-3 0,-5 0,-2 0,-4 0,-5l0 -22c0,0 0,0 0,-1 1,0 1,0 1,0 0,0 0,0 0,0 1,0 1,0 1,0 1,0 1,0 1,0 0,0 0,0 1,0 0,0 0,0 0,0 0,1 0,1 0,1l0 35z"/>
   <path id="1" class="fil6" d="M297 126c0,1 0,1 0,1 0,0 0,0 0,0 0,0 0,0 -1,0 0,0 0,0 0,0 -1,0 -1,0 -1,0 -1,0 -1,0 -1,0 0,0 0,0 0,0 0,0 0,0 0,-1l0 -34 0 0 -15 35c0,0 0,0 -1,0 0,0 0,0 0,0 0,0 0,0 0,0 -1,0 -1,0 -1,0 0,0 -1,0 -1,0 0,0 0,0 0,0 0,0 0,0 -1,0 0,0 0,0 0,0l-14 -35 0 0 0 34c0,1 0,1 0,1 0,0 0,0 0,0 -1,0 -1,0 -1,0 0,0 -1,0 -1,0 0,0 -1,0 -1,0 0,0 0,0 0,0 -1,0 -1,0 -1,0 0,0 0,0 0,-1l0 -35c0,-1 0,-1 1,-2 0,0 1,0 1,0l2 0c0,0 1,0 1,0 1,0 1,1 1,1 0,0 1,0 1,0 0,1 0,1 0,1l13 31 0 0 13 -30c1,-1 1,-1 1,-2 0,0 1,0 1,0 0,-1 0,-1 1,-1 0,0 0,0 1,0l2 0c0,0 0,0 0,0 1,0 1,0 1,0 0,1 0,1 0,1 0,0 0,1 0,1l0 35z"/>
   <path id="2" class="fil6" d="M328 117c0,1 0,3 -1,4 0,2 -1,3 -2,4 -2,1 -3,1 -4,2 -2,0 -4,0 -5,0 -2,0 -3,0 -4,0 -1,0 -2,0 -3,-1 -1,0 -1,0 -2,-1 0,0 -1,0 -1,0 0,-1 0,-1 -1,-1 0,-1 0,-1 0,-1 0,-1 0,-1 0,-1 0,0 0,-1 1,-1 0,0 0,0 0,0 0,0 0,0 0,0 0,0 1,0 1,0 1,1 1,1 2,2 1,0 2,0 3,1 1,0 3,0 4,0 1,0 2,0 3,0 1,-1 2,-1 3,-2 1,0 1,-1 2,-2 0,-1 0,-2 0,-3 0,-1 0,-2 0,-3 -1,-1 -2,-2 -3,-2 0,-1 -1,-1 -2,-2 -1,0 -3,-1 -4,-1 -1,-1 -2,-2 -3,-2 -1,-1 -2,-1 -3,-2 -1,-1 -1,-2 -2,-3 0,-1 -1,-2 -1,-4 0,-1 1,-3 1,-4 1,-1 1,-2 2,-3 1,-1 3,-1 4,-2 1,0 3,0 4,0 1,0 2,0 3,0 1,0 1,0 2,0 1,1 2,1 2,1 1,1 1,1 1,1 1,0 1,0 1,0 0,1 0,1 0,1 0,0 0,0 0,0 0,0 0,1 0,1 0,0 0,0 0,1 0,0 0,0 0,0 0,0 0,0 0,0 -1,1 -1,1 -1,1 0,0 0,-1 -1,-1 0,0 -1,0 -1,-1 -1,0 -2,0 -3,-1 -1,0 -2,0 -3,0 -1,0 -2,0 -3,0 -1,1 -2,1 -2,2 -1,0 -1,1 -1,1 -1,1 -1,2 -1,3 0,1 0,2 1,3 0,1 1,1 2,2 1,1 2,1 3,2 1,0 2,1 3,1 1,1 2,1 3,2 1,1 2,1 3,2 1,1 2,2 2,3 1,1 1,2 1,4z"/>
   <path id="3" class="fil6" d="M364 113c0,2 -1,4 -1,6 -1,2 -2,3 -3,5 -1,1 -3,2 -5,2 -1,1 -3,1 -5,1 -2,0 -4,0 -6,0 -1,-1 -3,-2 -4,-3 -1,-1 -2,-3 -3,-5 -1,-1 -1,-3 -1,-6l0 -23c0,0 0,-1 0,-1 0,0 0,0 1,0 0,0 0,0 0,0 0,0 1,0 1,0 0,0 1,0 1,0 0,0 0,0 0,0 1,0 1,0 1,0 0,0 0,1 0,1l0 23c0,2 0,3 0,5 1,1 2,2 2,3 1,1 2,2 4,2 1,1 2,1 4,1 2,0 3,0 4,0 1,-1 3,-2 3,-3 1,-1 2,-2 2,-3 1,-1 1,-3 1,-5l0 -23c0,0 0,-1 0,-1 0,0 0,0 0,0 1,0 1,0 1,0 0,0 1,0 1,0 0,0 1,0 1,0 0,0 0,0 0,0 0,0 1,0 1,0 0,0 0,1 0,1l0 23z"/>
   <path class="fil6" d="M225 231l2 2c-1,0 -1,1 -2,1 0,0 -1,0 -1,0 -1,0 -1,-1 -2,-1 -1,-1 -1,-1 -2,-2 0,0 0,-1 0,-2 0,-1 0,-2 1,-3 1,-1 2,-1 3,-2 1,0 2,1 3,2 1,0 2,1 2,2 0,0 0,1 0,2l-2 -1c0,0 0,0 0,-1 0,0 0,0 0,0 -1,0 -1,-1 -1,-1 0,0 -1,0 -1,0 -1,0 -1,0 -2,1 0,1 -1,1 -1,2 0,0 1,1 1,1 0,0 1,1 1,1 1,-1 1,-1 1,-1zm3 1c1,-1 2,-2 3,-2 1,0 2,0 4,1 1,0 2,1 2,2 0,1 0,3 -1,4 0,1 -1,1 -2,2 0,0 -1,0 -2,0 -1,0 -1,0 -2,-1 -1,0 -2,-1 -2,-1 0,-1 -1,-2 -1,-2 0,-1 1,-2 1,-3zm3 1c-1,1 -1,2 -1,2 0,1 0,1 1,2 0,0 1,0 1,0 1,0 1,-1 2,-2 0,0 0,-1 0,-1 0,-1 0,-1 -1,-2 0,0 0,0 -1,0 0,0 -1,1 -1,1zm8 0l2 2 -3 6 4 2 -1 1 -6 -3 4 -8zm7 4l2 1 -2 6 4 2 -1 2 -7 -3 4 -8zm7 3l7 2 -1 2 -4 -2 -1 2 4 1 0 2 -4 -1 -1 1 5 2 -1 2 -7 -3 3 -8zm10 9l1 -2 4 1 -1 4c-1,0 -2,0 -2,0 -1,0 -2,0 -2,0 -2,0 -2,0 -3,-1 0,0 -1,-1 -1,-2 0,-1 0,-2 0,-2 0,-1 1,-2 1,-3 1,0 1,-1 2,-1 1,0 2,0 3,0 1,1 1,1 2,1 0,0 1,1 1,1 0,1 0,1 0,2l-2 0c-1,-1 -1,-1 -1,-1 0,-1 0,-1 -1,-1 0,0 -1,0 -1,0 -1,1 -1,1 -1,2 0,1 0,2 0,2 0,1 0,1 1,1 0,0 1,0 1,0 0,0 1,0 1,0l0 -1 -2 0zm7 -4l7 1 0 2 -5 -1 0 1 4 1 0 2 -4 -1 -1 2 5 0 0 2 -8 -1 2 -8zm12 1l4 0c0,0 1,1 2,1 0,0 0,0 1,1 0,0 0,1 0,1 0,1 1,1 1,2 0,1 -1,2 -1,2 0,1 0,1 -1,1 0,1 -1,1 -1,1 -1,0 -1,0 -2,0l-4 0 1 -9zm2 2l0 5 1 0c0,0 1,0 1,0 0,0 0,0 1,-1 0,0 0,0 0,-1 0,-1 0,-2 -1,-2 0,0 0,-1 -1,-1l-1 0zm6 -1l8 -1 0 2 -5 0 0 2 5 0 0 1 -5 1 1 1 4 0 0 2 -7 0 -1 -8zm8 -1l4 0 2 5 1 -6 3 0 2 9 -3 0 -1 -7 0 7 -2 1 -3 -7 1 7 -2 0 -2 -9zm12 3c0,-1 0,-2 0,-3 1,-1 2,-2 3,-2 2,-1 3,0 4,0 1,1 2,2 2,3 0,1 0,2 0,3 0,0 -1,1 -1,2 -1,0 -2,0 -2,1 -1,0 -2,0 -3,0 -1,-1 -1,-1 -2,-2 0,0 -1,-1 -1,-2zm3 0c0,0 0,1 1,1 0,1 0,1 1,1 1,-1 1,-1 1,-1 0,-1 0,-1 0,-2 0,-1 0,-2 -1,-2 0,0 -1,0 -1,0 -1,0 -1,0 -1,1 0,0 -1,1 0,2zm13 -3l2 0c0,0 0,1 0,2 0,0 0,1 -1,1 0,0 -1,1 -2,1 -1,0 -1,0 -2,0 -1,0 -1,0 -2,-1 -1,0 -1,-1 -1,-2 -1,-2 -1,-3 0,-4 0,-1 1,-1 2,-2 1,0 2,0 3,0 1,0 2,1 2,2l-2 1c0,0 0,-1 0,-1 -1,0 -1,0 -1,0 0,0 -1,0 -1,0 0,0 -1,1 -1,1 0,1 0,1 0,2 0,1 1,2 1,2 1,0 1,0 2,0 0,0 0,-1 1,-1 0,0 0,-1 0,-1zm4 2l-3 -8 4 -2c1,0 1,0 2,-1 0,0 1,1 1,1 1,0 1,0 1,1 0,0 0,1 0,1 0,1 0,1 0,1 0,1 0,1 -1,1 1,0 1,0 1,0 0,0 0,0 1,0 0,0 0,1 0,1l2 1 -2 2 -3 -2c0,0 0,-1 -1,-1 0,0 0,0 0,1l-1 0 2 3 -3 1zm1 -6l1 0c0,0 0,-1 0,-1 1,0 1,0 1,0 0,0 0,-1 0,-1 0,0 -1,0 -1,0 0,0 0,0 -1,0l-1 0 1 2zm12 -2l-2 2 0 1 -3 1 -1 -9 3 -1 7 6 -3 1 -1 -1zm-1 -1l-2 -3 0 4 2 -1zm-1 -6l7 -5 2 2 -3 2 4 5 -2 2 -4 -6 -2 2 -2 -2zm11 0l2 -2c0,1 1,1 1,1 0,0 1,0 1,0 0,-1 1,-1 1,-1 0,-1 0,-1 0,-1 -1,0 -1,0 -1,0 0,0 -1,0 -1,0 -2,1 -2,1 -3,1 -1,0 -1,0 -2,-1 0,0 0,-1 0,-1 0,-1 0,-1 0,-2 0,0 1,-1 2,-1 1,-1 1,-1 2,-1 1,0 1,0 2,1l-2 1c0,0 0,0 -1,0 0,0 0,0 -1,0 0,0 0,1 0,1 0,0 0,0 0,0 0,0 0,0 0,0 1,1 1,0 1,0 1,0 2,-1 3,-1 0,0 1,0 1,0 1,0 1,1 1,1 1,1 1,1 1,2 0,0 0,1 0,1 -1,1 -1,1 -2,2 -1,1 -2,1 -3,1 -1,0 -1,0 -2,-1z"/>
   <path class="fil5" d="M225 231l2 2c-1,0 -1,1 -2,1 0,0 -1,0 -1,0 -1,0 -1,-1 -2,-1 -1,-1 -1,-1 -2,-2 0,0 0,-1 0,-2 0,-1 0,-2 1,-3 1,-1 2,-1 3,-2 1,0 2,1 3,2 1,0 2,1 2,2 0,0 0,1 0,2l-2 -1c0,0 0,0 0,-1 0,0 0,0 0,0 -1,0 -1,-1 -1,-1 0,0 -1,0 -1,0 -1,0 -1,0 -2,1 0,1 -1,1 -1,2 0,0 1,1 1,1 0,0 1,1 1,1 1,-1 1,-1 1,-1zm3 1c1,-1 2,-2 3,-2 1,0 2,0 4,1 1,0 2,1 2,2 0,1 0,3 -1,4 0,1 -1,1 -2,2 0,0 -1,0 -2,0 -1,0 -1,0 -2,-1 -1,0 -2,-1 -2,-1 0,-1 -1,-2 -1,-2 0,-1 1,-2 1,-3zm3 1c-1,1 -1,2 -1,2 0,1 0,1 1,2 0,0 1,0 1,0 1,0 1,-1 2,-2 0,0 0,-1 0,-1 0,-1 0,-1 -1,-2 0,0 0,0 -1,0 0,0 -1,1 -1,1zm8 0l2 2 -3 6 4 2 -1 1 -6 -3 4 -8zm7 4l2 1 -2 6 4 2 -1 2 -7 -3 4 -8zm7 3l7 2 -1 2 -4 -2 -1 2 4 1 0 2 -4 -1 -1 1 5 2 -1 2 -7 -3 3 -8zm10 9l1 -2 4 1 -1 4c-1,0 -2,0 -2,0 -1,0 -2,0 -2,0 -2,0 -2,0 -3,-1 0,0 -1,-1 -1,-2 0,-1 0,-2 0,-2 0,-1 1,-2 1,-3 1,0 1,-1 2,-1 1,0 2,0 3,0 1,1 1,1 2,1 0,0 1,1 1,1 0,1 0,1 0,2l-2 0c-1,-1 -1,-1 -1,-1 0,-1 0,-1 -1,-1 0,0 -1,0 -1,0 -1,1 -1,1 -1,2 0,1 0,2 0,2 0,1 0,1 1,1 0,0 1,0 1,0 0,0 1,0 1,0l0 -1 -2 0zm7 -4l7 1 0 2 -5 -1 0 1 4 1 0 2 -4 -1 -1 2 5 0 0 2 -8 -1 2 -8zm12 1l4 0c0,0 1,1 2,1 0,0 0,0 1,1 0,0 0,1 0,1 0,1 1,1 1,2 0,1 -1,2 -1,2 0,1 0,1 -1,1 0,1 -1,1 -1,1 -1,0 -1,0 -2,0l-4 0 1 -9zm2 2l0 5 1 0c0,0 1,0 1,0 0,0 0,0 1,-1 0,0 0,0 0,-1 0,-1 0,-2 -1,-2 0,0 0,-1 -1,-1l-1 0zm6 -1l8 -1 0 2 -5 0 0 2 5 0 0 1 -5 1 1 1 4 0 0 2 -7 0 -1 -8zm8 -1l4 0 2 5 1 -6 3 0 2 9 -3 0 -1 -7 0 7 -2 1 -3 -7 1 7 -2 0 -2 -9zm12 3c0,-1 0,-2 0,-3 1,-1 2,-2 3,-2 2,-1 3,0 4,0 1,1 2,2 2,3 0,1 0,2 0,3 0,0 -1,1 -1,2 -1,0 -2,0 -2,1 -1,0 -2,0 -3,0 -1,-1 -1,-1 -2,-2 0,0 -1,-1 -1,-2zm3 0c0,0 0,1 1,1 0,1 0,1 1,1 1,-1 1,-1 1,-1 0,-1 0,-1 0,-2 0,-1 0,-2 -1,-2 0,0 -1,0 -1,0 -1,0 -1,0 -1,1 0,0 -1,1 0,2zm13 -3l2 0c0,0 0,1 0,2 0,0 0,1 -1,1 0,0 -1,1 -2,1 -1,0 -1,0 -2,0 -1,0 -1,0 -2,-1 -1,0 -1,-1 -1,-2 -1,-2 -1,-3 0,-4 0,-1 1,-1 2,-2 1,0 2,0 3,0 1,0 2,1 2,2l-2 1c0,0 0,-1 0,-1 -1,0 -1,0 -1,0 0,0 -1,0 -1,0 0,0 -1,1 -1,1 0,1 0,1 0,2 0,1 1,2 1,2 1,0 1,0 2,0 0,0 0,-1 1,-1 0,0 0,-1 0,-1zm4 2l-3 -8 4 -2c1,0 1,0 2,-1 0,0 1,1 1,1 1,0 1,0 1,1 0,0 0,1 0,1 0,1 0,1 0,1 0,1 0,1 -1,1 1,0 1,0 1,0 0,0 0,0 1,0 0,0 0,1 0,1l2 1 -2 2 -3 -2c0,0 0,-1 -1,-1 0,0 0,0 0,1l-1 0 2 3 -3 1zm1 -6l1 0c0,0 0,-1 0,-1 1,0 1,0 1,0 0,0 0,-1 0,-1 0,0 -1,0 -1,0 0,0 0,0 -1,0l-1 0 1 2zm12 -2l-2 2 0 1 -3 1 -1 -9 3 -1 7 6 -3 1 -1 -1zm-1 -1l-2 -3 0 4 2 -1zm-1 -6l7 -5 2 2 -3 2 4 5 -2 2 -4 -6 -2 2 -2 -2zm11 0l2 -2c0,1 1,1 1,1 0,0 1,0 1,0 0,-1 1,-1 1,-1 0,-1 0,-1 0,-1 -1,0 -1,0 -1,0 0,0 -1,0 -1,0 -2,1 -2,1 -3,1 -1,0 -1,0 -2,-1 0,0 0,-1 0,-1 0,-1 0,-1 0,-2 0,0 1,-1 2,-1 1,-1 1,-1 2,-1 1,0 1,0 2,1l-2 1c0,0 0,0 -1,0 0,0 0,0 -1,0 0,0 0,1 0,1 0,0 0,0 0,0 0,0 0,0 0,0 1,1 1,0 1,0 1,0 2,-1 3,-1 0,0 1,0 1,0 1,0 1,1 1,1 1,1 1,1 1,2 0,0 0,1 0,1 -1,1 -1,1 -2,2 -1,1 -2,1 -3,1 -1,0 -1,0 -2,-1z"/>
   <polygon class="fil7" points="364,215 366,220 371,219 368,223 370,228 365,225 361,229 362,224 358,221 363,220 "/>
   <polygon class="fil7" points="376,206 377,209 381,208 379,211 381,215 377,213 374,216 375,212 371,210 375,210 "/>
   <polygon class="fil7" points="383,196 385,199 388,198 386,200 388,203 385,202 383,205 383,201 380,200 383,199 "/>
   <polygon class="fil7" points="215,214 213,219 207,218 211,222 209,226 213,224 217,228 216,222 221,220 216,219 "/>
   <polygon class="fil7" points="203,204 201,208 197,207 200,210 198,214 202,212 204,215 204,211 207,209 204,208 "/>
   <polygon class="fil7" points="196,194 194,197 190,196 192,199 190,202 193,201 195,203 195,200 199,199 195,198 "/>
  </g>
 </g>
</svg>
