<?xml version="1.0" encoding="UTF-8"?>
<!DOCTYPE svg PUBLIC "-//W3C//DTD SVG 1.1//EN" "http://www.w3.org/Graphics/SVG/1.1/DTD/svg11.dtd">
<!-- Creator: CorelDRAW X7 -->
<svg xmlns="http://www.w3.org/2000/svg" xml:space="preserve" width="8in" height="5in" version="1.1" style="shape-rendering:geometricPrecision; text-rendering:geometricPrecision; image-rendering:optimizeQuality; fill-rule:evenodd; clip-rule:evenodd"
viewBox="0 0 8000 5000"
 xmlns:xlink="http://www.w3.org/1999/xlink">
 <defs>
  <style type="text/css">
   <![CDATA[
    .str0 {stroke:#373435;stroke-width:3}
    .fil1 {fill:none}
    .fil13 {fill:#FEFEFE}
    .fil79 {fill:#D2D3D5}
    .fil77 {fill:#A9ABAE}
    .fil14 {fill:#848688}
    .fil15 {fill:#727376}
    .fil78 {fill:#606062}
    .fil26 {fill:#4B4B4D}
    .fil11 {fill:#373435}
    .fil76 {fill:#373435}
    .fil25 {fill:#605F54}
    .fil23 {fill:#A98F71}
    .fil22 {fill:#847059}
    .fil8 {fill:#4E5A62}
    .fil71 {fill:black}
    .fil51 {fill:#333333}
    .fil68 {fill:#4D4D4D}
    .fil47 {fill:#4D4D4D}
    .fil67 {fill:#666666}
    .fil65 {fill:#666666}
    .fil50 {fill:gray}
    .fil49 {fill:#999999}
    .fil48 {fill:#CCCCCC}
    .fil69 {fill:#E6E6E6}
    .fil66 {fill:#E6E6E6}
    .fil46 {fill:white}
    .fil39 {fill:url(#id6)}
    .fil61 {fill:url(#id7)}
    .fil64 {fill:url(#id8)}
    .fil63 {fill:url(#id9)}
    .fil62 {fill:url(#id10)}
    .fil17 {fill:url(#id11)}
    .fil72 {fill:url(#id12)}
    .fil19 {fill:url(#id13)}
    .fil3 {fill:url(#id14)}
    .fil44 {fill:url(#id15)}
    .fil74 {fill:url(#id16)}
    .fil28 {fill:url(#id17)}
    .fil16 {fill:url(#id18)}
    .fil40 {fill:url(#id19)}
    .fil43 {fill:url(#id20)}
    .fil5 {fill:url(#id21)}
    .fil4 {fill:url(#id22)}
    .fil21 {fill:url(#id23)}
    .fil58 {fill:url(#id24)}
    .fil53 {fill:url(#id25)}
    .fil45 {fill:url(#id26)}
    .fil59 {fill:url(#id27)}
    .fil2 {fill:url(#id28)}
    .fil18 {fill:url(#id29)}
    .fil54 {fill:url(#id30)}
    .fil52 {fill:url(#id31)}
    .fil12 {fill:url(#id32)}
    .fil36 {fill:url(#id33)}
    .fil38 {fill:url(#id34)}
    .fil30 {fill:url(#id35)}
    .fil31 {fill:url(#id36)}
    .fil75 {fill:url(#id37)}
    .fil32 {fill:url(#id38)}
    .fil34 {fill:url(#id39)}
    .fil6 {fill:url(#id40)}
    .fil0 {fill:url(#id41)}
    .fil27 {fill:url(#id42)}
    .fil33 {fill:url(#id43)}
    .fil10 {fill:url(#id44)}
    .fil7 {fill:url(#id45)}
    .fil37 {fill:url(#id46)}
    .fil42 {fill:url(#id47)}
    .fil24 {fill:url(#id48)}
    .fil35 {fill:url(#id49)}
    .fil41 {fill:url(#id50)}
    .fil29 {fill:url(#id51)}
    .fil20 {fill:url(#id52)}
    .fil70 {fill:url(#id53)}
    .fil73 {fill:url(#id54)}
    .fil9 {fill:url(#id55)}
    .fil57 {fill:url(#id56)}
    .fil55 {fill:url(#id57)}
    .fil56 {fill:url(#id58)}
    .fil60 {fill:url(#id59)}
   ]]>
  </style>
    <clipPath id="id0">
     <path d="M6051 2447c-6,67 -42,151 -47,218 148,-72 618,16 784,86 133,52 292,158 486,342 27,-80 52,-160 73,-239 -32,-45 -64,-89 -95,-133 -102,-84 -207,-163 -320,-225 -241,-81 -489,-86 -660,-121 -95,-14 -176,2 -221,72z"/>
    </clipPath>
    <clipPath id="id1">
     <path d="M6535 1728c-8,36 -12,113 -8,161 0,3 4,6 5,9 1,8 -6,15 -5,17l14 10 -5 17 19 10 -5 22 17 15 0 27 14 14c2,1 -2,13 2,25 1,7 15,6 17,13 2,9 -3,25 0,33 1,3 10,2 11,4 1,10 4,18 9,15 2,-2 3,-7 5,-11 6,-11 14,-4 20,3 2,3 -1,6 -1,9 0,2 7,1 8,1 2,3 2,-3 7,-6 3,-1 9,2 13,-1 2,-1 3,-7 5,-9 2,-2 11,-2 17,-3 12,-1 3,-16 9,-16 6,-1 13,2 22,-2 4,-2 0,-11 4,-14 4,-2 14,2 18,0 4,-3 -1,-13 4,-16 4,-4 19,2 23,-1 3,-2 2,-11 5,-13 4,-3 13,0 17,-3 4,-3 -2,-12 1,-16 6,-5 23,-6 29,-10 7,-6 3,-15 5,-19 1,-4 21,0 31,-8 6,-4 9,-19 16,-24 5,-5 16,-4 21,-8 8,-6 14,-16 20,-23 3,-3 10,0 13,-3 5,-5 6,-15 11,-19 4,-5 12,-6 16,-9 3,-4 5,-12 10,-16 38,-24 67,-71 75,-106 11,-43 -26,-107 2,-18 9,30 -6,56 -26,83 -4,5 -5,14 -10,19 -2,3 -8,3 -11,6 -6,7 -7,17 -14,23 -7,6 -16,10 -22,16 -4,4 -5,11 -9,14 -6,4 -15,7 -19,12 -4,4 -3,11 -7,13 -6,5 -13,4 -18,9 -3,3 0,11 -16,20 -10,6 -21,9 -30,16 -5,3 -5,15 -9,17 -5,4 -8,3 -10,6 -1,1 -8,-2 -12,1 -5,4 -7,17 -15,23 -5,4 -12,4 -17,8 -4,2 -10,11 -13,13 -3,3 -8,0 -11,2 -5,3 -10,17 -14,20 -5,4 -10,-5 -15,-2 -3,2 -1,10 -4,12 -4,4 -14,1 -18,3 -9,4 -5,23 -11,20 -2,-2 -13,-8 -16,-5 -5,4 -6,12 -12,17 -3,1 -9,-5 -11,-3 -2,2 0,8 -2,11 -8,8 -12,15 -10,15 0,0 -3,14 -10,29 -2,5 11,17 4,23 -11,8 -3,11 -3,28 0,9 -22,36 -25,28 -1,-1 -2,-31 -2,-34 0,-6 11,-8 11,-12 -2,-18 4,-33 -1,-40 -3,-4 -12,-1 -15,1 -3,1 -3,14 -5,19 -6,10 -7,29 1,52 4,14 -16,12 -11,40 2,10 -11,43 -20,40 -16,-5 -16,-44 2,-52 14,-7 -4,-33 -4,-37 0,-5 20,-16 20,-41 0,-9 3,-29 -2,-29 -2,0 -4,7 -7,10 -4,6 -9,8 -10,10 -2,3 -10,3 -7,11 6,16 -9,41 -19,40 -6,-1 -8,-18 -7,-33 3,-18 23,0 15,-27 0,-3 16,-9 16,-14 1,-6 -6,-18 -1,-25 4,-6 8,-6 10,-12 1,-4 -7,-7 -6,-11 1,-5 2,-11 2,-16 0,-3 -7,-5 -12,-13 -4,-6 3,-17 -3,-24 -3,-3 -20,-15 -24,-25 -2,-6 5,-9 5,-15 0,-6 -12,-10 -16,-17 -4,-5 3,-29 -14,-30 -10,-1 0,-16 -2,-22 -2,-2 -12,0 -13,-11 0,-7 6,-11 6,-21 0,-3 -6,-11 -6,-14 0,-4 2,-7 2,-11 2,-57 6,-133 22,-165z"/>
    </clipPath>
    <clipPath id="id2">
     <path d="M6386 750c0,-29 49,-52 49,-95 0,-9 38,-27 35,-27 -35,0 -14,23 23,23 0,0 20,-19 43,-26 17,-5 53,-31 70,-20 17,10 46,0 28,-13 -17,-10 29,13 35,13 70,0 21,-13 35,-13 32,0 83,29 95,5 5,-9 17,41 32,11 2,-3 57,-5 60,7 3,10 55,37 70,37 54,0 17,-26 17,-34 0,-3 -6,-13 -11,-9 -30,31 6,8 -38,8 -24,0 14,-6 8,-20 -13,-25 -48,26 -48,3 0,-9 34,-31 9,-55 -7,-8 -26,23 -26,24 0,23 -7,-10 -33,-10 0,0 -28,17 -19,21 13,6 -30,11 -15,-4 14,-14 23,0 11,-7 -32,-15 6,13 6,-12 0,-20 -32,-29 -32,-33 0,-23 -25,7 -25,16 0,20 -10,0 -10,0 -10,-4 -48,8 -34,14 6,3 -8,23 14,28 21,4 27,-40 50,-17 9,9 -75,43 -75,-5 0,-17 -17,-4 -20,-4 -16,1 -39,4 -3,0 34,-3 11,-26 23,-14 14,14 51,-15 32,-25 -26,-12 -33,7 -33,23 0,3 -14,-12 -23,-21 -9,-9 -42,17 -12,31 29,13 -16,-2 10,10 5,2 -38,23 -12,23 23,0 0,28 -8,-3 -1,-11 5,-29 -3,-29 -24,0 -7,-31 -7,-43 0,-23 -31,34 -31,34 -9,0 -12,21 -14,23 -15,15 49,-94 -6,-66 -32,15 -20,11 -1,29 1,2 -20,23 -33,23 -1,0 7,-38 -15,-24 -9,6 3,26 9,26 5,0 -13,18 -15,18 -3,0 -14,-9 -18,-14 -8,-7 21,-20 -16,5 -13,9 -38,15 -35,23 9,20 71,29 20,9 -8,-3 -29,-8 -40,-8 -6,0 -7,9 -7,14 0,3 10,41 -3,14 -10,-19 -26,61 -48,67 -4,2 -18,-29 -18,12 0,0 3,52 3,57z"/>
    </clipPath>
      <clipPath id="id3">
       <path d="M7069 1323c-14,-39 30,-30 35,-7 -4,22 -17,16 -25,25 0,4 1,9 1,14 7,-3 14,0 21,9 8,17 -2,24 -17,27 3,6 -1,12 -10,18 -18,-22 -13,-31 -13,-42 1,-4 3,-8 5,-12 7,-11 4,-22 3,-32z"/>
      </clipPath>
      <clipPath id="id4">
       <path d="M7091 1305c6,0 11,6 11,13 0,7 -5,13 -11,13 -6,0 -11,-6 -11,-13 0,-7 5,-13 11,-13z"/>
      </clipPath>
      <clipPath id="id5">
       <path d="M7091 1362c6,0 10,5 10,12 0,6 -4,12 -10,12 -6,0 -11,-6 -11,-12 0,-7 5,-12 11,-12z"/>
      </clipPath>
  <linearGradient id="id6" gradientUnits="userSpaceOnUse" x1="6886.21" y1="1706.12" x2="6752.98" y2="1257.95">
   <stop offset="0" style="stop-opacity:1; stop-color:#A98F71"/>
   <stop offset="1" style="stop-opacity:1; stop-color:#FDD1A1"/>
  </linearGradient>
  <linearGradient id="id7" gradientUnits="userSpaceOnUse" x1="1770.64" y1="1316.68" x2="2070.41" y2="1116.78">
   <stop offset="0" style="stop-opacity:1; stop-color:#3E4095"/>
   <stop offset="1" style="stop-opacity:1; stop-color:#91D8F7"/>
  </linearGradient>
  <linearGradient id="id8" gradientUnits="userSpaceOnUse" x1="2708.85" y1="1734.39" x2="3007.15" y2="1734.39">
   <stop offset="0" style="stop-opacity:1; stop-color:#A6A6A6"/>
   <stop offset="1" style="stop-opacity:1; stop-color:white"/>
  </linearGradient>
  <linearGradient id="id9" gradientUnits="userSpaceOnUse" x1="3701.27" y1="1118.65" x2="3090.2" y2="2679.79">
   <stop offset="0" style="stop-opacity:1; stop-color:#3B3B3B"/>
   <stop offset="1" style="stop-opacity:1; stop-color:#B5B1B1"/>
  </linearGradient>
  <linearGradient id="id10" gradientUnits="userSpaceOnUse" x1="2920.16" y1="2270.44" x2="3812.11" y2="2786.46">
   <stop offset="0" style="stop-opacity:1; stop-color:#1A1A1A"/>
   <stop offset="0.780392" style="stop-opacity:1; stop-color:#716F6F"/>
   <stop offset="1" style="stop-opacity:1; stop-color:#C9C5C5"/>
  </linearGradient>
  <linearGradient id="id11" gradientUnits="userSpaceOnUse" x1="6567.88" y1="1138.65" x2="6683.46" y2="1174.97">
   <stop offset="0" style="stop-opacity:1; stop-color:#FDD1A1"/>
   <stop offset="0.45098" style="stop-opacity:1; stop-color:#F2C89A"/>
   <stop offset="1" style="stop-opacity:1; stop-color:#FDD1A1"/>
  </linearGradient>
  <linearGradient id="id12" gradientUnits="userSpaceOnUse" x1="2708.98" y1="1769.02" x2="2983.74" y2="1769.02">
   <stop offset="0" style="stop-opacity:1; stop-color:#B3B3B3"/>
   <stop offset="1" style="stop-opacity:1; stop-color:#E0E0E0"/>
  </linearGradient>
  <linearGradient id="id13" gradientUnits="userSpaceOnUse" x1="7045.75" y1="665.807" x2="6788.08" y2="1181.16">
   <stop offset="0" style="stop-opacity:1; stop-color:#A98F71"/>
   <stop offset="0.560784" style="stop-opacity:1; stop-color:#F4CA9C"/>
   <stop offset="1" style="stop-opacity:1; stop-color:#FCD3C2"/>
  </linearGradient>
  <linearGradient id="id14" gradientUnits="userSpaceOnUse" x1="6489.33" y1="1805.8" x2="6830.57" y2="1871.85">
   <stop offset="0" style="stop-opacity:1; stop-color:#605F54"/>
   <stop offset="0.6" style="stop-opacity:1; stop-color:#B88B66"/>
   <stop offset="0.65098" style="stop-opacity:1; stop-color:#BF8C66"/>
   <stop offset="0.678431" style="stop-opacity:1; stop-color:#B88A68"/>
   <stop offset="1" style="stop-opacity:1; stop-color:#84716B"/>
  </linearGradient>
  <linearGradient id="id15" gradientUnits="userSpaceOnUse" xlink:href="#id14" x1="5878.86" y1="2313.65" x2="7396.31" y2="2607.36">
  </linearGradient>
  <linearGradient id="id16" gradientUnits="userSpaceOnUse" x1="2770.93" y1="1597.67" x2="2695.98" y2="1545.65">
   <stop offset="0" style="stop-opacity:1; stop-color:white"/>
   <stop offset="0.541176" style="stop-opacity:1; stop-color:#E2E2E2"/>
   <stop offset="1" style="stop-opacity:1; stop-color:#C4C4C4"/>
  </linearGradient>
  <linearGradient id="id17" gradientUnits="userSpaceOnUse" x1="6441.3" y1="1282.07" x2="6452.48" y2="1159.11">
   <stop offset="0" style="stop-opacity:1; stop-color:#A98F71"/>
   <stop offset="0.439216" style="stop-opacity:1; stop-color:#D3B089"/>
   <stop offset="1" style="stop-opacity:1; stop-color:#FDD1A1"/>
  </linearGradient>
  <linearGradient id="id18" gradientUnits="userSpaceOnUse" x1="6352.09" y1="1131.96" x2="6955.81" y2="679.146">
   <stop offset="0" style="stop-opacity:1; stop-color:#A98F71"/>
   <stop offset="0.219608" style="stop-opacity:1; stop-color:#D5B28B"/>
   <stop offset="0.329412" style="stop-opacity:1; stop-color:#E5BE93"/>
   <stop offset="0.701961" style="stop-opacity:1; stop-color:#FFE6BB"/>
   <stop offset="1" style="stop-opacity:1; stop-color:#FDD1A1"/>
  </linearGradient>
  <linearGradient id="id19" gradientUnits="userSpaceOnUse" x1="6394.33" y1="1565.96" x2="6621.2" y2="1393.09">
   <stop offset="0" style="stop-opacity:1; stop-color:#A98F71"/>
   <stop offset="0.419608" style="stop-opacity:1; stop-color:#D3B089"/>
   <stop offset="1" style="stop-opacity:1; stop-color:#FDD1A1"/>
  </linearGradient>
  <linearGradient id="id20" gradientUnits="userSpaceOnUse" x1="6824.98" y1="2028.54" x2="7402.56" y2="2140.33">
   <stop offset="0" style="stop-opacity:1; stop-color:#D2AE6D"/>
   <stop offset="1" style="stop-opacity:1; stop-color:#FDD1A1"/>
  </linearGradient>
  <linearGradient id="id21" gradientUnits="userSpaceOnUse" xlink:href="#id6" x1="6337.79" y1="1124.83" x2="7014.12" y2="1124.83">
  </linearGradient>
  <linearGradient id="id22" gradientUnits="userSpaceOnUse" xlink:href="#id11" x1="6500.96" y1="1109.91" x2="6639.78" y2="1153.54">
  </linearGradient>
  <linearGradient id="id23" gradientUnits="userSpaceOnUse" x1="6714.58" y1="1123.02" x2="6769.79" y2="377.618">
   <stop offset="0" style="stop-opacity:1; stop-color:#373435"/>
   <stop offset="1" style="stop-opacity:1; stop-color:#84716B"/>
  </linearGradient>
  <linearGradient id="id24" gradientUnits="userSpaceOnUse" xlink:href="#id7" x1="1134.11" y1="2892.02" x2="1666.13" y2="2537.24">
  </linearGradient>
  <linearGradient id="id25" gradientUnits="userSpaceOnUse" xlink:href="#id7" x1="1468.76" y1="2418.02" x2="2052.25" y2="2028.92">
  </linearGradient>
  <linearGradient id="id26" gradientUnits="userSpaceOnUse" xlink:href="#id7" x1="1200.01" y1="2039.43" x2="1912.34" y2="1564.4">
  </linearGradient>
  <linearGradient id="id27" gradientUnits="userSpaceOnUse" xlink:href="#id7" x1="1093.3" y1="2741.93" x2="1305.51" y2="2600.42">
  </linearGradient>
  <linearGradient id="id28" gradientUnits="userSpaceOnUse" xlink:href="#id14" x1="5228.65" y1="2311.27" x2="6681.5" y2="2592.48">
  </linearGradient>
  <linearGradient id="id29" gradientUnits="userSpaceOnUse" x1="6598" y1="1222.15" x2="6712.03" y2="689.98">
   <stop offset="0" style="stop-opacity:1; stop-color:#A98F71"/>
   <stop offset="0.160784" style="stop-opacity:1; stop-color:#BC9E7C"/>
   <stop offset="0.419608" style="stop-opacity:1; stop-color:#EEC598"/>
   <stop offset="0.780392" style="stop-opacity:1; stop-color:#FFE8BE"/>
   <stop offset="1" style="stop-opacity:1; stop-color:#FDD1A1"/>
  </linearGradient>
  <linearGradient id="id30" gradientUnits="userSpaceOnUse" xlink:href="#id7" x1="1309.09" y1="2571.63" x2="2046.99" y2="2079.57">
  </linearGradient>
  <linearGradient id="id31" gradientUnits="userSpaceOnUse" xlink:href="#id7" x1="1560.26" y1="2003.17" x2="2034.51" y2="1686.92">
  </linearGradient>
  <radialGradient id="id32" gradientUnits="userSpaceOnUse" gradientTransform="matrix(1.05548 -0 -0 1.05542 -368 -79)" cx="6640.65" cy="1418" r="353.031" fx="6640.65" fy="1418">
   <stop offset="0" style="stop-opacity:1; stop-color:#C75EA3"/>
   <stop offset="1" style="stop-opacity:1; stop-color:#A8518A"/>
  </radialGradient>
  <radialGradient id="id33" gradientUnits="userSpaceOnUse" gradientTransform="matrix(1.31974 -0 -0 1.31983 -2166 -447)" cx="6773.9" cy="1397.21" r="39.7559" fx="6773.9" fy="1397.21">
   <stop offset="0" style="stop-opacity:1; stop-color:#FEFEFE"/>
   <stop offset="1" style="stop-opacity:1; stop-color:#FDD1A1"/>
  </radialGradient>
  <radialGradient id="id34" gradientUnits="userSpaceOnUse" gradientTransform="matrix(1.38818 -0 -0 1.38813 -2770 -404)" xlink:href="#id33" cx="7136.86" cy="1040.4" r="44.9606" fx="7136.86" fy="1040.4">
  </radialGradient>
  <radialGradient id="id35" gradientUnits="userSpaceOnUse" gradientTransform="matrix(0.915881 -0 -0 0.915382 555 106)" xlink:href="#id33" cx="6597.59" cy="1252.39" r="34.626" fx="6597.59" fy="1252.39">
  </radialGradient>
  <radialGradient id="id36" gradientUnits="userSpaceOnUse" gradientTransform="matrix(1.04454 -0 -0 1.04441 -297 -56)" xlink:href="#id33" cx="6657.31" cy="1252.31" r="49.5709" fx="6657.31" fy="1252.31">
  </radialGradient>
  <radialGradient id="id37" gradientUnits="userSpaceOnUse" gradientTransform="matrix(0.544021 -0.736152 0.339998 1.17779 746 1806)" cx="2844.47" cy="1620.75" r="66.2756" fx="2844.47" fy="1620.75">
   <stop offset="0" style="stop-opacity:1; stop-color:#E8E8E8"/>
   <stop offset="1" style="stop-opacity:1; stop-color:#FAFAFA"/>
  </radialGradient>
  <radialGradient id="id38" gradientUnits="userSpaceOnUse" gradientTransform="matrix(1.08681 -0 -0 1.08636 -573 -113)" xlink:href="#id33" cx="6601.36" cy="1303.35" r="9.38976" fx="6601.36" fy="1303.35">
  </radialGradient>
  <radialGradient id="id39" gradientUnits="userSpaceOnUse" gradientTransform="matrix(0.962036 -0 -0 0.962052 250 55)" cx="6572.18" cy="1448.74" r="82.2205" fx="6572.18" fy="1448.74">
   <stop offset="0" style="stop-opacity:1; stop-color:#F7ADAF"/>
   <stop offset="1" style="stop-opacity:1; stop-color:#C75EA3"/>
  </radialGradient>
  <radialGradient id="id40" gradientUnits="userSpaceOnUse" gradientTransform="matrix(1.19832 -0 -0 1.19824 -1277 -297)" cx="6438.17" cy="1496.57" r="277.72" fx="6438.17" fy="1496.57">
   <stop offset="0" style="stop-opacity:1; stop-color:#373435"/>
   <stop offset="0.611765" style="stop-opacity:1; stop-color:#84716B"/>
   <stop offset="1" style="stop-opacity:1; stop-color:#FEFEFE"/>
  </radialGradient>
  <radialGradient id="id41" gradientUnits="userSpaceOnUse" gradientTransform="matrix(1.25848 -0 -0 1.25841 -1687 -332)" cx="6527.51" cy="1283.77" r="1011.04" fx="6527.51" fy="1283.77">
   <stop offset="0" style="stop-opacity:1; stop-color:#FDD1A1"/>
   <stop offset="1" style="stop-opacity:1; stop-color:#FFFBD6"/>
  </radialGradient>
  <radialGradient id="id42" gradientUnits="userSpaceOnUse" gradientTransform="matrix(1.38179 -0 -0 1.60873 -2469 -688)" cx="6465.7" cy="1130.82" r="74.2795" fx="6465.7" fy="1130.82">
   <stop offset="0" style="stop-opacity:1; stop-color:#57A695"/>
   <stop offset="1" style="stop-opacity:1; stop-color:#3E4095"/>
  </radialGradient>
  <radialGradient id="id43" gradientUnits="userSpaceOnUse" gradientTransform="matrix(1.03239 -0 -0 1.03243 -216 -47)" cx="6671.09" cy="1435.87" r="84.311" fx="6671.09" fy="1435.87">
   <stop offset="0" style="stop-opacity:1; stop-color:#FEFEFE"/>
   <stop offset="0.529412" style="stop-opacity:1; stop-color:#EA9CAD"/>
   <stop offset="1" style="stop-opacity:1; stop-color:#C75EA3"/>
  </radialGradient>
  <radialGradient id="id44" gradientUnits="userSpaceOnUse" gradientTransform="matrix(1.29669 -0 -0 1.29661 -1977 -405)" cx="6662.57" cy="1366.2" r="420.331" fx="6662.57" fy="1366.2">
   <stop offset="0" style="stop-opacity:1; stop-color:#373435"/>
   <stop offset="0.670588" style="stop-opacity:1; stop-color:#84716B"/>
   <stop offset="1" style="stop-opacity:1; stop-color:#FEFEFE"/>
  </radialGradient>
  <radialGradient id="id45" gradientUnits="userSpaceOnUse" gradientTransform="matrix(1.31476 -0 -0 1.31466 -2040 -348)" cx="6480.17" cy="1107.48" r="218.677" fx="6480.17" fy="1107.48">
   <stop offset="0" style="stop-opacity:1; stop-color:#727376"/>
   <stop offset="0.811765" style="stop-opacity:1; stop-color:#84716B"/>
   <stop offset="1" style="stop-opacity:1; stop-color:#FEFEFE"/>
  </radialGradient>
  <radialGradient id="id46" gradientUnits="userSpaceOnUse" gradientTransform="matrix(1.09917 -0 -0 1.09914 -704 -117)" xlink:href="#id33" cx="7101.98" cy="1179.9" r="256.071" fx="7101.98" fy="1179.9">
  </radialGradient>
  <radialGradient id="id47" gradientUnits="userSpaceOnUse" gradientTransform="matrix(1.43995 -0 -0 1.43984 -2974 -486)" xlink:href="#id42" cx="6760.83" cy="1104.24" r="78.7913" fx="6760.83" fy="1104.24">
  </radialGradient>
  <radialGradient id="id48" gradientUnits="userSpaceOnUse" gradientTransform="matrix(1.20954 -0 -0 1.20945 -1412 -226)" cx="6737.5" cy="1081.23" r="292.988" fx="6737.5" fy="1081.23">
   <stop offset="0" style="stop-opacity:1; stop-color:#848688"/>
   <stop offset="0.419608" style="stop-opacity:1; stop-color:#84716B"/>
   <stop offset="1" style="stop-opacity:1; stop-color:#FEFEFE"/>
  </radialGradient>
  <radialGradient id="id49" gradientUnits="userSpaceOnUse" gradientTransform="matrix(0.969082 -0 -0 0.969296 207 41)" xlink:href="#id33" cx="6707.64" cy="1346.97" r="83.4291" fx="6707.64" fy="1346.97">
  </radialGradient>
  <radialGradient id="id50" gradientUnits="userSpaceOnUse" gradientTransform="matrix(1.26119 -0 -0 1.26113 -1784 -316)" xlink:href="#id33" cx="6829.75" cy="1211.52" r="175.146" fx="6829.75" fy="1211.52">
  </radialGradient>
  <radialGradient id="id51" gradientUnits="userSpaceOnUse" gradientTransform="matrix(1.10129 -0 -0 1.10125 -693 -122)" xlink:href="#id33" cx="6846.17" cy="1206.71" r="78.5197" fx="6846.17" fy="1206.71">
  </radialGradient>
  <radialGradient id="id52" gradientUnits="userSpaceOnUse" gradientTransform="matrix(1.22897 -0 -0 1.2289 -1520 -173)" cx="6639.51" cy="753.843" r="916.122" fx="6639.51" fy="753.843">
   <stop offset="0" style="stop-opacity:1; stop-color:#FFFBD6"/>
   <stop offset="1" style="stop-opacity:1; stop-color:#D2AE6D"/>
  </radialGradient>
  <radialGradient id="id53" gradientUnits="userSpaceOnUse" gradientTransform="matrix(0.339533 -0.0132411 0.00287743 1.56246 1805 -738)" cx="2738.29" cy="1376.37" r="147.236" fx="2738.29" fy="1376.37">
   <stop offset="0" style="stop-opacity:1; stop-color:#CCC8C8"/>
   <stop offset="0.721569" style="stop-opacity:1; stop-color:#E3E0E0"/>
   <stop offset="1" style="stop-opacity:1; stop-color:#FAF7F7"/>
  </radialGradient>
  <radialGradient id="id54" gradientUnits="userSpaceOnUse" gradientTransform="matrix(1.97035 -0.436721 0.676685 1.27163 -3892 725)" cx="2767.7" cy="1782.36" r="51.0787" fx="2767.7" fy="1782.36">
   <stop offset="0" style="stop-opacity:1; stop-color:#BDB9B9"/>
   <stop offset="0.541176" style="stop-opacity:1; stop-color:#D7D5D5"/>
   <stop offset="1" style="stop-opacity:1; stop-color:#F0F0F0"/>
  </radialGradient>
  <radialGradient id="id55" gradientUnits="userSpaceOnUse" gradientTransform="matrix(1.32058 -0 -0 1.32051 -2088 -445)" xlink:href="#id40" cx="6513.52" cy="1387" r="374.811" fx="6513.52" fy="1387">
  </radialGradient>
  <radialGradient id="id56" gradientUnits="userSpaceOnUse" gradientTransform="matrix(2.96567 4.2689E-016 2.3162E-016 2.96565 -2842 -4380)" cx="1445.92" cy="2228.24" r="238.433" fx="1445.92" fy="2228.24">
   <stop offset="0" style="stop-opacity:1; stop-color:#373435"/>
   <stop offset="0.301961" style="stop-opacity:1; stop-color:#403D3F"/>
   <stop offset="0.431373" style="stop-opacity:1; stop-color:#625560"/>
   <stop offset="0.501961" style="stop-opacity:1; stop-color:#A8518A"/>
   <stop offset="0.701961" style="stop-opacity:1; stop-color:#F58634"/>
   <stop offset="0.921569" style="stop-opacity:1; stop-color:#FFF212"/>
   <stop offset="1" style="stop-opacity:1; stop-color:#FFFBD6"/>
  </radialGradient>
  <radialGradient id="id57" gradientUnits="userSpaceOnUse" gradientTransform="matrix(2.0431 -0 -0 1.96958 -1343 -1258)" cx="1287.77" cy="1296.98" r="655.48" fx="1287.77" fy="1296.98">
   <stop offset="0" style="stop-opacity:1; stop-color:#373435"/>
   <stop offset="0.431373" style="stop-opacity:1; stop-color:#625560"/>
   <stop offset="0.501961" style="stop-opacity:1; stop-color:#A8518A"/>
   <stop offset="0.701961" style="stop-opacity:1; stop-color:#F58634"/>
   <stop offset="0.921569" style="stop-opacity:1; stop-color:#FFF212"/>
   <stop offset="1" style="stop-opacity:1; stop-color:#FFFBD6"/>
  </radialGradient>
  <radialGradient id="id58" gradientUnits="userSpaceOnUse" gradientTransform="matrix(2.57122 -0 -0 2.47867 -1707 -4074)" xlink:href="#id56" cx="1086.48" cy="2755.01" r="308.681" fx="1086.48" fy="2755.01">
  </radialGradient>
  <radialGradient id="id59" gradientUnits="userSpaceOnUse" gradientTransform="matrix(2.05502 -0 -0 1.98108 -1540 -1185)" xlink:href="#id57" cx="1459.53" cy="1207.43" r="299.303" fx="1459.53" fy="1207.43">
  </radialGradient>
 </defs>
 <g id="Layer_x0020_1">
  <metadata id="CorelCorpID_0Corel-Layer"/>
  <g>
   <g style="clip-path:url(#id0)">
    <image x="6004" y="2370" width="1342" height="723" xlink:href="portraits_Images\portraits_ImgID1.png"/>
   </g>
  </g>
  <path class="fil0" d="M6522 1630c-29,-41 -66,-79 -96,-120 -15,-21 -28,-44 -38,-67 -7,-45 -33,-88 -39,-135 -9,-46 -7,26 -11,-97 11,-43 6,-100 6,-140 1,-135 17,-253 57,-250 31,-112 63,-142 104,-162 -39,35 -66,65 -59,83 116,-72 374,4 524,162 17,10 34,20 52,30 19,53 35,105 24,163 23,-21 44,-44 67,-65 14,-12 25,-4 35,15 3,5 3,12 6,18 9,18 8,69 1,93 -8,41 -21,82 -40,123 -13,60 -37,55 -66,56 -6,-3 -15,-7 -14,-16 1,-6 -10,-21 -11,-1 -4,39 -4,42 -7,54 -7,32 -17,56 -30,71 -52,67 -111,133 -164,156 -43,20 -89,43 -117,56 -5,2 -15,4 -18,6 -2,0 29,-22 54,-40 19,-13 42,-23 35,-23 -4,0 -51,29 -76,48 -3,0 -5,12 -22,16 -49,9 -110,-2 -157,-34z"/>
  <path class="fil1" d="M6680 1665c12,2 37,-8 45,3 -93,41 -43,86 -61,128 -9,2 -19,4 -28,6 27,64 49,131 143,131 -7,68 -31,86 -51,114 11,-30 14,-54 9,-72 -71,-3 -119,-33 -145,-90 3,35 6,71 0,106 -41,-119 -50,-238 -68,-357 52,27 104,42 156,31z"/>
  <g>
   <g style="clip-path:url(#id1)">
    <image x="6511" y="1714" width="538" height="608" xlink:href="portraits_Images\portraits_ImgID2.png"/>
   </g>
  </g>
  <path class="fil2" d="M6575 1915c-14,-76 -37,-158 -51,-234 -58,11 -107,26 -166,36 -32,7 -72,-1 -110,-3 -120,8 -197,81 -261,174 -65,92 -143,185 -187,285 -112,185 -236,405 -330,554 -51,107 -92,204 -115,298 -18,67 -20,97 61,197 -80,-120 -63,-223 7,-315 12,-153 115,-239 211,-353 40,-47 56,-179 82,-229 -2,-23 161,-257 241,-344 16,-19 89,-101 155,-151 48,-36 89,-57 121,-50 86,20 -58,166 -45,163 39,-8 112,-51 184,-56 87,-5 173,29 203,28z"/>
  <path class="fil3" d="M6730 1661c23,22 -103,33 -66,58 10,18 11,39 18,69 -14,114 58,176 111,107 6,35 -30,94 -59,159 -11,-44 18,-81 -12,-80 -24,2 -81,-29 -137,-88 10,24 28,96 10,128 -9,-37 -26,-70 -38,-99 -14,-36 -26,-38 -29,-71 -7,-63 8,-162 -4,-221 56,43 125,54 206,38z"/>
  <path class="fil4" d="M6603 1054c-46,-16 -60,78 -37,100 13,13 2,19 -2,38 -20,8 -18,31 -8,52 -10,-16 -17,5 -23,33 9,-38 6,-76 9,-115 3,-33 13,-67 4,-100 6,-19 14,-57 20,-75 0,0 42,68 37,67z"/>
  <path class="fil5" d="M6692 754c-26,0 -128,6 -142,28 -6,9 34,4 3,2 -71,-4 -58,35 -75,87 -3,9 22,90 32,96 137,92 -100,-87 -63,32 9,28 102,-3 117,34 8,22 -25,110 -19,125 6,12 7,33 5,47 -2,10 -5,22 -8,30 -5,18 -6,29 7,35 10,4 18,9 23,12 29,17 -15,25 22,37 9,3 52,-13 50,-11 -7,7 -17,42 -15,40 14,-10 -188,1 -139,78 32,53 47,43 102,57 34,9 92,-40 129,-56 4,-2 9,3 -75,56 -84,55 -111,130 -30,155 10,3 3,-25 17,-22 5,1 2,18 51,18 42,0 73,-42 91,-97 27,-81 27,-187 -9,-216 -60,-49 -65,-65 -91,-97 -4,-5 -23,-7 -10,-7 14,0 80,34 96,48 30,27 65,64 84,86 17,19 24,18 15,-36 -12,-76 23,94 40,37 26,-82 92,-191 103,-282 10,-79 30,76 11,97 -15,17 -117,210 -140,214 -24,4 -77,-33 -76,14 0,14 -2,46 -7,73 -7,41 -22,103 -51,139 -6,6 -13,10 -19,16 -3,3 -8,7 -6,9 2,3 11,-2 25,-12 21,-14 49,-31 44,-25 -17,18 -73,52 -99,64 -28,14 -75,7 -104,-5 -24,-9 -57,-20 -77,-50 -16,-24 -44,-54 -60,-73 -27,-32 -54,-74 -59,-103 -3,-21 -23,-71 -27,-83 -20,-69 -20,-57 -18,-136 0,-13 5,-34 6,-62 1,-24 -1,-54 -2,-71 -4,-107 13,-204 52,-285 58,-122 268,-214 296,-37z"/>
  <path class="fil6" d="M6372 1352c55,96 107,162 136,183 8,5 8,14 -1,23 -6,6 9,31 13,43 -60,-84 -118,-188 -148,-249z"/>
  <path class="fil7" d="M6351 1145c1,3 33,5 52,23 9,8 55,-3 64,-5 2,0 -13,1 -17,1 -15,-1 -1,0 -15,-1 -17,-1 -33,-12 -27,-13 9,-1 19,0 29,0 14,-1 33,-9 40,-6 5,2 15,-1 39,-1 8,0 15,-4 17,-8 3,-8 -4,-20 -14,-29 -3,-3 -7,-7 -10,-10 -4,-4 -10,-6 -14,-8 -14,-7 -20,-6 -19,-7 0,0 19,0 35,11 11,8 22,19 26,27 3,4 1,22 -4,26 -3,2 -11,-1 -16,2 -22,10 -64,22 -99,24 -14,0 -33,-8 -35,-4 -1,3 6,7 29,14 45,3 89,-20 127,-26 16,-43 3,-60 3,-90 -4,-1 -4,-5 -12,-5 -32,-1 -24,-19 -33,-28 -35,-17 -70,-31 -99,-16 -9,7 -19,12 -29,19 38,-7 69,-6 86,9 24,20 -24,21 -35,23 -21,3 -51,26 -59,46 -3,5 -1,11 1,16 2,13 5,21 -11,16z"/>
  <path class="fil8" d="M6502 1162c-42,19 -79,18 -114,7 38,5 76,3 114,-7z"/>
  <path class="fil9" d="M6659 1468c-20,-34 -78,-61 -99,-96 -3,-5 -17,-4 -21,-5 4,-6 -53,2 -4,-11 10,-3 23,-14 72,-12 -2,-7 -3,-13 -4,-20 -12,-7 -28,-1 -45,-12 -2,-12 -10,-20 -9,-29 -12,0 -20,-3 -26,-14 -7,2 -10,10 -15,13 -1,-20 3,-36 13,-42 9,-6 16,-4 19,4 -2,-31 0,-62 4,-93 -4,4 -31,65 -61,118 -23,42 -49,73 -55,99 8,-17 15,-31 26,-22 12,27 4,57 19,71 37,35 65,65 87,69 8,-2 36,4 55,1 22,-2 35,-20 44,-19z"/>
  <path class="fil10" d="M6658 1215c-4,-14 163,112 189,145 -4,-2 -9,-9 -13,-11 -3,-1 -9,-4 -7,2 6,12 6,18 -3,25 -6,-18 -8,-32 -12,-31 -3,1 -7,3 -5,24 0,5 -10,0 -9,14 -102,72 -137,82 -178,103 -15,-2 -44,0 -59,-2 -50,-26 -65,-55 -89,-72 -1,-7 -1,-14 -2,-21 20,-15 48,-23 84,-23 22,8 46,8 74,0 51,-10 104,-8 155,-7 71,-7 -52,-93 -84,-107 -9,6 -27,34 -36,40 -11,-1 -45,0 -34,4 4,1 1,2 -5,2 -6,0 -15,-1 -19,2 -3,2 -4,0 -5,0 0,-9 2,-9 11,-8 3,1 5,-3 9,-4 4,-2 9,-2 18,-4 3,-1 8,-4 13,-4 4,0 7,0 12,0 12,0 29,-20 31,-31 2,-19 -30,-26 -36,-36z"/>
  <path class="fil11" d="M6485 1394c15,-5 66,-15 112,-7 56,-10 133,-19 198,-17 -6,10 -41,58 -194,80 -42,5 -100,-18 -116,-41 -3,-6 -7,-14 0,-15z"/>
  <path class="fil12" d="M6799 1372c-51,36 -98,75 -181,100 -20,-2 -41,-3 -62,-4 -25,-16 -49,-33 -74,-49 24,21 64,19 78,31 9,1 23,3 41,1 65,-18 133,-26 198,-80 -51,0 -109,-5 -168,3 -9,4 -20,4 -28,9 -18,-3 -32,-4 -50,-6 -15,1 -31,7 -46,8 19,-10 49,-17 93,-10 18,-4 35,-7 54,-11 53,4 98,7 145,8z"/>
  <path class="fil13" d="M6519 1397c0,13 0,25 4,28 5,14 17,17 23,8 9,9 16,9 23,-2 -3,14 18,14 35,6 2,-1 0,-3 1,-6 1,4 2,2 7,8 4,5 29,4 35,-9 12,10 25,1 37,-18 13,7 25,12 31,-6 9,6 21,3 25,-6 8,2 10,7 18,-3 -1,-6 -1,-12 -2,-19 -8,-7 -10,1 -12,8 -10,-13 -21,-12 -28,2 -18,-17 -28,-10 -35,10 -6,-13 -29,-29 -36,3 1,-5 0,-12 -4,-13 -12,-1 -31,1 -35,5 -3,3 -2,8 -2,14 -1,-5 -3,-8 -4,-12 -2,-5 -20,-9 -31,-1 -3,2 -2,10 -3,14 -8,-27 -26,-15 -24,2 -3,-18 -12,-17 -23,-13z"/>
  <path class="fil11" d="M6546 1309c-7,-3 -7,-6 -9,-9 -4,0 -7,0 -9,1 0,1 -1,2 11,6 2,1 5,1 7,2z"/>
  <path class="fil11" d="M6652 1289c-7,-2 -17,-3 -30,0 -4,3 -8,6 -12,8 15,-5 38,-3 42,-8z"/>
  <path class="fil14" d="M7071 1096c9,-7 22,-29 38,-29 22,3 25,73 30,126 4,-37 2,-73 5,-109 -16,-27 -26,-35 -39,-23 -2,-6 3,-18 3,-24 -11,8 -26,44 -37,59z"/>
  <path class="fil15" d="M7075 1128c29,-2 49,6 57,56 -2,12 -5,23 -9,34 3,1 5,3 8,3 -2,11 -10,28 -16,29 -5,-13 1,-20 8,-29 -8,-6 -21,-4 -29,5 -1,29 -20,25 -38,24 -6,-13 3,-26 32,-29 20,-37 -38,27 -35,-34 17,4 12,28 42,19 13,-29 -10,-45 -20,-43 -12,1 -14,15 -21,15 -11,-4 -7,-39 6,-39 2,3 -1,23 8,17 2,-10 1,-19 7,-28z"/>
  <path class="fil16" d="M6758 771c-49,0 -137,37 -134,91 2,48 -4,107 65,120 6,1 30,31 41,29 48,-11 111,19 154,52 4,3 -15,10 -12,15 3,6 29,8 27,13 0,1 -146,21 -121,30 17,7 146,-4 27,27 -6,1 1,25 -10,26 -12,0 -19,-17 -37,-17 -79,0 -96,-25 -105,-49 -34,-94 -50,-70 -52,-71 -14,-10 -26,-48 -26,-45 -4,12 -3,38 -16,45 -14,8 -49,-17 -58,-12 -4,3 -48,3 -70,-27 -46,-65 18,-84 55,-46 8,8 32,30 13,3 -27,-36 -60,-148 -5,-191 31,-24 140,-28 148,-26 11,3 -129,-122 -166,-72 -102,141 -51,12 22,-1 82,-14 103,-28 183,12 25,11 79,62 77,94z"/>
  <path class="fil17" d="M6661 1218c-2,-7 -23,2 -25,-5 -9,-25 -5,-66 -9,-92 -3,-24 -6,-47 -9,-71 -18,62 -22,131 -28,203 16,-20 40,-17 71,11 -13,-25 -17,-42 0,-46z"/>
  <path class="fil18" d="M6743 754c-17,-57 -97,3 -116,23 -26,25 -55,71 -55,105 0,20 3,51 3,66 0,14 17,34 6,31 -3,0 -14,-9 -14,-3 -1,11 1,9 5,19 8,27 20,46 58,77 5,4 25,33 31,41 7,9 -6,8 2,16 29,30 60,48 60,-22 0,-28 12,-65 3,-91 -8,-26 -25,-32 -51,-26 -8,2 9,42 -24,-14 -35,-59 27,-196 55,-196 9,-18 115,29 164,57 25,15 -1,-19 5,-14 16,15 -84,-55 -132,-69z"/>
  <path class="fil19" d="M6712 761c36,6 146,48 225,138 10,12 -1,37 -2,49 11,7 91,-45 73,0 -8,18 -8,29 -35,29 26,1 51,12 41,16 -11,-2 -32,-9 -46,3 38,-5 74,5 66,29 -26,-17 -55,-25 -61,-5 -2,7 17,21 35,35 -13,4 -27,1 -40,-8 18,8 30,17 45,47 13,25 -25,46 -1,49 14,0 28,-5 42,-17 35,-50 52,-71 68,-106 -133,-138 -284,-316 -410,-259z"/>
  <path class="fil20" d="M6343 1086c-18,-88 -4,-237 41,-337 39,-83 72,-180 124,-229 74,-103 143,-133 204,-57 17,14 44,68 48,6 2,-31 81,-26 84,-1 11,-4 31,0 42,-5 17,-8 27,-51 41,-11 -12,-5 -18,-13 -17,16 44,-18 84,-26 92,38 -26,-51 -48,-42 -82,-32 18,5 32,26 50,32 41,-9 68,5 71,29 -2,11 -3,25 1,34 66,7 93,43 108,85 1,33 5,64 -8,84 21,23 18,36 6,78 3,18 -9,25 -18,35 45,137 -31,157 10,184 -32,-26 -38,6 -64,54 -25,29 -43,31 -57,20 0,-78 35,-78 14,-104 -11,-5 -16,-17 -27,-23 -14,-25 9,-50 -4,-57 -11,-4 -27,-1 -46,6 14,-15 -1,-30 -24,-58 -36,-23 -46,-47 -104,-74 -40,-26 -82,-35 -125,-39 -78,-16 -132,-30 -149,-30 -51,-5 -90,0 -112,17 -1,-24 27,-58 58,-84 -33,12 -56,55 -78,95 -8,22 -16,43 -23,64 -52,8 -40,166 -56,264z"/>
  <path class="fil21" d="M6480 584c16,-32 122,-151 168,-136 25,8 48,56 41,34 -24,-76 -156,63 -83,27 3,-1 13,1 13,-5 -4,-22 19,-32 30,-32 19,0 22,21 34,24 34,10 79,12 130,42 24,14 71,2 71,-21 0,-19 46,-45 15,-13 -32,31 71,130 71,77 0,-52 26,-112 62,-39 16,33 -49,-66 -49,10 0,56 23,69 59,87 15,7 83,21 40,-12 -38,-29 26,4 26,-11 0,-10 -26,-15 -33,-18 -93,-46 27,2 46,20 22,22 27,48 27,81 0,33 -43,66 -43,77 0,5 12,25 19,24 7,0 20,-72 24,-48 6,32 2,27 -6,25 -32,-6 -15,27 -15,27 4,5 21,-6 7,11 -11,14 -42,-32 -47,-55 -20,-89 -92,-76 -147,-97 -6,-3 56,0 85,29 41,39 67,67 76,67 16,0 -19,-49 -46,-70 -13,-10 12,-20 9,-28 -5,-10 -28,2 -28,-5 0,-23 -28,-15 0,14 8,7 -139,-64 -192,-70 -40,-5 -384,-13 -384,46 0,5 -9,21 -9,30 0,4 -47,115 -50,116 -66,20 -58,303 -62,283 -4,-21 -9,-62 5,-164 16,-115 79,-246 91,-271 9,-19 16,-59 45,-56z"/>
  <path class="fil22" d="M6899 482c-10,4 -19,9 -19,20 0,3 -9,10 -9,0 0,-4 -2,-14 0,-17 0,0 6,-9 6,-9 5,-8 -8,2 -10,3 0,0 -6,17 -10,13 -3,-3 3,-16 2,-16 -9,0 -8,22 -6,26 3,7 -2,10 -9,10 -8,0 -10,-16 -10,-24 0,-14 -10,6 -17,10 -6,3 -6,-19 -6,-23 0,-14 -1,-1 -11,0 -7,1 -9,7 -13,9 -2,0 8,-19 10,-21 0,0 13,-10 6,-10 -5,0 -10,0 -13,3 -3,3 3,-3 4,-3 19,-2 23,2 32,6 5,3 14,20 27,7 1,-1 29,-3 33,-3 11,0 39,23 41,29 2,3 32,19 31,22 -3,5 -19,36 -19,11 0,-6 7,-26 0,-18 -2,1 -7,5 -7,5 -2,3 -3,15 -9,3 -3,-6 -16,-40 -24,-33z"/>
  <path class="fil23" d="M6506 641c33,-38 15,8 30,8 61,0 125,-66 198,-42 14,4 -86,27 -78,27 108,0 158,-8 251,22 49,16 -34,-3 -56,-6 -76,-10 -124,0 -198,0 -23,0 -81,23 -23,16 89,-10 132,3 208,16 16,2 140,44 144,48 16,16 29,-4 53,3 37,12 65,16 3,9 -111,-13 13,36 47,59 26,17 -41,-22 -50,-25 -80,-26 -36,-7 -36,-7 0,14 -96,-49 -109,-57 -23,-15 -122,-53 -151,-45 -31,10 -130,16 -169,16 -7,0 122,29 191,29 47,0 90,33 136,40 13,1 22,21 46,24 9,2 -36,-54 -11,-21 13,18 169,115 191,115 2,0 17,41 15,37 -21,-65 -281,-167 -351,-184 -33,-7 -89,-11 -124,-11 -51,0 88,33 88,33 86,0 235,125 304,159 95,47 53,59 -14,-9 -19,-18 -59,-20 -71,-31 -2,-3 91,49 110,87 10,20 38,26 47,45 1,3 -40,34 -40,47 -9,95 -7,-49 -22,-87 -7,-19 -145,-130 -156,-130 0,0 -201,-93 -187,-78 16,15 128,61 157,76 38,18 70,56 106,79 129,86 -52,-45 -82,-59 -54,-28 -125,-68 -185,-91 -52,-18 -136,-38 -198,-38 -12,0 -65,11 -32,1 43,-14 46,-40 99,-40 8,0 -35,-12 -63,-3 -7,1 -18,16 -24,19 -55,27 36,-58 -3,-32 -6,4 -46,53 -46,42 0,-29 52,-36 55,-61z"/>
  <path class="fil11" d="M6383 750c0,-30 49,-54 49,-98 0,-9 39,-28 36,-28 -36,0 -14,23 23,23 0,0 20,-18 44,-26 17,-5 54,-32 71,-21 17,11 46,0 28,-12 -17,-11 29,12 35,12 72,0 22,-12 36,-12 33,0 84,30 96,4 5,-9 17,43 33,11 1,-3 57,-4 60,8 3,10 56,38 71,38 55,0 17,-27 17,-35 0,-3 -6,-14 -10,-9 -31,31 6,8 -39,8 -25,0 14,-7 8,-21 -13,-25 -48,27 -48,3 0,-9 34,-31 9,-56 -8,-8 -26,23 -26,25 0,24 -8,-11 -35,-11 0,0 -27,17 -18,22 12,6 -31,11 -16,-5 14,-14 24,0 11,-6 -32,-16 6,13 6,-13 0,-20 -32,-30 -32,-34 0,-24 -25,7 -25,17 0,20 -11,0 -11,0 -9,-5 -48,8 -34,14 6,3 -8,24 14,29 22,4 28,-41 51,-18 10,10 -76,44 -76,-5 0,-17 -17,-4 -20,-4 -17,1 -40,4 -3,0 34,-3 11,-27 23,-14 14,14 51,-16 33,-26 -27,-12 -34,7 -34,24 0,3 -14,-13 -23,-22 -10,-10 -42,17 -13,31 30,15 -15,-1 11,11 5,2 -39,24 -12,24 23,0 0,28 -8,-3 -2,-11 4,-30 -3,-30 -25,0 -8,-32 -8,-44 0,-24 -31,35 -31,35 -9,0 -12,22 -14,23 -15,16 50,-96 -6,-68 -33,16 -20,11 -2,30 2,2 -20,24 -32,24 -2,0 6,-39 -16,-25 -9,6 3,27 10,27 4,0 -14,18 -16,18 -3,0 -14,-9 -19,-14 -7,-8 22,-20 -15,5 -14,9 -39,16 -36,24 10,20 72,30 20,9 -7,-3 -29,-8 -40,-8 -6,0 -8,10 -8,14 0,4 11,43 -3,15 -9,-19 -26,63 -48,69 -4,2 -18,-30 -18,13 0,0 3,53 3,58z"/>
  <g>
   <g style="clip-path:url(#id2)">
    <image x="6383" y="495" width="608" height="255" xlink:href="portraits_Images\portraits_ImgID3.png"/>
   </g>
  </g>
  <path class="fil24" d="M6660 1131c15,2 26,-5 27,-15 -19,6 -27,5 -25,-2 18,-12 -17,9 -4,-38 10,6 14,13 14,21 8,-21 27,-34 48,-40 -13,2 -27,6 -46,18 -13,-11 -23,-8 8,-45 5,-7 0,-9 -16,-7 -10,2 -19,7 -29,11 -3,-4 -5,-11 -5,-16 28,-25 41,-33 50,-32 39,-5 82,-12 110,-7 38,13 67,25 79,45 -23,-11 -49,-31 -83,-30 -33,6 -56,15 -71,21 35,-1 56,5 70,14 15,6 28,12 37,21 3,3 46,14 49,17 3,3 -32,-1 -29,2 4,3 7,7 10,10 16,5 25,7 41,7 -9,9 -36,11 -61,13 -25,-3 -43,13 -62,25 -3,2 -14,3 -18,3 -11,2 -33,4 -41,5 -3,0 -2,1 12,4 6,2 32,1 38,2 5,1 18,-8 17,-9 0,-1 2,-1 3,-1 23,-1 48,-1 73,2 -48,6 -86,23 -130,23 -31,-4 -49,-16 -66,-22z"/>
  <path class="fil25" d="M6642 1018c10,-15 27,-26 64,-31 5,1 9,2 13,3 19,-2 37,-4 56,-6 17,-2 27,4 38,9 -24,-5 -43,-3 -70,2 -12,3 -31,2 -43,9 -13,12 -37,20 -58,14z"/>
  <path class="fil8" d="M6714 1110c1,7 18,9 20,15 0,1 17,-3 14,-4 -4,-1 12,-2 17,-9 -11,3 -28,9 -38,2 -3,-2 -10,-2 -13,-4z"/>
  <path class="fil8" d="M6684 1133c35,17 78,14 124,1 -42,6 -84,9 -124,-1z"/>
  <path class="fil26" d="M6539 1099c-7,-24 -42,-32 -62,-46 0,5 -3,13 -13,18 -28,1 -59,14 -77,31 -23,22 -25,47 13,31 2,-1 9,4 11,2 15,1 10,3 2,-5 -6,-5 -9,-12 -3,-9 20,-21 43,-21 65,-26 13,3 30,14 47,28 -3,3 1,5 10,6 1,-8 -13,-12 -19,-21 -7,-11 -25,-18 -37,-22 -15,-2 -33,3 -50,9 10,-10 27,-17 58,-18 23,5 44,16 53,28 6,7 1,14 6,21 -1,-9 -3,-18 -4,-27z"/>
  <path class="fil13" d="M6518 1123c-18,-15 -30,-24 -48,-23 -9,0 -20,6 -34,8 -5,0 -17,4 -26,14 3,2 6,7 10,7 32,-1 56,17 87,-5 3,-2 7,1 11,-1z"/>
  <path class="fil27" d="M6498 1107c1,7 2,17 -7,23 -15,7 -12,8 -29,4l-25 -4c-6,-1 -6,-17 -5,-22 18,-2 43,-18 66,-1z"/>
  <path class="fil13 str0" d="M6482 1103c-3,-4 -16,-2 -19,1 -1,2 6,3 5,5 0,0 19,0 14,-6z"/>
  <circle class="fil11 str0" cx="6469" cy="1113" r="7"/>
  <path class="fil26" d="M6484 1039c-31,-26 -61,-24 -85,-18 0,-1 32,1 57,9 23,8 41,21 28,9z"/>
  <path class="fil28" d="M6520 1165c-4,2 -79,12 -82,12 -3,0 -56,-6 -46,-3 26,7 21,21 1,27 -19,6 33,35 33,42 1,33 52,-8 58,-61 2,-15 33,-8 36,-17z"/>
  <path class="fil29" d="M6878 1217c20,-29 -54,-37 -65,-21 -14,21 50,42 65,21z"/>
  <path class="fil30" d="M6604 1246c-20,-5 -31,17 -12,14 12,-2 22,2 21,-9 0,-5 -5,-5 -9,-5z"/>
  <path class="fil31" d="M6669 1240c0,5 4,11 1,14 -12,8 -43,3 -33,6 36,12 56,-4 32,-20z"/>
  <path class="fil32" d="M6604 1300c-19,-4 7,18 0,0z"/>
  <path class="fil33" d="M6708 1424c-10,0 -34,12 -52,18 -13,4 -24,4 -23,5 37,4 53,-11 63,-14 3,0 16,-9 12,-9z"/>
  <path class="fil34" d="M6605 1447c-7,-7 -17,3 -34,-2 -37,-11 -32,-4 -35,-6 -5,-3 12,15 22,16 31,6 63,5 47,-8z"/>
  <path class="fil35" d="M6745 1345c-15,0 -30,-2 -44,-2 -9,0 -23,0 -30,2 -4,1 11,2 15,3 10,1 22,2 33,2 4,0 26,3 26,-5z"/>
  <path class="fil36" d="M6792 1382c-5,15 -18,26 -36,31 12,-10 24,-22 36,-31z"/>
  <path class="fil37" d="M7083 1095c0,12 -5,23 -15,33 4,-2 9,-8 14,-10 18,5 36,-11 54,58 -4,19 0,42 -35,43 -12,0 -10,13 -11,23 -16,3 -31,5 -31,-5 -1,-9 -8,-21 14,-21 12,-10 33,-11 26,-40 -6,-6 -6,-5 -12,-11 -11,1 -23,5 -21,25 11,-3 14,3 9,15 -19,9 -22,2 -23,-8 0,-8 0,-16 0,-23 -7,15 -16,30 3,40 -1,8 -3,16 -5,25 0,5 3,10 18,17 12,-5 21,-2 43,-24 6,-9 10,-19 20,-20 10,11 -12,51 -25,83 21,-37 36,-69 42,-93 5,-23 17,-86 10,-96 -4,8 -4,22 -6,36 -3,16 -7,33 -11,42 -7,-44 -18,-89 -12,-94 -6,-4 -6,-14 -10,-19 -3,-4 -11,-4 -15,-6 -8,8 2,20 19,28 -6,-1 -21,-6 -40,2z"/>
  <path class="fil38" d="M7157 1060c-18,-38 -32,-48 -40,-30 2,-3 7,-3 10,-2 8,2 18,12 30,32z"/>
  <path class="fil39" d="M7033 1302c-15,73 -46,124 -85,178 -44,62 -120,107 -177,103 -42,30 -83,65 -129,19 -10,16 -26,40 -36,56 29,4 60,4 93,-2 70,-19 131,-42 182,-84 44,-32 78,-78 104,-126 22,-43 40,-88 48,-144z"/>
  <path class="fil40" d="M6446 1348c9,18 0,45 8,63 8,16 34,23 47,42 -8,44 -13,82 41,87 17,-5 28,-3 45,-7 -60,32 -56,52 -52,78 -12,-18 -14,-48 -21,-66 -8,-21 -16,-31 -25,-43 -61,-32 -50,-101 -43,-154z"/>
  <g>
   <g>
    <path class="fil11" d="M7066 1323c-13,-39 31,-30 35,-7 -3,22 -17,16 -25,25 0,4 1,9 1,14 7,-3 14,0 21,9 8,17 -1,24 -16,27 2,6 -1,12 -10,18 -19,-22 -14,-31 -14,-42 2,-4 4,-8 5,-12 8,-11 4,-22 3,-32z"/>
    <ellipse class="fil11" cx="7089" cy="1318" rx="11" ry="13"/>
    <ellipse class="fil11" cx="7088" cy="1374" rx="11" ry="12"/>
   </g>
   <g>
    <g>
     <g style="clip-path:url(#id3)">
      <image x="7060" y="1296" width="43.7953" height="112.343" xlink:href="portraits_Images\portraits_ImgID4.png"/>
     </g>
    </g>
    <g>
     <g style="clip-path:url(#id4)">
      <image x="7080" y="1305" width="21.7953" height="25.4803" xlink:href="portraits_Images\portraits_ImgID5.png"/>
     </g>
    </g>
    <g>
     <g style="clip-path:url(#id5)">
      <image x="7080" y="1362" width="21.0669" height="24.0236" xlink:href="portraits_Images\portraits_ImgID6.png"/>
     </g>
    </g>
   </g>
  </g>
  <path class="fil41" d="M6746 1215c14,25 75,73 116,74 14,0 13,-20 23,-28 25,-20 43,-54 10,-124 -40,-18 -68,75 -149,78z"/>
  <path class="fil13" d="M6699 1104c36,-43 70,-46 116,-17 10,2 -8,14 -33,18 -27,5 -35,5 -71,0 -2,0 -14,2 -12,-1z"/>
  <path class="fil42" d="M6727 1078c-3,5 -3,19 1,29 23,7 44,0 66,-4 3,-8 1,-18 0,-26 -28,-13 -48,-14 -67,1z"/>
  <ellipse class="fil11" cx="6760" cy="1090" rx="8" ry="7"/>
  <path class="fil13" d="M6758 1084c-9,3 -10,-6 -2,-7 5,0 15,-4 18,-3 11,1 11,8 5,10 -6,2 -12,-2 -21,0z"/>
  <ellipse class="fil13" cx="6798" cy="1089" rx="3" ry="5"/>
  <ellipse class="fil13" cx="6722" cy="1089" rx="2" ry="4"/>
  <path class="fil26" d="M6683 1059c17,-10 35,-13 53,-14 46,-4 91,13 105,30 -34,-20 -75,-24 -100,-21 5,1 13,3 18,3 23,0 46,8 62,22 4,3 9,5 12,9 -5,1 -11,-3 -14,0 -3,4 -8,10 -17,14 2,-6 6,-10 8,-16 -34,-28 -76,-14 -78,-15 -7,3 -21,9 -26,14 -9,10 -19,21 -29,21 6,-9 13,-38 46,-49 -12,-4 -34,6 -40,2z"/>
  <path class="fil43" d="M6934 2045c168,-14 314,-31 468,-51 -175,35 -502,74 -383,109 -6,61 -56,72 -147,60 -14,-47 -46,-95 62,-118z"/>
  <path class="fil44" d="M6083 2077c-25,198 -68,382 -174,519 22,-22 43,-54 73,-40 42,-20 64,-56 66,-109 4,-21 39,-46 104,-74 62,-9 131,3 210,17 53,9 114,17 168,27 143,18 320,46 397,78 68,27 160,73 231,146 32,32 75,44 99,67 26,25 72,133 95,136 15,-26 -34,-130 -19,-156 -7,-105 -36,-182 -41,-190 0,27 15,66 15,94 -20,-41 -49,-80 -78,-102 65,83 98,161 61,183 42,56 -18,38 -95,-13 -75,-79 -162,-120 -253,-167 -195,-78 -298,-75 -263,-155 -44,46 -104,78 -160,73 -162,-29 -161,-71 -228,-104 -141,41 -199,75 -230,112 -6,-21 -8,-30 20,-119 -9,-58 -3,-151 2,-223z"/>
  <g>
   <path class="fil1 str0" d="M6384 2479c14,-19 58,-76 67,-55 11,109 -3,43 90,58 60,10 -67,63 -68,64l0 0c-25,9 28,57 7,69 -5,4 -20,-10 -25,-14l0 0c-81,-68 -22,-12 -112,-18 -42,-3 37,-45 18,-56 -6,-4 -121,-97 -31,-70 21,8 32,17 54,22zm67 -55l0 0 0 0 0 0zm-121 33l0 0 0 0 0 0zm55 29l0 6c-31,-6 -45,-20 -69,-26 16,16 32,36 50,50l0 -1c32,18 -11,45 -21,56 14,0 52,-12 62,-15 18,-1 44,22 62,38 0,-1 0,-3 0,-5l0 0c-5,-11 -17,-22 -17,-36 0,-20 67,-45 86,-57l0 0 2 -1c-20,-3 -41,0 -60,3l0 0c-46,14 -36,-33 -40,-63 -16,13 -39,42 -48,54l-7 -3zm22 70l0 0 -1 0c0,0 1,0 1,0z"/>
  </g>
  <path class="fil1" d="M6386 2487c4,-11 57,-67 59,-61 6,21 -8,82 33,66 8,-3 102,-12 63,9 -17,9 -51,33 -70,39 -30,9 4,40 4,49 0,30 11,24 -17,6 -12,-6 -32,-38 -51,-33 -1,0 -83,29 -67,6 5,-8 49,-35 24,-47 -14,-7 -27,-25 -38,-36 -21,-21 -43,-37 2,-22 17,5 40,22 57,22"/>
  <g>
   <path class="fil1 str0" d="M6632 2599c32,34 14,53 20,63 5,-2 9,-10 11,-13 18,-94 53,-12 56,-10l0 0c5,2 17,10 25,13 1,-19 -21,-43 -31,-56 -20,-33 49,-34 55,-75l-1 1c-38,11 -19,7 -58,13l1 0c-64,32 -15,16 -62,-41 -2,-2 -7,-9 -12,-12 -3,28 75,74 -82,98 24,8 64,12 73,18l1 6 4 -5zm81 -3l0 0 0 0 0 0zm54 -74l-1 1 1 -1 0 0zm-143 86c-1,0 -1,0 -2,0l0 -12c-2,0 -2,1 -5,2l1 8c2,2 1,2 2,2 -201,-51 -9,-27 18,-71 9,-22 -27,-51 -10,-66 24,-20 52,59 55,68 1,-1 2,-1 2,-2 45,-27 56,-13 75,-25 35,-23 28,25 -10,51 -72,50 25,32 4,98 0,1 0,2 -1,2 -18,23 -62,-44 -62,-44 -20,-4 -4,31 -29,52 -31,24 -14,-36 -38,-63zm130 53l0 1 0 -1 0 0z"/>
  </g>
  <path class="fil1" d="M6628 2603c18,19 17,24 17,50 0,27 16,14 24,-2 4,-9 1,-45 24,-38 13,4 12,26 24,32 4,1 30,18 31,14 10,-22 -19,-50 -30,-66 -12,-17 29,-32 42,-45 8,-8 15,-14 15,-27 0,-18 -3,-9 -12,-4 -8,5 -44,11 -54,12 -10,1 -34,35 -34,1 0,-14 -45,-77 -45,-47 0,21 24,34 14,57 -12,25 -71,30 -97,34 -43,7 82,28 75,28"/>
  <g>
   <path class="fil1 str0" d="M6906 2594c36,-19 18,-9 53,-29l0 0c55,-28 15,44 3,65 21,6 108,17 72,41 -14,4 -78,12 -85,17 -12,34 5,115 -31,89 -47,-31 14,-87 -53,-76 -204,36 -3,-52 -21,-82 -13,-21 -12,-22 -22,-44 -23,-94 64,-2 86,23l-2 -4zm128 77l0 0 0 0 0 0zm-212 -96l0 0 0 0 0 0zm88 26l-11 5c-15,-16 -44,-43 -66,-57 -1,28 2,28 22,63l0 0c11,20 -5,31 -18,46l1 0c-10,9 -40,29 -49,38 24,-2 50,-3 74,-7 66,-12 36,28 51,64 20,50 14,-28 15,-31 1,-84 70,-38 99,-62 -8,-5 -38,-11 -45,-12 -77,-17 -5,-28 -8,-77 -10,4 -60,32 -63,34l-2 -4z"/>
  </g>
  <path class="fil1" d="M6909 2599c17,-8 37,-19 53,-29 45,-26 -2,49 -8,61 -4,10 106,18 77,35 -10,6 -82,8 -87,18 -15,31 -7,44 -7,76 0,31 -32,8 -32,-19 0,-74 -22,-42 -74,-42 -7,0 -47,4 -49,3 -14,-10 43,-35 50,-47 7,-10 28,-24 17,-40 -6,-10 -17,-30 -21,-42 -4,-9 -1,-24 -1,-35 0,-2 70,49 78,65"/>
  <g>
   <path class="fil1 str0" d="M7075 2813c1,13 4,47 6,60 35,-22 56,-48 84,12 2,-17 3,-47 0,-56l0 1c-19,-34 3,-36 35,-42l0 0c0,0 20,0 29,0 -1,-1 -1,-1 -4,-8 -37,-49 -79,22 -106,-69l-7 -18c-7,-8 -9,-10 -11,-12 13,124 -24,75 -98,80 7,6 20,15 23,18l-1 0c9,7 23,20 34,23l0 12c-11,-2 -15,-5 -24,-11 -41,-29 -83,-61 -2,-51 117,14 28,-68 59,-92 30,9 38,42 43,68 9,19 21,18 41,20 71,7 76,50 57,53 -92,10 -54,-10 -53,41 2,131 -37,24 -51,19 -42,-16 -49,100 -67,-48l13 0z"/>
  </g>
  <path class="fil1" d="M7068 2813c0,19 7,36 7,56 0,41 36,-37 65,-8 16,16 32,73 32,11 0,-12 4,-36 -1,-46 -18,-27 2,-26 30,-31 27,-6 45,10 29,-18 -24,-40 -87,-5 -101,-48 -4,-14 -4,-25 -12,-39 -4,-7 -18,-19 -23,-24 -2,-2 5,48 5,65 0,50 -64,24 -94,24 -32,0 8,17 16,28 5,6 29,25 38,25"/>
  <g>
   <path class="fil1 str0" d="M6168 2432c7,-5 21,-16 30,-18 5,-3 30,-8 46,-8 1,-1 2,-1 2,-2 0,1 0,1 -1,2 15,-1 22,1 6,10 -5,4 -5,5 -11,5 -13,3 -12,5 -21,15 -1,1 -2,3 -3,5l0 -1c-2,10 -4,12 -9,21l0 -1c-8,11 -4,6 -13,15l-9 -9c18,-18 13,-25 28,-43 -2,0 -4,1 -6,1 -3,1 -3,2 -5,2 -13,7 -15,10 -28,17l-6 -11zm30 -18l0 0c0,0 0,0 0,0zm19 5l0 -1 0 1 0 0z"/>
  </g>
  <path class="fil1" d="M6171 2438c3,-2 9,-6 12,-8 4,-4 12,-7 17,-10 1,0 4,-2 5,-2 7,0 12,-3 19,-3 2,0 15,-3 18,-3 0,0 15,-6 6,-1 -5,3 -5,4 -9,4 -6,1 -13,3 -17,8 -1,1 -7,8 -8,9 -2,3 -5,6 -5,8 0,4 -5,13 -8,17 -3,6 -7,10 -11,14"/>
  <g>
   <path class="fil1 str0" d="M6074 2506c9,-21 27,-18 31,-24 0,0 -21,-117 23,-67 10,12 11,18 30,19l0 12c-17,-1 -27,-6 -37,-20l0 1c-2,-3 -6,-8 -9,-9 -1,1 -1,2 -1,3 0,19 9,55 6,65 -5,15 -24,8 -32,24l-11 -4zm43 -20l0 0 0 0 0 0z"/>
  </g>
  <path class="fil1" d="M6080 2508c6,-17 29,-15 31,-24 6,-13 -5,-21 -5,-35 0,-10 -3,-18 -1,-29 2,-16 14,-6 21,3 7,11 19,17 32,17"/>
  <g>
   <path class="fil1 str0" d="M6214 2486c11,18 13,7 30,28 6,2 37,5 22,25 -4,7 -19,6 -26,6l0 -13c4,0 11,0 15,0l0 -5 -2 -2 1 2c-18,0 -43,-22 -51,-35l11 -6z"/>
  </g>
  <path class="fil1" d="M6208 2489c11,18 14,11 25,21 7,8 4,11 14,11 4,0 11,0 11,0l3 4c0,0 0,3 0,3l0 7c0,4 -17,4 -21,4"/>
  <path class="fil45" d="M1599 1118c264,102 402,318 175,541 -67,36 46,136 71,-4 15,19 46,69 20,124 -43,95 -134,215 -292,63 85,425 -291,231 -360,409 -53,139 105,271 89,293 -162,-176 -191,-324 -148,-394 33,-53 231,-28 148,-165 -35,-58 8,-74 8,-173 0,-105 -34,-292 244,-391 126,-44 77,-197 -1,-204 -107,-11 -118,-54 -135,-147 29,-10 152,58 181,48z"/>
  <path class="fil46" d="M892 384c-58,11 -58,121 -100,159 -4,20 -8,42 -11,63 -7,28 -15,56 -22,85 -10,120 44,162 38,253 13,75 89,64 159,43 -2,32 -10,9 -12,41 244,-16 397,108 303,-85 -3,-8 -9,-29 -4,-34 5,-5 35,-5 39,-10 9,-12 4,-58 5,-71 11,-29 30,-55 42,-84 9,-27 5,-46 -10,-44 -32,-2 -71,29 -106,45 1,-15 1,-30 2,-45 -12,-17 -23,-34 -35,-51 14,-37 27,-74 40,-111 -30,-10 -60,-20 -91,-30 -3,-24 -6,-48 -9,-72 -37,-7 -73,-15 -110,-22 -40,-10 -79,-20 -118,-30z"/>
  <path class="fil47" d="M832 469c-5,-8 9,-31 5,-53 -6,-35 -3,-62 39,-97 169,-71 266,-66 341,-30 158,117 147,225 156,405 -7,76 402,15 371,176 -89,-118 -142,6 -308,-93 28,13 0,34 26,49 29,18 84,15 121,35 55,29 -17,64 126,122 -46,-15 -54,12 -97,-21 -57,-43 -34,-5 -104,-8 -33,-22 -69,-77 -113,-96 59,51 134,119 131,217 44,28 108,-59 174,-6 -66,-11 -47,124 -188,107 -87,-30 -76,-84 -108,-107 -11,13 -5,69 -17,81 -5,34 49,62 85,95 -44,-40 -155,-44 -168,-104 -20,-54 13,-133 -24,-169 -63,-50 -46,-81 -9,-99 12,-13 10,-24 -7,-32 40,-6 35,-70 67,-103 -1,-22 -4,-30 -11,-34 -30,9 -58,19 -69,43 -40,8 -45,-3 -58,-11 33,-32 21,-40 2,-45 -1,-26 -19,-36 -40,-44 28,-26 51,-50 36,-67 26,-25 7,-33 -18,-40 -10,2 -19,4 -29,6 -22,-2 -33,-12 -49,-32 7,-16 26,-32 16,-55 -7,-10 -24,3 -43,19 -24,-16 -17,-33 -27,-30 -9,2 -22,-13 -24,-21 -12,-12 -24,-7 -32,5 -19,-5 -25,-9 -24,-20 -7,2 -13,8 -17,19 -5,-28 -34,-32 -57,-36 -8,23 -36,21 -55,74z"/>
  <path class="fil48" d="M869 645c6,-7 4,-27 6,-38 -13,-19 -31,-37 -48,-54 -10,-5 -22,-6 -34,-3 -3,4 -4,10 -2,18 4,-18 14,-13 25,-6 7,13 19,23 31,33 -23,-14 -41,1 -43,-23 -15,9 0,38 -15,39 3,1 17,1 26,4 8,13 20,21 40,16 12,3 8,21 14,14z"/>
  <path class="fil48" d="M817 635c-17,13 -14,23 32,30 -2,5 -4,11 -5,16 8,-11 16,-22 24,-34 -31,4 -44,-2 -51,-12z"/>
  <path class="fil48" d="M925 630c21,-15 61,-14 108,-6 60,48 68,65 63,74 -17,-21 -35,-45 -64,-56 -22,-3 -50,-2 -68,1 44,5 82,23 102,48 4,22 -8,22 -7,24 4,5 9,10 13,15 -15,-16 -37,-19 -58,-25 -15,-4 -29,-11 -44,-15 5,15 33,28 73,37 -9,8 -25,9 -42,5 -39,-13 -47,-27 -59,-40 5,-19 20,-23 34,-27 -11,1 -21,-1 -39,15 -1,-7 -67,47 -69,41 0,-2 -7,-38 17,-43 43,-10 73,-26 50,-32 -7,-4 -13,-8 -10,-16z"/>
  <path class="fil11" d="M944 624c-15,7 -6,9 -9,13 39,-4 69,-2 98,1 14,-6 -74,-21 -89,-14z"/>
  <path class="fil11" d="M970 649c-4,2 -6,6 -5,11 8,-3 17,-7 31,-5 -7,-4 -14,-8 -26,-6z"/>
  <path class="fil11" d="M989 660c26,0 56,20 63,48 -14,-6 -31,-11 -51,-12 -3,-9 -6,-18 0,-21 -6,-10 -19,-5 -33,1 6,-6 14,-10 21,-16z"/>
  <path class="fil11" d="M868 637c-2,-13 -2,-27 -16,-33 4,-1 8,1 6,-13 -13,-14 -23,-20 -32,-25 5,9 11,19 25,26 -1,3 -3,7 -4,10 -9,-4 -18,-10 -30,-4 -4,-6 -9,-6 -7,-8 1,4 2,7 3,11 -10,-5 -9,1 -11,5 9,-2 15,1 18,9 5,1 6,-3 3,-11 7,-1 13,0 18,3 -6,15 4,18 -4,21 15,-2 28,1 31,9z"/>
  <path class="fil13" d="M980 674c-6,4 1,11 21,21 7,-7 5,-13 2,-19 -7,-7 -15,-5 -23,-2z"/>
  <path class="fil13" d="M838 608c-8,-5 -7,2 -11,4 0,4 4,9 11,14 6,3 9,-13 0,-18z"/>
  <path class="fil48" d="M839 704c-25,18 -40,36 -31,64 0,11 27,10 30,4 6,-2 18,-8 17,-3 -2,9 13,13 18,7 3,-3 -2,9 9,11 22,-1 37,-8 45,-23 5,-8 -3,-14 -8,-20 17,8 23,22 22,39 27,35 61,52 75,38 13,-13 20,-26 18,-41 6,7 11,15 12,31l33 -35c-14,23 -31,46 -67,66 -36,19 49,15 49,15 -33,7 -55,21 -64,43 4,-13 6,-25 -5,-31 -57,9 -61,38 -121,32 -26,-6 -42,-16 -53,-28 -9,-31 20,-38 -2,-69 -1,-5 -3,-9 -5,-13 11,15 17,17 18,8 3,3 5,7 8,10 -4,-2 -9,-3 -14,-4 3,1 14,2 26,10 7,5 11,16 26,21 25,9 72,14 110,27 -7,-5 -22,-9 -29,-15 -3,-4 19,8 17,3 -5,-11 -23,-46 -40,-50 -42,-2 -25,16 -37,24 -10,-13 -35,-25 -53,-35 -17,-9 -28,-16 -34,-12 -1,6 -2,14 -17,12 -7,-11 -5,-18 -5,-27 14,-31 31,-46 52,-59z"/>
  <path class="fil11" d="M803 765c-1,3 1,9 1,13 0,3 -3,4 -4,7 -10,-2 -5,-8 -9,-18 -1,-2 9,-10 11,-20 0,6 0,12 1,18z"/>
  <path class="fil11" d="M847 786c10,1 21,2 31,2 18,8 36,-2 53,-14 -7,14 -15,26 -26,26 -3,-3 -7,-5 -22,8 0,-14 -31,-14 -36,-22z"/>
  <path class="fil13" d="M840 818c-3,1 -6,5 -7,12 5,1 9,2 11,-1 1,-6 -1,-10 -4,-11z"/>
  <path class="fil13" d="M848 833c5,-1 10,0 13,8 5,-1 10,-2 15,1 5,2 5,7 5,7 3,-4 12,-2 20,2 14,2 19,3 24,5 3,6 2,11 -3,15 -7,-1 -12,-5 -17,-8 4,5 1,7 -2,9 -12,-3 -17,-8 -21,-12 4,4 3,7 -2,8 -7,-2 -14,-4 -14,-8 -10,2 -15,-2 -20,-6 -3,-12 -2,-18 2,-21z"/>
  <path class="fil13" d="M938 861c-5,1 -2,3 0,4 2,0 3,-1 3,-3 -1,0 -2,-1 -3,-1z"/>
  <path class="fil11" d="M829 798c12,9 24,18 37,28 44,4 81,20 117,37 -31,13 -54,33 -115,11 -49,-10 -37,-43 -43,-69 5,2 10,3 15,5 -13,16 -10,23 -1,24 -3,28 17,31 37,34 14,5 32,8 46,4 6,-1 14,-3 19,-6 2,-1 0,-4 2,-5 -4,-2 -8,-3 -12,-5 -8,-2 -15,-4 -22,-7 -7,-1 -14,-3 -21,-5 -9,-3 -17,-7 -26,-11 -11,-12 -22,-24 -33,-35z"/>
  <path class="fil48" d="M1235 767c7,2 15,6 27,-11 9,12 10,23 4,33 -13,4 -18,-1 -16,-15 -14,6 -10,21 -15,29 -4,6 -9,8 -13,14 9,2 18,1 27,-14 8,3 17,4 27,2 13,-11 15,-23 15,-42 -9,-11 -15,-17 -31,-13 -12,2 -19,1 -25,17z"/>
  <path class="fil48" d="M1263 736c10,-7 34,-21 38,-12 14,5 -5,33 2,48 7,-15 13,-25 20,-32 7,-10 6,-19 -5,-29 -23,-4 -45,13 -55,25z"/>
  <path class="fil48" d="M1287 808c-15,8 -23,8 -32,6 -2,13 -6,23 -13,29 5,-7 9,-15 20,-17 6,-5 11,-6 16,-1 7,-2 10,-7 9,-17z"/>
  <path class="fil48" d="M1198 792c-1,21 -11,58 17,71 6,3 -25,-1 -31,5 -22,29 -40,55 -73,78 -47,21 -83,50 -64,86 -47,-3 -93,-6 -140,-9 1,-7 1,-14 2,-21 -28,1 -57,4 -75,-8 27,3 130,-9 149,-36 6,6 7,0 13,6 27,3 41,-10 42,-38 2,11 5,21 7,32 65,-34 135,-67 110,-126 -30,-31 -44,-57 43,-40z"/>
  <path class="fil49" d="M1086 438c110,-53 168,8 248,-2 -61,37 -159,-15 -248,2z"/>
  <path class="fil49" d="M998 398c-1,-99 158,-68 245,-87 -81,29 -224,15 -245,87z"/>
  <path class="fil49" d="M899 378c0,-47 15,-56 64,-90 -54,24 -106,44 -64,90z"/>
  <path class="fil49" d="M1226 543c-1,39 107,33 140,60 -47,-11 -138,-6 -140,-60z"/>
  <path class="fil49" d="M1269 656c180,-11 31,206 336,83 -312,133 -157,-69 -336,-83z"/>
  <path class="fil50" d="M1321 782c66,78 187,102 196,201 2,47 -30,132 15,121 91,-13 196,-181 302,2 -114,-155 -226,39 -321,16 -71,-22 1,-153 -69,-145 -202,-12 -151,-40 -151,-65 53,-16 50,-60 28,-130z"/>
  <path class="fil51" d="M1343 820c19,35 14,115 -33,108 15,6 22,30 74,-34 -17,112 77,-21 112,96 24,-65 -117,-117 -153,-170z"/>
  <path class="fil11" d="M1588 1125c82,51 134,128 132,243 -11,82 -71,122 -173,129 -108,33 -146,80 -113,142 -134,-81 200,-221 223,-273 38,-65 -17,-190 -101,-187 -23,1 48,-40 32,-54z"/>
  <path class="fil13" d="M1780 1006c96,12 152,90 213,343 -113,-186 -178,-224 -239,-222 163,104 138,357 333,329 -160,-95 -62,-506 -307,-450z"/>
  <path class="fil52" d="M1899 1503c261,95 221,372 81,447 -103,56 -193,67 -312,124l-99 48c-134,65 283,-129 411,-210 128,-81 155,-210 -81,-409z"/>
  <path class="fil53" d="M1955 1644c-42,-3 187,60 27,251 -85,101 -374,91 -476,229 -121,163 -108,568 280,657 25,5 92,17 164,0 26,-6 48,-23 62,-22 -10,1 -23,18 -54,27 -46,14 -115,20 -147,15 -374,-64 -432,-446 -369,-604 15,-37 70,-118 130,-151 130,-73 319,-96 416,-194 112,-115 -154,-137 -33,-208z"/>
  <path class="fil54" d="M1893 1721c-1,-4 59,36 61,85 2,37 -44,77 -73,93 -58,31 -194,61 -223,62 -169,8 -317,127 -339,246 -52,276 97,660 473,678 42,2 180,-24 236,-69 61,-48 104,-101 90,-135 13,43 -90,133 -157,154 -304,100 -544,-125 -588,-267 -30,-97 -149,-316 28,-480 47,-44 107,-102 196,-119 250,-48 381,-135 296,-248z"/>
  <path class="fil55" d="M1571 1117c201,30 391,296 189,374 -84,22 -56,77 -32,117 24,51 -30,66 -78,65 -89,43 0,167 77,142 52,-16 40,-23 63,-85 54,92 -133,261 -211,-27 -28,-21 -41,113 -52,174 -9,48 -91,-46 -81,51 -17,49 77,56 58,89 -40,72 -198,141 -267,151 -34,5 -46,27 -72,74 6,-42 77,-136 126,-140 219,-20 -203,-256 53,-322 36,-35 187,86 132,0 -25,-39 14,-200 54,-232 94,-77 318,-49 298,-178 -40,-114 -168,-201 -257,-253z"/>
  <path class="fil56" d="M1266 2854c70,56 278,137 210,250 -64,24 -155,-37 -178,-11 -60,14 -1,112 42,126 85,47 140,23 105,-27 53,7 27,96 -100,65 -147,-16 -213,-193 -100,-229 52,-19 125,63 147,33 57,-44 -162,-120 -262,-327 45,40 91,80 136,120z"/>
  <path class="fil57" d="M1510 2210c-70,365 423,623 470,334 -65,159 -520,35 -470,-334z"/>
  <path class="fil58" d="M1143 2352c-29,543 535,524 602,725 -7,-161 -690,-324 -602,-725z"/>
  <path class="fil59" d="M1114 2493c-37,78 -42,230 213,357 -152,-88 -242,-254 -213,-357z"/>
  <path class="fil60" d="M1588 1125c82,51 134,128 132,243 -11,82 -71,122 -173,129 -108,33 -146,80 -113,142 -134,-81 200,-221 223,-273 38,-65 -17,-190 -101,-187 -23,1 48,-40 32,-54z"/>
  <path class="fil61" d="M1780 1006c96,12 152,90 213,343 -113,-186 -178,-224 -239,-222 163,104 138,357 333,329 -160,-95 -62,-506 -307,-450z"/>
  <path class="fil13" d="M3824 2056c-2,3 -4,1 -5,2 -1,1 -7,2 -8,1 -1,-1 -3,1 -6,-2 -4,-4 -9,-7 -11,-12 -1,0 1,-2 1,-3 1,0 0,-1 0,1 1,4 14,12 16,14 0,1 4,1 4,1 1,-1 5,-1 5,-2 1,0 2,1 3,-1 2,-2 0,1 1,1z"/>
  <path class="fil13" d="M3832 2040c-2,1 -4,4 -5,5 -1,1 -15,-2 -17,-3 -2,-2 -11,-9 -9,-11 3,-3 6,-7 8,-8 0,0 4,5 5,6 1,1 4,4 5,4 0,0 2,0 2,0 1,0 5,1 6,-1 1,-1 7,4 5,8z"/>
  <path class="fil50" d="M3159 1812l14 97c-109,118 -84,252 -253,355l-210 -308 449 -144z"/>
  <path class="fil62" d="M3812 2112c-46,65 -115,696 -56,1097l-60 0 -776 -465 0 -480c136,-82 163,-261 259,-416 135,61 299,168 633,264z"/>
  <path class="fil63" d="M3269 1022c32,66 64,133 96,199 -21,282 -120,518 -304,706 -192,227 -85,243 -17,285 -142,-83 -2,-198 144,-316 117,327 -145,385 -68,620 -16,-166 105,-222 157,-333 40,194 9,330 -96,419 137,-67 177,-207 149,-394 97,101 -36,625 -382,367 20,159 187,260 327,178 63,-36 174,-169 189,-338 9,-163 -33,-227 -71,-300 -8,-14 -90,-72 -29,-154 -43,75 49,165 49,165 89,126 20,321 135,384 -150,-167 -12,-311 -115,-443 82,43 15,237 90,316 89,94 139,202 -5,209 146,66 181,-111 57,-221 -42,-38 -18,-176 -26,-225 -11,-62 -50,-113 -56,-133 103,76 56,273 91,321 59,80 189,114 203,181 17,81 -92,116 -89,107 81,61 298,-124 -31,-353 -93,-65 -9,-310 -14,-359 -9,-99 -121,-69 -101,-288 29,-258 -46,-567 -88,-606 -65,2 -130,4 -195,6z"/>
  <path class="fil46" d="M2710 1068c158,-9 400,-37 559,-46 59,94 37,105 96,199 15,59 -16,184 -55,295 -29,84 -62,160 -82,196 -12,19 -15,22 -24,42 -95,122 -216,226 -297,259 -1,-1 -194,-68 -197,-68l0 -877z"/>
  <path class="fil64" d="M2709 1781c24,2 32,20 62,27 51,9 83,10 123,-5 13,-3 55,-67 105,-84 10,1 16,-31 -15,-23 -23,0 -55,-23 -83,-38 -17,-6 -32,-4 -44,6 -13,15 -29,18 -48,6 -21,-9 -34,-3 -46,6 -17,15 -35,28 -54,35 0,20 0,50 0,70z"/>
  <path class="fil65" d="M2709 1726c18,3 79,-20 96,-10 32,18 53,9 73,-4 11,-11 59,-1 99,-6 1,0 1,0 2,0 1,0 2,0 2,0 3,-1 5,-1 6,-1 1,0 1,0 1,0 9,-9 8,-4 10,1 3,5 14,11 -5,4 -3,-1 -13,0 -13,0 -34,9 -80,0 -102,11 -29,21 -49,19 -72,9 -24,-21 -97,16 -97,7l0 -11z"/>
  <path class="fil51" d="M2937 1195c13,-15 30,-48 41,-49 39,-6 77,-3 118,-2 40,1 84,0 135,-16 -5,5 -18,9 -14,14 2,4 5,9 10,13 -6,0 -14,-3 -18,-8 -1,4 -1,1 8,15 -6,-2 -13,-5 -17,-8 4,10 18,19 38,27 -29,-5 -48,-13 -64,-23 13,22 27,40 46,41 -20,3 -36,-11 -49,-32 5,19 13,43 28,46 -12,5 -33,-19 -45,-44 2,23 12,48 18,51 -12,-1 -27,-15 -31,-41 -2,12 0,18 7,33 -19,-10 -28,-24 -37,-41 -2,5 -2,6 -3,11 8,18 19,32 35,35 -12,1 -26,-6 -40,-26 -23,41 -69,31 -77,23 -11,-10 -15,-20 -18,-33 -25,-9 -35,4 -44,12 -8,0 -19,2 -27,2z"/>
  <path class="fil66" d="M2954 1197c4,-5 29,-2 39,10 47,33 92,50 122,5 4,4 10,2 14,6 -96,78 -141,-30 -175,-21z"/>
  <path class="fil67" d="M2710 1068c248,-23 498,-42 754,-52 38,59 52,134 71,224 172,-90 396,-174 454,-277 -172,-17 -344,-34 -516,-51 -250,-58 -508,-52 -764,-48l1 204z"/>
  <path class="fil68" d="M3463 913c-12,-136 -32,-341 -44,-477l-710 0 0 428c181,12 351,-2 531,11 70,4 153,33 223,38z"/>
  <path class="fil69" d="M2709 779c246,-16 495,-7 747,56 2,25 5,50 7,75 -240,-52 -497,-53 -754,-47l0 -84z"/>
  <path class="fil70" d="M2787 1063c6,22 7,201 -21,294 -28,97 -63,100 0,149 15,12 38,9 55,10 2,14 10,35 9,47 -53,-17 -61,11 -59,50 -4,-21 -6,-31 -10,-52 -38,-17 -35,13 -50,7l0 -118 1 -382c10,-2 65,-4 75,-5z"/>
  <path class="fil65" d="M2868 1507c6,-15 15,-22 45,-18 2,-1 6,2 4,10 11,5 9,9 7,12 -13,3 -27,-9 -33,-6 -14,7 -22,8 -23,2z"/>
  <path class="fil65" d="M2765 1528c7,-22 -41,-27 -39,-24 1,1 1,3 3,4 6,3 14,5 20,9 8,6 0,11 16,11z"/>
  <path class="fil65" d="M3022 1181c11,30 31,38 64,14 7,-10 -19,-14 -30,-6 -6,4 -13,-10 -18,-11 -11,-4 -19,-3 -16,3z"/>
  <path class="fil66" d="M2971 1711c28,-4 46,6 23,9 -65,24 -61,58 -100,83 -48,23 -98,17 -138,1 -16,-8 -31,-16 -47,-23l0 -40c20,-8 58,-21 88,-17 32,16 49,18 73,-1 28,-13 60,-9 101,-12z"/>
  <path class="fil47" d="M2710 1947c166,-7 220,20 210,187l0 1052 -211 0 1 -1239z"/>
  <path class="fil71" d="M2710 1989c129,-3 164,14 160,164l0 1033 -161 0 0 -1083 86 1c24,-1 19,0 21,-32 4,-63 -51,-57 -107,-54l1 -29z"/>
  <path class="fil46" d="M2710 2015c98,-6 104,0 106,57 -1,38 0,32 -35,32l-72 -1 1 -88z"/>
  <circle class="fil71" cx="2754" cy="2055" r="34"/>
  <circle class="fil47" cx="2755" cy="2058" r="23"/>
  <ellipse class="fil46" cx="2752" cy="2061" rx="10" ry="9"/>
  <polygon class="fil46" points="2709,2125 2825,2125 2825,2134 2709,2134 "/>
  <path class="fil65" d="M2709 1944l83 3c80,7 135,54 129,160l0 1079 -13 0 -1 -1079c4,-86 -23,-136 -116,-146l-81 1 -1 -18z"/>
  <path class="fil66" d="M2709 2669c199,69 429,157 475,159 80,23 155,74 219,121 112,83 199,177 293,260l-987 0 0 -540z"/>
  <path class="fil71" d="M3412 2959c79,41 43,140 -17,250 18,0 35,0 52,0 94,-227 23,-231 -35,-250z"/>
  <path class="fil72" d="M2709 1744c5,-1 41,-4 64,14 3,-9 2,-17 -2,-27 0,-3 -3,-2 -5,-1 -19,9 -54,10 -55,9 -4,0 34,-13 55,-15 8,0 16,-1 20,-1 2,1 -7,3 -7,7 -1,9 4,24 5,29 4,1 9,1 11,-2 4,-8 -3,-26 -7,-34 7,6 12,18 14,35 5,1 8,2 10,-2 3,-6 -5,-20 -8,-27 6,3 14,15 15,26 1,11 93,-5 102,-14 3,-5 20,-12 35,-16 10,-2 23,1 27,-2 2,-3 -1,1 -7,1 -22,3 -24,25 -81,36 -22,1 -51,7 -73,9 3,13 1,23 -1,30 -1,1 -1,1 -1,2 0,0 -2,7 12,4 8,-1 25,0 38,0 15,-1 27,-4 26,-3 -2,1 -33,9 -55,12 -14,2 -24,2 -24,2 -12,0 -21,0 -38,-5 -5,-1 -12,-4 -16,-6 -5,-2 -9,-3 -9,-3 0,0 19,2 22,1 0,0 0,3 1,3 8,1 19,2 29,1 8,0 14,-6 14,-6 2,-12 1,-25 -6,-31 -1,-1 -8,0 -10,-1 0,15 -4,28 -6,32 -1,-8 4,-25 -2,-31 -3,-3 -6,-1 -12,0 1,19 -6,27 -8,34 0,-15 1,-32 -6,-37 -8,-3 -33,2 -41,-1 -7,-3 -20,-5 -20,-11l0 -11z"/>
  <path class="fil73" d="M2894 1803c-16,47 56,29 70,18 2,9 -15,30 -47,42 -13,5 -37,1 -52,0 -103,-11 -152,25 -155,82 0,-55 -1,-110 -1,-164 38,0 49,60 185,22z"/>
  <ellipse class="fil66" cx="2793" cy="1344" rx="2" ry="1"/>
  <circle class="fil66" cx="2823" cy="1193" r="3"/>
  <circle class="fil66" cx="2819" cy="1216" r="4"/>
  <ellipse class="fil66" cx="2765" cy="1377" rx="4" ry="2"/>
  <path class="fil49" d="M2842 1726c-1,-15 -6,-31 -15,-48 -16,3 -15,-14 -42,-12 56,28 8,31 57,60z"/>
  <path class="fil74" d="M2711 1683c21,-2 37,-26 55,-40l1 -47c-13,-85 -26,-40 -56,-28l0 115z"/>
  <path class="fil75" d="M2851 1585c0,0 25,36 6,57 -18,21 -18,21 -18,21l-14 -85 26 7z"/>
  <circle class="fil76" cx="5059" cy="1633" r="9"/>
  <ellipse class="fil76" cx="5087" cy="1579" rx="4" ry="5"/>
  <path class="fil76" d="M5070 935c13,-6 52,-6 101,-1 35,3 74,50 87,86 -14,-28 -43,-56 -81,-67 -32,-8 -70,-2 -105,-6 -9,-1 -9,-10 -2,-12z"/>
  <path class="fil77" d="M4773 1669c71,19 148,17 240,21 58,15 121,-6 179,-84 5,-17 33,-94 35,-123 4,-58 -19,-78 -10,-112 11,-40 22,173 52,-40 -11,-127 49,-182 -16,-363 -21,-58 -11,-120 -23,-165 -6,-20 -12,-39 -19,-57 -59,-87 -98,-108 -123,-79l-45 -168 153 145 126 233 70 444 -271 426 -363 157 -158 -24 206 394 -196 -255c-39,49 116,237 129,337l-262 -237 42 -219 -31 -429 -62 -396 46 -72 70 -214 339 -112 46 172 136 34c-60,51 -119,82 -175,74l-14 80c-3,-4 -32,-40 -58,-57 -19,-13 -38,-8 -40,-12 -3,-4 19,-5 38,3 17,7 31,22 29,18 -37,-53 -89,-103 -206,-47 -6,4 -27,17 -48,35 -23,20 -29,50 -29,50l-8 75 -32 15c2,15 -1,37 14,74 15,39 48,93 49,107 1,28 -64,-51 -65,-27 -5,163 25,298 226,367 11,4 18,27 29,31z"/>
  <path class="fil78" d="M5142 597c22,274 -124,383 -328,324 158,-30 232,-118 238,-253 -54,158 -158,231 -300,238 121,-57 222,-128 237,-260 -102,194 -227,230 -353,264 409,-246 268,-240 311,-319 -194,282 -298,177 -409,457 -26,14 -51,28 -77,42 33,185 53,522 101,503 72,124 -65,316 34,553 41,98 179,190 218,329 86,314 29,693 -201,694 -22,0 58,-12 49,-99 -32,-280 -458,-567 -402,-860 -50,72 -117,85 -190,76 144,-77 -62,-224 80,-279 260,-72 -73,-804 359,-1320 -24,-2 -83,18 -107,16 184,-53 278,-209 425,-248 152,-35 308,38 466,177 -25,-1 -50,-2 -75,-4 104,89 191,180 195,287 -26,-11 -52,-22 -79,-33 6,2 11,4 16,6 83,7 66,113 78,217 12,110 51,222 29,302 -38,-90 -12,1 -50,-90 45,212 -43,271 71,455 152,241 -82,354 86,403 -47,65 -113,53 -184,19 -99,60 -90,395 -6,515 -81,-9 -155,-58 -149,-143 -36,35 -131,118 -123,377 6,168 72,253 49,275 -543,-261 35,-1212 -35,-1514 55,-58 129,-143 151,-347 27,-327 12,-619 -125,-760z"/>
  <ellipse class="fil76" cx="4922" cy="1125" rx="4" ry="5"/>
  <ellipse class="fil76" cx="4953" cy="1108" rx="4" ry="5"/>
  <ellipse class="fil76" cx="4898" cy="1143" rx="4" ry="5"/>
  <path class="fil76" d="M4873 1351c2,2 22,13 43,18 24,6 49,6 49,6 10,-2 37,22 50,46 1,0 34,28 6,24 -24,-3 -35,-34 -65,-48 -11,-5 -28,0 -46,-1 -8,-1 -60,-25 -73,-6 -22,11 -19,12 -47,16 -20,3 -29,-12 14,-21 22,-4 28,-34 69,-34z"/>
  <path class="fil79" d="M4816 1423c41,30 150,25 160,30 11,5 30,3 10,8 -45,10 -43,-1 -82,20 -23,13 -43,5 -62,-11 -5,-5 -27,-56 -26,-47z"/>
  <path class="fil76" d="M4870 951c-69,-87 -211,-75 -289,12 65,-63 203,-67 289,-12z"/>
 </g>
</svg>
