<?xml version="1.0" standalone="no"?>
<!DOCTYPE svg PUBLIC "-//W3C//DTD SVG 20010904//EN"
 "http://www.w3.org/TR/2001/REC-SVG-20010904/DTD/svg10.dtd">
<svg version="1.0" xmlns="http://www.w3.org/2000/svg"
 width="752.000000pt" height="752.000000pt" viewBox="0 0 752.000000 752.000000"
 preserveAspectRatio="xMidYMid meet">
<metadata>
Created by potrace 1.11, written by Peter Selinger 2001-2013
</metadata>
<g transform="translate(0.000000,752.000000) scale(0.100000,-0.100000)"
fill="#000000" stroke="none">
<path d="M2327 6384 c-1 -1 -47 -4 -102 -8 -55 -3 -111 -9 -125 -12 -14 -3
-41 -7 -60 -9 -102 -11 -327 -73 -470 -130 -146 -58 -451 -220 -480 -254 -3
-3 -16 -12 -30 -20 -99 -55 -305 -236 -410 -360 -25 -30 -51 -59 -57 -67 -7
-7 -13 -15 -13 -19 0 -4 -7 -13 -16 -22 -22 -23 -134 -190 -134 -202 0 -5 -4
-11 -9 -13 -19 -7 -193 -368 -216 -448 0 -3 -17 -57 -37 -120 -44 -140 -66
-215 -73 -255 -5 -32 -10 -56 -19 -95 -6 -28 -16 -89 -21 -135 -2 -16 -6 -48
-9 -70 -20 -143 -27 -496 -13 -655 15 -170 36 -317 62 -420 8 -30 16 -67 19
-82 10 -55 64 -228 116 -368 18 -47 34 -93 37 -103 3 -9 9 -17 14 -17 5 0 9
-7 9 -15 0 -8 25 -63 56 -123 31 -59 62 -117 68 -129 6 -13 14 -23 19 -23 4 0
7 -5 7 -11 0 -6 23 -46 52 -88 28 -42 63 -93 76 -113 14 -21 29 -38 34 -38 4
0 8 -5 8 -10 0 -6 12 -24 27 -42 99 -114 127 -145 147 -161 11 -11 35 -31 51
-45 17 -15 47 -39 67 -54 20 -15 42 -33 50 -40 8 -7 21 -17 30 -23 8 -5 62
-42 120 -82 135 -92 299 -180 445 -238 64 -26 124 -49 132 -51 9 -2 59 -15
111 -29 99 -26 135 -34 185 -40 17 -2 53 -7 80 -11 99 -15 506 -7 534 10 3 2
31 7 61 11 30 3 73 11 95 17 22 5 48 12 58 14 94 18 356 105 464 155 35 16 66
29 70 29 16 0 293 145 325 171 20 16 40 29 43 29 4 0 12 6 19 12 7 7 46 42 87
78 77 68 171 165 246 254 72 85 191 259 266 390 l45 79 58 -89 c33 -49 61 -93
63 -99 2 -5 7 -12 10 -15 3 -3 26 -34 50 -70 79 -116 179 -248 268 -355 32
-38 67 -81 78 -94 11 -14 83 -89 160 -166 132 -134 278 -260 390 -335 l50 -34
570 -2 c314 -1 572 -3 575 -4 3 -1 10 -1 15 0 21 5 145 5 145 0 0 -4 78 -4 90
1 3 1 10 0 15 -1 6 -1 145 -4 310 -6 330 -4 311 -8 229 51 -15 11 -33 26 -40
33 -7 6 -15 12 -18 12 -5 0 -123 91 -260 200 -20 16 -158 132 -216 182 -154
132 -483 454 -600 587 -36 41 -74 84 -85 95 -11 12 -42 48 -70 81 -66 79 -97
115 -112 131 -7 7 -13 15 -13 19 0 3 -9 16 -21 28 -11 12 -30 35 -42 50 -12
16 -40 52 -63 80 -52 67 -141 189 -185 252 -19 28 -37 52 -41 53 -5 2 -8 8 -8
14 0 5 -6 16 -14 24 -8 8 -50 67 -93 132 -42 64 -81 119 -85 120 -5 2 -8 8 -8
13 0 6 -17 36 -38 67 -22 31 -76 118 -122 192 -45 74 -90 146 -100 160 -9 14
-27 45 -41 70 -13 25 -28 48 -33 52 -6 4 -5 17 3 34 15 33 137 217 199 299 48
62 189 242 207 261 5 7 21 26 35 44 14 18 32 40 41 49 9 9 42 48 74 86 33 39
61 72 64 75 3 3 40 43 81 90 41 47 79 90 85 96 5 6 46 51 90 99 312 344 958
996 1145 1155 14 12 43 38 65 58 22 21 72 64 110 96 39 32 71 62 72 65 2 3
-426 6 -950 5 -1057 0 -961 6 -1061 -65 -23 -16 -52 -37 -66 -47 -39 -28 -154
-115 -166 -127 -6 -5 -35 -30 -65 -55 -70 -59 -349 -337 -421 -420 -100 -115
-115 -134 -202 -244 -39 -50 -77 -97 -83 -104 -7 -7 -17 -21 -22 -30 -5 -9
-11 -15 -13 -12 -3 3 -24 34 -47 70 -39 58 -118 167 -131 180 -3 3 -23 28 -45
55 -63 79 -256 268 -351 345 -31 24 -155 114 -204 147 -49 33 -91 58 -190 110
-36 19 -71 39 -77 45 -7 6 -13 8 -13 4 0 -4 -15 1 -32 11 -18 9 -35 18 -38 18
-3 1 -21 8 -40 17 -28 12 -129 48 -150 53 -3 1 -12 4 -20 8 -25 9 -86 27 -109
32 -13 2 -30 6 -39 9 -9 3 -28 7 -42 10 -14 3 -34 7 -45 9 -11 3 -40 8 -65 11
-25 3 -56 8 -70 11 -35 7 -317 24 -323 19z m213 -1438 c61 -11 140 -36 199
-62 31 -14 57 -24 57 -22 1 2 10 -4 20 -13 11 -9 39 -27 64 -41 25 -15 56 -36
69 -47 13 -12 27 -21 30 -21 16 -1 191 -181 241 -249 14 -19 31 -40 38 -47 6
-7 12 -17 12 -22 0 -6 4 -12 8 -14 5 -1 33 -43 63 -93 30 -49 57 -91 62 -93 4
-2 7 -12 7 -22 0 -10 4 -20 9 -22 5 -1 48 -84 95 -183 48 -99 92 -191 99 -205
11 -22 9 -34 -16 -95 -16 -38 -36 -82 -43 -97 -8 -14 -14 -31 -14 -37 0 -6
-18 -51 -41 -99 -23 -48 -54 -114 -69 -147 -81 -175 -122 -253 -150 -284 -16
-18 -30 -36 -30 -40 0 -13 -168 -179 -228 -225 -53 -40 -246 -142 -285 -150
-39 -8 -74 -20 -85 -29 -7 -5 -15 -7 -19 -4 -3 4 -12 2 -20 -4 -7 -6 -13 -9
-13 -6 0 3 -15 1 -32 -4 -133 -38 -359 -42 -492 -8 -54 13 -170 52 -176 59 -3
3 -23 14 -45 25 -22 11 -42 22 -45 25 -3 3 -23 18 -45 35 -49 36 -131 118
-166 165 -55 76 -133 226 -144 278 -2 9 -10 35 -18 58 -8 22 -20 65 -26 95 -6
30 -14 65 -17 79 -18 85 -27 338 -14 411 4 24 11 62 14 84 3 22 10 58 16 80 6
22 13 49 15 59 2 10 10 35 17 55 7 20 12 38 13 41 6 39 132 300 161 331 8 8
14 19 14 23 0 5 10 21 23 36 12 16 35 46 52 67 168 214 388 351 620 386 33 4
177 0 215 -7z m-1622 -2031 c-3 -3 -9 2 -12 12 -6 14 -5 15 5 6 7 -7 10 -15 7
-18z m68 -57 l29 -33 -35 30 c-19 17 -37 31 -39 33 -2 1 0 2 5 2 6 0 23 -15
40 -32z m107 -86 c21 -18 35 -32 31 -32 -3 0 -24 16 -47 35 -22 19 -44 35 -49
35 -4 0 -8 5 -8 12 0 12 0 11 73 -50z m108 -79 c13 -16 12 -17 -3 -4 -10 7
-18 15 -18 17 0 8 8 3 21 -13z"/>
</g>
</svg>
