<?xml version="1.0" encoding="UTF-8"?>
<!DOCTYPE svg PUBLIC "-//W3C//DTD SVG 1.1//EN" "http://www.w3.org/Graphics/SVG/1.1/DTD/svg11.dtd">
<!-- Creator: CorelDRAW X7 -->
<svg xmlns="http://www.w3.org/2000/svg" xml:space="preserve" width="8in" height="5.188in" version="1.1" style="shape-rendering:geometricPrecision; text-rendering:geometricPrecision; image-rendering:optimizeQuality; fill-rule:evenodd; clip-rule:evenodd"
viewBox="0 0 8000 5188"
 xmlns:xlink="http://www.w3.org/1999/xlink">
 <defs>
  <style type="text/css">
   <![CDATA[
    .fil0 {fill:none}
    .fil2 {fill:#373435}
    .fil4 {fill:#FFCC29}
    .fil5 {fill:#6DADDE}
    .fil1 {fill:#3F8CC2}
    .fil3 {fill:#0076AC}
   ]]>
  </style>
 </defs>
 <g id="Layer_x0020_1">
  <metadata id="CorelCorpID_0Corel-Layer"/>
  <rect class="fil0" width="8000" height="5188"/>
  <g id="_2568284754768">
   <path class="fil1" d="M4536 3945c-424,-66 -615,-52 -997,22 -157,-29 -283,-108 -487,-77 100,54 158,168 299,161 -464,221 -452,460 -756,451 165,179 735,-543 1407,-533 462,7 511,114 220,115 -21,0 -19,42 -38,61 -41,42 -93,92 -86,177 3,38 50,68 60,107 5,24 43,20 21,72 -22,52 83,88 108,130 12,21 19,66 31,53 2,-2 -37,-75 -39,-104 -4,-47 -8,-67 10,-144 21,-89 8,-52 62,-226 15,-48 -97,299 -39,380 9,12 29,61 6,58 -22,-3 3,31 0,36 -10,19 -27,17 21,23 13,2 16,2 14,14 0,8 15,7 25,9 -96,99 -230,193 -424,223 67,-110 165,-116 141,-150 -13,-19 -92,-28 -114,-31 -212,30 -513,2 -545,49 -95,98 -276,163 -383,160 26,-71 184,-148 134,-193 -238,-84 -347,-246 -560,-174 -138,144 -141,353 -406,491 66,-154 86,-384 184,-475 -162,-88 -228,-296 -343,-445 269,45 301,223 533,317 38,56 275,-46 412,-155 203,-163 395,-297 439,-309 227,-117 666,-159 1090,-93z"/>
   <path class="fil2" d="M3135 4887l0 0c-12,-8 89,-54 9,-92 4,-18 -11,-25 -45,-20 -4,-19 -19,-26 -46,-20 -1,-23 -16,-30 -44,-20 0,-22 -13,-28 -38,-17 0,-20 -14,-26 -43,-20 0,-21 -15,-28 -45,-20 -1,-19 -5,-28 -41,-25 3,-14 -4,-30 -51,-16 -2,-22 -21,-31 -58,-26 10,-6 16,-10 21,-14 140,12 247,126 433,191 28,25 -10,61 -52,99z"/>
   <path class="fil3" d="M5112 4426c-90,18 -197,121 -293,168 -40,-4 -41,-61 -14,-117 94,-31 187,-37 281,-93l26 42z"/>
   <path class="fil4" d="M4583 4183c-48,6 -84,40 -80,76 5,36 48,60 96,54 49,-6 84,-40 80,-76 -5,-36 -47,-60 -96,-54zm22 27c-8,1 -15,7 -14,14 1,6 8,10 17,9 8,-1 14,-7 14,-13 -1,-6 -9,-11 -17,-10z"/>
   <path class="fil5" d="M5112 4426c-8,-15 -17,-28 -25,-41l25 41zm-529 -243c-48,6 -84,40 -80,76 5,36 48,60 96,54 49,-6 84,-40 80,-76 -5,-36 -47,-60 -96,-54zm503 201c-163,-255 -333,-371 -550,-439 -424,-66 -863,-24 -1090,93 -44,12 -236,146 -439,309 -137,109 -374,211 -412,155 165,179 735,-543 1407,-533 462,7 511,114 220,115 -21,0 -19,42 -38,61 -41,42 -93,92 -86,177 3,38 50,68 60,107 5,24 43,20 21,72 -22,52 83,88 108,130 12,21 19,66 31,53 2,-2 -37,-75 -39,-104 -4,-47 -8,-67 10,-144 21,-89 8,-52 62,-226 15,-48 -97,299 -39,380 9,12 29,61 6,58 -22,-3 3,31 0,36 -10,19 -27,17 21,23 13,2 16,2 14,14 0,8 15,7 25,9 698,-126 723,-232 734,-304 -90,18 -197,121 -293,168 -40,-4 -41,-61 -14,-117 94,-31 187,-37 281,-93z"/>
   <path class="fil2" d="M4036 3903c-22,-36 -54,-69 -96,-100 22,23 36,47 40,72 -30,-39 -65,-73 -112,-98 4,13 1,23 -18,24 5,17 -1,24 -17,22 5,17 0,24 -17,23 6,15 1,21 -15,20 5,15 1,22 -15,19 -1,18 -22,30 -33,44 100,-15 190,-24 283,-26l0 0zm-846 93l0 0c30,28 40,52 31,70 13,17 0,28 -41,33 4,21 -9,31 -38,29 1,22 -10,33 -35,28 5,15 -7,25 -37,29 9,17 -4,27 -38,31 1,19 -12,30 -40,30 4,23 -9,33 -38,30 6,22 -5,31 -33,27 6,18 -7,28 -37,29 5,21 -7,31 -38,30 4,19 1,29 -34,34 6,13 3,31 -45,28 3,22 -14,35 -51,39 28,8 30,17 50,8 153,-71 230,-251 585,-420 -69,3 -117,-22 -161,-55zm-367 465l0 0c26,-13 52,-27 78,-42 -26,15 -52,29 -78,42zm40 -8l0 0c3,-1 6,-3 9,-5 -3,2 -6,4 -9,5zm19 -10c4,-3 8,-5 12,-8 -4,3 -8,5 -12,8zm17 -11c5,-3 10,-6 15,-9 -5,3 -10,6 -15,9zm17 -22c-2,1 -5,3 -7,4 2,-1 5,-3 7,-4zm1046 -491l0 0 -1 0 1 0z"/>
   <path class="fil2" d="M4580 4168c-59,7 -103,48 -98,92 6,44 58,74 117,67 60,-7 103,-49 98,-93 -6,-44 -58,-74 -117,-66zm3 15c-48,6 -84,40 -80,76 5,36 48,60 96,54 49,-6 84,-40 80,-76 -5,-36 -47,-60 -96,-54z"/>
   <path class="fil2" d="M4648 4270c11,-31 -7,-71 -67,-65 -48,-7 -53,20 -52,57 8,34 103,38 119,8zm-43 -60c-8,1 -15,7 -14,14 1,6 8,10 17,9 8,-1 14,-7 14,-13 -1,-6 -9,-11 -17,-10z"/>
   <path class="fil2" d="M2763 4507c-19,9 -27,39 -54,44 27,-5 36,16 59,30 -27,-21 -30,-50 -5,-74z"/>
   <path class="fil2" d="M2713 4514c-16,8 -23,35 -47,39 24,-4 32,15 52,26 -24,-18 -26,-43 -5,-65z"/>
   <path class="fil2" d="M2671 4520c-16,8 -22,34 -45,38 23,-4 30,14 50,25 -23,-17 -25,-42 -5,-63z"/>
   <path class="fil2" d="M2634 4525c-15,8 -21,31 -42,34 21,-3 28,13 45,24 -20,-16 -23,-38 -3,-58z"/>
   <path class="fil2" d="M2809 4504c-19,9 -26,39 -53,44 27,-5 35,16 58,30 -26,-21 -29,-49 -5,-74z"/>
   <path class="fil2" d="M2856 4501c-19,9 -27,39 -54,44 27,-5 36,16 59,30 -27,-21 -30,-49 -5,-74z"/>
   <path class="fil2" d="M2908 4497c-19,9 -26,40 -53,44 27,-4 35,17 58,30 -26,-21 -29,-49 -5,-74z"/>
   <path class="fil2" d="M2959 4492c-19,10 -26,40 -53,44 27,-4 35,17 58,30 -26,-20 -29,-49 -5,-74z"/>
   <path class="fil2" d="M3033 4481c-25,11 -34,50 -68,55 34,-5 45,22 74,38 -34,-26 -38,-62 -6,-93z"/>
   <path class="fil5" d="M4117 4430c-138,-132 -545,-143 -929,-80 749,-58 557,244 871,178 -167,-116 95,-64 58,-98z"/>
   <path class="fil2" d="M3435 4344c-83,9 -167,22 -251,39 746,-86 565,223 877,146 -3,-2 -7,-4 -10,-7 3,2 5,4 8,6 -273,57 -164,-164 -624,-184zm568 127c2,-20 49,-23 82,-26 -35,2 -84,3 -82,26z"/>
  </g>
 </g>
</svg>
