<?xml version="1.0" encoding="UTF-8"?>
<!DOCTYPE svg PUBLIC "-//W3C//DTD SVG 1.1//EN" "http://www.w3.org/Graphics/SVG/1.1/DTD/svg11.dtd">
<!-- Creator: CorelDRAW X7 -->
<svg xmlns="http://www.w3.org/2000/svg" xml:space="preserve" width="8in" height="5.188in" version="1.1" style="shape-rendering:geometricPrecision; text-rendering:geometricPrecision; image-rendering:optimizeQuality; fill-rule:evenodd; clip-rule:evenodd"
viewBox="0 0 8000 5188"
 xmlns:xlink="http://www.w3.org/1999/xlink">
 <defs>
  <style type="text/css">
   <![CDATA[
    .fil216 {fill:none}
    .fil209 {fill:url(#id0)}
    .fil51 {fill:url(#id1)}
    .fil58 {fill:url(#id2)}
    .fil143 {fill:url(#id3)}
    .fil113 {fill:url(#id4)}
    .fil24 {fill:url(#id5)}
    .fil116 {fill:url(#id6)}
    .fil122 {fill:url(#id7)}
    .fil49 {fill:url(#id8)}
    .fil193 {fill:url(#id9)}
    .fil27 {fill:url(#id10)}
    .fil45 {fill:url(#id11)}
    .fil85 {fill:url(#id12)}
    .fil11 {fill:url(#id13)}
    .fil129 {fill:url(#id14)}
    .fil132 {fill:url(#id15)}
    .fil108 {fill:url(#id16)}
    .fil128 {fill:url(#id17)}
    .fil131 {fill:url(#id18)}
    .fil59 {fill:url(#id19)}
    .fil86 {fill:url(#id20)}
    .fil177 {fill:url(#id21)}
    .fil26 {fill:url(#id22)}
    .fil57 {fill:url(#id23)}
    .fil161 {fill:url(#id24)}
    .fil142 {fill:url(#id25)}
    .fil173 {fill:url(#id26)}
    .fil22 {fill:url(#id27)}
    .fil95 {fill:url(#id28)}
    .fil23 {fill:url(#id29)}
    .fil170 {fill:url(#id30)}
    .fil174 {fill:url(#id31)}
    .fil211 {fill:url(#id32)}
    .fil196 {fill:url(#id33)}
    .fil29 {fill:url(#id34)}
    .fil169 {fill:url(#id35)}
    .fil47 {fill:url(#id36)}
    .fil207 {fill:url(#id37)}
    .fil97 {fill:url(#id38)}
    .fil172 {fill:url(#id39)}
    .fil121 {fill:url(#id40)}
    .fil212 {fill:url(#id41)}
    .fil160 {fill:url(#id42)}
    .fil201 {fill:url(#id43)}
    .fil205 {fill:url(#id44)}
    .fil145 {fill:url(#id45)}
    .fil184 {fill:url(#id46)}
    .fil181 {fill:url(#id47)}
    .fil70 {fill:url(#id48)}
    .fil125 {fill:url(#id49)}
    .fil210 {fill:url(#id50)}
    .fil37 {fill:url(#id51)}
    .fil123 {fill:url(#id52)}
    .fil167 {fill:url(#id53)}
    .fil214 {fill:url(#id54)}
    .fil35 {fill:url(#id55)}
    .fil149 {fill:url(#id56)}
    .fil124 {fill:url(#id57)}
    .fil16 {fill:url(#id58)}
    .fil187 {fill:url(#id59)}
    .fil39 {fill:url(#id60)}
    .fil99 {fill:url(#id61)}
    .fil62 {fill:url(#id62)}
    .fil195 {fill:url(#id63)}
    .fil52 {fill:url(#id64)}
    .fil155 {fill:url(#id65)}
    .fil179 {fill:url(#id66)}
    .fil33 {fill:url(#id67)}
    .fil111 {fill:url(#id68)}
    .fil186 {fill:url(#id69)}
    .fil3 {fill:url(#id70)}
    .fil6 {fill:url(#id71)}
    .fil84 {fill:url(#id72)}
    .fil166 {fill:url(#id73)}
    .fil71 {fill:url(#id74)}
    .fil107 {fill:url(#id75)}
    .fil183 {fill:url(#id76)}
    .fil67 {fill:url(#id77)}
    .fil133 {fill:url(#id78)}
    .fil1 {fill:url(#id79)}
    .fil176 {fill:url(#id80)}
    .fil159 {fill:url(#id81)}
    .fil119 {fill:url(#id82)}
    .fil74 {fill:url(#id83)}
    .fil204 {fill:url(#id84)}
    .fil63 {fill:url(#id85)}
    .fil147 {fill:url(#id86)}
    .fil20 {fill:url(#id87)}
    .fil44 {fill:url(#id88)}
    .fil76 {fill:url(#id89)}
    .fil31 {fill:url(#id90)}
    .fil17 {fill:url(#id91)}
    .fil194 {fill:url(#id92)}
    .fil89 {fill:url(#id93)}
    .fil40 {fill:url(#id94)}
    .fil8 {fill:url(#id95)}
    .fil66 {fill:url(#id96)}
    .fil92 {fill:url(#id97)}
    .fil43 {fill:url(#id98)}
    .fil188 {fill:url(#id99)}
    .fil200 {fill:url(#id100)}
    .fil185 {fill:url(#id101)}
    .fil48 {fill:url(#id102)}
    .fil4 {fill:url(#id103)}
    .fil91 {fill:url(#id104)}
    .fil69 {fill:url(#id105)}
    .fil139 {fill:url(#id106)}
    .fil115 {fill:url(#id107)}
    .fil203 {fill:url(#id108)}
    .fil88 {fill:url(#id109)}
    .fil9 {fill:url(#id110)}
    .fil137 {fill:url(#id111)}
    .fil100 {fill:url(#id112)}
    .fil53 {fill:url(#id113)}
    .fil150 {fill:url(#id114)}
    .fil78 {fill:url(#id115)}
    .fil157 {fill:url(#id116)}
    .fil73 {fill:url(#id117)}
    .fil171 {fill:url(#id118)}
    .fil68 {fill:url(#id119)}
    .fil112 {fill:url(#id120)}
    .fil90 {fill:url(#id121)}
    .fil190 {fill:url(#id122)}
    .fil25 {fill:url(#id123)}
    .fil60 {fill:url(#id124)}
    .fil38 {fill:url(#id125)}
    .fil104 {fill:url(#id126)}
    .fil146 {fill:url(#id127)}
    .fil2 {fill:url(#id128)}
    .fil148 {fill:url(#id129)}
    .fil21 {fill:url(#id130)}
    .fil80 {fill:url(#id131)}
    .fil19 {fill:url(#id132)}
    .fil42 {fill:url(#id133)}
    .fil136 {fill:url(#id134)}
    .fil87 {fill:url(#id135)}
    .fil109 {fill:url(#id136)}
    .fil152 {fill:url(#id137)}
    .fil114 {fill:url(#id138)}
    .fil81 {fill:url(#id139)}
    .fil118 {fill:url(#id140)}
    .fil98 {fill:url(#id141)}
    .fil65 {fill:url(#id142)}
    .fil75 {fill:url(#id143)}
    .fil102 {fill:url(#id144)}
    .fil15 {fill:url(#id145)}
    .fil138 {fill:url(#id146)}
    .fil94 {fill:url(#id147)}
    .fil105 {fill:url(#id148)}
    .fil30 {fill:url(#id149)}
    .fil77 {fill:url(#id150)}
    .fil34 {fill:url(#id151)}
    .fil162 {fill:url(#id152)}
    .fil215 {fill:url(#id153)}
    .fil208 {fill:url(#id154)}
    .fil56 {fill:url(#id155)}
    .fil163 {fill:url(#id156)}
    .fil140 {fill:url(#id157)}
    .fil197 {fill:url(#id158)}
    .fil55 {fill:url(#id159)}
    .fil13 {fill:url(#id160)}
    .fil5 {fill:url(#id161)}
    .fil101 {fill:url(#id162)}
    .fil126 {fill:url(#id163)}
    .fil135 {fill:url(#id164)}
    .fil198 {fill:url(#id165)}
    .fil83 {fill:url(#id166)}
    .fil180 {fill:url(#id167)}
    .fil153 {fill:url(#id168)}
    .fil191 {fill:url(#id169)}
    .fil12 {fill:url(#id170)}
    .fil164 {fill:url(#id171)}
    .fil156 {fill:url(#id172)}
    .fil41 {fill:url(#id173)}
    .fil182 {fill:url(#id174)}
    .fil130 {fill:url(#id175)}
    .fil54 {fill:url(#id176)}
    .fil82 {fill:url(#id177)}
    .fil0 {fill:url(#id178)}
    .fil36 {fill:url(#id179)}
    .fil93 {fill:url(#id180)}
    .fil46 {fill:url(#id181)}
    .fil144 {fill:url(#id182)}
    .fil50 {fill:url(#id183)}
    .fil178 {fill:url(#id184)}
    .fil28 {fill:url(#id185)}
    .fil151 {fill:url(#id186)}
    .fil7 {fill:url(#id187)}
    .fil175 {fill:url(#id188)}
    .fil79 {fill:url(#id189)}
    .fil127 {fill:url(#id190)}
    .fil14 {fill:url(#id191)}
    .fil189 {fill:url(#id192)}
    .fil199 {fill:url(#id193)}
    .fil134 {fill:url(#id194)}
    .fil61 {fill:url(#id195)}
    .fil64 {fill:url(#id196)}
    .fil72 {fill:url(#id197)}
    .fil168 {fill:url(#id198)}
    .fil141 {fill:url(#id199)}
    .fil10 {fill:url(#id200)}
    .fil18 {fill:url(#id201)}
    .fil192 {fill:url(#id202)}
    .fil32 {fill:url(#id203)}
    .fil213 {fill:url(#id204)}
    .fil103 {fill:url(#id205)}
    .fil202 {fill:url(#id206)}
    .fil106 {fill:url(#id207)}
    .fil158 {fill:url(#id208)}
    .fil117 {fill:url(#id209)}
    .fil110 {fill:url(#id210)}
    .fil165 {fill:url(#id211)}
    .fil206 {fill:url(#id212)}
    .fil96 {fill:url(#id213)}
    .fil120 {fill:url(#id214)}
    .fil154 {fill:url(#id215)}
   ]]>
  </style>
  <linearGradient id="id0" gradientUnits="objectBoundingBox" x1="10.7609%" y1="77.6504%" x2="89.239%" y2="22.2894%">
   <stop offset="0" style="stop-opacity:1; stop-color:#0098DA"/>
   <stop offset="1" style="stop-opacity:1; stop-color:#FEFEFE"/>
  </linearGradient>
  <linearGradient id="id1" gradientUnits="objectBoundingBox" xlink:href="#id0" x1="19.922%" y1="79.6764%" x2="80.078%" y2="20.3378%">
  </linearGradient>
  <linearGradient id="id2" gradientUnits="objectBoundingBox" xlink:href="#id0" x1="34.0044%" y1="7.50828%" x2="65.9957%" y2="92.4868%">
  </linearGradient>
  <linearGradient id="id3" gradientUnits="userSpaceOnUse" xlink:href="#id0" x1="2229.77" y1="3662.37" x2="2229.34" y2="3673.17">
  </linearGradient>
  <linearGradient id="id4" gradientUnits="objectBoundingBox" xlink:href="#id0" x1="29.675%" y1="91.1545%" x2="70.3242%" y2="8.83895%">
  </linearGradient>
  <linearGradient id="id5" gradientUnits="userSpaceOnUse" xlink:href="#id0" x1="3194.45" y1="3638.4" x2="3195" y2="3645.37">
  </linearGradient>
  <linearGradient id="id6" gradientUnits="userSpaceOnUse" xlink:href="#id0" x1="4213.88" y1="2173.19" x2="4221.59" y2="2180.76">
  </linearGradient>
  <linearGradient id="id7" gradientUnits="userSpaceOnUse" xlink:href="#id0" x1="1870" y1="3297.31" x2="1910.65" y2="3294.93">
  </linearGradient>
  <linearGradient id="id8" gradientUnits="userSpaceOnUse" xlink:href="#id0" x1="2288.18" y1="3048.37" x2="2303.18" y2="3035.51">
  </linearGradient>
  <linearGradient id="id9" gradientUnits="userSpaceOnUse" xlink:href="#id0" x1="4925.91" y1="763.816" x2="4952" y2="756.334">
  </linearGradient>
  <linearGradient id="id10" gradientUnits="userSpaceOnUse" xlink:href="#id0" x1="3186.15" y1="3636.51" x2="3186.69" y2="3643.48">
  </linearGradient>
  <linearGradient id="id11" gradientUnits="userSpaceOnUse" xlink:href="#id0" x1="2246.62" y1="2707.01" x2="2248.82" y2="2696.67">
  </linearGradient>
  <linearGradient id="id12" gradientUnits="userSpaceOnUse" xlink:href="#id0" x1="2877.03" y1="2732.16" x2="2892.03" y2="2719.3">
  </linearGradient>
  <linearGradient id="id13" gradientUnits="userSpaceOnUse" xlink:href="#id0" x1="3567.73" y1="3065.49" x2="3609.59" y2="3043.69">
  </linearGradient>
  <linearGradient id="id14" gradientUnits="userSpaceOnUse" xlink:href="#id0" x1="1630.81" y1="2697.99" x2="1636.84" y2="2689.3">
  </linearGradient>
  <linearGradient id="id15" gradientUnits="userSpaceOnUse" xlink:href="#id0" x1="1534.78" y1="3035.81" x2="1575.72" y2="3033.39">
  </linearGradient>
  <linearGradient id="id16" gradientUnits="userSpaceOnUse" xlink:href="#id0" x1="3272.52" y1="2264.09" x2="3298.2" y2="2232.13">
  </linearGradient>
  <linearGradient id="id17" gradientUnits="userSpaceOnUse" xlink:href="#id0" x1="1634.76" y1="2702.12" x2="1648.57" y2="2684.26">
  </linearGradient>
  <linearGradient id="id18" gradientUnits="userSpaceOnUse" xlink:href="#id0" x1="1531.49" y1="3035.74" x2="1578.86" y2="3031.76">
  </linearGradient>
  <linearGradient id="id19" gradientUnits="objectBoundingBox" xlink:href="#id0" x1="34.19%" y1="7.45314%" x2="65.8099%" y2="92.5419%">
  </linearGradient>
  <linearGradient id="id20" gradientUnits="userSpaceOnUse" xlink:href="#id0" x1="3199.21" y1="2276.17" x2="3249.99" y2="2537.36">
  </linearGradient>
  <linearGradient id="id21" gradientUnits="userSpaceOnUse" xlink:href="#id0" x1="3910.29" y1="962.651" x2="3911.71" y2="955.976">
  </linearGradient>
  <linearGradient id="id22" gradientUnits="userSpaceOnUse" xlink:href="#id0" x1="3182.17" y1="3631.9" x2="3178.19" y2="3648.83">
  </linearGradient>
  <linearGradient id="id23" gradientUnits="userSpaceOnUse" xlink:href="#id0" x1="2896.64" y1="3623.93" x2="2902.71" y2="3644.93">
  </linearGradient>
  <linearGradient id="id24" gradientUnits="objectBoundingBox" xlink:href="#id0" x1="21.4198%" y1="88.6074%" x2="78.6008%" y2="11.3763%">
  </linearGradient>
  <linearGradient id="id25" gradientUnits="userSpaceOnUse" xlink:href="#id0" x1="2223.27" y1="3649.69" x2="2225.5" y2="3674.03">
  </linearGradient>
  <linearGradient id="id26" gradientUnits="objectBoundingBox" xlink:href="#id0" x1="42.0815%" y1="92.9387%" x2="57.9211%" y2="7.07625%">
  </linearGradient>
  <linearGradient id="id27" gradientUnits="objectBoundingBox" xlink:href="#id0" x1="57.0873%" y1="7.01421%" x2="42.9163%" y2="92.9891%">
  </linearGradient>
  <linearGradient id="id28" gradientUnits="userSpaceOnUse" xlink:href="#id0" x1="3760.94" y1="3048.35" x2="3764.72" y2="3058.47">
  </linearGradient>
  <linearGradient id="id29" gradientUnits="objectBoundingBox" xlink:href="#id0" x1="57.9241%" y1="7.03051%" x2="42.0822%" y2="92.9598%">
  </linearGradient>
  <linearGradient id="id30" gradientUnits="userSpaceOnUse" xlink:href="#id0" x1="4202.35" y1="1259.64" x2="4225.95" y2="1248.07">
  </linearGradient>
  <linearGradient id="id31" gradientUnits="userSpaceOnUse" xlink:href="#id0" x1="3905.24" y1="967.699" x2="3906.66" y2="961.024">
  </linearGradient>
  <linearGradient id="id32" gradientUnits="objectBoundingBox" xlink:href="#id0" x1="26.1275%" y1="16.0943%" x2="73.8877%" y2="83.8792%">
  </linearGradient>
  <linearGradient id="id33" gradientUnits="objectBoundingBox" xlink:href="#id0" x1="36.2804%" y1="91.6129%" x2="63.7252%" y2="8.36884%">
  </linearGradient>
  <linearGradient id="id34" gradientUnits="userSpaceOnUse" xlink:href="#id0" x1="3646.84" y1="3918.79" x2="3639.34" y2="3953.69">
  </linearGradient>
  <linearGradient id="id35" gradientUnits="userSpaceOnUse" xlink:href="#id0" x1="4200.39" y1="1260.31" x2="4227.4" y2="1246.23">
  </linearGradient>
  <linearGradient id="id36" gradientUnits="userSpaceOnUse" xlink:href="#id0" x1="2285.73" y1="3056.89" x2="2327.87" y2="3034.89">
  </linearGradient>
  <linearGradient id="id37" gradientUnits="objectBoundingBox" xlink:href="#id0" x1="15.9955%" y1="69.5422%" x2="83.9947%" y2="30.4525%">
  </linearGradient>
  <linearGradient id="id38" gradientUnits="userSpaceOnUse" xlink:href="#id0" x1="3689.05" y1="2193.33" x2="3717.72" y2="2155.84">
  </linearGradient>
  <linearGradient id="id39" gradientUnits="objectBoundingBox" xlink:href="#id0" x1="41.8803%" y1="92.9553%" x2="58.1123%" y2="7.04643%">
  </linearGradient>
  <linearGradient id="id40" gradientUnits="userSpaceOnUse" xlink:href="#id0" x1="1866.8" y1="3297.09" x2="1913.83" y2="3293.17">
  </linearGradient>
  <linearGradient id="id41" gradientUnits="userSpaceOnUse" xlink:href="#id0" x1="2693.46" y1="2442.88" x2="2697.42" y2="2447.67">
  </linearGradient>
  <linearGradient id="id42" gradientUnits="objectBoundingBox" xlink:href="#id0" x1="25.5059%" y1="88.4673%" x2="74.4968%" y2="11.5518%">
  </linearGradient>
  <linearGradient id="id43" gradientUnits="userSpaceOnUse" xlink:href="#id0" x1="4485.68" y1="659.521" x2="4488.11" y2="653.946">
  </linearGradient>
  <linearGradient id="id44" gradientUnits="userSpaceOnUse" xlink:href="#id0" x1="4469.91" y1="856.662" x2="4479.84" y2="851.136">
  </linearGradient>
  <linearGradient id="id45" gradientUnits="userSpaceOnUse" xlink:href="#id0" x1="3735.64" y1="1629.54" x2="3765.07" y2="1603.89">
  </linearGradient>
  <linearGradient id="id46" gradientUnits="objectBoundingBox" xlink:href="#id0" x1="20.4011%" y1="79.1288%" x2="79.606%" y2="20.877%">
  </linearGradient>
  <linearGradient id="id47" gradientUnits="userSpaceOnUse" xlink:href="#id0" x1="3937.12" y1="1182.99" x2="3946.8" y2="1174.69">
  </linearGradient>
  <linearGradient id="id48" gradientUnits="objectBoundingBox" xlink:href="#id0" x1="39.0109%" y1="9.27071%" x2="60.9971%" y2="90.7252%">
  </linearGradient>
  <linearGradient id="id49" gradientUnits="objectBoundingBox" xlink:href="#id0" x1="31.7749%" y1="86.1845%" x2="68.2327%" y2="13.8106%">
  </linearGradient>
  <linearGradient id="id50" gradientUnits="objectBoundingBox" xlink:href="#id0" x1="25.5957%" y1="15.6715%" x2="74.403%" y2="84.3536%">
  </linearGradient>
  <linearGradient id="id51" gradientUnits="userSpaceOnUse" xlink:href="#id0" x1="2696.05" y1="3168.15" x2="2737.91" y2="3146.35">
  </linearGradient>
  <linearGradient id="id52" gradientUnits="userSpaceOnUse" xlink:href="#id0" x1="1872.19" y1="3290.27" x2="1890.87" y2="3284.37">
  </linearGradient>
  <linearGradient id="id53" gradientUnits="userSpaceOnUse" xlink:href="#id0" x1="4156.47" y1="1695.16" x2="4161.47" y2="1702.57">
  </linearGradient>
  <linearGradient id="id54" gradientUnits="userSpaceOnUse" xlink:href="#id0" x1="2680.08" y1="2437.17" x2="2690.39" y2="2446.73">
  </linearGradient>
  <linearGradient id="id55" gradientUnits="objectBoundingBox" xlink:href="#id0" x1="46.028%" y1="8.01841%" x2="53.9591%" y2="92.0065%">
  </linearGradient>
  <linearGradient id="id56" gradientUnits="objectBoundingBox" xlink:href="#id0" x1="49.0274%" y1="90.2516%" x2="50.9751%" y2="9.73324%">
  </linearGradient>
  <linearGradient id="id57" gradientUnits="objectBoundingBox" xlink:href="#id0" x1="31.132%" y1="86.6621%" x2="68.8663%" y2="13.3421%">
  </linearGradient>
  <linearGradient id="id58" gradientUnits="objectBoundingBox" xlink:href="#id0" x1="20.6244%" y1="79.3473%" x2="79.3852%" y2="20.6494%">
  </linearGradient>
  <linearGradient id="id59" gradientUnits="objectBoundingBox" xlink:href="#id0" x1="34.1848%" y1="7.4839%" x2="65.8035%" y2="92.5325%">
  </linearGradient>
  <linearGradient id="id60" gradientUnits="userSpaceOnUse" xlink:href="#id0" x1="2698.39" y1="3159.78" x2="2713.33" y2="3147.11">
  </linearGradient>
  <linearGradient id="id61" gradientUnits="userSpaceOnUse" xlink:href="#id0" x1="3687.62" y1="2184.75" x2="3695.79" y2="2166.95">
  </linearGradient>
  <linearGradient id="id62" gradientUnits="userSpaceOnUse" xlink:href="#id0" x1="3161.19" y1="3355.38" x2="3172.67" y2="3376.95">
  </linearGradient>
  <linearGradient id="id63" gradientUnits="userSpaceOnUse" xlink:href="#id0" x1="4928.19" y1="759.364" x2="4938.06" y2="753.942">
  </linearGradient>
  <linearGradient id="id64" gradientUnits="objectBoundingBox" xlink:href="#id0" x1="20.401%" y1="79.1223%" x2="79.6032%" y2="20.8714%">
  </linearGradient>
  <linearGradient id="id65" gradientUnits="userSpaceOnUse" xlink:href="#id0" x1="3384.16" y1="1619.62" x2="3413.78" y2="1593.77">
  </linearGradient>
  <linearGradient id="id66" gradientUnits="userSpaceOnUse" xlink:href="#id0" x1="3935.53" y1="1188.49" x2="3962.73" y2="1174.29">
  </linearGradient>
  <linearGradient id="id67" gradientUnits="objectBoundingBox" xlink:href="#id0" x1="54.4171%" y1="7.13093%" x2="45.5818%" y2="92.8703%">
  </linearGradient>
  <linearGradient id="id68" gradientUnits="objectBoundingBox" xlink:href="#id0" x1="30.4472%" y1="92.1894%" x2="69.5564%" y2="7.80495%">
  </linearGradient>
  <linearGradient id="id69" gradientUnits="objectBoundingBox" xlink:href="#id0" x1="34.0041%" y1="7.51152%" x2="65.9951%" y2="92.4915%">
  </linearGradient>
  <linearGradient id="id70" gradientUnits="userSpaceOnUse" xlink:href="#id0" x1="4020.31" y1="3195.03" x2="4035.31" y2="3182.16">
  </linearGradient>
  <linearGradient id="id71" gradientUnits="userSpaceOnUse" xlink:href="#id0" x1="4209.52" y1="2798.75" x2="4211.69" y2="2788.1">
  </linearGradient>
  <linearGradient id="id72" gradientUnits="userSpaceOnUse" xlink:href="#id0" x1="2877.63" y1="2739.47" x2="2914.45" y2="2721.4">
  </linearGradient>
  <linearGradient id="id73" gradientUnits="userSpaceOnUse" xlink:href="#id0" x1="4145.93" y1="1689.9" x2="4159.34" y2="1705.02">
  </linearGradient>
  <linearGradient id="id74" gradientUnits="objectBoundingBox" xlink:href="#id0" x1="30.5488%" y1="7.62618%" x2="69.4368%" y2="92.3818%">
  </linearGradient>
  <linearGradient id="id75" gradientUnits="userSpaceOnUse" xlink:href="#id0" x1="3270.26" y1="2266.48" x2="3299.1" y2="2228.7">
  </linearGradient>
  <linearGradient id="id76" gradientUnits="objectBoundingBox" xlink:href="#id0" x1="19.9199%" y1="79.6803%" x2="80.0756%" y2="20.3332%">
  </linearGradient>
  <linearGradient id="id77" gradientUnits="userSpaceOnUse" xlink:href="#id0" x1="2710.37" y1="3812.14" x2="2716.44" y2="3833.13">
  </linearGradient>
  <linearGradient id="id78" gradientUnits="userSpaceOnUse" xlink:href="#id0" x1="1537.05" y1="3028.83" x2="1555.85" y2="3022.78">
  </linearGradient>
  <linearGradient id="id79" gradientUnits="userSpaceOnUse" xlink:href="#id0" x1="4017.86" y1="3204.03" x2="4060" y2="3182.04">
  </linearGradient>
  <linearGradient id="id80" gradientUnits="userSpaceOnUse" xlink:href="#id0" x1="3913.67" y1="964.125" x2="3917.43" y2="950.048">
  </linearGradient>
  <linearGradient id="id81" gradientUnits="objectBoundingBox" xlink:href="#id0" x1="25.2078%" y1="88.4804%" x2="74.7831%" y2="11.5242%">
  </linearGradient>
  <linearGradient id="id82" gradientUnits="userSpaceOnUse" xlink:href="#id0" x1="4203.48" y1="2169.43" x2="4211.19" y2="2176.99">
  </linearGradient>
  <linearGradient id="id83" gradientUnits="userSpaceOnUse" xlink:href="#id0" x1="3287.94" y1="2850.91" x2="3324.5" y2="2832.98">
  </linearGradient>
  <linearGradient id="id84" gradientUnits="userSpaceOnUse" xlink:href="#id0" x1="4469.41" y1="860.852" x2="4492.23" y2="854.896">
  </linearGradient>
  <linearGradient id="id85" gradientUnits="userSpaceOnUse" xlink:href="#id0" x1="3172.1" y1="3364.56" x2="3175.87" y2="3374.68">
  </linearGradient>
  <linearGradient id="id86" gradientUnits="userSpaceOnUse" xlink:href="#id0" x1="3735.89" y1="1622.35" x2="3745.45" y2="1609.27">
  </linearGradient>
  <linearGradient id="id87" gradientUnits="userSpaceOnUse" xlink:href="#id0" x1="3293.47" y1="3946.81" x2="3285.86" y2="3977.59">
  </linearGradient>
  <linearGradient id="id88" gradientUnits="userSpaceOnUse" xlink:href="#id0" x1="2251.86" y1="2709.3" x2="2257.68" y2="2687.49">
  </linearGradient>
  <linearGradient id="id89" gradientUnits="objectBoundingBox" xlink:href="#id0" x1="41.8842%" y1="92.9583%" x2="58.1146%" y2="7.03765%">
  </linearGradient>
  <linearGradient id="id90" gradientUnits="userSpaceOnUse" xlink:href="#id0" x1="3651.15" y1="3925.48" x2="3651.45" y2="3940.36">
  </linearGradient>
  <linearGradient id="id91" gradientUnits="objectBoundingBox" xlink:href="#id0" x1="14.7041%" y1="83.9627%" x2="85.2916%" y2="16.0415%">
  </linearGradient>
  <linearGradient id="id92" gradientUnits="userSpaceOnUse" xlink:href="#id0" x1="4927.74" y1="763.586" x2="4950.41" y2="757.678">
  </linearGradient>
  <linearGradient id="id93" gradientUnits="objectBoundingBox" xlink:href="#id0" x1="14.5307%" y1="83.7716%" x2="85.4627%" y2="16.2094%">
  </linearGradient>
  <linearGradient id="id94" gradientUnits="objectBoundingBox" xlink:href="#id0" x1="41.8867%" y1="92.949%" x2="58.1189%" y2="7.04167%">
  </linearGradient>
  <linearGradient id="id95" gradientUnits="userSpaceOnUse" xlink:href="#id0" x1="4222.12" y1="2793.06" x2="4227.86" y2="2770.6">
  </linearGradient>
  <linearGradient id="id96" gradientUnits="userSpaceOnUse" xlink:href="#id0" x1="2698.6" y1="3807.73" x2="2705.18" y2="3846.96">
  </linearGradient>
  <linearGradient id="id97" gradientUnits="userSpaceOnUse" xlink:href="#id0" x1="3768.77" y1="3056.17" x2="3772.54" y2="3066.29">
  </linearGradient>
  <linearGradient id="id98" gradientUnits="userSpaceOnUse" xlink:href="#id0" x1="2336.4" y1="2435.61" x2="2401.97" y2="2772.87">
  </linearGradient>
  <linearGradient id="id99" gradientUnits="userSpaceOnUse" xlink:href="#id0" x1="4512.72" y1="1392.13" x2="4515.15" y2="1398.66">
  </linearGradient>
  <linearGradient id="id100" gradientUnits="userSpaceOnUse" xlink:href="#id0" x1="4488.37" y1="661.409" x2="4494.16" y2="649.788">
  </linearGradient>
  <linearGradient id="id101" gradientUnits="objectBoundingBox" xlink:href="#id0" x1="14.5332%" y1="83.785%" x2="85.4712%" y2="16.2255%">
  </linearGradient>
  <linearGradient id="id102" gradientUnits="userSpaceOnUse" xlink:href="#id0" x1="2288.79" y1="3055.68" x2="2325.6" y2="3037.61">
  </linearGradient>
  <linearGradient id="id103" gradientUnits="objectBoundingBox" xlink:href="#id0" x1="42.0059%" y1="92.9498%" x2="57.9937%" y2="7.04117%">
  </linearGradient>
  <linearGradient id="id104" gradientUnits="objectBoundingBox" xlink:href="#id0" x1="34.1923%" y1="7.46405%" x2="65.8122%" y2="92.5373%">
  </linearGradient>
  <linearGradient id="id105" gradientUnits="objectBoundingBox" xlink:href="#id0" x1="38.3613%" y1="9.04916%" x2="61.6281%" y2="90.9511%">
  </linearGradient>
  <linearGradient id="id106" gradientUnits="objectBoundingBox" xlink:href="#id0" x1="46.1058%" y1="9.51463%" x2="53.8885%" y2="90.4916%">
  </linearGradient>
  <linearGradient id="id107" gradientUnits="objectBoundingBox" xlink:href="#id0" x1="23.8076%" y1="20.7758%" x2="76.1888%" y2="79.2296%">
  </linearGradient>
  <linearGradient id="id108" gradientUnits="userSpaceOnUse" xlink:href="#id0" x1="4467.55" y1="861.18" x2="4493.82" y2="853.623">
  </linearGradient>
  <linearGradient id="id109" gradientUnits="objectBoundingBox" xlink:href="#id0" x1="20.4033%" y1="79.12%" x2="79.6055%" y2="20.88%">
  </linearGradient>
  <linearGradient id="id110" gradientUnits="userSpaceOnUse" xlink:href="#id0" x1="4217.34" y1="2790.44" x2="4219.51" y2="2779.79">
  </linearGradient>
  <linearGradient id="id111" gradientUnits="objectBoundingBox" xlink:href="#id0" x1="8.43791%" y1="69.6314%" x2="91.5403%" y2="30.3521%">
  </linearGradient>
  <linearGradient id="id112" gradientUnits="objectBoundingBox" xlink:href="#id0" x1="56.2358%" y1="86.6644%" x2="43.7663%" y2="13.3448%">
  </linearGradient>
  <linearGradient id="id113" gradientUnits="objectBoundingBox" xlink:href="#id0" x1="14.524%" y1="83.7831%" x2="85.4561%" y2="16.2209%">
  </linearGradient>
  <linearGradient id="id114" gradientUnits="userSpaceOnUse" xlink:href="#id0" x1="3280.1" y1="1353.7" x2="3279.87" y2="1344.96">
  </linearGradient>
  <linearGradient id="id115" gradientUnits="userSpaceOnUse" xlink:href="#id0" x1="2827.64" y1="2398.63" x2="2829.85" y2="2388.29">
  </linearGradient>
  <linearGradient id="id116" gradientUnits="userSpaceOnUse" xlink:href="#id0" x1="3384.48" y1="1612.3" x2="3394.04" y2="1599.05">
  </linearGradient>
  <linearGradient id="id117" gradientUnits="userSpaceOnUse" xlink:href="#id0" x1="3284.89" y1="2851.94" x2="3326.75" y2="2830.14">
  </linearGradient>
  <linearGradient id="id118" gradientUnits="userSpaceOnUse" xlink:href="#id0" x1="4201.9" y1="1254.9" x2="4211.54" y2="1246.72">
  </linearGradient>
  <linearGradient id="id119" gradientUnits="userSpaceOnUse" xlink:href="#id0" x1="2347.94" y1="3373.08" x2="2398.72" y2="3634.27">
  </linearGradient>
  <linearGradient id="id120" gradientUnits="objectBoundingBox" xlink:href="#id0" x1="30.5066%" y1="92.2933%" x2="69.5002%" y2="7.71111%">
  </linearGradient>
  <linearGradient id="id121" gradientUnits="objectBoundingBox" xlink:href="#id0" x1="34.0065%" y1="7.50433%" x2="65.9978%" y2="92.496%">
  </linearGradient>
  <linearGradient id="id122" gradientUnits="userSpaceOnUse" xlink:href="#id0" x1="4500.63" y1="1381.16" x2="4508.04" y2="1395.08">
  </linearGradient>
  <linearGradient id="id123" gradientUnits="userSpaceOnUse" xlink:href="#id0" x1="3086.15" y1="3526.04" x2="3053.29" y2="3694.98">
  </linearGradient>
  <linearGradient id="id124" gradientUnits="userSpaceOnUse" xlink:href="#id0" x1="3179.92" y1="3372.38" x2="3183.7" y2="3382.5">
  </linearGradient>
  <linearGradient id="id125" gradientUnits="userSpaceOnUse" xlink:href="#id0" x1="2699.09" y1="3167.12" x2="2735.65" y2="3149.19">
  </linearGradient>
  <linearGradient id="id126" gradientUnits="userSpaceOnUse" xlink:href="#id0" x1="3092.22" y1="1966.03" x2="3088.25" y2="1943.81">
  </linearGradient>
  <linearGradient id="id127" gradientUnits="userSpaceOnUse" xlink:href="#id0" x1="3737.88" y1="1628.12" x2="3763.81" y2="1606.62">
  </linearGradient>
  <linearGradient id="id128" gradientUnits="userSpaceOnUse" xlink:href="#id0" x1="4020.92" y1="3202.83" x2="4057.73" y2="3184.76">
  </linearGradient>
  <linearGradient id="id129" gradientUnits="objectBoundingBox" xlink:href="#id0" x1="49.1934%" y1="90.547%" x2="50.8101%" y2="9.44228%">
  </linearGradient>
  <linearGradient id="id130" gradientUnits="userSpaceOnUse" xlink:href="#id0" x1="3298.1" y1="3950.55" x2="3298.26" y2="3965.82">
  </linearGradient>
  <linearGradient id="id131" gradientUnits="userSpaceOnUse" xlink:href="#id0" x1="2840.71" y1="2393.09" x2="2846.53" y2="2371.28">
  </linearGradient>
  <linearGradient id="id132" gradientUnits="userSpaceOnUse" xlink:href="#id0" x1="3293.55" y1="3943.68" x2="3285.63" y2="3979.56">
  </linearGradient>
  <linearGradient id="id133" gradientUnits="userSpaceOnUse" xlink:href="#id0" x1="2238.8" y1="2714.84" x2="2241" y2="2704.5">
  </linearGradient>
  <linearGradient id="id134" gradientUnits="objectBoundingBox" xlink:href="#id0" x1="13.1496%" y1="58.1652%" x2="86.8488%" y2="41.8394%">
  </linearGradient>
  <linearGradient id="id135" gradientUnits="objectBoundingBox" xlink:href="#id0" x1="19.9241%" y1="79.6712%" x2="80.0801%" y2="20.3326%">
  </linearGradient>
  <linearGradient id="id136" gradientUnits="userSpaceOnUse" xlink:href="#id0" x1="3268.87" y1="2257.73" x2="3277" y2="2239.73">
  </linearGradient>
  <linearGradient id="id137" gradientUnits="userSpaceOnUse" xlink:href="#id0" x1="3289.53" y1="1346.72" x2="3289.99" y2="1328.06">
  </linearGradient>
  <linearGradient id="id138" gradientUnits="objectBoundingBox" xlink:href="#id0" x1="23.2196%" y1="20.0835%" x2="76.7848%" y2="79.9117%">
  </linearGradient>
  <linearGradient id="id139" gradientUnits="userSpaceOnUse" xlink:href="#id0" x1="2835.47" y1="2390.8" x2="2837.67" y2="2380.46">
  </linearGradient>
  <linearGradient id="id140" gradientUnits="userSpaceOnUse" xlink:href="#id0" x1="4189.71" y1="2165.74" x2="4209.26" y2="2180.41">
  </linearGradient>
  <linearGradient id="id141" gradientUnits="userSpaceOnUse" xlink:href="#id0" x1="3691.37" y1="2191.11" x2="3716.89" y2="2159.37">
  </linearGradient>
  <linearGradient id="id142" gradientUnits="userSpaceOnUse" xlink:href="#id0" x1="2698.12" y1="3803.54" x2="2706.45" y2="3849.63">
  </linearGradient>
  <linearGradient id="id143" gradientUnits="userSpaceOnUse" xlink:href="#id0" x1="3287.23" y1="2843.57" x2="3302.18" y2="2830.9">
  </linearGradient>
  <linearGradient id="id144" gradientUnits="userSpaceOnUse" xlink:href="#id0" x1="3082.74" y1="1976.58" x2="3080.35" y2="1966.28">
  </linearGradient>
  <linearGradient id="id145" gradientUnits="objectBoundingBox" xlink:href="#id0" x1="20.1419%" y1="79.8887%" x2="79.863%" y2="20.1148%">
  </linearGradient>
  <linearGradient id="id146" gradientUnits="objectBoundingBox" xlink:href="#id0" x1="46.541%" y1="9.1733%" x2="53.4642%" y2="90.8307%">
  </linearGradient>
  <linearGradient id="id147" gradientUnits="userSpaceOnUse" xlink:href="#id0" x1="3750.04" y1="3039.17" x2="3761.52" y2="3060.74">
  </linearGradient>
  <linearGradient id="id148" gradientUnits="userSpaceOnUse" xlink:href="#id0" x1="3086.51" y1="1966.18" x2="3084.12" y2="1955.88">
  </linearGradient>
  <linearGradient id="id149" gradientUnits="userSpaceOnUse" xlink:href="#id0" x1="3646.4" y1="3921.6" x2="3639.17" y2="3951.53">
  </linearGradient>
  <linearGradient id="id150" gradientUnits="objectBoundingBox" xlink:href="#id0" x1="42.0855%" y1="92.9417%" x2="57.9257%" y2="7.05448%">
  </linearGradient>
  <linearGradient id="id151" gradientUnits="objectBoundingBox" xlink:href="#id0" x1="55.0832%" y1="7.07354%" x2="44.9278%" y2="92.9266%">
  </linearGradient>
  <linearGradient id="id152" gradientUnits="objectBoundingBox" xlink:href="#id0" x1="27.9086%" y1="12.2282%" x2="72.101%" y2="87.7652%">
  </linearGradient>
  <linearGradient id="id153" gradientUnits="userSpaceOnUse" xlink:href="#id0" x1="2687.74" y1="2440.11" x2="2691.7" y2="2444.89">
  </linearGradient>
  <linearGradient id="id154" gradientUnits="objectBoundingBox" xlink:href="#id0" x1="16.5371%" y1="68.5821%" x2="83.4584%" y2="31.4073%">
  </linearGradient>
  <linearGradient id="id155" gradientUnits="userSpaceOnUse" xlink:href="#id0" x1="2884.87" y1="3620.01" x2="2891.44" y2="3659.24">
  </linearGradient>
  <linearGradient id="id156" gradientUnits="objectBoundingBox" xlink:href="#id0" x1="28.3528%" y1="12.4572%" x2="71.6466%" y2="87.5505%">
  </linearGradient>
  <linearGradient id="id157" gradientUnits="userSpaceOnUse" xlink:href="#id0" x1="2233.96" y1="3672.61" x2="2233.52" y2="3683.41">
  </linearGradient>
  <linearGradient id="id158" gradientUnits="objectBoundingBox" xlink:href="#id0" x1="36.722%" y1="91.5115%" x2="63.2771%" y2="8.46048%">
  </linearGradient>
  <linearGradient id="id159" gradientUnits="userSpaceOnUse" xlink:href="#id0" x1="2884.38" y1="3615.82" x2="2892.72" y2="3661.91">
  </linearGradient>
  <linearGradient id="id160" gradientUnits="userSpaceOnUse" xlink:href="#id0" x1="3570.07" y1="3057.12" x2="3585.01" y2="3044.45">
  </linearGradient>
  <linearGradient id="id161" gradientUnits="objectBoundingBox" xlink:href="#id0" x1="42.2022%" y1="92.9437%" x2="57.7976%" y2="7.06758%">
  </linearGradient>
  <linearGradient id="id162" gradientUnits="objectBoundingBox" xlink:href="#id0" x1="55.7391%" y1="86.0848%" x2="44.258%" y2="13.9035%">
  </linearGradient>
  <linearGradient id="id163" gradientUnits="userSpaceOnUse" xlink:href="#id0" x1="1620.57" y1="2702.17" x2="1626.6" y2="2693.49">
  </linearGradient>
  <linearGradient id="id164" gradientUnits="objectBoundingBox" xlink:href="#id0" x1="12.6263%" y1="59.2017%" x2="87.371%" y2="40.8079%">
  </linearGradient>
  <linearGradient id="id165" gradientUnits="userSpaceOnUse" xlink:href="#id0" x1="4480.38" y1="663.031" x2="4482.8" y2="657.456">
  </linearGradient>
  <linearGradient id="id166" gradientUnits="userSpaceOnUse" xlink:href="#id0" x1="2874.58" y1="2740.68" x2="2916.72" y2="2718.68">
  </linearGradient>
  <linearGradient id="id167" gradientUnits="userSpaceOnUse" xlink:href="#id0" x1="3937.51" y1="1187.71" x2="3961.27" y2="1176.05">
  </linearGradient>
  <linearGradient id="id168" gradientUnits="userSpaceOnUse" xlink:href="#id0" x1="3284.88" y1="1345.9" x2="3284.64" y2="1337.16">
  </linearGradient>
  <linearGradient id="id169" gradientUnits="userSpaceOnUse" xlink:href="#id0" x1="4507.67" y1="1387.08" x2="4510.11" y2="1393.62">
  </linearGradient>
  <linearGradient id="id170" gradientUnits="userSpaceOnUse" xlink:href="#id0" x1="3570.78" y1="3064.46" x2="3607.34" y2="3046.53">
  </linearGradient>
  <linearGradient id="id171" gradientUnits="userSpaceOnUse" xlink:href="#id0" x1="4164.28" y1="1699.93" x2="4169.28" y2="1707.34">
  </linearGradient>
  <linearGradient id="id172" gradientUnits="userSpaceOnUse" xlink:href="#id0" x1="3386.38" y1="1618.06" x2="3412.48" y2="1596.4">
  </linearGradient>
  <linearGradient id="id173" gradientUnits="objectBoundingBox" xlink:href="#id0" x1="42.0832%" y1="92.9465%" x2="57.9233%" y2="7.0435%">
  </linearGradient>
  <linearGradient id="id174" gradientUnits="userSpaceOnUse" xlink:href="#id0" x1="4145.08" y1="888.657" x2="4177.86" y2="1057.25">
  </linearGradient>
  <linearGradient id="id175" gradientUnits="userSpaceOnUse" xlink:href="#id0" x1="1846.34" y1="2793.55" x2="1749.29" y2="3259.7">
  </linearGradient>
  <linearGradient id="id176" gradientUnits="userSpaceOnUse" xlink:href="#id0" x1="2622.8" y1="3189.37" x2="2735.38" y2="3768.3">
  </linearGradient>
  <linearGradient id="id177" gradientUnits="userSpaceOnUse" xlink:href="#id0" x1="3071.18" y1="2395.54" x2="3162.07" y2="2862.93">
  </linearGradient>
  <linearGradient id="id178" gradientUnits="userSpaceOnUse" xlink:href="#id0" x1="4192.1" y1="2743.54" x2="4304.67" y2="3322.46">
  </linearGradient>
  <linearGradient id="id179" gradientUnits="userSpaceOnUse" xlink:href="#id0" x1="2871.49" y1="2719.61" x2="2981.38" y2="3284.69">
  </linearGradient>
  <linearGradient id="id180" gradientUnits="userSpaceOnUse" xlink:href="#id0" x1="3609.07" y1="2787.67" x2="3674.65" y2="3124.92">
  </linearGradient>
  <linearGradient id="id181" gradientUnits="userSpaceOnUse" xlink:href="#id0" x1="2482.34" y1="2711.75" x2="2573.23" y2="3179.14">
  </linearGradient>
  <linearGradient id="id182" gradientUnits="userSpaceOnUse" xlink:href="#id0" x1="3789.73" y1="1234.89" x2="3987.65" y2="1667.93">
  </linearGradient>
  <linearGradient id="id183" gradientUnits="userSpaceOnUse" xlink:href="#id0" x1="2610.36" y1="2592.38" x2="2661.15" y2="2853.57">
  </linearGradient>
  <linearGradient id="id184" gradientUnits="userSpaceOnUse" xlink:href="#id0" x1="4062.44" y1="965.708" x2="4121.1" y2="1267.4">
  </linearGradient>
  <linearGradient id="id185" gradientUnits="userSpaceOnUse" xlink:href="#id0" x1="3506.33" y1="3684.27" x2="3437.68" y2="4037.32">
  </linearGradient>
  <linearGradient id="id186" gradientUnits="userSpaceOnUse" xlink:href="#id0" x1="3304.43" y1="1110.28" x2="3422.56" y2="1368.73">
  </linearGradient>
  <linearGradient id="id187" gradientUnits="userSpaceOnUse" xlink:href="#id0" x1="4305.8" y1="2512.13" x2="4373" y2="2857.69">
  </linearGradient>
  <linearGradient id="id188" gradientUnits="userSpaceOnUse" xlink:href="#id0" x1="3968.24" y1="787.47" x2="4010.57" y2="1005.16">
  </linearGradient>
  <linearGradient id="id189" gradientUnits="userSpaceOnUse" xlink:href="#id0" x1="2925.24" y1="2119.41" x2="2990.83" y2="2456.66">
  </linearGradient>
  <linearGradient id="id190" gradientUnits="userSpaceOnUse" xlink:href="#id0" x1="1818.61" y1="2482.46" x2="1748.58" y2="2818.82">
  </linearGradient>
  <linearGradient id="id191" gradientUnits="userSpaceOnUse" xlink:href="#id0" x1="3892.76" y1="2613.54" x2="3942.47" y2="2869.15">
  </linearGradient>
  <linearGradient id="id192" gradientUnits="userSpaceOnUse" xlink:href="#id0" x1="4409.63" y1="1218.82" x2="4451.96" y2="1436.51">
  </linearGradient>
  <linearGradient id="id193" gradientUnits="userSpaceOnUse" xlink:href="#id0" x1="4567.44" y1="516.88" x2="4565.67" y2="714.469">
  </linearGradient>
  <linearGradient id="id194" gradientUnits="userSpaceOnUse" xlink:href="#id0" x1="2010.58" y1="2733.01" x2="1956.34" y2="2993.5">
  </linearGradient>
  <linearGradient id="id195" gradientUnits="userSpaceOnUse" xlink:href="#id0" x1="3020.22" y1="3103.88" x2="3085.8" y2="3441.13">
  </linearGradient>
  <linearGradient id="id196" gradientUnits="userSpaceOnUse" xlink:href="#id0" x1="2435.37" y1="3492.44" x2="2526.26" y2="3959.83">
  </linearGradient>
  <linearGradient id="id197" gradientUnits="userSpaceOnUse" xlink:href="#id0" x1="3460.34" y1="2403.4" x2="3570.22" y2="2968.48">
  </linearGradient>
  <linearGradient id="id198" gradientUnits="userSpaceOnUse" xlink:href="#id0" x1="4313.63" y1="970.782" x2="4384.56" y2="1335.53">
  </linearGradient>
  <linearGradient id="id199" gradientUnits="userSpaceOnUse" xlink:href="#id0" x1="2190.59" y1="3363.24" x2="2120.56" y2="3699.6">
  </linearGradient>
  <linearGradient id="id200" gradientUnits="userSpaceOnUse" xlink:href="#id0" x1="3765.7" y1="2728.41" x2="3854.57" y2="3185.44">
  </linearGradient>
  <linearGradient id="id201" gradientUnits="userSpaceOnUse" xlink:href="#id0" x1="3171.65" y1="3614.37" x2="3084.68" y2="4061.6">
  </linearGradient>
  <linearGradient id="id202" gradientUnits="userSpaceOnUse" xlink:href="#id0" x1="5076.28" y1="531.186" x2="5073.32" y2="862.252">
  </linearGradient>
  <linearGradient id="id203" gradientUnits="userSpaceOnUse" xlink:href="#id0" x1="3412.68" y1="3594.33" x2="3373.96" y2="3793.43">
  </linearGradient>
  <linearGradient id="id204" gradientUnits="userSpaceOnUse" xlink:href="#id0" x1="2556.08" y1="2327.08" x2="2655.27" y2="2497.98">
  </linearGradient>
  <linearGradient id="id205" gradientUnits="userSpaceOnUse" xlink:href="#id0" x1="3052.76" y1="1682.32" x2="3255.14" y2="1959.97">
  </linearGradient>
  <linearGradient id="id206" gradientUnits="userSpaceOnUse" xlink:href="#id0" x1="4617.98" y1="689.253" x2="4615.53" y2="963.079">
  </linearGradient>
  <linearGradient id="id207" gradientUnits="userSpaceOnUse" xlink:href="#id0" x1="3302.01" y1="1870.56" x2="3582.47" y2="2255.34">
  </linearGradient>
  <linearGradient id="id208" gradientUnits="userSpaceOnUse" xlink:href="#id0" x1="3555.11" y1="1183.22" x2="3646.58" y2="1383.37">
  </linearGradient>
  <linearGradient id="id209" gradientUnits="userSpaceOnUse" xlink:href="#id0" x1="3955.41" y1="1997.7" x2="4157.78" y2="2275.36">
  </linearGradient>
  <linearGradient id="id210" gradientUnits="userSpaceOnUse" xlink:href="#id0" x1="3367.36" y1="1708.17" x2="3524.08" y2="1923.2">
  </linearGradient>
  <linearGradient id="id211" gradientUnits="userSpaceOnUse" xlink:href="#id0" x1="3983.82" y1="1515.01" x2="4101.94" y2="1773.46">
  </linearGradient>
  <linearGradient id="id212" gradientUnits="userSpaceOnUse" xlink:href="#id0" x1="4703.83" y1="636.678" x2="4702.46" y2="789.697">
  </linearGradient>
  <linearGradient id="id213" gradientUnits="userSpaceOnUse" xlink:href="#id0" x1="3657.8" y1="1712.72" x2="3996.89" y2="2177.94">
  </linearGradient>
  <linearGradient id="id214" gradientUnits="userSpaceOnUse" xlink:href="#id0" x1="2202.14" y1="2951.36" x2="2084.8" y2="3514.94">
  </linearGradient>
  <linearGradient id="id215" gradientUnits="userSpaceOnUse" xlink:href="#id0" x1="3475.32" y1="1304.01" x2="3639.01" y2="1662.18">
  </linearGradient>
 </defs>
 <g id="Layer_x0020_1">
  <metadata id="CorelCorpID_0Corel-Layer"/>
  <g id="_2568178271088">
   <path class="fil0" d="M4355 2900c-1,38 -19,57 -50,49l-32 2 -33 6 -31 2 -14 -16 -15 21 -17 -17 -15 31 -24 -30c-13,13 -18,22 -24,39 -9,-16 -24,-14 -23,-36 -38,34 -39,44 -41,73 -87,60 -88,177 -45,236l56 -26 -41 44 200 -107c30,6 120,-29 98,-28 -29,2 -47,-17 -75,-9l56 -46 44 -73c21,-30 18,-46 61,-47 48,23 78,16 143,-9 -127,9 -196,-24 -113,-171 -34,35 -53,39 -65,112z"/>
   <path class="fil1" d="M4050 3168c15,7 21,24 15,37 -7,14 -23,19 -38,13 -14,-7 -20,-23 -14,-37 6,-14 23,-19 37,-13z"/>
   <path class="fil2" d="M4049 3173c13,6 19,20 13,32 -5,11 -20,16 -32,10 -13,-6 -19,-20 -14,-32 6,-11 20,-16 33,-10z"/>
   <path class="fil3" d="M4033 3177c4,2 5,9 2,15 -3,6 -9,10 -13,8 -4,-2 -5,-8 -2,-15 4,-6 9,-10 13,-8z"/>
   <path class="fil4" d="M4220 2779c10,-1 17,4 16,11 -1,7 -10,14 -20,15 -9,1 -17,-4 -16,-11 1,-7 10,-14 20,-15z"/>
   <path class="fil5" d="M4220 2781c9,-1 15,4 14,10 0,6 -8,11 -17,12 -9,1 -15,-3 -15,-9 1,-6 9,-12 18,-13z"/>
   <path class="fil6" d="M4211 2787c3,0 5,3 5,6 -1,3 -3,6 -6,7 -3,0 -5,-3 -4,-6 0,-3 3,-6 5,-7z"/>
   <path class="fil7" d="M4390 2600c3,17 -6,28 -26,31l-20 6 -20 9 -19 6 -10 -4 -7 12 -13 -4 -6 16 -17 -9c-8,8 -9,14 -12,22 -7,-5 -16,-2 -17,-12 -21,23 -20,27 -18,40 -48,43 -37,95 -5,114l33 -22 -21 27 113 -84c19,-3 71,-35 58,-31 -18,6 -31,1 -47,10l30 -31 19 -40c11,-18 7,-24 34,-32 31,1 49,-8 87,-31 -78,27 -124,26 -88,-55 -17,22 -28,27 -28,62z"/>
   <path class="fil8" d="M4227 2769c10,-1 17,4 16,11 -1,7 -10,14 -20,15 -10,1 -17,-4 -16,-11 1,-8 10,-14 20,-15z"/>
   <path class="fil4" d="M4220 2779c10,-1 17,4 16,11 -1,7 -10,14 -20,15 -9,1 -17,-4 -16,-11 1,-7 10,-14 20,-15z"/>
   <path class="fil5" d="M4220 2781c9,-1 15,4 14,10 0,6 -8,11 -17,12 -9,1 -15,-3 -15,-9 1,-6 9,-12 18,-13z"/>
   <path class="fil9" d="M4219 2779c3,0 5,2 4,6 0,3 -3,6 -5,6 -3,1 -5,-2 -5,-5 1,-4 3,-7 6,-7z"/>
   <path class="fil10" d="M3958 2868c-11,35 -32,48 -61,33l-31 -6 -33 -2 -30 -7 -10 -18 -20 16 -13 -20 -21 25 -16 -34c-16,8 -23,16 -33,30 -5,-17 -20,-18 -13,-39 -46,22 -49,32 -58,58 -100,35 -131,144 -106,210l62 -11 -51 32 221 -50c27,12 123,3 101,-2 -28,-6 -41,-28 -70,-27l67 -29 60 -58c29,-23 30,-39 72,-28 40,33 71,34 140,27 -125,-24 -183,-72 -65,-189 -42,25 -61,24 -92,89z"/>
   <path class="fil11" d="M3600 3031c14,6 21,22 15,35 -7,14 -23,19 -38,12 -14,-6 -21,-22 -14,-35 6,-13 23,-19 37,-12z"/>
   <path class="fil12" d="M3599 3035c12,6 18,20 13,31 -5,11 -20,15 -33,10 -12,-6 -18,-20 -13,-31 5,-11 20,-15 33,-10z"/>
   <path class="fil13" d="M3583 3039c4,2 5,9 2,15 -3,6 -9,10 -13,8 -4,-2 -5,-8 -2,-15 3,-6 9,-9 13,-8z"/>
   <path class="fil14" d="M3996 2691c-3,15 -15,23 -35,18l-21 0 -21 1 -20 0 -9 -7 -11 8 -10 -8 -11 13 -14 -14c-9,5 -12,9 -18,16 -5,-7 -14,-7 -12,-16 -27,13 -28,17 -31,29 -59,22 -66,71 -43,98l38 -9 -28 17 135 -38c19,4 78,-7 64,-8 -18,0 -29,-9 -47,-6l38 -18 33 -29c15,-12 14,-19 42,-17 29,11 49,9 92,1 -82,-1 -125,-17 -63,-76 -24,13 -36,14 -48,45z"/>
   <path class="fil15" d="M3777 2788c10,3 15,10 12,16 -4,6 -14,9 -24,7 -9,-3 -14,-10 -11,-16 3,-6 14,-9 23,-7z"/>
   <path class="fil16" d="M3777 2790c9,2 13,8 10,14 -2,5 -12,7 -20,5 -9,-2 -13,-8 -11,-13 3,-5 12,-8 21,-6z"/>
   <path class="fil17" d="M3767 2792c3,1 3,4 2,7 -2,3 -5,5 -8,4 -3,-1 -3,-3 -2,-6 2,-3 5,-5 8,-5z"/>
   <path class="fil15" d="M3777 2788c10,3 15,10 12,16 -4,6 -14,9 -24,7 -9,-3 -14,-10 -11,-16 3,-6 14,-9 23,-7z"/>
   <path class="fil16" d="M3777 2790c9,2 13,8 10,14 -2,5 -12,7 -20,5 -9,-2 -13,-8 -11,-13 3,-5 12,-8 21,-6z"/>
   <path class="fil17" d="M3767 2792c3,1 3,4 2,7 -2,3 -5,5 -8,4 -3,-1 -3,-3 -2,-6 2,-3 5,-5 8,-5z"/>
   <path class="fil18" d="M3046 3735c1,30 14,44 39,38l24 2 25 4 24 1 11 -11 12 15 13 -12 12 23 18 -22c10,9 14,17 19,29 7,-12 18,-10 17,-28 30,27 30,35 32,57 67,47 68,137 35,182l-43 -20 31 34 -154 -82c-23,4 -93,-22 -76,-22 22,1 37,-13 58,-7l-43 -36 -34 -56c-17,-23 -14,-36 -47,-36 -37,17 -60,12 -111,-7 99,6 152,-19 88,-132 26,27 40,30 50,86z"/>
   <path class="fil19" d="M3281 3943c-11,5 -16,17 -11,28 4,10 17,15 28,10 11,-6 16,-18 12,-29 -5,-10 -18,-15 -29,-9z"/>
   <path class="fil20" d="M3282 3946c-10,5 -14,16 -10,25 4,8 15,12 25,7 10,-4 15,-15 10,-24 -4,-9 -15,-12 -25,-8z"/>
   <path class="fil21" d="M3294 3949c-3,2 -4,7 -1,12 2,5 6,8 9,6 4,-1 4,-6 2,-11 -2,-5 -7,-8 -10,-7z"/>
   <path class="fil22" d="M3183 3637c-7,3 -10,9 -6,13 3,5 11,6 18,3 7,-4 10,-10 7,-14 -4,-5 -12,-6 -19,-2z"/>
   <path class="fil23" d="M3184 3638c-6,3 -9,8 -6,12 3,4 10,5 16,2 6,-3 9,-8 6,-12 -3,-4 -10,-5 -16,-2z"/>
   <path class="fil24" d="M3192 3638c-2,1 -2,3 -1,6 2,2 5,3 7,2 2,-1 2,-4 0,-6 -1,-2 -4,-3 -6,-2z"/>
   <path class="fil25" d="M3000 3582c5,13 15,17 29,11l16 -3 17 -2 15 -3 5 -7 10 5 6 -7 10 8 9 -12c8,2 11,5 16,10 3,-7 10,-8 7,-15 22,7 24,10 27,20 49,10 62,49 47,74l-30 -2 24 10 -108 -13c-14,6 -61,5 -50,2 14,-3 21,-11 35,-11l-32 -10 -28 -19c-14,-8 -14,-13 -35,-9 -21,14 -36,15 -70,14 62,-12 92,-31 37,-71 20,8 30,7 43,30z"/>
   <path class="fil26" d="M3174 3632c-7,4 -10,10 -6,14 3,5 11,6 18,2 7,-3 10,-9 7,-13 -4,-5 -12,-6 -19,-3z"/>
   <path class="fil22" d="M3183 3637c-7,3 -10,9 -6,13 3,5 11,6 18,3 7,-4 10,-10 7,-14 -4,-5 -12,-6 -19,-2z"/>
   <path class="fil23" d="M3184 3638c-6,3 -9,8 -6,12 3,4 10,5 16,2 6,-3 9,-8 6,-12 -3,-4 -10,-5 -16,-2z"/>
   <path class="fil27" d="M3184 3636c-2,1 -3,4 -1,6 1,2 4,3 6,2 2,-1 3,-4 1,-6 -2,-2 -5,-3 -6,-2z"/>
   <path class="fil28" d="M3358 3792c8,27 25,38 47,26l24 -5 25 -2 24 -5 7 -14 16 12 9 -15 17 19 12 -26c13,7 18,13 26,23 4,-13 15,-14 10,-30 36,17 38,25 45,45 77,27 101,111 81,162l-47 -8 39 24 -170 -38c-22,9 -95,2 -79,-2 22,-4 32,-21 54,-21l-51 -22 -47 -45c-22,-17 -23,-30 -55,-22 -31,26 -55,27 -109,21 97,-18 142,-55 51,-146 32,20 47,19 71,69z"/>
   <path class="fil29" d="M3634 3918c-11,5 -16,17 -11,27 5,10 18,15 29,10 11,-5 16,-18 11,-28 -5,-10 -18,-14 -29,-9z"/>
   <path class="fil30" d="M3635 3921c-10,4 -14,15 -10,24 4,8 15,12 25,7 10,-4 15,-15 11,-24 -5,-8 -16,-12 -26,-7z"/>
   <path class="fil31" d="M3647 3924c-3,2 -4,7 -1,11 2,5 6,8 10,7 3,-2 3,-7 1,-12 -2,-4 -7,-7 -10,-6z"/>
   <g>
    <path class="fil32" d="M3329 3655c2,12 11,18 27,14l16 0 16 1 16 0 6 -6 9 6 7 -5 9 9 11 -10c7,3 9,6 13,12 4,-6 12,-5 10,-13 21,10 21,14 24,23 46,17 51,55 33,75l-30 -6 23 13 -105 -29c-14,2 -60,-6 -49,-7 14,0 22,-7 36,-5l-30 -13 -24 -23c-12,-9 -12,-14 -33,-13 -23,9 -38,7 -72,1 64,-1 97,-13 50,-59 18,11 27,11 37,35z"/>
    <path class="fil33" d="M3497 3730c-7,2 -11,8 -9,12 3,5 11,8 18,6 8,-2 12,-7 9,-12 -3,-5 -11,-7 -18,-6z"/>
    <path class="fil34" d="M3498 3732c-7,2 -11,6 -8,10 2,4 9,6 15,5 7,-2 11,-7 9,-11 -3,-4 -10,-6 -16,-4z"/>
    <path class="fil35" d="M3505 3734c-2,0 -3,2 -2,5 2,2 4,4 6,3 3,-1 3,-3 2,-5 -1,-2 -4,-4 -6,-3z"/>
    <path class="fil33" d="M3497 3730c-7,2 -11,8 -9,12 3,5 11,8 18,6 8,-2 12,-7 9,-12 -3,-5 -11,-7 -18,-6z"/>
    <path class="fil34" d="M3498 3732c-7,2 -11,6 -8,10 2,4 9,6 15,5 7,-2 11,-7 9,-11 -3,-4 -10,-6 -16,-4z"/>
    <path class="fil35" d="M3505 3734c-2,0 -3,2 -2,5 2,2 4,4 6,3 3,-1 3,-3 2,-5 -1,-2 -4,-4 -6,-3z"/>
   </g>
   <path class="fil36" d="M3033 2873c-1,37 -19,55 -50,48l-32 1 -32 6 -32 2 -14 -15 -15 20 -17 -16 -15 29 -23 -28c-14,12 -18,21 -25,37 -9,-15 -24,-13 -23,-35 -38,34 -38,44 -40,71 -87,59 -89,172 -46,229l56 -25 -41 43 200 -104c30,6 120,-28 98,-27 -29,2 -47,-17 -75,-9l56 -45 44 -70c22,-30 18,-45 61,-46 48,22 78,15 143,-9 -127,9 -196,-23 -113,-166 -34,35 -53,39 -65,109z"/>
   <path class="fil37" d="M2728 3133c15,7 21,23 15,36 -6,13 -23,19 -37,12 -15,-6 -21,-22 -15,-35 6,-14 23,-19 37,-13z"/>
   <path class="fil38" d="M2727 3138c13,6 19,19 13,31 -5,11 -20,15 -32,9 -13,-5 -19,-19 -14,-30 6,-11 20,-16 33,-10z"/>
   <path class="fil39" d="M2711 3142c4,2 5,8 2,15 -3,6 -9,10 -13,8 -4,-2 -4,-9 -1,-15 3,-6 8,-10 12,-8z"/>
   <path class="fil40" d="M2249 2696c10,-1 17,4 16,11 -1,7 -9,13 -19,14 -10,1 -17,-4 -16,-11 1,-7 9,-13 19,-14z"/>
   <path class="fil41" d="M2249 2698c9,-1 15,3 15,9 -1,6 -9,12 -18,13 -9,0 -15,-4 -14,-10 1,-5 8,-11 17,-12z"/>
   <path class="fil42" d="M2241 2704c2,-1 4,2 4,5 0,3 -3,6 -6,7 -3,0 -5,-3 -4,-6 0,-3 3,-6 6,-6z"/>
   <path class="fil43" d="M2419 2522c3,16 -5,27 -26,30l-19 6 -20 9 -19 6 -10 -4 -8 11 -12 -4 -6 16 -18 -9c-7,8 -8,13 -11,21 -7,-5 -16,-1 -18,-11 -20,22 -19,26 -17,39 -48,41 -37,92 -5,110l33 -22 -21 27 113 -82c19,-3 71,-34 57,-29 -17,5 -31,1 -47,9l30 -30 20 -39c10,-17 7,-23 33,-31 32,1 50,-7 88,-30 -78,27 -124,25 -88,-53 -17,21 -28,26 -29,60z"/>
   <path class="fil44" d="M2256 2686c10,-1 18,4 17,11 -1,7 -10,13 -20,14 -10,1 -17,-4 -16,-11 1,-7 10,-13 19,-14z"/>
   <path class="fil40" d="M2249 2696c10,-1 17,4 16,11 -1,7 -9,13 -19,14 -10,1 -17,-4 -16,-11 1,-7 9,-13 19,-14z"/>
   <path class="fil41" d="M2249 2698c9,-1 15,3 15,9 -1,6 -9,12 -18,13 -9,0 -15,-4 -14,-10 1,-5 8,-11 17,-12z"/>
   <path class="fil45" d="M2249 2696c2,0 4,2 4,5 -1,4 -3,7 -6,7 -3,0 -5,-2 -4,-6 0,-3 3,-6 6,-6z"/>
   <path class="fil46" d="M2676 2854c-11,36 -33,50 -61,34l-32 -6 -32 -3 -31 -6 -9 -19 -20 16 -13 -20 -22 25 -15 -34c-16,8 -23,16 -34,30 -5,-17 -19,-19 -12,-40 -47,23 -49,33 -59,60 -99,36 -131,148 -105,216l61 -11 -50 33 220 -52c28,13 123,3 102,-1 -28,-6 -41,-29 -70,-29l66 -30 61 -59c29,-24 30,-40 72,-29 40,34 70,35 140,28 -125,-25 -183,-74 -66,-195 -41,26 -60,25 -91,92z"/>
   <path class="fil47" d="M2318 3021c15,7 21,23 15,37 -7,14 -23,19 -38,12 -14,-6 -20,-23 -14,-36 6,-14 23,-19 37,-13z"/>
   <path class="fil48" d="M2317 3026c13,6 19,20 13,31 -5,12 -20,16 -32,10 -13,-5 -19,-20 -14,-31 5,-12 20,-16 33,-10z"/>
   <path class="fil49" d="M2301 3030c4,2 5,9 2,15 -3,7 -9,11 -13,9 -4,-2 -5,-9 -2,-15 3,-7 9,-11 13,-9z"/>
   <path class="fil50" d="M2714 2671c-3,16 -15,24 -35,19l-21 0 -21 1 -20 -1 -8 -7 -12 9 -10 -8 -11 12 -13 -13c-10,5 -13,9 -18,16 -6,-8 -15,-7 -13,-17 -27,14 -28,18 -30,30 -60,23 -67,74 -43,101l38 -9 -29 18 135 -39c19,3 79,-8 64,-9 -18,0 -29,-9 -47,-6l38 -18 33 -30c15,-13 14,-20 42,-18 29,11 49,9 93,1 -83,-1 -126,-18 -64,-79 -24,14 -36,16 -48,47z"/>
   <path class="fil51" d="M2496 2772c9,2 14,9 11,16 -3,6 -14,9 -23,7 -10,-3 -15,-10 -12,-16 3,-7 14,-10 24,-7z"/>
   <path class="fil52" d="M2495 2774c9,2 13,8 10,13 -2,6 -12,8 -20,6 -9,-2 -13,-8 -10,-14 2,-5 12,-8 20,-5z"/>
   <path class="fil53" d="M2485 2776c3,1 4,4 2,7 -2,3 -5,5 -8,4 -2,0 -3,-3 -2,-6 2,-3 5,-5 8,-5z"/>
   <path class="fil51" d="M2496 2772c9,2 14,9 11,16 -3,6 -14,9 -23,7 -10,-3 -15,-10 -12,-16 3,-7 14,-10 24,-7z"/>
   <path class="fil52" d="M2495 2774c9,2 13,8 10,13 -2,6 -12,8 -20,6 -9,-2 -13,-8 -10,-14 2,-5 12,-8 20,-5z"/>
   <path class="fil53" d="M2485 2776c3,1 4,4 2,7 -2,3 -5,5 -8,4 -2,0 -3,-3 -2,-6 2,-3 5,-5 8,-5z"/>
   <path class="fil54" d="M2573 3346c1,38 18,57 50,49l32 2 32 6 31 1 14 -15 16 20 17 -16 14 30 24 -29c14,12 18,22 25,39 9,-16 23,-14 22,-36 39,34 39,44 41,73 87,60 88,177 46,236l-57 -27 41 45 -200 -107c-30,6 -120,-29 -97,-28 28,2 47,-17 74,-9l-56 -46 -43 -73c-22,-30 -19,-46 -62,-47 -47,23 -77,16 -143,-9 128,8 197,-24 114,-171 34,35 52,39 65,112z"/>
   <path class="fil55" d="M2877 3614c-14,7 -21,23 -14,37 6,14 23,19 37,12 14,-6 21,-23 14,-36 -6,-14 -23,-19 -37,-13z"/>
   <path class="fil56" d="M2878 3619c-12,6 -18,20 -13,31 5,12 20,16 33,10 13,-6 19,-20 13,-31 -5,-12 -20,-16 -33,-10z"/>
   <path class="fil57" d="M2894 3623c-4,2 -5,8 -2,15 3,6 9,10 13,8 4,-2 5,-9 2,-15 -3,-6 -9,-10 -13,-8z"/>
   <path class="fil58" d="M3173 3364c-10,-1 -18,4 -17,11 1,7 10,13 20,14 10,1 17,-4 16,-11 -1,-7 -10,-13 -19,-14z"/>
   <path class="fil59" d="M3173 3366c-9,-1 -16,3 -15,9 1,6 9,11 17,12 9,1 16,-3 15,-9 -1,-6 -9,-11 -17,-12z"/>
   <path class="fil60" d="M3181 3371c-3,0 -5,3 -4,6 0,3 3,6 6,6 2,1 4,-2 4,-5 -1,-3 -3,-6 -6,-7z"/>
   <path class="fil61" d="M3003 3190c-3,16 6,28 26,30l20 6 19 9 19 6 10 -4 8 11 12 -4 6 16 18 -8c7,7 9,12 11,21 7,-5 16,-2 18,-12 20,22 19,26 18,39 47,42 36,92 4,110l-33 -21 21 26 -113 -82c-19,-3 -71,-33 -57,-29 17,6 31,1 47,9l-30 -30 -20 -39c-10,-17 -7,-23 -33,-31 -32,1 -50,-7 -88,-29 79,26 124,24 88,-54 17,21 29,26 29,60z"/>
   <path class="fil62" d="M3165 3354c-10,-1 -17,4 -16,10 1,7 10,14 20,15 9,1 17,-4 16,-11 -1,-7 -10,-13 -20,-14z"/>
   <path class="fil58" d="M3173 3364c-10,-1 -18,4 -17,11 1,7 10,13 20,14 10,1 17,-4 16,-11 -1,-7 -10,-13 -19,-14z"/>
   <path class="fil59" d="M3173 3366c-9,-1 -16,3 -15,9 1,6 9,11 17,12 9,1 16,-3 15,-9 -1,-6 -9,-11 -17,-12z"/>
   <path class="fil63" d="M3173 3364c-3,-1 -4,2 -4,5 0,3 3,6 6,7 3,0 4,-3 4,-6 0,-3 -3,-6 -6,-6z"/>
   <path class="fil64" d="M2333 3635c11,36 32,49 61,34l31 -7 33 -2 30 -7 10 -18 20 16 12 -21 22 26 16 -35c16,9 23,17 33,31 5,-17 20,-19 13,-40 46,23 49,32 58,59 100,36 131,149 106,217l-62 -11 51 32 -221 -51c-27,13 -123,3 -101,-2 28,-6 41,-29 70,-28l-67 -30 -60 -59c-29,-24 -30,-40 -72,-30 -40,35 -71,36 -140,29 125,-25 183,-74 65,-195 42,26 61,25 92,92z"/>
   <path class="fil65" d="M2691 3802c-14,7 -21,23 -15,37 7,13 23,19 38,12 14,-6 21,-23 14,-36 -6,-14 -23,-20 -37,-13z"/>
   <path class="fil66" d="M2692 3807c-13,5 -19,20 -13,31 5,12 20,16 33,10 12,-6 18,-20 13,-31 -5,-12 -20,-16 -33,-10z"/>
   <path class="fil67" d="M2708 3811c-4,2 -5,9 -2,15 3,7 9,10 13,8 4,-2 5,-8 2,-15 -3,-6 -9,-10 -13,-8z"/>
   <path class="fil68" d="M2295 3451c3,17 15,24 35,20l21 -1 21 2 20 -1 9 -7 11 8 10 -7 11 12 14 -14c9,5 12,9 18,16 5,-7 14,-6 12,-16 27,13 28,18 31,30 59,23 66,74 43,101l-39 -9 29 17 -135 -38c-19,3 -78,-8 -64,-9 18,0 29,-9 47,-7l-38 -18 -33 -30c-15,-12 -14,-19 -42,-18 -29,12 -49,10 -92,2 82,-1 125,-18 63,-79 24,14 36,15 48,46z"/>
   <path class="fil69" d="M2514 3552c-10,3 -15,10 -12,16 3,7 14,10 24,8 9,-3 14,-10 11,-16 -3,-7 -14,-10 -23,-8z"/>
   <path class="fil70" d="M2514 3554c-9,3 -13,9 -10,14 2,6 12,8 20,6 9,-2 13,-8 11,-14 -3,-5 -12,-8 -21,-6z"/>
   <path class="fil71" d="M2524 3557c-3,1 -4,4 -2,7 2,3 5,5 8,4 3,-1 3,-4 2,-7 -2,-3 -5,-5 -8,-4z"/>
   <path class="fil69" d="M2514 3552c-10,3 -15,10 -12,16 3,7 14,10 24,8 9,-3 14,-10 11,-16 -3,-7 -14,-10 -23,-8z"/>
   <path class="fil70" d="M2514 3554c-9,3 -13,9 -10,14 2,6 12,8 20,6 9,-2 13,-8 11,-14 -3,-5 -12,-8 -21,-6z"/>
   <path class="fil71" d="M2524 3557c-3,1 -4,4 -2,7 2,3 5,5 8,4 3,-1 3,-4 2,-7 -2,-3 -5,-5 -8,-4z"/>
   <path class="fil72" d="M3622 2557c-2,37 -19,55 -50,48l-32 1 -33 6 -31 2 -14 -15 -15 20 -17 -16 -15 29 -24 -28c-13,12 -18,21 -24,37 -9,-15 -24,-13 -23,-35 -39,34 -39,43 -41,71 -87,59 -88,172 -46,229l57 -25 -41 43 200 -104c30,5 120,-28 98,-27 -29,1 -48,-17 -75,-9l56 -45 44 -70c21,-30 18,-45 61,-46 48,22 78,15 143,-9 -127,8 -196,-23 -114,-166 -33,35 -52,38 -64,109z"/>
   <path class="fil73" d="M3317 2817c15,7 21,23 15,36 -7,13 -23,18 -38,12 -14,-7 -20,-23 -14,-36 6,-13 23,-18 37,-12z"/>
   <path class="fil74" d="M3316 2822c13,6 19,19 13,30 -5,12 -20,16 -32,10 -13,-6 -19,-19 -14,-30 6,-12 20,-16 33,-10z"/>
   <path class="fil75" d="M3300 2826c4,2 5,8 2,15 -3,6 -9,9 -13,8 -4,-2 -5,-9 -2,-15 3,-6 9,-10 13,-8z"/>
   <path class="fil76" d="M2838 2380c10,-1 17,4 16,11 -1,7 -10,13 -19,14 -10,1 -17,-4 -17,-11 1,-7 10,-13 20,-14z"/>
   <path class="fil77" d="M2838 2382c9,-1 15,3 14,9 0,6 -8,11 -17,12 -9,1 -15,-3 -14,-9 0,-6 8,-11 17,-12z"/>
   <path class="fil78" d="M2830 2387c2,0 4,3 4,6 -1,3 -3,6 -6,6 -3,1 -5,-2 -4,-5 0,-3 3,-6 6,-7z"/>
   <path class="fil79" d="M3008 2205c3,17 -5,28 -26,30l-19 7 -20 8 -19 7 -10 -5 -8 12 -12 -4 -6 16 -18 -9c-7,8 -9,13 -11,21 -7,-5 -16,-1 -18,-11 -20,21 -19,26 -17,38 -48,42 -37,93 -5,111l33 -22 -21 27 113 -82c19,-3 71,-34 57,-29 -17,5 -31,0 -47,9l30 -30 20 -39c10,-17 7,-24 33,-32 32,2 50,-7 88,-29 -78,26 -124,25 -88,-54 -17,22 -29,27 -29,60z"/>
   <path class="fil80" d="M2845 2370c10,-1 17,4 16,10 0,7 -9,14 -19,15 -10,1 -17,-4 -16,-11 1,-7 9,-13 19,-14z"/>
   <path class="fil76" d="M2838 2380c10,-1 17,4 16,11 -1,7 -10,13 -19,14 -10,1 -17,-4 -17,-11 1,-7 10,-13 20,-14z"/>
   <path class="fil77" d="M2838 2382c9,-1 15,3 14,9 0,6 -8,11 -17,12 -9,1 -15,-3 -14,-9 0,-6 8,-11 17,-12z"/>
   <path class="fil81" d="M2837 2380c3,-1 5,2 5,5 -1,3 -3,6 -6,7 -3,0 -5,-3 -4,-6 0,-3 3,-6 5,-6z"/>
   <path class="fil82" d="M3265 2538c-11,36 -33,50 -61,34l-32 -7 -32 -2 -31 -7 -9 -18 -21 16 -12 -21 -22 26 -15 -35c-17,9 -23,17 -34,31 -5,-17 -19,-19 -13,-40 -46,23 -48,33 -58,60 -99,35 -131,148 -105,216l61 -11 -51 32 221 -51c27,13 123,3 101,-2 -27,-6 -41,-29 -69,-28l66 -30 61 -59c29,-24 30,-40 71,-29 40,34 71,35 141,28 -126,-25 -184,-74 -66,-195 -41,26 -61,25 -91,92z"/>
   <path class="fil83" d="M2907 2705c14,7 21,23 15,37 -7,13 -24,19 -38,12 -14,-6 -21,-23 -14,-36 6,-14 23,-20 37,-13z"/>
   <path class="fil84" d="M2906 2710c12,6 18,20 13,31 -5,12 -20,16 -33,10 -12,-6 -18,-20 -13,-31 5,-12 20,-16 33,-10z"/>
   <path class="fil85" d="M2890 2714c4,2 5,9 2,15 -3,7 -9,10 -13,8 -4,-1 -5,-8 -2,-15 3,-6 9,-10 13,-8z"/>
   <path class="fil86" d="M3303 2355c-3,16 -15,23 -35,19l-21 -1 -21 2 -20 -1 -9 -7 -11 8 -10 -7 -11 12 -14 -13c-9,4 -12,8 -18,15 -5,-7 -14,-6 -12,-16 -27,13 -28,18 -31,30 -59,23 -66,74 -43,101l38 -9 -28 17 135 -38c18,3 78,-8 64,-9 -18,0 -29,-9 -47,-7l38 -18 32 -30c16,-12 15,-19 43,-18 29,12 49,10 92,2 -82,-1 -125,-18 -63,-79 -24,14 -36,15 -48,47z"/>
   <path class="fil87" d="M3084 2455c10,3 15,10 12,17 -4,6 -14,9 -24,7 -9,-3 -14,-10 -11,-16 3,-7 14,-10 23,-8z"/>
   <path class="fil88" d="M3084 2457c8,3 13,9 10,14 -2,6 -12,8 -20,6 -9,-2 -13,-8 -11,-14 3,-5 12,-8 21,-6z"/>
   <path class="fil89" d="M3074 2460c3,1 3,4 2,7 -2,3 -5,5 -8,4 -3,-1 -3,-4 -2,-7 2,-3 5,-5 8,-4z"/>
   <path class="fil87" d="M3084 2455c10,3 15,10 12,17 -4,6 -14,9 -24,7 -9,-3 -14,-10 -11,-16 3,-7 14,-10 23,-8z"/>
   <path class="fil88" d="M3084 2457c8,3 13,9 10,14 -2,6 -12,8 -20,6 -9,-2 -13,-8 -11,-14 3,-5 12,-8 21,-6z"/>
   <path class="fil89" d="M3074 2460c3,1 3,4 2,7 -2,3 -5,5 -8,4 -3,-1 -3,-4 -2,-7 2,-3 5,-5 8,-4z"/>
   <path class="fil90" d="M3761 3048c-9,-1 -17,4 -16,11 1,6 10,13 20,14 10,1 17,-4 16,-11 -1,-7 -10,-13 -20,-14z"/>
   <path class="fil91" d="M3761 3050c-8,-1 -15,3 -14,9 1,6 8,11 17,12 9,1 16,-3 15,-9 -1,-6 -9,-11 -18,-12z"/>
   <path class="fil92" d="M3770 3055c-3,0 -5,2 -4,6 0,3 3,6 5,6 3,0 5,-2 5,-5 -1,-4 -3,-6 -6,-7z"/>
   <path class="fil93" d="M3592 2874c-3,16 5,27 26,30l19 6 20 9 19 6 10 -4 8 11 12 -4 6 16 18 -9c7,8 8,13 11,21 7,-5 16,-1 18,-11 20,22 19,26 17,39 48,41 37,92 5,110l-33 -22 21 27 -113 -82c-19,-3 -71,-34 -57,-29 17,6 31,1 47,9l-30 -30 -20 -39c-10,-17 -7,-23 -33,-31 -32,1 -50,-7 -88,-30 78,27 124,25 88,-53 17,21 29,26 29,60z"/>
   <path class="fil94" d="M3754 3037c-10,-1 -17,4 -16,11 1,7 10,14 19,15 10,0 18,-4 17,-11 -1,-7 -10,-14 -20,-15z"/>
   <path class="fil90" d="M3761 3048c-9,-1 -17,4 -16,11 1,6 10,13 20,14 10,1 17,-4 16,-11 -1,-7 -10,-13 -20,-14z"/>
   <path class="fil91" d="M3761 3050c-8,-1 -15,3 -14,9 1,6 8,11 17,12 9,1 16,-3 15,-9 -1,-6 -9,-11 -18,-12z"/>
   <path class="fil95" d="M3762 3047c-3,0 -5,3 -4,6 0,3 3,6 6,6 2,1 4,-2 4,-5 -1,-3 -3,-6 -6,-7z"/>
   <path class="fil96" d="M3869 1784c14,33 7,57 -25,64l-28 15 -27 19 -28 14 -19 -7 -5 24 -23 -7 0 33 -34 -16c-7,17 -7,27 -6,45 -15,-10 -27,-2 -36,-22 -20,46 -16,55 -6,81 -54,90 -7,193 55,227l41 -47 -19 56 137 -178c29,-8 97,-76 77,-66 -25,13 -50,5 -71,23l31 -64 10 -82c7,-36 -2,-49 36,-68 53,0 77,-19 126,-68 -112,61 -188,62 -173,-103 -16,46 -32,57 -13,127z"/>
   <path class="fil97" d="M3704 2148c15,0 28,12 28,26 0,15 -13,27 -29,27 -16,0 -28,-11 -28,-26 0,-15 13,-27 29,-27z"/>
   <path class="fil98" d="M3704 2153c14,0 26,10 25,22 0,12 -11,22 -25,23 -14,0 -25,-10 -25,-22 0,-13 11,-23 25,-23z"/>
   <path class="fil99" d="M3692 2163c4,0 8,6 8,13 0,7 -4,12 -8,12 -5,1 -8,-5 -8,-12 0,-7 3,-13 8,-13z"/>
   <path class="fil100" d="M3084 1955c9,-5 17,-3 19,3 3,7 -3,16 -11,21 -9,5 -17,4 -19,-3 -3,-6 3,-16 11,-21z"/>
   <path class="fil101" d="M3085 1957c8,-4 15,-3 17,2 2,6 -3,14 -11,19 -7,4 -15,3 -16,-2 -2,-6 2,-14 10,-19z"/>
   <path class="fil102" d="M3080 1966c2,-2 5,0 6,3 1,3 0,7 -3,8 -2,2 -5,0 -6,-3 -1,-3 0,-7 3,-8z"/>
   <path class="fil103" d="M3164 1725c10,14 7,28 -10,38l-16 15 -14 15 -14 14 -11 1 -2 13 -13 2 1 17 -19 -1c-4,11 -3,16 -2,24 -8,-1 -15,6 -21,-3 -9,29 -6,32 1,43 -26,58 6,99 42,102l21 -34 -8 33 68 -122c16,-10 50,-60 40,-51 -14,13 -28,14 -39,29l14 -40 1 -44c3,-20 -3,-24 17,-42 30,-13 42,-28 67,-64 -59,57 -102,75 -102,-11 -7,26 -15,36 -1,66z"/>
   <path class="fil104" d="M3086 1943c9,-5 18,-4 20,3 2,6 -3,16 -12,21 -8,5 -17,4 -19,-3 -2,-7 3,-16 11,-21z"/>
   <path class="fil100" d="M3084 1955c9,-5 17,-3 19,3 3,7 -3,16 -11,21 -9,5 -17,4 -19,-3 -3,-6 3,-16 11,-21z"/>
   <path class="fil101" d="M3085 1957c8,-4 15,-3 17,2 2,6 -3,14 -11,19 -7,4 -15,3 -16,-2 -2,-6 2,-14 10,-19z"/>
   <path class="fil105" d="M3083 1955c3,-1 6,0 7,3 1,4 0,7 -3,9 -2,1 -5,0 -6,-3 -1,-4 0,-7 2,-9z"/>
   <path class="fil106" d="M3538 1917c5,38 -9,59 -41,57l-31 8 -31 11 -30 7 -17 -13 -12 23 -19 -13 -9 33 -29 -25c-11,14 -14,25 -17,42 -12,-14 -26,-9 -29,-31 -32,40 -30,50 -27,79 -75,74 -56,190 -4,240l51 -36 -32 51 178 -140c30,0 113,-49 91,-44 -28,6 -50,-9 -75,4l47 -56 30 -79c16,-34 10,-49 52,-57 51,14 79,2 139,-34 -124,31 -197,11 -141,-149 -27,41 -45,49 -44,122z"/>
   <path class="fil107" d="M3285 2220c15,0 28,13 28,28 0,15 -12,27 -28,27 -16,0 -29,-12 -29,-27 0,-15 13,-28 29,-28z"/>
   <path class="fil108" d="M3285 2225c14,0 26,10 26,23 0,13 -12,23 -26,23 -14,0 -25,-10 -25,-23 0,-13 11,-23 25,-23z"/>
   <path class="fil109" d="M3273 2236c4,0 8,6 8,13 0,7 -4,13 -8,13 -4,0 -8,-6 -8,-13 0,-7 3,-13 8,-13z"/>
   <path class="fil110" d="M3494 1735c4,16 -3,28 -23,33l-19 8 -19 10 -18 8 -11 -3 -6 12 -13 -2 -5 16 -18 -7c-6,9 -8,14 -9,22 -8,-4 -16,0 -19,-9 -18,23 -17,28 -14,40 -45,46 -30,95 3,109l31 -24 -19 28 106 -92c19,-5 68,-41 55,-35 -17,7 -31,4 -46,14l28 -33 16 -41c9,-17 5,-23 31,-34 31,-2 48,-12 84,-38 -75,34 -121,37 -91,-44 -15,23 -26,29 -24,62z"/>
   <path class="fil111" d="M3339 1919c10,-2 18,3 17,10 0,7 -8,14 -18,16 -9,2 -17,-2 -17,-9 0,-8 9,-15 18,-17z"/>
   <path class="fil112" d="M3340 1921c8,-1 15,2 15,8 0,6 -7,13 -16,14 -9,2 -16,-2 -15,-8 0,-6 7,-12 16,-14z"/>
   <path class="fil113" d="M3332 1928c3,-1 5,2 5,5 -1,4 -3,7 -6,7 -2,1 -5,-2 -4,-5 0,-3 2,-7 5,-7z"/>
   <path class="fil111" d="M3339 1919c10,-2 18,3 17,10 0,7 -8,14 -18,16 -9,2 -17,-2 -17,-9 0,-8 9,-15 18,-17z"/>
   <path class="fil112" d="M3340 1921c8,-1 15,2 15,8 0,6 -7,13 -16,14 -9,2 -16,-2 -15,-8 0,-6 7,-12 16,-14z"/>
   <path class="fil113" d="M3332 1928c3,-1 5,2 5,5 -1,4 -3,7 -6,7 -2,1 -5,-2 -4,-5 0,-3 2,-7 5,-7z"/>
   <path class="fil114" d="M4204 2169c-10,3 -14,10 -10,16 3,6 14,8 23,5 10,-3 14,-11 10,-17 -3,-6 -14,-8 -23,-4z"/>
   <path class="fil115" d="M4205 2171c-9,2 -13,9 -10,14 3,5 13,7 21,4 8,-3 13,-10 9,-15 -3,-5 -12,-6 -20,-3z"/>
   <path class="fil116" d="M4214 2172c-2,1 -3,4 -1,7 2,2 5,4 8,3 3,-1 3,-4 2,-7 -2,-3 -6,-4 -9,-3z"/>
   <path class="fil117" d="M3976 2083c4,16 17,23 36,16l21 -2 21 -1 20 -2 8 -9 11 8 10 -9 12 12 12 -16c10,4 14,8 19,15 5,-8 14,-8 12,-18 27,11 28,15 32,27 61,18 72,68 51,98l-39 -5 30 15 -137 -26c-18,5 -79,-1 -64,-3 18,-2 28,-12 46,-11l-40 -15 -34 -27c-16,-11 -16,-18 -43,-14 -28,15 -48,15 -92,11 82,-10 123,-31 57,-86 24,12 37,12 51,42z"/>
   <path class="fil118" d="M4193 2162c-10,4 -14,11 -10,17 3,6 14,8 23,5 10,-4 14,-11 10,-17 -3,-6 -14,-8 -23,-5z"/>
   <path class="fil114" d="M4204 2169c-10,3 -14,10 -10,16 3,6 14,8 23,5 10,-3 14,-11 10,-17 -3,-6 -14,-8 -23,-4z"/>
   <path class="fil115" d="M4205 2171c-9,2 -13,9 -10,14 3,5 13,7 21,4 8,-3 13,-10 9,-15 -3,-5 -12,-6 -20,-3z"/>
   <path class="fil119" d="M4204 2168c-3,1 -3,4 -1,7 1,3 5,4 8,3 2,-1 3,-4 1,-6 -2,-3 -5,-5 -8,-4z"/>
   <path class="fil120" d="M2292 3156c-16,33 -39,43 -65,24l-30 -11 -32 -7 -30 -11 -7 -19 -22 13 -9 -22 -25 22 -11 -36c-17,6 -25,13 -37,25 -3,-17 -17,-21 -8,-41 -48,16 -52,25 -64,50 -103,20 -148,125 -132,194l63 -2 -55 24 225 -18c25,16 121,20 100,12 -27,-9 -37,-33 -65,-37l69 -19 67 -49c32,-19 35,-34 75,-18 35,39 65,44 135,47 -121,-42 -172,-97 -41,-197 -44,19 -63,15 -101,76z"/>
   <path class="fil121" d="M1910 3278c11,11 11,28 0,38 -11,10 -29,8 -39,-3 -11,-12 -11,-29 0,-39 11,-9 28,-8 39,4z"/>
   <path class="fil122" d="M1907 3281c10,10 10,25 1,34 -10,8 -25,6 -34,-4 -10,-10 -10,-25 -1,-33 9,-9 25,-7 34,3z"/>
   <path class="fil123" d="M1891 3279c3,3 1,10 -4,14 -5,5 -12,6 -15,3 -3,-4 -1,-10 4,-15 5,-4 12,-5 15,-2z"/>
   <path class="fil124" d="M1637 2689c10,3 15,10 11,16 -3,6 -14,9 -23,6 -10,-3 -15,-10 -11,-17 3,-6 14,-8 23,-5z"/>
   <path class="fil125" d="M1637 2691c8,2 12,9 9,14 -3,5 -12,7 -20,4 -9,-2 -13,-9 -10,-14 3,-5 12,-7 21,-4z"/>
   <path class="fil126" d="M1627 2693c2,0 3,3 1,6 -1,3 -5,5 -7,4 -3,-1 -4,-4 -2,-7 1,-3 5,-4 8,-3z"/>
   <path class="fil127" d="M1862 2594c-4,16 -16,23 -36,18l-20 -2 -22 0 -20 -2 -7 -7 -12 7 -10 -8 -11 12 -13 -14c-10,4 -13,8 -19,14 -5,-7 -14,-7 -12,-17 -27,12 -28,17 -31,29 -60,20 -69,71 -47,100l38 -7 -29 16 136 -32c19,5 79,-3 64,-5 -18,-1 -29,-11 -47,-9l40 -16 33 -29c16,-11 15,-19 43,-16 28,14 48,13 92,7 -83,-6 -124,-25 -61,-83 -24,13 -36,13 -49,44z"/>
   <path class="fil128" d="M1648 2682c10,3 14,10 11,17 -4,6 -14,8 -24,5 -9,-3 -14,-10 -10,-16 3,-6 14,-9 23,-6z"/>
   <path class="fil124" d="M1637 2689c10,3 15,10 11,16 -3,6 -14,9 -23,6 -10,-3 -15,-10 -11,-17 3,-6 14,-8 23,-5z"/>
   <path class="fil125" d="M1637 2691c8,2 12,9 9,14 -3,5 -12,7 -20,4 -9,-2 -13,-9 -10,-14 3,-5 12,-7 21,-4z"/>
   <path class="fil129" d="M1637 2688c3,1 3,4 2,7 -2,3 -6,5 -8,4 -3,-1 -4,-4 -2,-7 2,-3 5,-4 8,-4z"/>
   <path class="fil130" d="M1970 3000c-24,29 -49,33 -70,7l-26 -18 -29 -15 -26 -17 -2 -21 -24 7 -4 -24 -30 15 -1 -38c-18,2 -27,7 -43,16 3,-18 -10,-25 4,-43 -51,4 -57,12 -76,33 -106,-5 -179,86 -181,159l60 14 -59 10 223 38c21,22 113,50 94,37 -23,-16 -26,-42 -53,-52l73 -3 79 -30c36,-11 43,-26 77,0 24,47 52,60 119,80 -106,-71 -141,-139 15,-205 -49,8 -66,0 -120,50z"/>
   <path class="fil131" d="M1575 3015c11,12 10,30 -1,40 -11,10 -28,9 -39,-3 -11,-12 -10,-29 1,-39 11,-10 29,-9 39,2z"/>
   <path class="fil132" d="M1572 3019c10,11 10,26 0,34 -9,9 -24,7 -34,-3 -9,-10 -9,-26 0,-34 10,-9 25,-7 34,3z"/>
   <path class="fil133" d="M1556 3017c3,3 1,10 -4,15 -5,5 -12,6 -15,3 -3,-4 -1,-10 4,-15 5,-5 12,-6 15,-3z"/>
   <path class="fil134" d="M2076 2845c-9,14 -23,16 -40,5l-19 -9 -20 -7 -19 -8 -4 -10 -14 3 -6 -11 -15 8 -8 -18c-10,1 -15,3 -22,7 -2,-8 -11,-11 -5,-20 -31,2 -33,6 -40,16 -64,-1 -90,43 -79,77l39 6 -34 5 140 17c16,10 76,23 63,17 -17,-8 -24,-20 -42,-25l43 -1 41 -16c20,-5 21,-12 46,0 23,22 42,28 85,37 -76,-33 -108,-65 -28,-97 -27,4 -39,0 -62,24z"/>
   <path class="fil135" d="M1835 2854c8,6 10,14 5,19 -6,5 -17,4 -25,-2 -8,-6 -10,-15 -4,-20 6,-4 16,-3 24,3z"/>
   <path class="fil136" d="M1834 2856c7,5 9,12 4,16 -4,4 -14,3 -21,-2 -7,-6 -9,-13 -4,-17 5,-4 14,-3 21,3z"/>
   <path class="fil137" d="M1824 2854c2,2 2,5 -1,7 -3,2 -7,3 -9,1 -2,-2 -2,-5 1,-7 3,-2 7,-3 9,-1z"/>
   <path class="fil135" d="M1835 2854c8,6 10,14 5,19 -6,5 -17,4 -25,-2 -8,-6 -10,-15 -4,-20 6,-4 16,-3 24,3z"/>
   <path class="fil136" d="M1834 2856c7,5 9,12 4,16 -4,4 -14,3 -21,-2 -7,-6 -9,-13 -4,-17 5,-4 14,-3 21,3z"/>
   <path class="fil137" d="M1824 2854c2,2 2,5 -1,7 -3,2 -7,3 -9,1 -2,-2 -2,-5 1,-7 3,-2 7,-3 9,-1z"/>
   <path class="fil138" d="M2230 3662c-8,-5 -17,-3 -19,4 -1,6 4,16 13,20 9,5 17,3 19,-3 2,-7 -4,-16 -13,-21z"/>
   <path class="fil139" d="M2230 3664c-8,-4 -16,-3 -17,3 -2,5 3,13 11,18 8,4 15,3 17,-3 1,-6 -4,-14 -11,-18z"/>
   <path class="fil140" d="M2235 3672c-2,-1 -5,0 -6,4 -1,3 1,7 3,8 3,1 5,0 6,-4 1,-3 0,-7 -3,-8z"/>
   <path class="fil141" d="M2141 3436c-9,14 -5,28 13,38l15 13 15 15 15 14 11 0 3 13 13 1 -1 17 20 -1c3,10 3,15 2,24 8,-2 15,5 21,-4 10,28 7,32 1,43 28,57 -2,99 -39,103l-21 -32 9 32 -73 -119c-16,-10 -52,-59 -42,-49 14,12 29,13 40,27l-16 -40 -3 -43c-3,-20 3,-25 -18,-42 -30,-11 -43,-26 -70,-61 62,54 105,71 102,-16 8,27 16,36 3,67z"/>
   <path class="fil142" d="M2228 3650c-9,-5 -18,-3 -19,3 -2,7 3,16 12,21 9,5 17,3 19,-4 2,-6 -4,-16 -12,-20z"/>
   <path class="fil138" d="M2230 3662c-8,-5 -17,-3 -19,4 -1,6 4,16 13,20 9,5 17,3 19,-3 2,-7 -4,-16 -13,-21z"/>
   <path class="fil139" d="M2230 3664c-8,-4 -16,-3 -17,3 -2,5 3,13 11,18 8,4 15,3 17,-3 1,-6 -4,-14 -11,-18z"/>
   <path class="fil143" d="M2231 3662c-2,-1 -5,0 -6,3 -1,4 1,7 3,9 2,1 5,-1 6,-4 1,-3 0,-7 -3,-8z"/>
   <path class="fil144" d="M3949 1327c6,30 -4,48 -31,48l-25 8 -25 11 -25 7 -14 -9 -8 19 -17 -10 -6 27 -25 -19c-9,13 -10,21 -12,35 -11,-10 -22,-6 -25,-24 -25,35 -23,43 -19,65 -59,64 -38,156 7,194l41 -32 -25 43 141 -123c25,-1 91,-45 73,-40 -23,6 -41,-5 -62,7l37 -47 21 -65c12,-28 6,-40 41,-49 42,9 65,-3 113,-35 -101,32 -162,20 -124,-111 -20,34 -35,41 -31,100z"/>
   <path class="fil145" d="M3755 1595c13,3 21,14 18,26 -2,12 -14,20 -27,17 -13,-2 -21,-14 -19,-26 3,-12 15,-19 28,-17z"/>
   <path class="fil146" d="M3755 1599c11,2 19,12 16,22 -2,10 -13,17 -24,14 -11,-2 -19,-12 -17,-22 2,-10 13,-16 25,-14z"/>
   <path class="fil147" d="M3743 1606c3,0 5,5 4,11 -1,6 -5,10 -9,9 -3,-1 -5,-6 -4,-11 1,-6 5,-10 9,-9z"/>
   <path class="fil148" d="M3285 1337c8,-3 14,-1 15,5 0,6 -5,13 -13,15 -8,3 -15,1 -15,-5 -1,-6 5,-13 13,-15z"/>
   <path class="fil149" d="M3285 1338c7,-2 13,0 14,5 0,5 -5,11 -12,13 -7,2 -13,0 -13,-5 -1,-4 4,-10 11,-13z"/>
   <path class="fil150" d="M3279 1344c3,0 5,1 5,4 0,3 -1,6 -3,6 -3,1 -5,-1 -5,-3 0,-3 1,-6 3,-7z"/>
   <path class="fil151" d="M3388 1163c5,13 1,24 -15,30l-15 9 -14 10 -14 9 -9 -2 -4 11 -10 -1 -2 14 -16 -3c-4,7 -5,12 -5,19 -7,-3 -13,2 -17,-6 -12,22 -10,25 -6,35 -31,42 -12,81 17,89l22 -23 -11 25 75 -88c15,-6 51,-41 40,-35 -13,8 -24,7 -36,17l19 -30 8 -35c5,-16 1,-20 21,-32 25,-5 38,-15 64,-40 -57,36 -95,44 -81,-26 -10,20 -18,26 -11,53z"/>
   <path class="fil152" d="M3289 1327c7,-3 14,0 15,6 0,5 -5,12 -13,15 -8,2 -15,0 -15,-6 -1,-6 5,-12 13,-15z"/>
   <path class="fil148" d="M3285 1337c8,-3 14,-1 15,5 0,6 -5,13 -13,15 -8,3 -15,1 -15,-5 -1,-6 5,-13 13,-15z"/>
   <path class="fil149" d="M3285 1338c7,-2 13,0 14,5 0,5 -5,11 -12,13 -7,2 -13,0 -13,-5 -1,-4 4,-10 11,-13z"/>
   <path class="fil153" d="M3284 1337c2,-1 4,0 5,3 0,3 -2,6 -4,7 -2,0 -4,-1 -4,-4 0,-3 1,-6 3,-6z"/>
   <path class="fil154" d="M3659 1381c-2,31 -17,46 -43,39l-26 1 -27 4 -26 1 -11 -13 -13 17 -14 -14 -13 24 -19 -24c-12,10 -15,18 -21,31 -7,-13 -19,-12 -18,-30 -33,28 -33,36 -35,59 -73,48 -77,145 -43,195l47 -21 -34 36 167 -84c25,5 100,-22 81,-21 -23,0 -38,-16 -61,-9l47 -38 38 -59c18,-24 16,-38 51,-37 39,19 64,14 119,-5 -106,5 -162,-24 -91,-144 -28,29 -44,32 -55,92z"/>
   <path class="fil155" d="M3403 1585c13,2 22,14 19,26 -2,13 -15,20 -27,18 -13,-3 -22,-15 -19,-27 2,-12 15,-20 27,-17z"/>
   <path class="fil156" d="M3403 1589c12,2 19,12 17,22 -2,11 -13,17 -24,15 -12,-2 -19,-13 -17,-23 2,-10 13,-17 24,-14z"/>
   <path class="fil157" d="M3391 1595c4,1 6,6 5,12 -1,6 -5,10 -9,9 -3,-1 -5,-6 -4,-12 1,-5 5,-10 8,-9z"/>
   <path class="fil158" d="M3654 1226c0,14 -8,22 -25,22l-17 4 -16 5 -17 4 -8 -4 -7 8 -10 -4 -6 12 -14 -8c-7,6 -8,10 -11,16 -6,-4 -13,-2 -14,-10 -19,16 -18,19 -18,30 -44,30 -40,72 -15,89l29 -15 -20 20 101 -57c16,-1 62,-22 50,-19 -15,3 -25,-2 -39,3l27 -22 20 -30c10,-13 8,-18 31,-23 26,4 41,-1 75,-17 -67,16 -105,10 -67,-50 -16,16 -26,19 -29,46z"/>
   <path class="fil159" d="M3498 1350c8,0 13,5 12,10 -2,6 -9,11 -18,11 -8,-1 -13,-5 -12,-11 2,-6 9,-10 18,-10z"/>
   <path class="fil160" d="M3498 1351c7,0 12,4 11,9 -2,5 -8,9 -16,9 -7,0 -12,-4 -11,-9 1,-5 8,-9 16,-9z"/>
   <path class="fil161" d="M3490 1355c2,0 4,3 3,5 -1,3 -3,5 -5,5 -3,0 -4,-2 -3,-5 0,-2 3,-5 5,-5z"/>
   <path class="fil159" d="M3498 1350c8,0 13,5 12,10 -2,6 -9,11 -18,11 -8,-1 -13,-5 -12,-11 2,-6 9,-10 18,-10z"/>
   <path class="fil160" d="M3498 1351c7,0 12,4 11,9 -2,5 -8,9 -16,9 -7,0 -12,-4 -11,-9 1,-5 8,-9 16,-9z"/>
   <path class="fil161" d="M3490 1355c2,0 4,3 3,5 -1,3 -3,5 -5,5 -3,0 -4,-2 -3,-5 0,-2 3,-5 5,-5z"/>
   <path class="fil162" d="M4157 1695c-8,1 -13,6 -11,11 2,6 10,9 18,8 8,-1 13,-6 11,-12 -2,-5 -10,-9 -18,-7z"/>
   <path class="fil163" d="M4157 1696c-7,1 -11,6 -10,10 2,5 9,8 17,7 7,-1 11,-6 9,-10 -1,-5 -9,-8 -16,-7z"/>
   <path class="fil164" d="M4165 1699c-2,0 -3,3 -2,5 1,3 3,5 6,4 2,0 3,-2 2,-5 -1,-3 -4,-4 -6,-4z"/>
   <path class="fil165" d="M3986 1588c1,13 10,21 27,19l17 1 18 3 16 1 8 -5 8 8 9 -6 8 12 12 -11c8,5 10,9 13,15 5,-5 13,-4 13,-13 20,14 20,18 21,28 47,24 48,67 25,88l-30 -11 22 17 -107 -44c-16,2 -64,-13 -52,-12 15,1 25,-5 40,-2l-30 -18 -23 -28c-12,-11 -10,-17 -33,-18 -26,7 -42,4 -76,-7 68,6 104,-4 60,-60 18,14 28,16 34,43z"/>
   <path class="fil166" d="M4149 1688c-8,1 -13,6 -11,12 2,5 10,8 18,7 9,-1 13,-6 11,-12 -2,-5 -10,-8 -18,-7z"/>
   <path class="fil162" d="M4157 1695c-8,1 -13,6 -11,11 2,6 10,9 18,8 8,-1 13,-6 11,-12 -2,-5 -10,-9 -18,-7z"/>
   <path class="fil163" d="M4157 1696c-7,1 -11,6 -10,10 2,5 9,8 17,7 7,-1 11,-6 9,-10 -1,-5 -9,-8 -16,-7z"/>
   <path class="fil167" d="M4157 1694c-2,1 -3,3 -2,5 1,3 3,5 6,5 2,-1 3,-3 2,-6 -1,-2 -4,-4 -6,-4z"/>
   <path class="fil168" d="M4418 1070c-1,24 -12,35 -33,31l-20 1 -21 3 -20 2 -9 -10 -10 13 -11 -11 -10 19 -15 -18c-9,8 -11,14 -16,24 -6,-10 -15,-8 -14,-22 -25,21 -25,28 -27,45 -56,38 -57,111 -29,148l36 -16 -26 28 129 -67c19,3 77,-18 63,-18 -19,1 -31,-11 -48,-5l36 -29 28 -46c14,-19 12,-29 40,-29 30,14 50,9 92,-6 -82,5 -127,-15 -73,-107 -22,22 -34,24 -42,70z"/>
   <path class="fil169" d="M4221 1238c10,4 14,14 10,23 -4,8 -15,12 -24,8 -10,-4 -14,-15 -10,-23 4,-9 15,-12 24,-8z"/>
   <path class="fil170" d="M4220 1241c9,4 12,12 9,20 -3,7 -13,10 -21,6 -8,-4 -12,-13 -9,-20 4,-7 13,-10 21,-6z"/>
   <path class="fil171" d="M4210 1243c3,2 3,6 1,10 -2,4 -5,6 -8,5 -2,-1 -3,-5 -1,-9 2,-4 6,-7 8,-6z"/>
   <path class="fil172" d="M3912 956c6,-1 11,2 10,7 0,4 -6,8 -12,9 -7,0 -11,-3 -11,-7 1,-5 7,-9 13,-9z"/>
   <path class="fil173" d="M3912 957c6,-1 10,2 9,6 0,4 -5,7 -11,8 -6,0 -10,-2 -9,-6 0,-4 5,-7 11,-8z"/>
   <path class="fil174" d="M3906 960c2,0 3,2 3,4 0,2 -2,4 -4,4 -1,0 -3,-1 -2,-3 0,-2 2,-4 3,-5z"/>
   <path class="fil175" d="M4022 843c2,11 -4,18 -17,19l-13 5 -12 5 -13 4 -6 -3 -5 8 -8 -3 -4 10 -11 -5c-5,5 -6,8 -7,13 -5,-3 -11,-1 -12,-7 -13,14 -13,17 -11,25 -31,27 -24,60 -3,71l21 -14 -14 17 73 -52c12,-2 46,-22 37,-19 -11,3 -20,0 -30,6l19 -20 13 -25c7,-11 4,-15 21,-20 21,1 32,-5 57,-19 -50,17 -80,16 -57,-35 -11,14 -18,17 -18,39z"/>
   <path class="fil176" d="M3917 949c6,-1 11,3 10,7 -1,4 -6,9 -13,9 -6,1 -11,-2 -10,-7 1,-4 6,-8 13,-9z"/>
   <path class="fil172" d="M3912 956c6,-1 11,2 10,7 0,4 -6,8 -12,9 -7,0 -11,-3 -11,-7 1,-5 7,-9 13,-9z"/>
   <path class="fil173" d="M3912 957c6,-1 10,2 9,6 0,4 -5,7 -11,8 -6,0 -10,-2 -9,-6 0,-4 5,-7 11,-8z"/>
   <path class="fil177" d="M3912 955c1,0 3,2 2,4 0,2 -2,4 -4,4 -1,0 -3,-1 -2,-3 0,-3 2,-4 4,-5z"/>
   <path class="fil178" d="M4187 1058c-7,23 -21,32 -39,22l-20 -5 -21 -1 -20 -4 -6 -12 -13 10 -8 -13 -14 16 -10 -22c-11,5 -15,11 -22,20 -3,-11 -13,-12 -8,-26 -30,15 -32,21 -38,38 -64,23 -84,96 -68,140l40 -7 -33 21 143 -33c17,8 79,2 65,-1 -18,-4 -27,-19 -45,-19l43 -19 39 -38c19,-16 19,-26 46,-19 26,22 46,22 91,18 -81,-16 -119,-48 -43,-126 -26,17 -39,16 -59,60z"/>
   <path class="fil179" d="M3957 1166c9,4 13,14 9,23 -4,9 -15,13 -24,8 -9,-4 -14,-15 -10,-23 5,-9 15,-13 25,-8z"/>
   <path class="fil180" d="M3956 1168c8,4 12,13 8,21 -3,7 -13,10 -21,6 -8,-4 -12,-13 -8,-20 3,-7 12,-10 21,-7z"/>
   <path class="fil181" d="M3945 1171c3,1 4,6 2,10 -2,4 -6,7 -9,5 -2,-1 -3,-5 -1,-9 2,-5 6,-7 8,-6z"/>
   <path class="fil182" d="M4212 939c-2,11 -10,16 -23,13l-13 -1 -14 1 -13 0 -5 -5 -7 6 -7 -5 -7 8 -9 -9c-6,3 -8,6 -11,10 -4,-4 -10,-4 -9,-10 -17,8 -17,11 -19,19 -39,15 -43,48 -28,65l25 -6 -19 12 87 -25c12,2 51,-6 42,-6 -12,0 -19,-6 -31,-4l25 -12 21 -19c10,-8 9,-13 27,-12 19,8 32,6 60,1 -53,-1 -81,-11 -41,-51 -15,9 -23,10 -31,30z"/>
   <path class="fil183" d="M4071 1004c6,2 9,7 7,11 -2,4 -9,6 -15,4 -6,-1 -9,-6 -7,-10 2,-4 9,-6 15,-5z"/>
   <path class="fil184" d="M4071 1006c5,1 8,5 6,9 -1,3 -7,5 -13,3 -5,-1 -8,-5 -7,-9 2,-3 8,-5 14,-3z"/>
   <path class="fil185" d="M4064 1007c2,1 3,3 1,5 -1,2 -3,3 -5,3 -1,-1 -2,-3 -1,-5 1,-2 3,-3 5,-3z"/>
   <path class="fil183" d="M4071 1004c6,2 9,7 7,11 -2,4 -9,6 -15,4 -6,-1 -9,-6 -7,-10 2,-4 9,-6 15,-5z"/>
   <path class="fil184" d="M4071 1006c5,1 8,5 6,9 -1,3 -7,5 -13,3 -5,-1 -8,-5 -7,-9 2,-3 8,-5 14,-3z"/>
   <path class="fil185" d="M4064 1007c2,1 3,3 1,5 -1,2 -3,3 -5,3 -1,-1 -2,-3 -1,-5 1,-2 3,-3 5,-3z"/>
   <path class="fil186" d="M4508 1387c-6,-1 -11,2 -10,7 0,4 6,8 12,9 7,0 11,-3 11,-7 -1,-5 -7,-9 -13,-9z"/>
   <path class="fil187" d="M4508 1388c-6,-1 -10,2 -9,6 0,4 5,7 11,8 5,0 10,-2 9,-6 0,-4 -5,-7 -11,-8z"/>
   <path class="fil188" d="M4513 1392c-1,-1 -3,1 -2,3 0,2 2,4 3,4 2,0 3,-1 3,-3 0,-2 -2,-4 -4,-4z"/>
   <path class="fil189" d="M4398 1274c-2,11 4,18 17,20l13 4 12 5 13 4 6 -2 5 7 8 -2 4 10 11 -6c5,5 6,8 8,14 4,-4 10,-1 11,-8 13,14 13,17 12,25 30,27 23,60 2,71l-20 -13 13 17 -73 -53c-12,-2 -46,-22 -37,-19 11,4 20,1 30,6l-19 -19 -13 -26c-6,-11 -4,-15 -21,-20 -21,1 -32,-4 -57,-19 51,17 80,16 57,-34 11,13 18,17 18,38z"/>
   <path class="fil190" d="M4503 1380c-6,-1 -11,3 -10,7 0,4 6,9 12,9 7,1 11,-2 11,-7 -1,-4 -6,-8 -13,-9z"/>
   <path class="fil186" d="M4508 1387c-6,-1 -11,2 -10,7 0,4 6,8 12,9 7,0 11,-3 11,-7 -1,-5 -7,-9 -13,-9z"/>
   <path class="fil187" d="M4508 1388c-6,-1 -10,2 -9,6 0,4 5,7 11,8 5,0 10,-2 9,-6 0,-4 -5,-7 -11,-8z"/>
   <path class="fil191" d="M4508 1386c-1,0 -3,2 -2,4 0,2 2,4 3,4 2,0 3,-1 3,-3 0,-2 -2,-4 -4,-5z"/>
   <path class="fil192" d="M5150 636c-5,21 -17,29 -34,21l-18 -2 -19 -1 -18 -2 -6 -11 -11 10 -8 -11 -12 15 -10 -19c-9,5 -12,10 -18,18 -3,-9 -12,-10 -9,-22 -25,15 -26,20 -31,35 -55,23 -69,87 -52,124l35 -8 -28 20 125 -35c16,6 70,-3 58,-5 -17,-2 -25,-14 -41,-13l37 -19 32 -35c16,-14 16,-23 40,-18 24,17 42,17 82,11 -73,-10 -108,-36 -45,-107 -23,16 -34,16 -49,54z"/>
   <path class="fil193" d="M4948 748c7,5 9,15 4,22 -5,6 -15,8 -22,2 -8,-5 -9,-15 -4,-22 5,-6 15,-7 22,-2z"/>
   <path class="fil194" d="M4947 750c6,5 8,13 4,19 -4,6 -13,7 -20,2 -6,-5 -8,-13 -4,-19 5,-6 13,-6 20,-2z"/>
   <path class="fil195" d="M4938 751c2,1 1,5 -1,8 -3,4 -6,5 -8,3 -2,-1 -2,-5 0,-8 3,-3 6,-5 9,-3z"/>
   <path class="fil196" d="M4488 654c6,0 10,4 8,8 -1,3 -7,6 -12,5 -6,0 -10,-4 -8,-8 1,-3 7,-6 12,-5z"/>
   <path class="fil197" d="M4488 655c5,0 8,3 7,7 -1,3 -6,5 -11,5 -5,-1 -8,-4 -7,-7 1,-3 6,-6 11,-5z"/>
   <path class="fil198" d="M4483 657c1,0 2,2 1,4 0,1 -2,3 -4,3 -1,-1 -2,-2 -1,-4 0,-2 2,-3 4,-3z"/>
   <path class="fil199" d="M4604 575c0,10 -6,15 -18,14l-12 1 -12 3 -11 1 -5 -4 -6 6 -6 -3 -5 8 -9 -7c-5,3 -7,6 -9,10 -4,-3 -9,-2 -9,-8 -14,10 -14,12 -14,20 -32,18 -32,47 -16,61l21 -8 -15 12 74 -33c11,1 44,-10 35,-10 -10,2 -17,-3 -27,0l20 -13 16 -20c7,-8 6,-12 22,-14 18,5 29,2 53,-6 -47,6 -73,-1 -44,-41 -12,10 -19,12 -23,31z"/>
   <path class="fil200" d="M4494 649c5,0 9,4 8,8 -2,3 -7,6 -13,5 -6,0 -9,-4 -8,-7 1,-4 7,-7 13,-6z"/>
   <path class="fil196" d="M4488 654c6,0 10,4 8,8 -1,3 -7,6 -12,5 -6,0 -10,-4 -8,-8 1,-3 7,-6 12,-5z"/>
   <path class="fil197" d="M4488 655c5,0 8,3 7,7 -1,3 -6,5 -11,5 -5,-1 -8,-4 -7,-7 1,-3 6,-6 11,-5z"/>
   <path class="fil201" d="M4488 653c2,1 2,2 2,4 -1,2 -3,3 -4,3 -2,0 -3,-2 -2,-4 1,-1 2,-3 4,-3z"/>
   <path class="fil202" d="M4711 792c-11,19 -24,24 -39,12l-17 -7 -18 -6 -16 -7 -3 -11 -14 6 -4 -13 -15 12 -5 -21c-10,3 -15,7 -23,14 0,-11 -8,-13 -2,-25 -29,8 -31,13 -40,27 -60,9 -91,69 -84,110l36 1 -33 13 131 -4c14,10 69,16 57,11 -15,-7 -20,-21 -36,-24l41 -10 41 -26c19,-10 21,-19 44,-8 18,24 35,28 75,32 -67,-29 -94,-63 -14,-118 -27,10 -37,7 -62,42z"/>
   <path class="fil203" d="M4490 845c7,5 9,15 4,22 -5,7 -15,8 -23,3 -7,-5 -9,-15 -4,-22 6,-7 16,-9 23,-3z"/>
   <path class="fil204" d="M4489 847c6,5 8,14 4,20 -5,5 -14,6 -20,1 -7,-4 -8,-13 -4,-19 4,-6 13,-7 20,-2z"/>
   <path class="fil205" d="M4479 848c2,1 2,5 0,9 -3,3 -6,4 -9,3 -2,-2 -1,-6 1,-9 3,-3 6,-5 8,-3z"/>
   <path class="fil206" d="M4753 693c-3,9 -11,11 -22,7l-11 -3 -13 -2 -11 -2 -4 -5 -7 3 -5 -5 -7 5 -7 -9c-5,2 -8,4 -11,7 -3,-5 -8,-5 -6,-11 -16,5 -17,7 -20,14 -36,6 -46,34 -36,52l22 -1 -18 6 81 -6c10,4 45,5 37,3 -10,-3 -16,-9 -26,-10l24 -5 21 -13c11,-6 11,-10 26,-6 16,10 27,11 52,12 -46,-10 -68,-25 -26,-52 -15,5 -23,5 -33,21z"/>
   <path class="fil207" d="M4619 725c5,2 7,7 4,10 -2,3 -9,4 -14,1 -5,-2 -7,-7 -4,-10 2,-3 8,-4 14,-1z"/>
   <path class="fil208" d="M4618 726c5,2 7,6 4,9 -2,2 -7,3 -12,0 -4,-2 -6,-6 -4,-8 2,-3 7,-4 12,-1z"/>
   <path class="fil209" d="M4612 726c2,1 2,2 0,4 -1,2 -3,2 -4,2 -2,-1 -2,-3 -1,-5 1,-1 4,-2 5,-1z"/>
   <path class="fil207" d="M4619 725c5,2 7,7 4,10 -2,3 -9,4 -14,1 -5,-2 -7,-7 -4,-10 2,-3 8,-4 14,-1z"/>
   <path class="fil208" d="M4618 726c5,2 7,6 4,9 -2,2 -7,3 -12,0 -4,-2 -6,-6 -4,-8 2,-3 7,-4 12,-1z"/>
   <path class="fil209" d="M4612 726c2,1 2,2 0,4 -1,2 -3,2 -4,2 -2,-1 -2,-3 -1,-5 1,-1 4,-2 5,-1z"/>
   <path class="fil210" d="M2688 2440c-6,1 -9,5 -7,9 2,3 8,5 13,4 6,-2 9,-6 7,-9 -2,-4 -8,-6 -13,-4z"/>
   <path class="fil211" d="M2688 2441c-5,1 -7,4 -6,7 2,4 7,5 12,4 5,-1 8,-5 6,-8 -2,-3 -7,-4 -12,-3z"/>
   <path class="fil212" d="M2694 2442c-2,1 -2,2 -1,4 0,2 2,3 4,2 2,0 2,-2 1,-3 -1,-2 -3,-3 -4,-3z"/>
   <path class="fil213" d="M2563 2377c1,10 8,14 20,12l12 -1 12 1 11 0 5 -4 6 5 6 -5 6 8 8 -8c6,3 8,5 10,9 4,-4 9,-4 8,-10 15,8 15,11 17,18 34,14 37,43 23,59l-22 -5 17 10 -77 -23c-11,2 -45,-5 -37,-5 11,0 17,-6 27,-4l-22 -11 -18 -17c-8,-8 -8,-12 -24,-11 -17,7 -28,6 -53,1 48,-1 72,-10 38,-46 13,8 20,9 27,27z"/>
   <path class="fil214" d="M2682 2435c-6,2 -9,6 -7,9 2,4 8,6 14,4 5,-1 8,-5 6,-8 -2,-4 -8,-6 -13,-5z"/>
   <path class="fil210" d="M2688 2440c-6,1 -9,5 -7,9 2,3 8,5 13,4 6,-2 9,-6 7,-9 -2,-4 -8,-6 -13,-4z"/>
   <path class="fil211" d="M2688 2441c-5,1 -7,4 -6,7 2,4 7,5 12,4 5,-1 8,-5 6,-8 -2,-3 -7,-4 -12,-3z"/>
   <path class="fil215" d="M2688 2439c-1,1 -2,2 -1,4 1,2 3,3 4,3 2,-1 2,-2 2,-4 -1,-2 -3,-3 -5,-3z"/>
  </g>
  <rect class="fil216" width="8000" height="5188"/>
 </g>
</svg>
