<?xml version="1.0" encoding="UTF-8"?>
<!DOCTYPE svg PUBLIC "-//W3C//DTD SVG 1.1//EN" "http://www.w3.org/Graphics/SVG/1.1/DTD/svg11.dtd">
<!-- Creator: CorelDRAW X7 -->
<svg xmlns="http://www.w3.org/2000/svg" xml:space="preserve" width="8in" height="5.188in" version="1.1" style="shape-rendering:geometricPrecision; text-rendering:geometricPrecision; image-rendering:optimizeQuality; fill-rule:evenodd; clip-rule:evenodd"
viewBox="0 0 8000 5188"
 xmlns:xlink="http://www.w3.org/1999/xlink">
 <defs>
  <style type="text/css">
   <![CDATA[
    .str0 {stroke:#373435;stroke-width:3}
    .fil0 {fill:none}
    .fil14 {fill:#FEFEFE}
    .fil11 {fill:#D2D3D5}
    .fil8 {fill:#373435}
    .fil10 {fill:#FFF212}
    .fil7 {fill:#FCD3C2}
    .fil5 {fill:#F6AFCE}
    .fil12 {fill:#ED3237}
    .fil3 {fill:#6FCFF6}
    .fil9 {fill:#0098DA}
    .fil1 {fill:#333333}
    .fil2 {fill:url(#id0)}
    .fil13 {fill:url(#id1)}
    .fil4 {fill:url(#id2)}
    .fil6 {fill:url(#id3)}
   ]]>
  </style>
  <linearGradient id="id0" gradientUnits="userSpaceOnUse" x1="4000.2" y1="66.1929" x2="4000.2" y2="4089.58">
   <stop offset="0" style="stop-opacity:1; stop-color:#ABF8FF"/>
   <stop offset="1" style="stop-opacity:1; stop-color:#3A8BFC"/>
  </linearGradient>
  <linearGradient id="id1" gradientUnits="userSpaceOnUse" x1="4902.12" y1="306.886" x2="5485.85" y2="306.886">
   <stop offset="0" style="stop-opacity:1; stop-color:#F6AFCE"/>
   <stop offset="1" style="stop-opacity:1; stop-color:#C8A2CB"/>
  </linearGradient>
  <linearGradient id="id2" gradientUnits="userSpaceOnUse" x1="3755.73" y1="-38.3425" x2="3803.76" y2="431.181">
   <stop offset="0" style="stop-opacity:1; stop-color:#91D8F7"/>
   <stop offset="1" style="stop-opacity:1; stop-color:#FEFEFE"/>
  </linearGradient>
  <linearGradient id="id3" gradientUnits="userSpaceOnUse" x1="5482.02" y1="57.9803" x2="5045.11" y2="494.854">
   <stop offset="0" style="stop-opacity:1; stop-color:#FEFEFE"/>
   <stop offset="1" style="stop-opacity:1; stop-color:#F6AFCE"/>
  </linearGradient>
 </defs>
 <g id="Layer_x0020_1">
  <metadata id="CorelCorpID_0Corel-Layer"/>
  <rect class="fil0" width="8000" height="5188"/>
  <g id="_2568212236832">
   <path class="fil1" d="M0 3764l1 0 -1 187c1015,-355 2022,-63 3026,139 1544,-413 2782,-302 3945,0 342,0 684,-139 1026,-139l0 -187 3 0 0 1424 -8000 0 0 -1424z"/>
   <path class="fil2" d="M3 171c194,-62 341,-88 530,-105l1454 70c1243,-10 2492,-48 3732,-45 477,1 1007,-12 1510,-16 264,7 527,35 771,92 -1,1292 -2,2492 -3,3784 -342,0 -684,139 -1026,139 -1163,-302 -2401,-413 -3945,0 -1004,-202 -2011,-494 -3026,-139l3 -3780z"/>
   <g>
    <path class="fil3" d="M1490 219c51,6 107,8 174,2 20,-3 39,-6 57,-9l-231 7zm5536 -58c78,6 170,10 307,1l-307 -1zm307 1l11 -1 -11 1z"/>
   </g>
   <path class="fil3" d="M8000 167c-40,0 -89,-1 -144,-3 35,-2 73,-5 114,-9 -41,4 -79,7 -114,9 -93,-2 -205,-6 -333,-7 -21,-1 -42,-1 -63,-1 2,-1 5,-1 7,-1 -23,-6 -54,-5 -89,0 -38,0 -77,1 -117,1 -49,-4 -99,-8 -158,-9 58,-5 120,-7 181,-6 69,2 132,0 190,-2 19,4 31,5 27,3 -2,-1 -4,-2 -6,-3 95,-4 176,-10 249,-9 72,1 174,26 164,19 -40,-26 -133,-33 -197,-38 -142,-11 -278,-13 -408,-7 -153,-12 -301,-13 -441,-6 319,-28 887,-51 1138,69zm-1168 -12c-72,6 -155,14 -252,25 -28,-7 -57,-13 -86,-17 87,-13 237,-33 384,-29 31,0 60,0 88,0 -46,6 -90,13 -134,21zm429 1c-49,-4 -99,-8 -158,-9 -58,4 -112,11 -157,17 63,-3 124,-5 184,-6 45,-1 89,-2 131,-2zm-429 -1c-72,6 -155,14 -252,25 7,2 14,4 21,6 7,-1 15,-2 22,-3 34,-3 67,-5 100,-7 36,-7 72,-14 109,-21zm-567 98c-228,51 -441,99 -700,63 -6,-1 -12,-2 -19,-3 -4,-3 -9,-5 -14,-8 105,19 223,25 393,-24 40,-12 82,-23 125,-32 73,3 144,4 215,4zm-108 -21c69,-8 138,-11 204,-8 -64,4 -132,6 -204,8zm-646 74c-86,-17 -177,-36 -268,-55l0 0c104,7 189,36 285,53 -6,1 -11,2 -17,2zm-1323 -68c-24,4 -48,7 -71,11 -3,-2 -7,-3 -10,-5 25,-2 52,-4 81,-6zm-448 -9c8,1 16,2 24,4 39,5 74,10 105,12 -34,3 -67,-1 -102,-6 -9,-3 -18,-7 -27,-10zm-441 6c-26,-4 -52,-9 -78,-13 26,-1 52,-3 78,-4 0,3 0,6 0,10l-3 2 3 5zm-1188 -27c-45,2 -90,3 -135,4 -17,-5 -35,-10 -52,-14 41,-2 81,-3 121,-3 23,4 45,8 66,13zm-172 4c-96,2 -191,1 -286,-1 70,-3 139,-7 209,-11 24,4 50,8 77,12zm-1366 -89c-40,0 -79,1 -118,3 -12,-3 -23,-6 -32,-9 75,-15 154,-27 237,-28 -321,-7 -588,10 -645,94 94,-21 190,-36 288,-46 2,-1 5,-2 7,-2 28,-11 58,-17 89,-20 -2,-2 -4,-3 -5,-5 3,0 8,2 16,4 54,-4 109,0 163,9zm-158 5c-19,1 -38,3 -57,4 16,-4 32,-8 48,-11 3,2 6,5 9,7zm334 -37c139,5 285,13 425,22 -83,3 -150,11 -201,20 -14,-3 -28,-6 -42,-9 -61,-18 -122,-28 -182,-33zm567 72c-98,0 -183,-6 -266,-17 100,-22 240,-22 394,-8 -50,7 -94,15 -128,25zm982 -51c209,-23 297,-43 705,-43 71,0 171,9 284,21 2,14 4,27 5,41 -114,-3 -229,1 -344,12 -212,33 -182,11 -394,-9 -69,-12 -158,-19 -256,-22zm1016 -19c17,2 35,4 52,6 -11,8 -20,19 -28,31 0,1 -1,2 -1,3 -6,-1 -12,-1 -18,-1 -1,-13 -3,-26 -5,-39zm208 24l33 4c-11,2 -19,4 -23,2 -4,-2 -7,-4 -10,-6zm65 7c28,4 56,7 84,10 -4,6 -28,8 -42,11l-51 -10c0,-3 6,-7 9,-11zm98 12c123,13 240,24 333,28 194,7 169,-35 333,-27 11,1 21,1 31,2 -39,4 -76,8 -111,14 -36,6 -68,11 -97,16 -29,4 -55,8 -80,11 -108,-3 -224,-5 -343,-7 -11,-5 -18,-8 -21,-7 0,-5 19,-15 4,-22 -8,8 -22,4 -42,10 -4,-5 1,-14 -7,-18zm273 54c-54,2 -111,0 -183,-5 -6,-3 -11,-6 -15,-8 71,5 138,9 198,13zm903 -56c135,-8 256,-17 400,-13 220,7 390,30 575,42 106,7 218,10 346,6 -68,13 -135,30 -205,46 -92,6 -195,10 -304,11 -161,-9 -330,-37 -505,-61l-15 -2c-86,-13 -187,-23 -292,-29z"/>
   <path class="fil4" d="M98 204c86,-22 191,-57 308,-83 -3,-2 -5,-4 -7,-6 -31,3 -61,9 -89,20 -41,14 -71,30 -96,44 -11,1 -22,3 -34,4 12,-1 23,-3 34,-4l-9 4c-37,19 -65,31 -107,21zm325 -87c153,-32 327,-46 508,7 14,3 28,6 42,9 -25,4 -45,9 -62,13 -47,14 -96,21 -145,22 -7,-2 -15,-3 -23,-5 -92,-25 -217,-58 -333,-49 4,1 8,2 13,3zm627 29c83,11 168,17 266,17 -61,16 -97,35 -103,54 -22,2 -44,5 -67,8 -80,-6 -166,-17 -260,-33 36,-8 74,-19 114,-33 16,-5 32,-10 50,-13zm542 9c53,8 107,16 161,26 -153,1 -322,10 -520,33 66,-39 201,-58 359,-59zm232 -28c246,-19 554,-25 730,7 212,20 182,42 394,9 115,-11 230,-15 344,-12 1,8 2,16 3,24 -84,-2 -173,-2 -267,-1 -123,1 -262,34 -402,64 -104,-2 -204,-8 -303,-14 -70,-17 -130,-32 -156,-37 -123,-21 -239,-34 -343,-40zm160 58c-39,-2 -79,-3 -120,-3 -31,-9 -59,-16 -80,-20 68,5 135,13 200,23zm1313 -13c0,7 1,15 1,23 -4,0 -9,0 -13,1 -111,-1 -226,4 -350,17 -108,6 -208,7 -304,5 143,-16 296,-36 461,-42 68,-2 136,-4 205,-4zm22 -40c6,0 12,0 18,1 -6,7 -11,14 -14,23l-1 0c-1,-8 -2,-16 -3,-24zm456 53c72,5 129,7 183,5l20 1c-59,2 -120,4 -180,6 17,10 34,20 51,28 35,2 70,4 106,6 43,-6 87,-7 127,4 55,1 112,1 169,-1 -56,2 -101,7 -144,10 -8,-3 -17,-6 -25,-9 55,1 112,1 169,-1 7,0 13,0 20,-1 65,-2 132,-7 201,-15 30,-4 58,-8 86,-11 -87,-1 -194,-4 -321,-7 -20,-1 -38,-1 -56,-1 -46,0 -97,-2 -154,-5 -76,-1 -156,-3 -242,-4 -4,-2 -7,-3 -10,-5zm319 -5c25,-3 51,-7 80,-11 29,-5 61,-10 97,-16 250,-42 631,-28 882,10l15 2c175,24 344,52 505,61 -24,0 -47,1 -71,1 -212,-14 -422,-30 -617,-39 -5,-3 -9,-6 -14,-8 -9,-3 -23,1 -33,5 -10,0 -19,0 -29,-1 -85,-3 -156,-1 -229,1 -58,-3 -115,-6 -171,-8 -151,-7 -260,6 -409,3l-6 0zm1319 46c-38,0 -75,0 -113,-1 -14,-1 -27,-2 -40,-3l-24 0c43,2 86,5 130,7 44,3 91,6 140,7 129,6 257,10 381,9 11,0 22,0 32,-1 44,2 88,4 131,5 -43,9 -85,20 -125,32 -170,49 -288,43 -393,24l-2 -1 -2 0c-96,-17 -181,-46 -285,-53 -51,-4 -92,-3 -128,-1 -22,-9 -44,-19 -67,-30 83,2 168,4 252,5 -14,-1 -27,-2 -40,-3 50,2 101,3 153,4zm648 8c5,-1 10,-1 14,-2 82,-4 169,-10 262,-19 90,-13 171,-24 243,-33 -28,-7 -57,-13 -86,-17 -35,5 -61,10 -72,11 -97,12 -211,41 -347,58 82,-4 169,-10 262,-19 90,-13 171,-24 243,-33 17,5 34,10 50,15 -74,13 -165,23 -269,29 -66,-3 -135,0 -204,8 -31,1 -63,1 -96,2zm610 -26c94,30 185,59 286,38 146,-19 280,-62 381,-83 18,1 37,3 57,4 -122,26 -240,70 -363,109 -224,35 -348,-11 -540,-38 64,-9 124,-20 179,-30zm-694 7c83,-19 164,-40 245,-54 63,-10 125,-15 189,-10 -51,9 -100,19 -147,29 -76,17 -174,28 -287,35zm-471 21c-49,-1 -96,-4 -140,-7 46,3 93,5 140,7zm-605 15c-135,-12 -260,-14 -516,-18 -43,-1 -80,-1 -114,0 65,-2 132,-7 201,-15 30,-4 58,-8 86,-11 8,0 15,0 22,0l4 0c104,3 214,6 327,9 -4,9 -8,20 -11,33l3 1 -2 1zm2437 -88c10,-2 20,-4 29,-6 41,-7 74,-9 100,-2 -4,0 -9,1 -14,2 -19,3 -39,6 -58,10 -20,-1 -39,-3 -57,-4zm-3450 80c-11,-4 -25,-10 -39,-18 35,2 70,4 106,6 -18,3 -35,6 -51,9 -6,2 -11,3 -16,3zm-19 2c-31,-2 -66,-7 -105,-12 -8,-2 -16,-3 -24,-4 -8,-2 -17,-5 -25,-7 -13,1 -29,-1 -47,-3 66,1 153,18 204,26l-3 0zm-848 -22c-24,0 -49,0 -73,0 -167,12 -305,16 -415,15 31,-7 62,-13 93,-20 -104,-2 -204,-8 -303,-14 44,10 93,22 138,31 56,-4 112,-10 170,-17 96,2 196,1 304,-5 124,-13 239,-18 350,-17 -89,6 -177,16 -264,27zm-1037 -38c-39,-2 -79,-3 -120,-3 19,4 40,10 60,16 41,-2 81,-3 121,-3 -20,-4 -40,-7 -61,-10zm-122 15c-106,6 -213,13 -319,13 -99,14 -207,21 -330,16 6,-5 12,-10 20,-15 198,-23 367,-32 520,-33l16 3c27,5 58,11 93,16zm-649 29c-22,-1 -44,-2 -67,-4 23,-3 45,-6 67,-8 -2,4 -2,8 0,12z"/>
   <path class="fil0" d="M180 183c122,-17 219,-21 301,-18m307 43c96,17 194,32 334,20 31,-4 61,-8 91,-11m20 -3c198,-23 367,-32 520,-33m111 1c41,0 81,1 120,3m338 19c100,6 200,12 304,14m5 0c96,2 196,1 304,-5 124,-13 239,-18 350,-17m564 29c35,2 70,4 106,6m127 4c124,2 252,-1 390,-17 30,-4 58,-8 86,-11m702 15c13,1 26,2 40,3m66 4c44,3 91,6 140,7m569 -4c82,-4 169,-10 262,-19 211,-31 369,-48 495,-58m271 -8c257,6 356,54 867,8"/>
   <path class="fil5 str0" d="M4900 249c3,-13 7,-24 11,-33 26,1 51,2 77,2 107,43 244,82 370,112 76,21 147,36 216,43 4,1 9,2 13,2 -30,-1 -65,-4 -104,-8 -175,-34 -369,-69 -542,-111 12,4 23,8 32,13l7 1c-14,-7 -31,-13 -51,-17 -8,-3 -17,-5 -27,-7l8 2 -3 -1 -4 3 -3 -1zm581 118c-28,-3 -58,-7 -89,-12 26,3 55,7 89,12z"/>
   <path class="fil6 str0" d="M4938 185c10,-4 24,-8 33,-5 5,2 9,5 14,8 -16,-1 -31,-2 -47,-3zm110 35c180,86 330,100 482,84 53,25 68,54 70,73 -157,-22 -430,-86 -612,-159 20,1 40,1 60,2z"/>
   <path class="fil7 str0" d="M4907 247c-183,118 -334,124 -417,171 -50,28 -174,-76 -321,-133 -3,-1 -7,-3 -10,-4 1,0 2,1 3,2 -52,-32 -103,-22 -137,-14 -49,13 -82,39 -98,69 27,18 58,34 96,45 2,5 2,10 3,14 0,0 1,0 2,0 4,1 7,3 10,6 0,-5 -2,-11 -5,-16 105,17 140,45 141,55 0,20 -52,-27 -70,-15 48,19 81,39 77,49 2,20 -28,-14 -79,-29 16,13 76,37 76,56 -16,7 -26,-9 -84,-32 37,30 79,45 61,49 -8,2 -77,-28 -96,-44 -3,4 32,21 31,32 192,45 402,75 419,56 93,-34 292,-155 426,-219 20,-12 48,-11 66,-24 0,-1 1,-1 2,-2 4,-9 4,-17 2,-24 -8,-14 -28,-28 -64,-39 -11,-3 -21,-5 -31,-8l-3 -1zm-893 178c-9,7 -24,8 -37,12 -17,-10 -36,-19 -58,-29 13,42 57,78 134,87 -2,1 -3,1 -5,2l4 0c-2,0 -3,1 -5,1 7,1 13,3 20,5 -28,-19 -33,-20 -46,-30 -13,-9 -15,-22 -32,-31 16,1 30,-4 39,-13 -2,0 -4,0 -6,0 -3,-1 -6,-2 -8,-4z"/>
   <path class="fil7 str0" d="M3338 130c-6,8 -11,17 -15,26l3 0c3,-9 7,-17 12,-26zm-11 96c8,6 14,12 20,18 3,-2 6,-5 9,-7 -9,-4 -18,-8 -29,-13l0 2zm34 38c9,17 11,35 4,54l-2 1c13,15 28,26 45,30 16,4 30,1 41,-4 -8,-10 -16,-19 -23,-26 -9,-5 -17,-11 -22,-19 -9,-22 -15,-38 -13,-50 -3,-1 -5,-2 -8,-3 -7,6 -15,12 -22,17z"/>
   <path class="fil5 str0" d="M3299 228l-3 2 3 6c0,-3 0,-6 0,-8zm28 58l20 35 18 -3c7,-19 5,-37 -4,-54 -3,2 -5,4 -8,5l3 6 -4 2 -3 -5c-3,2 -6,4 -10,6l-10 -20c3,-2 6,-4 9,-7l-4 -7 4 -3 4 7c2,-1 3,-2 5,-4 -6,-6 -12,-12 -20,-18 1,22 1,42 0,60z"/>
   <path class="fil8 str0" d="M3327 224c11,5 20,9 29,13 9,-8 17,-15 25,-22l-54 2 0 7zm78 -34c6,-6 12,-13 17,-19 -33,0 -66,0 -98,0 0,8 1,15 1,22 27,-1 53,-2 80,-3zm27 -30c14,-19 29,-38 44,-58l29 18c-12,14 -23,28 -35,41 105,4 202,10 290,16 7,4 16,8 25,13 -106,-1 -220,-1 -341,0 6,-6 12,-13 18,-20 97,0 194,1 289,3 -11,-5 -18,-8 -21,-7 0,-5 19,-15 4,-22 -8,8 -22,4 -42,10 -6,-7 5,-20 -20,-22 -1,7 -28,9 -43,13l-51 -10c-1,-6 24,-15 2,-21 -22,6 -42,11 -48,9 -120,-83 -182,-31 -206,33 13,0 25,1 38,1 9,-20 25,-33 48,-40 -19,9 -35,23 -46,40 22,1 44,2 66,3zm366 37c31,17 66,37 90,46 -6,1 -11,2 -16,2 -51,-8 -138,-25 -204,-26 -19,-4 -42,-9 -64,-14 64,-3 129,-5 194,-8zm-371 16c-6,3 -10,6 -15,8 3,-2 6,-5 9,-8l6 0zm-36 37c-3,-1 -5,-2 -8,-3 5,-4 9,-7 14,-11 -4,4 -5,9 -6,14z"/>
   <path class="fil9 str0" d="M3329 258l10 20c4,-2 7,-4 10,-6l-11 -21c-3,3 -6,5 -9,7zm24 11c15,-9 29,-21 44,-33 3,-5 8,-10 15,-15 3,-2 6,-5 9,-8l-40 2c-12,11 -25,22 -39,33l11 21zm91 -79c6,-6 12,-13 18,-20 -13,0 -26,0 -40,1 -5,6 -11,13 -17,19 4,0 8,0 12,0l27 0zm26 -29c12,-13 23,-27 35,-41l-29 -18c-15,20 -30,39 -44,58 13,0 26,1 38,1z"/>
   <polygon class="fil10 str0" points="3338,241 3334,244 3352,277 3356,275 "/>
   <path class="fil11" d="M3364 157c9,-20 25,-33 48,-40 -19,9 -35,23 -46,40l-2 0z"/>
   <path class="fil5 str0" d="M3299 7l-25 8c9,46 17,95 21,140 9,1 18,1 27,1 -5,-49 -13,-101 -23,-149zm-2 165c0,7 1,15 1,23 9,-1 18,-1 27,-2 0,-7 -1,-14 -1,-22 -9,0 -18,0 -27,1zm2 46c2,55 -4,100 -20,124l20 21 14 -15c14,-22 17,-71 14,-131l-28 1z"/>
   <path class="fil7 str0" d="M4157 278l0 0c-80,-79 -221,-43 -228,-39 -34,22 -41,46 -39,74 -36,-26 -72,-53 -123,-74 47,7 91,11 137,1 84,-18 187,-28 253,38zm-252 124c2,20 2,42 -2,66 -2,9 109,35 145,29l4 0c-54,6 -117,-15 -188,-36 -20,-5 -58,-18 -77,-22 -56,-11 -91,-6 -145,9 -20,18 -42,20 -65,12 27,8 49,1 58,-10 7,-8 13,-17 12,-27 -3,-27 -20,-59 4,-89 -20,2 -36,-8 -31,9 13,55 -110,11 -172,-16 84,23 241,-10 256,4 47,17 131,42 201,71zm-473 -80c39,24 76,41 90,103 -37,-34 -71,-80 -96,-106 2,1 4,2 6,3z"/>
   <path class="fil12" d="M4162 283c-52,-32 -103,-22 -137,-14 -49,13 -82,39 -98,69 -13,-8 -25,-17 -37,-25 -2,-28 5,-52 39,-74 7,-5 155,-42 233,44zm-243 125c13,42 57,78 134,87 -28,11 -152,-17 -150,-27 4,-24 4,-46 2,-66 5,2 10,4 14,6z"/>
   <path class="fil13 str0" d="M4902 246c10,2 19,4 27,7 54,13 93,33 71,71 230,32 258,9 486,44 -189,-37 -401,-75 -584,-122z"/>
   <path class="fil12" d="M3635 450c7,-8 13,-17 12,-27 -3,-27 -20,-59 4,-89 -20,2 -36,-8 -31,9 13,55 -110,11 -172,-16 -5,-1 -11,-3 -16,-5 39,24 76,41 91,104 45,48 97,43 112,24z"/>
   <path class="fil14" d="M394 110c45,46 254,172 606,49 101,-35 263,-38 444,-21 32,-4 66,-8 104,-10 -322,-35 -545,-8 -637,18 -222,65 -486,-32 -517,-36zm1198 45c58,8 118,18 177,29 120,22 329,58 541,57 36,0 72,-1 108,-3 33,1 68,1 105,2 173,-34 351,-85 505,-86 404,-5 720,23 950,37 182,-5 359,-7 521,-4 66,2 124,0 181,-2 -58,-3 -115,-6 -171,-8 -151,-7 -260,6 -409,3 -306,-7 -669,-16 -1008,-4 -232,9 -438,44 -631,59 15,3 30,6 44,8 -137,26 -270,40 -384,9 -92,-25 -265,-75 -337,-90 -65,-5 -130,-7 -192,-7zm3644 67c219,13 441,24 651,23 11,0 22,0 32,-1 -105,-4 -212,-10 -317,-17 271,-2 511,-14 662,-47 297,-66 648,-107 1039,-76 -117,5 -230,15 -337,30 -28,0 -57,0 -88,0 -205,-5 -417,35 -456,40 -101,12 -219,43 -361,60 -204,2 -429,-2 -648,-8 -278,-2 -573,-12 -829,-19 172,0 403,7 652,15zm2238 -83c19,4 31,5 27,3 -2,-1 -4,-2 -6,-3 -7,0 -14,0 -21,0zm-3237 61c-19,-1 -38,-1 -56,-1 -45,0 -97,-2 -154,-5 75,2 145,4 210,6z"/>
   <path class="fil7 str0" d="M3427 213c-45,25 -42,40 -23,87 45,68 282,13 300,31 65,24 202,63 273,106 13,-4 28,-5 37,-12 -4,-3 -6,-9 -5,-15 1,-8 9,-14 17,-13 -1,-4 -1,-9 -3,-14 -124,-35 -163,-123 -308,-161 -27,2 -68,-7 -111,-17 -60,3 -118,5 -177,8z"/>
   <path class="fil7 str0" d="M4033 387c105,17 140,45 141,55 0,20 -52,-27 -70,-15 48,19 81,39 77,49 2,20 -28,-14 -79,-29 16,13 76,37 76,56 -16,7 -26,-9 -84,-32 37,30 79,45 61,49 -8,2 -77,-28 -96,-44 -4,4 49,29 24,38 -42,-30 -47,-30 -62,-41 -13,-9 -15,-22 -32,-31 16,1 30,-4 39,-13 6,-1 12,-6 13,-13 1,-5 -1,-9 -3,-13 0,-5 -2,-11 -5,-16z"/>
   <path class="fil8 str0" d="M4028 397c-9,-2 -18,4 -19,13 -2,9 4,17 13,19 9,2 17,-4 19,-13 1,-9 -5,-18 -13,-19zm-2 6c-7,-2 -13,2 -14,8 -1,5 4,11 11,12 7,1 14,-2 15,-8 1,-5 -4,-11 -12,-12z"/>
   <path class="fil14 str0" d="M4026 403c-7,-2 -13,2 -14,8 -1,5 4,11 11,12 7,1 14,-2 15,-8 1,-5 -4,-11 -12,-12z"/>
   <path class="fil14" d="M1213 229c107,-97 572,-92 898,-21 406,89 1577,-38 2388,-21 150,4 258,-9 410,-3 425,18 928,71 1382,69 221,-2 396,-55 536,-71 39,-5 251,-46 457,-41 193,4 339,-13 460,-11 72,1 174,26 164,19 -40,-26 -133,-33 -197,-38 -392,-31 -745,11 -1043,77 -422,92 -1550,19 -2088,19 -233,0 -623,-23 -1163,-17 -283,3 -541,68 -818,64 -101,-1 -369,-75 -432,-87 -580,-101 -981,-3 -954,62z"/>
  </g>
 </g>
</svg>
