<?xml version="1.0" encoding="UTF-8"?>
<!DOCTYPE svg PUBLIC "-//W3C//DTD SVG 1.1//EN" "http://www.w3.org/Graphics/SVG/1.1/DTD/svg11.dtd">
<!-- Creator: CorelDRAW X7 -->
<svg xmlns="http://www.w3.org/2000/svg" xml:space="preserve" width="8in" height="5.188in" version="1.1" style="shape-rendering:geometricPrecision; text-rendering:geometricPrecision; image-rendering:optimizeQuality; fill-rule:evenodd; clip-rule:evenodd"
viewBox="0 0 8000 5188"
 xmlns:xlink="http://www.w3.org/1999/xlink">
 <defs>
  <style type="text/css">
   <![CDATA[
    .str0 {stroke:#0098DA;stroke-width:3}
    .fil0 {fill:none}
    .fil1 {fill:#F3F4F5}
   ]]>
  </style>
     <mask id="id0">
  <linearGradient id="id1" gradientUnits="userSpaceOnUse" x1="6274.09" y1="2734.75" x2="6474.87" y2="2750.68">
   <stop offset="0" style="stop-opacity:1; stop-color:white"/>
   <stop offset="1" style="stop-opacity:0; stop-color:white"/>
  </linearGradient>
      <rect style="fill:url(#id1)" x="6251" y="2515" width="229" height="418"/>
     </mask>
 </defs>
 <g id="Layer_x0020_1">
  <metadata id="CorelCorpID_0Corel-Layer"/>
  <rect class="fil0" width="8000" height="5188"/>
  <g id="_2568291342736">
   <g>
    <path class="fil1 str0" d="M1647 2881c4,-8 39,27 49,35 6,-2 -27,-35 11,-38 1,-8 8,-8 20,-1 5,-7 12,-8 22,-2 4,-8 11,-9 20,-1 3,-9 9,-9 18,-1 3,-8 9,-8 20,-1 3,-9 10,-9 21,-1 3,-8 6,-11 20,-4 1,-6 6,-11 23,1 4,-8 13,-9 27,-1 -8,-10 -7,-13 -16,-15l-46 -21 -179 9c-34,1 -49,20 -10,41z"/>
    <path class="fil1 str0" d="M1486 2388c15,-11 33,-20 54,-26 -12,6 -22,14 -27,23 18,-11 37,-19 59,-22 -3,4 -4,9 4,12 -4,6 -3,10 3,12 -4,5 -3,9 4,11 -5,5 -4,9 3,11 -5,5 -4,8 3,9 -3,8 4,15 6,23l79 51 135 61c-16,7 -24,14 -23,23 -8,5 -4,11 12,19 -5,8 -2,14 10,18 -3,8 -1,14 10,16 -4,5 -1,11 10,17 -6,6 -2,12 11,18 -4,8 0,14 11,18 -5,9 -2,15 10,18 -5,8 -2,13 10,16 -5,6 -2,12 10,17 -5,7 -2,13 11,17 -5,7 -5,12 8,19 -5,5 -6,12 14,18 -5,9 0,16 14,24 -12,-2 -14,1 -21,-5l-43 -26 -126 -230 -251 -162z"/>
    <path class="fil1 str0" d="M979 2432c112,-86 200,-109 302,-104 179,39 253,73 394,160 66,13 129,0 205,43 -48,7 -88,43 -143,19 151,158 110,252 232,294 107,-2 146,-68 261,-45 -69,42 -127,114 -204,125 25,51 -2,146 1,217 -85,-95 -54,-179 -87,-257 -74,-61 -142,-13 -250,-16 -26,11 25,65 24,97 -43,-14 -105,-68 -128,-121 -6,-24 -129,-58 -209,-102 -10,-2 -42,-11 -50,-5 -15,10 23,27 33,81 -72,-41 -112,-99 -135,-153 -258,-156 -252,-202 -246,-233z"/>
    <path class="fil1 str0" d="M979 2432c112,-86 200,-109 302,-104 179,39 347,122 420,203 16,11 72,94 128,189 38,64 117,141 140,124 -93,47 -210,-327 -479,-425 -185,-67 -220,-32 -105,13 9,3 1,19 6,30 10,22 23,50 8,83 -7,15 -31,19 -41,34 -6,8 -20,1 -19,25 1,24 -46,22 -63,35 -8,7 -17,24 -20,17 0,-1 26,-25 31,-36 9,-18 13,-25 18,-59 5,-38 5,-21 10,-99 1,-21 -7,134 -42,157 -6,4 -21,20 -12,22 10,3 -5,12 -5,15 1,9 8,10 -12,6 -5,-2 -6,-2 -8,3 -1,3 -7,1 -11,0 -258,-156 -252,-202 -246,-233z"/>
    <path class="fil1 str0" d="M979 2432c33,21 60,79 91,112 17,5 26,-18 24,-44 -33,-27 -69,-44 -98,-80l-17 12z"/>
    <ellipse class="fil1 str0" transform="matrix(0.35622 0.188014 -0.154574 0.292863 1214.12 2440.68)" rx="114" ry="103"/>
    <ellipse class="fil1 str0" transform="matrix(0.291447 0.153826 -0.126467 0.23961 1213.41 2440.79)" rx="114" ry="103"/>
    <path class="fil1 str0" d="M1188 2441c0,-14 13,-27 36,-16 20,5 18,16 12,31 -8,12 -47,-1 -48,-15z"/>
    <ellipse class="fil1 str0" transform="matrix(0.0507162 0.0267682 -0.0220072 0.0416959 1211.34 2427.97)" rx="114" ry="103"/>
    <path class="fil1 str0" d="M1902 2821c6,6 4,19 14,25 -10,-6 -16,2 -27,3 13,-4 19,-15 13,-28z"/>
    <path class="fil1 str0" d="M1920 2831c6,6 4,18 13,23 -9,-5 -15,1 -24,2 12,-3 17,-13 11,-25z"/>
    <path class="fil1 str0" d="M1936 2840c5,6 4,17 13,22 -9,-5 -15,1 -24,2 12,-3 16,-13 11,-24z"/>
    <path class="fil1 str0" d="M1950 2848c5,5 4,15 12,20 -8,-5 -13,1 -22,2 11,-3 15,-12 10,-22z"/>
    <path class="fil1 str0" d="M1884 2813c6,6 4,19 14,25 -10,-6 -16,1 -27,3 13,-4 19,-15 13,-28z"/>
    <path class="fil1 str0" d="M1866 2804c6,7 4,20 14,26 -10,-6 -16,1 -28,3 14,-4 20,-15 14,-29z"/>
    <path class="fil1 str0" d="M1845 2795c6,6 5,20 15,25 -10,-5 -17,2 -28,4 14,-5 19,-16 13,-29z"/>
    <path class="fil1 str0" d="M1826 2785c6,7 4,20 15,26 -11,-6 -17,1 -28,3 13,-4 19,-15 13,-29z"/>
    <path class="fil1 str0" d="M1798 2769c8,9 6,26 19,33 -13,-7 -21,2 -35,4 17,-6 24,-19 16,-37z"/>
    <path class="fil1 str0" d="M1375 2585c76,-29 238,34 378,123 -284,-147 -259,3 -371,-75 84,-18 -27,-41 -7,-48z"/>
    <path class="fil1 str0" d="M1374 2585c75,-32 239,26 382,109 -289,-137 -258,12 -373,-61 84,-21 -28,-40 -9,-48z"/>
   </g>
   <g>
    <path class="fil1 str0" d="M1876 3300c-1,-5 31,0 39,0 3,-3 -27,-8 -8,-24 -3,-5 1,-7 10,-8 0,-6 3,-9 11,-9 -1,-6 2,-9 10,-9 -1,-5 2,-8 9,-7 -1,-5 2,-8 11,-8 -2,-6 1,-9 10,-9 -1,-5 0,-8 9,-9 -2,-4 -1,-9 13,-8 -1,-6 3,-10 13,-11 -7,-2 -8,-5 -13,-2l-33 6 -91 73c-18,13 -18,29 10,25z"/>
    <path class="fil1 str0" d="M1605 3100c3,-12 9,-23 18,-34 -4,8 -6,15 -5,22 5,-12 12,-24 23,-34 0,4 1,6 6,5 0,5 2,7 6,5 0,5 2,6 7,5 -1,4 1,6 5,4 0,5 1,6 5,4 2,5 8,7 12,10l61 -3 95 -19c-6,10 -7,17 -4,21 -2,6 3,8 14,6 0,6 4,8 12,5 1,6 5,8 11,5 0,5 4,6 12,5 -1,6 3,7 13,6 1,5 5,7 12,5 1,7 5,9 13,6 0,6 3,7 11,4 -1,6 3,8 11,6 0,6 5,7 13,5 0,5 1,8 11,7 -1,4 2,8 14,4 1,6 7,9 17,7 -7,4 -7,7 -13,6l-33 2 -153 -74 -194 9z"/>
    <path class="fil1 str0" d="M1353 3315c26,-88 65,-134 121,-169 109,-47 161,-57 268,-64 40,-19 69,-49 125,-55 -23,21 -30,56 -68,64 139,27 153,92 234,68 55,-42 51,-91 120,-123 -20,49 -23,109 -60,144 32,17 54,78 82,114 -80,-18 -96,-74 -143,-103 -62,-4 -80,47 -138,86 -10,16 38,25 50,42 -29,9 -82,4 -114,-16 -12,-10 -91,19 -150,26 -5,2 -26,10 -28,16 -4,11 23,6 48,30 -53,6 -96,-10 -129,-30 -196,15 -210,-11 -218,-30z"/>
    <path class="fil1 str0" d="M1353 3315c26,-88 65,-134 121,-169 109,-47 229,-67 298,-51 13,0 74,22 140,51 44,20 115,31 121,13 -32,60 -235,-94 -414,-44 -124,34 -129,66 -51,46 5,-1 8,10 14,14 14,8 32,18 36,41 2,11 -9,22 -9,33 0,7 -10,8 -1,21 10,12 -16,29 -19,42 -2,7 -1,19 -5,17 -1,-1 5,-23 3,-31 -2,-13 -2,-18 -13,-38 -11,-22 -5,-13 -32,-56 -8,-12 47,73 37,99 -2,4 -3,18 2,16 6,-2 2,9 3,10 4,4 8,2 -4,7 -3,2 -4,2 -3,5 1,2 -3,3 -6,4 -196,15 -210,-11 -218,-30z"/>
    <path class="fil1 str0" d="M1353 3315c26,-1 62,19 91,25 10,-4 6,-19 -5,-32 -27,-2 -53,3 -82,-6l-4 13z"/>
    <ellipse class="fil1 str0" transform="matrix(0.259595 -0.035152 0.0288999 0.213423 1480.63 3230.81)" rx="114" ry="103"/>
    <ellipse class="fil1 str0" transform="matrix(0.212391 -0.0287602 0.0236449 0.174615 1480.3 3231.14)" rx="114" ry="103"/>
    <path class="fil1 str0" d="M1467 3241c-6,-8 -4,-20 13,-22 12,-5 15,2 18,11 0,10 -25,18 -31,11z"/>
    <ellipse class="fil1 str0" transform="matrix(0.0369594 -0.00500471 0.00411458 0.0303858 1474.36 3225.13)" rx="114" ry="103"/>
    <path class="fil1 str0" d="M1988 3172c6,1 10,9 18,8 -8,1 -9,7 -14,12 6,-7 5,-15 -4,-20z"/>
    <path class="fil1 str0" d="M2002 3171c5,1 9,7 15,7 -6,0 -7,6 -12,10 5,-6 4,-13 -3,-17z"/>
    <path class="fil1 str0" d="M2014 3169c5,1 8,8 14,7 -6,1 -7,6 -11,10 5,-6 4,-13 -3,-17z"/>
    <path class="fil1 str0" d="M2024 3168c5,1 8,7 14,6 -6,1 -7,6 -11,10 5,-6 4,-12 -3,-16z"/>
    <path class="fil1 str0" d="M1976 3174c5,2 9,9 17,8 -8,1 -8,7 -14,13 6,-8 5,-16 -3,-21z"/>
    <path class="fil1 str0" d="M1963 3177c6,1 10,9 17,8 -7,1 -8,7 -13,12 5,-7 4,-15 -4,-20z"/>
    <path class="fil1 str0" d="M1949 3180c5,1 9,8 17,8 -8,0 -8,7 -14,12 6,-8 5,-15 -3,-20z"/>
    <path class="fil1 str0" d="M1935 3182c5,1 9,9 17,8 -8,1 -8,7 -14,12 6,-7 5,-15 -3,-20z"/>
    <path class="fil1 str0" d="M1914 3184c7,1 13,11 22,10 -9,1 -10,9 -17,16 7,-10 6,-20 -5,-26z"/>
    <path class="fil1 str0" d="M1620 3246c30,-44 139,-71 247,-78 -206,30 -136,100 -225,101 38,-41 -30,-11 -22,-23z"/>
    <path class="fil1 str0" d="M1620 3247c28,-45 136,-77 243,-87 -204,37 -132,104 -221,109 37,-43 -29,-11 -22,-22z"/>
   </g>
   <g>
    <path class="fil1 str0" d="M4807 3167c6,-7 29,40 36,51 7,1 -14,-44 24,-34 4,-7 11,-5 21,6 7,-5 14,-3 22,6 7,-7 14,-5 20,6 7,-7 13,-5 19,6 5,-7 12,-5 20,6 6,-8 13,-6 21,6 6,-7 10,-8 21,3 3,-6 10,-9 22,9 7,-6 16,-4 27,8 -4,-11 -1,-15 -10,-20l-38 -37 -181 -55c-34,-10 -56,4 -24,39z"/>
    <path class="fil1 str0" d="M4822 2621c18,-6 39,-8 62,-6 -14,1 -26,5 -35,12 22,-4 44,-5 67,-1 -5,4 -7,8 -1,14 -6,4 -7,8 -1,12 -6,4 -6,9 0,13 -7,3 -7,7 -1,11 -6,4 -7,7 -1,11 -5,7 -1,17 -1,25l60 78 112 108c-18,1 -28,6 -31,15 -9,2 -8,10 5,23 -7,6 -6,13 4,21 -6,7 -6,14 4,20 -6,3 -5,10 4,20 -7,4 -6,11 5,22 -7,6 -5,14 4,22 -8,7 -6,14 4,21 -8,6 -7,12 4,19 -7,4 -6,11 4,20 -8,6 -6,13 4,22 -6,5 -8,9 2,21 -6,3 -10,10 7,23 -7,7 -5,16 6,28 -11,-5 -15,-3 -19,-12l-34 -41 -43 -272 -191 -249z"/>
    <path class="fil1 str0" d="M4303 2486c142,-47 238,-38 336,4 164,100 225,161 334,297 62,36 128,45 188,115 -49,-11 -102,11 -148,-32 93,210 20,288 126,373 107,35 169,-16 274,47 -82,18 -165,69 -246,52 7,60 -53,144 -75,215 -51,-123 9,-196 4,-285 -52,-86 -136,-63 -242,-103 -30,1 2,73 -10,105 -38,-30 -80,-105 -84,-166 2,-25 -108,-103 -172,-175 -8,-5 -38,-25 -48,-23 -17,5 14,35 5,92 -57,-66 -76,-137 -80,-199 -201,-246 -179,-289 -162,-317z"/>
    <path class="fil1 str0" d="M4303 2486c142,-47 238,-38 336,4 164,100 302,242 345,348 11,17 38,118 60,233 15,77 66,181 95,172 -108,14 -93,-398 -324,-590 -160,-132 -208,-109 -109,-24 7,6 -6,19 -5,31 2,26 5,59 -22,86 -12,12 -36,8 -51,19 -9,6 -21,-6 -28,18 -8,24 -54,6 -75,13 -10,3 -26,17 -26,9 0,-1 34,-15 44,-24 15,-15 22,-21 38,-52 19,-37 12,-20 44,-95 9,-21 -53,130 -97,141 -6,1 -27,12 -19,18 9,5 -9,9 -10,12 -2,9 4,13 -14,2 -5,-3 -6,-4 -9,0 -2,3 -7,-2 -11,-4 -201,-246 -179,-289 -162,-317z"/>
    <path class="fil1 str0" d="M4303 2486c26,33 32,99 51,143 15,10 32,-9 39,-36 -23,-38 -53,-67 -69,-113l-21 6z"/>
    <ellipse class="fil1 str0" transform="matrix(0.28663 0.311911 -0.256434 0.23565 4533.37 2577.19)" rx="114" ry="103"/>
    <ellipse class="fil1 str0" transform="matrix(0.234511 0.255194 -0.209806 0.192801 4532.62 2577.04)" rx="114" ry="103"/>
    <path class="fil1 str0" d="M4507 2568c5,-14 23,-22 42,-3 18,12 12,23 1,35 -13,9 -46,-17 -43,-32z"/>
    <ellipse class="fil1 str0" transform="matrix(0.0408085 0.0444078 -0.0365094 0.0335503 4535.1 2563.61)" rx="114" ry="103"/>
    <path class="fil1 str0" d="M5081 3196c3,9 -3,21 5,31 -8,-10 -17,-5 -28,-7 15,1 24,-8 23,-24z"/>
    <path class="fil1 str0" d="M5095 3213c4,8 -2,19 5,27 -7,-8 -15,-4 -25,-6 13,1 21,-7 20,-21z"/>
    <path class="fil1 str0" d="M5108 3227c3,8 -2,18 5,26 -7,-8 -15,-4 -25,-5 13,0 21,-7 20,-21z"/>
    <path class="fil1 str0" d="M5119 3240c3,7 -2,17 5,24 -7,-7 -14,-4 -23,-5 12,0 19,-7 18,-19z"/>
    <path class="fil1 str0" d="M5066 3182c3,8 -3,21 5,30 -8,-9 -17,-4 -28,-7 15,1 24,-8 23,-23z"/>
    <path class="fil1 str0" d="M5051 3167c3,9 -3,21 5,31 -8,-10 -17,-5 -28,-7 15,1 24,-8 23,-24z"/>
    <path class="fil1 str0" d="M5034 3151c4,8 -3,21 5,30 -8,-9 -17,-4 -28,-7 15,1 24,-8 23,-23z"/>
    <path class="fil1 str0" d="M5018 3134c4,9 -3,21 5,31 -8,-10 -17,-5 -28,-7 15,1 24,-8 23,-24z"/>
    <path class="fil1 str0" d="M4996 3109c5,11 -3,27 7,39 -10,-12 -21,-6 -36,-9 19,1 31,-10 29,-30z"/>
    <path class="fil1 str0" d="M4642 2777c86,-2 223,118 331,255 -229,-246 -258,-88 -341,-205 90,12 -12,-50 10,-50z"/>
    <path class="fil1 str0" d="M4641 2777c86,-5 228,109 340,242 -238,-237 -260,-78 -348,-192 90,9 -14,-49 8,-50z"/>
   </g>
   <g>
    <path class="fil1 str0" d="M3474 3171c6,-7 33,38 41,48 6,0 -19,-43 20,-36 4,-8 11,-6 22,4 6,-6 14,-4 22,4 7,-7 14,-6 21,5 6,-9 12,-7 19,3 5,-7 11,-6 20,4 6,-8 13,-6 22,4 5,-7 9,-9 21,2 3,-6 10,-10 23,7 7,-8 16,-6 28,5 -5,-11 -3,-15 -12,-19l-41 -33 -186 -38c-34,-7 -55,9 -20,40z"/>
    <path class="fil1 str0" d="M3438 2626c18,-7 38,-11 61,-12 -14,3 -25,8 -33,17 21,-7 43,-10 66,-8 -4,4 -6,8 1,14 -6,5 -6,9 0,12 -6,5 -6,9 1,13 -6,4 -6,8 0,11 -6,5 -6,8 1,11 -5,7 0,17 0,25l67 72 122 97c-18,3 -28,9 -29,18 -9,3 -7,10 7,23 -7,6 -5,13 6,20 -6,8 -5,15 5,19 -5,5 -3,11 7,21 -8,4 -6,11 6,21 -6,7 -4,14 6,21 -7,7 -5,14 6,21 -7,6 -5,12 6,18 -7,5 -5,12 6,20 -7,6 -5,13 6,21 -6,6 -8,10 4,21 -6,3 -9,11 9,22 -7,7 -4,17 8,28 -11,-5 -15,-2 -20,-11l-37 -37 -69 -267 -213 -231z"/>
    <path class="fil1 str0" d="M2910 2540c136,-59 232,-60 335,-27 172,85 238,139 359,265 65,30 132,33 198,97 -50,-6 -101,21 -151,-18 113,200 47,285 161,360 109,25 166,-32 277,21 -81,25 -158,84 -240,75 12,58 -40,148 -55,221 -62,-119 -9,-196 -23,-284 -59,-81 -141,-50 -249,-81 -30,4 8,73 -1,105 -40,-26 -90,-96 -99,-157 0,-25 -117,-93 -187,-158 -9,-5 -41,-22 -50,-18 -18,6 17,33 13,91 -63,-61 -88,-130 -98,-191 -223,-226 -205,-271 -190,-301z"/>
    <path class="fil1 str0" d="M2910 2540c136,-59 232,-60 335,-27 172,85 322,213 375,315 13,15 49,114 81,226 22,75 83,174 111,163 -107,23 -129,-388 -378,-558 -171,-116 -217,-90 -110,-14 7,5 -4,20 -2,32 4,26 10,58 -14,87 -11,13 -36,12 -50,24 -8,7 -20,-4 -26,20 -5,25 -53,11 -73,20 -10,5 -24,20 -25,12 0,-2 33,-18 41,-28 14,-17 20,-23 33,-56 16,-38 11,-21 36,-99 7,-21 -42,135 -84,150 -6,2 -26,15 -17,19 9,5 -9,11 -9,14 -1,9 5,13 -14,3 -5,-3 -6,-4 -9,1 -1,3 -7,-1 -11,-3 -223,-226 -205,-271 -190,-301z"/>
    <path class="fil1 str0" d="M2910 2540c28,30 41,96 64,138 15,9 30,-12 35,-39 -26,-36 -59,-63 -79,-107l-20 8z"/>
    <ellipse class="fil1 str0" transform="matrix(0.314278 0.284033 -0.233515 0.258381 3147.01 2609.74)" rx="114" ry="103"/>
    <ellipse class="fil1 str0" transform="matrix(0.257131 0.232385 -0.191053 0.211398 3146.26 2609.66)" rx="114" ry="103"/>
    <path class="fil1 str0" d="M3120 2603c4,-14 21,-24 41,-7 20,10 14,22 5,35 -12,10 -48,-13 -46,-28z"/>
    <ellipse class="fil1 str0" transform="matrix(0.0447448 0.0404387 -0.0332463 0.0367865 3147.48 2596.06)" rx="114" ry="103"/>
    <path class="fil1 str0" d="M3749 3175c5,9 0,22 9,30 -9,-8 -18,-3 -30,-4 15,0 24,-10 21,-26z"/>
    <path class="fil1 str0" d="M3765 3191c4,7 0,19 8,26 -8,-7 -16,-2 -26,-3 13,-1 21,-9 18,-23z"/>
    <path class="fil1 str0" d="M3779 3204c4,7 0,18 7,25 -7,-7 -14,-2 -24,-3 12,-1 19,-9 17,-22z"/>
    <path class="fil1 str0" d="M3792 3216c3,6 -1,16 6,23 -7,-7 -13,-3 -22,-3 11,-1 18,-8 16,-20z"/>
    <path class="fil1 str0" d="M3733 3162c5,9 -1,22 8,30 -9,-8 -17,-3 -29,-4 15,-1 24,-10 21,-26z"/>
    <path class="fil1 str0" d="M3717 3149c4,9 -1,22 8,30 -9,-8 -17,-3 -29,-4 15,-1 23,-10 21,-26z"/>
    <path class="fil1 str0" d="M3698 3134c5,9 0,22 9,30 -9,-8 -18,-3 -29,-4 15,0 23,-10 20,-26z"/>
    <path class="fil1 str0" d="M3681 3120c5,8 0,21 8,29 -8,-8 -17,-3 -29,-4 15,0 24,-10 21,-25z"/>
    <path class="fil1 str0" d="M3657 3096c6,11 0,27 11,38 -11,-11 -22,-4 -37,-5 19,-1 29,-13 26,-33z"/>
    <path class="fil1 str0" d="M3274 2798c85,-9 233,97 353,224 -251,-224 -265,-64 -359,-173 91,4 -17,-48 6,-51z"/>
    <path class="fil1 str0" d="M3273 2798c85,-12 237,88 361,210 -259,-214 -267,-54 -365,-159 91,1 -18,-48 4,-51z"/>
   </g>
   <g>
    <path class="fil1 str0" d="M4658 2997c-1,-9 50,6 63,8 4,-4 -43,-19 -9,-40 -3,-8 3,-12 18,-12 1,-9 7,-12 19,-11 0,-11 6,-14 19,-12 -1,-10 4,-13 16,-9 -1,-9 5,-13 18,-11 -1,-10 5,-14 19,-12 -1,-8 1,-13 17,-13 -2,-6 0,-14 22,-10 -1,-10 8,-15 24,-15 -12,-5 -12,-9 -22,-6l-53 3 -163 96c-30,19 -35,44 12,44z"/>
    <path class="fil1 str0" d="M4266 2617c8,-18 21,-34 38,-50 -9,11 -14,23 -14,34 11,-19 25,-36 44,-50 -1,6 1,11 10,10 -2,8 1,11 8,9 -1,7 2,11 9,9 -2,7 1,10 8,8 -2,7 1,10 7,8 2,8 12,12 18,18l97 9 156 -10c-11,14 -15,25 -10,33 -5,8 2,12 20,12 0,9 6,13 19,11 1,10 6,14 17,10 -1,7 5,11 18,11 -3,8 3,12 19,12 0,9 7,12 19,11 -1,11 6,14 18,12 -1,9 5,13 17,9 -2,9 4,13 18,11 -2,10 5,14 18,12 0,8 1,12 17,13 -2,6 0,14 22,10 0,10 8,15 24,15 -11,4 -12,9 -21,6l-53 -3 -230 -152 -313 -28z"/>
    <path class="fil1 str0" d="M3816 2907c61,-135 133,-200 230,-245 185,-52 271,-56 445,-44 68,-21 120,-64 212,-61 -41,29 -61,83 -124,88 218,73 226,180 361,159 97,-54 102,-135 219,-170 -43,73 -61,169 -128,217 48,35 70,136 108,201 -126,-47 -139,-140 -208,-196 -98,-21 -138,57 -239,108 -20,22 55,48 70,78 -48,7 -131,-12 -179,-50 -17,-19 -149,9 -245,8 -10,2 -44,11 -49,20 -9,16 35,14 71,59 -88,-3 -152,-38 -201,-76 -317,-19 -334,-64 -343,-96z"/>
    <path class="fil1 str0" d="M3816 2907c61,-135 133,-200 230,-245 185,-52 383,-57 490,-18 20,3 113,52 212,114 67,41 178,73 192,46 -64,89 -357,-201 -655,-160 -205,28 -221,78 -91,63 9,-1 10,18 20,25 20,17 46,36 48,74 1,17 -19,33 -21,51 -1,11 -18,11 -6,33 13,22 -32,44 -41,64 -4,10 -4,30 -11,25 0,-1 13,-35 12,-48 -1,-22 0,-31 -12,-64 -14,-38 -6,-22 -40,-97 -9,-20 59,128 38,167 -3,6 -10,28 0,26 10,-2 1,14 2,16 6,8 13,6 -8,11 -5,2 -6,2 -5,7 1,4 -6,4 -11,6 -317,-19 -334,-64 -343,-96z"/>
    <path class="fil1 str0" d="M3816 2907c42,4 95,44 140,59 17,-4 15,-29 0,-52 -44,-9 -86,-7 -130,-27l-10 20z"/>
    <ellipse class="fil1 str0" cx="4039" cy="2800" rx="48" ry="36"/>
    <ellipse class="fil1 str0" cx="4038" cy="2800" rx="40" ry="29"/>
    <path class="fil1 str0" d="M4014 2813c-6,-14 -1,-32 27,-33 21,-5 24,7 26,23 -2,15 -44,22 -53,10z"/>
    <ellipse class="fil1 str0" cx="4030" cy="2789" rx="7" ry="5"/>
    <path class="fil1 str0" d="M4865 2816c9,3 14,16 26,16 -12,0 -15,9 -24,17 11,-11 10,-24 -2,-33z"/>
    <path class="fil1 str0" d="M4887 2816c8,3 13,14 24,15 -11,-1 -14,8 -22,14 9,-9 9,-20 -2,-29z"/>
    <path class="fil1 str0" d="M4906 2817c8,2 12,13 23,14 -11,-1 -13,8 -21,14 9,-9 9,-20 -2,-28z"/>
    <path class="fil1 str0" d="M4924 2817c7,2 10,12 20,13 -10,-1 -12,7 -19,12 8,-8 8,-18 -1,-25z"/>
    <path class="fil1 str0" d="M4844 2817c9,3 14,16 26,16 -12,0 -14,10 -24,17 11,-11 11,-24 -2,-33z"/>
    <path class="fil1 str0" d="M4823 2818c9,3 14,16 27,16 -13,0 -15,10 -25,17 11,-11 11,-23 -2,-33z"/>
    <path class="fil1 str0" d="M4800 2819c9,3 14,16 26,17 -12,-1 -15,9 -24,16 10,-10 10,-23 -2,-33z"/>
    <path class="fil1 str0" d="M4777 2820c9,3 14,16 26,16 -12,0 -15,10 -24,17 11,-11 10,-24 -2,-33z"/>
    <path class="fil1 str0" d="M4744 2819c11,3 17,20 33,21 -16,-1 -19,12 -31,21 14,-14 13,-30 -2,-42z"/>
    <path class="fil1 str0" d="M4260 2855c56,-65 237,-85 411,-72 -336,3 -239,130 -382,113 70,-58 -45,-25 -29,-41z"/>
    <path class="fil1 str0" d="M4259 2855c54,-66 234,-93 409,-86 -336,15 -235,139 -378,127 68,-61 -46,-24 -31,-41z"/>
   </g>
   <g>
    <path class="fil1 str0" d="M5425 3146c0,-10 49,10 61,13 5,-4 -40,-23 -5,-41 -2,-8 4,-11 20,-10 1,-8 8,-12 20,-10 0,-10 6,-13 19,-9 0,-10 5,-13 17,-9 -1,-8 6,-12 19,-9 -1,-10 6,-13 19,-10 0,-8 2,-12 18,-12 -1,-6 2,-13 23,-8 1,-10 9,-14 25,-12 -11,-6 -11,-10 -21,-8l-53 -2 -170 82c-32,16 -39,41 8,45z"/>
    <path class="fil1 str0" d="M5067 2734c9,-17 23,-33 41,-47 -9,11 -15,22 -17,33 13,-18 28,-34 49,-46 -2,6 -1,11 8,11 -2,7 1,10 8,9 -2,8 1,11 8,10 -2,7 0,10 7,9 -2,7 0,10 7,8 1,8 11,13 16,20l96 17 157 3c-13,13 -17,24 -13,32 -6,8 1,12 19,14 -1,9 4,13 17,12 0,10 5,15 16,12 -2,7 4,11 18,13 -4,7 2,12 17,13 0,8 6,13 18,13 -1,10 5,14 18,13 -2,9 3,13 15,11 -2,8 4,12 17,12 -2,10 4,14 18,13 -2,9 0,13 16,15 -3,6 -1,13 20,12 -1,9 7,15 23,16 -12,4 -13,8 -22,5l-52 -8 -216 -171 -309 -54z"/>
    <path class="fil1 str0" d="M4594 2985c72,-130 148,-188 250,-224 188,-37 274,-34 446,-7 70,-16 125,-53 217,-43 -44,26 -68,78 -131,77 211,91 210,199 346,190 102,-47 113,-126 233,-151 -49,68 -75,162 -146,205 45,39 58,142 90,209 -121,-57 -126,-151 -190,-213 -96,-28 -143,46 -248,87 -21,21 51,53 64,84 -48,4 -130,-22 -174,-65 -16,-20 -150,-3 -245,-13 -10,2 -45,8 -51,16 -10,16 34,17 66,65 -87,-10 -149,-50 -194,-93 -314,-45 -327,-92 -333,-124z"/>
    <path class="fil1 str0" d="M4594 2985c72,-130 148,-188 250,-224 188,-37 385,-26 489,23 20,5 108,61 202,131 63,47 170,88 187,63 -71,82 -339,-231 -639,-216 -207,11 -227,60 -96,56 9,-1 9,18 17,26 19,19 44,40 42,78 -1,17 -21,31 -25,49 -2,11 -19,9 -8,32 10,23 -36,41 -47,60 -5,10 -7,30 -13,25 0,-1 16,-34 16,-47 1,-22 2,-31 -7,-65 -11,-39 -4,-23 -31,-100 -8,-21 48,132 23,170 -3,5 -11,27 -1,26 10,-2 -1,13 0,16 5,8 13,7 -9,10 -5,1 -7,1 -6,7 1,3 -6,3 -11,4 -314,-45 -327,-92 -333,-124z"/>
    <path class="fil1 str0" d="M4594 2985c40,7 90,51 134,71 17,-3 17,-28 4,-53 -42,-12 -84,-13 -127,-37l-11 19z"/>
    <ellipse class="fil1 str0" transform="matrix(0.422092 0.0358257 -0.0294537 0.347019 4824.64 2896.72)" rx="114" ry="103"/>
    <ellipse class="fil1 str0" transform="matrix(0.345341 0.0293113 -0.024098 0.283919 4823.99 2897.12)" rx="114" ry="103"/>
    <path class="fil1 str0" d="M4799 2908c-5,-14 2,-32 29,-30 21,-4 24,8 24,24 -3,16 -45,19 -53,6z"/>
    <ellipse class="fil1 str0" transform="matrix(0.0600947 0.00510063 -0.00419343 0.0494063 4816.73 2885.56)" rx="114" ry="103"/>
    <path class="fil1 str0" d="M5646 2982c9,4 13,18 25,19 -12,-1 -16,8 -26,15 12,-10 13,-23 1,-34z"/>
    <path class="fil1 str0" d="M5669 2985c7,3 11,15 21,17 -10,-2 -13,7 -22,12 10,-8 11,-20 1,-29z"/>
    <path class="fil1 str0" d="M5688 2987c7,3 10,15 21,16 -11,-1 -14,7 -22,12 10,-8 10,-19 1,-28z"/>
    <path class="fil1 str0" d="M5705 2989c6,3 9,13 19,14 -10,-1 -12,6 -20,11 9,-7 9,-17 1,-25z"/>
    <path class="fil1 str0" d="M5626 2982c8,4 12,17 24,19 -12,-2 -15,8 -25,14 11,-10 12,-22 1,-33z"/>
    <path class="fil1 str0" d="M5605 2981c8,4 12,18 24,19 -12,-1 -15,8 -25,15 11,-10 12,-23 1,-34z"/>
    <path class="fil1 str0" d="M5581 2981c9,3 13,17 25,18 -12,-1 -16,8 -26,15 12,-10 13,-23 1,-33z"/>
    <path class="fil1 str0" d="M5558 2979c9,4 13,18 25,19 -12,-1 -16,8 -26,14 12,-9 13,-22 1,-33z"/>
    <path class="fil1 str0" d="M5525 2975c11,5 16,22 32,24 -16,-2 -20,10 -33,18 15,-12 16,-28 1,-42z"/>
    <path class="fil1 str0" d="M5040 2970c62,-59 244,-64 416,-36 -335,-26 -249,109 -390,80 75,-52 -43,-29 -26,-44z"/>
    <path class="fil1 str0" d="M5039 2971c60,-62 242,-74 415,-52 -336,-13 -245,119 -387,95 73,-55 -44,-27 -28,-43z"/>
   </g>
   <g>
    <path class="fil1 str0" d="M4353 3654c-1,-10 55,6 69,9 5,-5 -47,-21 -10,-45 -3,-9 4,-13 21,-13 1,-9 8,-14 21,-12 0,-12 6,-16 21,-13 -2,-11 4,-14 18,-11 -2,-9 5,-13 20,-12 -2,-10 5,-15 20,-12 0,-10 1,-15 19,-15 -2,-7 0,-15 24,-11 0,-11 9,-17 27,-17 -13,-5 -13,-10 -24,-6l-59 3 -180 107c-34,20 -40,48 13,48z"/>
    <path class="fil1 str0" d="M3918 3232c9,-19 23,-38 41,-55 -9,12 -15,25 -15,38 12,-21 28,-40 49,-56 -1,7 1,12 11,11 -2,9 2,12 9,10 -1,9 2,12 10,10 -2,8 1,11 9,9 -2,8 1,11 8,9 2,9 13,13 19,20l109 10 173 -11c-13,15 -17,28 -11,36 -6,9 2,14 22,14 -1,10 6,14 20,12 1,11 7,15 19,12 -1,7 6,11 20,12 -3,9 4,13 21,12 1,10 8,14 21,13 0,12 7,16 21,13 -1,11 5,14 18,11 -2,9 5,13 20,12 -1,10 6,14 21,12 -1,10 1,14 18,15 -2,7 1,15 25,11 -1,11 8,17 27,17 -13,5 -14,9 -25,6l-58 -3 -255 -168 -347 -32z"/>
    <path class="fil1 str0" d="M3419 3555c67,-151 147,-223 255,-272 205,-58 300,-63 493,-50 76,-23 133,-70 235,-67 -45,32 -67,92 -137,98 242,80 251,199 400,176 108,-60 113,-150 244,-189 -48,81 -68,188 -143,241 54,39 78,151 120,223 -139,-52 -153,-155 -230,-218 -109,-22 -154,64 -266,120 -22,25 61,53 78,87 -53,8 -146,-13 -199,-56 -18,-21 -165,11 -272,9 -10,3 -49,12 -54,22 -9,18 39,16 79,66 -97,-3 -169,-42 -223,-84 -351,-21 -370,-72 -380,-106z"/>
    <path class="fil1 str0" d="M3419 3555c67,-151 147,-223 255,-272 205,-58 424,-64 543,-20 23,3 125,58 236,126 74,45 197,81 212,51 -71,99 -395,-223 -726,-178 -228,32 -245,87 -102,70 11,-1 12,20 23,28 22,19 51,40 53,82 1,19 -21,37 -23,57 -2,12 -20,12 -6,36 14,25 -36,49 -46,71 -5,11 -5,34 -12,28 -1,-1 14,-39 13,-53 -1,-24 0,-34 -14,-71 -15,-43 -7,-25 -44,-108 -10,-23 66,142 42,185 -3,7 -10,32 1,29 11,-2 0,16 2,18 6,9 14,7 -9,13 -6,1 -7,2 -6,8 1,3 -7,4 -12,6 -351,-21 -370,-72 -380,-106z"/>
    <path class="fil1 str0" d="M3419 3555c45,3 104,48 155,65 19,-4 16,-33 0,-59 -49,-9 -95,-7 -145,-29l-10 23z"/>
    <ellipse class="fil1 str0" cx="3666" cy="3435" rx="54" ry="40"/>
    <ellipse class="fil1 str0" cx="3665" cy="3436" rx="44" ry="33"/>
    <path class="fil1 str0" d="M3639 3450c-8,-15 -2,-36 29,-36 23,-7 27,7 29,24 -2,18 -49,25 -58,12z"/>
    <ellipse class="fil1 str0" cx="3656" cy="3423" rx="8" ry="6"/>
    <path class="fil1 str0" d="M4582 3453c10,3 16,18 30,18 -14,0 -17,11 -28,18 12,-11 12,-26 -2,-36z"/>
    <path class="fil1 str0" d="M4607 3453c9,3 14,16 26,17 -12,-1 -15,9 -24,16 10,-11 10,-23 -2,-33z"/>
    <path class="fil1 str0" d="M4628 3454c9,3 13,15 25,15 -12,0 -14,9 -23,16 10,-10 10,-22 -2,-31z"/>
    <path class="fil1 str0" d="M4647 3454c8,3 12,14 23,14 -11,0 -13,8 -21,15 9,-10 9,-21 -2,-29z"/>
    <path class="fil1 str0" d="M4559 3454c10,3 16,18 29,18 -13,0 -16,11 -27,19 12,-12 12,-26 -2,-37z"/>
    <path class="fil1 str0" d="M4536 3455c10,4 16,18 29,19 -13,-1 -16,10 -27,18 12,-12 12,-26 -2,-37z"/>
    <path class="fil1 str0" d="M4510 3457c10,3 16,18 29,18 -13,0 -16,11 -27,19 12,-12 12,-27 -2,-37z"/>
    <path class="fil1 str0" d="M4485 3457c10,4 15,18 29,19 -14,-1 -17,10 -27,18 12,-12 11,-26 -2,-37z"/>
    <path class="fil1 str0" d="M4448 3456c12,4 19,23 37,23 -18,0 -21,14 -35,24 15,-15 15,-33 -2,-47z"/>
    <path class="fil1 str0" d="M3911 3496c62,-71 263,-94 456,-79 -373,3 -265,144 -424,125 78,-64 -49,-27 -32,-46z"/>
    <path class="fil1 str0" d="M3910 3497c60,-74 260,-104 453,-96 -372,16 -260,154 -419,141 76,-68 -50,-26 -34,-45z"/>
   </g>
   <g>
    <path class="fil1 str0" d="M2675 3178c5,-9 46,32 58,40 7,-1 -32,-40 12,-44 1,-9 9,-10 24,-1 5,-9 13,-9 25,-2 5,-10 13,-11 24,-1 4,-10 11,-11 21,-1 3,-10 11,-10 23,-2 4,-10 12,-10 24,-1 4,-9 8,-12 24,-5 1,-7 7,-13 26,2 5,-10 16,-11 32,-2 -9,-11 -8,-15 -18,-17l-54 -25 -209 10c-40,2 -58,25 -12,49z"/>
    <path class="fil1 str0" d="M2488 2602c17,-13 38,-23 62,-29 -14,6 -25,15 -31,26 21,-13 43,-22 69,-26 -4,5 -4,11 5,15 -5,6 -4,11 3,13 -5,6 -4,11 4,13 -5,6 -4,10 4,12 -5,7 -4,10 3,12 -3,8 5,17 8,26l91 60 159 71c-19,8 -28,17 -27,27 -9,5 -5,13 13,22 -5,9 -1,16 12,21 -4,10 -1,16 12,19 -5,6 -1,13 12,20 -7,6 -3,13 12,21 -4,9 1,16 13,21 -6,10 -2,17 12,21 -6,9 -2,15 11,18 -6,7 -2,14 12,20 -6,8 -2,15 13,20 -5,9 -6,14 9,22 -5,5 -7,14 17,21 -6,10 0,19 16,27 -14,-1 -17,3 -25,-5l-50 -30 -147 -268 -292 -190z"/>
    <path class="fil1 str0" d="M1896 2654c130,-101 234,-128 353,-121 208,44 294,85 459,187 77,14 150,-1 239,50 -55,7 -103,50 -167,22 176,184 129,293 271,343 125,-3 171,-80 304,-53 -80,49 -147,134 -238,146 29,60 -2,170 2,253 -99,-111 -64,-209 -102,-300 -86,-71 -166,-15 -291,-18 -31,12 29,76 28,113 -50,-17 -123,-79 -149,-142 -7,-27 -152,-67 -245,-119 -11,-2 -49,-12 -58,-6 -17,12 27,32 38,95 -84,-48 -130,-115 -157,-178 -302,-183 -295,-236 -287,-272z"/>
    <path class="fil1 str0" d="M1896 2654c130,-101 234,-128 353,-121 208,44 405,141 489,236 19,13 84,110 150,221 44,75 136,164 163,145 -108,54 -245,-382 -559,-496 -215,-79 -257,-38 -122,14 10,4 1,23 6,35 12,27 28,60 9,98 -8,17 -35,22 -46,39 -7,10 -24,1 -23,29 1,28 -54,26 -73,42 -10,7 -21,27 -24,19 0,-1 31,-28 37,-41 10,-22 15,-31 20,-69 6,-45 6,-26 11,-116 2,-25 -7,156 -49,183 -6,4 -24,23 -13,26 11,3 -6,14 -6,17 1,10 10,12 -14,7 -6,-2 -7,-2 -9,4 -1,4 -8,1 -13,0 -302,-183 -295,-236 -287,-272z"/>
    <path class="fil1 str0" d="M1896 2654c39,25 70,92 106,130 19,6 30,-21 28,-51 -38,-31 -81,-51 -115,-93l-19 14z"/>
    <ellipse class="fil1 str0" transform="matrix(0.41566 0.219387 -0.180367 0.341731 2170.25 2663.96)" rx="114" ry="103"/>
    <ellipse class="fil1 str0" transform="matrix(0.340079 0.179494 -0.14757 0.279592 2169.42 2664.08)" rx="114" ry="103"/>
    <path class="fil1 str0" d="M2139 2664c1,-16 16,-32 43,-18 23,5 21,19 14,35 -10,15 -55,0 -57,-17z"/>
    <ellipse class="fil1 str0" transform="matrix(0.0591789 0.0312348 -0.0256794 0.0486534 2167.01 2649.12)" rx="114" ry="103"/>
    <path class="fil1 str0" d="M2973 3107c7,8 5,23 17,30 -12,-7 -20,2 -33,4 16,-5 23,-18 16,-34z"/>
    <path class="fil1 str0" d="M2994 3120c7,6 5,20 15,26 -10,-6 -17,1 -28,3 14,-4 19,-15 13,-29z"/>
    <path class="fil1 str0" d="M3013 3130c6,6 4,19 14,25 -10,-6 -16,2 -27,3 13,-4 19,-15 13,-28z"/>
    <path class="fil1 str0" d="M3029 3139c6,6 4,18 14,23 -10,-5 -15,1 -26,3 13,-4 18,-14 12,-26z"/>
    <path class="fil1 str0" d="M2952 3098c7,7 5,23 17,30 -12,-7 -20,1 -33,3 16,-5 23,-17 16,-33z"/>
    <path class="fil1 str0" d="M2930 3088c8,8 6,23 18,30 -12,-7 -20,2 -33,4 16,-5 22,-18 15,-34z"/>
    <path class="fil1 str0" d="M2907 3077c7,8 5,23 17,30 -12,-7 -20,2 -33,4 16,-5 23,-18 16,-34z"/>
    <path class="fil1 str0" d="M2884 3066c7,8 5,23 17,30 -12,-7 -19,1 -32,3 16,-4 22,-17 15,-33z"/>
    <path class="fil1 str0" d="M2852 3048c9,9 7,29 22,37 -15,-8 -25,2 -41,5 20,-6 28,-22 19,-42z"/>
    <path class="fil1 str0" d="M2358 2832c89,-34 277,40 441,144 -331,-172 -302,3 -433,-88 99,-20 -31,-47 -8,-56z"/>
    <path class="fil1 str0" d="M2357 2832c88,-37 279,30 446,127 -337,-159 -302,15 -436,-71 98,-24 -33,-46 -10,-56z"/>
   </g>
   <g>
    <path class="fil1 str0" d="M2801 3743c4,-8 41,29 52,36 6,-1 -29,-36 10,-39 2,-9 9,-9 22,-2 5,-7 12,-7 22,-1 5,-9 12,-10 22,-1 4,-9 10,-10 19,-1 3,-8 10,-9 21,-1 3,-9 10,-10 22,-2 3,-8 6,-11 20,-4 2,-6 7,-12 24,2 5,-9 14,-10 29,-2 -8,-10 -7,-14 -17,-16l-48 -21 -188 9c-35,1 -51,21 -10,43z"/>
    <path class="fil1 str0" d="M2633 3226c15,-11 34,-20 56,-26 -13,6 -23,14 -28,24 18,-12 39,-20 62,-24 -4,5 -4,10 4,13 -5,6 -4,10 3,12 -4,6 -3,10 4,12 -5,5 -4,9 3,11 -5,6 -4,9 3,10 -2,8 5,16 7,24l82 53 142 64c-17,7 -25,16 -24,25 -8,5 -4,11 12,20 -5,8 -1,14 11,18 -4,9 -1,15 10,17 -4,6 -1,12 11,18 -6,6 -3,12 11,19 -3,8 0,14 12,19 -6,9 -2,15 11,18 -6,9 -3,14 9,17 -5,7 -1,13 11,18 -5,8 -2,14 11,18 -4,8 -5,12 9,20 -5,4 -6,12 15,19 -5,8 0,17 14,24 -12,-1 -15,2 -22,-5l-45 -27 -132 -240 -262 -171z"/>
    <path class="fil1 str0" d="M2102 3273c116,-91 209,-115 316,-109 187,40 264,76 412,168 70,13 135,0 215,45 -50,6 -92,45 -150,20 158,165 116,263 244,308 111,-3 153,-72 272,-48 -71,44 -132,120 -213,131 26,54 -2,153 1,227 -89,-99 -57,-187 -91,-269 -78,-64 -149,-13 -261,-16 -28,11 25,68 25,101 -45,-15 -110,-71 -134,-127 -7,-25 -136,-61 -220,-107 -10,-2 -44,-11 -52,-5 -16,10 24,28 35,85 -76,-43 -117,-104 -142,-160 -270,-164 -264,-212 -257,-244z"/>
    <path class="fil1 str0" d="M2102 3273c116,-91 209,-115 316,-109 187,40 364,127 439,212 17,12 76,98 135,199 39,67 122,147 147,130 -98,48 -221,-343 -502,-446 -194,-70 -231,-33 -110,13 9,4 1,21 6,32 10,24 24,53 8,87 -7,16 -32,20 -42,35 -6,9 -21,1 -20,27 1,25 -49,23 -66,37 -8,7 -18,24 -21,17 -1,-1 27,-25 32,-37 10,-19 14,-27 19,-62 6,-40 5,-22 10,-104 1,-22 -7,140 -44,165 -6,3 -22,20 -12,23 10,2 -6,12 -5,15 1,9 8,11 -13,6 -5,-1 -7,-1 -8,4 -1,3 -7,0 -12,0 -270,-164 -264,-212 -257,-244z"/>
    <path class="fil1 str0" d="M2102 3273c34,22 63,82 95,117 17,5 27,-19 25,-46 -34,-28 -73,-46 -103,-84l-17 13z"/>
    <ellipse class="fil1 str0" transform="matrix(0.373037 0.19689 -0.161871 0.306689 2347.83 3281.87)" rx="114" ry="103"/>
    <ellipse class="fil1 str0" transform="matrix(0.305206 0.161088 -0.132437 0.250922 2347.08 3281.98)" rx="114" ry="103"/>
    <path class="fil1 str0" d="M2320 3282c0,-15 14,-29 38,-16 21,4 19,16 13,32 -9,13 -49,-1 -51,-16z"/>
    <ellipse class="fil1 str0" transform="matrix(0.0531105 0.0280319 -0.0230461 0.0436643 2344.92 3268.56)" rx="114" ry="103"/>
    <path class="fil1 str0" d="M3068 3680c6,7 5,21 15,27 -10,-6 -17,1 -29,3 14,-5 20,-16 14,-30z"/>
    <path class="fil1 str0" d="M3087 3691c6,6 4,18 14,23 -10,-5 -16,2 -26,3 13,-4 18,-14 12,-26z"/>
    <path class="fil1 str0" d="M3104 3700c5,6 4,18 13,23 -9,-5 -15,1 -25,3 12,-4 17,-14 12,-26z"/>
    <path class="fil1 str0" d="M3119 3708c5,5 4,16 12,21 -8,-5 -14,1 -23,2 11,-3 16,-12 11,-23z"/>
    <path class="fil1 str0" d="M3049 3671c6,7 5,21 15,27 -10,-6 -17,1 -29,3 15,-4 20,-16 14,-30z"/>
    <path class="fil1 str0" d="M3030 3663c7,7 5,20 15,26 -10,-6 -17,2 -29,4 15,-5 20,-16 14,-30z"/>
    <path class="fil1 str0" d="M3009 3653c6,7 5,20 15,27 -10,-7 -17,1 -29,3 14,-5 20,-16 14,-30z"/>
    <path class="fil1 str0" d="M2988 3643c7,7 5,20 16,26 -11,-6 -18,2 -29,4 14,-5 20,-16 13,-30z"/>
    <path class="fil1 str0" d="M2960 3626c8,9 6,26 19,34 -13,-8 -22,2 -37,4 18,-5 26,-20 18,-38z"/>
    <path class="fil1 str0" d="M2517 3433c79,-30 248,36 395,129 -297,-155 -271,3 -389,-79 89,-18 -28,-43 -6,-50z"/>
    <path class="fil1 str0" d="M2516 3433c78,-33 250,27 400,114 -303,-143 -271,13 -392,-64 88,-22 -29,-42 -8,-50z"/>
   </g>
   <g>
    <path class="fil1 str0" d="M3216 3416c2,-4 21,15 27,19 3,-1 -15,-19 5,-20 1,-5 4,-5 11,-1 3,-4 6,-4 12,-1 2,-5 6,-5 11,0 2,-5 5,-5 9,-1 2,-4 5,-4 11,-1 2,-4 6,-4 11,0 2,-4 4,-6 11,-2 1,-4 3,-6 12,0 3,-4 7,-4 15,0 -4,-5 -4,-7 -9,-8l-24 -12 -97 5c-18,1 -26,11 -5,22z"/>
    <path class="fil1 str0" d="M3130 3151c8,-6 17,-10 29,-13 -7,3 -12,7 -15,12 10,-6 20,-10 32,-12 -2,3 -2,5 2,7 -2,3 -2,5 2,6 -3,3 -2,5 2,6 -3,3 -2,5 1,6 -2,2 -2,4 2,5 -1,4 2,8 3,12l42 27 73 33c-8,4 -13,8 -12,13 -4,2 -2,5 6,10 -3,4 -1,7 6,9 -2,5 -1,8 5,9 -2,3 -1,6 5,9 -3,3 -1,6 6,10 -2,4 0,7 6,10 -3,4 -1,7 6,9 -3,4 -1,7 5,8 -3,4 -1,7 5,10 -3,4 -1,7 6,9 -2,4 -3,6 4,10 -2,3 -3,6 8,10 -3,4 0,8 7,12 -6,0 -7,1 -11,-2l-23 -14 -68 -123 -134 -88z"/>
    <path class="fil1 str0" d="M2858 3175c60,-46 107,-59 162,-55 96,20 135,39 211,85 36,7 69,0 110,23 -25,4 -47,24 -77,11 81,85 60,135 125,158 57,-2 78,-37 140,-25 -37,23 -68,62 -110,67 14,28 -1,79 1,117 -46,-51 -29,-96 -47,-138 -39,-33 -76,-7 -133,-9 -15,6 13,35 12,52 -23,-7 -56,-36 -68,-65 -4,-12 -70,-31 -113,-55 -5,-1 -22,-5 -27,-2 -8,5 13,14 18,43 -39,-22 -60,-53 -72,-82 -139,-84 -136,-108 -132,-125z"/>
    <path class="fil1 str0" d="M2858 3175c60,-46 107,-59 162,-55 96,20 186,65 225,108 9,6 39,51 69,102 20,34 62,75 75,67 -50,24 -113,-176 -257,-229 -99,-36 -118,-17 -56,7 4,2 0,11 3,16 5,12 12,27 4,45 -4,8 -16,10 -22,18 -3,5 -10,1 -10,13 0,13 -25,12 -34,19 -4,4 -9,13 -11,9 0,0 14,-13 17,-19 5,-10 7,-14 10,-31 2,-21 2,-12 5,-54 0,-11 -4,72 -23,85 -3,2 -11,10 -6,12 5,1 -3,6 -3,7 1,5 5,6 -6,3 -3,0 -4,0 -4,2 -1,2 -4,1 -6,0 -139,-84 -136,-108 -132,-125z"/>
    <path class="fil1 str0" d="M2858 3175c18,12 32,42 49,60 8,3 13,-9 12,-23 -17,-15 -37,-24 -52,-43l-9 6z"/>
    <ellipse class="fil1 str0" transform="matrix(0.191175 0.100903 -0.0829564 0.157173 2983.87 3179.9)" rx="114" ry="103"/>
    <ellipse class="fil1 str0" transform="matrix(0.156413 0.0825553 -0.067872 0.128594 2983.49 3179.95)" rx="114" ry="103"/>
    <path class="fil1 str0" d="M2970 3180c0,-8 7,-15 19,-8 11,2 10,8 7,16 -5,7 -25,0 -26,-8z"/>
    <ellipse class="fil1 str0" transform="matrix(0.0272183 0.0143659 -0.0118108 0.0223773 2982.38 3173.07)" rx="114" ry="103"/>
    <path class="fil1 str0" d="M3353 3384c3,3 2,10 8,14 -6,-4 -9,0 -15,1 7,-2 10,-8 7,-15z"/>
    <path class="fil1 str0" d="M3363 3389c3,4 2,10 7,13 -5,-3 -8,0 -13,1 6,-2 9,-7 6,-14z"/>
    <path class="fil1 str0" d="M3371 3394c3,3 2,9 7,12 -5,-3 -8,0 -13,1 7,-2 9,-7 6,-13z"/>
    <path class="fil1 str0" d="M3379 3398c3,3 2,9 6,11 -4,-2 -7,1 -11,1 5,-1 8,-6 5,-12z"/>
    <path class="fil1 str0" d="M3343 3379c4,4 3,11 8,14 -5,-3 -9,1 -15,2 7,-2 10,-8 7,-16z"/>
    <path class="fil1 str0" d="M3334 3375c3,4 2,11 7,14 -5,-3 -9,0 -15,1 8,-2 11,-8 8,-15z"/>
    <path class="fil1 str0" d="M3323 3370c3,4 2,11 8,14 -6,-3 -9,0 -15,1 7,-2 10,-8 7,-15z"/>
    <path class="fil1 str0" d="M3312 3365c3,3 3,10 8,14 -5,-4 -9,0 -15,1 7,-2 10,-8 7,-15z"/>
    <path class="fil1 str0" d="M3297 3356c5,5 4,14 10,18 -6,-4 -11,1 -19,2 10,-3 14,-10 9,-20z"/>
    <path class="fil1 str0" d="M3070 3257c41,-15 128,19 203,66 -152,-79 -139,2 -199,-40 45,-9 -14,-22 -4,-26z"/>
    <path class="fil1 str0" d="M3070 3257c40,-17 128,14 205,59 -155,-74 -139,7 -201,-33 45,-11 -15,-21 -4,-26z"/>
   </g>
   <g>
    <path class="fil1 str0" d="M5996 4090c1,-10 54,14 68,18 5,-4 -44,-27 -4,-45 -2,-9 5,-13 22,-10 2,-10 10,-13 23,-10 1,-11 8,-15 22,-9 0,-12 6,-14 19,-9 0,-9 7,-13 22,-9 0,-11 7,-14 22,-10 0,-9 3,-14 20,-12 -1,-7 3,-15 26,-8 1,-11 11,-15 29,-12 -12,-7 -12,-12 -23,-10l-59 -5 -193 82c-37,15 -46,42 6,49z"/>
    <path class="fil1 str0" d="M5622 3613c12,-18 28,-34 49,-49 -11,12 -19,23 -20,36 14,-19 32,-36 56,-48 -2,6 -1,11 9,12 -3,8 0,12 8,11 -3,8 0,12 8,11 -3,8 -1,11 8,11 -3,7 -1,10 7,9 0,9 10,15 16,22l106 25 173 12c-15,14 -20,26 -16,35 -7,8 0,14 20,16 -2,11 5,16 19,15 -1,11 5,16 17,14 -2,8 4,13 18,15 -4,8 2,13 19,15 0,10 6,15 20,16 -2,11 4,16 18,15 -3,11 3,15 17,13 -3,10 3,14 18,15 -3,10 3,15 19,15 -2,10 -1,15 16,17 -3,7 -2,16 23,15 -2,11 6,17 24,20 -13,3 -15,7 -25,3l-57 -11 -230 -201 -340 -79z"/>
    <path class="fil1 str0" d="M5084 3866c88,-140 176,-201 290,-235 211,-30 305,-22 495,17 78,-13 141,-51 242,-35 -50,26 -79,83 -149,79 229,112 221,231 372,229 116,-46 133,-134 267,-155 -58,74 -92,177 -173,220 48,45 56,160 88,237 -131,-70 -131,-175 -198,-247 -106,-37 -161,43 -280,83 -25,22 53,61 66,96 -54,1 -143,-32 -190,-82 -15,-23 -165,-11 -270,-28 -11,2 -51,6 -57,15 -12,17 36,20 69,75 -96,-16 -162,-63 -209,-113 -346,-68 -358,-121 -363,-156z"/>
    <path class="fil1 str0" d="M5084 3866c88,-140 176,-201 290,-235 211,-30 429,-7 541,53 21,6 116,74 216,157 67,55 184,107 203,80 -83,88 -361,-275 -695,-275 -230,0 -255,54 -110,56 10,0 9,21 18,31 20,21 46,46 42,88 -2,19 -25,33 -31,53 -3,12 -21,9 -11,35 11,26 -42,43 -54,64 -6,11 -10,33 -16,26 -1,-1 19,-37 20,-51 2,-24 4,-33 -4,-72 -10,-44 -3,-25 -29,-112 -8,-24 46,149 17,189 -5,6 -15,30 -4,28 11,-1 -1,16 0,18 5,10 13,9 -11,12 -6,0 -7,1 -7,7 1,3 -7,3 -12,4 -346,-68 -358,-121 -363,-156z"/>
    <path class="fil1 str0" d="M5084 3866c45,9 97,61 145,85 19,-1 20,-30 8,-58 -47,-16 -93,-20 -140,-48l-13 21z"/>
    <ellipse class="fil1 str0" transform="matrix(0.465696 0.0634928 -0.0522 0.382867 5345.05 3780.49)" rx="114" ry="103"/>
    <ellipse class="fil1 str0" transform="matrix(0.381016 0.0519476 -0.0427082 0.313249 5344.31 3780.9)" rx="114" ry="103"/>
    <path class="fil1 str0" d="M5316 3791c-5,-15 4,-35 34,-32 24,-3 26,11 25,29 -4,17 -51,18 -59,3z"/>
    <ellipse class="fil1 str0" transform="matrix(0.0663027 0.00903968 -0.00743189 0.0545101 5336.92 3767.67)" rx="114" ry="103"/>
    <path class="fil1 str0" d="M6251 3922c9,5 13,20 26,22 -13,-2 -18,8 -29,14 13,-10 15,-24 3,-36z"/>
    <path class="fil1 str0" d="M6275 3926c9,4 12,17 24,19 -12,-2 -16,8 -26,13 11,-9 13,-21 2,-32z"/>
    <path class="fil1 str0" d="M6296 3929c8,4 11,17 23,19 -12,-2 -16,7 -25,12 11,-8 12,-20 2,-31z"/>
    <path class="fil1 str0" d="M6315 3932c7,4 10,15 20,17 -10,-2 -13,6 -22,11 10,-7 11,-18 2,-28z"/>
    <path class="fil1 str0" d="M6228 3920c9,5 13,20 26,22 -13,-2 -18,8 -29,15 13,-10 15,-25 3,-37z"/>
    <path class="fil1 str0" d="M6205 3918c9,5 13,20 26,22 -13,-2 -18,8 -29,15 13,-10 15,-24 3,-37z"/>
    <path class="fil1 str0" d="M6179 3916c9,5 13,20 26,22 -13,-2 -18,8 -29,15 13,-10 15,-24 3,-37z"/>
    <path class="fil1 str0" d="M6153 3913c10,5 13,20 27,22 -14,-2 -18,9 -30,15 14,-10 15,-24 3,-37z"/>
    <path class="fil1 str0" d="M6117 3907c12,6 16,25 33,28 -17,-3 -22,10 -37,19 17,-13 19,-31 4,-47z"/>
    <path class="fil1 str0" d="M5579 3874c72,-62 274,-57 463,-16 -370,-48 -282,107 -436,66 85,-53 -46,-34 -27,-50z"/>
    <path class="fil1 str0" d="M5579 3874c69,-64 271,-67 462,-33 -372,-34 -278,117 -434,83 83,-57 -47,-33 -28,-50z"/>
   </g>
   <g>
    <path class="fil1 str0" d="M6222 4369c0,-10 50,8 62,11 6,-5 -41,-22 -5,-42 -2,-8 4,-12 20,-11 1,-9 8,-13 20,-11 0,-11 7,-15 20,-11 -1,-10 5,-13 17,-10 -1,-8 6,-12 19,-10 0,-10 6,-14 20,-11 0,-9 2,-13 18,-13 -2,-7 1,-14 23,-10 1,-10 9,-14 26,-14 -12,-5 -12,-9 -22,-7l-54 1 -172 93c-33,17 -39,43 8,45z"/>
    <path class="fil1 str0" d="M5859 3963c9,-17 23,-34 42,-50 -10,12 -16,23 -17,35 12,-19 28,-36 49,-50 -2,7 0,11 9,11 -2,8 0,11 7,9 -2,8 1,11 9,10 -3,7 0,10 7,9 -2,7 0,10 7,8 0,8 10,13 16,19l98 13 158 -4c-13,14 -17,25 -13,33 -6,8 1,13 19,13 -1,10 5,14 18,13 0,10 5,14 16,11 -2,7 4,11 18,12 -4,8 2,12 18,12 -1,9 6,14 18,13 -1,11 5,15 18,12 -2,10 3,14 15,11 -2,9 4,13 18,12 -2,10 3,14 17,12 -1,9 0,13 16,15 -2,6 -1,14 21,11 -1,10 7,15 24,16 -12,4 -13,8 -23,5l-53 -5 -219 -165 -313 -41z"/>
    <path class="fil1 str0" d="M5380 4245c73,-137 150,-201 253,-243 191,-47 278,-48 452,-29 71,-19 127,-61 220,-55 -45,29 -69,84 -133,86 214,83 213,194 351,178 103,-53 114,-135 236,-167 -50,73 -76,171 -148,218 46,38 59,143 92,211 -123,-53 -128,-149 -193,-210 -98,-24 -145,54 -251,102 -22,23 51,52 64,83 -48,6 -132,-17 -176,-58 -16,-20 -152,4 -248,-1 -10,2 -46,9 -52,18 -10,17 35,16 67,64 -88,-6 -151,-44 -196,-86 -319,-31 -332,-79 -338,-111z"/>
    <path class="fil1 str0" d="M5380 4245c73,-137 150,-201 253,-243 191,-47 391,-45 496,0 20,4 109,58 204,125 64,45 173,82 190,55 -72,88 -343,-221 -648,-190 -209,21 -229,72 -97,61 9,0 9,19 18,27 19,18 44,38 42,78 -1,17 -22,33 -25,51 -3,12 -19,11 -9,34 11,23 -36,44 -46,64 -6,10 -8,31 -14,25 -1,0 16,-35 16,-49 1,-22 3,-31 -7,-65 -11,-41 -4,-24 -32,-102 -8,-21 49,134 24,173 -3,6 -12,29 -1,27 10,-2 -1,14 0,16 5,9 13,7 -9,12 -5,1 -7,1 -6,7 0,3 -7,4 -11,5 -319,-31 -332,-79 -338,-111z"/>
    <path class="fil1 str0" d="M5380 4245c41,5 91,48 136,66 18,-4 17,-30 4,-55 -43,-10 -86,-9 -129,-31l-11 20z"/>
    <ellipse class="fil1 str0" transform="matrix(0.427741 0.016209 -0.0295658 0.358014 5613.7 4142.53)" rx="114" ry="103"/>
    <ellipse class="fil1 str0" transform="matrix(0.349963 0.0132616 -0.0241897 0.292915 5613.04 4142.97)" rx="114" ry="103"/>
    <path class="fil1 str0" d="M5588 4155c-6,-14 1,-33 29,-32 22,-5 24,7 25,24 -4,16 -46,21 -54,8z"/>
    <ellipse class="fil1 str0" transform="matrix(0.060899 0.00230773 -0.00420938 0.0509717 5605.67 4131.44)" rx="114" ry="103"/>
    <path class="fil1 str0" d="M6447 4191c8,3 12,17 25,18 -13,-1 -16,9 -26,16 11,-11 12,-24 1,-34z"/>
    <path class="fil1 str0" d="M6469 4192c8,3 11,15 22,16 -11,-1 -14,8 -23,14 10,-9 11,-21 1,-30z"/>
    <path class="fil1 str0" d="M6488 4193c8,3 11,15 22,15 -11,0 -14,8 -23,14 10,-9 11,-20 1,-29z"/>
    <path class="fil1 str0" d="M6505 4194c7,3 10,13 20,14 -10,-1 -12,7 -20,13 9,-9 9,-19 0,-27z"/>
    <path class="fil1 str0" d="M6425 4191c9,3 13,17 25,18 -12,-1 -15,9 -26,16 12,-10 13,-24 1,-34z"/>
    <path class="fil1 str0" d="M6404 4191c9,4 13,18 25,18 -12,0 -16,10 -26,17 12,-11 13,-24 1,-35z"/>
    <path class="fil1 str0" d="M6380 4192c9,3 13,17 25,18 -12,-1 -15,9 -26,16 12,-11 13,-24 1,-34z"/>
    <path class="fil1 str0" d="M6357 4192c9,3 13,17 25,18 -12,-1 -16,9 -26,16 12,-11 13,-24 1,-34z"/>
    <path class="fil1 str0" d="M6324 4189c11,4 16,22 32,23 -16,-1 -21,11 -33,20 14,-13 15,-30 1,-43z"/>
    <path class="fil1 str0" d="M5832 4207c62,-63 247,-77 421,-57 -339,-10 -252,125 -395,101 76,-57 -43,-27 -26,-44z"/>
    <path class="fil1 str0" d="M5831 4208c60,-66 245,-87 420,-73 -340,2 -248,134 -392,116 74,-60 -44,-26 -28,-43z"/>
   </g>
   <g>
    <path class="fil1 str0" d="M3105 4061c1,-12 58,13 73,17 6,-4 -48,-28 -5,-48 -2,-10 6,-14 24,-11 2,-11 10,-14 24,-11 1,-13 9,-16 24,-11 0,-12 6,-15 20,-9 0,-11 7,-14 23,-11 0,-11 8,-15 24,-11 0,-10 3,-15 21,-13 -1,-8 3,-16 28,-9 1,-12 11,-16 31,-14 -14,-7 -14,-12 -25,-10l-64 -4 -206 91c-38,17 -47,47 8,54z"/>
    <path class="fil1 str0" d="M2694 3556c12,-20 29,-38 52,-54 -12,12 -20,25 -22,39 16,-21 35,-39 60,-53 -2,7 -1,12 10,13 -3,8 0,12 9,11 -3,9 0,13 9,12 -3,8 -1,12 8,11 -3,8 0,12 8,10 0,10 12,16 18,24l114 24 186 10c-15,15 -21,28 -16,38 -7,9 0,14 22,17 -2,11 5,16 20,16 0,11 5,17 19,14 -3,8 4,13 20,16 -5,9 2,14 20,16 0,10 7,16 21,16 -2,12 5,18 21,16 -3,12 3,16 18,14 -3,10 3,15 19,15 -2,12 4,17 21,16 -2,11 -1,16 18,18 -3,8 -2,17 24,15 -1,12 8,19 27,21 -14,4 -16,9 -27,4l-62 -11 -250 -211 -367 -77z"/>
    <path class="fil1 str0" d="M2122 3837c91,-152 184,-219 306,-258 226,-36 328,-29 532,9 83,-15 151,-58 259,-42 -53,29 -83,90 -158,87 247,116 242,244 404,239 123,-51 140,-146 284,-171 -61,80 -96,191 -182,239 52,48 64,171 99,252 -142,-72 -144,-184 -218,-261 -113,-37 -172,49 -298,95 -27,24 58,64 72,102 -57,2 -154,-32 -205,-84 -17,-25 -178,-9 -291,-25 -12,2 -54,7 -61,17 -12,18 40,21 76,80 -103,-16 -175,-66 -227,-118 -373,-66 -387,-123 -392,-161z"/>
    <path class="fil1 str0" d="M2122 3837c91,-152 184,-219 306,-258 226,-36 460,-15 582,47 23,6 126,77 235,164 73,58 200,112 220,82 -88,96 -394,-288 -752,-281 -247,4 -272,62 -117,62 11,0 10,22 20,32 22,23 50,49 47,95 -2,20 -27,36 -32,57 -3,13 -23,10 -11,38 12,28 -44,47 -58,70 -6,11 -9,35 -16,28 -1,-1 20,-40 21,-55 2,-26 3,-36 -6,-77 -12,-48 -4,-28 -34,-121 -8,-25 53,160 22,203 -5,7 -15,32 -3,31 12,-2 -2,16 0,19 5,10 14,9 -11,12 -7,1 -9,1 -8,8 1,4 -8,4 -13,5 -373,-66 -387,-123 -392,-161z"/>
    <path class="fil1 str0" d="M2122 3837c48,10 105,64 156,89 22,-2 22,-33 8,-62 -50,-16 -101,-20 -151,-49l-13 22z"/>
    <ellipse class="fil1 str0" transform="matrix(0.501372 0.0589925 -0.0485001 0.412198 2399.97 3740.62)" rx="114" ry="103"/>
    <ellipse class="fil1 str0" transform="matrix(0.410205 0.0482656 -0.0396811 0.337246 2399.18 3741.07)" rx="114" ry="103"/>
    <path class="fil1 str0" d="M2369 3753c-6,-17 3,-38 36,-35 25,-4 28,11 28,30 -5,19 -55,21 -64,5z"/>
    <ellipse class="fil1 str0" transform="matrix(0.071382 0.00839897 -0.00690513 0.058686 2390.98 3727.01)" rx="114" ry="103"/>
    <path class="fil1 str0" d="M3376 3875c10,4 14,21 28,23 -14,-2 -19,9 -31,16 14,-11 16,-26 3,-39z"/>
    <path class="fil1 str0" d="M3402 3878c9,5 12,19 25,21 -13,-2 -17,8 -27,14 12,-10 13,-23 2,-35z"/>
    <path class="fil1 str0" d="M3424 3881c9,5 12,18 25,20 -13,-2 -16,8 -27,14 12,-9 14,-22 2,-34z"/>
    <path class="fil1 str0" d="M3445 3884c7,4 11,16 22,18 -11,-2 -15,7 -24,13 11,-9 12,-21 2,-31z"/>
    <path class="fil1 str0" d="M3351 3873c10,5 14,21 28,23 -14,-2 -19,9 -31,16 14,-11 16,-26 3,-39z"/>
    <path class="fil1 str0" d="M3326 3872c10,4 14,21 29,23 -15,-2 -19,9 -32,16 14,-11 16,-26 3,-39z"/>
    <path class="fil1 str0" d="M3298 3870c10,5 14,21 29,23 -15,-2 -19,9 -32,16 14,-11 16,-26 3,-39z"/>
    <path class="fil1 str0" d="M3271 3867c10,5 14,21 28,24 -14,-3 -19,9 -31,16 14,-11 16,-27 3,-40z"/>
    <path class="fil1 str0" d="M3232 3861c12,6 18,27 36,30 -18,-3 -24,11 -40,20 18,-14 20,-33 4,-50z"/>
    <path class="fil1 str0" d="M2653 3836c76,-68 294,-67 497,-26 -398,-44 -301,120 -467,80 91,-59 -50,-36 -30,-54z"/>
    <path class="fil1 str0" d="M2653 3837c73,-71 290,-78 495,-45 -399,-29 -296,131 -464,97 89,-62 -51,-34 -31,-52z"/>
   </g>
   <g>
    <path class="fil1 str0" d="M4353 2564c-36,-40 212,-65 427,-88 102,-9 189,-9 267,-5 8,0 18,6 24,1 53,-46 98,-90 189,-124 -9,10 -18,-10 0,0 -11,12 -13,23 4,34 -12,17 -13,29 9,33 -9,13 -5,22 11,28 -9,4 -18,8 -27,12 -9,3 18,11 18,16 -1,10 -28,15 -22,17 10,3 -37,-3 -12,-1 98,9 305,40 422,41 4,0 8,0 11,0 2,-4 106,-144 117,-143 8,0 38,65 45,96 18,84 -67,58 -40,66 7,2 15,5 22,7 114,34 273,85 393,93 83,-3 95,-127 316,-165 -112,84 -42,57 -140,241 75,106 47,140 131,234 -244,-61 -202,-126 -300,-160 -168,-37 -251,-1 -333,32 -8,4 -17,7 -25,10 -18,8 -79,-10 25,-10 25,0 31,127 17,129 -8,0 -156,-91 -163,-92 -10,-1 -20,-1 -30,-2 -198,-15 -359,-22 -543,-46 -9,-1 -18,-3 -27,-4 -4,0 60,6 80,33 39,51 76,61 53,77 -37,27 -198,-98 -182,-117 3,-4 -10,-2 -15,-3 -71,-11 -146,-25 -229,-44 -175,-29 -586,-120 -502,-197 72,-5 211,116 283,111 -55,-19 -219,-91 -274,-110z"/>
    <path class="fil1 str0" d="M4353 2564c-36,-40 212,-65 427,-88 102,-9 189,-9 267,-5 8,0 18,6 24,1 53,-46 98,-90 189,-124 -9,10 -15,21 2,31 -10,12 -12,23 4,34 -12,17 -13,29 10,33 -9,13 -6,22 11,28 -10,4 -19,8 -28,12 -8,3 19,11 19,16 -1,10 -31,-16 -25,-14 10,3 -37,-3 -12,-1 98,9 305,40 422,41 4,0 8,0 11,0 2,-4 106,-144 117,-143 8,0 51,66 45,96 -9,44 -67,58 -40,66 7,2 15,5 22,7 114,34 273,85 393,93 83,-3 95,-127 316,-165 -87,109 -68,167 -140,241 63,56 47,140 131,234 -244,-61 -202,-126 -300,-160 -24,-9 77,-13 103,-31 25,-18 -18,-52 -40,-64 -3,-1 -11,-21 -17,-23 -5,-3 -19,16 -23,13 -8,-6 -9,-19 -19,-21 -8,-2 -27,41 -35,38 -7,-2 -4,-40 -12,-41 -9,-2 -15,39 -24,37 -8,-2 -7,-42 -15,-43 -14,-2 -19,41 -33,38 -6,-1 -6,-43 -12,-44 -9,-2 -14,51 -23,49 -9,-2 -6,-56 -14,-57 -7,-2 -15,53 -22,51 -8,-1 -5,-57 -13,-59 -8,-1 -19,66 -27,64 -7,-1 -5,-69 -13,-70 -8,-2 -17,75 -25,74 -6,-1 -2,-86 -4,-81 -11,24 -12,54 -29,82 -5,9 -4,-79 -10,-90 -4,-6 -23,103 -31,102 -6,-1 4,-113 -2,-114 -6,-1 -28,122 -35,121 -5,-1 0,-129 -5,-130 -16,-2 -31,143 -47,141 -7,-2 12,-155 5,-156 -13,-2 -47,171 -59,169 -14,-2 17,-175 4,-177 -18,-2 -48,178 -65,175 -20,-3 18,-187 -1,-189 -19,-3 -48,186 -66,183 -18,-2 2,-187 -16,-189 -14,-2 -36,195 -49,193 -14,-1 -2,-196 -16,-198 -21,-2 -42,188 -62,185 -20,-2 9,-189 -10,-191 -28,-3 -51,200 -76,196 -14,-2 20,-211 6,-213 -30,-3 -61,213 -88,209 -21,-4 36,-214 16,-218 -27,-5 -69,219 -93,212 -11,-4 28,-207 17,-211 -17,-6 -75,213 -90,206 -17,-9 38,-201 24,-212 -13,-11 -105,207 -115,192 -9,-16 60,-187 55,-206 -3,-12 -93,159 -94,146 -1,-15 60,-160 54,-160 -7,-1 -26,27 -33,27 -2,0 -6,-2 -6,0 -11,43 -108,141 -26,0 1,-2 2,0 0,0 -3,0 16,-34 2,-30 -33,12 -28,30 -31,30 -6,0 -16,33 -48,27 -4,0 12,-15 14,-27 4,-17 5,-18 -3,-14 -5,2 -11,14 -16,14 -5,0 -11,14 -16,14 -5,1 -9,-19 -14,-19 -4,0 -19,13 -22,13 -5,0 -3,-14 -7,-15 -28,-1 -57,10 -85,12 -6,0 -23,-5 -19,1 9,12 -19,-22 30,14 4,2 28,65 31,69 2,4 -12,51 -20,61 -23,30 -82,63 -106,69 -1,1 77,-49 100,-78 4,-5 12,-47 9,-55 -3,-8 -25,-55 -32,-59 -28,-17 -38,-20 -40,-20 -6,0 -11,1 -16,1 -12,1 -24,2 -35,2 -2,1 -5,1 -7,1 0,0 41,-3 -10,1 -2,0 -5,0 -8,0 -5,1 -40,1 12,28 25,14 -15,48 -28,49 -65,8 -68,-14 -75,-26 -9,-13 7,-40 11,-41 3,0 -20,-1 -23,0 -49,5 -93,11 -130,17 -2,0 -4,0 -6,1 -1,0 56,45 147,63 47,9 71,33 81,50 8,14 -31,42 -27,29 1,-7 4,5 6,2 8,-11 19,-26 15,-30 -13,-14 -39,-35 -79,-44 -102,-25 -154,-69 -155,-68 -1,0 -2,0 -4,0 -18,3 -35,7 -50,10z"/>
    <path class="fil1 str0" d="M4845 2616c45,8 177,-33 203,-10 -22,60 -102,69 -146,58 -38,-8 -2,-30 -57,-48z"/>
    <ellipse class="fil1 str0" transform="matrix(0.355328 0.0233497 -0 0.355328 4608.44 2566.53)" rx="102" ry="85"/>
    <ellipse class="fil1 str0" transform="matrix(0.302794 0.0198975 -0 0.326072 4603.07 2568.65)" rx="102" ry="85"/>
    <ellipse class="fil1 str0" transform="matrix(0.283429 0.018625 -0 0.283429 4603.41 2568.39)" rx="102" ry="85"/>
    <ellipse class="fil1 str0" transform="matrix(0.227317 0.0149377 -0 0.252578 4603.07 2568.65)" rx="102" ry="85"/>
    <path class="fil1 str0" d="M4585 2556c18,-9 29,-6 36,2 7,12 -1,21 -17,29 -22,-13 -25,-23 -19,-31z"/>
    <ellipse class="fil1 str0" transform="matrix(0.478215 -0.0573315 -0.216192 0.802891 4598.6 2562.31)" rx="12" ry="5"/>
    <path class="fil1 str0" d="M4627 2674c-5,-3 -19,-14 -17,-8 0,2 37,10 32,9 -2,0 -13,0 -15,-1 -91,-40 -232,-114 -271,-121 -20,5 12,22 29,23 5,0 10,1 16,2 3,0 6,1 9,2 2,1 193,100 196,100 36,-5 -7,-10 21,-6z"/>
    <path class="fil1 str0" d="M6211 2647c83,-3 95,-127 316,-165 -87,109 -68,167 -140,241 63,56 47,140 131,234 -244,-61 -202,-126 -300,-160 -24,-9 25,-19 51,-37 25,-18 27,-46 4,-58 -2,-1 -5,-18 -9,-23 -26,-38 -37,-19 -53,-32z"/>
    <path class="fil1 str0" d="M6223 2653c73,-4 83,-120 278,-155 -76,101 -60,155 -123,225 -12,10 -18,16 -100,-19 -2,-1 -5,-16 -8,-22 -23,-35 -32,-17 -47,-29z"/>
    <path class="fil1 str0" d="M6377 2744c56,51 46,114 123,198 -221,-55 -183,-113 -271,-143 -27,-14 48,-16 52,-45 1,-2 4,-1 6,-2 35,-10 86,-20 90,-8z"/>
    <path class="fil1 str0" style="mask:url(#id0)" d="M6264 2665c51,65 40,94 -11,120 16,45 113,120 226,146 -115,-49 -173,-106 -162,-136 43,15 27,33 120,49 -100,-42 -102,-57 -104,-66 28,-3 85,27 82,21 -40,1 -56,-42 -84,-48 12,-7 42,8 55,2 -12,-1 -42,-23 -53,-24 32,-10 55,-35 61,-38 7,-4 -2,13 -49,7 31,-8 27,-43 73,-38 -47,-16 -53,7 -89,4 39,-21 72,-64 115,-72 -59,-5 -81,55 -125,63 54,-33 79,-111 158,-138 -76,15 -168,86 -213,148z"/>
   </g>
   <g>
    <path class="fil1 str0" d="M5645 4881c4,-10 48,28 60,36 7,-2 -35,-39 9,-45 1,-9 9,-10 24,-3 5,-9 13,-10 25,-3 4,-11 12,-12 24,-3 3,-11 10,-11 20,-3 3,-9 11,-10 24,-3 3,-10 11,-11 24,-3 3,-9 6,-12 23,-5 0,-8 6,-14 26,-1 5,-10 15,-11 32,-4 -10,-10 -9,-14 -20,-16l-55 -21 -208 24c-39,5 -56,28 -8,50z"/>
    <path class="fil1 str0" d="M5420 4318c16,-14 36,-25 60,-33 -13,7 -24,17 -29,28 20,-14 42,-25 67,-31 -4,6 -4,11 6,15 -5,7 -4,11 4,13 -5,7 -3,11 5,13 -5,6 -3,10 4,12 -4,6 -3,10 4,11 -2,9 7,17 10,26l95 53 163 61c-19,9 -27,18 -26,28 -8,7 -3,14 15,22 -5,9 0,16 14,19 -4,11 0,17 12,19 -4,6 0,13 14,19 -7,7 -2,13 14,20 -4,9 1,16 14,20 -5,11 -1,17 14,20 -6,10 -2,15 12,17 -6,8 -1,15 13,20 -6,9 -1,15 14,20 -5,8 -5,13 11,21 -5,5 -6,14 17,20 -4,10 2,18 18,26 -14,-1 -16,3 -25,-4l-52 -27 -164 -258 -304 -170z"/>
    <path class="fil1 str0" d="M4833 4409c123,-110 225,-143 344,-144 211,31 299,65 470,156 79,9 150,-10 242,34 -55,11 -99,57 -165,33 188,173 148,285 293,325 124,-11 165,-91 300,-73 -76,54 -138,143 -228,161 33,58 9,170 18,253 -106,-104 -77,-204 -121,-293 -91,-65 -167,-4 -291,1 -31,14 33,74 35,111 -52,-14 -128,-71 -159,-132 -8,-26 -155,-57 -252,-102 -10,-2 -49,-9 -58,-2 -16,12 29,30 45,92 -88,-43 -138,-107 -169,-168 -313,-162 -309,-216 -304,-252z"/>
    <path class="fil1 str0" d="M4833 4409c123,-110 225,-143 344,-144 211,31 413,114 504,203 19,12 91,104 163,211 49,72 147,155 173,134 -104,61 -270,-366 -590,-459 -221,-64 -259,-20 -121,23 10,3 2,23 9,34 13,26 31,58 15,97 -7,18 -34,25 -44,42 -7,11 -24,3 -21,31 3,28 -52,30 -70,46 -9,8 -19,29 -23,21 0,-1 29,-30 34,-44 9,-22 13,-31 16,-70 3,-45 4,-25 4,-116 0,-25 2,156 -37,186 -6,5 -23,25 -11,27 11,2 -6,14 -6,17 2,10 11,12 -13,8 -6,-1 -8,-2 -9,4 -1,4 -8,2 -13,1 -313,-162 -309,-216 -304,-252z"/>
    <path class="fil1 str0" d="M4833 4409c40,22 76,87 115,123 19,4 28,-23 23,-53 -40,-29 -83,-46 -120,-86l-18 16z"/>
    <ellipse class="fil1 str0" transform="matrix(0.429184 0.191585 -0.15751 0.35285 5107.12 4400.72)" rx="114" ry="103"/>
    <ellipse class="fil1 str0" transform="matrix(0.351143 0.156748 -0.128869 0.288689 5106.3 4400.9)" rx="114" ry="103"/>
    <path class="fil1 str0" d="M5076 4403c0,-17 14,-33 42,-21 23,4 21,17 16,34 -9,16 -54,4 -58,-13z"/>
    <ellipse class="fil1 str0" transform="matrix(0.0611044 0.0272766 -0.0224252 0.0502364 5102.91 4386.13)" rx="114" ry="103"/>
    <path class="fil1 str0" d="M5937 4790c8,8 7,23 19,29 -12,-6 -19,3 -32,6 15,-6 21,-19 13,-35z"/>
    <path class="fil1 str0" d="M5959 4801c7,7 6,20 17,26 -11,-6 -17,2 -28,5 13,-6 18,-17 11,-31z"/>
    <path class="fil1 str0" d="M5978 4810c7,6 6,20 17,25 -11,-5 -17,2 -28,4 13,-5 18,-16 11,-29z"/>
    <path class="fil1 str0" d="M5996 4818c6,6 5,18 14,22 -9,-4 -15,3 -25,5 13,-5 17,-15 11,-27z"/>
    <path class="fil1 str0" d="M5915 4782c8,7 7,23 19,29 -12,-6 -19,3 -32,6 16,-6 21,-19 13,-35z"/>
    <path class="fil1 str0" d="M5894 4774c7,7 6,23 19,29 -13,-6 -20,3 -33,5 16,-5 22,-19 14,-34z"/>
    <path class="fil1 str0" d="M5869 4765c8,7 7,22 19,28 -12,-6 -19,3 -32,6 16,-6 21,-19 13,-34z"/>
    <path class="fil1 str0" d="M5846 4755c7,7 7,23 19,29 -12,-6 -20,2 -32,5 15,-6 21,-19 13,-34z"/>
    <path class="fil1 str0" d="M5813 4739c9,9 8,28 24,36 -16,-8 -25,4 -41,7 20,-7 27,-24 17,-43z"/>
    <path class="fil1 str0" d="M5306 4556c86,-39 279,22 449,114 -342,-149 -301,24 -438,-58 97,-27 -34,-46 -11,-56z"/>
    <path class="fil1 str0" d="M5305 4556c85,-42 280,12 453,98 -347,-137 -300,34 -440,-42 96,-31 -36,-45 -13,-56z"/>
   </g>
   <g>
    <path class="fil1 str0" d="M6375 3585c2,-4 21,15 27,19 3,-1 -15,-19 5,-20 1,-5 5,-5 11,-1 3,-4 7,-4 12,-1 2,-5 6,-5 11,0 2,-5 5,-5 10,-1 1,-4 5,-4 10,-1 2,-4 6,-4 11,0 2,-4 4,-6 11,-2 1,-4 4,-6 12,0 3,-4 8,-4 15,-1 -4,-4 -4,-6 -9,-7l-24 -12 -97 5c-18,1 -26,11 -5,22z"/>
    <path class="fil1 str0" d="M6289 3320c8,-6 17,-10 29,-13 -7,3 -12,7 -14,12 9,-6 19,-10 31,-12 -2,3 -2,5 2,7 -2,3 -1,5 2,6 -2,3 -2,5 2,6 -3,3 -2,5 2,6 -3,2 -2,4 1,5 -1,4 2,8 4,12l42 27 72 33c-8,4 -12,8 -12,13 -4,2 -2,5 6,10 -2,4 0,7 6,9 -2,5 -1,8 5,9 -2,3 0,6 6,9 -4,3 -2,6 5,10 -1,4 0,7 6,10 -2,4 -1,7 6,9 -3,4 -1,7 5,8 -3,4 -1,7 5,10 -2,4 0,7 6,9 -2,4 -2,6 5,10 -3,3 -4,6 7,10 -2,4 0,8 7,12 -6,0 -7,1 -11,-2l-23 -14 -67 -123 -135 -88z"/>
    <path class="fil1 str0" d="M6017 3344c60,-46 107,-59 162,-55 96,20 136,39 211,85 36,7 69,0 110,23 -25,4 -47,24 -76,11 81,85 59,135 124,158 57,-2 79,-37 140,-25 -37,23 -68,62 -110,67 14,28 0,79 1,117 -45,-51 -29,-96 -47,-138 -39,-33 -76,-7 -133,-9 -15,6 13,35 13,52 -24,-7 -57,-36 -69,-65 -3,-12 -70,-31 -113,-55 -5,-1 -22,-5 -27,-2 -7,5 13,14 18,43 -39,-22 -60,-53 -72,-82 -139,-84 -136,-108 -132,-125z"/>
    <path class="fil1 str0" d="M6017 3344c60,-46 107,-59 162,-55 96,20 186,65 225,108 9,6 39,51 69,102 20,34 63,75 75,67 -50,24 -113,-176 -257,-229 -99,-36 -118,-17 -56,7 4,2 0,10 3,16 5,12 12,27 4,45 -4,8 -16,10 -21,18 -4,5 -11,1 -11,13 1,13 -25,12 -34,19 -4,4 -9,13 -11,9 0,0 14,-13 17,-19 5,-10 7,-14 10,-31 3,-21 2,-12 5,-54 1,-11 -4,72 -23,85 -3,2 -11,10 -6,12 5,1 -3,6 -3,7 1,5 5,6 -6,3 -3,0 -3,0 -4,2 -1,2 -4,1 -6,0 -139,-84 -136,-108 -132,-125z"/>
    <path class="fil1 str0" d="M6017 3344c18,12 32,42 49,60 9,3 14,-9 12,-24 -17,-14 -37,-23 -52,-42l-9 6z"/>
    <ellipse class="fil1 str0" transform="matrix(0.191175 0.100903 -0.0829564 0.157173 6143.03 3348.87)" rx="114" ry="103"/>
    <ellipse class="fil1 str0" transform="matrix(0.156413 0.0825553 -0.067872 0.128594 6142.65 3348.93)" rx="114" ry="103"/>
    <path class="fil1 str0" d="M6129 3349c0,-8 7,-15 19,-8 11,2 10,8 7,16 -5,7 -25,0 -26,-8z"/>
    <ellipse class="fil1 str0" transform="matrix(0.0272183 0.0143659 -0.0118108 0.0223773 6141.54 3342.05)" rx="114" ry="103"/>
    <path class="fil1 str0" d="M6512 3553c3,3 3,10 8,14 -5,-4 -9,0 -15,1 7,-2 10,-8 7,-15z"/>
    <path class="fil1 str0" d="M6522 3558c3,4 2,10 7,13 -5,-3 -8,0 -13,1 6,-2 9,-7 6,-14z"/>
    <path class="fil1 str0" d="M6530 3563c3,3 3,9 7,12 -4,-3 -7,0 -13,1 7,-2 9,-7 6,-13z"/>
    <path class="fil1 str0" d="M6538 3567c3,3 2,9 6,11 -4,-2 -7,1 -11,1 5,-1 8,-6 5,-12z"/>
    <path class="fil1 str0" d="M6502 3548c4,4 3,11 8,14 -5,-3 -9,1 -15,2 8,-2 11,-8 7,-16z"/>
    <path class="fil1 str0" d="M6493 3544c3,4 2,11 8,14 -6,-3 -9,0 -15,1 7,-2 10,-8 7,-15z"/>
    <path class="fil1 str0" d="M6482 3539c3,3 2,11 8,14 -6,-3 -9,0 -15,1 7,-2 10,-8 7,-15z"/>
    <path class="fil1 str0" d="M6471 3534c4,3 3,10 8,14 -5,-4 -9,0 -15,1 8,-2 11,-8 7,-15z"/>
    <path class="fil1 str0" d="M6457 3525c4,5 3,14 10,18 -7,-4 -12,1 -19,2 9,-3 13,-10 9,-20z"/>
    <path class="fil1 str0" d="M6230 3426c40,-15 127,19 202,66 -152,-79 -139,2 -199,-40 45,-9 -14,-22 -3,-26z"/>
    <path class="fil1 str0" d="M6229 3426c40,-17 128,14 205,59 -155,-74 -139,7 -201,-33 46,-11 -15,-21 -4,-26z"/>
   </g>
   <g>
    <path class="fil1 str0" d="M4651 4314c3,-14 70,22 88,29 8,-5 -56,-40 -1,-60 -2,-13 8,-16 30,-11 3,-13 14,-17 31,-12 2,-15 12,-18 30,-10 1,-15 10,-18 26,-10 0,-13 10,-16 29,-10 1,-14 11,-18 30,-11 1,-13 5,-18 28,-14 -1,-10 4,-20 34,-9 3,-14 16,-19 39,-14 -15,-10 -15,-16 -29,-15l-77 -11 -262 92c-49,17 -63,52 4,66z"/>
    <path class="fil1 str0" d="M4198 3654c17,-22 39,-43 68,-60 -15,14 -26,29 -29,45 21,-24 46,-45 77,-59 -3,8 -2,15 11,17 -4,10 0,15 10,15 -4,11 -1,16 10,16 -5,9 -2,14 9,14 -4,9 -2,14 8,13 0,12 14,20 20,31l138 40 227 31c-21,17 -29,32 -24,45 -9,10 -1,18 26,23 -4,13 4,20 23,21 -2,14 5,22 21,20 -4,10 4,17 23,21 -6,11 2,18 24,22 -2,13 6,20 24,22 -4,15 4,22 24,21 -5,14 2,20 20,19 -5,12 3,19 23,21 -5,13 3,21 23,22 -3,12 -2,18 21,24 -5,8 -4,19 28,20 -3,14 7,24 31,28 -18,4 -20,10 -33,3l-75 -20 -287 -284 -441 -131z"/>
    <path class="fil1 str0" d="M3468 3943c127,-178 248,-250 401,-286 281,-22 405,-3 652,64 103,-11 190,-57 322,-27 -68,31 -112,102 -204,91 292,168 273,324 472,333 157,-51 186,-165 365,-181 -83,92 -136,224 -247,274 60,65 62,216 97,320 -167,-103 -158,-241 -241,-341 -136,-58 -216,42 -375,85 -35,28 65,85 78,133 -70,-3 -185,-54 -243,-123 -19,-32 -217,-29 -354,-60 -15,2 -67,4 -76,15 -17,21 46,30 85,105 -125,-29 -209,-97 -266,-166 -451,-118 -462,-189 -466,-236z"/>
    <path class="fil1 str0" d="M3468 3943c127,-178 248,-250 401,-286 281,-22 566,27 708,115 29,10 148,107 273,224 84,78 234,157 261,122 -116,109 -454,-392 -894,-419 -302,-18 -340,49 -149,65 14,1 10,28 21,41 25,30 57,65 48,121 -4,24 -36,41 -44,67 -5,15 -30,10 -18,45 12,35 -59,54 -77,80 -9,13 -16,42 -23,33 -1,-1 28,-47 31,-66 5,-31 8,-44 0,-95 -9,-59 -2,-34 -29,-151 -8,-32 49,201 6,251 -6,8 -21,38 -6,38 14,-1 -4,20 -2,23 5,13 17,12 -15,14 -8,1 -10,1 -10,9 0,5 -10,4 -16,5 -451,-118 -462,-189 -466,-236z"/>
    <path class="fil1 str0" d="M3468 3943c58,16 123,89 184,124 26,0 29,-38 15,-75 -60,-25 -121,-34 -180,-75l-19 26z"/>
    <ellipse class="fil1 str0" transform="matrix(0.608631 0.121913 -0.100229 0.50038 3818.97 3851.92)" rx="114" ry="103"/>
    <ellipse class="fil1 str0" transform="matrix(0.497961 0.0997448 -0.0820042 0.409393 3817.97 3852.4)" rx="114" ry="103"/>
    <path class="fil1 str0" d="M3780 3864c-6,-21 7,-46 47,-39 32,-3 33,16 31,39 -7,22 -69,20 -78,0z"/>
    <ellipse class="fil1 str0" transform="matrix(0.0866528 0.0173571 -0.01427 0.0712408 3809.3 3834.36)" rx="114" ry="103"/>
    <path class="fil1 str0" d="M5001 4113c12,7 16,27 33,31 -17,-4 -24,9 -40,17 19,-13 22,-31 7,-48z"/>
    <path class="fil1 str0" d="M5033 4120c11,6 14,24 29,28 -15,-4 -21,8 -35,14 16,-10 19,-27 6,-42z"/>
    <path class="fil1 str0" d="M5060 4126c11,6 14,23 28,27 -14,-4 -20,7 -33,14 15,-11 18,-26 5,-41z"/>
    <path class="fil1 str0" d="M5085 4131c9,6 12,21 26,24 -14,-3 -19,8 -31,14 14,-10 17,-24 5,-38z"/>
    <path class="fil1 str0" d="M4971 4108c12,7 15,28 33,32 -18,-4 -24,9 -40,16 18,-12 22,-30 7,-48z"/>
    <path class="fil1 str0" d="M4941 4104c12,7 15,27 33,31 -18,-4 -25,10 -40,17 18,-12 22,-31 7,-48z"/>
    <path class="fil1 str0" d="M4907 4099c12,7 15,27 33,31 -18,-4 -25,10 -40,17 18,-12 21,-31 7,-48z"/>
    <path class="fil1 str0" d="M4874 4093c12,7 15,28 33,32 -18,-4 -25,9 -40,16 18,-12 21,-30 7,-48z"/>
    <path class="fil1 str0" d="M4826 4082c15,9 20,35 42,40 -22,-5 -31,12 -51,21 24,-15 28,-39 9,-61z"/>
    <path class="fil1 str0" d="M4120 3994c100,-75 366,-53 612,17 -484,-93 -381,118 -581,52 117,-64 -57,-49 -31,-69z"/>
    <path class="fil1 str0" d="M4119 3995c97,-80 364,-67 612,-6 -487,-76 -376,131 -579,73 115,-67 -59,-46 -33,-67z"/>
   </g>
   <g>
    <path class="fil1 str0" d="M5250 3726c2,-11 60,19 75,25 6,-4 -48,-33 -2,-51 -1,-10 7,-13 26,-9 3,-11 12,-14 26,-10 2,-12 10,-15 25,-9 1,-12 9,-15 22,-8 1,-11 9,-14 25,-9 1,-12 9,-15 25,-9 2,-11 5,-15 24,-12 -1,-8 4,-17 29,-7 2,-12 13,-16 33,-12 -13,-8 -13,-14 -25,-13l-65 -9 -221 78c-42,14 -54,44 3,55z"/>
    <path class="fil1 str0" d="M4867 3169c14,-19 33,-36 58,-51 -13,12 -22,24 -25,38 18,-20 39,-37 65,-50 -2,7 -1,13 10,15 -4,8 -1,13 8,12 -4,9 -1,14 8,14 -3,7 -1,11 8,12 -4,8 -1,11 7,10 0,11 11,18 17,26l116 35 192 26c-17,14 -24,27 -20,38 -8,8 -1,15 22,19 -3,12 3,18 19,18 -1,12 4,19 18,17 -3,8 3,14 20,18 -6,9 1,15 20,18 -2,11 5,17 20,19 -3,12 4,18 20,18 -4,12 2,17 17,16 -4,10 3,16 19,17 -3,12 3,18 20,19 -3,10 -2,16 18,20 -5,7 -4,17 24,17 -3,12 6,20 26,24 -16,3 -17,8 -28,2l-64 -16 -242 -240 -373 -111z"/>
    <path class="fil1 str0" d="M4250 3413c107,-150 210,-212 339,-242 237,-18 342,-2 551,54 87,-9 161,-48 272,-22 -57,26 -94,86 -172,77 247,141 231,273 399,281 132,-43 157,-139 308,-153 -70,77 -115,190 -208,232 50,54 52,182 82,270 -141,-87 -134,-203 -204,-289 -115,-48 -182,37 -317,73 -30,23 55,72 66,112 -60,-2 -157,-46 -205,-104 -16,-27 -184,-25 -300,-50 -12,1 -56,2 -64,12 -15,18 39,25 72,89 -106,-25 -176,-82 -225,-141 -381,-99 -391,-159 -394,-199z"/>
    <path class="fil1 str0" d="M4250 3413c107,-150 210,-212 339,-242 237,-18 478,23 599,98 24,8 124,90 230,189 71,66 198,132 221,103 -99,92 -384,-331 -755,-354 -256,-16 -288,42 -127,54 12,1 9,24 18,36 21,25 48,54 41,101 -4,21 -31,35 -38,57 -4,13 -25,9 -15,39 10,29 -49,45 -65,67 -8,11 -13,36 -19,28 -1,-1 23,-40 26,-56 4,-26 7,-37 0,-80 -8,-50 -2,-29 -25,-128 -6,-27 41,170 6,212 -6,7 -19,33 -6,32 13,-1 -3,17 -1,20 4,11 14,10 -13,12 -7,0 -9,0 -8,7 0,4 -9,3 -14,4 -381,-99 -391,-159 -394,-199z"/>
    <path class="fil1 str0" d="M4250 3413c49,14 104,75 155,105 23,0 26,-32 13,-64 -50,-21 -102,-28 -152,-63l-16 22z"/>
    <ellipse class="fil1 str0" transform="matrix(0.514374 0.103033 -0.0847073 0.422888 4546.87 3336.08)" rx="114" ry="103"/>
    <ellipse class="fil1 str0" transform="matrix(0.420843 0.0842977 -0.0693045 0.345992 4546.01 3336.48)" rx="114" ry="103"/>
    <path class="fil1 str0" d="M4514 3346c-5,-18 6,-39 40,-33 26,-2 28,14 26,34 -6,18 -59,16 -66,-1z"/>
    <ellipse class="fil1 str0" transform="matrix(0.0732332 0.0146691 -0.0120601 0.060208 4538.69 3321.24)" rx="114" ry="103"/>
    <path class="fil1 str0" d="M5546 3556c10,6 13,23 28,27 -15,-4 -20,8 -34,14 16,-10 19,-26 6,-41z"/>
    <path class="fil1 str0" d="M5573 3563c9,5 12,20 25,23 -13,-3 -18,7 -30,12 14,-9 16,-22 5,-35z"/>
    <path class="fil1 str0" d="M5596 3568c9,5 11,19 24,22 -13,-3 -18,7 -29,12 13,-9 16,-22 5,-34z"/>
    <path class="fil1 str0" d="M5617 3572c8,5 10,18 21,21 -11,-3 -15,6 -26,11 12,-8 15,-21 5,-32z"/>
    <path class="fil1 str0" d="M5521 3553c10,6 12,23 27,26 -15,-3 -20,8 -33,14 15,-10 18,-26 6,-40z"/>
    <path class="fil1 str0" d="M5495 3549c10,6 13,23 28,27 -15,-4 -21,7 -34,14 16,-10 18,-26 6,-41z"/>
    <path class="fil1 str0" d="M5466 3545c10,6 13,23 28,26 -15,-3 -21,8 -34,15 16,-11 19,-26 6,-41z"/>
    <path class="fil1 str0" d="M5438 3540c10,6 13,23 28,27 -15,-4 -20,7 -34,14 16,-11 19,-26 6,-41z"/>
    <path class="fil1 str0" d="M5398 3531c13,7 17,29 35,33 -18,-4 -26,10 -42,18 19,-13 23,-33 7,-51z"/>
    <path class="fil1 str0" d="M4801 3456c85,-64 310,-44 517,14 -409,-78 -322,100 -491,44 99,-53 -48,-41 -26,-58z"/>
    <path class="fil1 str0" d="M4800 3457c82,-67 308,-56 518,-5 -412,-64 -318,111 -490,62 98,-57 -49,-40 -28,-57z"/>
   </g>
   <g>
    <path class="fil1 str0" d="M1967 4112c4,-9 46,31 57,40 7,-2 -31,-41 12,-44 2,-9 10,-10 25,-1 5,-9 13,-9 24,-2 5,-10 13,-11 25,-1 3,-11 10,-11 21,-2 3,-9 10,-9 23,-1 4,-10 12,-10 24,-1 4,-9 8,-12 23,-5 2,-7 8,-13 27,2 5,-10 15,-11 32,-2 -9,-11 -8,-15 -19,-17l-53 -25 -210 10c-39,2 -57,24 -11,49z"/>
    <path class="fil1 str0" d="M1780 3536c16,-13 37,-23 62,-29 -14,6 -25,15 -31,26 20,-13 43,-22 69,-26 -4,5 -5,10 4,15 -5,6 -4,11 4,13 -5,6 -4,11 4,13 -5,6 -4,10 4,12 -6,6 -5,10 3,12 -3,8 5,17 8,26l91 59 158 72c-19,8 -28,17 -27,27 -9,5 -4,13 14,22 -6,9 -2,16 12,21 -4,10 -1,16 11,19 -5,6 -1,12 12,20 -6,6 -2,13 13,21 -4,9 0,16 13,21 -6,10 -2,17 12,20 -6,10 -3,16 11,18 -6,8 -2,15 12,21 -6,8 -2,15 12,20 -5,8 -5,13 10,22 -5,5 -7,14 16,21 -5,10 0,19 16,27 -13,-1 -16,3 -24,-5l-50 -30 -147 -268 -292 -190z"/>
    <path class="fil1 str0" d="M1188 3588c130,-101 233,-128 352,-121 209,44 295,85 459,186 78,15 151,0 240,50 -56,8 -103,51 -167,23 176,184 128,293 271,343 124,-3 170,-80 304,-53 -80,49 -147,133 -238,146 29,59 -2,170 1,253 -99,-111 -63,-209 -102,-300 -86,-71 -165,-15 -290,-18 -31,12 28,76 28,113 -51,-17 -123,-79 -150,-142 -7,-27 -151,-68 -244,-119 -11,-2 -50,-12 -59,-6 -17,12 27,32 39,95 -84,-48 -130,-116 -157,-178 -302,-183 -295,-236 -287,-272z"/>
    <path class="fil1 str0" d="M1188 3588c130,-101 233,-128 352,-121 209,44 405,141 490,236 18,13 84,109 149,221 44,75 137,164 164,145 -108,54 -245,-382 -559,-496 -216,-79 -257,-38 -122,14 9,4 1,23 6,35 12,27 27,59 9,98 -8,17 -35,22 -47,39 -7,10 -23,1 -22,29 1,28 -54,26 -73,41 -10,8 -21,28 -24,20 -1,-2 30,-29 36,-42 10,-21 16,-30 21,-68 6,-45 6,-26 11,-116 2,-25 -8,156 -49,183 -6,4 -24,23 -13,26 11,3 -7,14 -6,17 1,10 9,12 -14,7 -6,-2 -8,-2 -9,4 -1,3 -8,0 -13,0 -302,-183 -295,-236 -287,-272z"/>
    <path class="fil1 str0" d="M1188 3588c38,25 70,92 106,130 19,6 30,-21 27,-51 -38,-31 -80,-51 -114,-94l-19 15z"/>
    <ellipse class="fil1 str0" transform="matrix(0.41566 0.219387 -0.180367 0.341731 1461.91 3597.81)" rx="114" ry="103"/>
    <ellipse class="fil1 str0" transform="matrix(0.340079 0.179494 -0.14757 0.279592 1461.07 3597.94)" rx="114" ry="103"/>
    <path class="fil1 str0" d="M1431 3598c0,-16 15,-32 43,-18 23,5 20,19 14,35 -10,15 -55,0 -57,-17z"/>
    <ellipse class="fil1 str0" transform="matrix(0.0591789 0.0312348 -0.0256794 0.0486534 1458.66 3582.98)" rx="114" ry="103"/>
    <path class="fil1 str0" d="M2264 4041c7,8 6,23 17,30 -11,-7 -19,2 -32,4 16,-5 22,-18 15,-34z"/>
    <path class="fil1 str0" d="M2286 4054c6,6 5,20 15,26 -10,-6 -17,1 -29,3 14,-4 20,-16 14,-29z"/>
    <path class="fil1 str0" d="M2304 4064c6,6 5,19 15,25 -10,-6 -17,1 -28,3 14,-4 19,-15 13,-28z"/>
    <path class="fil1 str0" d="M2321 4073c6,6 4,18 13,23 -9,-5 -15,1 -25,3 12,-4 17,-14 12,-26z"/>
    <path class="fil1 str0" d="M2243 4032c7,7 5,23 17,29 -12,-6 -19,2 -32,4 16,-5 22,-18 15,-33z"/>
    <path class="fil1 str0" d="M2222 4022c7,8 5,23 17,30 -12,-7 -19,1 -32,4 16,-5 22,-18 15,-34z"/>
    <path class="fil1 str0" d="M2198 4011c8,8 6,23 18,30 -12,-7 -20,1 -33,4 16,-5 22,-18 15,-34z"/>
    <path class="fil1 str0" d="M2176 4000c7,8 5,23 17,30 -12,-7 -20,1 -33,3 16,-5 23,-17 16,-33z"/>
    <path class="fil1 str0" d="M2144 3981c9,10 6,30 21,38 -15,-8 -24,2 -41,5 20,-6 29,-22 20,-43z"/>
    <path class="fil1 str0" d="M1650 3766c89,-34 277,40 441,143 -332,-171 -302,4 -434,-87 99,-21 -31,-47 -7,-56z"/>
    <path class="fil1 str0" d="M1649 3766c87,-37 278,30 446,127 -338,-159 -302,15 -436,-71 98,-24 -33,-46 -10,-56z"/>
   </g>
  </g>
 </g>
</svg>
