<?xml version="1.0" encoding="UTF-8"?>
<!DOCTYPE svg PUBLIC "-//W3C//DTD SVG 1.1//EN" "http://www.w3.org/Graphics/SVG/1.1/DTD/svg11.dtd">
<!-- Creator: CorelDRAW X7 -->
<svg xmlns="http://www.w3.org/2000/svg" xml:space="preserve" width="576px" height="360px" version="1.1" style="shape-rendering:geometricPrecision; text-rendering:geometricPrecision; image-rendering:optimizeQuality; fill-rule:evenodd; clip-rule:evenodd"
viewBox="0 0 578 360"
 xmlns:xlink="http://www.w3.org/1999/xlink">
 <defs>
  <style type="text/css">
   <![CDATA[
    .str2 {stroke:black;stroke-width:0.961933}
    .str1 {stroke:black;stroke-width:1.2022}
    .str3 {stroke:black;stroke-width:0.480825}
    .str4 {stroke:black;stroke-width:0.480825}
    .str5 {stroke:black;stroke-width:0.721379}
    .str0 {stroke:black;stroke-width:0.216414}
    .fil0 {fill:none}
    .fil26 {fill:none;fill-rule:nonzero}
    .fil6 {fill:black}
    .fil4 {fill:blue}
    .fil21 {fill:#1A1A1A}
    .fil9 {fill:#333333}
    .fil20 {fill:#663333}
    .fil1 {fill:#6699FF}
    .fil22 {fill:#E6E6E6}
    .fil3 {fill:red}
    .fil13 {fill:#FF6600}
    .fil24 {fill:#FF9999}
    .fil11 {fill:#FFCC99}
    .fil2 {fill:white}
    .fil5 {fill:black;fill-rule:nonzero}
    .fil25 {fill:#FFCC00;fill-rule:nonzero}
    .fil17 {fill:url(#id0)}
    .fil15 {fill:url(#id1)}
    .fil16 {fill:url(#id2)}
    .fil7 {fill:url(#id3)}
    .fil8 {fill:url(#id4)}
    .fil14 {fill:url(#id5)}
    .fil12 {fill:url(#id6)}
    .fil18 {fill:url(#id7)}
    .fil23 {fill:url(#id8)}
    .fil19 {fill:url(#id9)}
    .fil10 {fill:url(#id10)}
   ]]>
  </style>
  <linearGradient id="id0" gradientUnits="objectBoundingBox" x1="52.5225%" y1="99.9575%" x2="47.4774%" y2="0.0424838%">
   <stop offset="0" style="stop-opacity:1; stop-color:black"/>
   <stop offset="1" style="stop-opacity:1; stop-color:#3A2FCC"/>
  </linearGradient>
  <linearGradient id="id1" gradientUnits="objectBoundingBox" x1="88.4814%" y1="16.0889%" x2="11.5185%" y2="83.9101%">
   <stop offset="0" style="stop-opacity:1; stop-color:yellow"/>
   <stop offset="0.145098" style="stop-opacity:1; stop-color:#978B04"/>
   <stop offset="0.290196" style="stop-opacity:1; stop-color:#FFFF22"/>
   <stop offset="0.329412" style="stop-opacity:1; stop-color:#FCFCEF"/>
   <stop offset="0.411765" style="stop-opacity:1; stop-color:#FBF803"/>
   <stop offset="0.54902" style="stop-opacity:1; stop-color:#BE7F31"/>
   <stop offset="0.631373" style="stop-opacity:1; stop-color:#573414"/>
   <stop offset="1" style="stop-opacity:1; stop-color:#2E1709"/>
  </linearGradient>
  <linearGradient id="id2" gradientUnits="objectBoundingBox" x1="46.9215%" y1="0.0679116%" x2="53.0785%" y2="99.9325%">
   <stop offset="0" style="stop-opacity:1; stop-color:blue"/>
   <stop offset="1" style="stop-opacity:1; stop-color:#050324"/>
  </linearGradient>
  <linearGradient id="id3" gradientUnits="objectBoundingBox" x1="0%" y1="50%" x2="100%" y2="50%">
   <stop offset="0" style="stop-opacity:1; stop-color:#4D443D"/>
   <stop offset="0.0901961" style="stop-opacity:1; stop-color:#C5AA96"/>
   <stop offset="0.741176" style="stop-opacity:1; stop-color:#CAB19F"/>
   <stop offset="1" style="stop-opacity:1; stop-color:#FAECCB"/>
  </linearGradient>
  <linearGradient id="id4" gradientUnits="objectBoundingBox" x1="0.00313564%" y1="52.3177%" x2="99.9971%" y2="47.6825%">
   <stop offset="0" style="stop-opacity:1; stop-color:#4D443D"/>
   <stop offset="0.211765" style="stop-opacity:1; stop-color:#64584E"/>
   <stop offset="0.458824" style="stop-opacity:1; stop-color:#C5AA96"/>
   <stop offset="0.741176" style="stop-opacity:1; stop-color:#CAB19F"/>
   <stop offset="1" style="stop-opacity:1; stop-color:#FAECCB"/>
  </linearGradient>
  <linearGradient id="id5" gradientUnits="objectBoundingBox" x1="5.93031%" y1="22.8097%" x2="94.0717%" y2="77.1893%">
   <stop offset="0" style="stop-opacity:1; stop-color:yellow"/>
   <stop offset="0.113725" style="stop-opacity:1; stop-color:#978B04"/>
   <stop offset="0.231373" style="stop-opacity:1; stop-color:#FFFF22"/>
   <stop offset="0.329412" style="stop-opacity:1; stop-color:#FCFCEF"/>
   <stop offset="0.411765" style="stop-opacity:1; stop-color:#FBF803"/>
   <stop offset="0.54902" style="stop-opacity:1; stop-color:#BE7F31"/>
   <stop offset="0.631373" style="stop-opacity:1; stop-color:#573414"/>
   <stop offset="1" style="stop-opacity:1; stop-color:#2E1709"/>
  </linearGradient>
  <radialGradient id="id6" gradientUnits="userSpaceOnUse" gradientTransform="matrix(1 -0 -0 0.703883 0 58)" cx="293.609" cy="194.511" r="26.9267" fx="293.609" fy="194.511">
   <stop offset="0" style="stop-opacity:1; stop-color:#FA0505"/>
   <stop offset="0.670588" style="stop-opacity:1; stop-color:#B50B0B"/>
   <stop offset="1" style="stop-opacity:1; stop-color:#701111"/>
  </radialGradient>
  <radialGradient id="id7" gradientUnits="userSpaceOnUse" gradientTransform="matrix(-0.120518 0.883759 -1.84795 -0.0576369 728 -38)" cx="298.534" cy="213.178" r="12.5798" fx="298.534" fy="213.178">
   <stop offset="0" style="stop-opacity:1; stop-color:#2F1D99"/>
   <stop offset="0.670588" style="stop-opacity:1; stop-color:#22167C"/>
   <stop offset="1" style="stop-opacity:1; stop-color:#0A0A45"/>
  </radialGradient>
  <radialGradient id="id8" gradientUnits="userSpaceOnUse" gradientTransform="matrix(1.0204 -0 -0 0.534957 -6 40)" cx="291.949" cy="86.355" r="9.18934" fx="291.949" fy="86.355">
   <stop offset="0" style="stop-opacity:1; stop-color:white"/>
   <stop offset="0.611765" style="stop-opacity:1; stop-color:#FFFF0C"/>
   <stop offset="0.192157" style="stop-opacity:1; stop-color:#EAC295"/>
   <stop offset="1" style="stop-opacity:1; stop-color:#D6862B"/>
  </radialGradient>
  <radialGradient id="id9" gradientUnits="userSpaceOnUse" gradientTransform="matrix(1.08696 -0 -0 0.470414 -26 107)" xlink:href="#id8" cx="294.151" cy="202.616" r="17.5713" fx="294.151" fy="202.616">
  </radialGradient>
  <radialGradient id="id10" gradientUnits="userSpaceOnUse" gradientTransform="matrix(1.06383 -0 -0 0.261765 -19 96)" cx="297.061" cy="130.216" r="27.0886" fx="297.061" fy="130.216">
   <stop offset="0" style="stop-opacity:1; stop-color:#010008"/>
   <stop offset="1" style="stop-opacity:1; stop-color:#870B0B"/>
  </radialGradient>
 </defs>
 <g id="Layer_x0020_1">
  <metadata id="CorelCorpID_0Corel-Layer"/>
  <rect class="fil0" width="578" height="360"/>
  <rect class="fil1 str0" x="150" y="7" width="291" height="291"/>
  <path class="fil2 str1" d="M150 9c8,3 8,20 19,23l63 4 130 -18c26,12 56,50 74,12l-2 9 3 8 -3 14 -8 25 -6 43 0 24 1 20 2 20 6 19 3 16 4 17 2 19 -12 29c-12,-1 -24,-13 -35,-13 -26,-2 -33,10 -42,12 -16,5 -37,7 -51,1 -70,-33 -113,-32 -143,5l-5 0c1,-16 3,-33 4,-48l0 -54 -4 -187z"/>
  <path class="fil3 str2" d="M301 96c14,-2 31,2 44,0 25,-2 43,-3 54,9 7,7 16,7 24,-1 1,9 -3,16 -3,25 -12,12 -25,-10 -42,-10 -16,2 -34,1 -53,-1 -9,-2 -14,-5 -20,-8 -1,-4 -3,-10 -4,-14z"/>
  <path class="fil3 str2" d="M304 129c16,5 32,10 48,14 17,5 49,0 57,9 4,7 8,7 11,0 0,6 1,12 1,18 0,16 -10,6 -18,2 -14,-6 -28,-3 -42,-4 -17,0 -45,-21 -56,-19 0,-7 0,-12 -1,-20z"/>
  <path class="fil3 str2" d="M159 221c16,-10 34,-13 45,-2 13,15 59,-4 96,10 17,2 40,-5 57,-1 22,5 24,12 39,14 9,2 31,0 35,-16 2,9 2,9 4,19 -3,9 -21,15 -36,16 -4,0 -10,-1 -14,-4 -44,-27 -77,3 -124,-15 -12,-4 -49,0 -62,2 -10,2 -8,-14 -17,-13 -7,0 -16,15 -23,16 0,-8 0,-19 0,-26z"/>
  <path class="fil3 str2" d="M154 297c0,-7 4,-24 4,-32 3,0 11,-5 15,-7 7,-2 3,10 10,8 29,-14 49,-17 83,-3 11,1 21,10 32,11 15,2 31,4 43,-2 24,-13 39,-5 52,-1 18,6 32,12 40,-1 1,-2 3,-6 5,-6 -2,11 1,21 -12,28 -13,1 -22,-13 -36,-12 -26,1 -51,23 -82,17 -12,0 -21,-8 -34,-11 -20,-6 -45,-8 -64,-10 -21,-1 -39,13 -56,21z"/>
  <path class="fil3 str2" d="M159 181c29,-23 48,4 75,4 9,0 35,-11 44,-11 15,3 29,13 43,15 28,5 65,-6 91,12 5,4 10,-1 10,-8 2,7 5,13 6,19 1,1 -5,17 -18,8 -21,-14 -77,-13 -89,-11 -30,1 -45,-18 -74,-5 -28,12 -46,-11 -63,-11 -13,1 -11,10 -24,11 -1,-7 0,-16 -1,-23z"/>
  <path class="fil4 str2" d="M299 22c4,7 8,15 12,24 -8,20 -15,39 -21,57 -5,16 -10,52 -15,76 -9,4 -18,6 -27,6 -9,1 -18,1 -27,2 -10,-6 -20,-12 -31,-13 -10,-2 -21,2 -31,7 -1,-28 -4,-56 -4,-84 0,-29 1,-57 -2,-85 11,9 21,19 32,22 9,2 19,-7 29,-12 15,-7 28,-2 43,4 13,6 28,0 42,-4z"/>
  <path class="fil3 str2" d="M305 59c57,10 74,-22 106,12 4,7 14,-2 17,-9 1,-2 4,1 6,0 -1,6 -8,18 -8,24 -8,-1 -9,9 -18,6 -10,-4 -15,-33 -45,-15 -17,7 -44,7 -64,2 -1,-5 6,-15 6,-20z"/>
  <path class="fil3 str2" d="M295 23c71,-21 88,8 107,20 20,12 16,-18 37,-13 -6,3 -2,12 -2,18 0,-1 -7,-2 -16,7 -13,14 -30,-25 -51,-19 -27,8 -37,-4 -60,12 -5,-20 -12,-21 -15,-25z"/>
  <polygon class="fil2 str2" points="214,157 217,163 223,162 219,167 223,173 217,170 213,174 213,168 208,164 214,164 "/>
  <polygon class="fil2 str2" points="169,154 172,160 178,159 173,163 175,168 170,165 166,169 167,164 162,161 168,160 "/>
  <polygon class="fil2 str2" points="189,141 192,147 197,145 193,151 195,156 190,154 186,159 187,152 183,150 188,148 "/>
  <polygon class="fil2 str2" points="230,132 233,139 239,138 235,143 238,149 232,145 228,150 229,143 223,140 229,139 "/>
  <polygon class="fil2 str2" points="231,102 234,109 240,108 236,112 239,119 233,115 229,120 230,113 224,110 230,109 "/>
  <polygon class="fil2 str2" points="205,117 208,124 214,123 210,127 213,134 207,130 203,135 204,128 198,125 204,124 "/>
  <polygon class="fil2 str2" points="166,121 169,128 175,127 170,132 173,138 168,135 163,139 164,132 159,129 165,128 "/>
  <polygon class="fil2 str2" points="189,100 192,106 198,104 193,109 196,116 190,113 186,118 187,111 182,108 188,107 "/>
  <polygon class="fil2 str2" points="210,88 213,95 219,94 214,98 217,105 211,101 207,106 208,99 203,96 209,95 "/>
  <polygon class="fil2 str2" points="242,85 245,91 250,90 247,94 250,100 244,97 241,101 241,95 236,92 241,91 "/>
  <polygon class="fil2 str2" points="221,70 224,76 229,76 226,80 229,85 224,82 220,86 220,80 215,76 221,76 "/>
  <polygon class="fil2 str2" points="189,74 191,80 197,79 193,84 195,90 190,87 186,91 187,85 182,81 188,80 "/>
  <polygon class="fil2 str2" points="167,89 170,94 176,93 171,98 174,103 169,100 164,104 165,98 160,96 166,95 "/>
  <polygon class="fil2 str2" points="170,61 172,67 178,66 174,71 176,77 171,74 167,78 168,72 163,68 169,67 "/>
  <polygon class="fil2 str2" points="201,56 204,61 209,60 205,65 208,70 203,68 200,72 200,66 195,63 200,62 "/>
  <polygon class="fil2 str2" points="180,42 183,47 189,46 185,50 189,55 183,53 180,57 180,51 175,48 180,47 "/>
  <polygon class="fil2 str2" points="203,30 205,36 210,35 206,39 208,44 204,41 200,45 201,39 197,37 202,36 "/>
  <polygon class="fil2 str2" points="219,41 221,46 226,45 223,49 225,54 220,52 217,55 218,50 213,47 218,46 "/>
  <polygon class="fil2 str2" points="233,23 235,29 241,28 237,32 239,38 234,35 230,39 232,33 227,30 232,29 "/>
  <polygon class="fil2 str2" points="265,30 267,35 271,34 268,38 270,43 266,40 262,44 263,39 259,36 264,35 "/>
  <polygon class="fil2 str2" points="292,25 294,30 299,29 295,33 297,37 293,35 289,38 290,33 286,31 291,30 "/>
  <polygon class="fil2 str2" points="284,43 286,48 290,48 287,51 288,56 285,53 281,57 282,52 278,49 283,49 "/>
  <polygon class="fil2 str2" points="253,43 255,48 260,48 256,52 258,57 254,54 250,58 251,52 247,49 252,49 "/>
  <polygon class="fil2 str2" points="232,60 235,64 241,66 237,66 240,70 235,68 233,72 232,67 227,63 232,64 "/>
  <polygon class="fil2 str2" points="207,50 211,51 218,55 214,55 218,59 212,56 211,59 210,55 204,50 209,52 "/>
  <polygon class="fil2 str2" points="187,40 189,43 189,45 192,45 197,47 "/>
  <path class="fil2 str2" d="M239 64c-1,-1 -3,-2 -3,-2l3 -1 0 -4 3 5 4 -1 -2 3 3 3 -8 -3z"/>
  <polygon class="fil2 str2" points="172,33 174,31 169,30 166,27 165,29 "/>
  <polygon class="fil2 str2" points="248,156 252,162 258,161 254,166 257,172 251,169 248,173 248,167 242,163 248,163 "/>
  <polygon class="fil2 str2" points="271,133 273,139 279,138 274,143 276,149 271,146 267,151 268,144 263,140 269,140 "/>
  <polygon class="fil2 str2" points="303,111 306,116 312,114 308,119 311,124 305,122 301,126 302,120 296,118 302,117 "/>
  <polygon class="fil2 str2" points="252,126 255,132 260,131 256,136 259,141 254,138 250,143 251,136 245,133 251,132 "/>
  <polygon class="fil2 str2" points="283,113 286,119 292,118 287,123 290,129 285,126 280,131 281,124 276,121 282,120 "/>
  <polygon class="fil2 str2" points="294,85 297,89 303,88 299,92 302,96 297,94 293,97 293,92 287,90 293,89 "/>
  <polygon class="fil2 str2" points="263,98 266,104 272,103 267,108 270,114 265,111 260,115 261,109 256,105 262,104 "/>
  <polygon class="fil2 str2" points="252,72 255,77 260,77 257,80 261,85 256,82 253,85 253,80 248,77 252,77 "/>
  <polygon class="fil2 str2" points="293,61 295,65 300,65 297,68 299,72 295,70 292,73 292,68 288,66 292,66 "/>
  <polygon class="fil2 str2" points="272,54 274,59 279,58 275,62 277,67 273,65 269,68 270,63 266,60 271,59 "/>
  <polygon class="fil2 str2" points="274,84 277,89 282,89 280,92 283,98 278,94 275,98 275,92 270,89 274,89 "/>
  <polygon class="fil2 str2" points="270,76 256,71 261,75 261,77 264,76 270,77 "/>
  <path class="fil2 str2" d="M277 81l5 0 1 -1 4 2 4 0 -2 2 2 2c0,0 -5,-2 -5,-2 0,0 -2,2 -3,2 0,-1 0,-3 0,-3l-6 -2z"/>
  <path class="fil5" d="M361 292c0,0 -1,0 -1,1 0,0 -1,0 -1,0 0,0 0,0 -1,0 0,0 0,0 0,0 0,-1 0,-1 0,-1 0,0 0,0 0,0 0,0 0,0 0,0 0,0 0,0 0,0 0,0 0,0 0,0 0,-1 0,-1 0,-1 0,0 0,-1 1,-1 0,0 0,0 0,0 0,0 0,0 0,0 0,0 1,0 1,1 0,0 1,0 1,1zm-1 0c0,0 0,-1 0,-1 0,0 0,0 0,0 0,0 0,0 0,0 0,0 0,0 0,0 0,0 0,0 0,0 0,0 -1,0 -1,0 0,0 0,0 0,0 0,0 0,0 0,0 0,0 0,0 0,0 0,0 0,0 0,0 -1,0 -1,0 -1,0 0,0 0,1 0,1 0,0 0,0 0,0 0,0 0,0 0,0 1,1 1,1 1,1 0,0 0,0 0,0 1,0 1,0 1,-1 0,0 0,0 0,0 0,0 0,0 0,0zm0 0c0,0 0,0 0,0 -1,0 -1,0 -1,0 0,0 0,0 0,0l0 0c-1,0 -1,0 -1,0 0,0 0,0 1,-1 0,0 0,0 0,0 0,0 0,0 0,0 0,0 1,0 1,0 0,0 0,0 -1,0 0,0 0,0 0,0 0,0 0,0 0,0 0,0 0,0 0,1 0,0 0,0 0,0 0,0 0,0 0,0 0,0 0,0 0,0 1,0 1,0 1,0 0,0 0,0 0,0z"/>
  <path id="1" class="fil5" d="M366 293c0,1 0,1 -1,1 0,0 0,0 0,0 0,-1 -1,-1 -1,-1 0,0 0,0 -1,0 0,0 0,0 0,0 0,0 0,0 0,1 0,0 0,0 0,0 0,0 0,0 0,-1 0,0 0,0 0,0 0,0 0,0 0,-1l0 0c1,-1 1,-2 1,-2l0 0c0,0 0,0 0,0 1,-1 1,-1 1,-1 0,0 0,0 0,0 0,0 0,0 0,1 0,0 0,0 0,0 0,0 0,1 0,2l0 0c0,0 0,1 0,1 0,0 1,0 1,0 0,0 0,0 0,0zm-1 0l0 0c0,0 0,0 0,-1l0 -1c0,0 0,-1 0,-1 -1,0 -1,1 -1,1l0 1c0,0 0,0 0,0 0,0 0,0 -1,0 0,0 0,1 0,1 0,0 0,0 0,0 0,0 0,0 0,0l1 0c0,0 0,0 0,0 0,0 0,0 1,0 0,0 0,0 0,0z"/>
  <path id="2" class="fil5" d="M368 292c0,0 0,0 0,1 0,0 0,0 0,1 0,0 0,0 0,0 0,0 0,0 -1,-1 0,0 0,0 0,0 0,0 0,0 1,0 0,0 0,0 0,-1 0,0 0,0 -1,0 0,0 0,0 0,0 0,1 0,1 0,1 0,0 -1,0 -1,0 0,0 0,0 0,0 0,0 0,0 0,0l0 0c0,0 0,0 0,0 0,0 1,0 1,-1 0,0 1,0 1,0 0,0 0,0 0,0 0,0 0,0 0,0z"/>
  <path id="3" class="fil5" d="M370 292c0,0 0,0 0,1 0,0 0,0 0,1 0,0 0,0 0,0 0,0 0,0 0,-1 0,0 0,0 0,0 0,0 0,0 0,0 0,0 0,0 0,-1 0,0 0,0 0,0 0,0 0,0 -1,0 0,1 0,1 0,1 0,0 0,0 -1,0 0,0 0,0 0,0 0,0 0,0 0,0l0 0c0,0 0,0 1,0 0,0 0,0 0,-1 0,0 1,0 1,0 0,0 0,0 0,0 0,0 0,0 0,0z"/>
  <path id="4" class="fil5" d="M372 293c0,0 0,0 0,0 0,0 0,0 0,0 0,0 0,0 0,0 0,0 0,0 0,0 0,0 0,0 -1,0 0,0 0,0 0,0 0,0 0,0 0,0 -1,0 -1,0 -1,0 0,0 1,0 1,0 0,-1 0,-1 1,-1 0,0 0,0 0,0l0 0c0,1 0,1 0,1 0,0 0,0 0,0 0,-1 0,-1 0,-1 0,0 -1,1 -1,1 0,0 0,0 0,0 0,0 0,0 0,0 0,0 0,0 0,0 0,0 0,0 0,0 1,0 1,0 1,0 0,0 0,0 0,0 0,0 0,0 0,0 0,0 0,0 0,0l0 0z"/>
  <path id="5" class="fil5" d="M378 293c0,0 0,0 0,0 0,0 0,0 0,0 0,0 0,0 -1,0 0,0 0,0 0,0 0,0 0,0 0,0 0,0 -1,0 -1,0 0,0 0,0 -1,0 0,-1 0,-1 0,-1 0,0 0,0 0,0 1,-1 1,-1 1,-1 0,0 0,0 0,0 0,0 0,0 1,0 0,0 0,-1 0,-1 0,0 0,0 0,0 0,0 1,0 1,0l0 0 0 0c-1,0 -1,0 -1,0 0,1 -1,1 -2,2 1,0 1,1 1,1 0,0 1,0 1,0 0,0 1,0 1,0 0,0 0,0 0,0zm-3 -2l0 2c0,0 0,0 0,0 -1,0 -1,0 -1,0 0,0 0,0 0,0 1,0 1,-1 1,-1 0,0 0,-1 0,-1 0,0 0,-1 0,-1 0,0 0,0 0,0 0,0 0,0 0,1z"/>
  <path id="6" class="fil5" d="M380 294l0 0c0,0 0,0 0,-1 0,0 0,0 0,0 0,0 0,0 0,0 0,0 0,0 -1,0l0 0c0,0 0,0 0,0 -1,0 -1,0 -1,0 0,0 0,0 0,0l0 -2c0,-1 0,-1 0,-2 0,0 1,0 1,0 0,1 0,1 -1,1 0,1 0,1 0,1 0,1 0,1 0,1 0,1 0,1 0,1l0 0c0,0 0,0 0,0 0,0 0,0 0,0 0,0 0,0 0,0 0,0 0,0 0,0 0,0 0,0 0,0 1,0 1,0 1,0 0,0 1,0 1,0 0,0 0,0 0,0 0,0 0,0 0,0 0,0 0,0 0,0 0,0 0,0 0,0 0,0 0,0 0,0 0,1 0,1 0,1l0 0z"/>
  <path id="7" class="fil5" d="M382 293c0,0 0,0 0,0 0,0 0,0 0,0 0,0 0,0 0,0 0,0 0,0 0,0 0,0 0,0 -1,0 0,0 0,0 0,0 0,0 -1,0 -1,0 0,0 0,0 0,0 0,0 0,0 1,0 0,-1 0,-1 1,-1 0,0 0,0 0,0l0 0c0,1 0,1 0,1 0,0 0,0 0,0 0,-1 -1,-1 -1,-1 0,0 0,1 0,1 0,0 0,0 0,0 0,0 0,0 0,0 0,0 0,0 0,0 0,0 0,0 0,0 1,0 1,0 1,0 0,0 0,0 0,0 0,0 0,0 0,0 0,0 0,0 0,0l0 0z"/>
  <path id="8" class="fil5" d="M386 293c0,0 0,0 0,0 0,0 0,0 0,0 0,0 0,0 0,0 -1,0 -1,0 -1,0 0,0 0,0 0,0 0,0 0,0 0,0 0,0 0,0 0,0l0 0c0,0 0,0 0,0l-1 0c0,0 0,0 0,0 0,0 0,0 0,0 0,0 0,0 0,0 0,0 0,0 0,0 0,0 0,0 0,0l0 0c0,0 -1,0 -1,0l0 0c0,0 0,0 0,0 0,0 0,0 0,0 0,0 0,0 0,0 1,-1 1,-1 1,-1 0,0 0,0 0,1 0,0 0,0 0,0 0,0 0,0 0,0 0,0 0,0 0,0 0,0 0,0 0,0 0,0 0,0 1,0 0,-1 0,-1 0,-1 0,0 0,0 1,0 0,0 0,0 0,1z"/>
  <path id="9" class="fil5" d="M387 293c0,0 0,0 0,0 0,0 0,0 0,0 0,0 -1,0 -1,0 0,0 0,0 0,0 0,0 0,0 0,0 0,0 0,0 0,0 0,0 0,0 0,0 0,0 0,0 1,0 0,0 0,0 0,0 0,0 0,0 0,0 0,0 0,0 0,0 0,0 0,0 -1,0 0,-1 0,-1 0,-1 0,0 0,0 0,0 1,0 1,0 1,0 0,0 0,0 0,0l0 0 -1 0c0,0 0,0 0,0l1 0c0,1 0,1 0,1z"/>
  <path id="10" class="fil5" d="M390 293c0,0 0,0 0,0 0,0 -1,0 -1,0 0,0 0,0 0,0 0,0 0,0 0,0 0,0 0,0 0,0 -1,0 -1,0 -1,0 0,0 0,0 0,0 0,0 0,0 0,0 0,0 0,0 0,0 0,-1 1,-1 1,-1 0,0 0,0 0,0l0 0c0,1 0,1 0,1 0,0 0,0 0,0 0,-1 0,-1 0,-1 0,0 0,1 -1,1 0,0 0,0 0,0 0,0 0,0 0,0 0,0 0,0 0,0 0,0 0,0 1,0 0,0 0,0 0,0 0,0 0,0 0,0 0,0 0,0 0,0 1,0 1,0 1,0l0 0z"/>
  <path id="11" class="fil5" d="M393 293c0,0 0,0 0,0 0,0 0,0 0,0 0,0 0,0 0,0 0,0 0,0 0,0 0,0 0,0 0,0 0,0 0,0 0,0 0,0 0,0 0,0l0 0c0,0 -1,0 -1,0l-1 0c0,0 0,0 0,0 0,0 0,0 0,0 0,0 0,0 0,0 0,0 0,0 0,0 0,0 0,0 0,0l0 0c0,0 0,0 -1,0l0 0c0,0 0,0 0,0 0,0 0,0 0,0 0,0 0,0 1,0 0,-1 0,-1 0,-1 0,0 0,0 0,1 0,0 0,0 0,0 0,0 0,0 0,0 0,0 0,0 0,0 0,0 0,0 0,0 0,0 1,0 1,0 0,-1 0,-1 0,-1 1,0 1,0 1,0 0,0 0,0 0,1z"/>
  <path id="12" class="fil5" d="M395 292l0 0c0,0 0,0 0,0 0,0 0,0 0,0 0,0 0,0 -1,0l0 0c0,0 0,0 0,0 0,0 0,0 0,0 0,0 0,1 0,1 0,0 0,0 0,0 0,0 0,0 0,0 0,0 0,0 0,0 0,0 -1,0 -1,0 0,0 0,0 0,0 0,0 0,0 0,0 0,0 0,0 0,0 0,0 0,0 1,-1 0,0 0,0 0,0 0,0 0,0 0,0 1,0 1,0 1,0l0 0z"/>
  <path id="13" class="fil5" d="M397 293c0,0 0,0 0,0 0,0 0,0 0,0 0,0 0,0 0,0 0,0 0,0 0,0 0,0 0,0 -1,0 0,0 0,0 0,0 0,0 0,0 0,0 -1,0 -1,0 -1,0 0,0 1,0 1,0 0,-1 0,-1 1,-1 0,0 0,0 0,0l0 0c0,1 0,1 0,1 0,0 0,0 0,0 0,-1 0,-1 0,-1 0,0 -1,1 -1,1 0,0 0,0 0,0 0,0 0,0 0,0 0,0 0,0 0,0 0,0 0,0 0,0 1,0 1,0 1,0 0,0 0,0 0,0 0,0 0,0 0,0 0,0 0,0 0,0l0 0z"/>
  <path id="14" class="fil5" d="M400 292c0,0 -1,0 -1,1 0,0 0,0 0,1 0,0 0,0 0,0 0,0 0,0 0,-1 0,0 0,0 0,0 0,0 0,0 0,0 0,0 0,0 0,-1 0,0 0,0 0,0 0,0 0,0 0,0 0,1 0,1 -1,1 0,0 0,0 0,0 0,0 0,0 0,0 0,0 0,0 0,0l0 0c0,0 0,0 0,0 0,0 0,0 1,-1 0,0 0,0 0,0 0,0 0,0 0,0 0,0 1,0 1,0z"/>
  <path id="15" class="fil5" d="M405 290c0,1 0,1 -1,1 0,0 0,0 0,0 0,1 -1,1 -2,2 0,0 0,0 0,0 0,0 0,0 0,0 0,0 0,0 1,0 0,0 0,0 0,0l1 0c0,0 0,0 0,0 0,0 0,0 0,0l1 0 0 0c-1,0 -1,0 -1,0 0,0 -1,0 -1,0l0 0c0,0 0,0 0,0 0,0 0,0 0,0 0,0 0,0 0,0 0,0 -1,0 -1,0 0,0 0,0 0,0 0,0 0,0 0,0l0 0c0,0 0,0 0,0 0,0 0,0 0,0 0,0 0,0 0,0 0,0 1,-1 1,-1 0,0 0,0 1,-1 0,0 0,0 0,-1 0,0 0,0 0,0 0,0 0,0 -1,1 0,0 -1,0 -1,0 0,0 0,0 0,0l0 0c0,0 0,0 0,0 0,0 0,0 0,0 1,0 1,0 1,0 0,-1 1,-1 1,-1 0,0 0,0 1,0 0,0 0,0 0,0z"/>
  <path id="16" class="fil5" d="M408 291c0,1 0,1 0,1 0,0 0,1 -1,1 0,0 -1,0 -1,0 0,0 -1,0 -1,0 0,0 0,0 0,-1 0,0 0,0 0,0 0,0 0,0 0,0 0,0 0,0 0,0 0,-1 0,-1 1,-2 0,0 0,0 0,0 1,0 1,0 1,0 0,0 0,0 1,0 0,0 0,0 0,0 0,1 0,1 0,1zm0 1l0 -1c0,0 0,0 0,-1 0,0 -1,0 -1,0 0,0 0,0 0,0 0,0 -1,0 -1,1 0,0 0,0 0,0 -1,0 -1,0 -1,0l0 0c1,0 1,0 1,0 0,0 0,0 0,0 -1,0 -1,1 -1,1 0,0 0,0 0,0 0,0 0,1 0,1 1,0 1,0 1,0 0,0 0,0 0,0 1,0 1,0 1,0 0,0 0,-1 1,-1 0,0 0,0 0,0 0,0 0,0 0,0 0,0 0,0 0,0z"/>
  <path id="17" class="fil5" d="M409 291c0,0 0,0 0,0 0,0 0,1 0,1 0,1 0,1 0,1 0,0 0,0 -1,0 0,0 0,0 0,0 0,0 0,0 0,0l1 -2 0 0c0,0 0,0 0,0z"/>
  <path id="18" class="fil5" d="M410 293c0,0 0,0 0,0 0,0 0,0 0,0 0,0 0,0 0,0 0,0 0,0 0,0 0,0 0,0 1,0 0,0 0,0 0,0 0,0 0,0 1,0 0,0 0,-1 0,-1 0,0 0,0 0,0 0,0 0,0 0,0l-1 0c0,0 0,0 0,0 0,0 0,0 -1,0 0,0 0,0 0,0 0,0 0,0 0,0 0,0 0,0 0,0 0,0 0,0 0,0 0,0 0,0 0,1zm0 -1c0,0 0,0 0,0 0,0 0,0 0,0 0,0 0,0 0,0 0,0 0,0 0,0l0 -1c0,0 -1,0 -1,0 0,0 0,0 1,0 0,0 0,-1 0,-1l0 0c0,1 0,1 0,1 0,0 0,0 0,0 0,0 0,0 0,0 0,0 0,0 0,0l0 0c0,0 1,0 1,0 0,0 0,0 0,0 0,0 0,0 0,0 0,0 0,0 0,0 0,0 0,0 0,0 0,0 0,0 0,0 0,0 0,0 0,0 0,0 0,0 0,-1 0,0 0,0 0,0 0,0 0,0 0,0 0,0 0,0 0,0 0,0 0,0 0,0 0,0 0,0 0,0 0,0 0,0 0,0 -1,0 -1,0 -1,0 0,0 0,0 0,0 0,0 0,0 0,0 0,0 0,0 0,0 0,0 0,0 0,0 0,0 0,0 0,0 0,0 0,0 0,0 0,0 0,0 0,0 0,0 0,0 0,0 0,0 1,0 1,0 0,0 0,0 0,0 0,0 0,0 0,0 0,0 0,0 0,0 0,0 0,0 0,0 0,0 0,0 1,0 0,0 0,1 0,1 0,0 0,0 -1,0 0,0 0,0 0,0 0,0 0,0 0,0 0,0 0,0 0,0 0,0 0,0 0,0 1,0 1,1 1,1 0,0 0,0 0,0 0,0 0,1 0,1 0,0 0,0 0,0 0,0 0,0 -1,0 0,0 0,0 0,0 0,0 0,0 0,0 0,0 -1,0 -1,0 0,0 0,0 0,0 0,0 0,0 0,0 0,0 0,0 0,0 0,0 0,0 0,-1l0 0z"/>
  <g id="_2016686535120">
   <path class="fil6 str3" d="M324 141c8,-4 18,0 15,13 -2,12 -12,21 -19,26 -4,4 -4,8 -8,8 -4,3 -2,2 -4,0 -1,0 -11,-8 -11,-8 0,0 -13,8 -14,7 -1,0 -2,-1 -3,-2 -2,-2 -7,-4 -10,-6 -4,-3 -8,-7 -12,-11 -5,-5 -8,-11 -10,-15 -2,-9 4,-18 17,-13 1,-3 -6,-8 -6,-9 0,-1 -1,-2 -1,-3 0,-1 0,-2 2,-3 0,0 1,0 1,-2 0,-1 0,-3 2,-2 1,-1 1,-1 1,-2 0,-2 2,-3 4,-2 10,-2 5,4 10,3 1,1 2,3 2,4 -1,2 0,3 0,6 0,2 -3,2 -2,4 6,6 12,10 17,16 6,-6 13,-12 16,-16 -1,-1 -2,-2 -3,-4 0,-2 1,-4 1,-6 -1,-4 1,-5 4,-5 1,-2 4,-3 7,-2 1,0 2,0 2,1 0,1 1,1 2,1 2,0 1,1 2,2 0,1 1,1 2,1 1,0 2,1 2,3 0,1 1,2 1,4 -1,7 -4,9 -7,12z"/>
   <path class="fil7 str3" d="M261 281c2,6 3,11 4,17 12,0 22,0 34,0 0,-10 1,-22 -1,-32 -30,-54 25,3 -2,-52 -16,1 -8,-1 -24,0 -6,21 -11,44 -11,67z"/>
   <path class="fil8 str3" d="M302 265c5,12 9,23 17,33 12,0 21,1 32,0 -5,-26 -13,-58 -31,-87 -16,1 -15,1 -31,2 13,39 7,44 13,52z"/>
   <path class="fil6 str0" d="M252 159c5,10 8,15 10,18 3,4 3,7 7,12 5,8 5,15 2,24 -6,14 -14,44 -17,73 1,0 3,0 8,0 0,-1 -1,-5 -1,-5 3,-2 7,-3 11,-3 13,0 23,5 28,7 17,7 33,-14 48,-7 -7,-22 -13,-50 -25,-66 -4,-5 -6,-11 -1,-19 2,-4 2,-8 6,-16 2,-4 5,-10 8,-18 -31,0 -53,0 -84,0z"/>
   <path class="fil6" d="M293 82c-1,-2 -5,-4 -8,-2 -5,1 -7,5 -10,14 -1,0 -2,-2 -3,1 0,1 -1,-1 -1,2 0,1 -1,-2 -1,0 0,2 -3,1 -1,3 2,2 -2,-1 0,2 4,6 -5,0 -1,4 0,1 -1,0 -2,0 0,1 4,3 1,5 0,0 -3,-1 -1,3 1,2 -3,3 0,5 3,1 -2,3 -2,4 0,3 -2,1 1,4 1,1 -2,2 0,4 1,1 -1,2 -1,3 -2,3 0,3 0,2 1,-1 6,1 4,5 0,0 -3,3 0,2 0,0 3,-4 2,-5 -1,-2 -1,-3 -3,-4 -1,0 1,-1 -1,-3 0,0 -1,-4 1,-2 4,5 2,1 2,3 0,5 2,1 2,6 0,1 -2,1 -1,3 1,2 1,1 -1,1 -1,0 -2,2 -1,2 1,1 0,3 3,3 0,-1 -3,-3 -1,-3 2,1 0,1 4,1 3,0 0,-2 2,-1 3,2 6,-4 3,-1 -3,3 -6,-7 -1,-4 1,1 3,3 4,1 1,-2 3,0 0,-2 0,-1 0,2 -2,1 -1,-1 -2,-1 -1,-3 1,0 1,-1 3,-1 3,0 -2,-4 -1,-5 1,0 2,0 2,-2 0,0 -1,-2 -2,-3 0,-1 0,-1 -1,-2 -1,-1 -3,-15 -3,-16 1,-2 0,-2 1,-4 0,-1 3,-5 3,-7 1,-6 4,-9 8,-9 1,0 3,1 4,2 2,0 6,-3 9,2 1,2 3,8 3,12 0,1 1,2 2,4 0,4 -2,4 -2,7 0,1 -1,4 -1,6 0,4 -1,4 -2,6 0,1 0,1 -1,2 -1,4 -5,6 -1,11 0,0 -2,-2 0,-3 1,0 0,4 1,5 1,2 5,6 5,1 0,4 -4,-1 -2,-2 0,0 5,4 7,0 0,-2 -3,-4 1,-2 1,0 -1,-2 0,1 1,1 6,7 5,3 -1,3 -5,-6 0,-2 1,1 3,3 5,1 0,-2 -2,-4 0,-2 1,0 2,-2 1,-3 1,0 1,1 3,2 4,0 1,1 2,-2 1,1 2,3 5,2 1,0 0,-5 4,0 1,1 -3,1 -4,1 0,0 3,3 4,2 2,-2 0,-5 -1,-7 -1,-1 -4,0 -2,-1 1,-1 5,1 4,2 -1,-1 -2,-6 -5,-4 -1,1 -4,-1 -3,-1 3,2 0,-4 1,-2 0,2 -4,4 -2,1 0,0 1,-6 -2,-3 -1,0 -2,-2 -2,-3 0,-2 -1,-2 0,-3 0,0 1,-1 0,0 -1,1 -5,-4 -2,-7 2,-1 -2,0 -3,-2 0,-1 -3,-3 -1,-6 0,-1 -2,1 -2,-4 1,-4 -5,-5 -5,-10 -1,-2 -3,-2 -5,-6 -1,-3 -5,-6 -9,-6 -4,0 -2,1 -5,3 0,0 0,1 0,0z"/>
   <path class="fil9" d="M292 84c0,-4 7,-2 4,-4 -1,-1 2,0 1,1 0,0 -1,1 -1,1 0,-1 5,2 5,1 1,-2 -1,-3 1,-1 0,0 1,2 1,1 -1,-6 4,2 1,2 -1,0 0,-1 2,1 2,2 -1,4 3,6 1,1 1,1 1,-1 -1,-1 -2,-2 0,0 2,2 2,4 1,6 0,0 -1,2 -1,2 1,-1 4,1 3,3 -1,2 1,2 1,5 0,2 4,-4 4,-1 0,2 -3,1 -3,6 0,1 1,4 1,3 2,-2 4,1 3,3 -1,0 0,0 -1,0 0,1 0,0 0,1 1,2 6,3 6,3 0,2 0,2 -2,1 0,1 0,2 0,2 1,-1 4,1 2,3 -1,1 0,2 0,2 -4,-3 -2,-2 -3,-4 0,-1 -2,1 -1,2 2,2 -2,1 -2,-1 0,-1 1,-1 0,0 -1,0 1,0 -1,0 0,0 0,2 0,1 -1,-1 2,-1 1,-3 -1,-2 1,0 -1,-2 -2,-1 -4,-8 -1,-4 0,0 -3,-3 -2,-5 0,-1 0,-3 0,0 0,1 -3,0 -2,1 1,1 2,-1 2,2 0,1 -3,1 -1,2 0,0 1,-2 1,0 0,1 3,1 -1,5 -1,0 -2,0 0,-1 0,-1 0,-2 -1,1 -1,1 -5,5 -5,5 2,2 -2,2 -3,4 0,0 -3,1 -2,1 2,-1 2,0 1,1 -2,2 1,2 -1,4 -1,1 3,0 -1,3 0,0 2,0 0,1 0,0 -1,0 1,-1 1,-1 -1,-2 0,-4 1,-1 0,0 0,-1 -2,-4 1,-1 0,-3 -1,-3 1,-2 2,-4 0,0 -2,-1 1,-2 0,0 3,-1 3,-2 -2,-2 0,0 2,-3 1,-1 5,-2 4,-3 -1,-1 -3,4 -3,-1 0,0 4,-3 1,-3 0,0 -2,3 -1,0 0,0 2,-1 2,-3 -1,0 -3,2 -2,0 0,-1 2,-1 2,-4 -1,-1 -1,3 -2,3 -2,1 1,-3 1,-4 0,-2 0,0 -3,1 -1,-1 3,-1 0,-5 -1,-1 2,1 1,-1 -1,0 0,-2 2,1 -1,-3 2,-2 0,-4 -3,-4 -3,2 -5,1 -2,-1 3,-2 2,-4 -1,-1 -4,2 -3,-1 0,0 2,-1 1,-4 -1,0 0,2 -3,2 0,0 4,-5 0,-8 -1,-1 -5,-4 -7,-3 -7,4 2,5 -4,4 -2,0 0,-3 -3,-4 -1,0 -3,-2 -2,1 1,0 0,-4 -2,-3 -1,0 2,1 1,2 -3,1 -2,-3 -5,0 -2,3 0,2 -1,3 -1,1 -3,1 0,1 1,0 1,-5 4,-3 1,1 -4,2 -2,4 0,0 0,-2 1,-2 0,0 1,1 -1,2 -1,0 0,1 -1,0 -3,-2 -3,2 -5,3 0,0 -2,2 -2,3 0,0 0,3 1,4 1,2 -2,-1 -2,-2 0,-1 -1,-2 -1,0 0,1 -1,0 -2,2 0,2 0,-3 -1,0 -2,2 1,1 0,3 0,0 -1,-2 -2,0 0,0 -1,-1 0,1 0,2 -2,3 -3,2 0,0 2,2 3,0 1,-1 0,-2 1,0 0,2 -5,1 -2,4 1,1 -1,0 -1,0 -1,1 2,2 1,4 0,0 -2,0 -1,1 0,1 1,-1 1,1 -2,0 -2,-1 -1,2 0,3 -1,-1 1,-1 1,1 -1,1 0,3 0,1 0,2 0,2 0,0 -1,1 -1,1 0,0 -2,1 -2,2 0,3 1,3 0,3 -1,-2 5,-7 5,-4 0,0 0,-1 -1,1 -1,3 1,1 0,3 0,1 -2,-1 -2,4 0,1 4,2 4,0 0,0 -1,2 -2,0 -1,-3 3,-5 3,-4 0,1 2,0 1,3 0,0 -1,2 -1,2 0,0 4,-2 3,-4 0,1 0,2 0,2 0,1 -4,3 -2,3 0,0 0,-2 0,-1 0,1 1,2 1,2 1,-2 5,2 2,1 -1,-1 -3,4 2,3 0,0 1,-2 2,2 0,0 -2,2 0,0 0,-1 1,-2 0,-2 -3,1 -5,0 -2,-2 3,-1 -3,-3 -3,-3 -1,-2 2,-1 3,-1 2,0 3,4 1,0 0,-1 -2,1 -1,-1 0,-2 0,-4 0,-1 0,1 -4,2 -2,-1 0,0 3,0 2,-3 0,0 -2,3 -5,-1 -1,-1 -3,-2 -1,-3 1,-2 5,4 5,4 1,-2 3,4 0,-2 -2,-3 2,0 2,-1 -1,0 -4,-2 -3,-2 1,0 1,-2 0,-2 -2,-1 2,-1 1,-1 0,-1 -4,-5 -1,-3 0,0 -4,-6 -2,-5 1,1 5,7 4,2 0,0 -2,-2 -2,-3 -1,0 -5,-2 -5,1 0,0 2,3 2,4 1,3 1,2 2,5 1,3 -2,5 -1,0 0,-2 -2,-1 -2,-4 0,0 -1,-4 -2,-1 0,0 -2,2 -1,3 1,-1 1,-4 2,-2 2,2 -2,0 2,4 0,0 0,1 -1,1 -2,2 -2,-2 -3,-3 -3,-4 0,-4 1,-5 0,-4 0,-2 2,-6 0,0 -1,-5 0,-1 1,2 -2,2 2,3 1,0 2,-1 3,1 1,2 0,-1 -2,-2 -3,-3 -4,-5 0,-1 3,3 0,-2 2,-2 0,0 0,0 0,-1 0,-1 -2,-4 -2,-1 0,2 0,4 -2,1 -3,-4 0,0 2,-4 0,0 -1,0 0,0 0,0 3,2 3,0 0,0 -2,-2 0,-2 0,-3 1,0 1,-3 0,0 1,-3 2,-3 1,0 0,-2 0,2 0,1 -1,1 1,0 1,-2 -2,-3 1,-3 3,1 1,-4 4,-4 2,1 1,1 2,0 2,-1 2,3 4,-1 0,-1 0,0 0,0z"/>
   <path class="fil0" d="M291 88c-4,-2 -7,0 -9,4 -1,2 -1,4 -2,6 -2,5 -3,4 -2,16 0,2 1,5 2,7 3,4 4,11 3,19 -1,3 -1,6 -1,8 -1,1 14,-3 14,-4 0,0 3,-3 4,-7 2,-5 2,-12 2,-15 1,-2 1,-2 2,-4 1,-1 1,-6 2,-7 0,-2 0,-5 -1,-6 0,-2 -1,-3 -1,-5 0,-2 0,-4 -1,-5 -1,-5 -3,-8 -7,-6 -2,0 -3,0 -5,-1z"/>
   <path class="fil10 str0" d="M253 140c5,-5 34,-7 40,-14 15,9 37,10 43,16 -6,0 -12,4 -18,5 -16,0 -33,-2 -50,-3 -4,0 -11,-4 -15,-4z"/>
   <path class="fil6" d="M291 88c-4,-2 -7,0 -9,4 -1,2 -1,4 -2,6 -2,5 -5,4 -3,16 0,2 2,5 3,7 1,8 -4,16 3,19 -1,3 0,1 -1,8 -2,6 20,6 22,-5 0,0 1,1 3,-4 1,-4 -4,-12 -3,-15 0,-3 1,-1 2,-3 0,-2 1,-8 2,-9 0,-2 0,-6 0,-7 1,-1 -3,-10 -5,-10 -1,-5 -3,-8 -7,-6 -2,0 -3,0 -5,-1z"/>
   <path class="fil11" d="M288 127c-3,-1 0,1 0,2 0,3 -2,-1 -3,0 -1,4 4,10 2,12 0,1 -3,-6 -3,1 -1,4 2,6 5,5 1,-1 3,-7 3,-6 0,0 -1,5 1,6 5,1 6,-2 3,-6 -2,-2 2,2 4,4 0,1 -2,-4 0,-8 0,-1 -2,-4 0,-8 0,-1 0,-3 -1,-3 -6,4 -5,4 -11,1zm5 -2c1,-1 5,-2 5,-2 2,-1 5,-3 5,-6 0,-3 0,-3 0,-4 0,0 1,-2 1,-2 0,-1 1,-5 0,-7 -1,-1 0,-2 0,-4 0,-2 0,-4 -1,-5 -1,-5 -3,-8 -7,-6 -2,0 -3,0 -5,-1 -4,-2 -7,0 -9,4 -1,2 -1,4 -2,6 -1,2 -1,5 -2,7 0,3 0,6 1,9 1,4 2,5 4,8 1,1 2,1 4,2 0,0 1,0 2,1 0,0 3,0 4,0z"/>
   <path class="fil12 str0" d="M320 180c0,0 2,-11 9,-10 -2,14 -17,27 -20,37 4,-5 15,1 8,4l-19 8c-28,1 23,-2 -3,-1 0,0 -1,0 -1,0l-20 -7c-6,-2 5,-8 9,-2 -3,-12 -9,-18 -15,-26 -3,-4 -7,-8 -10,-13 8,7 13,8 24,7 5,0 10,4 15,2 17,-4 31,-19 23,1z"/>
   <path class="fil11" d="M296 151c6,-6 12,-8 15,-15 1,-2 6,-4 7,-5 -1,1 -2,1 -3,1 -1,0 -1,1 -1,1 -1,-1 -2,-3 -3,-4 0,-1 1,-2 2,-3 0,-3 0,-6 1,-5 1,0 2,1 2,0 2,0 3,-2 5,-1 -2,-2 -3,0 -5,1 -1,0 -1,-1 0,-2 4,-3 4,-2 6,0 2,0 3,1 3,2 0,3 3,0 3,4 0,1 2,1 2,3 0,2 -2,7 -5,9 -2,3 -11,20 -16,22 -5,-3 -11,-6 -13,-8z"/>
   <path class="fil11" d="M323 145c7,-11 20,0 15,11 -7,17 -22,26 -24,30 -3,2 -5,2 -7,0 -17,-13 -28,-28 -39,-43 -2,-7 -10,-14 -8,-12 0,-1 -1,-3 -1,-4 0,-1 1,-1 2,-2 0,-1 0,-1 0,-1 0,-2 1,-3 2,-3 1,0 1,-1 1,-2 1,-2 3,-1 4,-1 4,-2 5,-1 7,1 0,3 -4,-3 -6,1 4,-2 2,2 9,1 2,1 1,5 1,8 -1,1 -2,5 -3,3 0,-1 -2,-2 -2,-3 0,2 2,3 2,5 7,3 17,15 23,20 7,7 17,5 18,18 3,-10 -8,-14 -8,-13 2,-4 4,-7 9,-8 -4,0 0,3 -3,5 -1,-2 6,-10 8,-11z"/>
   <path class="fil11" d="M273 152c-1,-2 -9,-11 -12,-11 -2,-1 -4,-2 -7,0 -11,5 -3,18 3,23 8,10 11,14 24,20 3,2 3,3 4,0 0,-1 1,0 1,-1 1,-2 4,-3 6,-4 4,-1 -7,4 -5,5 1,0 8,-6 7,-6 -1,-1 -9,-10 -13,-16 -3,1 -7,3 -7,9 0,-4 -1,-6 5,-10 -1,-5 0,-9 -6,-9 2,0 -3,0 0,0z"/>
   <path class="fil13" d="M287 198c2,-4 4,-8 10,-9 4,1 6,5 9,8 -2,-4 -4,-8 -7,-11 2,-2 4,-5 7,-9 -3,3 -5,4 -9,7 -5,-2 -7,-4 -10,-5 2,2 4,4 8,7 -4,3 -6,8 -8,12z"/>
   <path class="fil14 str4" d="M311 135c5,0 11,3 11,9 -3,7 -6,11 -9,16 0,1 0,1 0,1l-13 -6c-4,-2 1,22 -2,24 -6,5 -12,9 -18,11 9,-12 11,-22 0,-29 12,-7 21,-16 31,-26z"/>
   <path class="fil15 str4" d="M278 134c-6,-2 -9,3 -11,7 8,20 26,37 48,52 -9,-13 -6,-34 -10,-36 -12,-7 -17,-14 -27,-23z"/>
   <path class="fil16 str0" d="M272 212c17,0 32,0 49,0 11,8 18,35 26,65 -19,-9 -29,11 -43,8 -5,-1 -29,-15 -48,-2 1,-14 7,-60 16,-71z"/>
   <path class="fil6 str3" d="M273 201c15,7 31,7 46,-1l2 10c-7,5 -15,5 -23,12 -6,-6 -25,-7 -27,-11l2 -10z"/>
   <polygon class="fil17" points="267,224 258,269 260,277 265,270 271,225 267,271 272,276 276,271 274,223 278,271 283,279 285,272 280,224 288,271 292,279 295,272 287,223 296,273 300,281 302,271 295,226 302,271 308,280 309,270 300,223 311,272 315,276 315,267 307,223 316,268 321,274 322,268 314,226 323,268 329,272 330,266 316,223 332,265 335,272 336,265 320,221 337,264 341,271 341,262 322,223 340,252 332,230 326,221 329,224 318,215 "/>
   <path class="fil18" d="M273 235c-1,-13 5,-14 7,-11 1,3 1,7 1,10l3 5 2 -5c1,0 0,-6 1,-9 3,-5 10,1 13,5 1,2 5,-13 11,-4 1,1 2,8 3,9l3 4 2 -5c0,-1 -4,-14 2,-7 5,6 1,7 6,0 4,-5 -6,-19 -9,-17 -2,1 -16,6 -17,7 -7,1 -1,5 -8,-1 -3,-3 -18,-3 -21,-4 -1,3 -5,8 -5,14 0,2 1,5 2,6l4 3z"/>
   <path class="fil19 str3" d="M273 200c15,7 31,7 46,-1l2 10c-7,5 -15,5 -23,12 -6,-5 -25,-7 -27,-11l2 -10z"/>
   <path class="fil20" d="M285 115c2,0 3,-1 4,-2 1,0 2,0 2,0 1,1 1,0 2,0 2,1 3,2 5,3 -1,0 -4,1 -4,1 -1,0 -2,0 -3,0 -1,0 -1,0 -2,0 -2,0 -3,-1 -4,-2z"/>
   <path class="fil6" d="M297 116c-1,0 -2,-1 -3,-2 0,0 -1,1 -1,1 -1,-1 -2,-1 -3,-1 -1,0 -1,0 -2,0 -1,1 -2,1 -3,1 2,0 2,0 4,0 1,0 3,0 5,0 1,0 2,1 3,1z"/>
   <path class="fil6" d="M289 110c1,0 2,0 1,-1 0,0 0,0 0,0 -1,0 -1,0 -1,1z"/>
   <path class="fil6" d="M293 110c0,-1 1,-1 1,0 0,0 0,0 0,0 -1,0 -1,0 -1,0 0,0 0,-1 0,0z"/>
   <path class="fil21" d="M290 99c-1,-1 -3,-2 -5,-2 -2,0 -4,1 -5,5 2,-3 4,-5 7,-3 0,0 1,0 1,1 1,0 1,0 2,-1z"/>
   <path class="fil21" d="M296 100c0,-1 0,-1 1,-2 4,-1 5,0 8,3 -1,0 -2,-1 -3,-2 -1,-1 -2,0 -4,1 0,0 0,0 -1,0 0,0 -1,0 -1,0z"/>
   <path class="fil9" d="M290 102c-1,0 -1,-1 -2,-1 -3,-1 -5,0 -6,1 0,0 0,1 0,1 0,-1 1,-1 0,0 0,0 -1,0 -1,0 0,0 1,0 2,0 1,0 3,0 5,0 0,0 0,0 0,0 1,0 1,0 1,0 0,-2 -2,-2 -2,-2 0,0 2,0 2,1 0,0 1,0 1,0z"/>
   <path class="fil9" d="M295 102c1,0 1,-1 3,-1 3,-1 5,1 5,2 -1,-1 -2,-2 -2,-2 1,1 2,2 2,3 -1,-1 -1,-1 -2,-1 -2,1 -3,0 -5,0 0,0 -1,0 -1,0 0,-1 2,-2 4,-2 -1,0 -3,1 -4,1z"/>
   <path class="fil2" d="M284 101c0,1 0,1 0,2 0,0 -1,0 -1,-1 0,0 1,0 1,-1z"/>
   <path class="fil2" d="M287 101c-1,0 1,1 1,2 -1,0 -1,0 -1,0 0,-1 0,-1 0,-2z"/>
   <path class="fil2" d="M287 101c-1,0 -1,1 -1,1 0,0 0,0 0,-1 0,0 0,1 0,1 0,0 0,-1 -1,-1 0,0 1,1 0,1 0,0 0,-1 0,0 0,0 0,0 0,0 0,0 0,0 0,0 0,0 0,0 -1,0 0,0 0,0 0,0 0,0 1,-1 1,0 0,0 0,0 0,0 -1,-1 1,-1 2,-1 0,0 0,0 0,0z"/>
   <path class="fil22" d="M298 102c0,0 -1,1 0,1 -1,0 -1,0 -2,0 0,-1 1,-1 2,-1z"/>
   <path class="fil2" d="M300 102c1,0 1,0 1,1 0,0 -1,0 -1,0 0,0 1,-1 0,-1z"/>
   <path class="fil2" d="M298 102c0,0 0,0 0,0 1,0 1,0 1,0 0,0 0,0 0,0 0,0 1,0 1,0 0,0 0,0 0,0 0,0 0,0 -1,0 0,-1 -1,-1 -1,0 0,0 0,0 0,0z"/>
   <path class="fil6" d="M306 98c-1,-8 -9,-9 -14,-15 -4,5 -14,7 -13,14 4,-5 21,-7 27,1z"/>
   <path class="fil23" d="M306 97c-1,-9 -9,-10 -14,-15 -3,5 -14,7 -13,14 4,-5 21,-7 27,1z"/>
   <path class="fil24" d="M288 115c0,0 -1,0 -1,1 0,0 2,1 2,0 1,0 3,0 4,1 1,0 2,-1 2,-1 0,-1 -1,-1 -1,-1 -1,0 -2,0 -3,0 -1,0 -2,0 -3,0z"/>
   <polygon class="fil13" points="290,86 292,88 294,86 292,88 294,90 292,88 290,90 292,88 "/>
  </g>
  <g id="_2016686553296">
   <path class="fil6 str3" d="M324 141c8,-4 18,0 15,13 -2,12 -12,21 -19,26 -4,4 -4,8 -8,8 -4,3 -2,2 -4,0 -1,0 -11,-8 -11,-8 0,0 -13,8 -14,7 -1,0 -2,-1 -3,-2 -2,-2 -7,-4 -10,-6 -4,-3 -8,-7 -12,-11 -5,-5 -8,-11 -10,-15 -2,-9 4,-18 17,-13 1,-3 -6,-8 -6,-9 0,-1 -1,-2 -1,-3 0,-1 0,-2 2,-3 0,0 1,0 1,-2 0,-1 0,-3 2,-2 1,-1 1,-1 1,-2 0,-2 2,-3 4,-2 10,-2 5,4 10,3 1,1 2,3 2,4 -1,2 0,3 0,6 0,2 -3,2 -2,4 6,6 12,10 17,16 6,-6 13,-12 16,-16 -1,-1 -2,-2 -3,-4 0,-2 1,-4 1,-6 -1,-4 1,-5 4,-5 1,-2 4,-3 7,-2 1,0 2,0 2,1 0,1 1,1 2,1 2,0 1,1 2,2 0,1 1,1 2,1 1,0 2,1 2,3 0,1 1,2 1,4 -1,7 -4,9 -7,12z"/>
   <path class="fil7 str3" d="M261 281c2,6 3,11 4,17 12,0 22,0 34,0 0,-10 1,-22 -1,-32 -30,-54 25,3 -2,-52 -16,1 -8,-1 -24,0 -6,21 -11,44 -11,67z"/>
   <path class="fil8 str3" d="M302 265c5,12 9,23 17,33 12,0 21,1 32,0 -5,-26 -13,-58 -31,-87 -16,1 -15,1 -31,2 13,39 7,44 13,52z"/>
   <path class="fil6 str0" d="M252 159c5,10 8,15 10,18 3,4 3,7 7,12 5,8 5,15 2,24 -6,14 -14,44 -17,73 1,0 3,0 8,0 0,-1 -1,-5 -1,-5 3,-2 7,-3 11,-3 13,0 23,5 28,7 17,7 33,-14 48,-7 -7,-22 -13,-50 -25,-66 -4,-5 -6,-11 -1,-19 2,-4 2,-8 6,-16 2,-4 5,-10 8,-18 -31,0 -53,0 -84,0z"/>
   <path class="fil6" d="M293 82c-1,-2 -5,-4 -8,-2 -5,1 -7,5 -10,14 -1,0 -2,-2 -3,1 0,1 -1,-1 -1,2 0,1 -1,-2 -1,0 0,2 -3,1 -1,3 2,2 -2,-1 0,2 4,6 -5,0 -1,4 0,1 -1,0 -2,0 0,1 4,3 1,5 0,0 -3,-1 -1,3 1,2 -3,3 0,5 3,1 -2,3 -2,4 0,3 -2,1 1,4 1,1 -2,2 0,4 1,1 -1,2 -1,3 -2,3 0,3 0,2 1,-1 6,1 4,5 0,0 -3,3 0,2 0,0 3,-4 2,-5 -1,-2 -1,-3 -3,-4 -1,0 1,-1 -1,-3 0,0 -1,-4 1,-2 4,5 2,1 2,3 0,5 2,1 2,6 0,1 -2,1 -1,3 1,2 1,1 -1,1 -1,0 -2,2 -1,2 1,1 0,3 3,3 0,-1 -3,-3 -1,-3 2,1 0,1 4,1 3,0 0,-2 2,-1 3,2 6,-4 3,-1 -3,3 -6,-7 -1,-4 1,1 3,3 4,1 1,-2 3,0 0,-2 0,-1 0,2 -2,1 -1,-1 -2,-1 -1,-3 1,0 1,-1 3,-1 3,0 -2,-4 -1,-5 1,0 2,0 2,-2 0,0 -1,-2 -2,-3 0,-1 0,-1 -1,-2 -1,-1 -3,-15 -3,-16 1,-2 0,-2 1,-4 0,-1 3,-5 3,-7 1,-6 4,-9 8,-9 1,0 3,1 4,2 2,0 6,-3 9,2 1,2 3,8 3,12 0,1 1,2 2,4 0,4 -2,4 -2,7 0,1 -1,4 -1,6 0,4 -1,4 -2,6 0,1 0,1 -1,2 -1,4 -5,6 -1,11 0,0 -2,-2 0,-3 1,0 0,4 1,5 1,2 5,6 5,1 0,4 -4,-1 -2,-2 0,0 5,4 7,0 0,-2 -3,-4 1,-2 1,0 -1,-2 0,1 1,1 6,7 5,3 -1,3 -5,-6 0,-2 1,1 3,3 5,1 0,-2 -2,-4 0,-2 1,0 2,-2 1,-3 1,0 1,1 3,2 4,0 1,1 2,-2 1,1 2,3 5,2 1,0 0,-5 4,0 1,1 -3,1 -4,1 0,0 3,3 4,2 2,-2 0,-5 -1,-7 -1,-1 -4,0 -2,-1 1,-1 5,1 4,2 -1,-1 -2,-6 -5,-4 -1,1 -4,-1 -3,-1 3,2 0,-4 1,-2 0,2 -4,4 -2,1 0,0 1,-6 -2,-3 -1,0 -2,-2 -2,-3 0,-2 -1,-2 0,-3 0,0 1,-1 0,0 -1,1 -5,-4 -2,-7 2,-1 -2,0 -3,-2 0,-1 -3,-3 -1,-6 0,-1 -2,1 -2,-4 1,-4 -5,-5 -5,-10 -1,-2 -3,-2 -5,-6 -1,-3 -5,-6 -9,-6 -4,0 -2,1 -5,3 0,0 0,1 0,0z"/>
   <path class="fil9" d="M292 84c0,-4 7,-2 4,-4 -1,-1 2,0 1,1 0,0 -1,1 -1,1 0,-1 5,2 5,1 1,-2 -1,-3 1,-1 0,0 1,2 1,1 -1,-6 4,2 1,2 -1,0 0,-1 2,1 2,2 -1,4 3,6 1,1 1,1 1,-1 -1,-1 -2,-2 0,0 2,2 2,4 1,6 0,0 -1,2 -1,2 1,-1 4,1 3,3 -1,2 1,2 1,5 0,2 4,-4 4,-1 0,2 -3,1 -3,6 0,1 1,4 1,3 2,-2 4,1 3,3 -1,0 0,0 -1,0 0,1 0,0 0,1 1,2 6,3 6,3 0,2 0,2 -2,1 0,1 0,2 0,2 1,-1 4,1 2,3 -1,1 0,2 0,2 -4,-3 -2,-2 -3,-4 0,-1 -2,1 -1,2 2,2 -2,1 -2,-1 0,-1 1,-1 0,0 -1,0 1,0 -1,0 0,0 0,2 0,1 -1,-1 2,-1 1,-3 -1,-2 1,0 -1,-2 -2,-1 -4,-8 -1,-4 0,0 -3,-3 -2,-5 0,-1 0,-3 0,0 0,1 -3,0 -2,1 1,1 2,-1 2,2 0,1 -3,1 -1,2 0,0 1,-2 1,0 0,1 3,1 -1,5 -1,0 -2,0 0,-1 0,-1 0,-2 -1,1 -1,1 -5,5 -5,5 2,2 -2,2 -3,4 0,0 -3,1 -2,1 2,-1 2,0 1,1 -2,2 1,2 -1,4 -1,1 3,0 -1,3 0,0 2,0 0,1 0,0 -1,0 1,-1 1,-1 -1,-2 0,-4 1,-1 0,0 0,-1 -2,-4 1,-1 0,-3 -1,-3 1,-2 2,-4 0,0 -2,-1 1,-2 0,0 3,-1 3,-2 -2,-2 0,0 2,-3 1,-1 5,-2 4,-3 -1,-1 -3,4 -3,-1 0,0 4,-3 1,-3 0,0 -2,3 -1,0 0,0 2,-1 2,-3 -1,0 -3,2 -2,0 0,-1 2,-1 2,-4 -1,-1 -1,3 -2,3 -2,1 1,-3 1,-4 0,-2 0,0 -3,1 -1,-1 3,-1 0,-5 -1,-1 2,1 1,-1 -1,0 0,-2 2,1 -1,-3 2,-2 0,-4 -3,-4 -3,2 -5,1 -2,-1 3,-2 2,-4 -1,-1 -4,2 -3,-1 0,0 2,-1 1,-4 -1,0 0,2 -3,2 0,0 4,-5 0,-8 -1,-1 -5,-4 -7,-3 -7,4 2,5 -4,4 -2,0 0,-3 -3,-4 -1,0 -3,-2 -2,1 1,0 0,-4 -2,-3 -1,0 2,1 1,2 -3,1 -2,-3 -5,0 -2,3 0,2 -1,3 -1,1 -3,1 0,1 1,0 1,-5 4,-3 1,1 -4,2 -2,4 0,0 0,-2 1,-2 0,0 1,1 -1,2 -1,0 0,1 -1,0 -3,-2 -3,2 -5,3 0,0 -2,2 -2,3 0,0 0,3 1,4 1,2 -2,-1 -2,-2 0,-1 -1,-2 -1,0 0,1 -1,0 -2,2 0,2 0,-3 -1,0 -2,2 1,1 0,3 0,0 -1,-2 -2,0 0,0 -1,-1 0,1 0,2 -2,3 -3,2 0,0 2,2 3,0 1,-1 0,-2 1,0 0,2 -5,1 -2,4 1,1 -1,0 -1,0 -1,1 2,2 1,4 0,0 -2,0 -1,1 0,1 1,-1 1,1 -2,0 -2,-1 -1,2 0,3 -1,-1 1,-1 1,1 -1,1 0,3 0,1 0,2 0,2 0,0 -1,1 -1,1 0,0 -2,1 -2,2 0,3 1,3 0,3 -1,-2 5,-7 5,-4 0,0 0,-1 -1,1 -1,3 1,1 0,3 0,1 -2,-1 -2,4 0,1 4,2 4,0 0,0 -1,2 -2,0 -1,-3 3,-5 3,-4 0,1 2,0 1,3 0,0 -1,2 -1,2 0,0 4,-2 3,-4 0,1 0,2 0,2 0,1 -4,3 -2,3 0,0 0,-2 0,-1 0,1 1,2 1,2 1,-2 5,2 2,1 -1,-1 -3,4 2,3 0,0 1,-2 2,2 0,0 -2,2 0,0 0,-1 1,-2 0,-2 -3,1 -5,0 -2,-2 3,-1 -3,-3 -3,-3 -1,-2 2,-1 3,-1 2,0 3,4 1,0 0,-1 -2,1 -1,-1 0,-2 0,-4 0,-1 0,1 -4,2 -2,-1 0,0 3,0 2,-3 0,0 -2,3 -5,-1 -1,-1 -3,-2 -1,-3 1,-2 5,4 5,4 1,-2 3,4 0,-2 -2,-3 2,0 2,-1 -1,0 -4,-2 -3,-2 1,0 1,-2 0,-2 -2,-1 2,-1 1,-1 0,-1 -4,-5 -1,-3 0,0 -4,-6 -2,-5 1,1 5,7 4,2 0,0 -2,-2 -2,-3 -1,0 -5,-2 -5,1 0,0 2,3 2,4 1,3 1,2 2,5 1,3 -2,5 -1,0 0,-2 -2,-1 -2,-4 0,0 -1,-4 -2,-1 0,0 -2,2 -1,3 1,-1 1,-4 2,-2 2,2 -2,0 2,4 0,0 0,1 -1,1 -2,2 -2,-2 -3,-3 -3,-4 0,-4 1,-5 0,-4 0,-2 2,-6 0,0 -1,-5 0,-1 1,2 -2,2 2,3 1,0 2,-1 3,1 1,2 0,-1 -2,-2 -3,-3 -4,-5 0,-1 3,3 0,-2 2,-2 0,0 0,0 0,-1 0,-1 -2,-4 -2,-1 0,2 0,4 -2,1 -3,-4 0,0 2,-4 0,0 -1,0 0,0 0,0 3,2 3,0 0,0 -2,-2 0,-2 0,-3 1,0 1,-3 0,0 1,-3 2,-3 1,0 0,-2 0,2 0,1 -1,1 1,0 1,-2 -2,-3 1,-3 3,1 1,-4 4,-4 2,1 1,1 2,0 2,-1 2,3 4,-1 0,-1 0,0 0,0z"/>
   <path class="fil0" d="M291 88c-4,-2 -7,0 -9,4 -1,2 -1,4 -2,6 -2,5 -3,4 -2,16 0,2 1,5 2,7 3,4 4,11 3,19 -1,3 -1,6 -1,8 -1,1 14,-3 14,-4 0,0 3,-3 4,-7 2,-5 2,-12 2,-15 1,-2 1,-2 2,-4 1,-1 1,-6 2,-7 0,-2 0,-5 -1,-6 0,-2 -1,-3 -1,-5 0,-2 0,-4 -1,-5 -1,-5 -3,-8 -7,-6 -2,0 -3,0 -5,-1z"/>
   <path class="fil10 str0" d="M253 140c5,-5 34,-7 40,-14 15,9 37,10 43,16 -6,0 -12,4 -18,5 -16,0 -33,-2 -50,-3 -4,0 -11,-4 -15,-4z"/>
   <path class="fil6" d="M291 88c-4,-2 -7,0 -9,4 -1,2 -1,4 -2,6 -2,5 -5,4 -3,16 0,2 2,5 3,7 1,8 -4,16 3,19 -1,3 0,1 -1,8 -2,6 20,6 22,-5 0,0 1,1 3,-4 1,-4 -4,-12 -3,-15 0,-3 1,-1 2,-3 0,-2 1,-8 2,-9 0,-2 0,-6 0,-7 1,-1 -3,-10 -5,-10 -1,-5 -3,-8 -7,-6 -2,0 -3,0 -5,-1z"/>
   <path class="fil11" d="M288 127c-3,-1 0,1 0,2 0,3 -2,-1 -3,0 -1,4 4,10 2,12 0,1 -3,-6 -3,1 -1,4 2,6 5,5 1,-1 3,-7 3,-6 0,0 -1,5 1,6 5,1 6,-2 3,-6 -2,-2 2,2 4,4 0,1 -2,-4 0,-8 0,-1 -2,-4 0,-8 0,-1 0,-3 -1,-3 -6,4 -5,4 -11,1zm5 -2c1,-1 5,-2 5,-2 2,-1 5,-3 5,-6 0,-3 0,-3 0,-4 0,0 1,-2 1,-2 0,-1 1,-5 0,-7 -1,-1 0,-2 0,-4 0,-2 0,-4 -1,-5 -1,-5 -3,-8 -7,-6 -2,0 -3,0 -5,-1 -4,-2 -7,0 -9,4 -1,2 -1,4 -2,6 -1,2 -1,5 -2,7 0,3 0,6 1,9 1,4 2,5 4,8 1,1 2,1 4,2 0,0 1,0 2,1 0,0 3,0 4,0z"/>
   <path class="fil12 str0" d="M320 180c0,0 2,-11 9,-10 -2,14 -17,27 -20,37 4,-5 15,1 8,4l-19 8c-28,1 23,-2 -3,-1 0,0 -1,0 -1,0l-20 -7c-6,-2 5,-8 9,-2 -3,-12 -9,-18 -15,-26 -3,-4 -7,-8 -10,-13 8,7 13,8 24,7 5,0 10,4 15,2 17,-4 31,-19 23,1z"/>
   <path class="fil11" d="M296 151c6,-6 12,-8 15,-15 1,-2 6,-4 7,-5 -1,1 -2,1 -3,1 -1,0 -1,1 -1,1 -1,-1 -2,-3 -3,-4 0,-1 1,-2 2,-3 0,-3 0,-6 1,-5 1,0 2,1 2,0 2,0 3,-2 5,-1 -2,-2 -3,0 -5,1 -1,0 -1,-1 0,-2 4,-3 4,-2 6,0 2,0 3,1 3,2 0,3 3,0 3,4 0,1 2,1 2,3 0,2 -2,7 -5,9 -2,3 -11,20 -16,22 -5,-3 -11,-6 -13,-8z"/>
   <path class="fil11" d="M323 145c7,-11 20,0 15,11 -7,17 -22,26 -24,30 -3,2 -5,2 -7,0 -17,-13 -28,-28 -39,-43 -2,-7 -10,-14 -8,-12 0,-1 -1,-3 -1,-4 0,-1 1,-1 2,-2 0,-1 0,-1 0,-1 0,-2 1,-3 2,-3 1,0 1,-1 1,-2 1,-2 3,-1 4,-1 4,-2 5,-1 7,1 0,3 -4,-3 -6,1 4,-2 2,2 9,1 2,1 1,5 1,8 -1,1 -2,5 -3,3 0,-1 -2,-2 -2,-3 0,2 2,3 2,5 7,3 17,15 23,20 7,7 17,5 18,18 3,-10 -8,-14 -8,-13 2,-4 4,-7 9,-8 -4,0 0,3 -3,5 -1,-2 6,-10 8,-11z"/>
   <path class="fil11" d="M273 152c-1,-2 -9,-11 -12,-11 -2,-1 -4,-2 -7,0 -11,5 -3,18 3,23 8,10 11,14 24,20 3,2 3,3 4,0 0,-1 1,0 1,-1 1,-2 4,-3 6,-4 4,-1 -7,4 -5,5 1,0 8,-6 7,-6 -1,-1 -9,-10 -13,-16 -3,1 -7,3 -7,9 0,-4 -1,-6 5,-10 -1,-5 0,-9 -6,-9 2,0 -3,0 0,0z"/>
   <path class="fil13" d="M287 198c2,-4 4,-8 10,-9 4,1 6,5 9,8 -2,-4 -4,-8 -7,-11 2,-2 4,-5 7,-9 -3,3 -5,4 -9,7 -5,-2 -7,-4 -10,-5 2,2 4,4 8,7 -4,3 -6,8 -8,12z"/>
   <path class="fil14 str4" d="M311 135c5,0 11,3 11,9 -3,7 -6,11 -9,16 0,1 0,1 0,1l-13 -6c-4,-2 1,22 -2,24 -6,5 -12,9 -18,11 9,-12 11,-22 0,-29 12,-7 21,-16 31,-26z"/>
   <path class="fil15 str4" d="M278 134c-6,-2 -9,3 -11,7 8,20 26,37 48,52 -9,-13 -6,-34 -10,-36 -12,-7 -17,-14 -27,-23z"/>
   <path class="fil16 str0" d="M272 212c17,0 32,0 49,0 11,8 18,35 26,65 -19,-9 -29,11 -43,8 -5,-1 -29,-15 -48,-2 1,-14 7,-60 16,-71z"/>
   <path class="fil6 str3" d="M273 201c15,7 31,7 46,-1l2 10c-7,5 -15,5 -23,12 -6,-6 -25,-7 -27,-11l2 -10z"/>
   <polygon class="fil17" points="267,224 258,269 260,277 265,270 271,225 267,271 272,276 276,271 274,223 278,271 283,279 285,272 280,224 288,271 292,279 295,272 287,223 296,273 300,281 302,271 295,226 302,271 308,280 309,270 300,223 311,272 315,276 315,267 307,223 316,268 321,274 322,268 314,226 323,268 329,272 330,266 316,223 332,265 335,272 336,265 320,221 337,264 341,271 341,262 322,223 340,252 332,230 326,221 329,224 318,215 "/>
   <path class="fil18" d="M273 235c-1,-13 5,-14 7,-11 1,3 1,7 1,10l3 5 2 -5c1,0 0,-6 1,-9 3,-5 10,1 13,5 1,2 5,-13 11,-4 1,1 2,8 3,9l3 4 2 -5c0,-1 -4,-14 2,-7 5,6 1,7 6,0 4,-5 -6,-19 -9,-17 -2,1 -16,6 -17,7 -7,1 -1,5 -8,-1 -3,-3 -18,-3 -21,-4 -1,3 -5,8 -5,14 0,2 1,5 2,6l4 3z"/>
   <path class="fil19 str3" d="M273 200c15,7 31,7 46,-1l2 10c-7,5 -15,5 -23,12 -6,-5 -25,-7 -27,-11l2 -10z"/>
   <path class="fil20" d="M285 115c2,0 3,-1 4,-2 1,0 2,0 2,0 1,1 1,0 2,0 2,1 3,2 5,3 -1,0 -4,1 -4,1 -1,0 -2,0 -3,0 -1,0 -1,0 -2,0 -2,0 -3,-1 -4,-2z"/>
   <path class="fil6" d="M297 116c-1,0 -2,-1 -3,-2 0,0 -1,1 -1,1 -1,-1 -2,-1 -3,-1 -1,0 -1,0 -2,0 -1,1 -2,1 -3,1 2,0 2,0 4,0 1,0 3,0 5,0 1,0 2,1 3,1z"/>
   <path class="fil6" d="M289 110c1,0 2,0 1,-1 0,0 0,0 0,0 -1,0 -1,0 -1,1z"/>
   <path class="fil6" d="M293 110c0,-1 1,-1 1,0 0,0 0,0 0,0 -1,0 -1,0 -1,0 0,0 0,-1 0,0z"/>
   <path class="fil21" d="M290 99c-1,-1 -3,-2 -5,-2 -2,0 -4,1 -5,5 2,-3 4,-5 7,-3 0,0 1,0 1,1 1,0 1,0 2,-1z"/>
   <path class="fil21" d="M296 100c0,-1 0,-1 1,-2 4,-1 5,0 8,3 -1,0 -2,-1 -3,-2 -1,-1 -2,0 -4,1 0,0 0,0 -1,0 0,0 -1,0 -1,0z"/>
   <path class="fil9" d="M290 102c-1,0 -1,-1 -2,-1 -3,-1 -5,0 -6,1 0,0 0,1 0,1 0,-1 1,-1 0,0 0,0 -1,0 -1,0 0,0 1,0 2,0 1,0 3,0 5,0 0,0 0,0 0,0 1,0 1,0 1,0 0,-2 -2,-2 -2,-2 0,0 2,0 2,1 0,0 1,0 1,0z"/>
   <path class="fil9" d="M295 102c1,0 1,-1 3,-1 3,-1 5,1 5,2 -1,-1 -2,-2 -2,-2 1,1 2,2 2,3 -1,-1 -1,-1 -2,-1 -2,1 -3,0 -5,0 0,0 -1,0 -1,0 0,-1 2,-2 4,-2 -1,0 -3,1 -4,1z"/>
   <path class="fil2" d="M284 101c0,1 0,1 0,2 0,0 -1,0 -1,-1 0,0 1,0 1,-1z"/>
   <path class="fil2" d="M287 101c-1,0 1,1 1,2 -1,0 -1,0 -1,0 0,-1 0,-1 0,-2z"/>
   <path class="fil2" d="M287 101c-1,0 -1,1 -1,1 0,0 0,0 0,-1 0,0 0,1 0,1 0,0 0,-1 -1,-1 0,0 1,1 0,1 0,0 0,-1 0,0 0,0 0,0 0,0 0,0 0,0 0,0 0,0 0,0 -1,0 0,0 0,0 0,0 0,0 1,-1 1,0 0,0 0,0 0,0 -1,-1 1,-1 2,-1 0,0 0,0 0,0z"/>
   <path class="fil22" d="M298 102c0,0 -1,1 0,1 -1,0 -1,0 -2,0 0,-1 1,-1 2,-1z"/>
   <path class="fil2" d="M300 102c1,0 1,0 1,1 0,0 -1,0 -1,0 0,0 1,-1 0,-1z"/>
   <path class="fil2" d="M298 102c0,0 0,0 0,0 1,0 1,0 1,0 0,0 0,0 0,0 0,0 1,0 1,0 0,0 0,0 0,0 0,0 0,0 -1,0 0,-1 -1,-1 -1,0 0,0 0,0 0,0z"/>
   <path class="fil6" d="M306 98c-1,-8 -9,-9 -14,-15 -4,5 -14,7 -13,14 4,-5 21,-7 27,1z"/>
   <path class="fil23" d="M306 97c-1,-9 -9,-10 -14,-15 -3,5 -14,7 -13,14 4,-5 21,-7 27,1z"/>
   <path class="fil24" d="M288 115c0,0 -1,0 -1,1 0,0 2,1 2,0 1,0 3,0 4,1 1,0 2,-1 2,-1 0,-1 -1,-1 -1,-1 -1,0 -2,0 -3,0 -1,0 -2,0 -3,0z"/>
   <polygon class="fil13" points="290,86 292,88 294,86 292,88 294,90 292,88 290,90 292,88 "/>
  </g>
  <path class="fil25" d="M250 14c0,0 1,0 1,1 1,0 1,1 1,1 0,0 0,0 0,1l-2 8c0,1 0,2 -1,2 -1,1 -1,1 -2,1l-13 0 3 -14 13 0zm-9 11l1 0c1,0 1,0 1,0 1,-1 1,-1 1,-1l1 -6c0,0 0,0 0,0 0,0 0,0 0,-1 0,0 -1,0 -1,0l-1 0 -2 8z"/>
  <path id="1" class="fil25" d="M256 14l10 0c1,0 1,0 2,1 0,0 0,1 0,1 0,0 0,0 0,1l-2 8c0,1 0,2 -1,2 0,1 -1,1 -2,1l-10 0c-1,0 -1,0 -2,-1 0,0 0,-1 0,-1 0,0 0,0 0,-1l2 -8c0,-1 0,-2 1,-2 1,-1 1,-1 2,-1zm4 3c0,0 0,0 0,0 -1,1 -1,1 -1,1l-1 6c0,0 0,0 0,0 0,0 0,0 0,1 0,0 1,0 1,0 0,0 0,0 1,0 0,-1 0,-1 0,-1l1 -6c0,0 0,0 0,0 0,0 0,0 0,-1 0,0 0,0 -1,0z"/>
  <polygon id="2" class="fil25" points="280,14 286,14 284,28 277,28 275,21 273,28 267,28 270,14 276,14 278,21 "/>
  <polygon id="3" class="fil25" points="298,17 296,28 289,28 291,17 288,17 288,14 302,14 301,17 "/>
  <path id="4" class="fil25" d="M316 14l7 0 -3 11c0,1 0,2 -1,2 -1,1 -1,1 -2,1l-10 0c-1,0 -1,0 -2,-1 0,0 0,-1 0,-1 0,0 0,0 0,-1l1 -4 6 0 0 3c0,0 0,0 0,0 0,0 0,0 0,1 0,0 0,0 1,0 0,0 0,0 0,0 1,-1 1,-1 1,-1l2 -10z"/>
  <path id="5" class="fil25" d="M330 14l-2 10c0,0 0,0 0,0 0,0 0,0 0,1 0,0 1,0 1,0 0,0 1,0 1,0 0,-1 0,-1 0,-1l2 -10 7 0 -2 11c-1,1 -1,2 -2,2 0,1 -1,1 -2,1l-10 0c0,0 -1,0 -1,-1 -1,0 -1,-1 -1,-1 0,0 0,0 0,-1l3 -11 6 0z"/>
  <path id="6" class="fil25" d="M342 14l10 0c1,0 2,0 2,1 1,0 1,1 1,1 0,0 0,0 0,1l-1 2 -6 0 0 -1c0,0 0,0 0,0 0,0 0,0 0,-1 -1,0 -1,0 -1,0 0,0 -1,0 -1,0 0,1 0,1 0,1l0 1c0,0 0,0 0,0 0,0 0,0 0,0l6 2c1,0 2,0 2,1 0,0 -1,0 -1,0l0 3c0,1 -1,2 -1,2 -1,1 -2,1 -2,1l-10 0c-1,0 -2,0 -2,-1 0,0 -1,-1 -1,-1 0,0 0,0 1,-1l0 -2 7 0 -1 1c0,0 0,0 0,0 0,0 1,0 1,1 0,0 0,0 0,0 1,0 1,0 1,0 0,-1 0,-1 1,-1l0 -1c0,0 0,0 0,0 0,0 0,0 -1,0l-6 -2c-1,0 -1,0 -1,-1 0,0 0,0 0,0l0 -3c0,-1 1,-2 1,-2 1,-1 2,-1 2,-1z"/>
  <polygon id="7" class="fil25" points="366,17 363,28 357,28 359,17 355,17 356,14 370,14 369,17 "/>
  <path id="8" class="fil25" d="M228 35c1,0 1,0 2,1 0,0 0,1 0,1 0,0 0,0 0,1l-1 8c-1,1 -1,2 -2,2 0,1 -1,1 -2,1l-12 0 2 -14 13 0zm-8 11l1 0c0,0 1,0 1,0 0,-1 0,-1 0,-1l1 -6c0,0 0,0 0,0 0,0 0,0 0,-1 0,0 0,0 0,0l-2 0 -1 8z"/>
  <path id="9" class="fil25" d="M244 35c1,0 2,0 2,1 1,0 1,1 1,1 0,0 0,0 0,1l-1 3c0,1 -1,2 -2,2 1,1 1,1 1,2l0 0c0,0 0,1 0,1 0,1 0,1 0,2 0,0 0,0 0,0 0,0 0,1 0,1l0 0 -6 0c0,0 0,0 -1,0 0,0 0,-1 0,-1 0,0 0,0 0,0l1 -3c0,0 0,0 0,0 0,-1 0,-1 -1,-1 0,0 0,0 0,0l-1 0 -1 5 -7 0 3 -14 12 0zm-5 3l-1 0 -1 3 1 0c1,0 1,-1 1,-1 0,0 1,0 1,-1l0 0c0,0 0,0 0,0 0,0 0,0 0,-1 -1,0 -1,0 -1,0z"/>
  <polygon id="10" class="fil25" points="263,35 262,38 255,38 255,40 262,40 261,43 254,43 254,46 261,46 260,49 246,49 249,35 "/>
  <path id="11" class="fil25" d="M266 35l10 0c1,0 2,0 2,1 0,0 1,1 1,1 0,0 0,0 0,1l-1 2 -7 0 1 -1c0,0 0,0 0,0 0,0 0,0 -1,-1 0,0 0,0 0,0 -1,0 -1,0 -1,0 0,1 0,1 -1,1l0 1c0,0 0,0 0,0 0,0 0,0 1,0l6 2c1,0 1,0 1,1 0,0 0,0 0,0l0 3c0,1 -1,2 -1,2 -1,1 -2,1 -2,1l-10 0c-1,0 -2,0 -2,-1 -1,0 -1,-1 -1,-1 0,0 0,0 0,-1l1 -2 6 0 0 1c0,0 0,0 0,0 0,0 0,0 1,1 0,0 0,0 0,0 0,0 1,0 1,0 0,-1 0,-1 0,-1l1 -1c0,0 0,0 0,0 0,0 -1,0 -1,0l-6 -2c-1,0 -1,0 -1,-1 0,0 0,0 0,0l0 -3c0,-1 1,-2 1,-2 1,-1 2,-1 2,-1z"/>
  <path id="12" class="fil25" d="M283 35l10 0c0,0 1,0 1,1 1,0 1,1 1,1 0,0 0,0 0,1l-1 2 -6 0 0 -1c0,0 0,0 0,0 0,0 0,0 0,-1 0,0 -1,0 -1,0 0,0 -1,0 -1,0 0,1 0,1 0,1l0 1c0,0 0,0 0,0 0,0 0,0 0,0l7 2c0,0 1,0 1,1 0,0 0,0 0,0l-1 3c0,1 0,2 -1,2 -1,1 -1,1 -2,1l-10 0c-1,0 -1,0 -2,-1 0,0 0,-1 0,-1 0,0 0,0 0,-1l0 -2 7 0 0 1c0,0 0,0 0,0 0,0 0,0 0,1 0,0 0,0 0,0 1,0 1,0 1,0 1,-1 1,-1 1,-1l0 -1c0,0 0,0 0,0 0,0 0,0 0,0l-7 -2c-1,0 -1,0 -1,-1 0,0 0,0 0,0l0 -3c1,-1 1,-2 2,-2 0,-1 1,-1 2,-1z"/>
  <path id="13" class="fil25" d="M307 35l-2 10c0,0 0,0 0,0 0,0 0,0 0,1 1,0 1,0 1,0 0,0 1,0 1,0 0,-1 0,-1 0,-1l2 -10 7 0 -2 11c0,1 -1,2 -1,2 -1,1 -2,1 -3,1l-10 0c0,0 -1,0 -1,-1 -1,0 -1,-1 -1,-1 0,0 0,0 0,-1l3 -11 6 0z"/>
  <path id="14" class="fil25" d="M330 35c0,0 1,0 1,1 1,0 1,1 1,1 0,0 0,0 0,1l-1 3c0,1 0,1 -1,2 -1,0 -1,1 -2,1l-6 0 -1 5 -7 0 3 -14 13 0zm-6 3l-1 0 -1 3 1 0c1,0 1,-1 1,-1 0,0 1,0 1,-1l0 0c0,0 0,0 0,0 0,0 0,0 0,-1 -1,0 -1,0 -1,0z"/>
  <path id="15" class="fil25" d="M343 35l6 0 2 14 -7 0 0 -2 -4 0 -1 2 -4 0 8 -14zm0 9l0 -3 -2 3 2 0z"/>
  <path id="16" class="fil25" d="M357 35l10 0c1,0 2,0 2,1 0,0 0,1 0,1 0,0 0,0 0,1l0 2 -7 0 0 -1c0,0 0,0 0,0 0,0 0,0 0,-1 0,0 0,0 0,0 -1,0 -1,0 -1,0 0,1 -1,1 -1,1l0 1c0,0 0,0 0,0 0,0 0,0 1,0l6 2c1,0 1,0 1,1 0,0 0,0 0,0l0 3c-1,1 -1,2 -2,2 0,1 -1,1 -2,1l-10 0c0,0 -1,0 -1,-1 -1,0 -1,-1 -1,-1 0,0 0,0 0,-1l1 -2 6 0 0 1c0,0 0,0 0,0 0,0 0,0 0,1 1,0 1,0 1,0 0,0 1,0 1,0 0,-1 0,-1 0,-1l0 -1c0,0 0,0 0,0 0,0 0,0 0,0l-7 -2c0,0 -1,0 -1,-1 0,0 0,0 0,0l1 -3c0,-1 1,-2 1,-2 1,-1 1,-1 2,-1z"/>
  <path id="17" class="fil25" d="M380 35l6 0 2 14 -6 0 0 -2 -5 0 -1 2 -4 0 8 -14zm1 9l0 -3 -2 3 2 0z"/>
  <path id="18" class="fil25" d="M234 56l10 0c1,0 1,0 2,1 0,0 0,1 0,1 0,0 0,0 0,1l0 2 -7 0 0 -1c0,0 0,0 0,0 0,0 0,0 0,-1 0,0 0,0 -1,0 0,0 0,0 -1,0 0,1 0,1 0,1l0 1c0,0 0,0 0,0 0,0 0,0 0,0l7 2c1,0 1,0 1,1 0,0 0,0 0,0l-1 3c0,1 0,2 -1,2 -1,1 -1,1 -2,1l-10 0c-1,0 -1,0 -2,-1 0,0 0,-1 0,-1 0,0 0,0 0,-1l0 -2 7 0 0 1c0,0 0,0 0,0 0,0 0,0 0,1 0,0 0,0 1,0 0,0 0,0 0,0 1,-1 1,-1 1,-1l0 -1c0,0 0,0 0,0 0,0 0,0 0,0l-7 -2c-1,0 -1,0 -1,-1 0,0 0,0 0,0l1 -3c0,-1 0,-2 1,-2 0,-1 1,-1 2,-1z"/>
  <path id="19" class="fil25" d="M254 56l-2 10c0,0 0,0 0,0 0,0 0,0 0,1 0,0 1,0 1,0 0,0 1,0 1,0 0,-1 0,-1 0,-1l2 -10 7 0 -2 11c-1,1 -1,2 -2,2 0,1 -1,1 -2,1l-10 0c0,0 -1,0 -1,-1 -1,0 -1,-1 -1,-1 0,0 0,0 0,-1l2 -11 7 0z"/>
  <path id="20" class="fil25" d="M276 56c1,0 2,0 2,1 1,0 1,1 1,1 0,0 0,0 0,1l-1 3c0,1 -1,1 -1,2 -1,0 -2,1 -2,1l-6 0 -1 5 -7 0 3 -14 12 0zm-5 3l-1 0 -1 2 1 0c1,0 1,0 1,0 0,0 1,0 1,-1l0 0c0,0 0,0 0,0 0,0 0,0 -1,-1 0,0 0,0 0,0z"/>
  <polygon id="21" class="fil25" points="294,56 293,59 286,59 286,61 293,61 292,64 285,64 285,67 292,67 291,70 277,70 280,56 "/>
  <path id="22" class="fil25" d="M307 56c1,0 2,0 2,1 0,0 1,1 1,1 0,0 0,0 -1,1l0 3c0,1 -1,2 -2,2 1,1 1,1 1,2l0 0c0,0 0,1 0,1 0,1 0,1 0,2 0,0 0,0 0,0 0,0 0,1 0,1l0 0 -6 0c0,0 -1,0 -1,0 0,-1 0,-1 0,-1 0,0 0,0 0,0l0 -3c0,0 0,0 0,-1 0,0 0,0 0,0 0,0 0,0 0,0l-1 0 -2 5 -6 0 3 -14 12 0zm-5 3l-1 0 -1 2 1 0c1,0 1,0 1,0 0,0 0,0 0,-1l1 0c0,0 0,0 0,0 0,0 0,0 -1,-1 0,0 0,0 0,0z"/>
  <polygon id="23" class="fil25" points="319,56 318,61 320,61 321,56 327,56 325,70 318,70 319,65 317,65 316,70 309,70 312,56 "/>
  <polygon id="24" class="fil25" points="342,56 341,59 334,59 334,61 341,61 340,64 333,64 333,67 340,67 339,70 325,70 328,56 "/>
  <path id="25" class="fil25" d="M356 56c0,0 1,0 1,1 1,0 1,1 1,1 0,0 0,0 0,1l-1 3c0,1 -1,2 -2,2 1,1 1,1 1,2l0 0c0,0 0,1 0,1 0,1 0,1 0,2 0,0 0,0 0,0 0,0 0,1 0,1l0 0 -6 0c0,0 0,0 -1,0 0,-1 0,-1 0,-1 0,0 0,0 0,0l1 -3c0,0 0,0 0,-1 0,0 0,0 -1,0 0,0 0,0 0,0l-1 0 -1 5 -7 0 3 -14 13 0zm-6 3l-1 0 -1 2 1 0c1,0 1,0 1,0 0,0 1,0 1,-1l0 0c0,0 0,0 0,0 0,0 0,0 0,-1 -1,0 -1,0 -1,0z"/>
  <path id="26" class="fil25" d="M363 56l10 0c1,0 1,0 2,1 0,0 0,1 0,1 0,0 0,0 0,1l-2 8c0,1 0,2 -1,2 -1,1 -1,1 -2,1l-10 0c-1,0 -1,0 -2,-1 0,0 0,-1 0,-1 0,0 0,0 0,-1l2 -8c0,-1 0,-2 1,-2 0,-1 1,-1 2,-1zm4 3c0,0 0,0 -1,0 0,1 0,1 0,1l-1 6c0,0 0,0 0,0 0,0 0,0 0,1 0,0 0,0 1,0 0,0 0,0 0,0 1,-1 1,-1 1,-1l1 -6c0,0 0,0 0,0 0,0 0,0 0,-1 0,0 0,0 -1,0z"/>
  <path id="27" class="fil26 str5" d="M250 14c0,0 1,0 1,1 1,0 1,1 1,1 0,0 0,0 0,1l-2 8c0,1 0,2 -1,2 -1,1 -1,1 -2,1l-13 0 3 -14 13 0zm-9 11l1 0c1,0 1,0 1,0 1,-1 1,-1 1,-1l1 -6c0,0 0,0 0,0 0,0 0,0 0,-1 0,0 -1,0 -1,0l-1 0 -2 8z"/>
  <path id="28" class="fil26 str5" d="M256 14l10 0c1,0 1,0 2,1 0,0 0,1 0,1 0,0 0,0 0,1l-2 8c0,1 0,2 -1,2 0,1 -1,1 -2,1l-10 0c-1,0 -1,0 -2,-1 0,0 0,-1 0,-1 0,0 0,0 0,-1l2 -8c0,-1 0,-2 1,-2 1,-1 1,-1 2,-1zm4 3c0,0 0,0 0,0 -1,1 -1,1 -1,1l-1 6c0,0 0,0 0,0 0,0 0,0 0,1 0,0 1,0 1,0 0,0 0,0 1,0 0,-1 0,-1 0,-1l1 -6c0,0 0,0 0,0 0,0 0,0 0,-1 0,0 0,0 -1,0z"/>
  <polygon id="29" class="fil26 str5" points="280,14 286,14 284,28 277,28 275,21 273,28 267,28 270,14 276,14 278,21 "/>
  <polygon id="30" class="fil26 str5" points="298,17 296,28 289,28 291,17 288,17 288,14 302,14 301,17 "/>
  <path id="31" class="fil26 str5" d="M316 14l7 0 -3 11c0,1 0,2 -1,2 -1,1 -1,1 -2,1l-10 0c-1,0 -1,0 -2,-1 0,0 0,-1 0,-1 0,0 0,0 0,-1l1 -4 6 0 0 3c0,0 0,0 0,0 0,0 0,0 0,1 0,0 0,0 1,0 0,0 0,0 0,0 1,-1 1,-1 1,-1l2 -10z"/>
  <path id="32" class="fil26 str5" d="M330 14l-2 10c0,0 0,0 0,0 0,0 0,0 0,1 0,0 1,0 1,0 0,0 1,0 1,0 0,-1 0,-1 0,-1l2 -10 7 0 -2 11c-1,1 -1,2 -2,2 0,1 -1,1 -2,1l-10 0c0,0 -1,0 -1,-1 -1,0 -1,-1 -1,-1 0,0 0,0 0,-1l3 -11 6 0z"/>
  <path id="33" class="fil26 str5" d="M342 14l10 0c1,0 2,0 2,1 1,0 1,1 1,1 0,0 0,0 0,1l-1 2 -6 0 0 -1c0,0 0,0 0,0 0,0 0,0 0,-1 -1,0 -1,0 -1,0 0,0 -1,0 -1,0 0,1 0,1 0,1l0 1c0,0 0,0 0,0 0,0 0,0 0,0l6 2c1,0 2,0 2,1 0,0 -1,0 -1,0l0 3c0,1 -1,2 -1,2 -1,1 -2,1 -2,1l-10 0c-1,0 -2,0 -2,-1 0,0 -1,-1 -1,-1 0,0 0,0 1,-1l0 -2 7 0 -1 1c0,0 0,0 0,0 0,0 1,0 1,1 0,0 0,0 0,0 1,0 1,0 1,0 0,-1 0,-1 1,-1l0 -1c0,0 0,0 0,0 0,0 0,0 -1,0l-6 -2c-1,0 -1,0 -1,-1 0,0 0,0 0,0l0 -3c0,-1 1,-2 1,-2 1,-1 2,-1 2,-1z"/>
  <polygon id="34" class="fil26 str5" points="366,17 363,28 357,28 359,17 355,17 356,14 370,14 369,17 "/>
  <path id="35" class="fil26 str5" d="M228 35c1,0 1,0 2,1 0,0 0,1 0,1 0,0 0,0 0,1l-1 8c-1,1 -1,2 -2,2 0,1 -1,1 -2,1l-12 0 2 -14 13 0zm-8 11l1 0c0,0 1,0 1,0 0,-1 0,-1 0,-1l1 -6c0,0 0,0 0,0 0,0 0,0 0,-1 0,0 0,0 0,0l-2 0 -1 8z"/>
  <path id="36" class="fil26 str5" d="M244 35c1,0 2,0 2,1 1,0 1,1 1,1 0,0 0,0 0,1l-1 3c0,1 -1,2 -2,2 1,1 1,1 1,2l0 0c0,0 0,1 0,1 0,1 0,1 0,2 0,0 0,0 0,0 0,0 0,1 0,1l0 0 -6 0c0,0 0,0 -1,0 0,0 0,-1 0,-1 0,0 0,0 0,0l1 -3c0,0 0,0 0,0 0,-1 0,-1 -1,-1 0,0 0,0 0,0l-1 0 -1 5 -7 0 3 -14 12 0zm-5 3l-1 0 -1 3 1 0c1,0 1,-1 1,-1 0,0 1,0 1,-1l0 0c0,0 0,0 0,0 0,0 0,0 0,-1 -1,0 -1,0 -1,0z"/>
  <polygon id="37" class="fil26 str5" points="263,35 262,38 255,38 255,40 262,40 261,43 254,43 254,46 261,46 260,49 246,49 249,35 "/>
  <path id="38" class="fil26 str5" d="M266 35l10 0c1,0 2,0 2,1 0,0 1,1 1,1 0,0 0,0 0,1l-1 2 -7 0 1 -1c0,0 0,0 0,0 0,0 0,0 -1,-1 0,0 0,0 0,0 -1,0 -1,0 -1,0 0,1 0,1 -1,1l0 1c0,0 0,0 0,0 0,0 0,0 1,0l6 2c1,0 1,0 1,1 0,0 0,0 0,0l0 3c0,1 -1,2 -1,2 -1,1 -2,1 -2,1l-10 0c-1,0 -2,0 -2,-1 -1,0 -1,-1 -1,-1 0,0 0,0 0,-1l1 -2 6 0 0 1c0,0 0,0 0,0 0,0 0,0 1,1 0,0 0,0 0,0 0,0 1,0 1,0 0,-1 0,-1 0,-1l1 -1c0,0 0,0 0,0 0,0 -1,0 -1,0l-6 -2c-1,0 -1,0 -1,-1 0,0 0,0 0,0l0 -3c0,-1 1,-2 1,-2 1,-1 2,-1 2,-1z"/>
  <path id="39" class="fil26 str5" d="M283 35l10 0c0,0 1,0 1,1 1,0 1,1 1,1 0,0 0,0 0,1l-1 2 -6 0 0 -1c0,0 0,0 0,0 0,0 0,0 0,-1 0,0 -1,0 -1,0 0,0 -1,0 -1,0 0,1 0,1 0,1l0 1c0,0 0,0 0,0 0,0 0,0 0,0l7 2c0,0 1,0 1,1 0,0 0,0 0,0l-1 3c0,1 0,2 -1,2 -1,1 -1,1 -2,1l-10 0c-1,0 -1,0 -2,-1 0,0 0,-1 0,-1 0,0 0,0 0,-1l0 -2 7 0 0 1c0,0 0,0 0,0 0,0 0,0 0,1 0,0 0,0 0,0 1,0 1,0 1,0 1,-1 1,-1 1,-1l0 -1c0,0 0,0 0,0 0,0 0,0 0,0l-7 -2c-1,0 -1,0 -1,-1 0,0 0,0 0,0l0 -3c1,-1 1,-2 2,-2 0,-1 1,-1 2,-1z"/>
  <path id="40" class="fil26 str5" d="M307 35l-2 10c0,0 0,0 0,0 0,0 0,0 0,1 1,0 1,0 1,0 0,0 1,0 1,0 0,-1 0,-1 0,-1l2 -10 7 0 -2 11c0,1 -1,2 -1,2 -1,1 -2,1 -3,1l-10 0c0,0 -1,0 -1,-1 -1,0 -1,-1 -1,-1 0,0 0,0 0,-1l3 -11 6 0z"/>
  <path id="41" class="fil26 str5" d="M330 35c0,0 1,0 1,1 1,0 1,1 1,1 0,0 0,0 0,1l-1 3c0,1 0,1 -1,2 -1,0 -1,1 -2,1l-6 0 -1 5 -7 0 3 -14 13 0zm-6 3l-1 0 -1 3 1 0c1,0 1,-1 1,-1 0,0 1,0 1,-1l0 0c0,0 0,0 0,0 0,0 0,0 0,-1 -1,0 -1,0 -1,0z"/>
  <path id="42" class="fil26 str5" d="M343 35l6 0 2 14 -7 0 0 -2 -4 0 -1 2 -4 0 8 -14zm0 9l0 -3 -2 3 2 0z"/>
  <path id="43" class="fil26 str5" d="M357 35l10 0c1,0 2,0 2,1 0,0 0,1 0,1 0,0 0,0 0,1l0 2 -7 0 0 -1c0,0 0,0 0,0 0,0 0,0 0,-1 0,0 0,0 0,0 -1,0 -1,0 -1,0 0,1 -1,1 -1,1l0 1c0,0 0,0 0,0 0,0 0,0 1,0l6 2c1,0 1,0 1,1 0,0 0,0 0,0l0 3c-1,1 -1,2 -2,2 0,1 -1,1 -2,1l-10 0c0,0 -1,0 -1,-1 -1,0 -1,-1 -1,-1 0,0 0,0 0,-1l1 -2 6 0 0 1c0,0 0,0 0,0 0,0 0,0 0,1 1,0 1,0 1,0 0,0 1,0 1,0 0,-1 0,-1 0,-1l0 -1c0,0 0,0 0,0 0,0 0,0 0,0l-7 -2c0,0 -1,0 -1,-1 0,0 0,0 0,0l1 -3c0,-1 1,-2 1,-2 1,-1 1,-1 2,-1z"/>
  <path id="44" class="fil26 str5" d="M380 35l6 0 2 14 -6 0 0 -2 -5 0 -1 2 -4 0 8 -14zm1 9l0 -3 -2 3 2 0z"/>
  <path id="45" class="fil26 str5" d="M234 56l10 0c1,0 1,0 2,1 0,0 0,1 0,1 0,0 0,0 0,1l0 2 -7 0 0 -1c0,0 0,0 0,0 0,0 0,0 0,-1 0,0 0,0 -1,0 0,0 0,0 -1,0 0,1 0,1 0,1l0 1c0,0 0,0 0,0 0,0 0,0 0,0l7 2c1,0 1,0 1,1 0,0 0,0 0,0l-1 3c0,1 0,2 -1,2 -1,1 -1,1 -2,1l-10 0c-1,0 -1,0 -2,-1 0,0 0,-1 0,-1 0,0 0,0 0,-1l0 -2 7 0 0 1c0,0 0,0 0,0 0,0 0,0 0,1 0,0 0,0 1,0 0,0 0,0 0,0 1,-1 1,-1 1,-1l0 -1c0,0 0,0 0,0 0,0 0,0 0,0l-7 -2c-1,0 -1,0 -1,-1 0,0 0,0 0,0l1 -3c0,-1 0,-2 1,-2 0,-1 1,-1 2,-1z"/>
  <path id="46" class="fil26 str5" d="M254 56l-2 10c0,0 0,0 0,0 0,0 0,0 0,1 0,0 1,0 1,0 0,0 1,0 1,0 0,-1 0,-1 0,-1l2 -10 7 0 -2 11c-1,1 -1,2 -2,2 0,1 -1,1 -2,1l-10 0c0,0 -1,0 -1,-1 -1,0 -1,-1 -1,-1 0,0 0,0 0,-1l2 -11 7 0z"/>
  <path id="47" class="fil26 str5" d="M276 56c1,0 2,0 2,1 1,0 1,1 1,1 0,0 0,0 0,1l-1 3c0,1 -1,1 -1,2 -1,0 -2,1 -2,1l-6 0 -1 5 -7 0 3 -14 12 0zm-5 3l-1 0 -1 2 1 0c1,0 1,0 1,0 0,0 1,0 1,-1l0 0c0,0 0,0 0,0 0,0 0,0 -1,-1 0,0 0,0 0,0z"/>
  <polygon id="48" class="fil26 str5" points="294,56 293,59 286,59 286,61 293,61 292,64 285,64 285,67 292,67 291,70 277,70 280,56 "/>
  <path id="49" class="fil26 str5" d="M307 56c1,0 2,0 2,1 0,0 1,1 1,1 0,0 0,0 -1,1l0 3c0,1 -1,2 -2,2 1,1 1,1 1,2l0 0c0,0 0,1 0,1 0,1 0,1 0,2 0,0 0,0 0,0 0,0 0,1 0,1l0 0 -6 0c0,0 -1,0 -1,0 0,-1 0,-1 0,-1 0,0 0,0 0,0l0 -3c0,0 0,0 0,-1 0,0 0,0 0,0 0,0 0,0 0,0l-1 0 -2 5 -6 0 3 -14 12 0zm-5 3l-1 0 -1 2 1 0c1,0 1,0 1,0 0,0 0,0 0,-1l1 0c0,0 0,0 0,0 0,0 0,0 -1,-1 0,0 0,0 0,0z"/>
  <polygon id="50" class="fil26 str5" points="319,56 318,61 320,61 321,56 327,56 325,70 318,70 319,65 317,65 316,70 309,70 312,56 "/>
  <polygon id="51" class="fil26 str5" points="342,56 341,59 334,59 334,61 341,61 340,64 333,64 333,67 340,67 339,70 325,70 328,56 "/>
  <path id="52" class="fil26 str5" d="M356 56c0,0 1,0 1,1 1,0 1,1 1,1 0,0 0,0 0,1l-1 3c0,1 -1,2 -2,2 1,1 1,1 1,2l0 0c0,0 0,1 0,1 0,1 0,1 0,2 0,0 0,0 0,0 0,0 0,1 0,1l0 0 -6 0c0,0 0,0 -1,0 0,-1 0,-1 0,-1 0,0 0,0 0,0l1 -3c0,0 0,0 0,-1 0,0 0,0 -1,0 0,0 0,0 0,0l-1 0 -1 5 -7 0 3 -14 13 0zm-6 3l-1 0 -1 2 1 0c1,0 1,0 1,0 0,0 1,0 1,-1l0 0c0,0 0,0 0,0 0,0 0,0 0,-1 -1,0 -1,0 -1,0z"/>
  <path id="53" class="fil26 str5" d="M363 56l10 0c1,0 1,0 2,1 0,0 0,1 0,1 0,0 0,0 0,1l-2 8c0,1 0,2 -1,2 -1,1 -1,1 -2,1l-10 0c-1,0 -1,0 -2,-1 0,0 0,-1 0,-1 0,0 0,0 0,-1l2 -8c0,-1 0,-2 1,-2 0,-1 1,-1 2,-1zm4 3c0,0 0,0 -1,0 0,1 0,1 0,1l-1 6c0,0 0,0 0,0 0,0 0,0 0,1 0,0 0,0 1,0 0,0 0,0 0,0 1,-1 1,-1 1,-1l1 -6c0,0 0,0 0,0 0,0 0,0 0,-1 0,0 0,0 -1,0z"/>
  <path class="fil25" d="M180 247l4 -16 14 0c1,0 2,0 2,0 1,1 1,1 1,2 0,0 0,0 0,1l-1 2c0,1 0,2 -1,2 0,0 0,0 0,1 1,0 1,0 1,0 0,1 0,1 0,1l-1 4c0,1 -1,1 -2,2 0,1 -1,1 -2,1l-15 0zm13 -12c0,0 0,0 0,0 0,0 0,0 0,0 -1,-1 -1,-1 -1,-1l-1 0 -1 3 1 0c1,0 1,0 1,-1 0,0 1,0 1,0l0 -1zm-3 8c0,0 1,0 1,0 0,0 0,-1 0,-1l1 0c0,0 0,0 0,-1 0,0 -1,0 -1,0 0,0 0,-1 0,-1l-2 0 0 3 1 0z"/>
  <polygon id="1" class="fil25" points="219,231 218,234 210,234 209,236 217,236 217,240 208,240 208,243 216,243 215,247 199,247 203,231 "/>
  <path id="2" class="fil25" d="M231 231l6 0 3 16 -8 0 0 -2 -5 0 -1 2 -5 0 10 -16zm0 10l0 -3 -2 3 2 0z"/>
  <path id="3" class="fil25" d="M253 231l11 0c1,0 2,0 2,0 1,1 1,1 1,2 0,0 0,0 0,1l-1 2 -7 0 0 -1c0,0 0,0 0,0 0,0 0,0 0,0 -1,-1 -1,-1 -1,-1 -1,0 -1,0 -1,1 0,0 -1,0 -1,0l0 1c0,0 0,0 0,0 0,0 0,0 1,1l7 1c1,1 2,1 2,2 0,0 0,0 -1,0l0 4c0,1 -1,1 -2,2 0,1 -1,1 -2,1l-12 0c-1,0 -1,0 -2,-1 0,0 0,-1 0,-1 0,-1 0,-1 0,-1l0 -3 8 0 0 1c0,0 0,0 0,0 0,1 0,1 0,1 0,0 1,0 1,0 0,0 1,0 1,0 0,0 0,-1 0,-1l0 0c1,-1 1,-1 1,-1 0,0 -1,0 -1,0l-8 -2c0,0 -1,-1 -1,-1 0,-1 0,-1 0,-1l1 -3c0,-1 1,-2 1,-3 1,0 2,0 3,0z"/>
  <path id="4" class="fil25" d="M276 231l-2 11c0,0 0,0 0,0 0,1 0,1 0,1 0,0 1,0 1,0 0,0 1,0 1,0 0,0 0,-1 0,-1l3 -11 7 0 -2 13c0,1 -1,1 -2,2 0,1 -1,1 -2,1l-12 0c0,0 -1,0 -2,-1 0,0 0,-1 0,-1 0,-1 0,-1 0,-1l3 -13 7 0z"/>
  <path id="5" class="fil25" d="M302 231c1,0 2,0 2,0 1,1 1,1 1,2 0,0 0,0 0,1l-1 4c0,0 -1,1 -1,2 -1,0 -2,1 -3,1l-7 0 -1 6 -8 0 4 -16 14 0zm-6 3l-1 0 -1 3 1 0c1,0 1,0 1,0 0,-1 1,-1 1,-1l0 -1c0,0 0,0 0,0 0,0 0,0 0,0 -1,-1 -1,-1 -1,-1z"/>
  <polygon id="6" class="fil25" points="322,231 322,234 314,234 313,236 321,236 321,240 312,240 312,243 320,243 319,247 303,247 307,231 "/>
  <path id="7" class="fil25" d="M338 231c1,0 2,0 2,0 1,1 1,1 1,2 0,0 0,0 0,1l-1 4c0,1 -1,2 -2,2 1,1 1,1 1,2l0 0c0,1 0,1 0,2 0,0 0,1 0,2 0,0 0,0 0,0 0,0 0,1 0,1l0 0 -7 0c0,0 -1,0 -1,0 0,-1 0,-1 0,-1 0,0 0,0 0,0l0 -4c0,0 1,0 1,0 0,-1 -1,-1 -1,-1 0,0 0,0 0,0l-2 0 -1 6 -8 0 4 -16 14 0zm-6 3l-1 0 -1 3 1 0c1,0 1,0 1,0 0,-1 1,-1 1,-1l0 -1c0,0 0,0 0,0 0,0 0,0 0,0 -1,-1 -1,-1 -1,-1z"/>
  <polygon id="8" class="fil25" points="352,231 350,237 353,237 354,231 362,231 358,247 351,247 352,241 350,241 348,247 341,247 344,231 "/>
  <polygon id="9" class="fil25" points="379,231 378,234 370,234 369,236 378,236 377,240 369,240 368,243 376,243 375,247 360,247 363,231 "/>
  <path id="10" class="fil25" d="M395 231c0,0 1,0 2,0 0,1 0,1 0,2 0,0 0,0 0,1l-1 4c0,1 -1,2 -2,2 1,1 1,1 1,2l0 0c0,1 0,1 0,2 0,0 0,1 0,2 0,0 0,0 0,0 0,0 0,1 1,1l0 0 -8 0c0,0 0,0 0,0 -1,-1 -1,-1 -1,-1 0,0 0,0 0,0l1 -4c0,0 0,0 0,0 0,-1 0,-1 0,-1 -1,0 -1,0 -1,0l-1 0 -2 6 -7 0 3 -16 15 0zm-7 3l-1 0 -1 3 1 0c1,0 1,0 1,0 1,-1 1,-1 1,-1l0 -1c0,0 0,0 0,0 0,0 0,0 0,0 0,-1 -1,-1 -1,-1z"/>
  <path id="11" class="fil25" d="M403 231l12 0c1,0 1,0 2,0 0,1 0,1 0,2 0,0 0,0 0,1l-2 10c0,1 0,1 -1,2 -1,1 -2,1 -2,1l-12 0c-1,0 -2,0 -2,-1 -1,0 -1,-1 -1,-1 0,-1 0,-1 0,-1l2 -10c1,-1 1,-2 2,-3 0,0 1,0 2,0zm5 3c0,0 0,0 -1,1 0,0 0,0 0,0l-2 7c0,0 0,0 0,0 0,1 1,1 1,1 0,0 0,0 0,0 1,0 1,0 1,0 1,0 1,-1 1,-1l1 -7c0,0 0,0 0,0 0,0 0,0 0,0 0,-1 0,-1 -1,-1z"/>
  <polygon id="12" class="fil25" points="197,280 187,280 184,257 195,257 197,269 204,257 210,257 "/>
  <path id="13" class="fil25" d="M216 257l17 0c1,0 2,0 3,1 1,0 1,1 1,2 0,0 0,1 0,1l-3 15c0,1 -1,2 -2,3 -1,1 -2,1 -4,1l-16 0c-2,0 -2,0 -3,-1 -1,-1 -1,-2 -1,-2 0,-1 0,-1 0,-1l3 -15c0,-1 1,-2 2,-3 1,-1 2,-1 3,-1zm8 5c-1,0 -1,0 -2,0 0,1 0,1 0,2l-2 9c0,0 0,0 0,0 0,1 0,1 0,1 0,1 1,1 1,1 1,0 1,0 1,-1 1,0 1,0 1,-1l2 -9c0,-1 0,-1 0,-1 0,0 0,0 0,-1 0,0 -1,0 -1,0z"/>
  <polygon id="14" class="fil25" points="255,262 251,280 240,280 244,262 238,262 239,257 262,257 261,262 "/>
  <polygon id="15" class="fil25" points="286,257 285,262 273,262 273,265 284,265 283,270 272,270 271,275 282,275 281,280 259,280 263,257 "/>
  <polygon id="16" class="fil25" points="311,262 307,280 296,280 300,262 294,262 295,257 318,257 317,262 "/>
  <path id="17" class="fil25" d="M324 257l16 0c2,0 3,0 3,1 1,0 1,1 1,2 0,0 0,1 0,1l-3 15c0,1 -1,2 -2,3 -1,1 -2,1 -3,1l-17 0c-1,0 -2,0 -3,-1 0,-1 -1,-2 -1,-2 0,-1 0,-1 0,-1l3 -15c1,-1 1,-2 2,-3 1,-1 2,-1 4,-1zm7 5c-1,0 -1,0 -1,0 -1,1 -1,1 -1,2l-2 9c0,0 0,0 0,0 0,1 0,1 0,1 0,1 1,1 1,1 1,0 1,0 2,-1 0,0 0,0 0,-1l2 -9c0,-1 0,-1 0,-1 0,0 0,0 0,-1 0,0 -1,0 -1,0z"/>
  <path id="18" class="fil25" d="M368 257c1,0 2,0 2,1 1,0 1,1 1,2 0,0 0,1 0,1l-3 15c0,1 -1,2 -2,3 -1,1 -2,1 -3,1l-21 0 4 -23 22 0zm-14 18l2 0c0,0 0,0 1,-1 0,0 0,0 1,-1l1 -9c0,-1 1,-1 1,-1 0,0 -1,0 -1,-1 0,0 0,0 -1,0l-2 0 -2 13z"/>
  <path id="19" class="fil25" d="M382 257l10 0 4 23 -11 0 -1 -3 -7 0 -1 3 -7 0 13 -23zm1 15l-1 -5 -2 5 3 0z"/>
  <polygon id="20" class="fil25" points="409,280 398,280 400,269 394,257 405,257 408,263 414,257 421,257 412,267 "/>
  <path id="21" class="fil26 str5" d="M180 247l4 -16 14 0c1,0 2,0 2,0 1,1 1,1 1,2 0,0 0,0 0,1l-1 2c0,1 0,2 -1,2 0,0 0,0 0,1 1,0 1,0 1,0 0,1 0,1 0,1l-1 4c0,1 -1,1 -2,2 0,1 -1,1 -2,1l-15 0zm13 -12c0,0 0,0 0,0 0,0 0,0 0,0 -1,-1 -1,-1 -1,-1l-1 0 -1 3 1 0c1,0 1,0 1,-1 0,0 1,0 1,0l0 -1zm-3 8c0,0 1,0 1,0 0,0 0,-1 0,-1l1 0c0,0 0,0 0,-1 0,0 -1,0 -1,0 0,0 0,-1 0,-1l-2 0 0 3 1 0z"/>
  <polygon id="22" class="fil26 str5" points="219,231 218,234 210,234 209,236 217,236 217,240 208,240 208,243 216,243 215,247 199,247 203,231 "/>
  <path id="23" class="fil26 str5" d="M231 231l6 0 3 16 -8 0 0 -2 -5 0 -1 2 -5 0 10 -16zm0 10l0 -3 -2 3 2 0z"/>
  <path id="24" class="fil26 str5" d="M253 231l11 0c1,0 2,0 2,0 1,1 1,1 1,2 0,0 0,0 0,1l-1 2 -7 0 0 -1c0,0 0,0 0,0 0,0 0,0 0,0 -1,-1 -1,-1 -1,-1 -1,0 -1,0 -1,1 0,0 -1,0 -1,0l0 1c0,0 0,0 0,0 0,0 0,0 1,1l7 1c1,1 2,1 2,2 0,0 0,0 -1,0l0 4c0,1 -1,1 -2,2 0,1 -1,1 -2,1l-12 0c-1,0 -1,0 -2,-1 0,0 0,-1 0,-1 0,-1 0,-1 0,-1l0 -3 8 0 0 1c0,0 0,0 0,0 0,1 0,1 0,1 0,0 1,0 1,0 0,0 1,0 1,0 0,0 0,-1 0,-1l0 0c1,-1 1,-1 1,-1 0,0 -1,0 -1,0l-8 -2c0,0 -1,-1 -1,-1 0,-1 0,-1 0,-1l1 -3c0,-1 1,-2 1,-3 1,0 2,0 3,0z"/>
  <path id="25" class="fil26 str5" d="M276 231l-2 11c0,0 0,0 0,0 0,1 0,1 0,1 0,0 1,0 1,0 0,0 1,0 1,0 0,0 0,-1 0,-1l3 -11 7 0 -2 13c0,1 -1,1 -2,2 0,1 -1,1 -2,1l-12 0c0,0 -1,0 -2,-1 0,0 0,-1 0,-1 0,-1 0,-1 0,-1l3 -13 7 0z"/>
  <path id="26" class="fil26 str5" d="M302 231c1,0 2,0 2,0 1,1 1,1 1,2 0,0 0,0 0,1l-1 4c0,0 -1,1 -1,2 -1,0 -2,1 -3,1l-7 0 -1 6 -8 0 4 -16 14 0zm-6 3l-1 0 -1 3 1 0c1,0 1,0 1,0 0,-1 1,-1 1,-1l0 -1c0,0 0,0 0,0 0,0 0,0 0,0 -1,-1 -1,-1 -1,-1z"/>
  <polygon id="27" class="fil26 str5" points="322,231 322,234 314,234 313,236 321,236 321,240 312,240 312,243 320,243 319,247 303,247 307,231 "/>
  <path id="28" class="fil26 str5" d="M338 231c1,0 2,0 2,0 1,1 1,1 1,2 0,0 0,0 0,1l-1 4c0,1 -1,2 -2,2 1,1 1,1 1,2l0 0c0,1 0,1 0,2 0,0 0,1 0,2 0,0 0,0 0,0 0,0 0,1 0,1l0 0 -7 0c0,0 -1,0 -1,0 0,-1 0,-1 0,-1 0,0 0,0 0,0l0 -4c0,0 1,0 1,0 0,-1 -1,-1 -1,-1 0,0 0,0 0,0l-2 0 -1 6 -8 0 4 -16 14 0zm-6 3l-1 0 -1 3 1 0c1,0 1,0 1,0 0,-1 1,-1 1,-1l0 -1c0,0 0,0 0,0 0,0 0,0 0,0 -1,-1 -1,-1 -1,-1z"/>
  <polygon id="29" class="fil26 str5" points="352,231 350,237 353,237 354,231 362,231 358,247 351,247 352,241 350,241 348,247 341,247 344,231 "/>
  <polygon id="30" class="fil26 str5" points="379,231 378,234 370,234 369,236 378,236 377,240 369,240 368,243 376,243 375,247 360,247 363,231 "/>
  <path id="31" class="fil26 str5" d="M395 231c0,0 1,0 2,0 0,1 0,1 0,2 0,0 0,0 0,1l-1 4c0,1 -1,2 -2,2 1,1 1,1 1,2l0 0c0,1 0,1 0,2 0,0 0,1 0,2 0,0 0,0 0,0 0,0 0,1 1,1l0 0 -8 0c0,0 0,0 0,0 -1,-1 -1,-1 -1,-1 0,0 0,0 0,0l1 -4c0,0 0,0 0,0 0,-1 0,-1 0,-1 -1,0 -1,0 -1,0l-1 0 -2 6 -7 0 3 -16 15 0zm-7 3l-1 0 -1 3 1 0c1,0 1,0 1,0 1,-1 1,-1 1,-1l0 -1c0,0 0,0 0,0 0,0 0,0 0,0 0,-1 -1,-1 -1,-1z"/>
  <path id="32" class="fil26 str5" d="M403 231l12 0c1,0 1,0 2,0 0,1 0,1 0,2 0,0 0,0 0,1l-2 10c0,1 0,1 -1,2 -1,1 -2,1 -2,1l-12 0c-1,0 -2,0 -2,-1 -1,0 -1,-1 -1,-1 0,-1 0,-1 0,-1l2 -10c1,-1 1,-2 2,-3 0,0 1,0 2,0zm5 3c0,0 0,0 -1,1 0,0 0,0 0,0l-2 7c0,0 0,0 0,0 0,1 1,1 1,1 0,0 0,0 0,0 1,0 1,0 1,0 1,0 1,-1 1,-1l1 -7c0,0 0,0 0,0 0,0 0,0 0,0 0,-1 0,-1 -1,-1z"/>
  <polygon id="33" class="fil26 str5" points="197,280 187,280 184,257 195,257 197,269 204,257 210,257 "/>
  <path id="34" class="fil26 str5" d="M216 257l17 0c1,0 2,0 3,1 1,0 1,1 1,2 0,0 0,1 0,1l-3 15c0,1 -1,2 -2,3 -1,1 -2,1 -4,1l-16 0c-2,0 -2,0 -3,-1 -1,-1 -1,-2 -1,-2 0,-1 0,-1 0,-1l3 -15c0,-1 1,-2 2,-3 1,-1 2,-1 3,-1zm8 5c-1,0 -1,0 -2,0 0,1 0,1 0,2l-2 9c0,0 0,0 0,0 0,1 0,1 0,1 0,1 1,1 1,1 1,0 1,0 1,-1 1,0 1,0 1,-1l2 -9c0,-1 0,-1 0,-1 0,0 0,0 0,-1 0,0 -1,0 -1,0z"/>
  <polygon id="35" class="fil26 str5" points="255,262 251,280 240,280 244,262 238,262 239,257 262,257 261,262 "/>
  <polygon id="36" class="fil26 str5" points="286,257 285,262 273,262 273,265 284,265 283,270 272,270 271,275 282,275 281,280 259,280 263,257 "/>
  <polygon id="37" class="fil26 str5" points="311,262 307,280 296,280 300,262 294,262 295,257 318,257 317,262 "/>
  <path id="38" class="fil26 str5" d="M324 257l16 0c2,0 3,0 3,1 1,0 1,1 1,2 0,0 0,1 0,1l-3 15c0,1 -1,2 -2,3 -1,1 -2,1 -3,1l-17 0c-1,0 -2,0 -3,-1 0,-1 -1,-2 -1,-2 0,-1 0,-1 0,-1l3 -15c1,-1 1,-2 2,-3 1,-1 2,-1 4,-1zm7 5c-1,0 -1,0 -1,0 -1,1 -1,1 -1,2l-2 9c0,0 0,0 0,0 0,1 0,1 0,1 0,1 1,1 1,1 1,0 1,0 2,-1 0,0 0,0 0,-1l2 -9c0,-1 0,-1 0,-1 0,0 0,0 0,-1 0,0 -1,0 -1,0z"/>
  <path id="39" class="fil26 str5" d="M368 257c1,0 2,0 2,1 1,0 1,1 1,2 0,0 0,1 0,1l-3 15c0,1 -1,2 -2,3 -1,1 -2,1 -3,1l-21 0 4 -23 22 0zm-14 18l2 0c0,0 0,0 1,-1 0,0 0,0 1,-1l1 -9c0,-1 1,-1 1,-1 0,0 -1,0 -1,-1 0,0 0,0 -1,0l-2 0 -2 13z"/>
  <path id="40" class="fil26 str5" d="M382 257l10 0 4 23 -11 0 -1 -3 -7 0 -1 3 -7 0 13 -23zm1 15l-1 -5 -2 5 3 0z"/>
  <polygon id="41" class="fil26 str5" points="409,280 398,280 400,269 394,257 405,257 408,263 414,257 421,257 412,267 "/>
 </g>
</svg>
